<svg width="16" height="16" viewBox="0 0 16 16" fill="none" xmlns="http://www.w3.org/2000/svg">
<path d="M15.4696 4.37697C14.5772 4.30962 13.668 4.24226 12.7756 4.19175C12.3041 3.48457 11.5128 2.74371 10.7382 3.21517C10.5193 3.0973 10.3004 2.99628 10.0816 2.94576C9.71113 2.86158 9.35754 3.11414 9.08813 3.33303C8.90292 3.48457 8.73454 3.66978 8.59984 3.87184C8.22941 3.83816 7.87582 3.82132 7.50539 3.78765C7.26967 3.26568 6.84872 2.87841 6.19205 3.13098C5.92265 3.232 5.75427 3.43406 5.65325 3.66978C5.56906 3.66978 5.48487 3.65295 5.40068 3.65295C5.36701 3.55192 5.33333 3.46773 5.26598 3.36671C4.97974 2.97944 4.32307 3.01311 3.91897 3.18149C3.75059 3.24884 3.61589 3.36671 3.49803 3.51824C2.8582 3.46773 2.2352 3.43406 1.59537 3.38354V3.36671C1.62905 3.36671 1.67956 3.34987 1.71323 3.33303C1.8311 3.28252 1.9658 3.19833 2.04999 3.08047C2.13418 2.9626 2.20153 2.81106 2.20153 2.6932C2.20153 2.62585 2.20153 2.57534 2.20153 2.52482C2.20153 2.47431 2.18469 2.45747 2.18469 2.45747C2.18469 2.45747 2.15101 2.45747 2.11734 2.45747C2.06682 2.45747 2.01631 2.47431 1.94896 2.50798C1.8311 2.5585 1.6964 2.64269 1.61221 2.76055C1.59537 2.77739 1.57853 2.81106 1.56169 2.8279V2.81106C1.51118 2.67636 1.41016 2.5585 1.29229 2.47431C1.24178 2.44063 1.19127 2.40696 1.14075 2.39012C1.10708 2.37328 1.0734 2.35645 1.0734 2.35645C1.0734 2.35645 1.09024 2.40696 1.0734 2.44063C1.05656 2.47431 1.03973 2.54166 1.02289 2.60901C1.00605 2.74371 1.02289 2.89525 1.0734 3.02995C1.12391 3.16465 1.22494 3.28252 1.3428 3.36671C1.35964 3.36671 1.35964 3.38354 1.37648 3.38354C1.09024 3.36671 0.803999 3.34987 0.517758 3.31619C-0.172586 3.26568 -0.172586 4.36013 0.517758 4.3938C1.37648 4.46115 2.2352 4.51167 3.09392 4.57902C2.97606 5.16834 2.97606 5.77449 3.07708 6.36381C2.15101 6.59954 1.57853 7.64348 1.54486 8.56955C1.52802 9.19254 1.81426 9.83237 2.08366 10.388C2.43725 11.112 2.92555 11.7519 3.38016 12.4085C3.38016 12.4085 3.38016 12.4254 3.397 12.4254C3.46435 12.5096 3.58222 12.459 3.58222 12.3749C3.58222 12.3075 3.58222 12.2402 3.58222 12.156C3.86846 12.4085 4.20521 12.5432 4.5588 12.6948C4.9629 12.88 5.29966 13.1662 5.70376 13.3346C6.1247 13.503 6.59616 13.5198 7.03394 13.5703C7.57274 13.6208 8.11155 13.7219 8.61668 13.5367C8.68403 13.5198 8.71771 13.4356 8.66719 13.3683C8.59984 13.3009 8.54933 13.2504 8.48198 13.1831C8.86924 13.2167 9.25651 13.2504 9.62694 13.2167C10.1657 13.1662 10.7046 12.9642 11.2097 12.7621C12.1358 12.358 12.9608 11.7182 13.2807 10.7416C13.2976 10.6743 13.2302 10.5901 13.1629 10.6237C13.0787 10.6574 12.9945 10.6911 12.9271 10.7248C13.3817 10.0176 13.7858 9.34408 13.6848 8.5022C13.6848 8.43485 13.668 8.36749 13.6511 8.30014C13.6006 8.33382 13.5501 8.35066 13.4828 8.38433C13.4828 8.30014 13.4996 8.21596 13.4996 8.13177C13.567 7.17202 13.567 6.19543 13.2976 5.26936C14.0216 5.31988 14.7456 5.37039 15.4696 5.4209C16.1768 5.50509 16.1768 4.42748 15.4696 4.37697ZM4.27256 9.59665C3.70008 9.7987 2.97606 9.91656 2.57195 9.41143C2.75717 9.24305 2.94238 9.07468 3.1276 8.88946C3.19495 8.82211 3.397 8.68741 3.31281 8.55271C3.22862 8.41801 2.95922 8.41801 2.84136 8.43485C2.62247 8.45168 2.42042 8.56955 2.2352 8.68741C2.1005 8.41801 2.47093 8.04758 2.68982 7.92972C2.92555 7.79501 3.19495 7.77818 3.44751 7.84553C3.46435 7.84553 3.48119 7.84553 3.49803 7.86236C3.49803 7.84553 3.51486 7.82869 3.5317 7.81185C3.81794 7.3404 4.72718 7.13834 5.08077 7.59296C4.8282 7.67715 4.5588 7.77818 4.30624 7.89604C4.18837 7.96339 4.03683 8.06442 4.07051 8.23279C4.10418 8.3675 4.27256 8.40117 4.39042 8.40117C4.67666 8.40117 4.97974 8.36749 5.28282 8.35066C5.40068 8.99049 4.86188 9.37776 4.27256 9.59665ZM5.09761 5.35355C4.99658 5.21885 4.89555 5.06731 4.81137 4.91577C4.76085 4.83158 4.74401 4.76423 4.72718 4.69688C4.97974 4.71372 5.21547 4.73056 5.46803 4.7474C5.4512 5.10099 5.4512 5.47141 5.46803 5.82501C5.33333 5.6903 5.21547 5.52193 5.09761 5.35355ZM7.69061 5.84184C7.4212 5.5556 7.11813 5.18517 6.98343 4.84842C7.33702 4.86526 7.69061 4.89893 8.0442 4.91577C7.9095 5.23569 7.79163 5.5556 7.69061 5.84184ZM10.6709 7.72766C10.5025 7.64348 10.351 7.50877 10.2499 7.27305C10.0647 6.90262 9.98053 6.49851 9.96369 6.09441C9.94686 5.79133 9.96369 5.4209 10.0479 5.06731C10.4015 5.08415 10.7382 5.11782 11.0918 5.13466C11.1592 5.43774 11.1928 5.75766 11.1928 6.02706C11.1928 6.66689 11.0581 7.25621 10.6709 7.72766Z"/>
<path d="M3.86407 9.10372C3.98528 9.03637 4.06428 8.91214 4.04053 8.82623C4.01677 8.74033 3.89926 8.72528 3.77806 8.79262C3.65685 8.85996 3.57785 8.98419 3.6016 9.0701C3.62536 9.15601 3.74287 9.17106 3.86407 9.10372Z"/>
<path d="M4.39259 9.30859C4.19054 9.49953 3.97165 9.64274 3.73593 9.69048C3.6349 9.71434 3.6349 9.92916 3.73593 9.92916C4.00533 9.88142 4.25789 9.73821 4.47678 9.5234C4.56097 9.42793 4.49362 9.21311 4.39259 9.30859Z"/>
</svg>
