<?xml version="1.0" encoding="UTF-8"?>
<svg xmlns="http://www.w3.org/2000/svg" version="1.1" viewBox="0 0 12 12">
  <defs>
    <style>
      .cls-1 {
        fill: #000;
        stroke-width: 0px;
      }
    </style>
  </defs>
  <g id="Layer_1" data-name="Layer 1" focusable="false">
    <path class="cls-1" d="M5.7,5.7l-4.4,3.4c0,0,0,.1,0,.2v1c0,0,.1.1.2,0l4.5-3.6,4.5,3.6s.1,0,.2,0c0,0,0,0,0,0v-1c0,0,0-.1,0-.2l-4.4-3.4c-.2-.1-.4-.1-.5,0ZM5.7,1.6L1.4,5.1c0,0,0,.1,0,.2v1c0,0,.1.1.2,0l4.5-3.6,4.5,3.6s.1,0,.2,0c0,0,0,0,0,0v-1c0,0,0-.1,0-.2L6.3,1.6c-.2-.1-.4-.1-.5,0Z"/>
  </g>
</svg>