<?xml version="1.0" encoding="UTF-8"?>
<svg xmlns="http://www.w3.org/2000/svg" version="1.1" viewBox="0 0 12 12">
  <defs>
    <style>
      .cls-1 {
        fill: #000;
        stroke-width: 0px;
      }
    </style>
  </defs>
  <g id="Layer_1" data-name="Layer 1" focusable="false">
    <path class="cls-1" d="M6.3,6.3l4.4-3.4c0,0,0-.1,0-.2v-1c0,0-.1-.1-.2,0l-4.5,3.6L1.5,1.6s-.1,0-.2,0c0,0,0,0,0,0v1c0,0,0,.1,0,.2l4.4,3.4c.2.1.4.1.5,0ZM6.3,10.4l4.4-3.4c0,0,0-.1,0-.2v-1c0,0-.1-.1-.2,0l-4.5,3.6L1.5,5.6s-.1,0-.2,0c0,0,0,0,0,0v1c0,0,0,.1,0,.2l4.4,3.4c.2.1.4.1.5,0Z"/>
  </g>
</svg>