<svg width="16" height="16" viewBox="0 0 16 16" fill="none" xmlns="http://www.w3.org/2000/svg">
<path d="M0.419141 2.50326H3.40622C3.50265 2.97931 3.76645 3.40807 4.15252 3.71627C4.5386 4.02447 5.02298 4.19297 5.52288 4.19297C6.02278 4.19297 6.50716 4.02447 6.89323 3.71627C7.27931 3.40807 7.54311 2.97931 7.63954 2.50326H15.5809C15.692 2.50326 15.7986 2.46041 15.8772 2.38412C15.9558 2.30783 16 2.20437 16 2.09648C16 1.9886 15.9558 1.88513 15.8772 1.80885C15.7986 1.73256 15.692 1.6897 15.5809 1.6897H7.63954C7.54311 1.21366 7.27931 0.784895 6.89323 0.476697C6.50716 0.168499 6.02278 0 5.52288 0C5.02298 0 4.5386 0.168499 4.15252 0.476697C3.76645 0.784895 3.50265 1.21366 3.40622 1.6897H0.419141C0.307978 1.6897 0.201368 1.73256 0.122763 1.80885C0.0441594 1.88513 0 1.9886 0 2.09648C0 2.20437 0.0441594 2.30783 0.122763 2.38412C0.201368 2.46041 0.307978 2.50326 0.419141 2.50326Z" fill="#0f5427" />
<path d="M15.5809 7.59611H12.5491C12.4513 7.12156 12.187 6.69455 11.8014 6.38773C11.4157 6.08092 10.9325 5.91325 10.4338 5.91325C9.93514 5.91325 9.45188 6.08092 9.06623 6.38773C8.68058 6.69455 8.41637 7.12156 8.31855 7.59611H0.419141C0.307978 7.59611 0.201368 7.63897 0.122763 7.71526C0.0441594 7.79154 0 7.89501 0 8.00289C0 8.11078 0.0441594 8.21425 0.122763 8.29053C0.201368 8.36682 0.307978 8.40967 0.419141 8.40967H8.31855C8.41637 8.88423 8.68058 9.31124 9.06623 9.61806C9.45188 9.92487 9.93514 10.0925 10.4338 10.0925C10.9325 10.0925 11.4157 9.92487 11.8014 9.61806C12.187 9.31124 12.4513 8.88423 12.5491 8.40967H15.5809C15.692 8.40967 15.7986 8.36682 15.8772 8.29053C15.9558 8.21425 16 8.11078 16 8.00289C16 7.89501 15.9558 7.79154 15.8772 7.71526C15.7986 7.63897 15.692 7.59611 15.5809 7.59611Z" fill="#0f5427" />
<path d="M15.5809 13.5025H8.07265C7.97483 13.028 7.71062 12.601 7.32497 12.2941C6.93932 11.9873 6.45605 11.8197 5.95739 11.8197C5.45872 11.8197 4.97546 11.9873 4.58981 12.2941C4.20416 12.601 3.93995 13.028 3.84212 13.5025H0.419141C0.307978 13.5025 0.201368 13.5454 0.122763 13.6217C0.0441594 13.698 0 13.8014 0 13.9093C0 14.0172 0.0441594 14.1207 0.122763 14.1969C0.201368 14.2732 0.307978 14.3161 0.419141 14.3161H3.84212C3.93995 14.7906 4.20416 15.2177 4.58981 15.5245C4.97546 15.8313 5.45872 15.999 5.95739 15.999C6.45605 15.999 6.93932 15.8313 7.32497 15.5245C7.71062 15.2177 7.97483 14.7906 8.07265 14.3161H15.5809C15.692 14.3161 15.7986 14.2732 15.8772 14.1969C15.9558 14.1207 16 14.0172 16 13.9093C16 13.8014 15.9558 13.698 15.8772 13.6217C15.7986 13.5454 15.692 13.5025 15.5809 13.5025Z" fill="#0f5427" />
</svg>
