<svg width="16" height="17" viewBox="0 0 16 17" fill="none" xmlns="http://www.w3.org/2000/svg">
<path d="M6.82608 1.3027V3.95721H1.6932C1.12624 3.95721 0.666626 4.41682 0.666626 4.98378V9.09009C0.666626 9.65705 1.12624 10.1167 1.6932 10.1167H6.82608V16.2761H8.87924V10.1167H12.5047C12.8094 10.1167 13.0983 9.98134 13.2934 9.74729L15.2781 7.36553C15.4368 7.17518 15.4368 6.89869 15.2781 6.70834L13.2934 4.32658C13.0983 4.09253 12.8094 3.95721 12.5047 3.95721H8.87924V1.3027C8.87924 1.03043 8.77108 0.769321 8.57856 0.5768C8.17766 0.175897 7.52766 0.175897 7.12676 0.5768C6.93424 0.769321 6.82608 1.03043 6.82608 1.3027ZM12.5047 4.98378L14.2157 7.03694L12.5047 9.09009H1.6932L1.6932 4.98378H12.5047Z"/>
</svg>
