<svg width="16" height="16" viewBox="0 0 16 16" fill="none" xmlns="http://www.w3.org/2000/svg">
<path d="M8.41598 0.222978C8.37032 0.1545 8.30846 0.0983518 8.23589 0.0595182C8.16332 0.0206846 8.08229 0.000366211 7.99998 0.000366211C7.91768 0.000366211 7.83664 0.0206846 7.76407 0.0595182C7.69151 0.0983518 7.62964 0.1545 7.58398 0.222978L4.58398 4.72298C4.53388 4.79827 4.50513 4.88575 4.50081 4.97609C4.49649 5.06643 4.51675 5.15625 4.55944 5.23598C4.60213 5.31571 4.66565 5.38237 4.74323 5.42886C4.82081 5.47535 4.90954 5.49993 4.99998 5.49998H5.09798L3.07598 8.73498C3.02868 8.81066 3.0025 8.89763 3.00015 8.98685C2.99781 9.07608 3.01939 9.1643 3.06266 9.24236C3.10593 9.32043 3.1693 9.38549 3.2462 9.43079C3.32311 9.47609 3.41073 9.49998 3.49998 9.49998H3.69098L2.05298 12.776C2.01479 12.8522 1.99671 12.9369 2.00049 13.0221C2.00427 13.1073 2.02976 13.1901 2.07455 13.2626C2.11935 13.3352 2.18195 13.3951 2.25641 13.4366C2.33087 13.4782 2.41472 13.5 2.49998 13.5H6.99998V16H8.99998V13.5H13.5C13.5852 13.5 13.6691 13.4782 13.7436 13.4366C13.818 13.3951 13.8806 13.3352 13.9254 13.2626C13.9702 13.1901 13.9957 13.1073 13.9995 13.0221C14.0033 12.9369 13.9852 12.8522 13.947 12.776L12.31 9.49998H12.501C12.5902 9.49998 12.6779 9.47609 12.7548 9.43079C12.8317 9.38549 12.895 9.32043 12.9383 9.24236C12.9816 9.1643 13.0032 9.07608 13.0008 8.98685C12.9985 8.89763 12.9723 8.81066 12.925 8.73498L10.902 5.49998H11C11.0904 5.49993 11.1792 5.47535 11.2567 5.42886C11.3343 5.38237 11.3978 5.31571 11.4405 5.23598C11.4832 5.15625 11.5035 5.06643 11.4992 4.97609C11.4948 4.88575 11.4661 4.79827 11.416 4.72298L8.41598 0.222978V0.222978Z"/>
</svg>
