<svg width="16" height="9" viewBox="0 0 16 9" fill="none" xmlns="http://www.w3.org/2000/svg">
<path d="M14.6696 2.14334H16V6.13448H14.6696V2.14334Z"/>
<path d="M14.0784 1.8478V6.43021C14.0784 6.59281 14.2114 6.72585 14.374 6.72585H16V8.27794H8.29566V6.61647C9.53142 6.46865 10.4952 5.41322 10.4952 4.13899C10.4952 2.86475 9.53142 1.80947 8.29566 1.66151V3.78929e-05H16V1.55212H14.374C14.2114 1.55212 14.0784 1.6852 14.0784 1.8478Z"/>
<path d="M9.90387 4.13891C9.90387 5.0879 9.20617 5.87725 8.29561 6.01916V2.25866C9.20617 2.40057 9.90387 3.18992 9.90387 4.13891Z" />
<path d="M7.70452 2.25857V6.01906C6.79396 5.87716 6.09626 5.0878 6.09626 4.13882C6.09626 3.18983 6.79396 2.40047 7.70452 2.25857Z" />
<path d="M5.5048 4.13891C5.5048 5.41311 6.46858 6.46843 7.70433 6.61639V8.27786H0V6.72577H1.62601C1.78861 6.72577 1.92165 6.59274 1.92165 6.43014V1.84772C1.92165 1.68512 1.78861 1.55209 1.62601 1.55209H0V0H7.70433V1.66147C6.46858 1.80929 5.5048 2.86468 5.5048 4.13891Z"/>
<path d="M0.000151391 2.14334H1.33051V6.13448H0.000151391V2.14334Z"/>
</svg>
