<svg width="16" height="16" viewBox="0 0 16 16" fill="none" xmlns="http://www.w3.org/2000/svg">
<path d="M15.9193 12.7628L11.2884 7.38032L11.5414 7.1626L11.5421 7.16221L11.5425 7.16166L12.5494 6.29496L12.5532 6.29274L12.5556 6.28963L12.8061 6.07399L15.414 9.10754C15.4426 9.14071 15.4774 9.16794 15.5165 9.18766C15.5556 9.20738 15.5982 9.21921 15.6418 9.22247C15.6855 9.22573 15.7293 9.22037 15.7709 9.20668C15.8125 9.19299 15.851 9.17125 15.8841 9.1427C15.9173 9.11414 15.9445 9.07933 15.9642 9.04025C15.984 9.00118 15.9958 8.9586 15.9991 8.91495C16.0023 8.8713 15.997 8.82744 15.9833 8.78586C15.9696 8.74429 15.9478 8.70581 15.9193 8.67264L13.0946 5.38713C13.0367 5.32021 12.9546 5.27899 12.8663 5.27252C12.7781 5.26606 12.6909 5.29486 12.6238 5.35263L12.3711 5.57L10.1976 3.04274L10.7035 2.60782C10.7704 2.55015 10.8118 2.46822 10.8184 2.38008C10.825 2.29193 10.7963 2.20477 10.7386 2.13777L8.99957 0.115941C8.97103 0.0827452 8.93622 0.0555011 8.89714 0.0357663C8.85806 0.0160315 8.81548 0.00419301 8.77182 0.000927834C8.72816 -0.00233734 8.68429 0.00303483 8.6427 0.0167372C8.60112 0.0304395 8.56265 0.0522032 8.52949 0.0807838L6.06775 2.19766L2.79052 2.87247C2.70853 2.88942 2.63593 2.9366 2.58713 3.00464C2.53834 3.07267 2.51694 3.15657 2.52717 3.23966C2.66346 4.36543 3.13092 5.42541 3.87031 6.28523C4.60969 7.14506 5.58772 7.76603 6.68043 8.06944C6.70967 8.07768 6.7399 8.08184 6.77027 8.08181C6.83845 8.08175 6.90497 8.06081 6.9609 8.02182C7.01683 7.98283 7.05948 7.92766 7.08312 7.86371L8.24107 4.72502L8.68116 4.34662L10.8545 6.87411L10.6084 7.08572C10.5737 7.1138 10.545 7.14857 10.524 7.18795C10.5031 7.22733 10.4902 7.27053 10.4862 7.31498C10.4822 7.35942 10.4872 7.40422 10.5009 7.4467C10.5146 7.48918 10.5366 7.52849 10.5658 7.56228L15.4141 13.1977C15.4717 13.2647 15.5537 13.3061 15.6418 13.3127C15.73 13.3193 15.8171 13.2906 15.8841 13.2329C15.9511 13.1752 15.9925 13.0933 15.9991 13.0052C16.0057 12.917 15.9769 12.8298 15.9193 12.7628ZM6.56713 7.33604C5.71787 7.04403 4.96164 6.53125 4.37609 5.85037C3.79054 5.16949 3.39677 4.34503 3.23522 3.46167L3.88959 3.32688C4.03118 4.09785 4.37515 4.81733 4.88626 5.41166C5.39737 6.00599 6.05726 6.45381 6.79837 6.70927L6.56713 7.33604ZM7.7407 4.27613C7.69774 4.31306 7.66491 4.36034 7.64532 4.41349L7.02895 6.08424C6.39394 5.86822 5.82838 5.48608 5.39103 4.97755C4.95368 4.46903 4.66051 3.85266 4.54198 3.1925L6.28684 2.83307C6.34235 2.82165 6.39401 2.79621 6.43691 2.75918L8.71147 0.803439L10.0159 2.31974L9.51037 2.75443L9.51003 2.75463L9.50979 2.75494L7.7407 4.27613ZM9.18664 3.91201L9.69216 3.47734L11.8656 6.00464L11.3599 6.43946L9.18664 3.91201ZM8.33612 12.338V10.0001C8.33612 8.91394 5.80127 8.66678 4.66597 8.66678C3.53307 8.66678 0.995822 8.91585 0.995822 10.0001V12.338C0.994864 12.6477 0.932252 12.954 0.811636 13.2393C0.691021 13.5245 0.514818 13.7828 0.293305 13.9992C0.169288 14.119 0.0797938 14.27 0.034202 14.4364C-0.0113899 14.6027 -0.0114008 14.7782 0.0341703 14.9445C0.0797415 15.1109 0.169217 15.2619 0.293219 15.3817C0.417221 15.5016 0.571184 15.5859 0.738972 15.6258C2.03041 15.8918 3.34691 16.0166 4.66532 15.9982C5.98471 16.0165 7.30218 15.8915 8.5946 15.6255C8.76218 15.5853 8.91587 15.5008 9.03961 15.3809C9.16335 15.261 9.25258 15.11 9.29797 14.9437C9.34335 14.7775 9.34323 14.6021 9.2976 14.436C9.25198 14.2698 9.16254 14.1189 9.03863 13.9992C8.81712 13.7828 8.64091 13.5245 8.5203 13.2393C8.39969 12.9541 8.33708 12.6477 8.33612 12.338ZM4.66597 9.33345C6.60131 9.33345 7.59974 9.81197 7.66518 10.0001C7.60268 10.1821 6.68953 10.6355 4.83395 10.6635C4.77474 10.6645 4.71686 10.6812 4.66623 10.7119C4.61561 10.7427 4.57406 10.7863 4.54585 10.8383L3.97648 11.8911L3.51421 10.77C3.49211 10.7164 3.45644 10.6695 3.41072 10.6339C3.36501 10.5983 3.31081 10.5752 3.25345 10.5669C2.02584 10.3898 1.68402 10.0662 1.66514 10.005C1.71559 9.82012 2.71403 9.33345 4.66597 9.33345ZM8.6545 14.7687C8.64113 14.8198 8.614 14.8663 8.57606 14.9031C8.53813 14.9399 8.49083 14.9656 8.43932 14.9774C5.94685 15.4536 3.38676 15.4537 0.894255 14.9777C0.842535 14.9655 0.795068 14.9396 0.756864 14.9026C0.718661 14.8657 0.691138 14.8191 0.677202 14.7679C0.663265 14.7166 0.663432 14.6625 0.677684 14.6113C0.691937 14.5601 0.719746 14.5137 0.758177 14.477C1.04342 14.1984 1.27029 13.8658 1.42557 13.4985C1.58084 13.1313 1.66139 12.7368 1.66253 12.338V10.8149C2.07827 11.0023 2.51806 11.1311 2.96925 11.1974L3.6275 12.7938C3.65154 12.8521 3.69161 12.9023 3.74306 12.9388C3.79451 12.9753 3.85523 12.9964 3.9182 12.9998C3.92406 13.0002 3.92992 13.0002 3.93578 13.0002C3.99589 13.0001 4.05487 12.9839 4.1065 12.9531C4.15813 12.9224 4.20049 12.8782 4.22909 12.8253L5.04034 11.3257C5.9423 11.3288 6.83592 11.1529 7.66941 10.8083V12.338C7.67055 12.7368 7.7511 13.1313 7.90637 13.4985C8.06165 13.8658 8.28852 14.1984 8.57376 14.4771C8.61271 14.5136 8.64085 14.5601 8.65509 14.6115C8.66933 14.663 8.66912 14.7174 8.6545 14.7687ZM7.94938 14.257C7.97477 14.2927 7.99287 14.3331 8.00264 14.3758C8.0124 14.4186 8.01364 14.4628 8.00627 14.506C7.99891 14.5493 7.98309 14.5906 7.95973 14.6277C7.93636 14.6648 7.90591 14.6969 7.87011 14.7222C7.83431 14.7475 7.79387 14.7655 7.75111 14.7752C7.70835 14.7848 7.6641 14.7859 7.6209 14.7785C7.5777 14.771 7.5364 14.7551 7.49937 14.7316C7.46233 14.7082 7.43029 14.6776 7.40507 14.6418C6.92966 13.9673 6.67285 13.1632 6.66936 12.338C6.66936 12.2496 6.70448 12.1648 6.767 12.1023C6.82951 12.0398 6.9143 12.0047 7.00271 12.0047C7.09113 12.0047 7.17592 12.0398 7.23843 12.1023C7.30095 12.1648 7.33607 12.2496 7.33607 12.338C7.33911 13.0254 7.55319 13.6953 7.94938 14.257Z" />
</svg>
