<svg width="16" height="16" viewBox="0 0 16 16" fill="none" xmlns="http://www.w3.org/2000/svg">
<path d="M14.6696 6.14334H16V10.1345H14.6696V6.14334Z" fill="#080808"/>
<path d="M14.0784 5.8478V10.4302C14.0784 10.5928 14.2114 10.7258 14.374 10.7258H16V12.2779H8.29566V10.6165C9.53142 10.4686 10.4952 9.41322 10.4952 8.13899C10.4952 6.86475 9.53142 5.80947 8.29566 5.66151V4.00004H16V5.55212H14.374C14.2114 5.55212 14.0784 5.6852 14.0784 5.8478Z" fill="#080808"/>
<path d="M9.90387 8.13891C9.90387 9.0879 9.20617 9.87725 8.29561 10.0192V6.25866C9.20617 6.40057 9.90387 7.18992 9.90387 8.13891Z" fill="#080808"/>
<path d="M7.70452 6.25857V10.0191C6.79396 9.87716 6.09626 9.0878 6.09626 8.13882C6.09626 7.18983 6.79396 6.40047 7.70452 6.25857Z" fill="#080808"/>
<path d="M5.5048 8.13891C5.5048 9.41311 6.46858 10.4684 7.70433 10.6164V12.2779H0V10.7258H1.62601C1.78861 10.7258 1.92165 10.5927 1.92165 10.4301V5.84772C1.92165 5.68512 1.78861 5.55209 1.62601 5.55209H0V4H7.70433V5.66147C6.46858 5.80929 5.5048 6.86468 5.5048 8.13891Z" fill="#080808"/>
<path d="M0.000151391 6.14334H1.33051V10.1345H0.000151391V6.14334Z" fill="#080808"/>
</svg>
