<svg width="16" height="16" viewBox="0 0 16 16" fill="none" xmlns="http://www.w3.org/2000/svg">
<path fill-rule="evenodd" clip-rule="evenodd"  d="M5.56029 12.5409L3.62926 15.5296C3.57022 15.621 3.56305 15.74 3.6105 15.8386C3.65794 15.9378 3.75229 16 3.85546 16H11.5796C11.6727 16 11.7588 15.949 11.8095 15.8657C11.8155 15.8559 11.821 15.8457 11.826 15.835C11.8723 15.734 11.8626 15.6121 11.8003 15.5218L10.1451 13.1309C10.1236 13.0998 10.0966 13.0735 10.0662 13.0538L8.68691 12.1572C8.628 12.1192 8.55783 12.1059 8.49071 12.1201C8.49078 12.1201 8.49063 12.1201 8.49071 12.1201L7.13822 12.4136H5.78649C5.73751 12.4136 5.6903 12.4275 5.64916 12.4529C5.61431 12.4744 5.58382 12.5042 5.56029 12.5409ZM8.47311 12.8605L7.20434 13.1359H5.98965L4.60575 15.2777H10.798L9.65763 13.6305L8.47311 12.8605ZM6.65546 12.1148H7.10953L8.43634 11.8273C8.43662 11.8272 8.43699 11.8271 8.43728 11.8271C8.57157 11.7981 8.7113 11.8244 8.82854 11.9007C8.82848 11.9006 8.82859 11.9007 8.82854 11.9007L10.2036 12.7944C10.2068 12.7924 10.21 12.7904 10.2132 12.7884C10.2532 12.764 10.296 12.7452 10.3406 12.7324C10.3864 12.7193 10.4341 12.7125 10.4828 12.7125H10.9368L11.35 11.5938C11.4333 11.3666 11.6364 11.2182 11.8621 11.2182H13.5079L12.9263 10.1674C12.8761 10.0777 12.7868 10.0227 12.6897 10.0227H9.37932C9.34953 10.0227 9.32028 10.0275 9.29215 10.0377L7.63035 10.6354C7.57187 10.6563 7.52167 10.6982 7.48746 10.7537L6.65546 12.1148ZM10.4855 11.9902L10.7305 11.3268C10.7306 11.3266 10.7307 11.3263 10.7308 11.3261C10.8186 11.0872 10.9658 10.8882 11.1494 10.745H9.44147L8.46511 11.0962C8.71126 11.0787 8.95809 11.1425 9.17166 11.2814C9.1718 11.2815 9.17152 11.2813 9.17166 11.2814L10.2881 12.0071C10.3521 11.9959 10.4172 11.9902 10.4828 11.9902H10.4855ZM15.7241 16C15.8764 16 16 15.8661 16 15.7011V12.4136C16 12.2845 15.9239 12.1704 15.8113 12.1297L14.1561 11.532C14.128 11.5218 14.0988 11.517 14.069 11.517H11.8621C11.7498 11.517 11.6485 11.5908 11.6064 11.7039C11.6065 11.7037 11.6063 11.7041 11.6064 11.7039C11.6064 11.7039 11.6061 11.7047 11.6061 11.7047L11.1233 13.0114H10.4828C10.459 13.0114 10.4359 13.0143 10.4138 13.0209L12.021 15.3425C12.0209 15.3424 12.021 15.3426 12.021 15.3425C12.0342 15.3617 12.0465 15.3819 12.0574 15.4023C12.149 15.5744 12.1561 15.7866 12.0732 15.9674C12.0733 15.9672 12.0731 15.9677 12.0732 15.9674C12.0732 15.9675 12.0729 15.9682 12.0728 15.9683C12.0703 15.9737 12.0677 15.9789 12.0651 15.9842C12.0625 15.9894 12.0599 15.9946 12.0574 16H15.7241ZM12.7335 15.2777H15.3333V12.7184L14.0066 12.2393H12.1267L11.6323 13.5773L12.5543 14.9091C12.6329 15.0228 12.6929 15.1476 12.7335 15.2777ZM5.18236 3.13151C5.11268 3.22007 5.0993 3.34017 5.13816 3.4408C5.15381 3.48133 5.17793 3.5187 5.21026 3.54958C5.21126 3.55053 5.21227 3.55149 5.21329 3.55243C5.21346 3.55259 5.21363 3.55275 5.21381 3.55291L6.49822 4.73701C6.4982 4.73699 6.49824 4.73703 6.49822 4.73701C6.50377 4.74213 6.50953 4.74704 6.51534 4.75161C6.54329 4.77359 6.57402 4.78911 6.60587 4.79831C6.70543 4.82707 6.81596 4.79406 6.88718 4.70353L8.31063 2.89122C8.40939 2.7657 8.3956 2.57742 8.27918 2.47042L6.99532 1.28573C6.87891 1.17873 6.70511 1.19368 6.60636 1.3198L5.18236 3.13151ZM4.94872 2.31473C4.99786 2.35657 5.04476 2.39749 5.08958 2.43755C5.14612 2.48809 5.19937 2.53726 5.24967 2.58519L6.32001 1.22296C6.20457 1.1455 6.09063 1.07286 5.97836 1.00474C5.8946 0.953922 5.81177 0.905619 5.72993 0.859713C4.38181 0.103499 3.30379 -0.00216719 2.79258 3.3107e-05C2.78503 6.56287e-05 2.7776 0.000121716 2.77029 0.000199615C2.73229 0.000604684 2.69767 0.00159954 2.66655 0.00293782C2.66584 0.00296843 2.66513 0.00299923 2.66442 0.00303021C2.53793 0.00856295 2.47008 0.0197368 2.47008 0.0197368C2.35257 0.0376687 2.25877 0.135696 2.23781 0.263012C2.21684 0.390328 2.27367 0.517047 2.3785 0.578613C2.43885 0.6138 2.49811 0.648574 2.5563 0.682942C2.55869 0.684352 2.56108 0.685762 2.56346 0.687171C2.56336 0.687111 2.56356 0.68723 2.56346 0.687171C2.58265 0.69851 2.60203 0.709983 2.62099 0.721234C2.62483 0.723517 2.62868 0.725798 2.63251 0.728078C3.74442 1.38853 4.45842 1.89732 4.94872 2.31473ZM4.44269 1.04561C4.71732 1.2373 4.95467 1.41532 5.16205 1.58245L5.28534 1.42554C4.98594 1.26579 4.70369 1.14176 4.44269 1.04561ZM7.22596 1.10639L7.4356 1.29978L8.40608 2.19487L8.56608 1.99104C8.60023 1.94764 8.62092 1.89666 8.62859 1.84411C8.64309 1.74469 8.61098 1.63964 8.53518 1.56965L7.77491 0.868511C7.69915 0.798554 7.59839 0.780726 7.51011 0.81202C7.46603 0.827646 7.42506 0.855518 7.39186 0.895264C7.38986 0.89766 7.38788 0.900099 7.38594 0.902581L7.22596 1.10639ZM7.67028 4.821C8.19491 5.32979 8.84391 6.06977 9.48928 7.03001C9.49339 7.03613 9.4975 7.04225 9.50162 7.04839C9.5175 7.0721 9.53339 7.09595 9.54927 7.11993C9.54921 7.11984 9.54933 7.12002 9.54927 7.11993C9.55046 7.12172 9.55183 7.12379 9.55302 7.12559C9.58894 7.17988 9.62484 7.23485 9.6607 7.2905C9.73021 7.39809 9.85656 7.44412 9.97242 7.40347C10.0877 7.36283 10.165 7.24508 10.1628 7.11358C10.1628 7.11358 10.1622 7.04587 10.1489 6.92133C10.1489 6.921 10.1489 6.92066 10.1488 6.92033C10.1447 6.88213 10.1395 6.83861 10.1327 6.79008C10.1311 6.77847 10.1294 6.76657 10.1275 6.75439C10.0457 6.20212 9.77374 5.06929 8.87092 3.75359C8.81596 3.67349 8.75866 3.59271 8.69892 3.51135C8.61883 3.40226 8.53435 3.29211 8.44525 3.18112L7.37325 4.54514C7.45312 4.61589 7.5373 4.69337 7.62519 4.77753C7.64011 4.79183 7.65515 4.80632 7.67028 4.821ZM8.30587 4.47256C8.48615 4.6559 8.67655 4.86143 8.87331 5.08882C8.75036 4.84554 8.60302 4.58758 8.42642 4.31918L8.30587 4.47256ZM0.0656728 10.0598C-0.0330857 10.1853 -0.0187409 10.3742 0.0971211 10.4812L1.00912 11.3222C1.12553 11.4292 1.29933 11.4142 1.39809 11.2887L6.3476 4.98925C6.33822 4.98148 6.32884 4.97311 6.31946 4.96474L5.03505 3.78064C5.02797 3.77414 5.02119 3.76742 5.01518 3.76092L0.0656728 10.0598ZM5.09011 4.77977L0.826698 10.2055L1.14388 10.498L5.4071 5.07199L5.09011 4.77977ZM6.8607 2.11023L7.54948 2.74581L6.63289 3.9128L5.94346 3.27721L6.8607 2.11023Z"/>
</svg>
