<svg width="16" height="16" viewBox="0 0 16 16" fill="none" xmlns="http://www.w3.org/2000/svg">
<path d="M3.97633 12.5579L3.72966 11.9645C3.913 11.9778 4.09633 11.9878 4.27967 11.9945L3.97633 12.5579ZM9.03981 14.0014C9.16449 14.1203 9.2543 14.2711 9.29953 14.4373C9.34477 14.6036 9.34372 14.7791 9.29648 14.9448C9.25201 15.1111 9.16352 15.2624 9.04033 15.3826C8.91714 15.5029 8.7638 15.5877 8.59646 15.6282C7.30351 15.8923 5.98587 16.0164 4.66635 15.9982C3.34792 16.0166 2.03137 15.8925 0.739574 15.6282C0.571578 15.5884 0.417492 15.5038 0.293661 15.3835C0.16983 15.2632 0.0808716 15.1116 0.0362214 14.9448C-0.0110139 14.7791 -0.01207 14.6036 0.0331673 14.4373C0.0784046 14.2711 0.168215 14.1203 0.292895 14.0014C0.514635 13.7846 0.691022 13.5259 0.811777 13.2403C0.932533 12.9547 0.995241 12.648 0.996248 12.3379V11.1778C1.59561 11.5557 2.27236 11.7938 2.9763 11.8745L3.62632 13.4613C3.65063 13.52 3.6911 13.5706 3.74303 13.6072C3.79496 13.6438 3.85622 13.6649 3.91966 13.668H3.93633C3.99626 13.668 4.05508 13.6519 4.10667 13.6214C4.15826 13.5909 4.20073 13.5471 4.22967 13.4947L5.03969 11.9945C6.31306 11.9578 7.58977 11.7145 8.33645 11.1778V12.3379C8.33746 12.648 8.40017 12.9547 8.52092 13.2403C8.64168 13.5259 8.81807 13.7846 9.03981 14.0014ZM8.40312 14.2981C8.06154 13.9033 7.82836 13.4266 7.72644 12.9146C7.71785 12.8715 7.70084 12.8306 7.67639 12.7941C7.65193 12.7576 7.62051 12.7264 7.58394 12.7021C7.54736 12.6778 7.50635 12.6609 7.46325 12.6525C7.42015 12.6441 7.37582 12.6443 7.33279 12.6531C7.28977 12.6619 7.2489 12.6791 7.21254 12.7037C7.17618 12.7283 7.14504 12.7599 7.12091 12.7966C7.09678 12.8333 7.08013 12.8743 7.07193 12.9175C7.06372 12.9606 7.06411 13.005 7.07308 13.0479C7.19928 13.6735 7.48523 14.2558 7.90311 14.7381C7.932 14.7709 7.96707 14.7978 8.00633 14.817C8.04559 14.8363 8.08826 14.8477 8.1319 14.8505C8.17555 14.8532 8.21931 14.8474 8.2607 14.8333C8.30209 14.8191 8.34029 14.797 8.37312 14.7681C8.40595 14.7392 8.43277 14.7041 8.45205 14.6649C8.47132 14.6256 8.48268 14.583 8.48546 14.5393C8.48825 14.4957 8.48241 14.4519 8.46828 14.4105C8.45416 14.3691 8.43201 14.3309 8.40312 14.2981ZM6.68074 8.07015C6.70998 8.07838 6.74021 8.08255 6.77058 8.08252C6.83876 8.08245 6.90528 8.06151 6.9612 8.02252C7.01713 7.98353 7.05978 7.92835 7.08342 7.8644L7.33156 7.19171C6.28148 6.99113 5.33035 6.44061 4.63336 5.62994C3.93637 4.81928 3.53464 3.79633 3.49373 2.72798L2.79096 2.87272C2.70898 2.88968 2.63637 2.93686 2.58758 3.0049C2.53879 3.07294 2.51739 3.15684 2.52762 3.23994C2.66391 4.36581 3.13135 5.42588 3.87071 6.28578C4.61008 7.14568 5.58807 7.76671 6.68074 8.07015ZM7.56457 6.56L8.24133 4.72542L10.7036 2.60803C10.7706 2.55035 10.812 2.46842 10.8186 2.38027C10.8252 2.29211 10.7965 2.20494 10.7388 2.13794L8.9998 0.115951C8.97126 0.0827525 8.93646 0.055506 8.89738 0.0357694C8.8583 0.0160329 8.81572 0.00419337 8.77206 0.000927915C8.7284 -0.00233754 8.68453 0.0030351 8.64295 0.0167386C8.60137 0.0304421 8.5629 0.0522078 8.52974 0.0807909L6.06808 2.19785L4.15427 2.59196C4.16682 3.54843 4.51531 4.47001 5.13876 5.19543C5.76222 5.92084 6.62092 6.40388 7.56457 6.56ZM13.5299 5.89394C13.5015 5.86063 13.4668 5.83325 13.4278 5.81338C13.3887 5.7935 13.3462 5.78152 13.3025 5.77811C13.2589 5.77471 13.215 5.77995 13.1733 5.79353C13.1317 5.80711 13.0932 5.82877 13.0599 5.85727L11.0365 7.59744C11.0032 7.62587 10.9758 7.66059 10.956 7.69961C10.9361 7.73863 10.9241 7.78119 10.9207 7.82485C10.9173 7.86851 10.9225 7.91242 10.9361 7.95405C10.9497 7.99568 10.9714 8.03423 10.9999 8.06748L16 13.8814V8.76755L13.5299 5.89394ZM10.6332 3.55039L9.11648 4.85051L10.8565 6.87403L12.3699 5.57058L10.6332 3.55039ZM4.66635 11.3345C6.43235 11.3345 8.33312 10.9171 8.33312 10.001C8.33312 9.08491 6.43235 8.66754 4.66635 8.66754C2.90035 8.66754 0.999582 9.08491 0.999582 10.001C0.999582 10.9171 2.90035 11.3345 4.66635 11.3345Z"/>
</svg>
