<svg width="16" height="16" viewBox="0 0 16 16" fill="none" xmlns="http://www.w3.org/2000/svg">
<path fill-rule="evenodd" clip-rule="evenodd" d="M3.62926 15.5296C3.57022 15.621 3.56305 15.74 3.6105 15.8386C3.65794 15.9378 3.75229 16 3.85546 16H11.5796C11.6839 16 11.7793 15.936 11.8262 15.8344C11.8726 15.7334 11.8626 15.6121 11.8003 15.5218L10.1451 13.1309C10.1236 13.0998 10.0966 13.0735 10.0662 13.0538L8.68691 12.1572C8.62787 12.119 8.5578 12.1058 8.49049 12.1201L7.13822 12.4136H5.78649C5.69601 12.4136 5.6116 12.4609 5.56029 12.5409L3.62926 15.5296ZM10.4138 13.0209L12.021 15.3425C12.1462 15.5236 12.1661 15.7657 12.0728 15.9683C12.0679 15.9791 12.0623 15.9892 12.0574 16H15.7241C15.8764 16 16 15.8661 16 15.7011V12.4136C16 12.2845 15.9239 12.1704 15.8113 12.1297L14.1561 11.532C14.128 11.5218 14.0988 11.517 14.069 11.517H11.8621C11.7495 11.517 11.648 11.5912 11.6061 11.7047L11.1233 13.0114H10.4828C10.459 13.0114 10.4359 13.0143 10.4138 13.0209ZM6.65546 12.1148H7.10953L8.43642 11.8273C8.57104 11.798 8.71118 11.8243 8.8287 11.9008L10.2036 12.7944C10.2869 12.7412 10.3829 12.7125 10.4828 12.7125H10.9368L11.3501 11.5935C11.4334 11.3664 11.6364 11.2182 11.8621 11.2182H13.5079L12.9263 10.1674C12.8761 10.0777 12.7868 10.0227 12.6897 10.0227H9.37932C9.34952 10.0227 9.32028 10.0275 9.29215 10.0377L7.63035 10.6354C7.57187 10.6563 7.52166 10.6982 7.48746 10.7537L6.65546 12.1148ZM5.01518 3.76092L0.0656728 10.0598C-0.0330857 10.1853 -0.0187409 10.3742 0.0971211 10.4812L1.00912 11.3222C1.12553 11.4292 1.29933 11.4142 1.39809 11.2887L6.3476 4.98925C6.33822 4.98148 6.32884 4.97311 6.31946 4.96474L5.03505 3.78064C5.02787 3.77407 5.02125 3.76749 5.01518 3.76092ZM8.44525 3.18112L7.37325 4.54514C7.97849 5.0813 8.83201 6.00419 9.6607 7.2905C9.73021 7.39809 9.85656 7.44412 9.97242 7.40347C10.0877 7.36283 10.165 7.24508 10.1628 7.11358C10.1628 7.11358 10.1468 5.30067 8.44525 3.18112ZM8.31063 2.89122C8.40939 2.7657 8.3956 2.57742 8.27918 2.47042L6.99532 1.28573C6.87891 1.17873 6.70511 1.19368 6.60636 1.3198L5.18236 3.13151C5.0836 3.25703 5.09794 3.44591 5.21381 3.55291L6.49822 4.73701C6.61408 4.844 6.78842 4.82906 6.88718 4.70353L8.31063 2.89122ZM5.24967 2.58519L6.32001 1.22296C4.12139 -0.252229 2.47008 0.0197368 2.47008 0.0197368C2.35257 0.0376686 2.25877 0.135696 2.23781 0.263012C2.21684 0.390328 2.27367 0.517047 2.3785 0.578613C3.90291 1.46743 4.73215 2.09206 5.24967 2.58519ZM7.22594 1.10641L8.40608 2.19487L8.56608 1.99104C8.66484 1.86552 8.65104 1.67664 8.53518 1.56965L7.77491 0.868511C7.65904 0.761517 7.4847 0.776461 7.38594 0.902581L7.22594 1.10641Z"/>
</svg>
