<?xml version="1.0" standalone="no"?>
<!DOCTYPE svg PUBLIC "-//W3C//DTD SVG 1.1//EN" "http://www.w3.org/Graphics/SVG/1.1/DTD/svg11.dtd" >
<svg xmlns="http://www.w3.org/2000/svg" xmlns:xlink="http://www.w3.org/1999/xlink" version="1.1">
<metadata>
Created by FontForge 20170731 at Wed Nov 15 16:17:14 2023
 By Aleksey,,,
Copyright (c) 2023 by Designova. All rights reserved.
</metadata>
<defs>
<font id="LinearGrotesk-Bold" horiz-adv-x="1386" >
  <font-face 
    font-family="Linear Grotesk"
    font-weight="700"
    font-stretch="normal"
    units-per-em="2048"
    panose-1="0 0 0 0 0 0 0 0 0 0"
    ascent="1638"
    descent="-410"
    x-height="992"
    cap-height="1358"
    bbox="-362 -483 2370 1915"
    underline-thickness="100"
    underline-position="-355"
    unicode-range="U+0020-F8FF"
  />
<missing-glyph horiz-adv-x="1296" 
d="M200 -31v1308h896v-1308h-896zM329 240l242 383l-242 385v-768zM395 1143l254 -400l253 400h-507zM396 104h505l-252 398zM724 623l243 -382v765z" />
    <glyph glyph-name=".notdef" horiz-adv-x="1296" 
d="M200 -31v1308h896v-1308h-896zM329 240l242 383l-242 385v-768zM395 1143l254 -400l253 400h-507zM396 104h505l-252 398zM724 623l243 -382v765z" />
    <glyph glyph-name=".null" horiz-adv-x="0" 
 />
    <glyph glyph-name="nonmarkingreturn" horiz-adv-x="682" 
 />
    <glyph glyph-name="space" unicode=" " horiz-adv-x="360" 
 />
    <glyph glyph-name="space" unicode="&#xa0;" horiz-adv-x="360" 
 />
    <glyph glyph-name="exclam" unicode="!" horiz-adv-x="622" 
d="M201 275l-14 1014h246l-15 -1014h-217zM140 -86v285h342v-285h-342z" />
    <glyph glyph-name="quotedbl" unicode="&#x22;" horiz-adv-x="1284" 
d="M559 853l252 601h304l-329 -601h-227zM168 853l252 601h303l-329 -601h-226z" />
    <glyph glyph-name="numbersign" unicode="#" horiz-adv-x="1385" 
d="M191 -67l64 353h-268v186h299l45 238h-270v186h303l63 350h216l-60 -350h331l63 350h218l-61 -350h263v-186h-295l-45 -238h270v-186h-302l-63 -353h-223l65 353h-330l-65 -353h-218zM508 472h329l45 238h-333z" />
    <glyph glyph-name="dollar" unicode="$" horiz-adv-x="1188" 
d="M497 -65q-136 22 -263.5 97t-185.5 185l198 96q19 -53 79.5 -99t137 -71.5t146.5 -25.5q158 0 230.5 40t72.5 133q0 32 -9 51q-13 34 -24 47.5t-41 31.5q-45 31 -67 42.5t-70 28.5q-72 24 -91 28l-95 29q-94 28 -163.5 61t-126 78.5t-86 107t-29.5 137.5q0 133 107.5 230
t279.5 119v143h226v-147q140 -23 253.5 -102.5t121.5 -162.5l-182 -68q-59 81 -130 116t-178 35q-271 0 -271 -164q0 -78 61.5 -122.5t222.5 -92.5q3 0 18 -5t23 -7q6 -3 11 -3q116 -36 212 -78q86 -38 129 -78q52 -41 89 -108t37 -141q0 -158 -116.5 -251t-300.5 -113v-138
h-226v141z" />
    <glyph glyph-name="percent" unicode="%" horiz-adv-x="2134" 
d="M299 -81l1262 1377h278l-1261 -1377h-279zM138 963q0 154 130.5 255t318.5 101q190 0 318 -99.5t128 -256.5q0 -103 -61 -184t-162.5 -124.5t-222.5 -43.5q-120 0 -221.5 42t-164.5 123.5t-63 186.5zM359 963q0 -76 62.5 -119.5t165.5 -43.5q102 0 162 43t60 120
q0 80 -58.5 123.5t-163.5 43.5q-106 0 -167 -44.5t-61 -122.5zM1103 253q0 102 60 184t162 126.5t225 44.5t225.5 -44.5t163 -126.5t60.5 -184q0 -103 -61.5 -185.5t-164 -126.5t-223.5 -44q-119 0 -220.5 43.5t-164 126t-62.5 186.5zM1328 253q0 -79 60.5 -123t161.5 -44
q102 0 164.5 45t62.5 122t-60 120t-167 43t-164.5 -42.5t-57.5 -120.5z" />
    <glyph glyph-name="ampersand" unicode="&#x26;" horiz-adv-x="1364" 
d="M574 -25q-240 0 -384.5 111.5t-144.5 295.5q0 136 80.5 243.5t262.5 212.5q-90 103 -126 172t-36 141q0 135 97.5 220.5t252.5 85.5q151 0 244 -82t93 -213q0 -104 -57 -191t-181 -174l334 -371q41 119 35 273h192q9 -248 -93 -423l249 -276h-246l-121 134
q-190 -159 -451 -159zM238 382q0 -110 87.5 -170t247.5 -60q217 0 332 113l-396 436q-151 -81 -211 -152t-60 -167zM419 1151q0 -39 29 -85t108 -134q86 59 125.5 113.5t39.5 116.5q0 58 -38.5 89.5t-108.5 31.5q-73 0 -114 -34.5t-41 -97.5z" />
    <glyph glyph-name="quotesingle" unicode="'" horiz-adv-x="889" 
d="M168 853l250 601h303l-327 -601h-226z" />
    <glyph glyph-name="parenleft" unicode="(" horiz-adv-x="782" 
d="M556 -355q-426 382 -426 932q0 556 426 937l196 -86q-111 -113 -166.5 -183t-117.5 -185q-110 -206 -110 -483q0 -301 129 -507q20 -34 33.5 -55.5t24.5 -40t25 -36.5t21.5 -29t29 -35t31.5 -35.5t45 -49.5t55 -60z" />
    <glyph glyph-name="parenright" unicode=")" horiz-adv-x="781" 
d="M36 -273q49 61 91 107q59 64 137 173q59 95 82 153q33 80 56 192t23 225q0 281 -108 480q-62 113 -118.5 184t-168.5 187l196 86q425 -380 425 -937q0 -548 -425 -932z" />
    <glyph glyph-name="asterisk" unicode="*" horiz-adv-x="1495" 
d="M1072 146l-327 309l-318 -302l-197 115l323 289l-421 114l92 183l413 -121l-14 325h248l-14 -325l415 121l90 -183l-421 -114l321 -285z" />
    <glyph glyph-name="plus" unicode="+" horiz-adv-x="1476" 
d="M628 122v381h-481v189h481v366h222v-366h478v-189h-478v-381h-222z" />
    <glyph glyph-name="comma" unicode="," horiz-adv-x="814" 
d="M84 -387l252 599h302l-329 -599h-225z" />
    <glyph glyph-name="hyphen" unicode="-" horiz-adv-x="1313" 
d="M106 503v189h1101v-189h-1101z" />
    <glyph glyph-name="period" unicode="." horiz-adv-x="611" 
d="M136 -73v285h339v-285h-339z" />
    <glyph glyph-name="slash" unicode="/" horiz-adv-x="906" 
d="M-8 -185l686 1572h236l-686 -1572h-236z" />
    <glyph glyph-name="zero" unicode="0" horiz-adv-x="1124" 
d="M564 -33q-182 0 -324 141q-78 78 -124.5 226t-46.5 344q0 197 44 344.5t121 224.5q143 142 328 142q237 0 365 -186.5t128 -524.5q0 -330 -127.5 -520.5t-363.5 -190.5zM328 678q0 -523 236 -523q129 0 185 164q48 140 48 359q0 226 -48 365q-28 77 -75.5 119t-111.5 42
q-234 0 -234 -526z" />
    <glyph glyph-name="one" unicode="1" horiz-adv-x="718" 
d="M386 0l1 1073l-328 -180v244l399 221h164v-1358h-236z" />
    <glyph glyph-name="two" unicode="2" horiz-adv-x="1082" 
d="M86 0q0 76 27.5 158t70.5 147q42 62 113 136q20 21 37 38.5t37 36.5t29 28t35 31.5t32 28t41 36.5t44 38q19 15 30 26q168 144 168 299q0 94 -56.5 147.5t-150.5 53.5q-197 0 -259 -237l-212 57q43 173 164 269t311 96q205 0 333 -106.5t128 -284.5q0 -113 -57 -207.5
t-174 -195.5q-30 -30 -111 -101t-114 -103q-39 -39 -87 -97t-75 -108h613v-186h-917z" />
    <glyph glyph-name="three" unicode="3" horiz-adv-x="1149" 
d="M564 -31q-182 0 -314 87t-177 219l201 67q88 -187 287 -187q112 0 184.5 62t72.5 171q0 101 -81.5 165t-207.5 64q-69 0 -136 -6v184q44 -4 129 -4q104 0 173.5 58t69.5 155q0 87 -61.5 143.5t-152.5 56.5q-164 0 -239 -196l-205 59q41 146 162 234t297 88
q206 0 330 -101t124 -261q0 -101 -58 -184t-149 -127q113 -35 187.5 -120.5t74.5 -207.5q0 -196 -138 -307.5t-373 -111.5z" />
    <glyph glyph-name="four" unicode="4" horiz-adv-x="1178" 
d="M692 -13v297h-627v183l659 904h215v-902h184v-185h-184v-297h-247zM300 469h392v382q0 99 7 180h-8q-27 -40 -105 -157z" />
    <glyph glyph-name="five" unicode="5" horiz-adv-x="1128" 
d="M554 -31q-166 0 -283.5 75.5t-178.5 208.5l208 67q34 -74 100.5 -119.5t145.5 -45.5q117 0 187 73t70 194q0 119 -74 194.5t-188 75.5q-139 0 -244 -123l-155 55l78 734h757v-187h-529l-45 -356q94 61 226 61q193 0 311.5 -121.5t118.5 -326.5q0 -177 -117 -312
q-60 -69 -160 -108t-228 -39z" />
    <glyph glyph-name="six" unicode="6" horiz-adv-x="1119" 
d="M573 -31q-233 0 -358 144q-146 164 -146 504q0 317 126 536q63 111 170.5 173.5t245.5 62.5q302 0 432 -280l-194 -61q-93 156 -237 156q-192 0 -261 -286q-17 -67 -28 -157q38 61 111.5 99.5t165.5 38.5q197 0 323.5 -131.5t126.5 -333.5q0 -206 -129 -335.5
t-348 -129.5zM329 433q0 -127 65.5 -202.5t172.5 -75.5q102 0 165 75t63 203q0 130 -63 205t-167 75t-170 -78t-66 -202z" />
    <glyph glyph-name="seven" unicode="7" horiz-adv-x="1032" 
d="M208 -13q128 599 497 1179h-661v192h949v-152q-354 -512 -527 -1219h-258z" />
    <glyph glyph-name="eight" unicode="8" horiz-adv-x="1143" 
d="M569 -31q-215 0 -357.5 109.5t-142.5 293.5q0 129 72.5 215.5t187.5 128.5q-215 101 -215 299q0 162 129.5 268t325.5 106t325.5 -106t129.5 -268q0 -200 -216 -299q120 -44 193 -131.5t73 -212.5q0 -179 -141 -291t-364 -112zM325 385q0 -100 68.5 -165t175.5 -65
t175.5 65t68.5 165q0 99 -69 168t-175 69q-105 0 -174.5 -69t-69.5 -168zM372 1004q0 -88 55 -143t142 -55t142 55.5t55 142.5q0 86 -54.5 143t-142.5 57q-87 0 -142 -57t-55 -143z" />
    <glyph glyph-name="nine" unicode="9" horiz-adv-x="1108" 
d="M503 -31q-149 0 -267 82t-167 200l201 60q88 -156 235 -156q76 0 134.5 38.5t91.5 107.5q59 124 64 297q-94 -127 -278 -127q-193 0 -320.5 126t-127.5 332q0 202 135.5 331t345.5 129q175 0 295.5 -101t164.5 -273q29 -114 29 -273q0 -376 -134 -574.5t-402 -198.5z
M321 929q0 -122 65.5 -198.5t166.5 -76.5q102 0 165 76.5t63 198.5q0 121 -62 198t-166 77q-102 0 -167 -77.5t-65 -197.5z" />
    <glyph glyph-name="colon" unicode=":" horiz-adv-x="611" 
d="M136 731v286h339v-286h-339zM136 92v286h339v-286h-339z" />
    <glyph glyph-name="semicolon" unicode=";" horiz-adv-x="774" 
d="M84 -223l252 601h302l-329 -601h-225zM242 731v286h339v-286h-339z" />
    <glyph glyph-name="less" unicode="&#x3c;" horiz-adv-x="1395" 
d="M1099 -65l-949 586v123l949 592l145 -147l-809 -505l809 -504z" />
    <glyph glyph-name="equal" unicode="=" horiz-adv-x="1422" 
d="M160 657v191h1101v-191h-1101zM160 352v188h1101v-188h-1101z" />
    <glyph glyph-name="greater" unicode="&#x3e;" horiz-adv-x="1393" 
d="M292 -65l-142 145l803 504l-803 501l142 151l950 -592v-123z" />
    <glyph glyph-name="question" unicode="?" horiz-adv-x="1099" 
d="M421 361q0 96 46 178.5t119 138.5q11 8 37.5 27t40.5 30q14 12 19 14q4 3 10.5 8t9.5 7q53 40 79 79t26 88q0 101 -58.5 150t-187.5 49q-111 0 -183.5 -51.5t-129.5 -172.5l-204 66q57 161 200 254t317 93q218 0 346.5 -106.5t128.5 -280.5q0 -88 -46.5 -164t-116.5 -132
l-117 -88q-110 -82 -110 -189v-100h-226v102zM363 -86v285h340v-285h-340z" />
    <glyph glyph-name="at" unicode="@" horiz-adv-x="1844" 
d="M921 -171q-178 0 -336.5 63.5t-271.5 172t-178.5 260t-65.5 322.5q0 170 66 321t179.5 258.5t271.5 170.5t335 63q184 0 342.5 -59t270.5 -163.5t176 -252t64 -319.5q0 -212 -107.5 -353.5t-270.5 -142.5l108 -120q-239 -221 -583 -221zM255 647q0 -180 87.5 -329
t240.5 -234.5t338 -85.5q131 0 249.5 44.5t209.5 127.5q-79 2 -137.5 32t-86.5 82q-118 -107 -304 -107q-156 0 -249 77.5t-93 209.5q0 126 96.5 206t273.5 103l158 18q57 7 92 18q-8 82 -57 119.5t-145 37.5q-112 0 -163.5 -50t-32.5 -140h-190q-21 158 88.5 259t301.5 101
q181 0 281.5 -90.5t100.5 -251.5v-390q0 -68 82 -68q85 0 138.5 92t53.5 238q0 273 -187.5 449t-479.5 176q-183 0 -336 -85.5t-241.5 -233.5t-88.5 -325zM694 465q0 -119 169 -119q126 0 196.5 77.5t70.5 214.5v3q-85 -14 -180 -24l-53 -6q-203 -23 -203 -146z" />
    <glyph glyph-name="A" unicode="A" 
d="M15 0l542 1358h274l540 -1358h-264l-125 336h-580l-122 -336h-265zM470 518h445l-217 622h-11z" />
    <glyph glyph-name="B" unicode="B" horiz-adv-x="1235" 
d="M96 0v1358h567q235 0 356 -94.5t121 -263.5q0 -96 -49 -168t-136 -115q101 -32 170 -118.5t69 -203.5q0 -175 -122.5 -285t-336.5 -110h-639zM345 192h348q103 0 173 55t70 148t-66.5 150.5t-182.5 57.5h-342v-411zM345 794h294q112 0 177.5 48t65.5 141
q0 86 -59.5 133.5t-176.5 47.5h-301v-370z" />
    <glyph glyph-name="C" unicode="C" horiz-adv-x="1362" 
d="M734 -31q-144 0 -266.5 49.5t-210.5 140t-138 225t-50 296.5q0 323 184 516t481 193q182 0 319.5 -90.5t206.5 -236.5l-214 -64q-122 197 -317 197q-185 0 -294 -139.5t-109 -375.5q0 -237 109.5 -376.5t293.5 -139.5q116 0 208.5 63t136.5 161l224 -63
q-58 -129 -184 -232q-70 -57 -169 -90.5t-211 -33.5z" />
    <glyph glyph-name="D" unicode="D" horiz-adv-x="1316" 
d="M96 0v1358h444q340 0 523 -175.5t183 -502.5q0 -232 -97 -393q-53 -89 -132 -150q-173 -137 -479 -137h-442zM345 190h164q478 0 478 490q0 253 -122 369.5t-352 116.5h-168v-976z" />
    <glyph glyph-name="E" unicode="E" horiz-adv-x="1181" 
d="M96 0v1358h981v-194h-732v-367h661v-191h-661v-414h751v-192h-1000z" />
    <glyph glyph-name="F" unicode="F" horiz-adv-x="1099" 
d="M96 0v1358h954v-194h-705v-388h630v-190h-630v-586h-249z" />
    <glyph glyph-name="G" unicode="G" horiz-adv-x="1403" 
d="M728 -31q-141 0 -262.5 51t-209 142t-137.5 225t-50 293q0 207 82.5 367.5t237 251t356.5 90.5q112 0 210.5 -33t164.5 -89q115 -98 167 -201l-213 -65q-44 58 -75 92q-37 40 -106.5 71t-145.5 31q-196 0 -308.5 -139.5t-112.5 -375.5t112.5 -376t296.5 -140
q153 0 244 80.5t103 210.5q6 77 6 111h-368v193h610v-759h-172l-23 140q-123 -171 -407 -171z" />
    <glyph glyph-name="H" unicode="H" horiz-adv-x="1293" 
d="M96 0v1358h247v-564h606v564h248v-1358h-248v603h-606v-603h-247z" />
    <glyph glyph-name="I" unicode="I" horiz-adv-x="441" 
d="M96 0v1358h249v-1358h-249z" />
    <glyph glyph-name="J" unicode="J" horiz-adv-x="972" 
d="M434 -31q-163 0 -271 78.5t-149 205.5l206 76q24 -75 78.5 -120t129.5 -45q95 0 146.5 65t51.5 187v942h250v-972q0 -199 -115 -308t-327 -109z" />
    <glyph glyph-name="K" unicode="K" horiz-adv-x="1257" 
d="M96 0v1358h249v-615h4l581 615h316l-580 -593l595 -765h-301l-451 605l-164 -171v-434h-249z" />
    <glyph glyph-name="L" unicode="L" horiz-adv-x="1070" 
d="M96 0v1358h249v-1166h678v-192h-927z" />
    <glyph glyph-name="M" unicode="M" horiz-adv-x="1596" 
d="M96 0v1358h303l392 -981h7l393 981h309v-1358h-246v987l-363 -910h-187l-361 908v-985h-247z" />
    <glyph glyph-name="N" unicode="N" horiz-adv-x="1303" 
d="M96 0v1358h260l601 -992v992h250v-1358h-262l-600 982v-982h-249z" />
    <glyph glyph-name="O" unicode="O" horiz-adv-x="1424" 
d="M714 -31q-293 0 -469 194t-176 515t176 516t469 195q291 0 465.5 -194.5t174.5 -516.5q0 -320 -176 -514.5t-464 -194.5zM326 678q0 -238 104 -376t284 -138q178 0 281 137.5t103 376.5t-102.5 378t-281.5 139q-180 0 -284 -139.5t-104 -377.5z" />
    <glyph glyph-name="P" unicode="P" horiz-adv-x="1219" 
d="M96 0v1358h584q232 0 365 -113t133 -301q0 -193 -135 -305t-359 -112h-339v-527h-249zM345 719h306q130 0 201 57.5t71 167.5q0 107 -70 163.5t-205 56.5h-303v-445z" />
    <glyph glyph-name="Q" unicode="Q" horiz-adv-x="1426" 
d="M714 -31q-194 0 -340.5 88.5t-225.5 249.5t-79 371q0 323 176.5 517t468.5 194q288 0 464 -195.5t176 -515.5q0 -309 -165 -502l165 -156l-141 -114l-162 152q-148 -89 -337 -89zM326 678q0 -238 104 -376t284 -138q100 0 177 45l-234 219l141 117l220 -208
q80 132 80 341q0 242 -103 379.5t-281 137.5q-181 0 -284.5 -138.5t-103.5 -378.5z" />
    <glyph glyph-name="R" unicode="R" horiz-adv-x="1269" 
d="M96 0v1355h594q222 0 355 -113t133 -291q0 -188 -140 -300q92 -93 107 -280q8 -95 13.5 -131t29.5 -97.5t74 -142.5h-278q-44 66 -58.5 130.5t-30.5 227.5q-5 70 -22 106.5t-64.5 56t-136.5 19.5h-329v-540h-247zM345 719h306q130 0 201 57.5t71 167.5q0 107 -70 163.5
t-205 56.5h-303v-445z" />
    <glyph glyph-name="S" unicode="S" horiz-adv-x="1225" 
d="M637 -31q-204 0 -359 86t-230 235l220 68q54 -88 154.5 -141t219.5 -53q126 0 201.5 54t75.5 143q0 88 -74 140t-241 104q-223 66 -299 105q-204 105 -204 305q0 168 146 271t382 103q187 0 326 -79.5t204 -210.5l-212 -64q-120 160 -321 160q-122 0 -194.5 -49.5
t-72.5 -130.5q0 -56 29 -85q3 -3 9.5 -11t9.5 -10.5t8.5 -8.5t9 -9t9.5 -7.5t12.5 -8t14.5 -7.5q56 -29 108 -47q56 -18 60 -19q128 -37 133 -39q173 -52 284 -130q131 -95 131 -264q0 -187 -148.5 -293.5t-391.5 -106.5z" />
    <glyph glyph-name="T" unicode="T" horiz-adv-x="1194" 
d="M473 0v1164h-434v194h1116v-194h-434v-1164h-248z" />
    <glyph glyph-name="U" unicode="U" horiz-adv-x="1300" 
d="M649 -31q-267 0 -410 136.5t-143 403.5v849h251v-849q0 -171 79 -258t223 -87q147 0 226 88.5t79 256.5v849h250v-849q0 -262 -141 -401t-414 -139z" />
    <glyph glyph-name="V" unicode="V" horiz-adv-x="1278" 
d="M498 0l-483 1358h270l348 -1121l9 -1l348 1122h273l-485 -1358h-280z" />
    <glyph glyph-name="W" unicode="W" horiz-adv-x="1745" 
d="M345 0l-340 1358h264l217 -1112h10l249 1112h252l252 -1112h10l217 1112h264l-338 -1358h-285l-241 1083h-6l-243 -1083h-282z" />
    <glyph glyph-name="X" unicode="X" horiz-adv-x="1303" 
d="M26 0l478 698l-454 660h295l301 -493h8l308 493h291l-455 -660l481 -698h-290l-335 524h-8l-329 -524h-291z" />
    <glyph glyph-name="Y" unicode="Y" horiz-adv-x="1308" 
d="M530 0v551l-522 807h287l355 -623h6l354 623h289l-520 -807v-551h-249z" />
    <glyph glyph-name="Z" unicode="Z" horiz-adv-x="1261" 
d="M78 0v166l775 998h-713v194h1022v-168l-778 -998h799v-192h-1105z" />
    <glyph glyph-name="bracketleft" unicode="[" horiz-adv-x="722" 
d="M143 -300v1759h514v-189h-290v-1382h290v-188h-514z" />
    <glyph glyph-name="backslash" unicode="\" horiz-adv-x="867" 
d="M642 -185l-650 1572h232l651 -1572h-233z" />
    <glyph glyph-name="bracketright" unicode="]" horiz-adv-x="725" 
d="M66 -300v188h290v1382h-290v189h516v-1759h-516z" />
    <glyph glyph-name="asciicircum" unicode="^" horiz-adv-x="1254" 
d="M34 762l518 666h149l519 -666h-271l-323 420l-7 -10l-314 -410h-271z" />
    <glyph glyph-name="underscore" unicode="_" horiz-adv-x="939" 
d="M-34 -205v191h1008v-191h-1008z" />
    <glyph glyph-name="a" unicode="a" horiz-adv-x="1061" 
d="M421 -31q-178 0 -280.5 80t-102.5 211q0 279 456 342q175 23 235 41v52q0 72 -56.5 114t-151.5 42q-179 0 -310 -135l-146 114q87 91 205 141.5t248 50.5q236 0 344.5 -104t108.5 -303v-615h-234v124q-35 -66 -121.5 -110.5t-194.5 -44.5zM279 278q0 -56 48.5 -92
t127.5 -36q116 0 195 69.5t79 179.5v91q-86 -19 -209 -36q-241 -34 -241 -176z" />
    <glyph glyph-name="b" unicode="b" horiz-adv-x="1117" 
d="M612 -31q-94 0 -173 45.5t-117 112.5v-127h-231v1403h236v-524q47 64 120.5 103.5t162.5 39.5q205 0 333.5 -142t128.5 -383q0 -108 -27.5 -199.5t-74.5 -153.5q-66 -86 -161.5 -130.5t-196.5 -44.5zM325 497q0 -157 68.5 -249.5t180.5 -92.5q114 0 183 89.5t69 252.5
q0 156 -67.5 247.5t-184.5 91.5q-113 0 -181 -93t-68 -246z" />
    <glyph glyph-name="c" unicode="c" horiz-adv-x="1035" 
d="M551 -31q-226 0 -366 144t-140 382q0 237 140.5 382t365.5 145q155 0 269 -86.5t145 -207.5l-206 -52q-23 69 -79 114.5t-128 45.5q-120 0 -190.5 -95.5t-70.5 -245.5q0 -158 72.5 -249t188.5 -91q80 0 144 50.5t89 121.5l207 -55q-38 -125 -161.5 -214t-279.5 -89z" />
    <glyph glyph-name="d" unicode="d" horiz-adv-x="1115" 
d="M508 -31q-174 0 -312 120q-70 61 -110.5 167t-40.5 241q0 240 130 382.5t336 142.5q92 0 163.5 -40t110.5 -101v522h240v-1403h-231v128q-37 -67 -116.5 -113t-169.5 -46zM291 497q0 -160 69 -251t182 -91q111 0 179.5 92.5t68.5 249.5q0 154 -67 246.5t-181 92.5
q-117 0 -184 -92t-67 -247z" />
    <glyph glyph-name="e" unicode="e" horiz-adv-x="1091" 
d="M563 -31q-230 0 -374 145t-144 386q0 236 143.5 379t366.5 143q216 0 355.5 -143t139.5 -370q0 -45 -6 -89h-757q0 -116 77 -196t202 -80q90 0 160 39t107 105l200 -61q-56 -116 -177.5 -187t-292.5 -71zM291 573h515q0 117 -68 195t-183 78q-117 0 -190 -79.5
t-74 -193.5z" />
    <glyph glyph-name="f" unicode="f" horiz-adv-x="648" 
d="M175 0v806h-169v186h169v106q0 152 82.5 228.5t239.5 76.5h172v-183h-139q-58 0 -85.5 -33t-27.5 -105v-90h227v-186h-227v-806h-242z" />
    <glyph glyph-name="g" unicode="g" horiz-adv-x="1095" 
d="M513 -412q-275 0 -426 192l159 101q109 -118 270 -118q105 0 173 72t73 190q5 75 5 112q-38 -55 -109.5 -91.5t-151.5 -36.5q-207 0 -334 138t-127 365q0 229 126 369.5t326 140.5q93 0 164.5 -43t103.5 -103v116h239v-855q0 -279 -121 -414t-370 -135zM288 515
q0 -151 65 -236t175 -85q109 0 171.5 83.5t62.5 237.5q0 151 -62.5 236t-168.5 85q-111 0 -177 -87.5t-66 -233.5z" />
    <glyph glyph-name="h" unicode="h" horiz-adv-x="1072" 
d="M91 0v1403h236v-513h6q44 58 121 95t162 37q165 0 265 -96t100 -289v-637h-239v611q0 225 -171 225q-103 0 -173.5 -80t-70.5 -190v-566h-236z" />
    <glyph glyph-name="i" unicode="i" horiz-adv-x="413" 
d="M89 0v992h236v-992h-236zM78 1139v238h257v-238h-257z" />
    <glyph glyph-name="j" unicode="j" horiz-adv-x="432" 
d="M-86 -390v185h37q150 0 150 192v1005h241v-1012q0 -184 -89 -277t-260 -93h-79zM90 1139v238h263v-238h-263z" />
    <glyph glyph-name="k" unicode="k" horiz-adv-x="1016" 
d="M91 0v1403h238v-807l388 396h302l-404 -405l428 -587h-281l-303 434l-130 -130v-304h-238z" />
    <glyph glyph-name="l" unicode="l" horiz-adv-x="421" 
d="M91 0v1403h239v-1403h-239z" />
    <glyph glyph-name="m" unicode="m" horiz-adv-x="1625" 
d="M91 0v992h234v-116q31 57 106.5 101.5t172.5 44.5q180 0 266 -177q22 44 95 106q39 33 101 52t132 19q336 0 336 -385v-637h-243v631q0 106 -32.5 155.5t-111.5 49.5q-97 0 -156.5 -71.5t-59.5 -180.5v-584h-238v636q0 200 -147 200q-101 0 -158 -67.5t-57 -181.5v-587
h-240z" />
    <glyph glyph-name="n" unicode="n" horiz-adv-x="1076" 
d="M91 0v992h234v-127h1q32 63 112 110t191 47q170 0 263 -94.5t93 -290.5v-637h-242v608q0 228 -169 228q-104 0 -173.5 -75.5t-69.5 -187.5v-573h-240z" />
    <glyph glyph-name="o" unicode="o" horiz-adv-x="1101" 
d="M551 -31q-109 0 -199 33t-149 87q-158 147 -158 406q0 150 56 267.5t172.5 188.5t277.5 71q159 0 275 -71t172.5 -188.5t56.5 -267.5q0 -147 -66 -278q-61 -122 -173 -185t-265 -63zM291 495q0 -164 74 -252t186 -88q109 0 183.5 88.5t74.5 251.5q0 165 -74.5 253
t-183.5 88q-110 0 -185 -88t-75 -253z" />
    <glyph glyph-name="p" unicode="p" horiz-adv-x="1117" 
d="M91 -406v1398h230v-130q100 160 289 160q202 0 332 -143.5t130 -381.5q0 -133 -41 -239.5t-112 -167.5q-137 -121 -309 -121q-101 0 -174 41.5t-108 104.5v-521h-237zM327 497q0 -158 65.5 -250t181.5 -92q115 0 184 91t69 251q0 157 -67 248t-186 91q-113 0 -180 -93.5
t-67 -245.5z" />
    <glyph glyph-name="q" unicode="q" horiz-adv-x="1115" 
d="M785 117q-35 -65 -108 -106.5t-169 -41.5q-174 0 -311 121q-71 61 -111.5 167.5t-40.5 239.5q0 239 128.5 382t334.5 143q91 0 166.5 -44t119.5 -116v130h231v-1398h-240v523zM291 497q0 -160 67.5 -251t180.5 -91q115 0 183 92t68 250q0 152 -66.5 245.5t-181.5 93.5
q-116 0 -183.5 -93.5t-67.5 -245.5z" />
    <glyph glyph-name="r" unicode="r" horiz-adv-x="729" 
d="M91 0v992h231v-108q39 60 107.5 99t155.5 39q89 0 142 -22v-197q-70 19 -142 19q-121 0 -187.5 -85t-66.5 -231v-506h-240z" />
    <glyph glyph-name="s" unicode="s" horiz-adv-x="983" 
d="M515 -31q-158 0 -283 63t-191 175l171 90q114 -151 297 -151q89 0 140.5 31.5t51.5 85.5q0 42 -42 75q-28 21 -62.5 37t-62 24.5t-107.5 31.5q-25 7 -26 7q-122 37 -210 94q-105 65 -105 201q0 128 120 208.5t303 80.5q132 0 252.5 -64t177.5 -164l-158 -88
q-112 139 -271 139q-86 0 -132.5 -31t-46.5 -84q0 -43 41 -76q35 -29 72.5 -44.5t109.5 -38.5q5 -1 8 -2l7.5 -2.5t8.5 -2.5q26 -6 31 -7q336 -99 336 -296q0 -125 -115.5 -208.5t-314.5 -83.5z" />
    <glyph glyph-name="t" unicode="t" horiz-adv-x="694" 
d="M514 0q-334 0 -334 303v503h-169v186h169v292h238v-292h252v-186h-252v-488q0 -70 31 -101t96 -31h126v-186h-157z" />
    <glyph glyph-name="u" unicode="u" horiz-adv-x="1068" 
d="M457 -31q-135 0 -243 77q-58 41 -90.5 122t-32.5 191v633h240v-606q0 -231 178 -231q105 0 167.5 81t62.5 200v556h238v-992h-229v115h-3q-30 -59 -107 -102.5t-181 -43.5z" />
    <glyph glyph-name="v" unicode="v" horiz-adv-x="1035" 
d="M382 0l-380 992h261l251 -808h3l254 808h262l-379 -992h-272z" />
    <glyph glyph-name="w" unicode="w" horiz-adv-x="1489" 
d="M303 0l-297 992h258l170 -780h9l175 780h252l178 -780h8l168 780h258l-296 -992h-268l-170 756h-7l-171 -756h-267z" />
    <glyph glyph-name="x" unicode="x" horiz-adv-x="1092" 
d="M17 0l387 509l-368 483h289l216 -336h8l214 336h291l-369 -483l390 -509h-284l-242 362h-8l-241 -362h-283z" />
    <glyph glyph-name="y" unicode="y" horiz-adv-x="1038" 
d="M115 -406v183h34q87 0 140.5 34t84.5 116l37 98l-409 967h263l259 -739h8l242 739h262l-454 -1122q-58 -147 -152.5 -211.5t-239.5 -64.5h-75z" />
    <glyph glyph-name="z" unicode="z" horiz-adv-x="1064" 
d="M85 0v144l564 662h-519v186h831v-138l-567 -668h589v-186h-898z" />
    <glyph glyph-name="braceleft" unicode="{" horiz-adv-x="929" 
d="M638 -298q-115 0 -199.5 69t-84.5 192v316q0 112 -27 154t-92 42h-129v187h129q68 0 93.5 40.5t25.5 157.5v337q0 118 82.5 190t197.5 72h229v-189h-213q-40 0 -54.5 -17t-14.5 -69v-336q0 -179 -101 -279q101 -95 101 -268v-310q0 -65 14.5 -83t60.5 -18h207v-188h-225z
" />
    <glyph glyph-name="braceright" unicode="}" horiz-adv-x="931" 
d="M66 -298v188h210q46 0 61 18.5t15 82.5v319q0 166 98 259q-98 97 -98 273v342q0 53 -14.5 69.5t-58.5 16.5h-213v189h229q117 0 199 -71t82 -191v-337q0 -113 26.5 -155.5t91.5 -42.5h130v-187h-130q-64 0 -91 -42t-27 -143v-327q0 -121 -84 -191t-201 -70h-225z" />
    <glyph glyph-name="asciitilde" unicode="~" horiz-adv-x="1683" 
d="M1101 374q-87 0 -163 27.5t-124 71.5q-35 26 -79 65q-78 58 -159 58q-77 0 -136 -42t-125 -145l-193 83q75 143 191.5 218t264.5 75q169 0 289 -96q3 -2 7.5 -6.5t6.5 -5.5l16 -12q3 -3 11.5 -10t13.5 -11h1h1q1 -3 3 -3v-1q1 -1 2 -1q1 -4 13 -10q1 0 5 -4q1 -1 3 -5
q73 -57 151 -57q43 0 71.5 9t59.5 34q43 39 60.5 60t72.5 95l195 -87q-36 -52 -66.5 -90.5t-74.5 -80.5t-89 -68.5t-104 -43.5t-125 -17z" />
    <glyph glyph-name="exclamdown" unicode="&#xa1;" horiz-adv-x="619" 
d="M188 -435l16 1013h217l13 -1013h-246zM140 653v285h339v-285h-339z" />
    <glyph glyph-name="cent" unicode="&#xa2;" horiz-adv-x="1136" 
d="M493 -97q-202 27 -325 169.5t-123 356.5q0 206 120.5 352t327.5 174v138h227v-145q131 -28 222 -108.5t112 -186.5l-210 -57q-16 81 -83 129.5t-171 48.5q-153 0 -236.5 -90.5t-83.5 -254.5t85 -255t235 -91q108 0 188.5 54.5t107.5 134.5l207 -65q-43 -105 -141.5 -187
t-231.5 -111v-147h-227v141z" />
    <glyph glyph-name="sterling" unicode="&#xa3;" horiz-adv-x="1491" 
d="M106 74q139 4 207.5 74.5t68.5 183.5v175h-246v191h246v243q0 181 124 279.5t333 98.5q165 0 288.5 -76.5t157.5 -185.5l-181 -84q-44 87 -102.5 122t-157.5 35q-129 0 -183 -43.5t-54 -148.5v-240h511v-191h-511v-175q0 -109 -43 -195q27 3 72 3q96 0 197 -30
q101 -24 142 -24q103 0 175.5 19.5t136.5 63.5l90 -179q-151 -93 -405 -93q-86 0 -191 30q-112 22 -154 22q-128 0 -300 -34l-120 -24z" />
    <glyph glyph-name="currency" unicode="&#xa4;" horiz-adv-x="1598" 
d="M1102 264q-133 -65 -298 -65q-162 0 -297 66l-233 -167l-171 119l245 184q-70 88 -70 205q0 114 68 207l-240 173l165 131l237 -168q136 65 296 65q161 0 296 -69l232 175l167 -135l-238 -173q71 -96 71 -206q0 -107 -73 -205l242 -180l-167 -125zM504 606q0 -97 80 -157
t220 -60q138 0 220 60.5t82 156.5q0 98 -82 158.5t-220 60.5t-219 -60.5t-81 -158.5z" />
    <glyph glyph-name="yen" unicode="&#xa5;" horiz-adv-x="1487" 
d="M634 -73v325h-433v187h433v31h-433v187h308l-513 630h280l464 -571q1 -3 5 -9l3 6l463 574h282l-511 -630h300v-187h-424v-31h424v-187h-424v-325h-224z" />
    <glyph glyph-name="copyright" unicode="&#xa9;" horiz-adv-x="1826" 
d="M909 -27q-161 0 -305 57.5t-247 156.5t-163 237t-60 294q0 155 60 292.5t163.5 236t247 156t304.5 57.5q164 0 308.5 -57t248 -155.5t163.5 -236.5t60 -293q0 -156 -60 -294t-163 -237t-248 -156.5t-309 -57.5zM320 718q0 -162 76 -293.5t211 -206t302 -74.5
q256 0 425 163.5t169 410.5q0 161 -77 292.5t-213 206t-304 74.5q-165 0 -300 -75t-212 -206.5t-77 -291.5zM502 713q0 193 119.5 314.5t308.5 121.5q154 0 261 -92.5t120 -238.5h-193q-22 156 -188 156q-106 0 -172 -72t-66 -188q0 -113 63 -183t165 -70q172 0 205 152h191
q-17 -144 -127.5 -236.5t-268.5 -92.5q-183 0 -300.5 121t-117.5 308z" />
    <glyph glyph-name="ordfeminine" unicode="&#xaa;" horiz-adv-x="817" 
d="M331 717q-116 0 -185 53t-69 139q0 185 303 227q108 13 156 26v35q0 48 -37.5 75.5t-100.5 27.5q-119 0 -206 -89l-96 75q56 60 134.5 93t165.5 33q156 0 227.5 -68.5t71.5 -199.5v-407h-153v82q-26 -43 -83 -72.5t-128 -29.5zM43 497v150h733v-150h-733zM238 923
q0 -39 32 -63t84 -24q76 0 129 47t53 118v61q-52 -12 -139 -25q-159 -23 -159 -114z" />
    <glyph glyph-name="guillemotleft" unicode="&#xab;" horiz-adv-x="1093" 
d="M497 -43l-411 459l415 455l192 -97l-331 -358l325 -360zM416 416l414 453l187 -98l-326 -355l324 -358l-187 -99z" />
    <glyph glyph-name="logicalnot" unicode="&#xac;" horiz-adv-x="1339" 
d="M985 140v347h-853v189h1079v-536h-226z" />
    <glyph glyph-name="uni00AD" unicode="&#xad;" horiz-adv-x="1269" 
d="M106 503v189h1057v-189h-1057z" />
    <glyph glyph-name="registered" unicode="&#xae;" horiz-adv-x="969" 
d="M487 615q-182 0 -302.5 116.5t-120.5 290.5q0 173 121.5 290t301.5 117q179 0 298 -116t119 -291q0 -174 -119 -290.5t-298 -116.5zM144 1022q0 -144 97.5 -239t245.5 -95q146 0 242 95t96 239t-96.5 239.5t-241.5 95.5q-148 0 -245.5 -95.5t-97.5 -239.5zM316 800v458
h190q80 0 127.5 -37t47.5 -103q0 -45 -25.5 -81.5t-71.5 -53.5l104 -183h-90l-88 164h-113v-164h-81zM397 1035h108q42 0 66 20.5t24 56.5q0 72 -90 72h-108v-149z" />
    <glyph glyph-name="plusminus" unicode="&#xb1;" horiz-adv-x="1449" 
d="M613 265v343h-463v190h463v341h222v-341h463v-190h-463v-343h-222zM156 70v189h1136v-189h-1136z" />
    <glyph glyph-name="uni00B2" unicode="&#xb2;" horiz-adv-x="671" 
d="M59 698q0 109 57.5 191t228.5 231q91 76 91 160q0 47 -28 74t-74 27q-100 0 -139 -136l-145 38q9 36 19.5 59t40.5 71t89 74.5t136 26.5q122 0 199 -65.5t77 -171.5q0 -112 -128 -231q-3 -4 -92.5 -83t-121.5 -133h339v-132h-549z" />
    <glyph glyph-name="uni00B3" unicode="&#xb3;" horiz-adv-x="671" 
d="M326 678q-104 0 -184 52t-110 144l138 46q51 -109 154 -109q58 0 95 31.5t37 88.5q0 52 -41 83.5t-107 31.5q-62 0 -93 -3v132q61 -4 88 -4q55 0 89 28.5t34 80.5q0 45 -30 73t-79 28q-47 0 -74 -27.5t-49 -85.5l-143 39q35 123 130 171q68 33 145 33q124 0 199.5 -61
t75.5 -157q0 -113 -99 -175q131 -60 131 -187q0 -117 -83 -185t-224 -68z" />
    <glyph glyph-name="uni00B5" unicode="&#xb5;" horiz-adv-x="1165" 
d="M91 -477v1409h229v-627q0 -113 51 -167.5t171 -54.5q151 0 230 76t79 203v570h224v-1005h-222v53q-134 -83 -318 -83q-128 0 -215 42v-416h-229z" />
    <glyph glyph-name="periodcentered" unicode="&#xb7;" horiz-adv-x="612" 
d="M136 437v287h340v-287h-340z" />
    <glyph glyph-name="uni00B9" unicode="&#xb9;" horiz-adv-x="570" 
d="M214 698l1 579l-156 -99v206l207 133h119v-819h-171z" />
    <glyph glyph-name="ordmasculine" unicode="&#xba;" horiz-adv-x="817" 
d="M386 722q-138 0 -222 77q-100 92 -100 258q0 147 84.5 241.5t237.5 94.5q151 0 235.5 -94.5t84.5 -241.5q0 -97 -41 -176q-81 -159 -279 -159zM43 497v150h733v-150h-733zM221 1057q0 -104 46.5 -160t118.5 -56q68 0 115.5 56.5t47.5 159.5q0 105 -47 161t-116 56
q-71 0 -118 -56t-47 -161z" />
    <glyph glyph-name="guillemotright" unicode="&#xbb;" horiz-adv-x="1095" 
d="M592 -43l-191 99l324 360l-330 358l191 97l417 -455zM70 771l188 98l415 -453l-412 -462l-186 107l321 355z" />
    <glyph glyph-name="questiondown" unicode="&#xbf;" horiz-adv-x="1099" 
d="M537 -465q-215 0 -345.5 107.5t-130.5 281.5q0 89 47 164.5t120 129.5l5 5q2 2 2 3v1h4q1 1 11 9q2 1 6 3.5t5 4.5q3 3 5 4q3 1 6 4l4 3l3 2q1 2 7 6q22 18 48 36q2 2 7 5t6 4l1 -1q106 84 106 190v99h222v-101q0 -96 -46.5 -179t-118.5 -139l-6 -3t-6 -4q-10 -7 -24 -20
q-23 -16 -40 -29q-37 -26 -41 -28q-54 -41 -81 -80.5t-27 -88.5q0 -100 60 -148.5t189 -48.5q113 0 186.5 51t130.5 172l202 -67q-59 -165 -200 -256.5t-317 -91.5zM394 656v282h339v-282h-339z" />
    <glyph glyph-name="Agrave" unicode="&#xc0;" 
d="M15 0l542 1358h274l540 -1358h-264l-125 336h-580l-122 -336h-265zM324 1800h288l217 -325h-202zM470 518h445l-217 622h-11z" />
    <glyph glyph-name="Aacute" unicode="&#xc1;" 
d="M15 0l542 1358h274l540 -1358h-264l-125 336h-580l-122 -336h-265zM470 518h445l-217 622h-11zM540 1475l215 325h290l-303 -325h-202z" />
    <glyph glyph-name="Acircumflex" unicode="&#xc2;" 
d="M15 0l542 1358h274l540 -1358h-264l-125 336h-580l-122 -336h-265zM261 1475l327 318h205l335 -318h-247l-188 205l-184 -205h-248zM470 518h445l-217 622h-11z" />
    <glyph glyph-name="Atilde" unicode="&#xc3;" 
d="M15 0l542 1358h274l540 -1358h-264l-125 336h-580l-122 -336h-265zM231 1589q120 165 293 165q74 0 171 -52t133 -52q96 0 167 107l130 -96q-123 -172 -294 -172q-71 0 -166 53q-94 52 -135 52q-46 0 -91.5 -29t-73.5 -74zM470 518h445l-217 622h-11z" />
    <glyph glyph-name="Adieresis" unicode="&#xc4;" 
d="M15 0l542 1358h274l540 -1358h-264l-125 336h-580l-122 -336h-265zM342 1532v218h255v-218h-255zM470 518h445l-217 622h-11zM786 1532v218h252v-218h-252z" />
    <glyph glyph-name="Aring" unicode="&#xc5;" 
d="M15 0l542 1358h274l540 -1358h-264l-125 336h-580l-122 -336h-265zM396 1656q0 107 85 183t212 76t211 -76.5t84 -182.5q0 -110 -86 -185.5t-209 -75.5q-122 0 -209.5 75.5t-87.5 185.5zM470 518h445l-217 622h-11zM562 1656q0 -51 37 -85t94 -34q55 0 90.5 32.5
t35.5 86.5q0 49 -36 83.5t-90 34.5t-92.5 -35t-38.5 -83z" />
    <glyph glyph-name="AE" unicode="&#xc6;" horiz-adv-x="1998" 
d="M15 0l804 1358h1077v-192h-683v-369h611v-191h-626v-414h716v-192h-948v336h-490l-194 -336h-267zM576 518h390v626h-21z" />
    <glyph glyph-name="Ccedilla" unicode="&#xc7;" horiz-adv-x="1362" 
d="M696 -409q-87 0 -188 23v136q110 -21 181 -21q52 0 92.5 17.5t40.5 51.5q0 63 -219 63l33 114q-255 32 -411 220t-156 485q0 323 184 516t481 193q182 0 319.5 -90.5t206.5 -236.5l-214 -64q-122 197 -317 197q-185 0 -294 -139.5t-109 -375.5q0 -237 109.5 -376.5
t293.5 -139.5q116 0 208.5 63t136.5 161l224 -63q-58 -129 -184 -232q-108 -88 -265 -115l-13 -42q81 -12 128 -53t47 -101q0 -82 -81.5 -136.5t-233.5 -54.5z" />
    <glyph glyph-name="Egrave" unicode="&#xc8;" horiz-adv-x="1181" 
d="M96 0v1358h981v-194h-732v-367h661v-191h-661v-414h751v-192h-1000zM237 1800h290l215 -325h-202z" />
    <glyph glyph-name="Eacute" unicode="&#xc9;" horiz-adv-x="1181" 
d="M96 0v1358h981v-194h-732v-367h661v-191h-661v-414h751v-192h-1000zM423 1475l216 325h290l-303 -325h-203z" />
    <glyph glyph-name="Ecircumflex" unicode="&#xca;" horiz-adv-x="1181" 
d="M96 0v1358h981v-194h-732v-367h661v-191h-661v-414h751v-192h-1000zM147 1475l329 318h204l335 -318h-249l-187 205l-184 -205h-248z" />
    <glyph glyph-name="Edieresis" unicode="&#xcb;" horiz-adv-x="1181" 
d="M96 0v1358h981v-194h-732v-367h661v-191h-661v-414h751v-192h-1000zM229 1532v218h254v-218h-254zM672 1532v218h252v-218h-252z" />
    <glyph glyph-name="Igrave" unicode="&#xcc;" horiz-adv-x="530" 
d="M163 0v1358h249v-1358h-249zM-71 1800h290l215 -325h-202z" />
    <glyph glyph-name="Iacute" unicode="&#xcd;" horiz-adv-x="547" 
d="M138 0v1358h249v-1358h-249zM96 1475l217 325h291l-304 -325h-204z" />
    <glyph glyph-name="Icircumflex" unicode="&#xce;" horiz-adv-x="554" 
d="M154 0v1358h249v-1358h-249zM-156 1475l328 318h204l336 -318h-248l-189 205l-183 -205h-248z" />
    <glyph glyph-name="Idieresis" unicode="&#xcf;" horiz-adv-x="453" 
d="M105 0v1358h249v-1358h-249zM-120 1532v218h255v-218h-255zM324 1532v218h251v-218h-251z" />
    <glyph glyph-name="Eth" unicode="&#xd0;" horiz-adv-x="1369" 
d="M149 0v596h-150v179h150v583h444q340 0 523 -175.5t183 -502.5q0 -232 -97 -393q-52 -89 -132 -150q-173 -137 -479 -137h-442zM398 190h164q478 0 478 490q0 253 -122 369.5t-352 116.5h-168v-391h378v-179h-378v-406z" />
    <glyph glyph-name="Ntilde" unicode="&#xd1;" horiz-adv-x="1303" 
d="M197 1589q122 165 292 165q76 0 173 -52t130 -52q100 0 168 107l132 -96q-123 -172 -294 -172q-71 0 -166 53q-94 52 -136 52q-45 0 -90 -29t-75 -74zM96 0v1358h260l601 -992v992h250v-1358h-262l-600 982v-982h-249z" />
    <glyph glyph-name="Ograve" unicode="&#xd2;" horiz-adv-x="1424" 
d="M714 -31q-293 0 -469 194t-176 515t176 516t469 195q291 0 465.5 -194.5t174.5 -516.5q0 -320 -176 -514.5t-464 -194.5zM326 678q0 -238 104 -376t284 -138q178 0 281 137.5t103 376.5t-102.5 378t-281.5 139q-180 0 -284 -139.5t-104 -377.5zM345 1816h289l218 -325
h-204z" />
    <glyph glyph-name="Oacute" unicode="&#xd3;" horiz-adv-x="1424" 
d="M714 -31q-293 0 -469 194t-176 515t176 516t469 195q291 0 465.5 -194.5t174.5 -516.5q0 -320 -176 -514.5t-464 -194.5zM326 678q0 -238 104 -376t284 -138q178 0 281 137.5t103 376.5t-102.5 378t-281.5 139q-180 0 -284 -139.5t-104 -377.5zM568 1491l215 325h291
l-304 -325h-202z" />
    <glyph glyph-name="Ocircumflex" unicode="&#xd4;" horiz-adv-x="1424" 
d="M714 -31q-293 0 -469 194t-176 515t176 516t469 195q291 0 465.5 -194.5t174.5 -516.5q0 -320 -176 -514.5t-464 -194.5zM279 1491l328 318h204l335 -318h-247l-188 205l-185 -205h-247zM326 678q0 -238 104 -376t284 -138q178 0 281 137.5t103 376.5t-102.5 378
t-281.5 139q-180 0 -284 -139.5t-104 -377.5z" />
    <glyph glyph-name="Otilde" unicode="&#xd5;" horiz-adv-x="1424" 
d="M714 -31q-293 0 -469 194t-176 515t176 516t469 195q291 0 465.5 -194.5t174.5 -516.5q0 -320 -176 -514.5t-464 -194.5zM260 1589q121 165 292 165q76 0 173 -52t130 -52q100 0 168 107l132 -96q-123 -172 -294 -172q-71 0 -166 53q-94 52 -136 52q-45 0 -90 -29
t-75 -74zM326 678q0 -238 104 -376t284 -138q178 0 281 137.5t103 376.5t-102.5 378t-281.5 139q-180 0 -284 -139.5t-104 -377.5z" />
    <glyph glyph-name="Odieresis" unicode="&#xd6;" horiz-adv-x="1424" 
d="M714 -31q-293 0 -469 194t-176 515t176 516t469 195q291 0 465.5 -194.5t174.5 -516.5q0 -320 -176 -514.5t-464 -194.5zM326 678q0 -238 104 -376t284 -138q178 0 281 137.5t103 376.5t-102.5 378t-281.5 139q-180 0 -284 -139.5t-104 -377.5zM363 1532v218h255v-218
h-255zM807 1532v218h252v-218h-252z" />
    <glyph glyph-name="multiply" unicode="&#xd7;" horiz-adv-x="1492" 
d="M303 149l-171 130l441 314l-429 314l163 136l434 -327l434 327l169 -136l-429 -314l444 -318l-173 -125l-445 319z" />
    <glyph glyph-name="Oslash" unicode="&#xd8;" horiz-adv-x="1426" 
d="M297 113q-228 198 -228 565q0 320 177 515.5t468 195.5q160 0 285 -61l77 129h208l-135 -231q207 -198 207 -548q0 -320 -177 -514.5t-465 -194.5q-152 0 -269 51l-76 -126h-203zM326 678q0 -212 94 -357l474 828q-77 46 -180 46q-180 0 -284 -139.5t-104 -377.5z
M552 198q59 -34 162 -34q178 0 281 137.5t103 376.5q0 209 -80 337z" />
    <glyph glyph-name="Ugrave" unicode="&#xd9;" horiz-adv-x="1300" 
d="M649 -31q-267 0 -410 136.5t-143 403.5v849h251v-849q0 -171 79 -258t223 -87q147 0 226 88.5t79 256.5v849h250v-849q0 -262 -141 -401t-414 -139zM291 1816h289l218 -325h-204z" />
    <glyph glyph-name="Uacute" unicode="&#xda;" horiz-adv-x="1300" 
d="M649 -31q-267 0 -410 136.5t-143 403.5v849h251v-849q0 -171 79 -258t223 -87q147 0 226 88.5t79 256.5v849h250v-849q0 -262 -141 -401t-414 -139zM498 1491l215 325h290l-303 -325h-202z" />
    <glyph glyph-name="Ucircumflex" unicode="&#xdb;" horiz-adv-x="1300" 
d="M649 -31q-267 0 -410 136.5t-143 403.5v849h251v-849q0 -171 79 -258t223 -87q147 0 226 88.5t79 256.5v849h250v-849q0 -262 -141 -401t-414 -139zM221 1491l328 318h204l336 -318h-249l-186 205l-184 -205h-249z" />
    <glyph glyph-name="Udieresis" unicode="&#xdc;" horiz-adv-x="1300" 
d="M649 -31q-267 0 -410 136.5t-143 403.5v849h251v-849q0 -171 79 -258t223 -87q147 0 226 88.5t79 256.5v849h250v-849q0 -262 -141 -401t-414 -139zM306 1532v218h254v-218h-254zM749 1532v218h253v-218h-253z" />
    <glyph glyph-name="Yacute" unicode="&#xdd;" horiz-adv-x="1308" 
d="M499 1491l215 325h290l-303 -325h-202zM8 1358h287l355 -623h6l354 623h289l-520 -807v-551h-249v551z" />
    <glyph glyph-name="Thorn" unicode="&#xde;" horiz-adv-x="1170" 
d="M92 0v1358h247v-219h149q151 0 264.5 -37t175.5 -104q118 -127 118 -304q0 -220 -146.5 -336t-407.5 -116h-153v-242h-247zM339 436h131q312 0 312 262q0 249 -310 249h-133v-511z" />
    <glyph glyph-name="germandbls" unicode="&#xdf;" horiz-adv-x="1198" 
d="M682 -31q-138 0 -254 33l4 199q111 -40 240 -40q94 0 160.5 62t66.5 151q0 116 -72.5 177.5t-207.5 61.5h-136v193h114q83 0 136 54t53 146q0 85 -60.5 137t-159.5 52q-104 0 -162.5 -59.5t-58.5 -163.5v-972h-249v989q0 189 129.5 294.5t333.5 105.5q220 0 352.5 -100
t132.5 -271q0 -190 -170 -283v-3q133 -40 207.5 -130.5t74.5 -229.5q0 -186 -127 -294.5t-347 -108.5z" />
    <glyph glyph-name="agrave" unicode="&#xe0;" horiz-adv-x="1061" 
d="M421 -31q-178 0 -280.5 80t-102.5 211q0 279 456 342q175 23 235 41v52q0 72 -56.5 114t-151.5 42q-179 0 -310 -135l-146 114q87 91 205 141.5t248 50.5q236 0 344.5 -104t108.5 -303v-615h-234v124q-35 -66 -121.5 -110.5t-194.5 -44.5zM183 1470h289l217 -324h-203z
M279 278q0 -56 48.5 -92t127.5 -36q116 0 195 69.5t79 179.5v91q-86 -19 -209 -36q-241 -34 -241 -176z" />
    <glyph glyph-name="aacute" unicode="&#xe1;" horiz-adv-x="1061" 
d="M421 -31q-178 0 -280.5 80t-102.5 211q0 279 456 342q175 23 235 41v52q0 72 -56.5 114t-151.5 42q-179 0 -310 -135l-146 114q87 91 205 141.5t248 50.5q236 0 344.5 -104t108.5 -303v-615h-234v124q-35 -66 -121.5 -110.5t-194.5 -44.5zM279 278q0 -56 48.5 -92
t127.5 -36q116 0 195 69.5t79 179.5v91q-86 -19 -209 -36q-241 -34 -241 -176zM330 1151l216 324h289l-302 -324h-203z" />
    <glyph glyph-name="acircumflex" unicode="&#xe2;" horiz-adv-x="1061" 
d="M421 -31q-178 0 -280.5 80t-102.5 211q0 279 456 342q175 23 235 41v52q0 72 -56.5 114t-151.5 42q-179 0 -310 -135l-146 114q87 91 205 141.5t248 50.5q236 0 344.5 -104t108.5 -303v-615h-234v124q-35 -66 -121.5 -110.5t-194.5 -44.5zM84 1151l327 318h204l335 -318
h-247l-188 204l-183 -204h-248zM279 278q0 -56 48.5 -92t127.5 -36q116 0 195 69.5t79 179.5v91q-86 -19 -209 -36q-241 -34 -241 -176z" />
    <glyph glyph-name="atilde" unicode="&#xe3;" horiz-adv-x="1061" 
d="M421 -31q-178 0 -280.5 80t-102.5 211q0 279 456 342q175 23 235 41v52q0 72 -56.5 114t-151.5 42q-179 0 -310 -135l-146 114q87 91 205 141.5t248 50.5q236 0 344.5 -104t108.5 -303v-615h-234v124q-35 -66 -121.5 -110.5t-194.5 -44.5zM76 1244q122 165 293 165
q74 0 171 -52t132 -52q99 0 167 107l132 -96q-121 -172 -293 -172q-72 0 -167 53q-95 52 -136 52q-45 0 -90.5 -29t-73.5 -74zM279 278q0 -56 48.5 -92t127.5 -36q116 0 195 69.5t79 179.5v91q-86 -19 -209 -36q-241 -34 -241 -176z" />
    <glyph glyph-name="adieresis" unicode="&#xe4;" horiz-adv-x="1061" 
d="M421 -31q-178 0 -280.5 80t-102.5 211q0 279 456 342q175 23 235 41v52q0 72 -56.5 114t-151.5 42q-179 0 -310 -135l-146 114q87 91 205 141.5t248 50.5q236 0 344.5 -104t108.5 -303v-615h-234v124q-35 -66 -121.5 -110.5t-194.5 -44.5zM161 1203v218h254v-218h-254z
M279 278q0 -56 48.5 -92t127.5 -36q116 0 195 69.5t79 179.5v91q-86 -19 -209 -36q-241 -34 -241 -176zM606 1203v218h251v-218h-251z" />
    <glyph glyph-name="aring" unicode="&#xe5;" horiz-adv-x="1061" 
d="M421 -31q-178 0 -280.5 80t-102.5 211q0 279 456 342q175 23 235 41v52q0 72 -56.5 114t-151.5 42q-179 0 -310 -135l-146 114q87 91 205 141.5t248 50.5q236 0 344.5 -104t108.5 -303v-615h-234v124q-35 -66 -121.5 -110.5t-194.5 -44.5zM228 1355q0 109 84 184t212 75
q126 0 210 -76t84 -183q0 -110 -85.5 -185.5t-208.5 -75.5q-124 0 -210 75.5t-86 185.5zM279 278q0 -56 48.5 -92t127.5 -36q116 0 195 69.5t79 179.5v91q-86 -19 -209 -36q-241 -34 -241 -176zM393 1355q0 -51 37 -85t94 -34q54 0 90 33t36 86q0 50 -36 84t-90 34
q-56 0 -93.5 -34.5t-37.5 -83.5z" />
    <glyph glyph-name="ae" unicode="&#xe6;" horiz-adv-x="1757" 
d="M421 -31q-177 0 -280 81t-103 214q0 276 476 341q149 21 215 36v58q0 66 -58 109t-146 43q-181 0 -316 -135l-145 112q175 192 461 192q246 0 356 -146q129 146 348 146q211 0 349 -144.5t138 -369.5q0 -36 -2 -86h-749v-25q9 -104 80 -177.5t190 -73.5q177 0 265 144
l197 -61q-56 -116 -175.5 -187t-288.5 -71q-131 0 -237 53.5t-169 150.5q-163 -204 -406 -204zM279 278q0 -53 48.5 -90.5t123.5 -37.5q116 0 197 70.5t81 174.5v95q-148 -28 -193 -35q-257 -33 -257 -177zM965 573h509q2 116 -68.5 194.5t-173.5 78.5q-109 0 -175.5 -63
t-88.5 -170z" />
    <glyph glyph-name="ccedilla" unicode="&#xe7;" horiz-adv-x="1035" 
d="M488 -409q-87 0 -188 23v136q110 -21 180 -21q53 0 93.5 17.5t40.5 51.5q0 63 -219 63l34 120q-175 37 -279.5 174.5t-104.5 339.5q0 237 140.5 382t365.5 145q155 0 269 -86.5t145 -207.5l-206 -52q-23 69 -79 114.5t-128 45.5q-120 0 -190.5 -95.5t-70.5 -245.5
q0 -158 72.5 -249t188.5 -91q80 0 144 50.5t89 121.5l207 -55q-32 -105 -128.5 -188t-223.5 -107l-13 -41q82 -12 129 -53t47 -101q0 -82 -81.5 -136.5t-233.5 -54.5z" />
    <glyph glyph-name="egrave" unicode="&#xe8;" horiz-adv-x="1091" 
d="M563 -31q-230 0 -374 145t-144 386q0 236 143.5 379t366.5 143q216 0 355.5 -143t139.5 -370q0 -45 -6 -89h-757q0 -116 77 -196t202 -80q90 0 160 39t107 105l200 -61q-56 -116 -177.5 -187t-292.5 -71zM211 1475h289l216 -324h-203zM291 573h515q0 117 -68 195t-183 78
q-117 0 -190 -79.5t-74 -193.5z" />
    <glyph glyph-name="eacute" unicode="&#xe9;" horiz-adv-x="1091" 
d="M563 -31q-230 0 -374 145t-144 386q0 236 143.5 379t366.5 143q216 0 355.5 -143t139.5 -370q0 -45 -6 -89h-757q0 -116 77 -196t202 -80q90 0 160 39t107 105l200 -61q-56 -116 -177.5 -187t-292.5 -71zM291 573h515q0 117 -68 195t-183 78q-117 0 -190 -79.5
t-74 -193.5zM347 1151l215 324h289l-302 -324h-202z" />
    <glyph glyph-name="ecircumflex" unicode="&#xea;" horiz-adv-x="1091" 
d="M563 -31q-230 0 -374 145t-144 386q0 236 143.5 379t366.5 143q216 0 355.5 -143t139.5 -370q0 -45 -6 -89h-757q0 -116 77 -196t202 -80q90 0 160 39t107 105l200 -61q-56 -116 -177.5 -187t-292.5 -71zM119 1151l326 318h205l336 -318h-249l-186 204l-184 -204h-248z
M291 573h515q0 117 -68 195t-183 78q-117 0 -190 -79.5t-74 -193.5z" />
    <glyph glyph-name="edieresis" unicode="&#xeb;" horiz-adv-x="1091" 
d="M563 -31q-230 0 -374 145t-144 386q0 236 143.5 379t366.5 143q216 0 355.5 -143t139.5 -370q0 -45 -6 -89h-757q0 -116 77 -196t202 -80q90 0 160 39t107 105l200 -61q-56 -116 -177.5 -187t-292.5 -71zM203 1203v218h254v-218h-254zM291 573h515q0 117 -68 195t-183 78
q-117 0 -190 -79.5t-74 -193.5zM647 1203v218h251v-218h-251z" />
    <glyph glyph-name="igrave" unicode="&#xec;" horiz-adv-x="553" 
d="M190 0v992h238v-992h-238zM-44 1475h291l215 -324h-203z" />
    <glyph glyph-name="iacute" unicode="&#xed;" horiz-adv-x="535" 
d="M135 0v992h238v-992h-238zM91 1151l216 324h291l-303 -324h-204z" />
    <glyph glyph-name="icircumflex" unicode="&#xee;" horiz-adv-x="537" 
d="M-166 1151l327 318h205l334 -318h-247l-188 204l-184 -204h-247zM143 0v992h238v-992h-238z" />
    <glyph glyph-name="idieresis" unicode="&#xef;" horiz-adv-x="437" 
d="M91 0v992h238v-992h-238zM-130 1203v218h253v-218h-253zM312 1203v218h252v-218h-252z" />
    <glyph glyph-name="eth" unicode="&#xf0;" horiz-adv-x="1094" 
d="M533 -31q-220 0 -354 128t-134 331q0 217 133.5 347t348.5 130q78 0 146 -25.5t99 -60.5q-38 148 -163 263l-202 -135l-140 136l168 113q-91 43 -193 56l85 175q178 -26 307 -97l207 140l138 -141l-179 -119q44 -43 86 -99q73 -103 118 -259t45 -340q0 -247 -137 -395
t-379 -148zM291 438q0 -126 67.5 -204.5t180.5 -78.5q111 0 177.5 76.5t66.5 206.5q0 125 -67.5 202t-176.5 77q-110 0 -179 -76t-69 -203z" />
    <glyph glyph-name="ntilde" unicode="&#xf1;" horiz-adv-x="1088" 
d="M103 0v992h234v-127h1q32 63 112 110t191 47q170 0 263 -94.5t93 -290.5v-637h-242v608q0 228 -169 228q-104 0 -173.5 -75.5t-69.5 -187.5v-573h-240zM91 1244q120 165 291 165q73 0 170 -52t134 -52q98 0 167 107l130 -96q-120 -172 -291 -172q-74 0 -169 53
q-94 52 -134 52q-45 0 -91 -29t-74 -74z" />
    <glyph glyph-name="ograve" unicode="&#xf2;" horiz-adv-x="1101" 
d="M551 -31q-109 0 -199 33t-149 87q-158 147 -158 406q0 150 56 267.5t172.5 188.5t277.5 71q159 0 275 -71t172.5 -188.5t56.5 -267.5q0 -147 -66 -278q-61 -122 -173 -185t-265 -63zM211 1475h289l216 -324h-203zM291 495q0 -164 74 -252t186 -88q109 0 183.5 88.5
t74.5 251.5q0 165 -74.5 253t-183.5 88q-110 0 -185 -88t-75 -253z" />
    <glyph glyph-name="oacute" unicode="&#xf3;" horiz-adv-x="1101" 
d="M551 -31q-109 0 -199 33t-149 87q-158 147 -158 406q0 150 56 267.5t172.5 188.5t277.5 71q159 0 275 -71t172.5 -188.5t56.5 -267.5q0 -147 -66 -278q-61 -122 -173 -185t-265 -63zM291 495q0 -164 74 -252t186 -88q109 0 183.5 88.5t74.5 251.5q0 165 -74.5 253
t-183.5 88q-110 0 -185 -88t-75 -253zM378 1151l216 324h290l-303 -324h-203z" />
    <glyph glyph-name="ocircumflex" unicode="&#xf4;" horiz-adv-x="1101" 
d="M551 -31q-109 0 -199 33t-149 87q-158 147 -158 406q0 150 56 267.5t172.5 188.5t277.5 71q159 0 275 -71t172.5 -188.5t56.5 -267.5q0 -147 -66 -278q-61 -122 -173 -185t-265 -63zM115 1151l328 318h204l334 -318h-247l-188 204l-184 -204h-247zM291 495
q0 -164 74 -252t186 -88q109 0 183.5 88.5t74.5 251.5q0 165 -74.5 253t-183.5 88q-110 0 -185 -88t-75 -253z" />
    <glyph glyph-name="otilde" unicode="&#xf5;" horiz-adv-x="1101" 
d="M551 -31q-109 0 -199 33t-149 87q-158 147 -158 406q0 150 56 267.5t172.5 188.5t277.5 71q159 0 275 -71t172.5 -188.5t56.5 -267.5q0 -147 -66 -278q-61 -122 -173 -185t-265 -63zM95 1244q120 165 291 165q73 0 170 -52t134 -52q98 0 167 107l130 -96
q-120 -172 -291 -172q-74 0 -169 53q-94 52 -134 52q-45 0 -91 -29t-74 -74zM291 495q0 -164 74 -252t186 -88q109 0 183.5 88.5t74.5 251.5q0 165 -74.5 253t-183.5 88q-110 0 -185 -88t-75 -253z" />
    <glyph glyph-name="odieresis" unicode="&#xf6;" horiz-adv-x="1101" 
d="M551 -31q-109 0 -199 33t-149 87q-158 147 -158 406q0 150 56 267.5t172.5 188.5t277.5 71q159 0 275 -71t172.5 -188.5t56.5 -267.5q0 -147 -66 -278q-61 -122 -173 -185t-265 -63zM199 1203v218h256v-218h-256zM291 495q0 -164 74 -252t186 -88q109 0 183.5 88.5
t74.5 251.5q0 165 -74.5 253t-183.5 88q-110 0 -185 -88t-75 -253zM644 1203v218h252v-218h-252z" />
    <glyph glyph-name="divide" unicode="&#xf7;" horiz-adv-x="1505" 
d="M154 503v189h1197v-189h-1197zM590 167v268h327v-268h-327zM590 762v271h327v-271h-327z" />
    <glyph glyph-name="oslash" unicode="&#xf8;" horiz-adv-x="1098" 
d="M211 80q-166 147 -166 415q0 150 56 267t172.5 187.5t277.5 70.5q115 0 208 -37l76 126h183l-122 -209q156 -142 156 -405q0 -153 -63 -278q-61 -122 -173 -185t-265 -63q-113 0 -204 33l-62 -107h-184zM291 495q0 -123 51 -207l316 521q-49 27 -107 27q-110 0 -185 -88
t-75 -253zM451 176q46 -21 100 -21q109 0 183.5 88.5t74.5 251.5q0 117 -47 194z" />
    <glyph glyph-name="ugrave" unicode="&#xf9;" horiz-adv-x="1068" 
d="M457 -31q-135 0 -243 77q-58 41 -90.5 122t-32.5 191v633h240v-606q0 -231 178 -231q105 0 167.5 81t62.5 200v556h238v-992h-229v115h-3q-30 -59 -107 -102.5t-181 -43.5zM190 1475h290l217 -324h-203z" />
    <glyph glyph-name="uacute" unicode="&#xfa;" horiz-adv-x="1068" 
d="M457 -31q-135 0 -243 77q-58 41 -90.5 122t-32.5 191v633h240v-606q0 -231 178 -231q105 0 167.5 81t62.5 200v556h238v-992h-229v115h-3q-30 -59 -107 -102.5t-181 -43.5zM369 1151l215 324h290l-303 -324h-202z" />
    <glyph glyph-name="ucircumflex" unicode="&#xfb;" horiz-adv-x="1073" 
d="M457 -31q-135 0 -243 77q-58 41 -90.5 122t-32.5 191v633h240v-606q0 -231 178 -231q105 0 167.5 81t62.5 200v556h238v-992h-229v115h-3q-30 -59 -107 -102.5t-181 -43.5zM115 1151l326 318h205l336 -318h-249l-186 204l-184 -204h-248z" />
    <glyph glyph-name="udieresis" unicode="&#xfc;" horiz-adv-x="1068" 
d="M457 -31q-135 0 -243 77q-58 41 -90.5 122t-32.5 191v633h240v-606q0 -231 178 -231q105 0 167.5 81t62.5 200v556h238v-992h-229v115h-3q-30 -59 -107 -102.5t-181 -43.5zM205 1203v218h252v-218h-252zM646 1203v218h252v-218h-252z" />
    <glyph glyph-name="yacute" unicode="&#xfd;" horiz-adv-x="1038" 
d="M335 1151l216 324h290l-303 -324h-203zM2 992h263l259 -739h8l242 739h262l-454 -1122q-58 -147 -152.5 -211.5t-239.5 -64.5h-75v183h34q87 0 140.5 34t84.5 116l37 98z" />
    <glyph glyph-name="thorn" unicode="&#xfe;" horiz-adv-x="1117" 
d="M91 -406v1809h238v-531q29 63 108 105.5t169 42.5q207 0 336.5 -141.5t129.5 -381.5q0 -135 -40.5 -240t-111.5 -167q-137 -121 -314 -121q-101 0 -172.5 42t-104.5 102v-519h-238zM326 497q0 -155 68.5 -248.5t178.5 -93.5q118 0 185.5 90t67.5 252q0 158 -67 248.5
t-186 90.5q-110 0 -178.5 -93t-68.5 -246z" />
    <glyph glyph-name="ydieresis" unicode="&#xff;" horiz-adv-x="1038" 
d="M165 1203v218h253v-218h-253zM2 992h263l259 -739h8l242 739h262l-454 -1122q-58 -147 -152.5 -211.5t-239.5 -64.5h-75v183h34q87 0 140.5 34t84.5 116l37 98zM607 1203v218h252v-218h-252z" />
    <glyph glyph-name="Amacron" unicode="&#x100;" 
d="M15 0l542 1358h274l540 -1358h-264l-125 336h-580l-122 -336h-265zM327 1539v149h729v-149h-729zM470 518h445l-217 622h-11z" />
    <glyph glyph-name="amacron" unicode="&#x101;" horiz-adv-x="1061" 
d="M421 -31q-178 0 -280.5 80t-102.5 211q0 279 456 342q175 23 235 41v52q0 72 -56.5 114t-151.5 42q-179 0 -310 -135l-146 114q87 91 205 141.5t248 50.5q236 0 344.5 -104t108.5 -303v-615h-234v124q-35 -66 -121.5 -110.5t-194.5 -44.5zM147 1204v150h728v-150h-728z
M279 278q0 -56 48.5 -92t127.5 -36q116 0 195 69.5t79 179.5v91q-86 -19 -209 -36q-241 -34 -241 -176z" />
    <glyph glyph-name="Abreve" unicode="&#x102;" 
d="M15 0l542 1358h274l540 -1358h-264l-125 336h-580l-122 -336h-265zM350 1772h178q6 -61 50.5 -100t112.5 -39q70 0 114.5 39t50.5 100h177q-3 -55 -25 -104.5t-62.5 -89.5t-106.5 -63.5t-148 -23.5q-89 0 -158 26t-106 71q-76 91 -77 184zM470 518h445l-217 622h-11z" />
    <glyph glyph-name="abreve" unicode="&#x103;" horiz-adv-x="1061" 
d="M421 -31q-178 0 -280.5 80t-102.5 211q0 279 456 342q175 23 235 41v52q0 72 -56.5 114t-151.5 42q-179 0 -310 -135l-146 114q87 91 205 141.5t248 50.5q236 0 344.5 -104t108.5 -303v-615h-234v124q-35 -66 -121.5 -110.5t-194.5 -44.5zM170 1430h177q6 -61 49.5 -99.5
t113.5 -38.5t115 39.5t49 98.5h180q-7 -118 -94 -199.5t-250 -81.5q-88 0 -156 26.5t-107 71.5q-72 84 -77 183zM279 278q0 -56 48.5 -92t127.5 -36q116 0 195 69.5t79 179.5v91q-86 -19 -209 -36q-241 -34 -241 -176z" />
    <glyph glyph-name="Aogonek" unicode="&#x104;" horiz-adv-x="1361" 
d="M15 0l542 1358h274l540 -1358h-44q-91 -46 -149.5 -96.5t-58.5 -90.5q0 -63 78 -63q48 0 125 19v-138q-72 -22 -175 -22q-114 0 -177.5 44t-63.5 119q0 66 56.5 127t143.5 104l-124 333h-580l-122 -336h-265zM470 518h445l-217 622h-11z" />
    <glyph glyph-name="aogonek" unicode="&#x105;" horiz-adv-x="1037" 
d="M421 -31q-178 0 -280.5 80t-102.5 211q0 279 456 342q175 23 235 41v52q0 72 -56.5 114t-151.5 42q-179 0 -310 -135l-146 114q87 91 205 141.5t248 50.5q236 0 344.5 -104t108.5 -303v-615h-13q-91 -47 -149 -97t-58 -90q0 -63 79 -63q46 0 123 19v-138
q-72 -22 -174 -22q-114 0 -178.5 44t-64.5 119q0 65 57.5 125.5t143.5 105.5v121q-35 -66 -121.5 -110.5t-194.5 -44.5zM279 278q0 -56 48.5 -92t127.5 -36q116 0 195 69.5t79 179.5v91q-86 -19 -209 -36q-241 -34 -241 -176z" />
    <glyph glyph-name="Cacute" unicode="&#x106;" horiz-adv-x="1362" 
d="M734 -31q-144 0 -266.5 49.5t-210.5 140t-138 225t-50 296.5q0 323 184 516t481 193q182 0 319.5 -90.5t206.5 -236.5l-214 -64q-122 197 -317 197q-185 0 -294 -139.5t-109 -375.5q0 -237 109.5 -376.5t293.5 -139.5q116 0 208.5 63t136.5 161l224 -63
q-58 -129 -184 -232q-70 -57 -169 -90.5t-211 -33.5zM582 1491l216 325h290l-303 -325h-203z" />
    <glyph glyph-name="cacute" unicode="&#x107;" horiz-adv-x="1035" 
d="M551 -31q-226 0 -366 144t-140 382q0 237 140.5 382t365.5 145q155 0 269 -86.5t145 -207.5l-206 -52q-23 69 -79 114.5t-128 45.5q-120 0 -190.5 -95.5t-70.5 -245.5q0 -158 72.5 -249t188.5 -91q80 0 144 50.5t89 121.5l207 -55q-38 -125 -161.5 -214t-279.5 -89z
M404 1151l216 324h290l-302 -324h-204z" />
    <glyph glyph-name="Cdotaccent" unicode="&#x10a;" horiz-adv-x="1362" 
d="M734 -31q-144 0 -266.5 49.5t-210.5 140t-138 225t-50 296.5q0 323 184 516t481 193q182 0 319.5 -90.5t206.5 -236.5l-214 -64q-122 197 -317 197q-185 0 -294 -139.5t-109 -375.5q0 -237 109.5 -376.5t293.5 -139.5q116 0 208.5 63t136.5 161l224 -63
q-58 -129 -184 -232q-70 -57 -169 -90.5t-211 -33.5zM596 1530v221h258v-221h-258z" />
    <glyph glyph-name="cdotaccent" unicode="&#x10b;" horiz-adv-x="1035" 
d="M551 -31q-226 0 -366 144t-140 382q0 237 140.5 382t365.5 145q155 0 269 -86.5t145 -207.5l-206 -52q-23 69 -79 114.5t-128 45.5q-120 0 -190.5 -95.5t-70.5 -245.5q0 -158 72.5 -249t188.5 -91q80 0 144 50.5t89 121.5l207 -55q-38 -125 -161.5 -214t-279.5 -89z
M410 1203v221h260v-221h-260z" />
    <glyph glyph-name="Ccaron" unicode="&#x10c;" horiz-adv-x="1362" 
d="M734 -31q-144 0 -266.5 49.5t-210.5 140t-138 225t-50 296.5q0 323 184 516t481 193q182 0 319.5 -90.5t206.5 -236.5l-214 -64q-122 197 -317 197q-185 0 -294 -139.5t-109 -375.5q0 -237 109.5 -376.5t293.5 -139.5q116 0 208.5 63t136.5 161l224 -63
q-58 -129 -184 -232q-70 -57 -169 -90.5t-211 -33.5zM311 1794h235l174 -188l183 188h232l-312 -303h-208z" />
    <glyph glyph-name="ccaron" unicode="&#x10d;" horiz-adv-x="1035" 
d="M551 -31q-226 0 -366 144t-140 382q0 237 140.5 382t365.5 145q155 0 269 -86.5t145 -207.5l-206 -52q-23 69 -79 114.5t-128 45.5q-120 0 -190.5 -95.5t-70.5 -245.5q0 -158 72.5 -249t188.5 -91q80 0 144 50.5t89 121.5l207 -55q-38 -125 -161.5 -214t-279.5 -89z
M129 1454h236l174 -189l182 189h232l-312 -303h-206z" />
    <glyph glyph-name="Dcaron" unicode="&#x10e;" horiz-adv-x="1316" 
d="M96 0v1358h444q340 0 523 -175.5t183 -502.5q0 -232 -97 -393q-53 -89 -132 -150q-173 -137 -479 -137h-442zM146 1794h235l174 -188l180 188h234l-312 -303h-207zM345 190h164q478 0 478 490q0 253 -122 369.5t-352 116.5h-168v-976z" />
    <glyph glyph-name="dcaron" unicode="&#x10f;" horiz-adv-x="1563" 
d="M508 -31q-174 0 -312 120q-70 61 -110.5 167t-40.5 241q0 240 130 382.5t336 142.5q92 0 163.5 -40t110.5 -101v522h240v-1403h-231v128q-37 -67 -116.5 -113t-169.5 -46zM291 497q0 -160 69 -251t182 -91q111 0 179.5 92.5t68.5 249.5q0 154 -67 246.5t-181 92.5
q-117 0 -184 -92t-67 -247zM1069 1006l97 376h249l-177 -376h-169z" />
    <glyph glyph-name="Dcroat" unicode="&#x110;" horiz-adv-x="1312" 
d="M92 0v596h-190v179h190v583h444q340 0 523 -175.5t183 -502.5q0 -232 -97 -393q-53 -89 -132 -150q-173 -137 -479 -137h-442zM341 190h164q478 0 478 490q0 253 -122 369.5t-352 116.5h-168v-391h337v-179h-337v-406z" />
    <glyph glyph-name="dcroat" unicode="&#x111;" horiz-adv-x="1064" 
d="M506 -31q-96 0 -179 34t-146 97.5t-99.5 163.5t-36.5 224q0 240 129.5 377.5t331.5 137.5q93 0 169 -38.5t110 -97.5v229h-418v166h418v141h240v-141h118v-166h-118v-1096h-233v128q-41 -71 -117 -115t-169 -44zM291 488q0 -156 69 -244.5t182 -88.5q111 0 179.5 91
t68.5 242q0 147 -69 238t-182 91q-109 0 -178.5 -90.5t-69.5 -238.5z" />
    <glyph glyph-name="Emacron" unicode="&#x112;" horiz-adv-x="1181" 
d="M96 0v1358h981v-194h-732v-367h661v-191h-661v-414h751v-192h-1000zM217 1543v148h731v-148h-731z" />
    <glyph glyph-name="emacron" unicode="&#x113;" horiz-adv-x="1091" 
d="M563 -31q-230 0 -374 145t-144 386q0 236 143.5 379t366.5 143q216 0 355.5 -143t139.5 -370q0 -45 -6 -89h-757q0 -116 77 -196t202 -80q90 0 160 39t107 105l200 -61q-56 -116 -177.5 -187t-292.5 -71zM185 1208v150h729v-150h-729zM291 573h515q0 117 -68 195t-183 78
q-117 0 -190 -79.5t-74 -193.5z" />
    <glyph glyph-name="Edotaccent" unicode="&#x116;" horiz-adv-x="1181" 
d="M96 0v1358h981v-194h-732v-367h661v-191h-661v-414h751v-192h-1000zM455 1530v221h259v-221h-259z" />
    <glyph glyph-name="edotaccent" unicode="&#x117;" horiz-adv-x="1091" 
d="M563 -31q-230 0 -374 145t-144 386q0 236 143.5 379t366.5 143q216 0 355.5 -143t139.5 -370q0 -45 -6 -89h-757q0 -116 77 -196t202 -80q90 0 160 39t107 105l200 -61q-56 -116 -177.5 -187t-292.5 -71zM291 573h515q0 117 -68 195t-183 78q-117 0 -190 -79.5
t-74 -193.5zM419 1203v221h259v-221h-259z" />
    <glyph glyph-name="Eogonek" unicode="&#x118;" horiz-adv-x="1156" 
d="M96 0v1358h981v-194h-732v-367h661v-191h-661v-414h751v-192h-212q-91 -46 -149.5 -96.5t-58.5 -90.5q0 -63 80 -63q44 0 123 19v-138q-72 -22 -175 -22q-113 0 -177.5 44t-64.5 119q0 64 55 123.5t139 104.5h-560z" />
    <glyph glyph-name="eogonek" unicode="&#x119;" horiz-adv-x="1091" 
d="M570 -390q-113 0 -177 44t-64 120q0 106 148 201q-196 27 -314 167.5t-118 357.5q0 236 143.5 379t366.5 143q216 0 355.5 -143t139.5 -370q0 -45 -6 -89h-757q0 -116 77 -196t202 -80q90 0 160 39t107 105l200 -61q-42 -86 -121.5 -149t-189.5 -91q-80 -44 -130 -89.5
t-50 -82.5q0 -64 79 -64q46 0 125 19v-138q-73 -22 -176 -22zM291 573h515q0 117 -68 195t-183 78q-117 0 -190 -79.5t-74 -193.5z" />
    <glyph glyph-name="Ecaron" unicode="&#x11a;" horiz-adv-x="1181" 
d="M96 0v1358h981v-194h-732v-367h661v-191h-661v-414h751v-192h-1000zM177 1794h234l174 -188l181 188h234l-313 -303h-206z" />
    <glyph glyph-name="ecaron" unicode="&#x11b;" horiz-adv-x="1091" 
d="M563 -31q-230 0 -374 145t-144 386q0 236 143.5 379t366.5 143q216 0 355.5 -143t139.5 -370q0 -45 -6 -89h-757q0 -116 77 -196t202 -80q90 0 160 39t107 105l200 -61q-56 -116 -177.5 -187t-292.5 -71zM140 1454h235l176 -189l181 189h233l-313 -303h-207zM291 573h515
q0 117 -68 195t-183 78q-117 0 -190 -79.5t-74 -193.5z" />
    <glyph glyph-name="Gbreve" unicode="&#x11e;" horiz-adv-x="1403" 
d="M728 -31q-141 0 -262.5 51t-209 142t-137.5 225t-50 293q0 207 82.5 367.5t237 251t356.5 90.5q112 0 210.5 -33t164.5 -89q115 -98 167 -201l-213 -65q-44 58 -75 92q-37 40 -106.5 71t-145.5 31q-196 0 -308.5 -139.5t-112.5 -375.5t112.5 -376t296.5 -140
q153 0 244 80.5t103 210.5q6 77 6 111h-368v193h610v-759h-172l-23 140q-123 -171 -407 -171zM391 1772h179q5 -61 48.5 -100t113.5 -39t114.5 39t50.5 100h177q-3 -55 -24.5 -104.5t-62 -89.5t-106.5 -63.5t-149 -23.5q-182 0 -264 97q-72 85 -77 184z" />
    <glyph glyph-name="gbreve" unicode="&#x11f;" horiz-adv-x="1095" 
d="M513 -412q-275 0 -426 192l159 101q109 -118 270 -118q105 0 173 72t73 190q5 75 5 112q-38 -55 -109.5 -91.5t-151.5 -36.5q-207 0 -334 138t-127 365q0 229 126 369.5t326 140.5q93 0 164.5 -43t103.5 -103v116h239v-855q0 -279 -121 -414t-370 -135zM185 1430h178
q6 -61 50.5 -99.5t112.5 -38.5q69 0 114 39.5t51 98.5h177q-6 -118 -92.5 -199.5t-249.5 -81.5q-88 0 -157 26.5t-107 71.5q-76 89 -77 183zM288 515q0 -151 65 -236t175 -85q109 0 171.5 83.5t62.5 237.5q0 151 -62.5 236t-168.5 85q-111 0 -177 -87.5t-66 -233.5z" />
    <glyph glyph-name="Gdotaccent" unicode="&#x120;" horiz-adv-x="1403" 
d="M728 -31q-141 0 -262.5 51t-209 142t-137.5 225t-50 293q0 207 82.5 367.5t237 251t356.5 90.5q112 0 210.5 -33t164.5 -89q115 -98 167 -201l-213 -65q-44 58 -75 92q-37 40 -106.5 71t-145.5 31q-196 0 -308.5 -139.5t-112.5 -375.5t112.5 -376t296.5 -140
q153 0 244 80.5t103 210.5q6 77 6 111h-368v193h610v-759h-172l-23 140q-123 -171 -407 -171zM621 1530v221h259v-221h-259z" />
    <glyph glyph-name="gdotaccent" unicode="&#x121;" horiz-adv-x="1095" 
d="M513 -412q-275 0 -426 192l159 101q109 -118 270 -118q105 0 173 72t73 190q5 75 5 112q-38 -55 -109.5 -91.5t-151.5 -36.5q-207 0 -334 138t-127 365q0 229 126 369.5t326 140.5q93 0 164.5 -43t103.5 -103v116h239v-855q0 -279 -121 -414t-370 -135zM288 515
q0 -151 65 -236t175 -85q109 0 171.5 83.5t62.5 237.5q0 151 -62.5 236t-168.5 85q-111 0 -177 -87.5t-66 -233.5zM412 1203v221h260v-221h-260z" />
    <glyph glyph-name="uni0122" unicode="&#x122;" horiz-adv-x="1403" 
d="M728 -31q-141 0 -262.5 51t-209 142t-137.5 225t-50 293q0 207 82.5 367.5t237 251t356.5 90.5q112 0 210.5 -33t164.5 -89q115 -98 167 -201l-213 -65q-44 58 -75 92q-37 40 -106.5 71t-145.5 31q-196 0 -308.5 -139.5t-112.5 -375.5t112.5 -376t296.5 -140
q153 0 244 80.5t103 210.5q6 77 6 111h-368v193h610v-759h-172l-23 140q-123 -171 -407 -171zM575 -464l88 355h260l-182 -355h-166z" />
    <glyph glyph-name="uni0123" unicode="&#x123;" horiz-adv-x="1095" 
d="M511 -412q-131 0 -243 50t-183 142l158 101q108 -118 273 -118q107 0 172 70.5t73 189.5q6 102 6 114q-37 -57 -108.5 -92.5t-152.5 -35.5q-207 0 -334 138.5t-127 367.5q0 228 126 366.5t324 138.5q96 0 167 -42t103 -102v116h239v-855q0 -279 -121 -414t-372 -135z
M288 515q0 -150 66 -235.5t172 -85.5q111 0 173.5 83t62.5 238q0 152 -63 236.5t-171 84.5q-109 0 -174.5 -86t-65.5 -235zM394 1154l184 350h163l-87 -350h-260z" />
    <glyph glyph-name="Hbar" unicode="&#x126;" horiz-adv-x="1479" 
d="M189 0v1008h-150v179h150v171h247v-171h606v171h248v-171h150v-179h-150v-1008h-248v603h-606v-603h-247zM436 794h606v214h-606v-214z" />
    <glyph glyph-name="hbar" unicode="&#x127;" horiz-adv-x="995" 
d="M14 0v1098h-135v164h135v141h236v-141h398v-164h-398v-253h1q45 57 122 94.5t163 37.5q136 0 240 -73q59 -42 93.5 -122.5t34.5 -188.5v-593h-242v566q0 224 -172 224q-100 0 -170 -79.5t-70 -188.5v-522h-236z" />
    <glyph glyph-name="Imacron" unicode="&#x12a;" horiz-adv-x="524" 
d="M140 0v1358h249v-1358h-249zM-100 1539v149h727v-149h-727z" />
    <glyph glyph-name="imacron" unicode="&#x12b;" horiz-adv-x="511" 
d="M132 0v992h238v-992h-238zM-109 1208v150h729v-150h-729z" />
    <glyph glyph-name="Iogonek" unicode="&#x12e;" horiz-adv-x="531" 
d="M262 -388q-113 0 -177 44.5t-64 119.5q0 64 53.5 122.5t136.5 103.5v1356h249v-1358h-26q-89 -48 -144 -96.5t-55 -87.5q0 -63 78 -63q46 0 125 19v-138q-73 -22 -176 -22z" />
    <glyph glyph-name="iogonek" unicode="&#x12f;" horiz-adv-x="509" 
d="M207 -388q-115 0 -179.5 44.5t-64.5 119.5q0 65 56 125t142 104v987h236v-992h-18q-90 -48 -145.5 -96.5t-55.5 -87.5q0 -63 79 -63q46 0 122 19v-138q-70 -22 -172 -22zM150 1139v238h257v-238h-257z" />
    <glyph glyph-name="Idotaccent" unicode="&#x130;" horiz-adv-x="432" 
d="M96 0v1358h249v-1358h-249zM87 1530v221h261v-221h-261z" />
    <glyph glyph-name="dotlessi" unicode="&#x131;" horiz-adv-x="420" 
d="M91 0v992h238v-992h-238z" />
    <glyph glyph-name="IJ" unicode="&#x132;" horiz-adv-x="1547" 
d="M948 -31q-164 0 -272 79t-147 205l205 76q25 -75 79.5 -120t130.5 -45q94 0 145 65t51 187v942h250v-972q0 -199 -114.5 -308t-327.5 -109zM170 0v1358h249v-1358h-249z" />
    <glyph glyph-name="ij" unicode="&#x133;" horiz-adv-x="1105" 
d="M529 -390v185h37q150 0 150 192v1005h240v-1012q0 -184 -89 -277t-260 -93h-78zM145 1139v238h257v-238h-257zM156 0v992h236v-992h-236zM704 1139v238h262v-238h-262z" />
    <glyph glyph-name="uni0136" unicode="&#x136;" horiz-adv-x="1257" 
d="M96 0v1358h249v-615h4l581 615h316l-580 -593l595 -765h-301l-451 605l-164 -171v-434h-249zM419 -420l88 355h259l-181 -355h-166z" />
    <glyph glyph-name="uni0137" unicode="&#x137;" horiz-adv-x="1016" 
d="M91 0v1403h238v-807l388 396h302l-404 -405l428 -587h-281l-303 434l-130 -130v-304h-238zM331 -420l88 355h260l-182 -355h-166z" />
    <glyph glyph-name="Lacute" unicode="&#x139;" horiz-adv-x="1070" 
d="M96 0v1358h249v-1166h678v-192h-927zM103 1475l215 325h290l-303 -325h-202z" />
    <glyph glyph-name="lacute" unicode="&#x13a;" horiz-adv-x="533" 
d="M127 0v1403h239v-1403h-239zM91 1475l216 325h288l-303 -325h-201z" />
    <glyph glyph-name="uni013B" unicode="&#x13b;" horiz-adv-x="1070" 
d="M96 0v1358h249v-1166h678v-192h-927zM354 -464l90 355h259l-183 -355h-166z" />
    <glyph glyph-name="uni013C" unicode="&#x13c;" horiz-adv-x="453" 
d="M112 0v1403h239v-1403h-239zM13 -464l90 355h259l-182 -355h-167z" />
    <glyph glyph-name="Lcaron" unicode="&#x13d;" horiz-adv-x="1528" 
d="M96 0v1358h249v-1166h678v-192h-927zM558 983l96 375h248l-176 -375h-168z" />
    <glyph glyph-name="lcaron" unicode="&#x13e;" horiz-adv-x="873" 
d="M91 0v1403h239v-1403h-239zM395 1006l98 376h248l-177 -376h-169z" />
    <glyph glyph-name="Lslash" unicode="&#x141;" horiz-adv-x="1231" 
d="M284 0v483l-174 -100l-114 165l288 162v648h249v-507l210 121l114 -165l-324 -185v-430h678v-192h-927z" />
    <glyph glyph-name="lslash" unicode="&#x142;" horiz-adv-x="708" 
d="M235 0v522l-171 -94l-113 167l284 155v653h240v-522l171 93l109 -167l-280 -156v-651h-240z" />
    <glyph glyph-name="Nacute" unicode="&#x143;" horiz-adv-x="1303" 
d="M519 1491l216 325h290l-303 -325h-203zM96 0v1358h260l601 -992v992h250v-1358h-262l-600 982v-982h-249z" />
    <glyph glyph-name="nacute" unicode="&#x144;" horiz-adv-x="1076" 
d="M91 0v992h234v-127h1q32 63 112 110t191 47q170 0 263 -94.5t93 -290.5v-637h-242v608q0 228 -169 228q-104 0 -173.5 -75.5t-69.5 -187.5v-573h-240zM364 1151l215 324h291l-303 -324h-203z" />
    <glyph glyph-name="uni0145" unicode="&#x145;" horiz-adv-x="1303" 
d="M466 -464l89 355h261l-183 -355h-167zM96 0v1358h260l601 -992v992h250v-1358h-262l-600 982v-982h-249z" />
    <glyph glyph-name="uni0146" unicode="&#x146;" horiz-adv-x="1076" 
d="M91 0v992h234v-127h1q32 63 112 110t191 47q170 0 263 -94.5t93 -290.5v-637h-242v608q0 228 -169 228q-104 0 -173.5 -75.5t-69.5 -187.5v-573h-240zM368 -464l89 355h259l-181 -355h-167z" />
    <glyph glyph-name="Ncaron" unicode="&#x147;" horiz-adv-x="1303" 
d="M246 1794h235l174 -188l182 188h233l-311 -303h-208zM96 0v1358h260l601 -992v992h250v-1358h-262l-600 982v-982h-249z" />
    <glyph glyph-name="ncaron" unicode="&#x148;" horiz-adv-x="1076" 
d="M91 0v992h234v-127h1q32 63 112 110t191 47q170 0 263 -94.5t93 -290.5v-637h-242v608q0 228 -169 228q-104 0 -173.5 -75.5t-69.5 -187.5v-573h-240zM142 1454h235l173 -189l183 189h232l-311 -303h-207z" />
    <glyph glyph-name="Omacron" unicode="&#x14c;" horiz-adv-x="1424" 
d="M714 -31q-293 0 -469 194t-176 515t176 516t469 195q291 0 465.5 -194.5t174.5 -516.5q0 -320 -176 -514.5t-464 -194.5zM326 678q0 -238 104 -376t284 -138q178 0 281 137.5t103 376.5t-102.5 378t-281.5 139q-180 0 -284 -139.5t-104 -377.5zM342 1539v149h729v-149
h-729z" />
    <glyph glyph-name="omacron" unicode="&#x14d;" horiz-adv-x="1101" 
d="M551 -31q-109 0 -199 33t-149 87q-158 147 -158 406q0 150 56 267.5t172.5 188.5t277.5 71q159 0 275 -71t172.5 -188.5t56.5 -267.5q0 -147 -66 -278q-61 -122 -173 -185t-265 -63zM185 1206v149h729v-149h-729zM291 495q0 -164 74 -252t186 -88q109 0 183.5 88.5
t74.5 251.5q0 165 -74.5 253t-183.5 88q-110 0 -185 -88t-75 -253z" />
    <glyph glyph-name="Ohungarumlaut" unicode="&#x150;" horiz-adv-x="1424" 
d="M714 -31q-293 0 -469 194t-176 515t176 516t469 195q291 0 465.5 -194.5t174.5 -516.5q0 -320 -176 -514.5t-464 -194.5zM326 678q0 -238 104 -376t284 -138q178 0 281 137.5t103 376.5t-102.5 378t-281.5 139q-180 0 -284 -139.5t-104 -377.5zM374 1493l205 339h267
l-268 -339h-204zM734 1493l205 339h267l-269 -339h-203z" />
    <glyph glyph-name="ohungarumlaut" unicode="&#x151;" horiz-adv-x="1107" 
d="M551 -31q-109 0 -199 33t-149 87q-158 147 -158 406q0 150 56 267.5t172.5 188.5t277.5 71q159 0 275 -71t172.5 -188.5t56.5 -267.5q0 -147 -66 -278q-61 -122 -173 -185t-265 -63zM230 1151l207 340h265l-267 -340h-205zM291 495q0 -164 74 -252t186 -88
q109 0 183.5 88.5t74.5 251.5q0 165 -74.5 253t-183.5 88q-110 0 -185 -88t-75 -253zM590 1151l207 340h264l-267 -340h-204z" />
    <glyph glyph-name="OE" unicode="&#x152;" horiz-adv-x="1998" 
d="M722 -31q-296 0 -474.5 194t-178.5 515t180 516t473 195q131 0 211 -31h960v-194h-723v-367h651v-191h-651v-414h744v-192h-977q-99 -31 -215 -31zM326 678q0 -236 108 -376.5t288 -140.5q113 0 199 62v908q-80 64 -199 64q-183 0 -289.5 -140t-106.5 -377z" />
    <glyph glyph-name="oe" unicode="&#x153;" horiz-adv-x="1852" 
d="M551 -31q-109 0 -199 33t-149 87q-158 147 -158 406q0 150 56 267.5t172.5 188.5t277.5 71q243 0 381 -159q69 77 168 119t216 42q216 0 355.5 -143t139.5 -371q0 -43 -6 -88h-754q0 -4 -2 -14q5 -111 81 -186.5t198 -75.5q88 0 158 39.5t108 104.5l201 -62
q-56 -116 -177.5 -186.5t-292.5 -70.5q-247 0 -391 161q-133 -163 -383 -163zM291 495q0 -164 74 -252t186 -88q101 0 174 77.5t83 221.5q-2 32 -2 48q0 27 1 40q-11 143 -83.5 218.5t-172.5 75.5q-110 0 -185 -88t-75 -253zM1052 575h516q0 117 -68.5 195t-183.5 78
q-116 0 -188.5 -79.5t-75.5 -193.5z" />
    <glyph glyph-name="Racute" unicode="&#x154;" horiz-adv-x="1269" 
d="M96 0v1355h594q222 0 355 -113t133 -291q0 -188 -140 -300q92 -93 107 -280q8 -95 13.5 -131t29.5 -97.5t74 -142.5h-278q-44 66 -58.5 130.5t-30.5 227.5q-5 70 -22 106.5t-64.5 56t-136.5 19.5h-329v-540h-247zM345 719h306q130 0 201 57.5t71 167.5q0 107 -70 163.5
t-205 56.5h-303v-445zM391 1491l215 325h291l-303 -325h-203z" />
    <glyph glyph-name="racute" unicode="&#x155;" horiz-adv-x="743" 
d="M91 0v992h231v-108q39 60 107.5 99t155.5 39q89 0 142 -22v-197q-70 19 -142 19q-121 0 -187.5 -85t-66.5 -231v-506h-240zM235 1151l216 324h290l-302 -324h-204z" />
    <glyph glyph-name="uni0156" unicode="&#x156;" horiz-adv-x="1269" 
d="M96 0v1355h594q222 0 355 -113t133 -291q0 -188 -140 -300q92 -93 107 -280q8 -95 13.5 -131t29.5 -97.5t74 -142.5h-278q-44 66 -58.5 130.5t-30.5 227.5q-5 70 -22 106.5t-64.5 56t-136.5 19.5h-329v-540h-247zM345 719h306q130 0 201 57.5t71 167.5q0 107 -70 163.5
t-205 56.5h-303v-445zM448 -464l89 355h258l-181 -355h-166z" />
    <glyph glyph-name="uni0157" unicode="&#x157;" horiz-adv-x="729" 
d="M93 0v992h229v-108q40 60 108 99t156 39q87 0 141 -22v-197q-69 19 -141 19q-122 0 -187.5 -84.5t-65.5 -231.5v-506h-240zM15 -464l90 355h260l-183 -355h-167z" />
    <glyph glyph-name="Rcaron" unicode="&#x158;" horiz-adv-x="1269" 
d="M96 0v1355h594q222 0 355 -113t133 -291q0 -188 -140 -300q92 -93 107 -280q8 -95 13.5 -131t29.5 -97.5t74 -142.5h-278q-44 66 -58.5 130.5t-30.5 227.5q-5 70 -22 106.5t-64.5 56t-136.5 19.5h-329v-540h-247zM165 1794h234l174 -188l183 188h232l-312 -303h-206z
M345 719h306q130 0 201 57.5t71 167.5q0 107 -70 163.5t-205 56.5h-303v-445z" />
    <glyph glyph-name="rcaron" unicode="&#x159;" horiz-adv-x="775" 
d="M125 0v992h229v-108q40 60 108 99t156 39q87 0 141 -22v-197q-69 19 -141 19q-122 0 -187.5 -84.5t-65.5 -231.5v-506h-240zM14 1454h237l174 -189l182 189h232l-313 -303h-206z" />
    <glyph glyph-name="Sacute" unicode="&#x15a;" horiz-adv-x="1225" 
d="M637 -31q-204 0 -359 86t-230 235l220 68q54 -88 154.5 -141t219.5 -53q126 0 201.5 54t75.5 143q0 88 -74 140t-241 104q-223 66 -299 105q-204 105 -204 305q0 168 146 271t382 103q187 0 326 -79.5t204 -210.5l-212 -64q-120 160 -321 160q-122 0 -194.5 -49.5
t-72.5 -130.5q0 -56 29 -85q3 -3 9.5 -11t9.5 -10.5t8.5 -8.5t9 -9t9.5 -7.5t12.5 -8t14.5 -7.5q56 -29 108 -47q56 -18 60 -19q128 -37 133 -39q173 -52 284 -130q131 -95 131 -264q0 -187 -148.5 -293.5t-391.5 -106.5zM464 1491l216 325h291l-303 -325h-204z" />
    <glyph glyph-name="sacute" unicode="&#x15b;" horiz-adv-x="983" 
d="M515 -31q-158 0 -283 63t-191 175l171 90q114 -151 297 -151q89 0 140.5 31.5t51.5 85.5q0 42 -42 75q-28 21 -62.5 37t-62 24.5t-107.5 31.5q-25 7 -26 7q-122 37 -210 94q-105 65 -105 201q0 128 120 208.5t303 80.5q132 0 252.5 -64t177.5 -164l-158 -88
q-112 139 -271 139q-86 0 -132.5 -31t-46.5 -84q0 -43 41 -76q35 -29 72.5 -44.5t109.5 -38.5q5 -1 8 -2l7.5 -2.5t8.5 -2.5q26 -6 31 -7q336 -99 336 -296q0 -125 -115.5 -208.5t-314.5 -83.5zM317 1151l216 324h291l-304 -324h-203z" />
    <glyph glyph-name="Scedilla" unicode="&#x15e;" horiz-adv-x="1225" 
d="M578 -409q-88 0 -189 23v136q109 -21 181 -21q52 0 91.5 17.5t39.5 51.5q0 63 -217 63l33 116q-162 23 -284 104.5t-185 208.5l220 68q54 -88 154.5 -141t219.5 -53q126 0 201.5 54t75.5 143q0 88 -74 140t-241 104q-223 66 -299 105q-204 105 -204 305q0 168 146 271
t382 103q187 0 326 -79.5t204 -210.5l-212 -64q-120 160 -321 160q-122 0 -194.5 -49.5t-72.5 -130.5q0 -56 29 -85q3 -3 9.5 -11t9.5 -10.5t8.5 -8.5t9 -9t9.5 -7.5t12.5 -8t14.5 -7.5q56 -29 108 -47q56 -18 60 -19q128 -37 133 -39q173 -52 284 -130q131 -95 131 -264
q0 -168 -121.5 -272t-326.5 -124l-12 -37q82 -12 127.5 -52.5t45.5 -101.5q0 -82 -80 -136.5t-232 -54.5z" />
    <glyph glyph-name="scedilla" unicode="&#x15f;" horiz-adv-x="983" 
d="M434 -409q-86 0 -186 23v136q110 -21 179 -21q53 0 92.5 17.5t39.5 51.5q0 63 -217 63l34 122q-111 22 -197.5 80t-137.5 144l171 90q114 -151 297 -151q89 0 140.5 31.5t51.5 85.5q0 42 -42 75q-28 21 -62.5 37t-62 24.5t-107.5 31.5q-25 7 -26 7q-122 37 -210 94
q-105 65 -105 201q0 128 120 208.5t303 80.5q132 0 252.5 -64t177.5 -164l-158 -88q-112 139 -271 139q-86 0 -132.5 -31t-46.5 -84q0 -43 41 -76q35 -29 72.5 -44.5t109.5 -38.5q5 -1 8 -2l7.5 -2.5t8.5 -2.5q26 -6 31 -7q336 -99 336 -296q0 -113 -96 -193.5t-264 -95.5
l-11 -36q82 -12 128.5 -52.5t46.5 -101.5q0 -83 -80.5 -137t-234.5 -54z" />
    <glyph glyph-name="Scaron" unicode="&#x160;" horiz-adv-x="1225" 
d="M637 -31q-204 0 -359 86t-230 235l220 68q54 -88 154.5 -141t219.5 -53q126 0 201.5 54t75.5 143q0 88 -74 140t-241 104q-223 66 -299 105q-204 105 -204 305q0 168 146 271t382 103q187 0 326 -79.5t204 -210.5l-212 -64q-120 160 -321 160q-122 0 -194.5 -49.5
t-72.5 -130.5q0 -56 29 -85q3 -3 9.5 -11t9.5 -10.5t8.5 -8.5t9 -9t9.5 -7.5t12.5 -8t14.5 -7.5q56 -29 108 -47q56 -18 60 -19q128 -37 133 -39q173 -52 284 -130q131 -95 131 -264q0 -187 -148.5 -293.5t-391.5 -106.5zM224 1794h235l176 -188l180 188h234l-313 -303h-207
z" />
    <glyph glyph-name="scaron" unicode="&#x161;" horiz-adv-x="983" 
d="M515 -31q-158 0 -283 63t-191 175l171 90q114 -151 297 -151q89 0 140.5 31.5t51.5 85.5q0 42 -42 75q-28 21 -62.5 37t-62 24.5t-107.5 31.5q-25 7 -26 7q-122 37 -210 94q-105 65 -105 201q0 128 120 208.5t303 80.5q132 0 252.5 -64t177.5 -164l-158 -88
q-112 139 -271 139q-86 0 -132.5 -31t-46.5 -84q0 -43 41 -76q35 -29 72.5 -44.5t109.5 -38.5q5 -1 8 -2l7.5 -2.5t8.5 -2.5q26 -6 31 -7q336 -99 336 -296q0 -125 -115.5 -208.5t-314.5 -83.5zM90 1454h235l174 -189l181 189h233l-311 -303h-207z" />
    <glyph glyph-name="uni0162" unicode="&#x162;" horiz-adv-x="1194" 
d="M473 0v1164h-434v194h1116v-194h-434v-1164h-31l-20 -64q82 -12 129 -53t47 -101q0 -82 -81.5 -136.5t-233.5 -54.5q-87 0 -188 23v136q109 -21 180 -21q53 0 93.5 17.5t40.5 51.5q0 63 -219 63l40 139h-5z" />
    <glyph glyph-name="uni0163" unicode="&#x163;" horiz-adv-x="692" 
d="M399 -401q-96 0 -180 18v134q89 -16 170 -16q124 0 124 64q0 62 -212 71l44 157q-165 63 -165 276v503h-169v186h169v292h238v-292h252v-186h-252v-488q0 -70 31 -101t96 -31h126v-186h-120l-17 -57q81 -13 124.5 -54t43.5 -104q0 -81 -76 -133.5t-227 -52.5z" />
    <glyph glyph-name="Tcaron" unicode="&#x164;" horiz-adv-x="1194" 
d="M473 0v1164h-434v194h1116v-194h-434v-1164h-248zM180 1794h236l173 -188l182 188h233l-313 -303h-205z" />
    <glyph glyph-name="tcaron" unicode="&#x165;" horiz-adv-x="1306" 
d="M514 0q-334 0 -334 303v503h-169v186h169v292h238v-292h252v-186h-252v-488q0 -70 31 -101t96 -31h126v-186h-157zM481 1051l97 376h247l-176 -376h-168z" />
    <glyph glyph-name="Umacron" unicode="&#x16a;" horiz-adv-x="1300" 
d="M649 -31q-267 0 -410 136.5t-143 403.5v849h251v-849q0 -171 79 -258t223 -87q147 0 226 88.5t79 256.5v849h250v-849q0 -262 -141 -401t-414 -139zM288 1539v149h729v-149h-729z" />
    <glyph glyph-name="umacron" unicode="&#x16b;" horiz-adv-x="1068" 
d="M457 -31q-135 0 -243 77q-58 41 -90.5 122t-32.5 191v633h240v-606q0 -231 178 -231q105 0 167.5 81t62.5 200v556h238v-992h-229v115h-3q-30 -59 -107 -102.5t-181 -43.5zM157 1206v149h731v-149h-731z" />
    <glyph glyph-name="Uring" unicode="&#x16e;" horiz-adv-x="1300" 
d="M649 -31q-267 0 -410 136.5t-143 403.5v849h251v-849q0 -171 79 -258t223 -87q147 0 226 88.5t79 256.5v849h250v-849q0 -262 -141 -401t-414 -139zM357 1656q0 107 83.5 183t210.5 76t211 -76.5t84 -182.5q0 -110 -86 -185.5t-209 -75.5t-208.5 75t-85.5 186zM521 1656
q0 -51 36.5 -85t93.5 -34q55 0 90.5 32.5t35.5 86.5q0 49 -36 83.5t-90 34.5t-92 -35t-38 -83z" />
    <glyph glyph-name="uring" unicode="&#x16f;" horiz-adv-x="1068" 
d="M457 -31q-135 0 -243 77q-58 41 -90.5 122t-32.5 191v633h240v-606q0 -231 178 -231q105 0 167.5 81t62.5 200v556h238v-992h-229v115h-3q-30 -59 -107 -102.5t-181 -43.5zM239 1364q0 107 84.5 183t211.5 76q128 0 212 -76t84 -183q0 -110 -86.5 -185.5t-209.5 -75.5
t-209.5 75t-86.5 186zM403 1364q0 -51 37.5 -85t94.5 -34q55 0 90.5 33t35.5 86q0 50 -36 84t-90 34q-55 0 -93.5 -35t-38.5 -83z" />
    <glyph glyph-name="Uhungarumlaut" unicode="&#x170;" horiz-adv-x="1300" 
d="M649 -31q-267 0 -410 136.5t-143 403.5v849h251v-849q0 -171 79 -258t223 -87q147 0 226 88.5t79 256.5v849h250v-849q0 -262 -141 -401t-414 -139zM314 1493l207 339h265l-268 -339h-204zM674 1493l208 339h264l-267 -339h-205z" />
    <glyph glyph-name="uhungarumlaut" unicode="&#x171;" horiz-adv-x="1089" 
d="M457 -31q-135 0 -243 77q-58 41 -90.5 122t-32.5 191v633h240v-606q0 -231 178 -231q105 0 167.5 81t62.5 200v556h238v-992h-229v115h-3q-30 -59 -107 -102.5t-181 -43.5zM201 1151l207 340h265l-267 -340h-205zM561 1151l207 340h265l-267 -340h-205z" />
    <glyph glyph-name="Uogonek" unicode="&#x172;" horiz-adv-x="1300" 
d="M655 -390q-114 0 -177.5 44t-63.5 120q0 107 144 199q-224 23 -343 158t-119 378v849h251v-849q0 -171 79 -258t223 -87q147 0 226 88.5t79 256.5v849h250v-849q0 -224 -103.5 -359t-305.5 -169q-75 -43 -121 -87t-46 -79q0 -64 78 -64q45 0 122 19v-138
q-70 -22 -173 -22z" />
    <glyph glyph-name="uogonek" unicode="&#x173;" horiz-adv-x="1043" 
d="M457 -31q-135 0 -243 77q-58 41 -90.5 122t-32.5 191v633h240v-606q0 -231 178 -231q105 0 167.5 81t62.5 200v556h238v-992h-18q-89 -48 -145 -96.5t-56 -87.5q0 -63 79 -63q47 0 124 19v-138q-72 -22 -175 -22q-113 0 -177 44.5t-64 119.5q0 66 58 127t145 105v107h-3
q-30 -59 -107 -102.5t-181 -43.5z" />
    <glyph glyph-name="Wcircumflex" unicode="&#x174;" horiz-adv-x="1745" 
d="M431 1491l327 318h205l336 -318h-249l-186 205l-184 -205h-249zM5 1358h264l217 -1112h10l249 1112h252l252 -1112h10l217 1112h264l-338 -1358h-285l-241 1083h-6l-243 -1083h-282z" />
    <glyph glyph-name="wcircumflex" unicode="&#x175;" horiz-adv-x="1489" 
d="M306 1151l328 318h206l336 -318h-249l-188 204l-184 -204h-249zM6 992h258l170 -780h9l175 780h252l178 -780h8l168 780h258l-296 -992h-268l-170 756h-7l-171 -756h-267z" />
    <glyph glyph-name="Ycircumflex" unicode="&#x176;" horiz-adv-x="1308" 
d="M225 1491l327 318h205l335 -318h-247l-189 205l-183 -205h-248zM8 1358h287l355 -623h6l354 623h289l-520 -807v-551h-249v551z" />
    <glyph glyph-name="ycircumflex" unicode="&#x177;" horiz-adv-x="1038" 
d="M89 1151l329 318h206l335 -318h-249l-187 204l-184 -204h-250zM2 992h263l259 -739h8l242 739h262l-454 -1122q-58 -147 -152.5 -211.5t-239.5 -64.5h-75v183h34q87 0 140.5 34t84.5 116l37 98z" />
    <glyph glyph-name="Ydieresis" unicode="&#x178;" horiz-adv-x="1308" 
d="M308 1532v218h254v-218h-254zM8 1358h287l355 -623h6l354 623h289l-520 -807v-551h-249v551zM751 1532v218h252v-218h-252z" />
    <glyph glyph-name="Zacute" unicode="&#x179;" horiz-adv-x="1261" 
d="M78 0v166l775 998h-713v194h1022v-168l-778 -998h799v-192h-1105zM468 1491l216 325h289l-303 -325h-202z" />
    <glyph glyph-name="zacute" unicode="&#x17a;" horiz-adv-x="1064" 
d="M85 0v144l564 662h-519v186h831v-138l-567 -668h589v-186h-898zM372 1151l217 324h288l-302 -324h-203z" />
    <glyph glyph-name="Zdotaccent" unicode="&#x17b;" horiz-adv-x="1261" 
d="M78 0v166l775 998h-713v194h1022v-168l-778 -998h799v-192h-1105zM519 1530v221h259v-221h-259z" />
    <glyph glyph-name="zdotaccent" unicode="&#x17c;" horiz-adv-x="1064" 
d="M85 0v144l564 662h-519v186h831v-138l-567 -668h589v-186h-898zM415 1203v221h260v-221h-260z" />
    <glyph glyph-name="Zcaron" unicode="&#x17d;" horiz-adv-x="1261" 
d="M78 0v166l775 998h-713v194h1022v-168l-778 -998h799v-192h-1105zM242 1794h236l173 -188l183 188h233l-314 -303h-205z" />
    <glyph glyph-name="zcaron" unicode="&#x17e;" horiz-adv-x="1064" 
d="M85 0v144l564 662h-519v186h831v-138l-567 -668h589v-186h-898zM139 1454h236l173 -189l182 189h233l-311 -303h-207z" />
    <glyph glyph-name="uni018F" unicode="&#x18f;" horiz-adv-x="1440" 
d="M708 -31q-287 0 -460 191.5t-173 502.5q0 68 7 117h1015q-18 197 -123.5 306t-271.5 109q-229 0 -373 -192l-210 78q83 150 235.5 229t352.5 79q203 0 352.5 -90.5t227 -251t77.5 -371.5q0 -207 -83.5 -368.5t-232.5 -250t-340 -88.5zM340 586q0 -26 1 -32
q16 -174 111 -283.5t261 -109.5q157 0 267.5 116t118.5 309h-759z" />
    <glyph glyph-name="florin" unicode="&#x192;" horiz-adv-x="956" 
d="M227 -483q-14 0 -68 2q-32 4 -36 4h-3l-9 2l-26 9l-42 41v146q127 -13 179 -13q88 0 120.5 41t32.5 157v837h-212v189h212v101q0 151 101 229.5t264 78.5h173v-190h-169q-89 0 -116.5 -24.5t-27.5 -104.5v-90h284v-189h-284v-843q0 -184 -95.5 -283.5t-277.5 -99.5z" />
    <glyph glyph-name="uni0218" unicode="&#x218;" horiz-adv-x="1225" 
d="M637 -31q-204 0 -359 86t-230 235l220 68q54 -88 154.5 -141t219.5 -53q126 0 201.5 54t75.5 143q0 88 -74 140t-241 104q-223 66 -299 105q-204 105 -204 305q0 168 146 271t382 103q187 0 326 -79.5t204 -210.5l-212 -64q-120 160 -321 160q-122 0 -194.5 -49.5
t-72.5 -130.5q0 -56 29 -85q3 -3 9.5 -11t9.5 -10.5t8.5 -8.5t9 -9t9.5 -7.5t12.5 -8t14.5 -7.5q56 -29 108 -47q56 -18 60 -19q128 -37 133 -39q173 -52 284 -130q131 -95 131 -264q0 -187 -148.5 -293.5t-391.5 -106.5zM440 -464l89 355h259l-180 -355h-168z" />
    <glyph glyph-name="uni0219" unicode="&#x219;" horiz-adv-x="983" 
d="M515 -31q-158 0 -283 63t-191 175l171 90q114 -151 297 -151q89 0 140.5 31.5t51.5 85.5q0 42 -42 75q-28 21 -62.5 37t-62 24.5t-107.5 31.5q-25 7 -26 7q-122 37 -210 94q-105 65 -105 201q0 128 120 208.5t303 80.5q132 0 252.5 -64t177.5 -164l-158 -88
q-112 139 -271 139q-86 0 -132.5 -31t-46.5 -84q0 -43 41 -76q35 -29 72.5 -44.5t109.5 -38.5q5 -1 8 -2l7.5 -2.5t8.5 -2.5q26 -6 31 -7q336 -99 336 -296q0 -125 -115.5 -208.5t-314.5 -83.5zM307 -464l89 355h260l-182 -355h-167z" />
    <glyph glyph-name="uni021A" unicode="&#x21a;" horiz-adv-x="1194" 
d="M473 0v1164h-434v194h1116v-194h-434v-1164h-248zM375 -464l89 355h259l-180 -355h-168z" />
    <glyph glyph-name="uni021B" unicode="&#x21b;" horiz-adv-x="694" 
d="M514 0q-334 0 -334 303v503h-169v186h169v292h238v-292h252v-186h-252v-488q0 -70 31 -101t96 -31h126v-186h-157zM228 -464l89 355h259l-182 -355h-166z" />
    <glyph glyph-name="uni0237" unicode="&#x237;" horiz-adv-x="553" 
d="M-25 -394v185h39q75 0 111 46t36 146v1009h243v-1018q0 -181 -91 -274.5t-260 -93.5h-78z" />
    <glyph glyph-name="uni0259" unicode="&#x259;" horiz-adv-x="1137" 
d="M563 -31q-217 0 -356 143.5t-139 370.5q0 51 2 87h758q0 117 -77 196t-203 79q-90 0 -160 -39.5t-104 -104.5l-198 64q56 115 175.5 185t292.5 70q230 0 373 -145.5t143 -384.5q0 -236 -142.5 -378.5t-364.5 -142.5zM308 416q0 -116 69.5 -195t185.5 -79
q114 0 187.5 79.5t77.5 194.5h-520z" />
    <glyph glyph-name="Wgrave" unicode="&#x1e80;" horiz-adv-x="1745" 
d="M531 1816h289l217 -325h-203zM5 1358h264l217 -1112h10l249 1112h252l252 -1112h10l217 1112h264l-338 -1358h-285l-241 1083h-6l-243 -1083h-282z" />
    <glyph glyph-name="wgrave" unicode="&#x1e81;" horiz-adv-x="1489" 
d="M387 1473h290l215 -324h-202zM6 992h258l170 -780h9l175 780h252l178 -780h8l168 780h258l-296 -992h-268l-170 756h-7l-171 -756h-267z" />
    <glyph glyph-name="Wacute" unicode="&#x1e82;" horiz-adv-x="1745" 
d="M682 1491l218 325h288l-303 -325h-203zM5 1358h264l217 -1112h10l249 1112h252l252 -1112h10l217 1112h264l-338 -1358h-285l-241 1083h-6l-243 -1083h-282z" />
    <glyph glyph-name="wacute" unicode="&#x1e83;" horiz-adv-x="1489" 
d="M576 1149l216 324h290l-303 -324h-203zM6 992h258l170 -780h9l175 780h252l178 -780h8l168 780h258l-296 -992h-268l-170 756h-7l-171 -756h-267z" />
    <glyph glyph-name="Wdieresis" unicode="&#x1e84;" horiz-adv-x="1745" 
d="M516 1532v218h254v-218h-254zM5 1358h264l217 -1112h10l249 1112h252l252 -1112h10l217 1112h264l-338 -1358h-285l-241 1083h-6l-243 -1083h-282zM959 1532v218h253v-218h-253z" />
    <glyph glyph-name="wdieresis" unicode="&#x1e85;" horiz-adv-x="1489" 
d="M393 1203v218h253v-218h-253zM6 992h258l170 -780h9l175 780h252l178 -780h8l168 780h258l-296 -992h-268l-170 756h-7l-171 -756h-267zM836 1203v218h252v-218h-252z" />
    <glyph glyph-name="Ygrave" unicode="&#x1ef2;" horiz-adv-x="1308" 
d="M314 1814h288l217 -325h-202zM8 1358h287l355 -623h6l354 623h289l-520 -807v-551h-249v551z" />
    <glyph glyph-name="ygrave" unicode="&#x1ef3;" horiz-adv-x="1038" 
d="M159 1473h290l215 -324h-203zM2 992h263l259 -739h8l242 739h262l-454 -1122q-58 -147 -152.5 -211.5t-239.5 -64.5h-75v183h34q87 0 140.5 34t84.5 116l37 98z" />
    <glyph glyph-name="uni2010" unicode="&#x2010;" horiz-adv-x="881" 
d="M121 487v187h677v-187h-677z" />
    <glyph glyph-name="endash" unicode="&#x2013;" horiz-adv-x="1070" 
d="M0 487v187h1070v-187h-1070z" />
    <glyph glyph-name="emdash" unicode="&#x2014;" horiz-adv-x="2237" 
d="M0 487v187h2237v-187h-2237z" />
    <glyph glyph-name="uni2015" unicode="&#x2015;" horiz-adv-x="2120" 
d="M0 487v187h2120v-187h-2120z" />
    <glyph glyph-name="quoteleft" unicode="&#x2018;" horiz-adv-x="688" 
d="M132 1044q0 166 55.5 280t201.5 210l167 -119q-99 -70 -137.5 -124t-46.5 -140h111v-281h-351v174z" />
    <glyph glyph-name="quoteright" unicode="&#x2019;" horiz-adv-x="690" 
d="M132 893q100 70 138 123.5t46 139.5h-109v281h351v-175q0 -166 -56.5 -278.5t-201.5 -208.5z" />
    <glyph glyph-name="quotesinglbase" unicode="&#x201a;" horiz-adv-x="695" 
d="M132 -336q103 70 142 125.5t47 142.5h-109v280h351v-173q0 -165 -56.5 -279t-199.5 -208z" />
    <glyph glyph-name="quotereversed" unicode="&#x201b;" horiz-adv-x="688" 
d="M389 775q-146 96 -201.5 208.5t-55.5 278.5v175h351v-281h-111q8 -85 46.5 -139t137.5 -124z" />
    <glyph glyph-name="quotedblleft" unicode="&#x201c;" horiz-adv-x="1121" 
d="M132 1040q0 172 59 295.5t202 211.5l171 -120q-88 -48 -132.5 -112.5t-55.5 -164.5h110v-280h-354v170zM561 870v170q0 165 57.5 283.5t201.5 209.5l169 -116q-98 -70 -137 -125.5t-46 -141.5h108v-280h-353z" />
    <glyph glyph-name="quotedblright" unicode="&#x201d;" horiz-adv-x="1116" 
d="M560 880q96 66 135 124.5t47 151.5h-112v281h354v-169q0 -173 -59 -297.5t-203 -211.5zM132 893q99 67 136 121t44 142h-112v281h356v-169q0 -170 -57.5 -288.5t-203.5 -207.5z" />
    <glyph glyph-name="quotedblbase" unicode="&#x201e;" horiz-adv-x="1119" 
d="M556 -346q99 66 138.5 125.5t47.5 153.5h-109v279h354v-168q0 -171 -58.5 -293.5t-200.5 -212.5zM132 -335q99 69 137.5 124.5t45.5 143.5h-112v279h356v-168q0 -165 -57 -282.5t-200 -210.5z" />
    <glyph glyph-name="uni201F" unicode="&#x201f;" horiz-adv-x="1119" 
d="M396 759q-145 87 -204.5 211.5t-59.5 297.5v169h354v-281h-110q8 -93 46.5 -151.5t134.5 -124.5zM561 1268v169h353v-281h-108q7 -85 45.5 -140.5t135.5 -124.5l-166 -118q-145 89 -202.5 207t-57.5 288z" />
    <glyph glyph-name="bullet" unicode="&#x2022;" horiz-adv-x="784" 
d="M122 336v487h608v-487h-608z" />
    <glyph glyph-name="ellipsis" unicode="&#x2026;" horiz-adv-x="1999" 
d="M143 437v287h340v-287h-340zM879 437v287h338v-287h-338zM1614 437v287h338v-287h-338z" />
    <glyph glyph-name="fraction" unicode="&#x2044;" horiz-adv-x="369" 
d="M-362 -9l918 1379h174l-918 -1379h-174z" />
    <glyph glyph-name="uni20B9" unicode="&#x20b9;" horiz-adv-x="1383" 
d="M866 -73l-709 525v159h136q323 0 391 168h-637l66 190h570q-26 58 -82.5 93t-136.5 35h-424l75 190h1230l-65 -190h-426q46 -62 61 -128h430l-65 -190h-365q-28 -131 -135.5 -216.5t-278.5 -117.5l690 -518h-325z" />
    <glyph glyph-name="trademark" unicode="&#x2122;" horiz-adv-x="1224" 
d="M585 860v544h93l195 -447l195 447h96v-544h-96v353l-153 -353h-83l-154 347v-347h-93zM48 1313v91h470v-91h-186v-453h-100v453h-184z" />
    <glyph glyph-name="arrowleft" unicode="&#x2190;" horiz-adv-x="2370" 
d="M894 246l-726 366l726 365l114 -161l-148 -108h1287v-195h-1287l148 -109z" />
    <glyph glyph-name="arrowup" unicode="&#x2191;" horiz-adv-x="1453" 
d="M618 -191v1145l-152 -129l-203 81l467 576l460 -576l-190 -82l-158 130v-1145h-224z" />
    <glyph glyph-name="arrowright" unicode="&#x2192;" horiz-adv-x="2369" 
d="M1474 246l-113 158l148 109h-1287v195h1287l-148 108l113 161l726 -365z" />
    <glyph glyph-name="arrowdown" unicode="&#x2193;" horiz-adv-x="1453" 
d="M730 -268l-467 576l203 81l152 -129v1145h224v-1145l158 130l190 -82z" />
    <glyph glyph-name="arrowboth" unicode="&#x2194;" horiz-adv-x="2539" 
d="M822 247l-654 365l654 364l117 -148l-141 -120h942l-141 120l119 148l652 -364l-652 -365l-119 148l141 118h-941l140 -118z" />
    <glyph glyph-name="arrowupdn" unicode="&#x2195;" horiz-adv-x="1460" 
d="M727 -253l-462 480l170 100l182 -126v812l-182 -126l-170 99l462 480l470 -480l-174 -99l-182 126v-812l182 126l174 -100z" />
    <glyph glyph-name="uni2215" unicode="&#x2215;" horiz-adv-x="1319" 
d="M32 -295l1038 1750h240l-1041 -1750h-237z" />
    <glyph glyph-name="asteriskmath" unicode="&#x2217;" horiz-adv-x="1420" 
d="M605 93v379l-390 -221l-145 135l448 260l-448 259l145 136l392 -223v378h213v-379l394 229l131 -145l-442 -255l447 -257l-144 -140l-385 220v-376h-216z" />
    <glyph glyph-name="uniF8FF" unicode="&#xf8ff;" horiz-adv-x="1542" 
d="M758 60q-151 0 -279.5 75.5t-203 204.5t-74.5 280q0 152 75 280.5t203.5 203t280.5 74.5q151 0 279.5 -75t203.5 -203.5t75 -279.5q0 -152 -74.5 -281t-203.5 -204t-282 -75zM200 -164h59q50 0 71 34q10 16 10 39q0 47 -37 64q-18 9 -44 9h-59v-146zM235 -137v93h22
q31 0 43 -20q5 -9 5 -27q0 -32 -22 -42q-8 -4 -26 -4h-22zM268 621q0 -205 144 -350t348 -145q203 0 347.5 144.5t144.5 347.5q0 100 -39 191.5t-104.5 157.5t-156 105t-190.5 40q-134 0 -248 -65.5t-180 -178.5t-66 -247zM352 -109q0 -36 30 -50q16 -7 33 -7q31 0 45 16
q8 7 10 17l-31 3q-5 -9 -14 -12q-3 -1 -10 -1q-18 0 -25 13q-3 5 -3 13h85v8q0 27 -18 42q-16 14 -42 14q-36 0 -52 -27q-8 -13 -8 -29zM387 -98q2 13 12 19q4 3 14 3q17 0 23 -12l3 -10h-52zM442 719q10 -2 12 -4q52 -21 98 -27q41 -3 72 2q43 11 47 12q3 0 8.5 2.5
t7.5 3.5q-5 2 -16.5 8t-17 9t-13 8.5t-13.5 12.5h19q39 0 75 19q65 40 136 61q24 8 58 11q4 0 19.5 1t23.5 0q54 -2 89 -33q10 -11 28 -33v-2l-6 2q-45 17 -83 3.5t-62 -53.5q-7 -13 -25 -55q-9 -21 -27 -63.5t-20 -48.5q-33 -64 -65 -101q-27 -33 -66 -58q-45 -34 -116 -55
h-4h-1l24 22q12 11 25 44q41 116 45 127q24 73 57 131v3q-2 -4 -11 -13q-8 -10 -10 -12q-23 -36 -31 -57q-2 -6 -8 -6q-99 3 -177 67q-40 38 -59 55q-1 1 -5 7t-8 10zM481 -132q5 -34 56 -34q35 0 48 18q7 9 7 18q0 24 -36 30l-22 3q-16 4 -16 12q0 11 19 11q17 0 21 -14
l31 3q-5 32 -53 32q-33 0 -46 -16q-6 -7 -6 -18q0 -25 36 -31l21 -4q16 -3 16 -11q0 -11 -20 -11q-18 0 -23 14zM605 -25q0 -15 19 -15q18 0 18 15t-18 15q-19 0 -19 -15zM607 -164h34v109h-34v-109zM656 -109q0 -35 25 -48q12 -5 25 -5q18 0 29 9q5 5 7 8h1v-19
q0 -21 -25 -21q-16 0 -21 6l-6 6l-31 -3q7 -31 57 -31q37 0 52 19q9 9 9 23v110h-35v-18h-1q-6 12 -18 17q-8 3 -18 3q-30 0 -43 -25q-7 -11 -7 -31zM691 -109q0 21 12 28q8 4 15 4q16 0 22 -15q3 -7 3 -17q0 -30 -25 -30q-18 0 -24 14q-3 6 -3 16zM798 -164h34v64
q0 13 11 19q6 3 13 3q21 0 21 -22v-64h35v70q0 26 -20 36q-10 5 -23 5q-27 0 -37 -21v19h-34v-109zM927 -109q0 -34 28 -50q17 -7 33 -7q38 0 54 27q7 13 7 30q0 33 -28 49q-13 7 -33 7q-38 0 -54 -27q-7 -14 -7 -29zM962 -109q0 21 12 28q7 5 14 5q16 0 24 -16q3 -15 3 -17
q0 -20 -12 -29q-5 -4 -15 -4q-16 0 -23 15q-3 9 -3 18zM1051 -55l43 -109h39l43 109h-36l-26 -78h-1l-26 78h-36zM1177 -133q0 -21 21 -29q8 -4 21 -4q18 0 27 9q4 2 9 9v-16h33v74q0 20 -15 28q-17 9 -37 9q-30 0 -45 -15q-7 -6 -10 -17l32 -3q5 13 22 13q19 0 19 -14v-1
q0 -7 -13 -7l-17 -3q-19 0 -32 -8q-15 -8 -15 -25zM1210 -133q0 9 9 12q5 3 12 3q19 3 23 5v-11q0 -13 -12 -18q-6 -3 -14 -3q-18 0 -18 12zM1267 -16q0 16 11 26.5t27 10.5t26.5 -10.5t10.5 -26.5t-10.5 -27t-26.5 -11t-27 11t-11 27zM1279 -16q0 -11 7.5 -19t18.5 -8
t18.5 8t7.5 19t-7.5 18.5t-18.5 7.5t-18.5 -7.5t-7.5 -18.5zM1292 -33v35h14q12 0 12 -11q0 -5 -5 -10l8 -14h-10l-6 11h-5v-11h-8zM1300 -13h6q5 0 5 3t-5 3h-6v-6z" />
    <glyph glyph-name="_Designova" horiz-adv-x="1692" 
d="M844 -121q-174 0 -322.5 87t-235 235.5t-86.5 323.5q1 131 52 250.5t137.5 205.5t206 137t250.5 51q175 0 323.5 -86t235.5 -234.5t87 -323.5q0 -176 -87 -324.5t-236 -235t-325 -86.5zM278 525q0 -116 45 -221.5t120.5 -181.5t181 -121t221.5 -45q154 0 285 76t207 207
t76 285q0 116 -45 221.5t-120.5 181.5t-180.5 121t-221 45t-221 -45t-181.5 -120.5t-121.5 -181t-45 -221.5zM480 638q7 0 13 -4q58 -22 115 -31q45 -5 81 3q29 4 53 14q5 0 11.5 3t8.5 4q-5 3 -22.5 11.5t-27.5 15.5t-19 17h21q39 0 86 20q85 53 158 73q37 10 66 10
q6 0 24.5 1.5t26.5 0.5q67 -4 102 -39q6 -5 33 -37v-2q-3 2 -7 2q-53 20 -95.5 4.5t-71.5 -59.5q-5 -9 -10 -20.5t-11 -25t-9 -21.5q-6 -14 -25 -59t-30 -68q-36 -74 -74 -119q-20 -27 -74 -66q-52 -38 -136 -63h-7l28 24q18 17 30 51q7 20 25 71t27 78q31 90 65 150v1
q-3 -3 -11 -13q-9 -7 -11 -16q-23 -27 -38 -65q-3 -5 -9 -5q-117 5 -204 78q-10 10 -32.5 31t-33.5 32q-12 14 -16 18z" />
    <glyph glyph-name="_Origin" horiz-adv-x="2255" 
d="M150 929v50h1955v-50h-1955zM150 110v50h1955v-50h-1955zM228 311v177h42v-177h-42zM260 608v177h148v-32h-107v-39h97v-31h-97v-42h107v-33h-148zM298 311v177h34l89 -107v107h40v-177h-33l-88 109v-109h-42zM438 608v177h34l88 -107v107h40v-177h-33l-88 109v-109h-41z
M554 311v177h87q72 0 72 -45q0 -28 -26 -40q3 0 3 -2q28 -12 28 -42q0 -48 -71 -48h-93zM596 342h48q32 0 32 22t-32 22h-48v-44zM596 419h42q33 0 33 20q0 22 -33 22h-42v-42zM629 753v32h156v-32h-57v-145h-41v145h-58zM738 311v177h148v-33h-107v-38h96v-31h-96v-41h105
v-34h-146zM803 785h44l40 -124l42 124h38l40 -126l42 126h39l-57 -177h-45l-39 121l-41 -121h-43zM914 311v177h81q28 0 42 -6q36 -19 36 -57q0 -21 -10 -35q-15 -18 -29 -23l37 -56h-43l-35 50h-37v-50h-42zM956 394h37q38 0 38 31q0 30 -38 30h-37v-61zM1093 311v177h40
v-143h106v-34h-146zM1096 697q0 39 28 65q26 26 69 26t69 -26q28 -25 28 -65q0 -39 -28 -65q-26 -27 -68 -27q-44 0 -70 27q-28 28 -28 65zM1138 697q0 -25 15.5 -40.5t39.5 -15.5t39.5 15.5t15.5 40.5t-15.5 41.5t-39.5 16.5t-39.5 -16.5t-15.5 -41.5zM1268 311v177h41
v-177h-41zM1313 608v177h81q28 0 41 -6q36 -17 36 -57q0 -21 -10 -35q-9 -15 -29 -23l39 -56h-45l-33 50h-39v-50h-41zM1338 311v177h35l87 -107v107h42v-177h-34l-89 109v-109h-41zM1354 691h37q38 0 38 31t-38 31h-37v-62zM1491 608v177h148v-32h-107v-39h96v-31h-96v-75
h-41zM1528 335q0 24 25 24q10 0 17 -7t7 -17q0 -11 -7 -25l-14 -38h-26l12 41q-14 5 -14 22zM1655 608v177h147v-32h-106v-39h95v-31h-95v-42h106v-33h-147zM1678 311v177h80q30 0 52 -11q46 -21 46 -77q0 -28 -12 -47q-23 -42 -86 -42h-80zM1720 345h37q17 0 31 7
q26 14 26 48q0 21 -6 29q-14 26 -51 26h-37v-110zM1832 608v177h33l90 -107v107h40v-177h-34l-89 109v-109h-40zM1880 311v177h147v-33h-107v-38h97v-31h-97v-41h106v-34h-146z" />
    <glyph glyph-name="_VendorID" horiz-adv-x="1116" 
d="M73 -4v1187h974v-1187h-974zM76 -95q0 13 7.5 20.5t18.5 7.5q9 0 12 -3l4 -5v26h13v-72h-13v9l-4 -7q-8 -5 -15 -5q-23 0 -23 29zM90 -95q0 -17 13 -17q15 0 15 17v1q0 18 -13 18q-15 0 -15 -19zM126 47h869v1084h-869v-1084zM141 -95q0 13 7.5 20.5t19.5 7.5
q11 0 18.5 -7.5t7.5 -19.5q0 -2 -2 -5h-37q1 -13 13 -13q10 0 12 9h12q-4 -21 -24 -21q-27 0 -27 29zM155 -91h25q-3 15 -12 15q-12 0 -13 -15zM198 -106h14q3 -9 9 -9q9 0 9 7q0 3 -12 9q-18 5 -18 16q0 16 21 16t21 -16h-14q-1 7 -7 7q-7 0 -7 -6q0 -4 12 -9q17 -5 17 -15
q0 -18 -22 -18q-20 0 -23 18zM240 297q0 59 46 125l97 137h64l-84 -120q11 3 23 3q62 0 102.5 -41.5t40.5 -103.5q0 -61 -41.5 -103.5t-101.5 -42.5q-61 0 -103.5 42.5t-42.5 103.5zM240 768q0 56 46 123l97 142h64l-84 -122q7 2 23 2q63 0 103 -41t40 -104
q0 -61 -41 -102.5t-102 -41.5t-103.5 42t-42.5 102zM251 -56q0 7 8 7t8 -7q0 -8 -8 -8t-8 8zM252 -121v54h14v-54h-14zM276 -95q0 28 26 28q9 0 12 -3l4 -5v8h14v-41q0 -8 -2 -11q0 -24 -27 -24q-26 0 -26 18v1h14v-1q0 -8 12 -8q11 0 15 13v8l-4 -7q-8 -2 -14 -2
q-24 0 -24 26zM291 -94q0 -18 12 -18q15 0 15 17v1q0 18 -15 18q-12 0 -12 -18zM294 297q0 -42 25.5 -68t66.5 -26q39 0 64.5 26t25.5 68q0 40 -25.5 65t-64.5 25q-41 0 -66.5 -25t-25.5 -65zM294 768q0 -41 25.5 -67t66.5 -26q39 0 64.5 26.5t25.5 66.5t-25.5 66t-64.5 26
q-41 0 -66.5 -25t-25.5 -67zM343 -121v54h14v-10l4 7q5 3 13 3q17 0 20 -15q1 -3 1 -9v-30h-15v34q0 11 -10 11q-13 0 -13 -21v-24h-14zM402 -95q0 13 7.5 20.5t19.5 7.5q28 0 28 -28q0 -29 -28 -29q-12 0 -19.5 8t-7.5 21zM416 -95q0 -17 13 -17q15 0 15 17q0 19 -15 19
q-13 0 -13 -19zM462 -67h14l14 -45l13 45h14l-19 -54h-18zM522 -106q0 16 30 16h3v7q0 7 -9 7q-11 0 -11 -9h-13q0 18 24 18q19 0 21 -15v-39h-12v6l-3 -5q-8 -4 -14 -4q-16 0 -16 18zM535 -106q0 -6 8 -6q12 0 12 9v6q-20 2 -20 -9zM576 -78v9h6v8q0 15 19 15h6v-11
q-11 2 -11 -5v-7h11v-9h-11v-43h-14v43h-6zM589 297q0 62 44 125l97 137h66l-86 -120q10 3 25 3q61 0 102 -41.5t41 -103.5q0 -61 -41.5 -103.5t-101.5 -42.5q-61 0 -103.5 42.5t-42.5 103.5zM589 768q0 57 44 123l97 142h66l-87 -122q8 2 26 2q61 0 102 -41.5t41 -103.5
q0 -61 -41.5 -102.5t-101.5 -41.5q-61 0 -103.5 41.5t-42.5 102.5zM611 -95q0 28 28 28q27 0 27 -28q0 -29 -27 -29q-28 0 -28 29zM625 -95q0 -17 14 -17q13 0 13 17q0 19 -13 19q-14 0 -14 -19zM642 297q0 -42 26 -68t67 -26q38 0 62.5 26t24.5 68q0 40 -24.5 65t-62.5 25
q-41 0 -67 -25t-26 -65zM642 768q0 -41 26 -67t67 -26q38 0 62.5 26t24.5 67q0 40 -24.5 66t-62.5 26q-41 0 -67 -25.5t-26 -66.5zM675 -121v54h12v-10l6 7q4 3 13 3q16 0 19 -15v-39h-14v34q-4 11 -9 11q-15 0 -15 -21v-24h-12zM732 -78v9h8v13h14v-13h10v-9h-10v-28
q2 -10 9 -6v-10h-8q-15 0 -15 10v34h-8zM768 -106h15q1 -9 10 -9q8 0 8 7q0 3 -12 9q-17 5 -17 16q0 16 20 16q19 0 24 -16h-16q0 7 -9 7q-5 0 -5 -6q0 -5 11 -9q19 -6 19 -15q0 -18 -23 -18q-21 0 -25 18zM820 -116q0 10 9 10t9 -10q0 -8 -9 -8t-9 8zM844 -95q0 13 8 20.5
t18 7.5q25 0 25 -20h-13q-3 11 -12 11q-12 0 -12 -19q0 -17 12 -17q10 0 12 9h13q-1 -21 -25 -21q-26 0 -26 29zM900 -95q0 28 29 28q26 0 26 -28q0 -29 -26 -29q-29 0 -29 29zM914 -95q0 -17 15 -17q13 0 13 17q0 19 -13 19q-15 0 -15 -19zM965 -121v54h14v-9l5 6q3 3 9 3
q13 0 18 -10l5 7q3 3 11 3q17 0 17 -12q1 -4 1 -12v-30h-13v27q0 2 -0.5 5t-0.5 4q0 9 -10 9q-9 0 -9 -18v-27h-13v36q-5 9 -10 9q-10 0 -10 -18v-27h-14z" />
    </font>
</defs>
</svg>
