<?xml version="1.0" standalone="no"?>
<!DOCTYPE svg PUBLIC "-//W3C//DTD SVG 1.1//EN" "http://www.w3.org/Graphics/SVG/1.1/DTD/svg11.dtd" >
<svg xmlns="http://www.w3.org/2000/svg" xmlns:xlink="http://www.w3.org/1999/xlink" version="1.1">
<metadata>
Created by FontForge 20170731 at Wed Nov 15 16:16:59 2023
 By Aleksey,,,
Copyright (c) 2023 by Designova. All rights reserved.
</metadata>
<defs>
<font id="LinearGrotesk-BoldItalic" horiz-adv-x="1386" >
  <font-face 
    font-family="Linear Grotesk"
    font-weight="700"
    font-style="italic"
    font-stretch="normal"
    units-per-em="2048"
    panose-1="0 0 0 0 0 0 0 0 0 0"
    ascent="1638"
    descent="-410"
    x-height="992"
    cap-height="1358"
    bbox="-363 -483 2467 1915"
    underline-thickness="100"
    underline-position="-355"
    unicode-range="U+0020-F8FF"
  />
<missing-glyph horiz-adv-x="1296" 
d="M195 -31l207 1308h896l-207 -1308h-896zM367 240l303 383l-181 385zM412 104h505l-188 398zM576 1143l191 -400l316 400h-507zM823 623l182 -382l121 765z" />
    <glyph glyph-name=".notdef" horiz-adv-x="1296" 
d="M195 -31l207 1308h896l-207 -1308h-896zM367 240l303 383l-181 385zM412 104h505l-188 398zM576 1143l191 -400l316 400h-507zM823 623l182 -382l121 765z" />
    <glyph glyph-name=".null" horiz-adv-x="0" 
 />
    <glyph glyph-name="nonmarkingreturn" horiz-adv-x="682" 
 />
    <glyph glyph-name="space" unicode=" " horiz-adv-x="360" 
 />
    <glyph glyph-name="space" unicode="&#xa0;" horiz-adv-x="360" 
 />
    <glyph glyph-name="exclam" unicode="!" horiz-adv-x="622" 
d="M245 275l146 1014h246l-175 -1014h-217zM126 -86l46 285h342l-46 -285h-342z" />
    <glyph glyph-name="quotedbl" unicode="&#x22;" horiz-adv-x="1284" 
d="M694 853l347 601h304l-424 -601h-227zM303 853l347 601h303l-424 -601h-226z" />
    <glyph glyph-name="numbersign" unicode="#" horiz-adv-x="1385" 
d="M180 -67l120 353h-268l30 186h299l82 238h-270l30 186h303l118 350h216l-115 -350h331l118 350h218l-116 -350h263l-30 -186h-295l-82 -238h270l-30 -186h-302l-119 -353h-223l121 353h-330l-121 -353h-218zM583 472h329l82 238h-333z" />
    <glyph glyph-name="dollar" unicode="$" horiz-adv-x="1188" 
d="M487 -65q-133 22 -248.5 97t-156.5 185l214 96q10 -53 63.5 -99t126 -71.5t142.5 -25.5q158 0 236.5 40t93.5 133q5 30 -1 51q-8 35 -16.5 48t-35.5 31q-41 31 -61 42.5t-65 28.5q-69 24 -87 28l-90 29q-89 28 -153.5 61t-114 78.5t-69 107t-7.5 137.5q21 133 144 230
t298 119l23 143h226l-24 -147q137 -23 237.5 -102.5t95.5 -162.5l-192 -68q-47 81 -112.5 116t-172.5 35q-270 0 -297 -164q-12 -78 42.5 -122.5t207.5 -92.5q3 0 18 -5q12 -5 22 -7q4 -3 10 -3q110 -36 200 -78q79 -38 116 -78q46 -42 72.5 -109t14.5 -140
q-25 -158 -156.5 -251t-318.5 -113l-22 -138h-226z" />
    <glyph glyph-name="percent" unicode="%" horiz-adv-x="2134" 
d="M286 -81l1480 1377h278l-1479 -1377h-279zM291 963q16 102 90 184t183.5 127t231.5 45q190 0 302 -99.5t88 -256.5q-17 -103 -90.5 -184t-182 -124.5t-229.5 -43.5q-185 0 -301.5 97.5t-91.5 254.5zM512 963q-13 -76 43 -119.5t159 -43.5q102 0 168.5 43t79.5 120
q12 80 -39.5 123.5t-156.5 43.5q-106 0 -174 -44.5t-80 -122.5zM1143 253q16 102 89 184t182 126.5t232 44.5q189 0 303 -100t90 -255q-17 -103 -91.5 -185.5t-183.5 -126.5t-230 -44q-119 0 -213.5 43.5t-144 126t-33.5 186.5zM1368 253q-13 -79 41 -123t155 -44
q102 0 171.5 45t81.5 122t-41 120t-160 43t-171.5 -42.5t-76.5 -120.5z" />
    <glyph glyph-name="ampersand" unicode="&#x26;" horiz-adv-x="1364" 
d="M570 -25q-240 0 -366.5 111.5t-97.5 295.5q21 136 119 243.5t296 212.5q-74 102 -99 171.5t-14 141.5q22 135 133 220.5t266 85.5q151 0 231 -82t59 -213q-16 -105 -86.5 -191.5t-209.5 -173.5l275 -371q60 117 79 273h192q-29 -246 -160 -423l205 -276h-246l-100 134
q-215 -159 -476 -159zM299 382q-18 -109 60 -169.5t238 -60.5q217 0 350 113l-327 436q-164 -81 -235 -152t-86 -167zM601 1151q-6 -39 15.5 -85t87.5 -134q96 59 143.5 113.5t57.5 116.5q9 58 -24.5 89.5t-103.5 31.5q-73 0 -119.5 -34.5t-56.5 -97.5z" />
    <glyph glyph-name="quotesingle" unicode="'" horiz-adv-x="889" 
d="M303 853l345 601h303l-422 -601h-226z" />
    <glyph glyph-name="parenleft" unicode="(" horiz-adv-x="782" 
d="M500 -355q-365 382 -279 932q89 556 575 937l182 -86q-129 -113 -195 -182.5t-147 -185.5q-142 -204 -187 -483q-47 -302 49 -507q17 -38 26 -59.5t23.5 -48.5t19 -35.5t24.5 -38t27 -38.5t40.5 -53.5t50.5 -67.5z" />
    <glyph glyph-name="parenright" unicode=")" horiz-adv-x="781" 
d="M-7 -273q62 64 108 107q65 61 164 173q77 99 106 153q46 80 86.5 192t58.5 225q45 280 -32 480q-44 113 -89 184t-139 187l210 86q365 -380 276 -937q-86 -547 -572 -932z" />
    <glyph glyph-name="asterisk" unicode="*" horiz-adv-x="1495" 
d="M1095 146l-278 309l-366 -302l-179 115l369 289l-403 114l121 183l394 -121l38 325h248l-66 -325l434 121l61 -183l-439 -114l276 -285z" />
    <glyph glyph-name="plus" unicode="+" horiz-adv-x="1476" 
d="M647 122l61 381h-481l30 189h481l58 366h222l-58 -366h478l-30 -189h-478l-61 -381h-222z" />
    <glyph glyph-name="comma" unicode="," horiz-adv-x="814" 
d="M23 -387l347 599h302l-424 -599h-225z" />
    <glyph glyph-name="hyphen" unicode="-" horiz-adv-x="1313" 
d="M186 503l30 189h1101l-30 -189h-1101z" />
    <glyph glyph-name="period" unicode="." horiz-adv-x="611" 
d="M124 -73l46 285h339l-46 -285h-339z" />
    <glyph glyph-name="slash" unicode="/" horiz-adv-x="906" 
d="M-37 -185l935 1572h236l-935 -1572h-236z" />
    <glyph glyph-name="zero" unicode="0" horiz-adv-x="1124" 
d="M559 -33q-182 0 -302 141q-66 78 -88 222t7 348q32 197 99 344.5t157 224.5q165 142 350 142q237 0 335.5 -186.5t44.5 -524.5q-52 -330 -209.5 -520.5t-393.5 -190.5zM435 678q-82 -523 154 -523q127 0 211 164q70 140 104 359q36 227 10 365q-15 77 -56 119t-105 42
q-234 0 -318 -526z" />
    <glyph glyph-name="one" unicode="1" horiz-adv-x="718" 
d="M386 0l171 1073l-357 -180l39 244l434 221h164l-215 -1358h-236z" />
    <glyph glyph-name="two" unicode="2" horiz-adv-x="1082" 
d="M86 0q12 76 52.5 158t93.5 147q54 64 135 136q28 25 53.5 47t41.5 35.5t46.5 37.5t40.5 32t53 41t57 44q24 16 35 26q191 144 215 299q15 94 -33 147.5t-142 53.5q-198 0 -297 -237l-203 57q70 173 206.5 269t326.5 96q205 0 316 -106.5t83 -284.5q-18 -113 -90 -208
t-205 -195q-34 -30 -126.5 -101t-130.5 -103q-129 -110 -195 -205h613l-29 -186h-917z" />
    <glyph glyph-name="three" unicode="3" horiz-adv-x="1149" 
d="M559 -31q-182 0 -300.5 87t-141.5 219l211 67q58 -187 258 -187q112 0 194 62t99 171q16 101 -55 165t-197 64q-69 0 -137 -6l29 184q43 -4 128 -4q104 0 183 58t94 155q14 87 -38 143.5t-144 56.5q-165 0 -270 -196l-196 59q64 146 199 234t311 88q206 0 314 -101
t83 -261q-16 -101 -87.5 -184t-169.5 -127q108 -35 169 -120.5t41 -207.5q-30 -196 -186 -307.5t-391 -111.5z" />
    <glyph glyph-name="four" unicode="4" horiz-adv-x="1178" 
d="M690 -13l47 297h-627l29 183l802 904h215l-143 -902h184l-29 -185h-184l-47 -297h-247zM374 469h392l61 382q17 105 35 180h-8q-58 -71 -130 -157z" />
    <glyph glyph-name="five" unicode="5" horiz-adv-x="1128" 
d="M549 -31q-166 0 -271.5 75.5t-145.5 208.5l219 67q21 -74 81 -119.5t139 -45.5q117 0 198 73t101 194q19 119 -43 194.5t-176 75.5q-139 0 -264 -123l-146 55l194 734h757l-30 -187h-529l-101 -356q104 61 236 61q193 0 292 -121.5t67 -326.5q-29 -178 -167 -312
q-71 -69 -177 -108t-234 -39z" />
    <glyph glyph-name="six" unicode="6" horiz-adv-x="1119" 
d="M568 -31q-233 0 -335 144q-120 163 -66 504q50 319 211 536q81 111 198 173.5t255 62.5q301 0 388 -280l-204 -61q-69 156 -212 156q-192 0 -307 -286q-27 -68 -52 -157q47 61 126.5 99.5t171.5 38.5q197 0 303 -131.5t74 -333.5q-33 -206 -182.5 -335.5t-368.5 -129.5z
M398 433q-21 -127 33 -202.5t161 -75.5q102 0 176.5 75t95.5 203q20 130 -31 205t-155 75t-182 -78t-98 -202z" />
    <glyph glyph-name="seven" unicode="7" horiz-adv-x="1032" 
d="M206 -13q223 601 684 1179h-661l30 192h949l-24 -152q-434 -511 -720 -1219h-258z" />
    <glyph glyph-name="eight" unicode="8" horiz-adv-x="1143" 
d="M564 -31q-215 0 -340 109.5t-96 293.5q20 129 106 215.5t208 128.5q-199 101 -167 299q25 162 171.5 268t342.5 106t308.5 -106t87.5 -268q-32 -200 -264 -299q114 -44 173 -131.5t39 -212.5q-28 -179 -187 -291t-382 -112zM386 385q-16 -100 42.5 -165t165.5 -65
t185.5 65t94.5 165q15 99 -42.5 168t-163.5 69q-105 0 -185.5 -69t-96.5 -168zM531 1004q-14 -88 32.5 -143t133.5 -55t150.5 55.5t77.5 142.5q14 86 -31.5 143t-133.5 57q-87 0 -151 -57t-78 -143z" />
    <glyph glyph-name="nine" unicode="9" horiz-adv-x="1108" 
d="M498 -31q-149 0 -254 82.5t-135 199.5l210 60q65 -156 211 -156q76 0 140.5 38.5t108.5 107.5q78 123 111 297q-115 -127 -298 -127q-193 0 -300.5 126t-75.5 332q32 202 188 331t366 129q175 0 279.5 -101t121.5 -273q10 -110 -14 -273q-60 -376 -225.5 -574.5
t-433.5 -198.5zM468 929q-19 -122 34.5 -198.5t154.5 -76.5q102 0 176.5 76t94.5 199q19 121 -31 198t-153 77q-102 0 -179.5 -77.5t-96.5 -197.5z" />
    <glyph glyph-name="colon" unicode=":" horiz-adv-x="611" 
d="M252 731l45 286h339l-45 -286h-339zM151 92l45 286h339l-45 -286h-339z" />
    <glyph glyph-name="semicolon" unicode=";" horiz-adv-x="774" 
d="M49 -223l347 601h302l-424 -601h-225zM358 731l45 286h339l-45 -286h-339z" />
    <glyph glyph-name="less" unicode="&#x3c;" horiz-adv-x="1395" 
d="M1089 -65l-856 586l19 123l1043 592l121 -147l-889 -505l730 -504z" />
    <glyph glyph-name="equal" unicode="=" horiz-adv-x="1422" 
d="M264 657l30 191h1101l-30 -191h-1101zM216 352l30 188h1101l-30 -188h-1101z" />
    <glyph glyph-name="greater" unicode="&#x3e;" horiz-adv-x="1393" 
d="M282 -65l-119 145l882 504l-723 501l166 151l856 -592l-19 -123z" />
    <glyph glyph-name="question" unicode="?" horiz-adv-x="1099" 
d="M478 361q16 97 74.5 179t140.5 138q61 39 87 57q17 12 22 14q4 3 11.5 8l10.5 7q60 40 92 79t39 88q17 101 -34 150t-180 49q-111 0 -192 -51.5t-157 -172.5l-193 66q82 161 240 254t332 93q218 0 329.5 -106.5t84.5 -280.5q-14 -87 -72.5 -163.5t-137.5 -132.5l-131 -88
q-123 -81 -140 -189l-16 -100h-226zM349 -86l46 285h340l-46 -285h-340z" />
    <glyph glyph-name="at" unicode="@" horiz-adv-x="1844" 
d="M894 -171q-178 0 -326.5 63.5t-244 172t-137.5 260t-15 322.5q27 170 117 321t220.5 258.5t298.5 170.5t345 63q184 0 333 -59t245 -163.5t136 -252t13 -319.5q-33 -212 -163 -353.5t-293 -142.5l89 -120q-274 -221 -618 -221zM357 647q-28 -180 36 -329t203.5 -234.5
t324.5 -85.5q131 0 256.5 44.5t229.5 127.5q-79 2 -132.5 31.5t-73.5 82.5q-135 -107 -321 -107q-156 0 -236.5 77.5t-60.5 209.5q20 126 129.5 206t289.5 103l161 18q58 7 95 18q5 82 -37.5 119.5t-139.5 37.5q-112 0 -171.5 -50t-54.5 -140h-190q4 158 129 259t318 101
q181 0 267.5 -90.5t60.5 -251.5l-62 -390q-6 -36 11.5 -52t59.5 -16q86 0 154 92t90 238q29 180 -33.5 322.5t-202 222.5t-332.5 80q-137 0 -268.5 -50.5t-234 -136.5t-173.5 -205.5t-92 -251.5zM768 465q-10 -59 28.5 -89t121.5 -30q126 0 208.5 77.5t104.5 214.5l1 3
q-90 -14 -184 -24l-54 -6q-207 -22 -226 -146z" />
    <glyph glyph-name="A" unicode="A" 
d="M15 0l757 1358h274l325 -1358h-264l-72 336h-580l-175 -336h-265zM552 518h445l-118 622h-11z" />
    <glyph glyph-name="B" unicode="B" horiz-adv-x="1235" 
d="M96 0l215 1358h567q235 0 341 -94.5t79 -263.5q-15 -96 -75.5 -168t-153.5 -115q95 -32 150.5 -118.5t37.5 -203.5q-28 -175 -168 -285t-354 -110h-639zM375 192h348q103 0 182 55t94 148t-42.5 150.5t-173.5 57.5h-342zM471 794h294q112 0 185 48t88 141
q13 86 -39 133.5t-169 47.5h-301z" />
    <glyph glyph-name="C" unicode="C" horiz-adv-x="1362" 
d="M729 -31q-144 0 -258.5 49.5t-188.5 140t-102.5 225t-2.5 296.5q34 214 144 375.5t274 247.5t359 86q182 0 305 -90.5t169 -236.5l-224 -64q-90 197 -286 197q-185 0 -315.5 -139.5t-168.5 -375.5q-38 -237 49.5 -376.5t271.5 -139.5q116 0 218.5 63t161.5 161l214 -63
q-77 -129 -220 -232q-80 -57 -184 -90.5t-216 -33.5z" />
    <glyph glyph-name="D" unicode="D" horiz-adv-x="1316" 
d="M96 0l215 1358h444q340 0 495.5 -175.5t103.5 -502.5q-38 -234 -160 -393q-65 -88 -155 -150q-196 -137 -501 -137h-442zM375 190h164q478 0 556 490q40 253 -63.5 369.5t-333.5 116.5h-168z" />
    <glyph glyph-name="E" unicode="E" horiz-adv-x="1181" 
d="M96 0l215 1358h981l-31 -194h-732l-58 -367h661l-30 -191h-661l-66 -414h751l-30 -192h-1000z" />
    <glyph glyph-name="F" unicode="F" horiz-adv-x="1099" 
d="M96 0l215 1358h954l-31 -194h-705l-61 -388h630l-30 -190h-630l-93 -586h-249z" />
    <glyph glyph-name="G" unicode="G" horiz-adv-x="1403" 
d="M723 -31q-141 0 -254.5 51t-186.5 142t-101.5 225t-3.5 293q33 207 141 367.5t276.5 251t370.5 90.5q112 0 205.5 -33t150.5 -89q100 -98 135 -201l-223 -65q-39 62 -61 92q-30 40 -95 71t-141 31q-196 0 -330.5 -139.5t-171.5 -375.5q-38 -236 52.5 -376t274.5 -140
q153 0 256.5 80.5t136.5 210.5q18 77 24 111h-368l30 193h610l-120 -759h-172l-1 140q-150 -171 -434 -171z" />
    <glyph glyph-name="H" unicode="H" horiz-adv-x="1293" 
d="M96 0l215 1358h247l-89 -564h606l89 564h248l-215 -1358h-248l96 603h-606l-96 -603h-247z" />
    <glyph glyph-name="I" unicode="I" horiz-adv-x="441" 
d="M96 0l215 1358h249l-215 -1358h-249z" />
    <glyph glyph-name="J" unicode="J" horiz-adv-x="972" 
d="M429 -31q-163 0 -258 78.5t-117 205.5l218 76q12 -75 59.5 -120t122.5 -45q95 0 157 65t81 187l149 942h250l-154 -972q-32 -199 -164 -308t-344 -109z" />
    <glyph glyph-name="K" unicode="K" horiz-adv-x="1257" 
d="M96 0l215 1358h249l-97 -615h4l678 615h316l-674 -593l474 -765h-301l-355 605l-191 -171l-69 -434h-249z" />
    <glyph glyph-name="L" unicode="L" horiz-adv-x="1070" 
d="M96 0l215 1358h249l-185 -1166h678l-30 -192h-927z" />
    <glyph glyph-name="M" unicode="M" horiz-adv-x="1596" 
d="M96 0l215 1358h303l237 -981h7l548 981h309l-215 -1358h-246l156 987l-507 -910h-187l-217 908l-156 -985h-247z" />
    <glyph glyph-name="N" unicode="N" horiz-adv-x="1303" 
d="M96 0l215 1358h260l444 -992l157 992h250l-215 -1358h-262l-444 982l-156 -982h-249z" />
    <glyph glyph-name="O" unicode="O" horiz-adv-x="1424" 
d="M709 -31q-293 0 -438 194t-95 515q51 321 258 516t500 195q192 0 323.5 -88t184.5 -249t19 -374q-50 -320 -257 -514.5t-495 -194.5zM433 678q-38 -238 44.5 -376t262.5 -138q178 0 303 137.5t162 376.5q38 239 -42.5 378t-259.5 139q-180 0 -306 -139t-164 -378z" />
    <glyph glyph-name="P" unicode="P" horiz-adv-x="1219" 
d="M96 0l215 1358h584q232 0 347.5 -113t85.5 -301q-31 -193 -184 -305t-377 -112h-339l-83 -527h-249zM459 719h306q130 0 210 57.5t98 167.5q17 107 -44.5 163.5t-196.5 56.5h-303z" />
    <glyph glyph-name="Q" unicode="Q" horiz-adv-x="1426" 
d="M709 -31q-194 0 -326.5 88.5t-186 249.5t-20.5 371q52 323 259.5 517t498.5 194q288 0 433 -195.5t94 -515.5q-48 -309 -244 -502l140 -156l-159 -114l-138 152q-162 -89 -351 -89zM433 678q-38 -238 44.5 -376t262.5 -138q100 0 184 45l-199 219l159 117l187 -208
q101 131 134 341q39 241 -42.5 379t-259.5 138q-181 0 -306.5 -138.5t-163.5 -378.5z" />
    <glyph glyph-name="R" unicode="R" horiz-adv-x="1269" 
d="M96 0l215 1355h594q222 0 337 -113t87 -291q-30 -187 -188 -300q78 -94 63 -280q-6 -73 -7 -125t13.5 -108.5t51.5 -137.5h-278q-34 66 -38.5 141.5t6.5 216.5q9 104 -27.5 143t-166.5 39h-329l-86 -540h-247zM459 719h306q130 0 210 57.5t98 167.5q17 107 -44.5 163.5
t-196.5 56.5h-303z" />
    <glyph glyph-name="S" unicode="S" horiz-adv-x="1225" 
d="M632 -31q-204 0 -345 85.5t-193 235.5l231 68q40 -88 132 -141t211 -53q126 0 210 54t98 143q14 88 -51.5 140t-224.5 104q-214 67 -283 105q-187 105 -155 305q26 168 188.5 271t398.5 103q187 0 313.5 -79.5t170.5 -210.5l-222 -64q-94 160 -296 160q-122 0 -202 -49.5
t-93 -130.5q-9 -56 15 -85q2 -3 10.5 -14.5t11 -14.5t9.5 -10.5t14.5 -12l17.5 -10.5q52 -29 101 -47q10 -3 23 -8t21 -7.5t13 -3.5q119 -36 127 -39q166 -52 263 -130q116 -94 89 -264q-30 -187 -195 -293.5t-408 -106.5z" />
    <glyph glyph-name="T" unicode="T" horiz-adv-x="1194" 
d="M473 0l184 1164h-434l31 194h1116l-31 -194h-434l-184 -1164h-248z" />
    <glyph glyph-name="U" unicode="U" horiz-adv-x="1300" 
d="M644 -31q-267 0 -388 136.5t-79 403.5l134 849h251l-134 -849q-27 -171 38 -258t209 -87q147 0 240 88.5t120 256.5l134 849h250l-134 -849q-42 -262 -205 -401t-436 -139z" />
    <glyph glyph-name="V" unicode="V" horiz-adv-x="1278" 
d="M498 0l-268 1358h270l171 -1121l8 -1l526 1122h273l-700 -1358h-280z" />
    <glyph glyph-name="W" unicode="W" horiz-adv-x="1745" 
d="M345 0l-125 1358h264l41 -1112h10l425 1112h252l76 -1112h10l393 1112h264l-553 -1358h-285l-69 1083h-6l-415 -1083h-282z" />
    <glyph glyph-name="X" unicode="X" horiz-adv-x="1303" 
d="M26 0l589 698l-350 660h295l223 -493h8l386 493h291l-559 -660l370 -698h-290l-252 524h-8l-412 -524h-291z" />
    <glyph glyph-name="Y" unicode="Y" horiz-adv-x="1308" 
d="M530 0l87 551l-394 807h287l256 -623h6l453 623h289l-648 -807l-87 -551h-249z" />
    <glyph glyph-name="Z" unicode="Z" horiz-adv-x="1261" 
d="M78 0l26 166l933 998h-713l31 194h1022l-27 -168l-936 -998h799l-30 -192h-1105z" />
    <glyph glyph-name="bracketleft" unicode="[" horiz-adv-x="722" 
d="M95 -300l279 1759h514l-30 -189h-290l-219 -1382h290l-30 -188h-514z" />
    <glyph glyph-name="backslash" unicode="\" horiz-adv-x="867" 
d="M613 -185l-401 1572h232l402 -1572h-233z" />
    <glyph glyph-name="bracketright" unicode="]" horiz-adv-x="725" 
d="M18 -300l30 188h290l219 1382h-290l30 189h516l-279 -1759h-516z" />
    <glyph glyph-name="asciicircum" unicode="^" horiz-adv-x="1254" 
d="M155 762l623 666h149l414 -666h-271l-257 420l-8 -10l-379 -410h-271z" />
    <glyph glyph-name="underscore" unicode="_" horiz-adv-x="939" 
d="M-66 -205l30 191h1008l-30 -191h-1008z" />
    <glyph glyph-name="a" unicode="a" horiz-adv-x="1061" 
d="M416 -31q-178 0 -268 80t-69 211q45 279 510 342q179 23 242 41l8 52q11 72 -39 114t-144 42q-179 0 -332 -135l-128 114q101 91 227.5 141.5t256.5 50.5q236 0 328 -104t60 -303l-97 -615h-234l20 124q-46 -66 -139.5 -110.5t-201.5 -44.5zM323 278q-9 -56 34 -92
t122 -36q116 0 206 69.5t107 179.5l15 91q-89 -19 -215 -36q-246 -34 -269 -176z" />
    <glyph glyph-name="b" unicode="b" horiz-adv-x="1117" 
d="M607 -31q-94 0 -165.5 45.5t-99.5 112.5l-20 -127h-231l222 1403h236l-83 -524q58 64 137.5 103.5t168.5 39.5q205 0 311 -142t68 -383q-17 -108 -59.5 -199.5t-98.5 -153.5q-80 -86 -182.5 -130.5t-203.5 -44.5zM404 497q-25 -157 29 -249.5t166 -92.5q114 0 197 89.5
t109 252.5q25 156 -28.5 247.5t-170.5 91.5q-113 0 -195.5 -93t-106.5 -246z" />
    <glyph glyph-name="c" unicode="c" horiz-adv-x="1035" 
d="M546 -31q-226 0 -343 144t-80 382q38 237 201.5 382t388.5 145q155 0 255.5 -86.5t111.5 -207.5l-214 -52q-12 69 -61 114.5t-121 45.5q-120 0 -205.5 -95.5t-109.5 -245.5q-25 -158 33.5 -249t174.5 -91q80 0 152 50.5t108 121.5l198 -55q-58 -125 -195.5 -214
t-293.5 -89z" />
    <glyph glyph-name="d" unicode="d" horiz-adv-x="1115" 
d="M503 -31q-174 0 -293 120q-61 61 -84 167t-2 241q38 240 190.5 382.5t358.5 142.5q92 0 157.5 -40t94.5 -101l82 522h240l-222 -1403h-231l20 128q-47 -66 -133.5 -112.5t-177.5 -46.5zM370 497q-25 -160 29.5 -251t167.5 -91q111 0 194 92.5t108 249.5
q24 154 -28.5 246.5t-166.5 92.5q-117 0 -198.5 -92t-105.5 -247z" />
    <glyph glyph-name="e" unicode="e" horiz-adv-x="1091" 
d="M558 -31q-230 0 -351 145t-83 386q38 236 204 379t389 143q216 0 333 -143t81 -370q-7 -42 -20 -89h-757q-19 -116 45.5 -196t189.5 -80q90 0 166 39t124 105l190 -61q-74 -116 -207 -187t-304 -71zM382 573h515q19 117 -37 195t-171 78q-117 0 -202.5 -79.5
t-104.5 -193.5z" />
    <glyph glyph-name="f" unicode="f" horiz-adv-x="648" 
d="M175 0l128 806h-169l29 186h169l17 106q24 152 118.5 228.5t251.5 76.5h172l-29 -183h-139q-58 0 -90.5 -33t-44.5 -105l-14 -90h227l-29 -186h-227l-128 -806h-242z" />
    <glyph glyph-name="g" unicode="g" horiz-adv-x="1095" 
d="M448 -412q-274 0 -396 192l175 101q91 -118 251 -118q105 0 184.5 72t103.5 190q16 74 23 112q-47 -56 -124.5 -92t-157.5 -36q-207 0 -312 138t-69 365q36 229 184.5 369.5t348.5 140.5q93 0 157.5 -43t87.5 -103l18 116h239l-135 -855q-44 -279 -186.5 -414
t-391.5 -135zM370 515q-24 -151 27.5 -236t161.5 -85q109 0 185 83.5t100 237.5q24 151 -25.5 236t-155.5 85q-111 0 -190.5 -87.5t-102.5 -233.5z" />
    <glyph glyph-name="h" unicode="h" horiz-adv-x="1072" 
d="M91 0l222 1403h236l-81 -513h6q53 58 136 95t168 37q165 0 249.5 -96t54.5 -289l-101 -637h-239l97 611q36 225 -136 225q-103 0 -185.5 -80t-100.5 -190l-90 -566h-236z" />
    <glyph glyph-name="i" unicode="i" horiz-adv-x="413" 
d="M89 0l157 992h236l-157 -992h-236zM258 1139l38 238h257l-38 -238h-257z" />
    <glyph glyph-name="j" unicode="j" horiz-adv-x="432" 
d="M-148 -390l30 185h37q150 0 180 192l159 1005h241l-160 -1012q-29 -184 -133 -277t-275 -93h-79zM270 1139l38 238h263l-38 -238h-263z" />
    <glyph glyph-name="k" unicode="k" horiz-adv-x="1016" 
d="M91 0l222 1403h238l-128 -807l451 396h302l-468 -405l335 -587h-281l-234 434l-151 -130l-48 -304h-238z" />
    <glyph glyph-name="l" unicode="l" horiz-adv-x="421" 
d="M91 0l222 1403h239l-222 -1403h-239z" />
    <glyph glyph-name="m" unicode="m" horiz-adv-x="1625" 
d="M91 0l157 992h234l-18 -116q39 57 122 101.5t180 44.5q181 0 238 -177q29 44 112 106q43 33 108.5 52t135.5 19q336 0 275 -385l-101 -637h-243l100 631q16 106 -8.5 155.5t-103.5 49.5q-97 0 -167.5 -71.5t-88.5 -180.5l-92 -584h-238l101 636q32 200 -116 200
q-101 0 -168.5 -67.5t-85.5 -181.5l-93 -587h-240z" />
    <glyph glyph-name="n" unicode="n" horiz-adv-x="1076" 
d="M91 0l157 992h234l-20 -127h1q42 63 129.5 110t198.5 47q170 0 248 -94.5t47 -290.5l-101 -637h-242l96 608q36 228 -133 228q-104 0 -185.5 -75.5t-98.5 -187.5l-91 -573h-240z" />
    <glyph glyph-name="o" unicode="o" horiz-adv-x="1101" 
d="M546 -31q-109 0 -193.5 33t-135.5 87q-135 147 -94 406q24 150 99 267.5t202.5 188.5t288.5 71q96 0 174 -26.5t129 -74t84 -113.5t39 -145t-6 -168q-22 -145 -110 -278q-80 -122 -202 -185t-275 -63zM369 495q-26 -164 34.5 -252t172.5 -88q108 0 196.5 88.5
t114.5 251.5q26 165 -34.5 253t-169.5 88q-110 0 -199 -88t-115 -253z" />
    <glyph glyph-name="p" unicode="p" horiz-adv-x="1117" 
d="M27 -406l221 1398h230l-20 -130q124 160 314 160q99 0 178 -37t130 -104t70.5 -166t0.5 -218q-21 -133 -79 -239.5t-139 -167.5q-157 -121 -328 -121q-101 0 -167.5 41.5t-91.5 104.5l-82 -521h-237zM406 497q-25 -158 26 -250t167 -92q115 0 198.5 91t108.5 251
q25 157 -28 248t-172 91q-113 0 -195 -94t-105 -245z" />
    <glyph glyph-name="q" unicode="q" horiz-adv-x="1115" 
d="M804 117q-46 -65 -125.5 -106.5t-175.5 -41.5q-174 0 -292 121q-61 61 -84.5 167.5t-2.5 239.5q38 239 189 382t357 143q91 0 159.5 -44t101.5 -116l20 130h231l-221 -1398h-240zM370 497q-25 -160 28 -251t166 -91q115 0 197.5 92t107.5 250q24 152 -28 245.5t-167 93.5
q-116 0 -198 -93.5t-106 -245.5z" />
    <glyph glyph-name="r" unicode="r" horiz-adv-x="729" 
d="M91 0l157 992h231l-17 -108q49 60 123.5 99t161.5 39q90 0 138 -22l-31 -197q-67 19 -139 19q-121 0 -200.5 -85t-103.5 -231l-80 -506h-240z" />
    <glyph glyph-name="s" unicode="s" horiz-adv-x="983" 
d="M510 -31q-158 0 -273 63t-163 175l185 90q90 -151 273 -151q89 0 145.5 31.5t65.5 85.5q6 42 -30 75q-24 21 -56.5 37t-58.5 24.5t-103 31.5q-21 6 -25 7q-117 38 -195 94q-94 65 -73 201q20 128 153 208.5t316 80.5q132 0 242.5 -64t151.5 -164l-172 -88
q-90 139 -249 139q-86 0 -137.5 -31t-59.5 -84q-7 -43 29 -76q8 -7 15 -13.5t17 -12.5t16 -10t19 -9.5t18.5 -8t23 -8.5t23 -8t29 -10t30.5 -10q25 -5 30 -7q321 -99 289 -296q-19 -125 -148 -208.5t-328 -83.5z" />
    <glyph glyph-name="t" unicode="t" horiz-adv-x="694" 
d="M514 0q-334 0 -286 303l80 503h-169l29 186h169l46 292h238l-46 -292h252l-29 -186h-252l-78 -488q-11 -70 15 -101t91 -31h126l-29 -186h-157z" />
    <glyph glyph-name="u" unicode="u" horiz-adv-x="1068" 
d="M452 -31q-134 0 -231 77q-51 41 -71 122t-2 191l100 633h240l-96 -606q-36 -231 142 -231q105 0 180 81t94 200l88 556h238l-157 -992h-229l18 115h-3q-39 -59 -123 -102.5t-188 -43.5z" />
    <glyph glyph-name="v" unicode="v" horiz-adv-x="1035" 
d="M382 0l-223 992h261l123 -808h3l382 808h262l-536 -992h-272z" />
    <glyph glyph-name="w" unicode="w" horiz-adv-x="1489" 
d="M303 0l-140 992h258l47 -780h9l298 780h252l55 -780h8l291 780h258l-453 -992h-268l-50 756h-7l-291 -756h-267z" />
    <glyph glyph-name="x" unicode="x" horiz-adv-x="1092" 
d="M17 0l468 509l-292 483h289l163 -336h8l267 336h291l-445 -483l309 -509h-284l-185 362h-8l-298 -362h-283z" />
    <glyph glyph-name="y" unicode="y" horiz-adv-x="1038" 
d="M51 -406l29 183h34q87 0 145.5 34t102.5 116l53 98l-256 967h263l142 -739h8l359 739h262l-632 -1122q-81 -147 -185.5 -211.5t-249.5 -64.5h-75z" />
    <glyph glyph-name="z" unicode="z" horiz-adv-x="1064" 
d="M85 0l23 144l669 662h-519l29 186h831l-22 -138l-673 -668h589l-29 -186h-898z" />
    <glyph glyph-name="braceleft" unicode="{" horiz-adv-x="929" 
d="M591 -298q-115 0 -188.5 69t-54.5 192l50 316q18 112 -2.5 154t-85.5 42h-129l30 187h129q68 0 100 40.5t50 157.5l54 337q19 118 112.5 190t208.5 72h229l-30 -189h-213q-39 0 -56.5 -17t-25.5 -69l-54 -336q-28 -180 -145 -279q86 -93 59 -268l-49 -310
q-10 -64 1.5 -82.5t57.5 -18.5h207l-30 -188h-225z" />
    <glyph glyph-name="braceright" unicode="}" horiz-adv-x="931" 
d="M19 -298l30 188h210q46 0 64 18.5t28 82.5l50 319q27 165 139 259q-82 96 -55 273l55 342q8 53 -4 69.5t-56 16.5h-213l30 189h229q117 0 188 -71t52 -191l-54 -337q-18 -113 2 -155.5t85 -42.5h130l-30 -187h-130q-64 0 -97.5 -42t-49.5 -143l-52 -327q-13 -81 -64 -142
t-119 -90t-143 -29h-225z" />
    <glyph glyph-name="asciitilde" unicode="~" horiz-adv-x="1683" 
d="M1160 374q-87 0 -158.5 27t-112.5 72q-25 21 -69 65q-68 58 -150 58q-77 0 -142.5 -42t-147.5 -145l-180 83q97 143 225.5 218t276.5 75q171 0 274 -96q3 -2 8 -7l4 -5l14 -12q3 -3 10.5 -10t11.5 -11h1h1q1 -3 3 -3l-1 -1q1 -1 2 -1q2 -5 12 -10l4 -4q2 -2 2 -5
q63 -57 142 -57q43 0 73 9t65 34q49 40 70.5 60.5t87.5 94.5l181 -87q-56 -66 -103.5 -113t-111 -93t-137.5 -70t-155 -24z" />
    <glyph glyph-name="exclamdown" unicode="&#xa1;" horiz-adv-x="619" 
d="M119 -435l177 1013h217l-148 -1013h-246zM243 653l46 285h339l-46 -285h-339z" />
    <glyph glyph-name="cent" unicode="&#xa2;" horiz-adv-x="1136" 
d="M478 -97q-199 27 -299 169.5t-66 356.5q32 206 175.5 352t355.5 174l22 138h227l-23 -145q127 -29 205 -109t82 -186l-219 -57q-3 81 -62 129.5t-163 48.5q-153 0 -251 -90.5t-124 -254.5q-26 -165 44.5 -255.5t220.5 -90.5q108 0 197.5 54.5t128.5 134.5l197 -65
q-59 -105 -170.5 -187t-249.5 -111l-24 -147h-227z" />
    <glyph glyph-name="sterling" unicode="&#xa3;" horiz-adv-x="1491" 
d="M118 74q140 4 219.5 74.5t97.5 183.5l27 175h-246l31 191h246l38 243q29 181 168.5 279.5t348.5 98.5q165 0 276.5 -76.5t127.5 -185.5l-194 -84q-31 87 -83.5 122t-151.5 35q-129 0 -190 -43.5t-77 -148.5l-38 -240h511l-31 -191h-511l-27 -175q-18 -111 -74 -195
q27 3 72 3q96 0 192 -30q98 -24 139 -24q103 0 178.5 19.5t146.5 63.5l61 -179q-165 -93 -419 -93q-86 0 -187 30q-108 22 -150 22q-128 0 -305 -34l-124 -24z" />
    <glyph glyph-name="currency" unicode="&#xa4;" horiz-adv-x="1598" 
d="M1144 264q-144 -65 -308 -65q-163 0 -287 66l-259 -167l-153 119l275 184q-56 88 -38 205q18 115 101 207l-213 173l186 131l210 -168q147 65 307 65q161 0 285 -69l259 175l146 -135l-265 -173q56 -96 38 -206q-16 -105 -105 -205l213 -180l-187 -125zM600 606
q-15 -97 55.5 -157t210.5 -60q138 0 229.5 60.5t106.5 156.5q16 98 -56.5 158.5t-210.5 60.5q-137 0 -228 -60.5t-107 -158.5z" />
    <glyph glyph-name="yen" unicode="&#xa5;" horiz-adv-x="1487" 
d="M622 -73l52 325h-433l30 187h433l4 31h-433l30 187h308l-413 630h280l373 -571q2 -6 4 -9l4 6l554 574h282l-611 -630h300l-30 -187h-424l-4 -31h424l-30 -187h-424l-52 -325h-224z" />
    <glyph glyph-name="copyright" unicode="&#xa9;" horiz-adv-x="1826" 
d="M905 -27q-215 0 -377.5 97.5t-237.5 268.5t-42 379q32 206 161.5 376.5t322.5 268t408 97.5q218 0 381.5 -97t239 -267t42.5 -378q-25 -156 -106.5 -294t-200.5 -237t-273 -156.5t-318 -57.5zM434 718q-26 -162 29.5 -293.5t178.5 -206t290 -74.5q168 0 315.5 74
t245.5 205.5t124 294.5q26 161 -30.5 292.5t-181 206t-292.5 74.5q-165 0 -312 -75t-244.5 -206.5t-122.5 -291.5zM615 713q31 193 169.5 314.5t327.5 121.5q154 0 246.5 -92.5t82.5 -238.5h-193q1 78 -41 117t-123 39q-106 0 -183.5 -72t-95.5 -188q-18 -113 34 -183
t154 -70q171 0 229 152h191q-39 -144 -164.5 -236.5t-283.5 -92.5q-183 0 -281.5 121t-68.5 308z" />
    <glyph glyph-name="ordfeminine" unicode="&#xaa;" horiz-adv-x="817" 
d="M445 717q-116 0 -177 53t-47 139q29 185 339 227q111 13 160 26l6 35q7 48 -26 75.5t-96 27.5q-119 0 -220 -89l-84 75q65 60 149 93t171 33q156 0 216.5 -68.5t39.5 -199.5l-64 -407h-153l13 82q-33 -43 -94.5 -72.5t-132.5 -29.5zM122 497l23 150h733l-23 -150h-733z
M384 923q-6 -39 22 -63t80 -24q76 0 136.5 47t72.5 118l9 61q-55 -13 -143 -25q-162 -23 -177 -114z" />
    <glyph glyph-name="guillemotleft" unicode="&#xab;" horiz-adv-x="1093" 
d="M490 -43l-338 459l487 455l177 -97l-388 -358l268 -360zM482 416l486 453l171 -98l-382 -355l267 -358l-202 -99z" />
    <glyph glyph-name="logicalnot" unicode="&#xac;" horiz-adv-x="1339" 
d="M1007 140l55 347h-853l30 189h1079l-85 -536h-226z" />
    <glyph glyph-name="uni00AD" unicode="&#xad;" horiz-adv-x="1269" 
d="M186 503l30 189h1057l-30 -189h-1057z" />
    <glyph glyph-name="registered" unicode="&#xae;" horiz-adv-x="969" 
d="M584 615q-182 0 -284 116.5t-74 290.5q27 173 167 290t320 117q179 0 280 -116t73 -291q-28 -174 -165.5 -290.5t-316.5 -116.5zM306 1022q-23 -144 59.5 -239t230.5 -95q145 0 256.5 95t134.5 239t-58.5 239.5t-226.5 95.5q-148 0 -260.5 -95.5t-135.5 -239.5zM443 800
l72 458h190q80 0 121.5 -37t31.5 -103q-7 -45 -38.5 -81.5t-79.5 -53.5l75 -183h-90l-62 164h-113l-26 -164h-81zM561 1035h108q42 0 69.5 20.5t32.5 56.5q6 36 -14.5 54t-63.5 18h-108z" />
    <glyph glyph-name="plusminus" unicode="&#xb1;" horiz-adv-x="1449" 
d="M655 265l54 343h-463l30 190h463l54 341h222l-54 -341h463l-30 -190h-463l-54 -343h-222zM167 70l30 189h1136l-30 -189h-1136z" />
    <glyph glyph-name="uni00B2" unicode="&#xb2;" horiz-adv-x="671" 
d="M170 698q9 57 28.5 102t64 95t101.5 99t158 126q103 76 117 160q7 47 -16.5 74t-69.5 27q-100 0 -161 -136l-139 38q15 36 29.5 59t51.5 71q38 48 101 74.5t140 26.5q122 0 188.5 -65.5t49.5 -171.5q-18 -112 -164 -231q-3 -3 -105.5 -82.5t-143.5 -133.5h339l-20 -132
h-549z" />
    <glyph glyph-name="uni00B3" unicode="&#xb3;" horiz-adv-x="671" 
d="M433 678q-104 0 -175.5 52t-87.5 144l146 46q33 -109 136 -109q59 0 100.5 31.5t50.5 88.5q8 52 -27.5 83.5t-101.5 31.5q-61 0 -94 -3l21 132q61 -4 87 -4q55 0 93.5 28.5t47.5 80.5q7 45 -18.5 73t-74.5 28q-47 0 -78.5 -27.5t-62.5 -85.5l-137 39q27 61 68.5 105
t88.5 66q73 33 150 33q124 0 190 -61t51 -157q-18 -114 -127 -175q122 -60 101 -187q-18 -117 -112 -185t-235 -68z" />
    <glyph glyph-name="uni00B5" unicode="&#xb5;" horiz-adv-x="1165" 
d="M15 -477l224 1409h229l-100 -627q-18 -113 24.5 -167.5t162.5 -54.5q151 0 242 75.5t111 203.5l91 570h224l-160 -1005h-222l9 53q-148 -83 -331 -83q-128 0 -209 42l-66 -416h-229z" />
    <glyph glyph-name="periodcentered" unicode="&#xb7;" horiz-adv-x="612" 
d="M205 437l46 287h340l-46 -287h-340z" />
    <glyph glyph-name="uni00B9" unicode="&#xb9;" horiz-adv-x="570" 
d="M325 698l92 579l-171 -99l32 206l228 133h119l-129 -819h-171z" />
    <glyph glyph-name="ordmasculine" unicode="&#xba;" horiz-adv-x="817" 
d="M500 722q-137 0 -209 77q-85 91 -60 258q23 147 122.5 241.5t253.5 94.5q151 0 220 -94.5t46 -241.5q-15 -96 -68 -176q-106 -159 -305 -159zM122 497l23 150h733l-23 -150h-733zM388 1057q-17 -104 21 -160t110 -56q68 0 124.5 56.5t72.5 159.5q17 105 -21 161t-107 56
q-71 0 -127 -55.5t-73 -161.5z" />
    <glyph glyph-name="guillemotright" unicode="&#xbb;" horiz-adv-x="1095" 
d="M585 -43l-175 99l381 360l-273 358l206 97l345 -455zM85 61l377 355l-270 355l204 98l343 -453l-485 -462z" />
    <glyph glyph-name="questiondown" unicode="&#xbf;" horiz-adv-x="1099" 
d="M463 -465q-215 0 -328.5 107.5t-85.5 281.5q14 89 73 165t141 129l5 5l1 1l2 2v1h4q1 1 3 2.5t5 3.5t4 3q2 2 6.5 4t6.5 4q3 3 5 4q4 1 7 4l4 3l4 2q1 2 8 6q34 24 53 36l15 9l1 -1q118 83 136 190l15 99h222l-16 -101q-15 -96 -74.5 -178.5t-140.5 -139.5q-2 -1 -6.5 -3
t-6.5 -4q-12 -8 -27 -20q-15 -9 -45 -29q-33 -22 -45 -28q-61 -41 -94 -80.5t-41 -88.5q-16 -100 36.5 -148.5t181.5 -48.5q113 0 194 51t158 172l191 -67q-85 -165 -240.5 -256.5t-331.5 -91.5zM498 656l45 282h339l-45 -282h-339z" />
    <glyph glyph-name="Agrave" unicode="&#xc0;" 
d="M15 0l757 1358h274l325 -1358h-264l-72 336h-580l-175 -336h-265zM552 518h445l-118 622h-11zM609 1800h288l166 -325h-202z" />
    <glyph glyph-name="Aacute" unicode="&#xc1;" 
d="M15 0l757 1358h274l325 -1358h-264l-72 336h-580l-175 -336h-265zM552 518h445l-118 622h-11zM774 1475l266 325h290l-354 -325h-202z" />
    <glyph glyph-name="Acircumflex" unicode="&#xc2;" 
d="M15 0l757 1358h274l325 -1358h-264l-72 336h-580l-175 -336h-265zM495 1475l377 318h205l285 -318h-247l-156 205l-216 -205h-248zM552 518h445l-118 622h-11z" />
    <glyph glyph-name="Atilde" unicode="&#xc3;" 
d="M15 0l757 1358h274l325 -1358h-264l-72 336h-580l-175 -336h-265zM483 1589q146 165 319 165q74 0 163 -52q88 -52 124 -52q97 0 184 107l115 -96q-150 -172 -321 -172q-70 0 -158 53q-85 52 -127 52q-46 0 -96 -29t-85 -74zM552 518h445l-118 622h-11z" />
    <glyph glyph-name="Adieresis" unicode="&#xc4;" 
d="M15 0l757 1358h274l325 -1358h-264l-72 336h-580l-175 -336h-265zM552 518h445l-118 622h-11zM585 1532l34 218h255l-34 -218h-255zM1029 1532l34 218h252l-34 -218h-252z" />
    <glyph glyph-name="Aring" unicode="&#xc5;" 
d="M15 0l757 1358h274l325 -1358h-264l-72 336h-580l-175 -336h-265zM552 518h445l-118 622h-11zM658 1656q17 107 114 183t224 76t199 -76.5t55 -182.5q-17 -110 -115 -185.5t-221 -75.5q-122 0 -197.5 75t-58.5 186zM824 1656q-8 -51 24 -85t88 -34q55 0 96 32.5t49 86.5
q8 49 -22.5 83.5t-84.5 34.5t-98 -35t-52 -83z" />
    <glyph glyph-name="AE" unicode="&#xc6;" horiz-adv-x="1998" 
d="M15 0l1019 1358h1077l-30 -192h-683l-59 -369h611l-30 -191h-626l-66 -414h716l-30 -192h-948l53 336h-490l-247 -336h-267zM658 518h390l99 626h-21z" />
    <glyph glyph-name="Ccedilla" unicode="&#xc7;" horiz-adv-x="1362" 
d="M631 -409q-87 0 -184 23l21 136q106 -21 178 -21q52 0 95 17.5t49 51.5q5 31 -47 47t-162 16l51 114q-250 32 -376 220t-79 485q34 214 144 375.5t274 247.5t359 86q182 0 305 -90.5t169 -236.5l-224 -64q-90 197 -286 197q-185 0 -315.5 -139.5t-168.5 -375.5
q-38 -237 49.5 -376.5t271.5 -139.5q116 0 218.5 63t161.5 161l214 -63q-77 -129 -220 -232q-122 -88 -283 -115l-20 -42q79 -12 119.5 -53t30.5 -101q-13 -82 -103 -136.5t-242 -54.5z" />
    <glyph glyph-name="Egrave" unicode="&#xc8;" horiz-adv-x="1181" 
d="M96 0l215 1358h981l-31 -194h-732l-58 -367h661l-30 -191h-661l-66 -414h751l-30 -192h-1000zM522 1800h290l164 -325h-202z" />
    <glyph glyph-name="Eacute" unicode="&#xc9;" horiz-adv-x="1181" 
d="M96 0l215 1358h981l-31 -194h-732l-58 -367h661l-30 -191h-661l-66 -414h751l-30 -192h-1000zM657 1475l267 325h290l-354 -325h-203z" />
    <glyph glyph-name="Ecircumflex" unicode="&#xca;" horiz-adv-x="1181" 
d="M96 0l215 1358h981l-31 -194h-732l-58 -367h661l-30 -191h-661l-66 -414h751l-30 -192h-1000zM381 1475l379 318h204l285 -318h-249l-155 205l-216 -205h-248z" />
    <glyph glyph-name="Edieresis" unicode="&#xcb;" horiz-adv-x="1181" 
d="M96 0l215 1358h981l-31 -194h-732l-58 -367h661l-30 -191h-661l-66 -414h751l-30 -192h-1000zM472 1532l34 218h254l-34 -218h-254zM915 1532l34 218h252l-34 -218h-252z" />
    <glyph glyph-name="Igrave" unicode="&#xcc;" horiz-adv-x="530" 
d="M163 0l215 1358h249l-215 -1358h-249zM214 1800h290l164 -325h-202z" />
    <glyph glyph-name="Iacute" unicode="&#xcd;" horiz-adv-x="547" 
d="M138 0l215 1358h249l-215 -1358h-249zM330 1475l268 325h291l-355 -325h-204z" />
    <glyph glyph-name="Icircumflex" unicode="&#xce;" horiz-adv-x="554" 
d="M154 0l215 1358h249l-215 -1358h-249zM78 1475l378 318h204l286 -318h-248l-157 205l-215 -205h-248z" />
    <glyph glyph-name="Idieresis" unicode="&#xcf;" horiz-adv-x="453" 
d="M105 0l215 1358h249l-215 -1358h-249zM123 1532l34 218h255l-34 -218h-255zM567 1532l34 218h251l-34 -218h-251z" />
    <glyph glyph-name="Eth" unicode="&#xd0;" horiz-adv-x="1369" 
d="M149 0l94 596h-150l29 179h150l92 583h444q340 0 495.5 -175.5t103.5 -502.5q-38 -234 -160 -393q-65 -88 -155 -150q-196 -137 -501 -137h-442zM428 190h164q478 0 556 490q40 253 -63.5 369.5t-333.5 116.5h-168l-62 -391h378l-29 -179h-378z" />
    <glyph glyph-name="Ntilde" unicode="&#xd1;" horiz-adv-x="1303" 
d="M449 1589q147 165 318 165q76 0 165 -52q88 -52 121 -52q101 0 185 107l117 -96q-150 -172 -321 -172q-70 0 -158 53q-85 52 -128 52q-45 0 -94.5 -29t-86.5 -74zM96 0l215 1358h260l444 -992l157 992h250l-215 -1358h-262l-444 982l-156 -982h-249z" />
    <glyph glyph-name="Ograve" unicode="&#xd2;" horiz-adv-x="1424" 
d="M709 -31q-293 0 -438 194t-95 515q51 321 258 516t500 195q192 0 323.5 -88t184.5 -249t19 -374q-50 -320 -257 -514.5t-495 -194.5zM433 678q-38 -238 44.5 -376t262.5 -138q178 0 303 137.5t162 376.5q38 239 -42.5 378t-259.5 139q-180 0 -306 -139t-164 -378z
M633 1816h289l166 -325h-204z" />
    <glyph glyph-name="Oacute" unicode="&#xd3;" horiz-adv-x="1424" 
d="M709 -31q-293 0 -438 194t-95 515q51 321 258 516t500 195q192 0 323.5 -88t184.5 -249t19 -374q-50 -320 -257 -514.5t-495 -194.5zM433 678q-38 -238 44.5 -376t262.5 -138q178 0 303 137.5t162 376.5q38 239 -42.5 378t-259.5 139q-180 0 -306 -139t-164 -378z
M804 1491l267 325h291l-356 -325h-202z" />
    <glyph glyph-name="Ocircumflex" unicode="&#xd4;" horiz-adv-x="1424" 
d="M709 -31q-293 0 -438 194t-95 515q51 321 258 516t500 195q192 0 323.5 -88t184.5 -249t19 -374q-50 -320 -257 -514.5t-495 -194.5zM433 678q-38 -238 44.5 -376t262.5 -138q178 0 303 137.5t162 376.5q38 239 -42.5 378t-259.5 139q-180 0 -306 -139t-164 -378z
M515 1491l379 318h204l284 -318h-247l-155 205l-218 -205h-247z" />
    <glyph glyph-name="Otilde" unicode="&#xd5;" horiz-adv-x="1424" 
d="M709 -31q-293 0 -438 194t-95 515q51 321 258 516t500 195q192 0 323.5 -88t184.5 -249t19 -374q-50 -320 -257 -514.5t-495 -194.5zM433 678q-38 -238 44.5 -376t262.5 -138q178 0 303 137.5t162 376.5q38 239 -42.5 378t-259.5 139q-180 0 -306 -139t-164 -378z
M512 1589q147 165 318 165q76 0 165 -52q88 -52 121 -52q101 0 185 107l117 -96q-150 -172 -321 -172q-70 0 -158 53q-85 52 -128 52q-45 0 -94.5 -29t-86.5 -74z" />
    <glyph glyph-name="Odieresis" unicode="&#xd6;" horiz-adv-x="1424" 
d="M709 -31q-293 0 -438 194t-95 515q51 321 258 516t500 195q192 0 323.5 -88t184.5 -249t19 -374q-50 -320 -257 -514.5t-495 -194.5zM433 678q-38 -238 44.5 -376t262.5 -138q178 0 303 137.5t162 376.5q38 239 -42.5 378t-259.5 139q-180 0 -306 -139t-164 -378z
M606 1532l34 218h255l-34 -218h-255zM1050 1532l34 218h252l-34 -218h-252z" />
    <glyph glyph-name="multiply" unicode="&#xd7;" horiz-adv-x="1492" 
d="M327 149l-151 130l491 314l-379 314l184 136l382 -327l486 327l148 -136l-479 -314l394 -318l-193 -125l-395 319z" />
    <glyph glyph-name="Oslash" unicode="&#xd8;" horiz-adv-x="1426" 
d="M315 113q-196 197 -139 565q51 320 259 515.5t499 195.5q160 0 275 -61l98 129h208l-172 -231q176 -198 120 -548q-33 -211 -138.5 -372.5t-265.5 -249t-350 -87.5q-151 0 -261 51l-96 -126h-203zM433 678q-33 -213 38 -357l605 828q-70 46 -173 46q-180 0 -306 -139
t-164 -378zM583 198q55 -34 157 -34q178 0 303 137.5t162 376.5q33 208 -26 337z" />
    <glyph glyph-name="Ugrave" unicode="&#xd9;" horiz-adv-x="1300" 
d="M644 -31q-267 0 -388 136.5t-79 403.5l134 849h251l-134 -849q-27 -171 38 -258t209 -87q147 0 240 88.5t120 256.5l134 849h250l-134 -849q-42 -262 -205 -401t-436 -139zM579 1816h289l166 -325h-204z" />
    <glyph glyph-name="Uacute" unicode="&#xda;" horiz-adv-x="1300" 
d="M644 -31q-267 0 -388 136.5t-79 403.5l134 849h251l-134 -849q-27 -171 38 -258t209 -87q147 0 240 88.5t120 256.5l134 849h250l-134 -849q-42 -262 -205 -401t-436 -139zM734 1491l267 325h290l-355 -325h-202z" />
    <glyph glyph-name="Ucircumflex" unicode="&#xdb;" horiz-adv-x="1300" 
d="M644 -31q-267 0 -388 136.5t-79 403.5l134 849h251l-134 -849q-27 -171 38 -258t209 -87q147 0 240 88.5t120 256.5l134 849h250l-134 -849q-42 -262 -205 -401t-436 -139zM457 1491l379 318h204l285 -318h-249l-153 205l-217 -205h-249z" />
    <glyph glyph-name="Udieresis" unicode="&#xdc;" horiz-adv-x="1300" 
d="M644 -31q-267 0 -388 136.5t-79 403.5l134 849h251l-134 -849q-27 -171 38 -258t209 -87q147 0 240 88.5t120 256.5l134 849h250l-134 -849q-42 -262 -205 -401t-436 -139zM549 1532l34 218h254l-34 -218h-254zM992 1532l34 218h253l-34 -218h-253z" />
    <glyph glyph-name="Yacute" unicode="&#xdd;" horiz-adv-x="1308" 
d="M735 1491l267 325h290l-355 -325h-202zM223 1358h287l256 -623h6l453 623h289l-648 -807l-87 -551h-249l87 551z" />
    <glyph glyph-name="Thorn" unicode="&#xde;" horiz-adv-x="1170" 
d="M92 0l215 1358h247l-35 -219h149q152 0 259 -37t159 -104q97 -126 70 -304q-35 -220 -200 -336t-426 -116h-153l-38 -242h-247zM408 436h131q312 0 354 262q20 125 -48 187t-223 62h-133z" />
    <glyph glyph-name="germandbls" unicode="&#xdf;" horiz-adv-x="1198" 
d="M677 -31q-138 0 -249 33l36 199q105 -40 233 -40q94 0 170.5 62t90.5 151q19 116 -44 177.5t-198 61.5h-136l31 193h114q83 0 144.5 54t75.5 146q14 85 -38.5 137t-151.5 52q-104 0 -171.5 -59t-84.5 -164l-154 -972h-249l157 989q30 189 176 294.5t350 105.5
q220 0 337 -100t89 -271q-30 -190 -215 -283v-3q127 -40 187 -130.5t38 -229.5q-29 -186 -173.5 -294.5t-364.5 -108.5z" />
    <glyph glyph-name="agrave" unicode="&#xe0;" horiz-adv-x="1061" 
d="M416 -31q-178 0 -268 80t-69 211q45 279 510 342q179 23 242 41l8 52q11 72 -39 114t-144 42q-179 0 -332 -135l-128 114q101 91 227.5 141.5t256.5 50.5q236 0 328 -104t60 -303l-97 -615h-234l20 124q-46 -66 -139.5 -110.5t-201.5 -44.5zM323 278q-9 -56 34 -92
t122 -36q116 0 206 69.5t107 179.5l15 91q-89 -19 -215 -36q-246 -34 -269 -176zM416 1470h289l166 -324h-203z" />
    <glyph glyph-name="aacute" unicode="&#xe1;" horiz-adv-x="1061" 
d="M416 -31q-178 0 -268 80t-69 211q45 279 510 342q179 23 242 41l8 52q11 72 -39 114t-144 42q-179 0 -332 -135l-128 114q101 91 227.5 141.5t256.5 50.5q236 0 328 -104t60 -303l-97 -615h-234l20 124q-46 -66 -139.5 -110.5t-201.5 -44.5zM323 278q-9 -56 34 -92
t122 -36q116 0 206 69.5t107 179.5l15 91q-89 -19 -215 -36q-246 -34 -269 -176zM512 1151l268 324h289l-354 -324h-203z" />
    <glyph glyph-name="acircumflex" unicode="&#xe2;" horiz-adv-x="1061" 
d="M416 -31q-178 0 -268 80t-69 211q45 279 510 342q179 23 242 41l8 52q11 72 -39 114t-144 42q-179 0 -332 -135l-128 114q101 91 227.5 141.5t256.5 50.5q236 0 328 -104t60 -303l-97 -615h-234l20 124q-46 -66 -139.5 -110.5t-201.5 -44.5zM266 1151l378 318h204
l284 -318h-247l-155 204l-216 -204h-248zM323 278q-9 -56 34 -92t122 -36q116 0 206 69.5t107 179.5l15 91q-89 -19 -215 -36q-246 -34 -269 -176z" />
    <glyph glyph-name="atilde" unicode="&#xe3;" horiz-adv-x="1061" 
d="M416 -31q-178 0 -268 80t-69 211q45 279 510 342q179 23 242 41l8 52q11 72 -39 114t-144 42q-179 0 -332 -135l-128 114q101 91 227.5 141.5t256.5 50.5q236 0 328 -104t60 -303l-97 -615h-234l20 124q-46 -66 -139.5 -110.5t-201.5 -44.5zM273 1244q147 165 319 165
q74 0 163 -52q88 -52 124 -52q98 0 184 107l116 -96q-148 -172 -320 -172q-72 0 -158 53q-88 52 -128 52q-45 0 -95 -29t-85 -74zM323 278q-9 -56 34 -92t122 -36q116 0 206 69.5t107 179.5l15 91q-89 -19 -215 -36q-246 -34 -269 -176z" />
    <glyph glyph-name="adieresis" unicode="&#xe4;" horiz-adv-x="1061" 
d="M416 -31q-178 0 -268 80t-69 211q45 279 510 342q179 23 242 41l8 52q11 72 -39 114t-144 42q-179 0 -332 -135l-128 114q101 91 227.5 141.5t256.5 50.5q236 0 328 -104t60 -303l-97 -615h-234l20 124q-46 -66 -139.5 -110.5t-201.5 -44.5zM323 278q-9 -56 34 -92
t122 -36q116 0 206 69.5t107 179.5l15 91q-89 -19 -215 -36q-246 -34 -269 -176zM352 1203l34 218h254l-34 -218h-254zM797 1203l34 218h251l-34 -218h-251z" />
    <glyph glyph-name="aring" unicode="&#xe5;" horiz-adv-x="1061" 
d="M416 -31q-178 0 -268 80t-69 211q45 279 510 342q179 23 242 41l8 52q11 72 -39 114t-144 42q-179 0 -332 -135l-128 114q101 91 227.5 141.5t256.5 50.5q236 0 328 -104t60 -303l-97 -615h-234l20 124q-46 -66 -139.5 -110.5t-201.5 -44.5zM323 278q-9 -56 34 -92
t122 -36q116 0 206 69.5t107 179.5l15 91q-89 -19 -215 -36q-246 -34 -269 -176zM443 1355q17 108 113 183.5t224 75.5q126 0 198 -76t55 -183q-18 -110 -115.5 -185.5t-220.5 -75.5q-124 0 -198 75.5t-56 185.5zM608 1355q-8 -51 23.5 -85t88.5 -34q54 0 95 33t50 86
q8 50 -23 84t-85 34q-56 0 -98.5 -34.5t-50.5 -83.5z" />
    <glyph glyph-name="ae" unicode="&#xe6;" horiz-adv-x="1757" 
d="M416 -31q-177 0 -267 81t-69 214q44 276 530 341q152 21 221 36l9 58q10 66 -41 109t-139 43q-180 0 -338 -135l-127 112q205 192 492 192q246 0 332 -146q154 146 372 146q211 0 326 -144.5t79 -369.5q-3 -17 -8 -46t-7 -40h-749l-4 -25q-8 -104 51.5 -177.5
t178.5 -73.5q176 0 288 144l187 -61q-74 -116 -205 -187t-300 -71q-131 0 -228.5 53.5t-145.5 150.5q-195 -204 -438 -204zM323 278q-8 -52 34.5 -90t117.5 -38q116 0 208 70.5t109 174.5l15 95q-153 -28 -199 -35q-263 -33 -285 -177zM1056 573h509q20 116 -38 194.5
t-161 78.5q-109 0 -185.5 -63t-115.5 -170z" />
    <glyph glyph-name="ccedilla" unicode="&#xe7;" horiz-adv-x="1035" 
d="M423 -409q-87 0 -184 23l21 136q106 -21 177 -21q53 0 96 17.5t49 51.5q5 31 -47 47t-162 16l53 120q-169 37 -252 174.5t-51 339.5q38 237 201.5 382t388.5 145q155 0 255.5 -86.5t111.5 -207.5l-214 -52q-12 69 -61 114.5t-121 45.5q-120 0 -205.5 -95.5t-109.5 -245.5
q-25 -158 33.5 -249t174.5 -91q80 0 152 50.5t108 121.5l198 -55q-49 -105 -158 -188t-241 -107l-19 -41q80 -12 120.5 -53t30.5 -101q-13 -82 -103 -136.5t-242 -54.5z" />
    <glyph glyph-name="egrave" unicode="&#xe8;" horiz-adv-x="1091" 
d="M558 -31q-230 0 -351 145t-83 386q38 236 204 379t389 143q216 0 333 -143t81 -370q-7 -42 -20 -89h-757q-19 -116 45.5 -196t189.5 -80q90 0 166 39t124 105l190 -61q-74 -116 -207 -187t-304 -71zM382 573h515q19 117 -37 195t-171 78q-117 0 -202.5 -79.5
t-104.5 -193.5zM445 1475h289l164 -324h-203z" />
    <glyph glyph-name="eacute" unicode="&#xe9;" horiz-adv-x="1091" 
d="M558 -31q-230 0 -351 145t-83 386q38 236 204 379t389 143q216 0 333 -143t81 -370q-7 -42 -20 -89h-757q-19 -116 45.5 -196t189.5 -80q90 0 166 39t124 105l190 -61q-74 -116 -207 -187t-304 -71zM382 573h515q19 117 -37 195t-171 78q-117 0 -202.5 -79.5
t-104.5 -193.5zM529 1151l267 324h289l-354 -324h-202z" />
    <glyph glyph-name="ecircumflex" unicode="&#xea;" horiz-adv-x="1091" 
d="M558 -31q-230 0 -351 145t-83 386q38 236 204 379t389 143q216 0 333 -143t81 -370q-7 -42 -20 -89h-757q-19 -116 45.5 -196t189.5 -80q90 0 166 39t124 105l190 -61q-74 -116 -207 -187t-304 -71zM301 1151l377 318h205l285 -318h-249l-153 204l-217 -204h-248z
M382 573h515q19 117 -37 195t-171 78q-117 0 -202.5 -79.5t-104.5 -193.5z" />
    <glyph glyph-name="edieresis" unicode="&#xeb;" horiz-adv-x="1091" 
d="M558 -31q-230 0 -351 145t-83 386q38 236 204 379t389 143q216 0 333 -143t81 -370q-7 -42 -20 -89h-757q-19 -116 45.5 -196t189.5 -80q90 0 166 39t124 105l190 -61q-74 -116 -207 -187t-304 -71zM382 573h515q19 117 -37 195t-171 78q-117 0 -202.5 -79.5
t-104.5 -193.5zM394 1203l34 218h254l-34 -218h-254zM838 1203l34 218h251l-34 -218h-251z" />
    <glyph glyph-name="igrave" unicode="&#xec;" horiz-adv-x="553" 
d="M190 0l157 992h238l-157 -992h-238zM190 1475h291l163 -324h-203z" />
    <glyph glyph-name="iacute" unicode="&#xed;" horiz-adv-x="535" 
d="M135 0l157 992h238l-157 -992h-238zM273 1151l268 324h291l-355 -324h-204z" />
    <glyph glyph-name="icircumflex" unicode="&#xee;" horiz-adv-x="537" 
d="M16 1151l378 318h205l283 -318h-247l-155 204l-217 -204h-247zM143 0l157 992h238l-157 -992h-238z" />
    <glyph glyph-name="idieresis" unicode="&#xef;" horiz-adv-x="437" 
d="M91 0l157 992h238l-157 -992h-238zM61 1203l34 218h253l-34 -218h-253zM503 1203l34 218h252l-34 -218h-252z" />
    <glyph glyph-name="eth" unicode="&#xf0;" horiz-adv-x="1094" 
d="M528 -31q-220 0 -334 128t-81 331q34 217 188 347t369 130q78 0 142 -25.5t90 -60.5q-15 148 -122 263l-223 -135l-118 136l185 113q-83 42 -184 56l113 175q174 -26 292 -97l229 140l115 -141l-197 -119q39 -45 70 -99q57 -103 76.5 -252t-8.5 -347
q-39 -247 -199.5 -395t-402.5 -148zM360 438q-20 -126 35.5 -204.5t168.5 -78.5q111 0 189.5 76.5t98.5 206.5q20 125 -35 202t-164 77q-110 0 -191.5 -76t-101.5 -203z" />
    <glyph glyph-name="ntilde" unicode="&#xf1;" horiz-adv-x="1088" 
d="M103 0l157 992h234l-20 -127h1q42 63 129.5 110t198.5 47q170 0 248 -94.5t47 -290.5l-101 -637h-242l96 608q36 228 -133 228q-104 0 -185.5 -75.5t-98.5 -187.5l-91 -573h-240zM288 1244q146 165 317 165q73 0 162 -52q88 -52 126 -52q97 0 184 107l114 -96
q-147 -172 -318 -172q-74 0 -160 53q-86 52 -126 52q-45 0 -95.5 -29t-85.5 -74z" />
    <glyph glyph-name="ograve" unicode="&#xf2;" horiz-adv-x="1101" 
d="M546 -31q-109 0 -193.5 33t-135.5 87q-135 147 -94 406q24 150 99 267.5t202.5 188.5t288.5 71q96 0 174 -26.5t129 -74t84 -113.5t39 -145t-6 -168q-22 -145 -110 -278q-80 -122 -202 -185t-275 -63zM369 495q-26 -164 34.5 -252t172.5 -88q108 0 196.5 88.5
t114.5 251.5q26 165 -34.5 253t-169.5 88q-110 0 -199 -88t-115 -253zM445 1475h289l164 -324h-203z" />
    <glyph glyph-name="oacute" unicode="&#xf3;" horiz-adv-x="1101" 
d="M546 -31q-109 0 -193.5 33t-135.5 87q-135 147 -94 406q24 150 99 267.5t202.5 188.5t288.5 71q96 0 174 -26.5t129 -74t84 -113.5t39 -145t-6 -168q-22 -145 -110 -278q-80 -122 -202 -185t-275 -63zM369 495q-26 -164 34.5 -252t172.5 -88q108 0 196.5 88.5
t114.5 251.5q26 165 -34.5 253t-169.5 88q-110 0 -199 -88t-115 -253zM560 1151l268 324h290l-355 -324h-203z" />
    <glyph glyph-name="ocircumflex" unicode="&#xf4;" horiz-adv-x="1101" 
d="M546 -31q-109 0 -193.5 33t-135.5 87q-135 147 -94 406q24 150 99 267.5t202.5 188.5t288.5 71q96 0 174 -26.5t129 -74t84 -113.5t39 -145t-6 -168q-22 -145 -110 -278q-80 -122 -202 -185t-275 -63zM297 1151l379 318h204l283 -318h-247l-155 204l-217 -204h-247z
M369 495q-26 -164 34.5 -252t172.5 -88q108 0 196.5 88.5t114.5 251.5q26 165 -34.5 253t-169.5 88q-110 0 -199 -88t-115 -253z" />
    <glyph glyph-name="otilde" unicode="&#xf5;" horiz-adv-x="1101" 
d="M546 -31q-109 0 -193.5 33t-135.5 87q-135 147 -94 406q24 150 99 267.5t202.5 188.5t288.5 71q96 0 174 -26.5t129 -74t84 -113.5t39 -145t-6 -168q-22 -145 -110 -278q-80 -122 -202 -185t-275 -63zM292 1244q145 165 317 165q73 0 162 -52q88 -52 126 -52
q97 0 184 107l114 -96q-147 -172 -318 -172q-74 0 -160 53q-86 52 -126 52q-45 0 -95.5 -29t-85.5 -74zM369 495q-26 -164 34.5 -252t172.5 -88q108 0 196.5 88.5t114.5 251.5q26 165 -34.5 253t-169.5 88q-110 0 -199 -88t-115 -253z" />
    <glyph glyph-name="odieresis" unicode="&#xf6;" horiz-adv-x="1101" 
d="M546 -31q-109 0 -193.5 33t-135.5 87q-135 147 -94 406q24 150 99 267.5t202.5 188.5t288.5 71q96 0 174 -26.5t129 -74t84 -113.5t39 -145t-6 -168q-22 -145 -110 -278q-80 -122 -202 -185t-275 -63zM369 495q-26 -164 34.5 -252t172.5 -88q108 0 196.5 88.5
t114.5 251.5q26 165 -34.5 253t-169.5 88q-110 0 -199 -88t-115 -253zM390 1203l34 218h256l-34 -218h-256zM835 1203l34 218h252l-34 -218h-252z" />
    <glyph glyph-name="divide" unicode="&#xf7;" horiz-adv-x="1505" 
d="M234 503l30 189h1197l-30 -189h-1197zM616 167l43 268h327l-43 -268h-327zM711 762l43 271h327l-43 -271h-327z" />
    <glyph glyph-name="oslash" unicode="&#xf8;" horiz-adv-x="1098" 
d="M224 80q-143 146 -101 415q24 150 99 267t202.5 187.5t288.5 70.5q115 0 202 -37l96 126h183l-155 -209q133 -143 91 -405q-23 -151 -107 -278q-80 -122 -202 -185t-275 -63q-112 0 -199 33l-79 -107h-184zM369 495q-20 -124 19 -207l398 521q-45 27 -103 27
q-110 0 -199 -88t-115 -253zM479 176q43 -21 97 -21q108 0 196.5 88.5t114.5 251.5q19 116 -16 194z" />
    <glyph glyph-name="ugrave" unicode="&#xf9;" horiz-adv-x="1068" 
d="M452 -31q-134 0 -231 77q-51 41 -71 122t-2 191l100 633h240l-96 -606q-36 -231 142 -231q105 0 180 81t94 200l88 556h238l-157 -992h-229l18 115h-3q-39 -59 -123 -102.5t-188 -43.5zM424 1475h290l165 -324h-203z" />
    <glyph glyph-name="uacute" unicode="&#xfa;" horiz-adv-x="1068" 
d="M452 -31q-134 0 -231 77q-51 41 -71 122t-2 191l100 633h240l-96 -606q-36 -231 142 -231q105 0 180 81t94 200l88 556h238l-157 -992h-229l18 115h-3q-39 -59 -123 -102.5t-188 -43.5zM551 1151l267 324h290l-355 -324h-202z" />
    <glyph glyph-name="ucircumflex" unicode="&#xfb;" horiz-adv-x="1073" 
d="M452 -31q-134 0 -231 77q-51 41 -71 122t-2 191l100 633h240l-96 -606q-36 -231 142 -231q105 0 180 81t94 200l88 556h238l-157 -992h-229l18 115h-3q-39 -59 -123 -102.5t-188 -43.5zM297 1151l377 318h205l285 -318h-249l-153 204l-217 -204h-248z" />
    <glyph glyph-name="udieresis" unicode="&#xfc;" horiz-adv-x="1068" 
d="M452 -31q-134 0 -231 77q-51 41 -71 122t-2 191l100 633h240l-96 -606q-36 -231 142 -231q105 0 180 81t94 200l88 556h238l-157 -992h-229l18 115h-3q-39 -59 -123 -102.5t-188 -43.5zM396 1203l34 218h252l-34 -218h-252zM837 1203l34 218h252l-34 -218h-252z" />
    <glyph glyph-name="yacute" unicode="&#xfd;" horiz-adv-x="1038" 
d="M517 1151l268 324h290l-355 -324h-203zM51 -406l29 183h34q87 0 145.5 34t102.5 116l53 98l-256 967h263l142 -739h8l359 739h262l-632 -1122q-81 -147 -185.5 -211.5t-249.5 -64.5h-75z" />
    <glyph glyph-name="thorn" unicode="&#xfe;" horiz-adv-x="1117" 
d="M27 -406l286 1809h238l-84 -531q39 63 125 105.5t176 42.5q207 0 314 -141.5t69 -381.5q-21 -135 -78.5 -240t-138.5 -167q-157 -121 -333 -121q-101 0 -166 42t-88 102l-82 -519h-238zM405 497q-25 -155 29 -248.5t164 -93.5q118 0 199.5 90t107.5 252q25 158 -28 248.5
t-172 90.5q-110 0 -193 -93t-107 -246z" />
    <glyph glyph-name="ydieresis" unicode="&#xff;" horiz-adv-x="1038" 
d="M356 1203l34 218h253l-34 -218h-253zM51 -406l29 183h34q87 0 145.5 34t102.5 116l53 98l-256 967h263l142 -739h8l359 739h262l-632 -1122q-81 -147 -185.5 -211.5t-249.5 -64.5h-75zM798 1203l34 218h252l-34 -218h-252z" />
    <glyph glyph-name="Amacron" unicode="&#x100;" 
d="M15 0l757 1358h274l325 -1358h-264l-72 336h-580l-175 -336h-265zM552 518h445l-118 622h-11zM571 1539l23 149h729l-23 -149h-729z" />
    <glyph glyph-name="amacron" unicode="&#x101;" horiz-adv-x="1061" 
d="M416 -31q-178 0 -268 80t-69 211q45 279 510 342q179 23 242 41l8 52q11 72 -39 114t-144 42q-179 0 -332 -135l-128 114q101 91 227.5 141.5t256.5 50.5q236 0 328 -104t60 -303l-97 -615h-234l20 124q-46 -66 -139.5 -110.5t-201.5 -44.5zM323 278q-9 -56 34 -92
t122 -36q116 0 206 69.5t107 179.5l15 91q-89 -19 -215 -36q-246 -34 -269 -176zM338 1204l23 150h728l-23 -150h-728z" />
    <glyph glyph-name="Abreve" unicode="&#x102;" 
d="M15 0l757 1358h274l325 -1358h-264l-72 336h-580l-175 -336h-265zM552 518h445l-118 622h-11zM631 1772h178q-4 -61 34 -100t107 -39q70 0 120.5 39t66.5 100h177q-12 -55 -42 -104.5t-77 -89.5t-116.5 -63.5t-151.5 -23.5q-89 0 -154 26t-94 71q-61 90 -48 184z" />
    <glyph glyph-name="abreve" unicode="&#x103;" horiz-adv-x="1061" 
d="M416 -31q-178 0 -268 80t-69 211q45 279 510 342q179 23 242 41l8 52q11 72 -39 114t-144 42q-179 0 -332 -135l-128 114q101 91 227.5 141.5t256.5 50.5q236 0 328 -104t60 -303l-97 -615h-234l20 124q-46 -66 -139.5 -110.5t-201.5 -44.5zM323 278q-9 -56 34 -92
t122 -36q116 0 206 69.5t107 179.5l15 91q-89 -19 -215 -36q-246 -34 -269 -176zM396 1430h177q-3 -61 34.5 -99.5t107.5 -38.5t121 39.5t64 98.5h180q-25 -118 -125 -199.5t-263 -81.5q-88 0 -152 26.5t-95 71.5q-60 85 -49 183z" />
    <glyph glyph-name="Aogonek" unicode="&#x104;" horiz-adv-x="1361" 
d="M15 0l757 1358h274l325 -1358h-44q-99 -46 -165.5 -96.5t-72.5 -90.5q-5 -32 12 -47.5t56 -15.5q48 0 128 19l-21 -138q-76 -22 -179 -22q-114 0 -170.5 44t-44.5 119q11 66 77 127t159 104l-71 333h-580l-175 -336h-265zM552 518h445l-118 622h-11z" />
    <glyph glyph-name="aogonek" unicode="&#x105;" horiz-adv-x="1037" 
d="M416 -31q-178 0 -268 80t-69 211q45 279 510 342q179 23 242 41l8 52q11 72 -39 114t-144 42q-179 0 -332 -135l-128 114q101 91 227.5 141.5t256.5 50.5q236 0 328 -104t60 -303l-97 -615h-13q-98 -47 -164.5 -97t-72.5 -90q-5 -32 12 -47.5t57 -15.5q46 0 126 19
l-21 -138q-76 -22 -178 -22q-114 0 -171.5 44t-45.5 119q10 65 77 125.5t160 105.5l20 121q-46 -66 -139.5 -110.5t-201.5 -44.5zM323 278q-9 -56 34 -92t122 -36q116 0 206 69.5t107 179.5l15 91q-89 -19 -215 -36q-246 -34 -269 -176z" />
    <glyph glyph-name="Cacute" unicode="&#x106;" horiz-adv-x="1362" 
d="M729 -31q-144 0 -258.5 49.5t-188.5 140t-102.5 225t-2.5 296.5q34 214 144 375.5t274 247.5t359 86q182 0 305 -90.5t169 -236.5l-224 -64q-90 197 -286 197q-185 0 -315.5 -139.5t-168.5 -375.5q-38 -237 49.5 -376.5t271.5 -139.5q116 0 218.5 63t161.5 161l214 -63
q-77 -129 -220 -232q-80 -57 -184 -90.5t-216 -33.5zM818 1491l268 325h290l-355 -325h-203z" />
    <glyph glyph-name="cacute" unicode="&#x107;" horiz-adv-x="1035" 
d="M546 -31q-226 0 -343 144t-80 382q38 237 201.5 382t388.5 145q155 0 255.5 -86.5t111.5 -207.5l-214 -52q-12 69 -61 114.5t-121 45.5q-120 0 -205.5 -95.5t-109.5 -245.5q-25 -158 33.5 -249t174.5 -91q80 0 152 50.5t108 121.5l198 -55q-58 -125 -195.5 -214
t-293.5 -89zM586 1151l268 324h290l-354 -324h-204z" />
    <glyph glyph-name="Cdotaccent" unicode="&#x10a;" horiz-adv-x="1362" 
d="M729 -31q-144 0 -258.5 49.5t-188.5 140t-102.5 225t-2.5 296.5q34 214 144 375.5t274 247.5t359 86q182 0 305 -90.5t169 -236.5l-224 -64q-90 197 -286 197q-185 0 -315.5 -139.5t-168.5 -375.5q-38 -237 49.5 -376.5t271.5 -139.5q116 0 218.5 63t161.5 161l214 -63
q-77 -129 -220 -232q-80 -57 -184 -90.5t-216 -33.5zM838 1530l35 221h258l-35 -221h-258z" />
    <glyph glyph-name="cdotaccent" unicode="&#x10b;" horiz-adv-x="1035" 
d="M546 -31q-226 0 -343 144t-80 382q38 237 201.5 382t388.5 145q155 0 255.5 -86.5t111.5 -207.5l-214 -52q-12 69 -61 114.5t-121 45.5q-120 0 -205.5 -95.5t-109.5 -245.5q-25 -158 33.5 -249t174.5 -91q80 0 152 50.5t108 121.5l198 -55q-58 -125 -195.5 -214
t-293.5 -89zM601 1203l35 221h260l-35 -221h-260z" />
    <glyph glyph-name="Ccaron" unicode="&#x10c;" horiz-adv-x="1362" 
d="M729 -31q-144 0 -258.5 49.5t-188.5 140t-102.5 225t-2.5 296.5q34 214 144 375.5t274 247.5t359 86q182 0 305 -90.5t169 -236.5l-224 -64q-90 197 -286 197q-185 0 -315.5 -139.5t-168.5 -375.5q-38 -237 49.5 -376.5t271.5 -139.5q116 0 218.5 63t161.5 161l214 -63
q-77 -129 -220 -232q-80 -57 -184 -90.5t-216 -33.5zM595 1794h235l144 -188l213 188h232l-360 -303h-208z" />
    <glyph glyph-name="ccaron" unicode="&#x10d;" horiz-adv-x="1035" 
d="M546 -31q-226 0 -343 144t-80 382q38 237 201.5 382t388.5 145q155 0 255.5 -86.5t111.5 -207.5l-214 -52q-12 69 -61 114.5t-121 45.5q-120 0 -205.5 -95.5t-109.5 -245.5q-25 -158 33.5 -249t174.5 -91q80 0 152 50.5t108 121.5l198 -55q-58 -125 -195.5 -214
t-293.5 -89zM359 1454h236l144 -189l212 189h232l-360 -303h-206z" />
    <glyph glyph-name="Dcaron" unicode="&#x10e;" horiz-adv-x="1316" 
d="M96 0l215 1358h444q340 0 495.5 -175.5t103.5 -502.5q-38 -234 -160 -393q-65 -88 -155 -150q-196 -137 -501 -137h-442zM375 190h164q478 0 556 490q40 253 -63.5 369.5t-333.5 116.5h-168zM430 1794h235l144 -188l210 188h234l-360 -303h-207z" />
    <glyph glyph-name="dcaron" unicode="&#x10f;" horiz-adv-x="1563" 
d="M503 -31q-174 0 -293 120q-61 61 -84 167t-2 241q38 240 190.5 382.5t358.5 142.5q92 0 157.5 -40t94.5 -101l82 522h240l-222 -1403h-231l20 128q-47 -66 -133.5 -112.5t-177.5 -46.5zM370 497q-25 -160 29.5 -251t167.5 -91q111 0 194 92.5t108 249.5
q24 154 -28.5 246.5t-166.5 92.5q-117 0 -198.5 -92t-105.5 -247zM1228 1006l157 376h249l-237 -376h-169z" />
    <glyph glyph-name="Dcroat" unicode="&#x110;" horiz-adv-x="1312" 
d="M92 0l94 596h-190l29 179h190l92 583h444q340 0 495.5 -175.5t103.5 -502.5q-38 -234 -160 -393q-65 -88 -155 -150q-196 -137 -501 -137h-442zM371 190h164q478 0 556 490q40 253 -63.5 369.5t-333.5 116.5h-168l-62 -391h337l-29 -179h-337z" />
    <glyph glyph-name="dcroat" unicode="&#x111;" horiz-adv-x="1064" 
d="M501 -31q-96 0 -173.5 34t-131 97.5t-74 163.5t-0.5 224q38 240 189.5 377.5t353.5 137.5q93 0 162.5 -38.5t94.5 -97.5l37 229h-418l26 166h418l22 141h240l-22 -141h118l-26 -166h-118l-174 -1096h-233l20 128q-52 -71 -135 -115t-176 -44zM368 488q-24 -156 31 -244.5
t168 -88.5q111 0 193.5 91t106.5 242q23 147 -31.5 238t-167.5 91q-109 0 -192.5 -90.5t-107.5 -238.5z" />
    <glyph glyph-name="Emacron" unicode="&#x112;" horiz-adv-x="1181" 
d="M96 0l215 1358h981l-31 -194h-732l-58 -367h661l-30 -191h-661l-66 -414h751l-30 -192h-1000zM461 1543l24 148h731l-24 -148h-731z" />
    <glyph glyph-name="emacron" unicode="&#x113;" horiz-adv-x="1091" 
d="M558 -31q-230 0 -351 145t-83 386q38 236 204 379t389 143q216 0 333 -143t81 -370q-7 -42 -20 -89h-757q-19 -116 45.5 -196t189.5 -80q90 0 166 39t124 105l190 -61q-74 -116 -207 -187t-304 -71zM376 1208l24 150h729l-24 -150h-729zM382 573h515q19 117 -37 195
t-171 78q-117 0 -202.5 -79.5t-104.5 -193.5z" />
    <glyph glyph-name="Edotaccent" unicode="&#x116;" horiz-adv-x="1181" 
d="M96 0l215 1358h981l-31 -194h-732l-58 -367h661l-30 -191h-661l-66 -414h751l-30 -192h-1000zM697 1530l35 221h259l-35 -221h-259z" />
    <glyph glyph-name="edotaccent" unicode="&#x117;" horiz-adv-x="1091" 
d="M558 -31q-230 0 -351 145t-83 386q38 236 204 379t389 143q216 0 333 -143t81 -370q-7 -42 -20 -89h-757q-19 -116 45.5 -196t189.5 -80q90 0 166 39t124 105l190 -61q-74 -116 -207 -187t-304 -71zM382 573h515q19 117 -37 195t-171 78q-117 0 -202.5 -79.5
t-104.5 -193.5zM610 1203l35 221h259l-35 -221h-259z" />
    <glyph glyph-name="Eogonek" unicode="&#x118;" horiz-adv-x="1156" 
d="M96 0l215 1358h981l-31 -194h-732l-58 -367h661l-30 -191h-661l-66 -414h751l-30 -192h-212q-99 -46 -165.5 -96.5t-72.5 -90.5q-5 -32 12.5 -47.5t57.5 -15.5q44 0 126 19l-21 -138q-76 -22 -179 -22q-113 0 -170.5 44t-45.5 119q10 64 74.5 123.5t155.5 104.5h-560z
" />
    <glyph glyph-name="eogonek" unicode="&#x119;" horiz-adv-x="1091" 
d="M508 -390q-113 0 -170 44t-45 120q18 106 180 201q-191 27 -287 167.5t-62 357.5q38 236 204 379t389 143q216 0 333 -143t81 -370q-7 -42 -20 -89h-757q-19 -116 45.5 -196t189.5 -80q90 0 166 39t124 105l190 -61q-120 -184 -349 -240q-87 -44 -144 -89.5t-63 -82.5
q-5 -32 12 -48t57 -16q46 0 128 19l-22 -138q-78 -22 -180 -22zM382 573h515q19 117 -37 195t-171 78q-117 0 -202.5 -79.5t-104.5 -193.5z" />
    <glyph glyph-name="Ecaron" unicode="&#x11a;" horiz-adv-x="1181" 
d="M96 0l215 1358h981l-31 -194h-732l-58 -367h661l-30 -191h-661l-66 -414h751l-30 -192h-1000zM461 1794h234l144 -188l211 188h234l-361 -303h-206z" />
    <glyph glyph-name="ecaron" unicode="&#x11b;" horiz-adv-x="1091" 
d="M558 -31q-230 0 -351 145t-83 386q38 236 204 379t389 143q216 0 333 -143t81 -370q-7 -42 -20 -89h-757q-19 -116 45.5 -196t189.5 -80q90 0 166 39t124 105l190 -61q-74 -116 -207 -187t-304 -71zM370 1454h235l146 -189l211 189h233l-361 -303h-207zM382 573h515
q19 117 -37 195t-171 78q-117 0 -202.5 -79.5t-104.5 -193.5z" />
    <glyph glyph-name="Gbreve" unicode="&#x11e;" horiz-adv-x="1403" 
d="M723 -31q-141 0 -254.5 51t-186.5 142t-101.5 225t-3.5 293q33 207 141 367.5t276.5 251t370.5 90.5q112 0 205.5 -33t150.5 -89q100 -98 135 -201l-223 -65q-39 62 -61 92q-30 40 -95 71t-141 31q-196 0 -330.5 -139.5t-171.5 -375.5q-38 -236 52.5 -376t274.5 -140
q153 0 256.5 80.5t136.5 210.5q18 77 24 111h-368l30 193h610l-120 -759h-172l-1 140q-150 -171 -434 -171zM672 1772h179q-5 -61 32.5 -100t107.5 -39t120.5 39t66.5 100h177q-16 -75 -61.5 -136.5t-130.5 -103t-195 -41.5q-182 0 -248 97q-59 85 -48 184z" />
    <glyph glyph-name="gbreve" unicode="&#x11f;" horiz-adv-x="1095" 
d="M448 -412q-274 0 -396 192l175 101q91 -118 251 -118q105 0 184.5 72t103.5 190q16 74 23 112q-47 -56 -124.5 -92t-157.5 -36q-207 0 -312 138t-69 365q36 229 184.5 369.5t348.5 140.5q93 0 157.5 -43t87.5 -103l18 116h239l-135 -855q-44 -279 -186.5 -414
t-391.5 -135zM370 515q-24 -151 27.5 -236t161.5 -85q109 0 185 83.5t100 237.5q24 151 -25.5 236t-155.5 85q-111 0 -190.5 -87.5t-102.5 -233.5zM411 1430h178q-3 -61 35.5 -99.5t106.5 -38.5q69 0 119.5 39.5t66.5 98.5h177q-24 -118 -123.5 -199.5t-262.5 -81.5
q-88 0 -153 26.5t-95 71.5q-62 90 -49 183z" />
    <glyph glyph-name="Gdotaccent" unicode="&#x120;" horiz-adv-x="1403" 
d="M723 -31q-141 0 -254.5 51t-186.5 142t-101.5 225t-3.5 293q33 207 141 367.5t276.5 251t370.5 90.5q112 0 205.5 -33t150.5 -89q100 -98 135 -201l-223 -65q-39 62 -61 92q-30 40 -95 71t-141 31q-196 0 -330.5 -139.5t-171.5 -375.5q-38 -236 52.5 -376t274.5 -140
q153 0 256.5 80.5t136.5 210.5q18 77 24 111h-368l30 193h610l-120 -759h-172l-1 140q-150 -171 -434 -171zM863 1530l35 221h259l-35 -221h-259z" />
    <glyph glyph-name="gdotaccent" unicode="&#x121;" horiz-adv-x="1095" 
d="M448 -412q-274 0 -396 192l175 101q91 -118 251 -118q105 0 184.5 72t103.5 190q16 74 23 112q-47 -56 -124.5 -92t-157.5 -36q-207 0 -312 138t-69 365q36 229 184.5 369.5t348.5 140.5q93 0 157.5 -43t87.5 -103l18 116h239l-135 -855q-44 -279 -186.5 -414
t-391.5 -135zM370 515q-24 -151 27.5 -236t161.5 -85q109 0 185 83.5t100 237.5q24 151 -25.5 236t-155.5 85q-111 0 -190.5 -87.5t-102.5 -233.5zM603 1203l35 221h260l-35 -221h-260z" />
    <glyph glyph-name="uni0122" unicode="&#x122;" horiz-adv-x="1403" 
d="M723 -31q-141 0 -254.5 51t-186.5 142t-101.5 225t-3.5 293q33 207 141 367.5t276.5 251t370.5 90.5q112 0 205.5 -33t150.5 -89q100 -98 135 -201l-223 -65q-39 62 -61 92q-30 40 -95 71t-141 31q-196 0 -330.5 -139.5t-171.5 -375.5q-38 -236 52.5 -376t274.5 -140
q153 0 256.5 80.5t136.5 210.5q18 77 24 111h-368l30 193h610l-120 -759h-172l-1 140q-150 -171 -434 -171zM502 -464l144 355h260l-238 -355h-166z" />
    <glyph glyph-name="uni0123" unicode="&#x123;" horiz-adv-x="1095" 
d="M446 -412q-131 0 -235 50t-161 142l174 101q90 -118 254 -118q107 0 183.5 70.5t103.5 189.5q21 102 24 114q-46 -57 -123.5 -92.5t-158.5 -35.5q-207 0 -312 138.5t-68 367.5q36 228 184 366.5t346 138.5q96 0 160 -42t87 -102l18 116h239l-135 -855
q-44 -279 -186.5 -414t-393.5 -135zM370 515q-24 -150 28 -235.5t159 -85.5q111 0 186.5 83t100.5 238q24 152 -26 236.5t-158 84.5q-109 0 -188 -86t-102 -235zM577 1154l239 350h163l-142 -350h-260z" />
    <glyph glyph-name="Hbar" unicode="&#x126;" horiz-adv-x="1479" 
d="M189 0l160 1008h-150l28 179h150l27 171h247l-27 -171h606l27 171h248l-27 -171h150l-28 -179h-150l-160 -1008h-248l96 603h-606l-96 -603h-247zM562 794h606l34 214h-606z" />
    <glyph glyph-name="hbar" unicode="&#x127;" horiz-adv-x="995" 
d="M14 0l174 1098h-135l26 164h135l22 141h236l-22 -141h398l-26 -164h-398l-40 -253h1q54 57 137 94.5t169 37.5q136 0 228 -73q52 -42 74 -122.5t5 -188.5l-94 -593h-242l90 566q35 224 -137 224q-100 0 -182.5 -79.5t-99.5 -188.5l-83 -522h-236z" />
    <glyph glyph-name="Imacron" unicode="&#x12a;" horiz-adv-x="524" 
d="M140 0l215 1358h249l-215 -1358h-249zM144 1539l23 149h727l-23 -149h-727z" />
    <glyph glyph-name="imacron" unicode="&#x12b;" horiz-adv-x="511" 
d="M132 0l157 992h238l-157 -992h-238zM82 1208l24 150h729l-24 -150h-729z" />
    <glyph glyph-name="Iogonek" unicode="&#x12e;" horiz-adv-x="531" 
d="M201 -388q-113 0 -170 44.5t-45 119.5q10 64 72.5 122.5t152.5 103.5l215 1356h249l-215 -1358h-26q-215 -107 -228 -184q-5 -31 12 -47t56 -16q46 0 128 19l-22 -138q-76 -22 -179 -22z" />
    <glyph glyph-name="iogonek" unicode="&#x12f;" horiz-adv-x="509" 
d="M146 -388q-115 0 -172.5 44.5t-45.5 119.5q10 65 75.5 125t158.5 104l156 987h236l-157 -992h-18q-217 -107 -230 -184q-11 -63 69 -63q46 0 125 19l-22 -138q-73 -22 -175 -22zM330 1139l38 238h257l-38 -238h-257z" />
    <glyph glyph-name="Idotaccent" unicode="&#x130;" horiz-adv-x="432" 
d="M96 0l215 1358h249l-215 -1358h-249zM329 1530l35 221h261l-35 -221h-261z" />
    <glyph glyph-name="dotlessi" unicode="&#x131;" horiz-adv-x="420" 
d="M91 0l157 992h238l-157 -992h-238z" />
    <glyph glyph-name="IJ" unicode="&#x132;" horiz-adv-x="1547" 
d="M943 -31q-164 0 -259.5 79t-114.5 205l217 76q13 -75 60.5 -120t123.5 -45q93 0 155 65t81 187l149 942h250l-154 -972q-32 -199 -163.5 -308t-344.5 -109zM170 0l215 1358h249l-215 -1358h-249z" />
    <glyph glyph-name="ij" unicode="&#x133;" horiz-adv-x="1105" 
d="M467 -390l30 185h37q150 0 180 192l159 1005h240l-160 -1012q-29 -184 -133 -277t-275 -93h-78zM156 0l157 992h236l-157 -992h-236zM325 1139l38 238h257l-38 -238h-257zM884 1139l38 238h262l-38 -238h-262z" />
    <glyph glyph-name="uni0136" unicode="&#x136;" horiz-adv-x="1257" 
d="M96 0l215 1358h249l-97 -615h4l678 615h316l-674 -593l474 -765h-301l-355 605l-191 -171l-69 -434h-249zM352 -420l145 355h259l-238 -355h-166z" />
    <glyph glyph-name="uni0137" unicode="&#x137;" horiz-adv-x="1016" 
d="M91 0l222 1403h238l-128 -807l451 396h302l-468 -405l335 -587h-281l-234 434l-151 -130l-48 -304h-238zM264 -420l145 355h260l-239 -355h-166z" />
    <glyph glyph-name="Lacute" unicode="&#x139;" horiz-adv-x="1070" 
d="M96 0l215 1358h249l-185 -1166h678l-30 -192h-927zM337 1475l266 325h290l-354 -325h-202z" />
    <glyph glyph-name="lacute" unicode="&#x13a;" horiz-adv-x="533" 
d="M127 0l222 1403h239l-222 -1403h-239zM325 1475l267 325h288l-354 -325h-201z" />
    <glyph glyph-name="uni013B" unicode="&#x13b;" horiz-adv-x="1070" 
d="M96 0l215 1358h249l-185 -1166h678l-30 -192h-927zM281 -464l146 355h259l-239 -355h-166z" />
    <glyph glyph-name="uni013C" unicode="&#x13c;" horiz-adv-x="453" 
d="M112 0l222 1403h239l-222 -1403h-239zM-60 -464l146 355h259l-238 -355h-167z" />
    <glyph glyph-name="Lcaron" unicode="&#x13d;" horiz-adv-x="1528" 
d="M96 0l215 1358h249l-185 -1166h678l-30 -192h-927zM714 983l155 375h248l-235 -375h-168z" />
    <glyph glyph-name="lcaron" unicode="&#x13e;" horiz-adv-x="873" 
d="M91 0l222 1403h239l-222 -1403h-239zM554 1006l158 376h248l-237 -376h-169z" />
    <glyph glyph-name="Lslash" unicode="&#x141;" horiz-adv-x="1231" 
d="M284 0l76 483l-189 -100l-88 165l313 162l103 648h249l-80 -507l229 121l88 -165l-353 -185l-69 -430h678l-30 -192h-927z" />
    <glyph glyph-name="lslash" unicode="&#x142;" horiz-adv-x="708" 
d="M235 0l83 522l-186 -94l-87 167l309 155l103 653h240l-82 -522l185 93l83 -167l-305 -156l-103 -651h-240z" />
    <glyph glyph-name="Nacute" unicode="&#x143;" horiz-adv-x="1303" 
d="M755 1491l268 325h290l-355 -325h-203zM96 0l215 1358h260l444 -992l157 992h250l-215 -1358h-262l-444 982l-156 -982h-249z" />
    <glyph glyph-name="nacute" unicode="&#x144;" horiz-adv-x="1076" 
d="M91 0l157 992h234l-20 -127h1q42 63 129.5 110t198.5 47q170 0 248 -94.5t47 -290.5l-101 -637h-242l96 608q36 228 -133 228q-104 0 -185.5 -75.5t-98.5 -187.5l-91 -573h-240zM546 1151l267 324h291l-355 -324h-203z" />
    <glyph glyph-name="uni0145" unicode="&#x145;" horiz-adv-x="1303" 
d="M393 -464l145 355h261l-239 -355h-167zM96 0l215 1358h260l444 -992l157 992h250l-215 -1358h-262l-444 982l-156 -982h-249z" />
    <glyph glyph-name="uni0146" unicode="&#x146;" horiz-adv-x="1076" 
d="M91 0l157 992h234l-20 -127h1q42 63 129.5 110t198.5 47q170 0 248 -94.5t47 -290.5l-101 -637h-242l96 608q36 228 -133 228q-104 0 -185.5 -75.5t-98.5 -187.5l-91 -573h-240zM295 -464l145 355h259l-237 -355h-167z" />
    <glyph glyph-name="Ncaron" unicode="&#x147;" horiz-adv-x="1303" 
d="M530 1794h235l144 -188l212 188h233l-359 -303h-208zM96 0l215 1358h260l444 -992l157 992h250l-215 -1358h-262l-444 982l-156 -982h-249z" />
    <glyph glyph-name="ncaron" unicode="&#x148;" horiz-adv-x="1076" 
d="M91 0l157 992h234l-20 -127h1q42 63 129.5 110t198.5 47q170 0 248 -94.5t47 -290.5l-101 -637h-242l96 608q36 228 -133 228q-104 0 -185.5 -75.5t-98.5 -187.5l-91 -573h-240zM372 1454h235l143 -189l213 189h232l-359 -303h-207z" />
    <glyph glyph-name="Omacron" unicode="&#x14c;" horiz-adv-x="1424" 
d="M709 -31q-293 0 -438 194t-95 515q51 321 258 516t500 195q192 0 323.5 -88t184.5 -249t19 -374q-50 -320 -257 -514.5t-495 -194.5zM433 678q-38 -238 44.5 -376t262.5 -138q178 0 303 137.5t162 376.5q38 239 -42.5 378t-259.5 139q-180 0 -306 -139t-164 -378z
M586 1539l23 149h729l-23 -149h-729z" />
    <glyph glyph-name="omacron" unicode="&#x14d;" horiz-adv-x="1101" 
d="M546 -31q-109 0 -193.5 33t-135.5 87q-135 147 -94 406q24 150 99 267.5t202.5 188.5t288.5 71q96 0 174 -26.5t129 -74t84 -113.5t39 -145t-6 -168q-22 -145 -110 -278q-80 -122 -202 -185t-275 -63zM369 495q-26 -164 34.5 -252t172.5 -88q108 0 196.5 88.5
t114.5 251.5q26 165 -34.5 253t-169.5 88q-110 0 -199 -88t-115 -253zM376 1206l24 149h729l-24 -149h-729z" />
    <glyph glyph-name="Ohungarumlaut" unicode="&#x150;" horiz-adv-x="1424" 
d="M709 -31q-293 0 -438 194t-95 515q51 321 258 516t500 195q192 0 323.5 -88t184.5 -249t19 -374q-50 -320 -257 -514.5t-495 -194.5zM433 678q-38 -238 44.5 -376t262.5 -138q178 0 303 137.5t162 376.5q38 239 -42.5 378t-259.5 139q-180 0 -306 -139t-164 -378z
M610 1493l259 339h267l-322 -339h-204zM970 1493l259 339h267l-323 -339h-203z" />
    <glyph glyph-name="ohungarumlaut" unicode="&#x151;" horiz-adv-x="1107" 
d="M546 -31q-109 0 -193.5 33t-135.5 87q-135 147 -94 406q24 150 99 267.5t202.5 188.5t288.5 71q96 0 174 -26.5t129 -74t84 -113.5t39 -145t-6 -168q-22 -145 -110 -278q-80 -122 -202 -185t-275 -63zM369 495q-26 -164 34.5 -252t172.5 -88q108 0 196.5 88.5
t114.5 251.5q26 165 -34.5 253t-169.5 88q-110 0 -199 -88t-115 -253zM412 1151l261 340h265l-321 -340h-205zM772 1151l261 340h264l-321 -340h-204z" />
    <glyph glyph-name="OE" unicode="&#x152;" horiz-adv-x="1998" 
d="M717 -31q-195 0 -329.5 88t-189.5 248.5t-22 372.5q51 321 262 516t504 195q131 0 206 -31h960l-31 -194h-723l-58 -367h651l-30 -191h-651l-66 -414h744l-30 -192h-977q-103 -31 -220 -31zM433 678q-37 -236 48.5 -376.5t265.5 -140.5q114 0 209 62l144 908
q-70 64 -189 64q-183 0 -311.5 -140t-166.5 -377z" />
    <glyph glyph-name="oe" unicode="&#x153;" horiz-adv-x="1852" 
d="M546 -31q-109 0 -193.5 33t-135.5 87q-135 147 -94 406q24 150 99 267.5t202.5 188.5t288.5 71q242 0 356 -159q169 161 409 161q216 0 333 -143t81 -371q-9 -50 -20 -88h-754q0 -3 -2 -7t-2 -7q-12 -111 51.5 -186.5t185.5 -75.5q88 0 164.5 39.5t124.5 104.5l191 -62
q-74 -116 -207 -186.5t-304 -70.5q-246 0 -365 161q-158 -163 -409 -163zM369 495q-26 -164 34.5 -252t172.5 -88q101 0 186 77.5t118 221.5q2 24 6 48q4 25 7 40q11 143 -49.5 218.5t-160.5 75.5q-110 0 -199 -88t-115 -253zM1143 575h516q19 117 -37.5 195t-171.5 78
q-116 0 -201 -79.5t-106 -193.5z" />
    <glyph glyph-name="Racute" unicode="&#x154;" horiz-adv-x="1269" 
d="M96 0l215 1355h594q222 0 337 -113t87 -291q-30 -187 -188 -300q78 -94 63 -280q-6 -73 -7 -125t13.5 -108.5t51.5 -137.5h-278q-34 66 -38.5 141.5t6.5 216.5q9 104 -27.5 143t-166.5 39h-329l-86 -540h-247zM459 719h306q130 0 210 57.5t98 167.5q17 107 -44.5 163.5
t-196.5 56.5h-303zM627 1491l267 325h291l-355 -325h-203z" />
    <glyph glyph-name="racute" unicode="&#x155;" horiz-adv-x="743" 
d="M91 0l157 992h231l-17 -108q49 60 123.5 99t161.5 39q90 0 138 -22l-31 -197q-67 19 -139 19q-121 0 -200.5 -85t-103.5 -231l-80 -506h-240zM417 1151l268 324h290l-354 -324h-204z" />
    <glyph glyph-name="uni0156" unicode="&#x156;" horiz-adv-x="1269" 
d="M96 0l215 1355h594q222 0 337 -113t87 -291q-30 -187 -188 -300q78 -94 63 -280q-6 -73 -7 -125t13.5 -108.5t51.5 -137.5h-278q-34 66 -38.5 141.5t6.5 216.5q9 104 -27.5 143t-166.5 39h-329l-86 -540h-247zM375 -464l145 355h258l-237 -355h-166zM459 719h306
q130 0 210 57.5t98 167.5q17 107 -44.5 163.5t-196.5 56.5h-303z" />
    <glyph glyph-name="uni0157" unicode="&#x157;" horiz-adv-x="729" 
d="M93 0l157 992h229l-17 -108q50 60 124 99t162 39q87 0 137 -22l-31 -197q-66 19 -138 19q-122 0 -200.5 -84.5t-102.5 -231.5l-80 -506h-240zM-58 -464l146 355h260l-239 -355h-167z" />
    <glyph glyph-name="Rcaron" unicode="&#x158;" horiz-adv-x="1269" 
d="M96 0l215 1355h594q222 0 337 -113t87 -291q-30 -187 -188 -300q78 -94 63 -280q-6 -73 -7 -125t13.5 -108.5t51.5 -137.5h-278q-34 66 -38.5 141.5t6.5 216.5q9 104 -27.5 143t-166.5 39h-329l-86 -540h-247zM449 1794h234l144 -188l213 188h232l-360 -303h-206z
M459 719h306q130 0 210 57.5t98 167.5q17 107 -44.5 163.5t-196.5 56.5h-303z" />
    <glyph glyph-name="rcaron" unicode="&#x159;" horiz-adv-x="775" 
d="M125 0l157 992h229l-17 -108q50 60 124 99t162 39q87 0 137 -22l-31 -197q-66 19 -138 19q-122 0 -200.5 -84.5t-102.5 -231.5l-80 -506h-240zM244 1454h237l144 -189l212 189h232l-361 -303h-206z" />
    <glyph glyph-name="Sacute" unicode="&#x15a;" horiz-adv-x="1225" 
d="M632 -31q-204 0 -345 85.5t-193 235.5l231 68q40 -88 132 -141t211 -53q126 0 210 54t98 143q14 88 -51.5 140t-224.5 104q-214 67 -283 105q-187 105 -155 305q26 168 188.5 271t398.5 103q187 0 313.5 -79.5t170.5 -210.5l-222 -64q-94 160 -296 160q-122 0 -202 -49.5
t-93 -130.5q-9 -56 15 -85q2 -3 10.5 -14.5t11 -14.5t9.5 -10.5t14.5 -12l17.5 -10.5q52 -29 101 -47q10 -3 23 -8t21 -7.5t13 -3.5q119 -36 127 -39q166 -52 263 -130q116 -94 89 -264q-30 -187 -195 -293.5t-408 -106.5zM700 1491l268 325h291l-355 -325h-204z" />
    <glyph glyph-name="sacute" unicode="&#x15b;" horiz-adv-x="983" 
d="M510 -31q-158 0 -273 63t-163 175l185 90q90 -151 273 -151q89 0 145.5 31.5t65.5 85.5q6 42 -30 75q-24 21 -56.5 37t-58.5 24.5t-103 31.5q-21 6 -25 7q-117 38 -195 94q-94 65 -73 201q20 128 153 208.5t316 80.5q132 0 242.5 -64t151.5 -164l-172 -88
q-90 139 -249 139q-86 0 -137.5 -31t-59.5 -84q-7 -43 29 -76q8 -7 15 -13.5t17 -12.5t16 -10t19 -9.5t18.5 -8t23 -8.5t23 -8t29 -10t30.5 -10q25 -5 30 -7q321 -99 289 -296q-19 -125 -148 -208.5t-328 -83.5zM499 1151l268 324h291l-356 -324h-203z" />
    <glyph glyph-name="Scedilla" unicode="&#x15e;" horiz-adv-x="1225" 
d="M513 -409q-88 0 -185 23l21 136q106 -21 178 -21q52 0 94 17.5t48 51.5q11 63 -207 63l51 116q-158 23 -267 105t-152 208l231 68q40 -88 132 -141t211 -53q126 0 210 54t98 143q14 88 -51.5 140t-224.5 104q-214 67 -283 105q-187 105 -155 305q26 168 188.5 271
t398.5 103q187 0 313.5 -79.5t170.5 -210.5l-222 -64q-94 160 -296 160q-122 0 -202 -49.5t-93 -130.5q-9 -56 15 -85q2 -3 10.5 -14.5t11 -14.5t9.5 -10.5t14.5 -12l17.5 -10.5q52 -29 101 -47q10 -3 23 -8t21 -7.5t13 -3.5q119 -36 127 -39q166 -52 263 -130
q116 -94 89 -264q-27 -168 -164.5 -272t-345.5 -124l-18 -37q80 -12 119 -52.5t29 -101.5q-13 -82 -101.5 -136.5t-240.5 -54.5z" />
    <glyph glyph-name="scedilla" unicode="&#x15f;" horiz-adv-x="983" 
d="M369 -409q-87 0 -182 23l21 136q106 -21 176 -21q53 0 95 17.5t48 51.5q11 63 -207 63l53 122q-107 22 -184 80t-115 144l185 90q90 -151 273 -151q89 0 145.5 31.5t65.5 85.5q6 42 -30 75q-24 21 -56.5 37t-58.5 24.5t-103 31.5q-21 6 -25 7q-117 38 -195 94
q-94 65 -73 201q20 128 153 208.5t316 80.5q132 0 242.5 -64t151.5 -164l-172 -88q-90 139 -249 139q-86 0 -137.5 -31t-59.5 -84q-7 -43 29 -76q8 -7 15 -13.5t17 -12.5t16 -10t19 -9.5t18.5 -8t23 -8.5t23 -8t29 -10t30.5 -10q25 -5 30 -7q321 -99 289 -296
q-18 -113 -126 -193.5t-279 -95.5l-17 -36q80 -12 120 -52.5t30 -101.5q-13 -83 -102 -137t-243 -54z" />
    <glyph glyph-name="Scaron" unicode="&#x160;" horiz-adv-x="1225" 
d="M632 -31q-204 0 -345 85.5t-193 235.5l231 68q40 -88 132 -141t211 -53q126 0 210 54t98 143q14 88 -51.5 140t-224.5 104q-214 67 -283 105q-187 105 -155 305q26 168 188.5 271t398.5 103q187 0 313.5 -79.5t170.5 -210.5l-222 -64q-94 160 -296 160q-122 0 -202 -49.5
t-93 -130.5q-9 -56 15 -85q2 -3 10.5 -14.5t11 -14.5t9.5 -10.5t14.5 -12l17.5 -10.5q52 -29 101 -47q10 -3 23 -8t21 -7.5t13 -3.5q119 -36 127 -39q166 -52 263 -130q116 -94 89 -264q-30 -187 -195 -293.5t-408 -106.5zM508 1794h235l146 -188l210 188h234l-361 -303
h-207z" />
    <glyph glyph-name="scaron" unicode="&#x161;" horiz-adv-x="983" 
d="M510 -31q-158 0 -273 63t-163 175l185 90q90 -151 273 -151q89 0 145.5 31.5t65.5 85.5q6 42 -30 75q-24 21 -56.5 37t-58.5 24.5t-103 31.5q-21 6 -25 7q-117 38 -195 94q-94 65 -73 201q20 128 153 208.5t316 80.5q132 0 242.5 -64t151.5 -164l-172 -88
q-90 139 -249 139q-86 0 -137.5 -31t-59.5 -84q-7 -43 29 -76q8 -7 15 -13.5t17 -12.5t16 -10t19 -9.5t18.5 -8t23 -8.5t23 -8t29 -10t30.5 -10q25 -5 30 -7q321 -99 289 -296q-19 -125 -148 -208.5t-328 -83.5zM320 1454h235l144 -189l211 189h233l-359 -303h-207z" />
    <glyph glyph-name="uni0162" unicode="&#x162;" horiz-adv-x="1194" 
d="M473 0l184 1164h-434l31 194h1116l-31 -194h-434l-184 -1164h-31l-30 -64q80 -12 120.5 -53t30.5 -101q-13 -82 -103 -136.5t-242 -54.5q-87 0 -184 23l21 136q107 -21 177 -21q53 0 96 17.5t49 51.5q5 31 -47 47t-162 16l62 139h-5z" />
    <glyph glyph-name="uni0163" unicode="&#x163;" horiz-adv-x="692" 
d="M335 -401q-96 0 -177 18l22 134q86 -16 167 -16q124 0 134 64q5 31 -45.5 48.5t-155.5 22.5l69 157q-155 63 -121 276l80 503h-169l29 186h169l46 292h238l-46 -292h252l-29 -186h-252l-78 -488q-11 -70 15 -101t91 -31h126l-29 -186h-120l-26 -57q78 -13 115.5 -54
t27.5 -104q-13 -81 -97.5 -133.5t-235.5 -52.5z" />
    <glyph glyph-name="Tcaron" unicode="&#x164;" horiz-adv-x="1194" 
d="M473 0l184 1164h-434l31 194h1116l-31 -194h-434l-184 -1164h-248zM464 1794h236l143 -188l212 188h233l-361 -303h-205z" />
    <glyph glyph-name="tcaron" unicode="&#x165;" horiz-adv-x="1306" 
d="M514 0q-334 0 -286 303l80 503h-169l29 186h169l46 292h238l-46 -292h252l-29 -186h-252l-78 -488q-11 -70 15 -101t91 -31h126l-29 -186h-157zM647 1051l157 376h247l-236 -376h-168z" />
    <glyph glyph-name="Umacron" unicode="&#x16a;" horiz-adv-x="1300" 
d="M644 -31q-267 0 -388 136.5t-79 403.5l134 849h251l-134 -849q-27 -171 38 -258t209 -87q147 0 240 88.5t120 256.5l134 849h250l-134 -849q-42 -262 -205 -401t-436 -139zM532 1539l23 149h729l-23 -149h-729z" />
    <glyph glyph-name="umacron" unicode="&#x16b;" horiz-adv-x="1068" 
d="M452 -31q-134 0 -231 77q-51 41 -71 122t-2 191l100 633h240l-96 -606q-36 -231 142 -231q105 0 180 81t94 200l88 556h238l-157 -992h-229l18 115h-3q-39 -59 -123 -102.5t-188 -43.5zM348 1206l24 149h731l-24 -149h-731z" />
    <glyph glyph-name="Uring" unicode="&#x16e;" horiz-adv-x="1300" 
d="M644 -31q-267 0 -388 136.5t-79 403.5l134 849h251l-134 -849q-27 -171 38 -258t209 -87q147 0 240 88.5t120 256.5l134 849h250l-134 -849q-42 -262 -205 -401t-436 -139zM619 1656q17 107 112.5 183t222.5 76t199 -76.5t55 -182.5q-17 -110 -115 -185.5t-221 -75.5
t-196.5 75t-56.5 186zM783 1656q-8 -51 23.5 -85t87.5 -34q55 0 96 32.5t49 86.5q8 49 -22.5 83.5t-84.5 34.5t-97.5 -35t-51.5 -83z" />
    <glyph glyph-name="uring" unicode="&#x16f;" horiz-adv-x="1068" 
d="M452 -31q-134 0 -231 77q-51 41 -71 122t-2 191l100 633h240l-96 -606q-36 -231 142 -231q105 0 180 81t94 200l88 556h238l-157 -992h-229l18 115h-3q-39 -59 -123 -102.5t-188 -43.5zM455 1364q17 107 113.5 183t223.5 76t199.5 -76t55.5 -183q-17 -110 -115.5 -185.5
t-221.5 -75.5t-198 75t-57 186zM619 1364q-8 -51 24 -85t89 -34q55 0 96 33t49 86q8 50 -22 84t-85 34t-99 -35t-52 -83z" />
    <glyph glyph-name="Uhungarumlaut" unicode="&#x170;" horiz-adv-x="1300" 
d="M644 -31q-267 0 -388 136.5t-79 403.5l134 849h251l-134 -849q-27 -171 38 -258t209 -87q147 0 240 88.5t120 256.5l134 849h250l-134 -849q-42 -262 -205 -401t-436 -139zM550 1493l261 339h265l-322 -339h-204zM910 1493l262 339h264l-321 -339h-205z" />
    <glyph glyph-name="uhungarumlaut" unicode="&#x171;" horiz-adv-x="1089" 
d="M452 -31q-134 0 -231 77q-51 41 -71 122t-2 191l100 633h240l-96 -606q-36 -231 142 -231q105 0 180 81t94 200l88 556h238l-157 -992h-229l18 115h-3q-39 -59 -123 -102.5t-188 -43.5zM383 1151l261 340h265l-321 -340h-205zM743 1151l261 340h265l-321 -340h-205z" />
    <glyph glyph-name="Uogonek" unicode="&#x172;" horiz-adv-x="1300" 
d="M593 -390q-114 0 -170.5 44t-44.5 120q18 108 176 199q-221 23 -318.5 158t-58.5 378l134 849h251l-134 -849q-27 -171 38 -258t209 -87q147 0 240 88.5t120 256.5l134 849h250l-134 -849q-35 -224 -160.5 -359t-332.5 -169q-82 -43 -135 -87t-58 -79q-5 -32 12 -48
t56 -16q45 0 125 19l-22 -138q-75 -22 -177 -22z" />
    <glyph glyph-name="uogonek" unicode="&#x173;" horiz-adv-x="1043" 
d="M452 -31q-134 0 -231 77q-51 41 -71 122t-2 191l100 633h240l-96 -606q-36 -231 142 -231q105 0 180 81t94 200l88 556h238l-157 -992h-18q-97 -48 -160.5 -96.5t-69.5 -87.5q-11 -63 69 -63q47 0 127 19l-22 -138q-75 -22 -178 -22q-113 0 -170 44.5t-45 119.5
q10 66 77.5 127t161.5 105l17 107h-3q-39 -59 -123 -102.5t-188 -43.5z" />
    <glyph glyph-name="Wcircumflex" unicode="&#x174;" horiz-adv-x="1745" 
d="M667 1491l378 318h205l285 -318h-249l-153 205l-217 -205h-249zM220 1358h264l41 -1112h10l425 1112h252l76 -1112h10l393 1112h264l-553 -1358h-285l-69 1083h-6l-415 -1083h-282z" />
    <glyph glyph-name="wcircumflex" unicode="&#x175;" horiz-adv-x="1489" 
d="M488 1151l379 318h206l285 -318h-249l-155 204l-217 -204h-249zM163 992h258l47 -780h9l298 780h252l55 -780h8l291 780h258l-453 -992h-268l-50 756h-7l-291 -756h-267z" />
    <glyph glyph-name="Ycircumflex" unicode="&#x176;" horiz-adv-x="1308" 
d="M461 1491l378 318h205l284 -318h-247l-156 205l-216 -205h-248zM223 1358h287l256 -623h6l453 623h289l-648 -807l-87 -551h-249l87 551z" />
    <glyph glyph-name="ycircumflex" unicode="&#x177;" horiz-adv-x="1038" 
d="M271 1151l380 318h206l284 -318h-249l-154 204l-217 -204h-250zM51 -406l29 183h34q87 0 145.5 34t102.5 116l53 98l-256 967h263l142 -739h8l359 739h262l-632 -1122q-81 -147 -185.5 -211.5t-249.5 -64.5h-75z" />
    <glyph glyph-name="Ydieresis" unicode="&#x178;" horiz-adv-x="1308" 
d="M551 1532l34 218h254l-34 -218h-254zM223 1358h287l256 -623h6l453 623h289l-648 -807l-87 -551h-249l87 551zM994 1532l34 218h252l-34 -218h-252z" />
    <glyph glyph-name="Zacute" unicode="&#x179;" horiz-adv-x="1261" 
d="M78 0l26 166l933 998h-713l31 194h1022l-27 -168l-936 -998h799l-30 -192h-1105zM704 1491l268 325h289l-355 -325h-202z" />
    <glyph glyph-name="zacute" unicode="&#x17a;" horiz-adv-x="1064" 
d="M85 0l23 144l669 662h-519l29 186h831l-22 -138l-673 -668h589l-29 -186h-898zM554 1151l269 324h288l-354 -324h-203z" />
    <glyph glyph-name="Zdotaccent" unicode="&#x17b;" horiz-adv-x="1261" 
d="M78 0l26 166l933 998h-713l31 194h1022l-27 -168l-936 -998h799l-30 -192h-1105zM761 1530l35 221h259l-35 -221h-259z" />
    <glyph glyph-name="zdotaccent" unicode="&#x17c;" horiz-adv-x="1064" 
d="M85 0l23 144l669 662h-519l29 186h831l-22 -138l-673 -668h589l-29 -186h-898zM606 1203l35 221h260l-35 -221h-260z" />
    <glyph glyph-name="Zcaron" unicode="&#x17d;" horiz-adv-x="1261" 
d="M78 0l26 166l933 998h-713l31 194h1022l-27 -168l-936 -998h799l-30 -192h-1105zM526 1794h236l143 -188l213 188h233l-362 -303h-205z" />
    <glyph glyph-name="zcaron" unicode="&#x17e;" horiz-adv-x="1064" 
d="M85 0l23 144l669 662h-519l29 186h831l-22 -138l-673 -668h589l-29 -186h-898zM369 1454h236l143 -189l212 189h233l-359 -303h-207z" />
    <glyph glyph-name="uni018F" unicode="&#x18f;" horiz-adv-x="1440" 
d="M703 -31q-287 0 -429.5 191.5t-93.5 502.5q12 71 26 117h1015q13 197 -75.5 306t-254.5 109q-229 0 -403 -192l-198 78q107 150 272 229t365 79q203 0 338.5 -90.5t187.5 -251t18 -371.5q-33 -207 -141.5 -368.5t-272 -250t-354.5 -88.5zM429 554q-8 -113 21 -199.5
t102.5 -140t185.5 -53.5q158 0 286.5 116t167.5 309h-759q-4 -20 -4 -32z" />
    <glyph glyph-name="florin" unicode="&#x192;" horiz-adv-x="956" 
d="M151 -483q-14 0 -68 2q-32 4 -36 4h-3l-8 2l-25 9l-35 41l23 146q125 -13 177 -13q88 0 126.5 41t57.5 157l133 837h-212l30 189h212l16 101q24 151 137 229.5t276 78.5h173l-30 -190h-169q-89 0 -120 -24.5t-44 -104.5l-14 -90h284l-30 -189h-284l-134 -843
q-29 -184 -140 -283.5t-293 -99.5z" />
    <glyph glyph-name="uni0218" unicode="&#x218;" horiz-adv-x="1225" 
d="M632 -31q-204 0 -345 85.5t-193 235.5l231 68q40 -88 132 -141t211 -53q126 0 210 54t98 143q14 88 -51.5 140t-224.5 104q-214 67 -283 105q-187 105 -155 305q26 168 188.5 271t398.5 103q187 0 313.5 -79.5t170.5 -210.5l-222 -64q-94 160 -296 160q-122 0 -202 -49.5
t-93 -130.5q-9 -56 15 -85q2 -3 10.5 -14.5t11 -14.5t9.5 -10.5t14.5 -12l17.5 -10.5q52 -29 101 -47q10 -3 23 -8t21 -7.5t13 -3.5q119 -36 127 -39q166 -52 263 -130q116 -94 89 -264q-30 -187 -195 -293.5t-408 -106.5zM367 -464l145 355h259l-236 -355h-168z" />
    <glyph glyph-name="uni0219" unicode="&#x219;" horiz-adv-x="983" 
d="M510 -31q-158 0 -273 63t-163 175l185 90q90 -151 273 -151q89 0 145.5 31.5t65.5 85.5q6 42 -30 75q-24 21 -56.5 37t-58.5 24.5t-103 31.5q-21 6 -25 7q-117 38 -195 94q-94 65 -73 201q20 128 153 208.5t316 80.5q132 0 242.5 -64t151.5 -164l-172 -88
q-90 139 -249 139q-86 0 -137.5 -31t-59.5 -84q-7 -43 29 -76q8 -7 15 -13.5t17 -12.5t16 -10t19 -9.5t18.5 -8t23 -8.5t23 -8t29 -10t30.5 -10q25 -5 30 -7q321 -99 289 -296q-19 -125 -148 -208.5t-328 -83.5zM234 -464l145 355h260l-238 -355h-167z" />
    <glyph glyph-name="uni021A" unicode="&#x21a;" horiz-adv-x="1194" 
d="M473 0l184 1164h-434l31 194h1116l-31 -194h-434l-184 -1164h-248zM302 -464l145 355h259l-236 -355h-168z" />
    <glyph glyph-name="uni021B" unicode="&#x21b;" horiz-adv-x="694" 
d="M514 0q-334 0 -286 303l80 503h-169l29 186h169l46 292h238l-46 -292h252l-29 -186h-252l-78 -488q-11 -70 15 -101t91 -31h126l-29 -186h-157zM155 -464l145 355h259l-238 -355h-166z" />
    <glyph glyph-name="uni0237" unicode="&#x237;" horiz-adv-x="553" 
d="M-87 -394l29 185h39q75 0 118 46t59 146l160 1009h243l-161 -1018q-29 -181 -134.5 -274.5t-274.5 -93.5h-78z" />
    <glyph glyph-name="uni0259" unicode="&#x259;" horiz-adv-x="1137" 
d="M558 -31q-217 0 -333.5 143.5t-80.5 370.5q12 71 16 87h758q18 117 -46 196t-190 79q-90 0 -166.5 -40t-120.5 -104l-188 64q75 115 205.5 185t303.5 70q230 0 349.5 -145.5t82.5 -384.5q-38 -236 -203 -378.5t-387 -142.5zM374 416q-19 -116 38 -195t173 -79
q114 0 200.5 79.5t108.5 194.5h-520z" />
    <glyph glyph-name="Wgrave" unicode="&#x1e80;" horiz-adv-x="1745" 
d="M819 1816h289l165 -325h-203zM220 1358h264l41 -1112h10l425 1112h252l76 -1112h10l393 1112h264l-553 -1358h-285l-69 1083h-6l-415 -1083h-282z" />
    <glyph glyph-name="wgrave" unicode="&#x1e81;" horiz-adv-x="1489" 
d="M620 1473h290l164 -324h-202zM163 992h258l47 -780h9l298 780h252l55 -780h8l291 780h258l-453 -992h-268l-50 756h-7l-291 -756h-267z" />
    <glyph glyph-name="Wacute" unicode="&#x1e82;" horiz-adv-x="1745" 
d="M918 1491l270 325h288l-355 -325h-203zM220 1358h264l41 -1112h10l425 1112h252l76 -1112h10l393 1112h264l-553 -1358h-285l-69 1083h-6l-415 -1083h-282z" />
    <glyph glyph-name="wacute" unicode="&#x1e83;" horiz-adv-x="1489" 
d="M758 1149l267 324h290l-354 -324h-203zM163 992h258l47 -780h9l298 780h252l55 -780h8l291 780h258l-453 -992h-268l-50 756h-7l-291 -756h-267z" />
    <glyph glyph-name="Wdieresis" unicode="&#x1e84;" horiz-adv-x="1745" 
d="M759 1532l34 218h254l-34 -218h-254zM220 1358h264l41 -1112h10l425 1112h252l76 -1112h10l393 1112h264l-553 -1358h-285l-69 1083h-6l-415 -1083h-282zM1202 1532l34 218h253l-34 -218h-253z" />
    <glyph glyph-name="wdieresis" unicode="&#x1e85;" horiz-adv-x="1489" 
d="M584 1203l34 218h253l-34 -218h-253zM163 992h258l47 -780h9l298 780h252l55 -780h8l291 780h258l-453 -992h-268l-50 756h-7l-291 -756h-267zM1027 1203l34 218h252l-34 -218h-252z" />
    <glyph glyph-name="Ygrave" unicode="&#x1ef2;" horiz-adv-x="1308" 
d="M601 1814h288l166 -325h-202zM223 1358h287l256 -623h6l453 623h289l-648 -807l-87 -551h-249l87 551z" />
    <glyph glyph-name="ygrave" unicode="&#x1ef3;" horiz-adv-x="1038" 
d="M392 1473h290l164 -324h-203zM51 -406l29 183h34q87 0 145.5 34t102.5 116l53 98l-256 967h263l142 -739h8l359 739h262l-632 -1122q-81 -147 -185.5 -211.5t-249.5 -64.5h-75z" />
    <glyph glyph-name="uni2010" unicode="&#x2010;" horiz-adv-x="881" 
d="M198 487l30 187h677l-30 -187h-677z" />
    <glyph glyph-name="endash" unicode="&#x2013;" horiz-adv-x="1070" 
d="M77 487l30 187h1070l-30 -187h-1070z" />
    <glyph glyph-name="emdash" unicode="&#x2014;" horiz-adv-x="2237" 
d="M77 487l30 187h2237l-30 -187h-2237z" />
    <glyph glyph-name="uni2015" unicode="&#x2015;" horiz-adv-x="2120" 
d="M77 487l30 187h2120l-30 -187h-2120z" />
    <glyph glyph-name="quoteleft" unicode="&#x2018;" horiz-adv-x="688" 
d="M297 1044q27 167 100.5 280.5t234.5 209.5l148 -119q-110 -70 -157 -124t-69 -140h111l-44 -281h-351z" />
    <glyph glyph-name="quoteright" unicode="&#x2019;" horiz-adv-x="690" 
d="M273 893q111 70 157.5 123.5t68.5 139.5h-109l45 281h351l-28 -175q-27 -166 -101 -278.5t-234 -208.5z" />
    <glyph glyph-name="quotesinglbase" unicode="&#x201a;" horiz-adv-x="695" 
d="M79 -336q114 70 161.5 125.5t69.5 142.5h-109l45 280h351l-28 -173q-26 -165 -100 -279t-233 -208z" />
    <glyph glyph-name="quotereversed" unicode="&#x201b;" horiz-adv-x="688" 
d="M512 775q-131 96 -168.5 208.5t-11.5 278.5l28 175h351l-45 -281h-111q-5 -85 24.5 -139t117.5 -124z" />
    <glyph glyph-name="quotedblleft" unicode="&#x201c;" horiz-adv-x="1121" 
d="M297 1040q27 171 106 295t235 212l152 -120q-95 -48 -150 -112.5t-82 -164.5h110l-44 -280h-354zM699 870l27 170q26 165 102 283.5t235 209.5l150 -116q-109 -70 -156.5 -126t-68.5 -141h108l-44 -280h-353z" />
    <glyph glyph-name="quotedblright" unicode="&#x201d;" horiz-adv-x="1116" 
d="M699 880q107 66 155 125t71 151h-112l45 281h354l-27 -169q-28 -174 -106.5 -298t-236.5 -211zM273 893q109 67 154.5 120.5t67.5 142.5h-112l45 281h356l-27 -169q-27 -170 -103.5 -288.5t-236.5 -207.5z" />
    <glyph glyph-name="quotedblbase" unicode="&#x201e;" horiz-adv-x="1119" 
d="M501 -346q110 67 158.5 126t71.5 153h-109l45 279h354l-27 -168q-27 -171 -105 -293.5t-234 -212.5zM79 -335q110 69 157 124.5t68 143.5h-112l45 279h356l-27 -168q-26 -165 -101.5 -282.5t-233.5 -210.5z" />
    <glyph glyph-name="uni201F" unicode="&#x201f;" horiz-adv-x="1119" 
d="M516 759q-130 87 -170.5 212t-12.5 297l27 169h354l-45 -281h-110q-6 -93 22.5 -152t114.5 -124zM762 1268l27 169h353l-45 -281h-108q-6 -85 23.5 -140.5t115.5 -124.5l-185 -118q-131 89 -169.5 207t-11.5 288z" />
    <glyph glyph-name="bullet" unicode="&#x2022;" horiz-adv-x="784" 
d="M175 336l77 487h608l-77 -487h-608z" />
    <glyph glyph-name="ellipsis" unicode="&#x2026;" horiz-adv-x="1999" 
d="M212 437l46 287h340l-46 -287h-340zM948 437l46 287h338l-46 -287h-338zM1683 437l46 287h338l-46 -287h-338z" />
    <glyph glyph-name="fraction" unicode="&#x2044;" horiz-adv-x="369" 
d="M-363 -9l1136 1379h174l-1136 -1379h-174z" />
    <glyph glyph-name="uni20B9" unicode="&#x20b9;" horiz-adv-x="1383" 
d="M854 -73l-625 525l25 159h136q323 0 417 168h-637l96 190h570q-16 58 -67 93t-131 35h-424l105 190h1230l-95 -190h-426q37 -63 40 -128h430l-95 -190h-365q-48 -131 -169.5 -216.5t-297.5 -117.5l608 -518h-325z" />
    <glyph glyph-name="trademark" unicode="&#x2122;" horiz-adv-x="1224" 
d="M721 860l86 544h93l125 -447l265 447h96l-86 -544h-96l56 353l-209 -353h-83l-99 347l-55 -347h-93zM256 1313l14 91h470l-14 -91h-186l-72 -453h-100l72 453h-184z" />
    <glyph glyph-name="arrowleft" unicode="&#x2190;" horiz-adv-x="2370" 
d="M933 246l-668 366l784 365l88 -161l-165 -108h1287l-31 -195h-1287l131 -109z" />
    <glyph glyph-name="arrowup" unicode="&#x2191;" horiz-adv-x="1453" 
d="M588 -191l181 1145l-172 -129l-191 81l559 576l368 -576l-202 -82l-138 130l-181 -1145h-224z" />
    <glyph glyph-name="arrowright" unicode="&#x2192;" horiz-adv-x="2369" 
d="M1513 246l-88 158l165 109h-1287l31 195h1287l-131 108l139 161l668 -365z" />
    <glyph glyph-name="arrowdown" unicode="&#x2193;" horiz-adv-x="1453" 
d="M688 -268l-376 576l216 81l131 -129l182 1145h224l-182 -1145l179 130l177 -82z" />
    <glyph glyph-name="arrowboth" unicode="&#x2194;" horiz-adv-x="2539" 
d="M861 247l-596 365l712 364l93 -148l-160 -120h942l-122 120l143 148l594 -364l-710 -365l-95 148l159 118h-941l122 -118z" />
    <glyph glyph-name="arrowupdn" unicode="&#x2195;" horiz-adv-x="1460" 
d="M687 -253l-386 480l186 100l162 -126l128 812l-202 -126l-154 99l538 480l394 -480l-190 -99l-162 126l-128 -812l202 126l158 -100z" />
    <glyph glyph-name="uni2215" unicode="&#x2215;" horiz-adv-x="1319" 
d="M-15 -295l1315 1750h240l-1318 -1750h-237z" />
    <glyph glyph-name="asteriskmath" unicode="&#x2217;" horiz-adv-x="1420" 
d="M620 93l60 379l-425 -221l-124 135l489 260l-407 259l167 136l357 -223l59 378h213l-60 -379l431 229l108 -145l-483 -255l407 -257l-167 -140l-350 220l-59 -376h-216z" />
    <glyph glyph-name="uniF8FF" unicode="&#xf8ff;" horiz-adv-x="1542" 
d="M758 60q-151 0 -279.5 75.5t-203 204.5t-74.5 280q0 152 75 280.5t203.5 203t280.5 74.5q151 0 279.5 -75t203.5 -203.5t75 -279.5q0 -152 -74.5 -281t-203.5 -204t-282 -75zM200 -164h59q50 0 71 34q10 16 10 39q0 47 -37 64q-18 9 -44 9h-59v-146zM235 -137v93h22
q31 0 43 -20q5 -9 5 -27q0 -32 -22 -42q-8 -4 -26 -4h-22zM268 621q0 -205 144 -350t348 -145q203 0 347.5 144.5t144.5 347.5q0 100 -39 191.5t-104.5 157.5t-156 105t-190.5 40q-134 0 -248 -65.5t-180 -178.5t-66 -247zM352 -109q0 -36 30 -50q16 -7 33 -7q31 0 45 16
q8 7 10 17l-31 3q-5 -9 -14 -12q-3 -1 -10 -1q-18 0 -25 13q-3 5 -3 13h85v8q0 27 -18 42q-16 14 -42 14q-36 0 -52 -27q-8 -13 -8 -29zM387 -98q2 13 12 19q4 3 14 3q17 0 23 -12l3 -10h-52zM442 719q10 -2 12 -4q52 -21 98 -27q41 -3 72 2q43 11 47 12q3 0 8.5 2.5
t7.5 3.5q-5 2 -16.5 8t-17 9t-13 8.5t-13.5 12.5h19q39 0 75 19q65 40 136 61q24 8 58 11q4 0 19.5 1t23.5 0q54 -2 89 -33q10 -11 28 -33v-2l-6 2q-45 17 -83 3.5t-62 -53.5q-7 -13 -25 -55q-9 -21 -27 -63.5t-20 -48.5q-33 -64 -65 -101q-27 -33 -66 -58q-45 -34 -116 -55
h-4h-1l24 22q12 11 25 44q41 116 45 127q24 73 57 131v3q-2 -4 -11 -13q-8 -10 -10 -12q-23 -36 -31 -57q-2 -6 -8 -6q-99 3 -177 67q-40 38 -59 55q-1 1 -5 7t-8 10zM481 -132q5 -34 56 -34q35 0 48 18q7 9 7 18q0 24 -36 30l-22 3q-16 4 -16 12q0 11 19 11q17 0 21 -14
l31 3q-5 32 -53 32q-33 0 -46 -16q-6 -7 -6 -18q0 -25 36 -31l21 -4q16 -3 16 -11q0 -11 -20 -11q-18 0 -23 14zM605 -25q0 -15 19 -15q18 0 18 15t-18 15q-19 0 -19 -15zM607 -164h34v109h-34v-109zM656 -109q0 -35 25 -48q12 -5 25 -5q18 0 29 9q5 5 7 8h1v-19
q0 -21 -25 -21q-16 0 -21 6l-6 6l-31 -3q7 -31 57 -31q37 0 52 19q9 9 9 23v110h-35v-18h-1q-6 12 -18 17q-8 3 -18 3q-30 0 -43 -25q-7 -11 -7 -31zM691 -109q0 21 12 28q8 4 15 4q16 0 22 -15q3 -7 3 -17q0 -30 -25 -30q-18 0 -24 14q-3 6 -3 16zM798 -164h34v64
q0 13 11 19q6 3 13 3q21 0 21 -22v-64h35v70q0 26 -20 36q-10 5 -23 5q-27 0 -37 -21v19h-34v-109zM927 -109q0 -34 28 -50q17 -7 33 -7q38 0 54 27q7 13 7 30q0 33 -28 49q-13 7 -33 7q-38 0 -54 -27q-7 -14 -7 -29zM962 -109q0 21 12 28q7 5 14 5q16 0 24 -16q3 -15 3 -17
q0 -20 -12 -29q-5 -4 -15 -4q-16 0 -23 15q-3 9 -3 18zM1051 -55l43 -109h39l43 109h-36l-26 -78h-1l-26 78h-36zM1177 -133q0 -21 21 -29q8 -4 21 -4q18 0 27 9q4 2 9 9v-16h33v74q0 20 -15 28q-17 9 -37 9q-30 0 -45 -15q-7 -6 -10 -17l32 -3q5 13 22 13q19 0 19 -14v-1
q0 -7 -13 -7l-17 -3q-19 0 -32 -8q-15 -8 -15 -25zM1210 -133q0 9 9 12q5 3 12 3q19 3 23 5v-11q0 -13 -12 -18q-6 -3 -14 -3q-18 0 -18 12zM1267 -16q0 16 11 26.5t27 10.5t26.5 -10.5t10.5 -26.5t-10.5 -27t-26.5 -11t-27 11t-11 27zM1279 -16q0 -11 7.5 -19t18.5 -8
t18.5 8t7.5 19t-7.5 18.5t-18.5 7.5t-18.5 -7.5t-7.5 -18.5zM1292 -33v35h14q12 0 12 -11q0 -5 -5 -10l8 -14h-10l-6 11h-5v-11h-8zM1300 -13h6q5 0 5 3t-5 3h-6v-6z" />
    <glyph glyph-name="_Designova" horiz-adv-x="1692" 
d="M844 -121q-174 0 -322.5 87t-235 235.5t-86.5 323.5q1 131 52 250.5t137.5 205.5t206 137t250.5 51q175 0 323.5 -86t235.5 -234.5t87 -323.5q0 -176 -87 -324.5t-236 -235t-325 -86.5zM278 525q0 -116 45 -221.5t120.5 -181.5t181 -121t221.5 -45q154 0 285 76t207 207
t76 285q0 116 -45 221.5t-120.5 181.5t-180.5 121t-221 45t-221 -45t-181.5 -120.5t-121.5 -181t-45 -221.5zM480 638q7 0 13 -4q58 -22 115 -31q45 -5 81 3q29 4 53 14q5 0 11.5 3t8.5 4q-5 3 -22.5 11.5t-27.5 15.5t-19 17h21q39 0 86 20q85 53 158 73q37 10 66 10
q6 0 24.5 1.5t26.5 0.5q67 -4 102 -39q6 -5 33 -37v-2q-3 2 -7 2q-53 20 -95.5 4.5t-71.5 -59.5q-5 -9 -10 -20.5t-11 -25t-9 -21.5q-6 -14 -25 -59t-30 -68q-36 -74 -74 -119q-20 -27 -74 -66q-52 -38 -136 -63h-7l28 24q18 17 30 51q7 20 25 71t27 78q31 90 65 150v1
q-3 -3 -11 -13q-9 -7 -11 -16q-23 -27 -38 -65q-3 -5 -9 -5q-117 5 -204 78q-10 10 -32.5 31t-33.5 32q-12 14 -16 18z" />
    <glyph glyph-name="_Origin" horiz-adv-x="2255" 
d="M150 929v50h1955v-50h-1955zM150 110v50h1955v-50h-1955zM228 311v177h42v-177h-42zM260 608v177h148v-32h-107v-39h97v-31h-97v-42h107v-33h-148zM298 311v177h34l89 -107v107h40v-177h-33l-88 109v-109h-42zM438 608v177h34l88 -107v107h40v-177h-33l-88 109v-109h-41z
M554 311v177h87q72 0 72 -45q0 -28 -26 -40q3 0 3 -2q28 -12 28 -42q0 -48 -71 -48h-93zM596 342h48q32 0 32 22t-32 22h-48v-44zM596 419h42q33 0 33 20q0 22 -33 22h-42v-42zM629 753v32h156v-32h-57v-145h-41v145h-58zM738 311v177h148v-33h-107v-38h96v-31h-96v-41h105
v-34h-146zM803 785h44l40 -124l42 124h38l40 -126l42 126h39l-57 -177h-45l-39 121l-41 -121h-43zM914 311v177h81q28 0 42 -6q36 -19 36 -57q0 -21 -10 -35q-15 -18 -29 -23l37 -56h-43l-35 50h-37v-50h-42zM956 394h37q38 0 38 31q0 30 -38 30h-37v-61zM1093 311v177h40
v-143h106v-34h-146zM1096 697q0 39 28 65q26 26 69 26t69 -26q28 -25 28 -65q0 -39 -28 -65q-26 -27 -68 -27q-44 0 -70 27q-28 28 -28 65zM1138 697q0 -25 15.5 -40.5t39.5 -15.5t39.5 15.5t15.5 40.5t-15.5 41.5t-39.5 16.5t-39.5 -16.5t-15.5 -41.5zM1268 311v177h41
v-177h-41zM1313 608v177h81q28 0 41 -6q36 -17 36 -57q0 -21 -10 -35q-9 -15 -29 -23l39 -56h-45l-33 50h-39v-50h-41zM1338 311v177h35l87 -107v107h42v-177h-34l-89 109v-109h-41zM1354 691h37q38 0 38 31t-38 31h-37v-62zM1491 608v177h148v-32h-107v-39h96v-31h-96v-75
h-41zM1528 335q0 24 25 24q10 0 17 -7t7 -17q0 -11 -7 -25l-14 -38h-26l12 41q-14 5 -14 22zM1655 608v177h147v-32h-106v-39h95v-31h-95v-42h106v-33h-147zM1678 311v177h80q30 0 52 -11q46 -21 46 -77q0 -28 -12 -47q-23 -42 -86 -42h-80zM1720 345h37q17 0 31 7
q26 14 26 48q0 21 -6 29q-14 26 -51 26h-37v-110zM1832 608v177h33l90 -107v107h40v-177h-34l-89 109v-109h-40zM1880 311v177h147v-33h-107v-38h97v-31h-97v-41h106v-34h-146z" />
    <glyph glyph-name="_VendorID" horiz-adv-x="1116" 
d="M73 -4v1187h974v-1187h-974zM76 -95q0 13 7.5 20.5t18.5 7.5q9 0 12 -3l4 -5v26h13v-72h-13v9l-4 -7q-8 -5 -15 -5q-23 0 -23 29zM90 -95q0 -17 13 -17q15 0 15 17v1q0 18 -13 18q-15 0 -15 -19zM126 47h869v1084h-869v-1084zM141 -95q0 13 7.5 20.5t19.5 7.5
q11 0 18.5 -7.5t7.5 -19.5q0 -2 -2 -5h-37q1 -13 13 -13q10 0 12 9h12q-4 -21 -24 -21q-27 0 -27 29zM155 -91h25q-3 15 -12 15q-12 0 -13 -15zM198 -106h14q3 -9 9 -9q9 0 9 7q0 3 -12 9q-18 5 -18 16q0 16 21 16t21 -16h-14q-1 7 -7 7q-7 0 -7 -6q0 -4 12 -9q17 -5 17 -15
q0 -18 -22 -18q-20 0 -23 18zM240 297q0 59 46 125l97 137h64l-84 -120q11 3 23 3q62 0 102.5 -41.5t40.5 -103.5q0 -61 -41.5 -103.5t-101.5 -42.5q-61 0 -103.5 42.5t-42.5 103.5zM240 768q0 56 46 123l97 142h64l-84 -122q7 2 23 2q63 0 103 -41t40 -104
q0 -61 -41 -102.5t-102 -41.5t-103.5 42t-42.5 102zM251 -56q0 7 8 7t8 -7q0 -8 -8 -8t-8 8zM252 -121v54h14v-54h-14zM276 -95q0 28 26 28q9 0 12 -3l4 -5v8h14v-41q0 -8 -2 -11q0 -24 -27 -24q-26 0 -26 18v1h14v-1q0 -8 12 -8q11 0 15 13v8l-4 -7q-8 -2 -14 -2
q-24 0 -24 26zM291 -94q0 -18 12 -18q15 0 15 17v1q0 18 -15 18q-12 0 -12 -18zM294 297q0 -42 25.5 -68t66.5 -26q39 0 64.5 26t25.5 68q0 40 -25.5 65t-64.5 25q-41 0 -66.5 -25t-25.5 -65zM294 768q0 -41 25.5 -67t66.5 -26q39 0 64.5 26.5t25.5 66.5t-25.5 66t-64.5 26
q-41 0 -66.5 -25t-25.5 -67zM343 -121v54h14v-10l4 7q5 3 13 3q17 0 20 -15q1 -3 1 -9v-30h-15v34q0 11 -10 11q-13 0 -13 -21v-24h-14zM402 -95q0 13 7.5 20.5t19.5 7.5q28 0 28 -28q0 -29 -28 -29q-12 0 -19.5 8t-7.5 21zM416 -95q0 -17 13 -17q15 0 15 17q0 19 -15 19
q-13 0 -13 -19zM462 -67h14l14 -45l13 45h14l-19 -54h-18zM522 -106q0 16 30 16h3v7q0 7 -9 7q-11 0 -11 -9h-13q0 18 24 18q19 0 21 -15v-39h-12v6l-3 -5q-8 -4 -14 -4q-16 0 -16 18zM535 -106q0 -6 8 -6q12 0 12 9v6q-20 2 -20 -9zM576 -78v9h6v8q0 15 19 15h6v-11
q-11 2 -11 -5v-7h11v-9h-11v-43h-14v43h-6zM589 297q0 62 44 125l97 137h66l-86 -120q10 3 25 3q61 0 102 -41.5t41 -103.5q0 -61 -41.5 -103.5t-101.5 -42.5q-61 0 -103.5 42.5t-42.5 103.5zM589 768q0 57 44 123l97 142h66l-87 -122q8 2 26 2q61 0 102 -41.5t41 -103.5
q0 -61 -41.5 -102.5t-101.5 -41.5q-61 0 -103.5 41.5t-42.5 102.5zM611 -95q0 28 28 28q27 0 27 -28q0 -29 -27 -29q-28 0 -28 29zM625 -95q0 -17 14 -17q13 0 13 17q0 19 -13 19q-14 0 -14 -19zM642 297q0 -42 26 -68t67 -26q38 0 62.5 26t24.5 68q0 40 -24.5 65t-62.5 25
q-41 0 -67 -25t-26 -65zM642 768q0 -41 26 -67t67 -26q38 0 62.5 26t24.5 67q0 40 -24.5 66t-62.5 26q-41 0 -67 -25.5t-26 -66.5zM675 -121v54h12v-10l6 7q4 3 13 3q16 0 19 -15v-39h-14v34q-4 11 -9 11q-15 0 -15 -21v-24h-12zM732 -78v9h8v13h14v-13h10v-9h-10v-28
q2 -10 9 -6v-10h-8q-15 0 -15 10v34h-8zM768 -106h15q1 -9 10 -9q8 0 8 7q0 3 -12 9q-17 5 -17 16q0 16 20 16q19 0 24 -16h-16q0 7 -9 7q-5 0 -5 -6q0 -5 11 -9q19 -6 19 -15q0 -18 -23 -18q-21 0 -25 18zM820 -116q0 10 9 10t9 -10q0 -8 -9 -8t-9 8zM844 -95q0 13 8 20.5
t18 7.5q25 0 25 -20h-13q-3 11 -12 11q-12 0 -12 -19q0 -17 12 -17q10 0 12 9h13q-1 -21 -25 -21q-26 0 -26 29zM900 -95q0 28 29 28q26 0 26 -28q0 -29 -26 -29q-29 0 -29 29zM914 -95q0 -17 15 -17q13 0 13 17q0 19 -13 19q-15 0 -15 -19zM965 -121v54h14v-9l5 6q3 3 9 3
q13 0 18 -10l5 7q3 3 11 3q17 0 17 -12q1 -4 1 -12v-30h-13v27q0 2 -0.5 5t-0.5 4q0 9 -10 9q-9 0 -9 -18v-27h-13v36q-5 9 -10 9q-10 0 -10 -18v-27h-14z" />
    </font>
</defs>
</svg>
