<?xml version="1.0" standalone="no"?>
<!DOCTYPE svg PUBLIC "-//W3C//DTD SVG 1.1//EN" "http://www.w3.org/Graphics/SVG/1.1/DTD/svg11.dtd" >
<svg xmlns="http://www.w3.org/2000/svg" xmlns:xlink="http://www.w3.org/1999/xlink" version="1.1">
<metadata>
Created by FontForge 20170731 at Wed Nov 15 16:18:00 2023
 By Aleksey,,,
Copyright (c) 2023 by Designova. All rights reserved.
</metadata>
<defs>
<font id="LinearGrotesk-Light" horiz-adv-x="1482" >
  <font-face 
    font-family="Linear Grotesk Light"
    font-weight="300"
    font-stretch="normal"
    units-per-em="2048"
    panose-1="0 0 0 0 0 0 0 0 0 0"
    ascent="1638"
    descent="-410"
    x-height="971"
    cap-height="1358"
    bbox="-327 -475 2164 1899"
    underline-thickness="100"
    underline-position="-355"
    unicode-range="U+0020-F8FF"
  />
<missing-glyph horiz-adv-x="1415" 
d="M200 -34v1408h1015v-1408h-1015zM346 261l272 409l-272 412v-821zM419 1229l288 -429l287 429h-575zM421 111h572l-286 429zM793 670l275 -410v823z" />
    <glyph glyph-name=".notdef" horiz-adv-x="1415" 
d="M200 -34v1408h1015v-1408h-1015zM346 261l272 409l-272 412v-821zM419 1229l288 -429l287 429h-575zM421 111h572l-286 429zM793 670l275 -410v823z" />
    <glyph glyph-name=".null" horiz-adv-x="0" 
 />
    <glyph glyph-name="nonmarkingreturn" horiz-adv-x="682" 
 />
    <glyph glyph-name="space" unicode=" " horiz-adv-x="360" 
 />
    <glyph glyph-name="space" unicode="&#xa0;" horiz-adv-x="360" 
 />
    <glyph glyph-name="exclam" unicode="!" horiz-adv-x="572" 
d="M222 342l-12 1000h150l-15 -1000h-123zM163 -48v217h245v-217h-245z" />
    <glyph glyph-name="quotedbl" unicode="&#x22;" horiz-adv-x="1179" 
d="M579 963l212 557h195l-278 -557h-129zM193 963l212 557h195l-278 -557h-129z" />
    <glyph glyph-name="numbersign" unicode="#" horiz-adv-x="1310" 
d="M212 -26l63 379h-269v109h286l58 348h-273v109h290l63 376h122l-60 -376h419l62 376h122l-60 -376h267v-109h-285l-57 -348h273v-109h-290l-62 -379h-128l65 379h-418l-63 -379h-125zM417 462h417l57 348h-417z" />
    <glyph glyph-name="dollar" unicode="$" horiz-adv-x="1162" 
d="M523 -32q-119 13 -240.5 79.5t-184.5 167.5l111 60q49 -81 162.5 -137t216.5 -56q344 0 344 231q0 42 -14 71q-13 40 -28.5 61.5t-50.5 45.5q-6 4 -20 13.5t-18 12t-15 9.5t-16 10t-15 8.5t-18.5 9t-20 8.5t-24.5 10q-74 26 -87 30l-95 32q-181 56 -274.5 142.5
t-93.5 227.5q0 133 106.5 227.5t274.5 105.5v151h132v-152q119 -11 225.5 -77.5t133.5 -141.5l-109 -47q-59 79 -136 116t-183 37q-151 0 -232.5 -60t-81.5 -162q0 -100 73 -160t239 -113q10 -3 35.5 -11.5t32.5 -11t26.5 -9t26.5 -9.5t23 -9t25.5 -10t24.5 -10.5
t29.5 -13.5t31.5 -15q73 -34 117 -75q46 -41 77 -103.5t31 -132.5q0 -108 -56 -186t-146 -117t-207 -47v-146h-132v146z" />
    <glyph glyph-name="percent" unicode="%" horiz-adv-x="2014" 
d="M346 -42l1167 1392h156l-1167 -1392h-156zM137 1037q0 147 114 242t281 95q170 0 282 -94t112 -243q0 -148 -114 -241.5t-280 -93.5q-164 0 -279.5 93t-115.5 242zM263 1037q0 -98 77.5 -160t191.5 -62t189.5 61.5t75.5 160.5q0 101 -74.5 163t-190.5 62t-192.5 -63
t-76.5 -162zM1087 272q0 147 113.5 241.5t281.5 94.5t281.5 -94.5t113.5 -241.5q0 -148 -114.5 -243.5t-280.5 -95.5q-164 0 -279.5 95.5t-115.5 243.5zM1217 272q0 -101 76 -163.5t189 -62.5t190.5 63.5t77.5 162.5q0 100 -75 161t-193 61t-191.5 -61t-73.5 -161z" />
    <glyph glyph-name="ampersand" unicode="&#x26;" horiz-adv-x="1204" 
d="M961 160q-160 -185 -428 -185q-206 0 -329 99t-123 266q0 131 80.5 234.5t271.5 215.5q-100 118 -140 190t-40 141q0 119 77 191.5t205 72.5q122 0 196.5 -69t74.5 -183q0 -102 -57.5 -184.5t-191.5 -175.5l402 -481q68 126 68 319h83q0 -219 -100 -384l191 -227h-105z
M168 340q0 -134 96 -210t268 -76q252 0 380 165l-429 511q-175 -100 -245 -187t-70 -203zM340 1121q0 -51 32 -108.5t128 -170.5l8 -10q110 70 161.5 143t51.5 158q0 80 -50.5 126.5t-137.5 46.5q-89 0 -141 -50t-52 -135z" />
    <glyph glyph-name="quotesingle" unicode="'" horiz-adv-x="791" 
d="M193 963l210 557h194l-275 -557h-129z" />
    <glyph glyph-name="parenleft" unicode="(" horiz-adv-x="766" 
d="M578 -328q-385 393 -385 949q0 564 385 951l109 -52q-87 -97 -139 -170.5t-108 -189.5q-114 -222 -114 -539q0 -335 132 -569q37 -66 56.5 -100t51.5 -77.5t45.5 -59.5t75.5 -90z" />
    <glyph glyph-name="parenright" unicode=")" horiz-adv-x="765" 
d="M82 -277q44 57 57 71q79 100 135 190q55 93 87 173q33 91 57 216t24 248q0 311 -112 535q-57 114 -110.5 190.5t-140.5 173.5l109 52q385 -387 385 -951q0 -552 -385 -949z" />
    <glyph glyph-name="asterisk" unicode="*" horiz-adv-x="1263" 
d="M957 218l-328 336l-319 -332l-116 74l332 324l-437 130l52 114l430 -138l-14 366h149l-13 -366l429 138l52 -114l-438 -130l331 -322z" />
    <glyph glyph-name="plus" unicode="+" horiz-adv-x="1420" 
d="M646 179v407h-472v115h472v391h128v-391h470v-115h-470v-407h-128z" />
    <glyph glyph-name="comma" unicode="," horiz-adv-x="691" 
d="M107 -372l212 555h192l-276 -555h-128z" />
    <glyph glyph-name="hyphen" unicode="-" horiz-adv-x="1236" 
d="M121 586v115h994v-115h-994z" />
    <glyph glyph-name="period" unicode="." horiz-adv-x="541" 
d="M149 -34v217h242v-217h-242z" />
    <glyph glyph-name="slash" unicode="/" horiz-adv-x="817" 
d="M21 -154l639 1600h137l-639 -1600h-137z" />
    <glyph glyph-name="zero" unicode="0" horiz-adv-x="1169" 
d="M239 678q0 -291 88 -453t262 -162q92 0 161.5 49.5t107.5 138.5q72 167 72 427q0 293 -88 455t-258 162q-169 0 -257 -160.5t-88 -456.5zM99 678q0 354 131.5 534t353.5 180q231 0 358.5 -183.5t127.5 -530.5q0 -303 -113 -502q-57 -100 -151.5 -155t-216.5 -55
q-224 0 -357 185t-133 527z" />
    <glyph glyph-name="one" unicode="1" horiz-adv-x="757" 
d="M450 0v1205l-369 -194v135l405 214h106v-1360h-142z" />
    <glyph glyph-name="two" unicode="2" horiz-adv-x="1192" 
d="M134 1063q102 329 477 329q202 0 328 -99.5t126 -272.5q0 -203 -247 -402q-269 -216 -369 -314q-106 -103 -147 -208h763v-96h-925q0 54 18 107q8 25 24 53t44 64.5t39 50t42 50.5q30 36 113 108.5t137 116.5l149 121q220 178 220 351q0 130 -85.5 201.5t-233.5 71.5
q-136 0 -226 -69t-127 -192z" />
    <glyph glyph-name="three" unicode="3" horiz-adv-x="1253" 
d="M247 260q123 -197 368 -197q165 0 269 81.5t104 229.5q0 138 -112.5 217.5t-283.5 79.5q-74 0 -122 -3v98q39 -4 113 -4q152 0 247 75t95 200q0 112 -88 185t-226 73q-213 0 -321 -209l-116 34q55 124 167 198t275 74q203 0 325 -97.5t122 -248.5q0 -117 -73.5 -201.5
t-189.5 -120.5q141 -29 235 -120t94 -230q0 -192 -139.5 -300t-373.5 -108q-168 0 -293 69.5t-190 185.5z" />
    <glyph glyph-name="four" unicode="4" horiz-adv-x="1300" 
d="M99 318v94l736 967h126v-963h242v-98h-242v-338h-135v338h-727zM233 416h593v573q0 102 8 219h-8l-138 -192z" />
    <glyph glyph-name="five" unicode="5" horiz-adv-x="1176" 
d="M242 246q53 -84 141.5 -133.5t194.5 -49.5q168 0 264.5 94t96.5 244q0 152 -100.5 246.5t-263.5 94.5q-81 0 -168.5 -33t-149.5 -88l-81 28l81 709h728v-96h-604l-64 -504q133 80 305 80q203 0 329.5 -119t126.5 -316q0 -190 -132.5 -313.5t-367.5 -123.5
q-306 0 -447 241z" />
    <glyph glyph-name="six" unicode="6" horiz-adv-x="1179" 
d="M249 419q0 -155 97 -255.5t252 -100.5q152 0 249.5 100.5t97.5 255.5q0 159 -98 259t-253 100q-149 0 -247 -102.5t-98 -256.5zM99 602q0 303 118 532q62 120 176 189t261 69q268 0 406 -232l-109 -34q-114 169 -297 169q-100 0 -176 -44.5t-121 -125.5
q-77 -138 -104 -319q-11 -71 -20 -168q43 109 144 173.5t239 64.5q203 0 334 -129t131 -325t-130 -326t-345 -130q-220 0 -353 130q-154 148 -154 506z" />
    <glyph glyph-name="seven" unicode="7" horiz-adv-x="1113" 
d="M882 1259h-809v99h965v-81q-229 -325 -371.5 -631t-235.5 -666h-141q92 360 230 652t362 627z" />
    <glyph glyph-name="eight" unicode="8" horiz-adv-x="1208" 
d="M289 1034q0 -113 91.5 -186t222.5 -73t221.5 74.5t90.5 184.5q0 114 -89.5 187.5t-222.5 73.5q-138 0 -226 -74.5t-88 -186.5zM99 359q0 141 87 236t229 133q-264 87 -264 312q0 149 128.5 250.5t323.5 101.5q192 0 321 -101t129 -251q0 -116 -73 -197t-190 -115
q144 -38 231.5 -133.5t87.5 -238.5q0 -170 -142.5 -280t-363.5 -110q-218 0 -361 109t-143 284zM238 366q0 -131 105 -217t260 -86q157 0 263.5 87t106.5 216q0 132 -107 222t-263 90q-152 0 -258.5 -89.5t-106.5 -222.5z" />
    <glyph glyph-name="nine" unicode="9" horiz-adv-x="1173" 
d="M239 941q0 -156 101 -255.5t245 -99.5t245 101.5t101 250.5q0 151 -98 254t-248 103q-149 0 -247.5 -100t-98.5 -254zM99 938q0 197 139 325.5t347 128.5q177 0 299 -95t163 -251q28 -106 28 -297q0 -783 -534 -783q-143 0 -255 68t-166 172l115 36q46 -81 127.5 -130
t182.5 -49q107 0 187 50t125 144q82 173 84 445q-42 -89 -142.5 -150.5t-229.5 -61.5q-128 0 -234.5 54.5t-171 158t-64.5 235.5z" />
    <glyph glyph-name="colon" unicode=":" horiz-adv-x="541" 
d="M149 832v218h242v-218h-242zM149 144v218h242v-218h-242z" />
    <glyph glyph-name="semicolon" unicode=";" horiz-adv-x="661" 
d="M107 -194l212 556h192l-276 -556h-128zM244 832v218h240v-218h-240z" />
    <glyph glyph-name="less" unicode="&#x3c;" horiz-adv-x="1344" 
d="M1071 -10l-881 596v85l881 599l83 -91l-811 -550l811 -549z" />
    <glyph glyph-name="equal" unicode="=" horiz-adv-x="1437" 
d="M221 752v114h994v-114h-994zM221 423v113h994v-113h-994z" />
    <glyph glyph-name="greater" unicode="&#x3e;" horiz-adv-x="1342" 
d="M268 -10l-78 90l807 549l-807 549l78 92l884 -599v-85z" />
    <glyph glyph-name="question" unicode="?" horiz-adv-x="1003" 
d="M413 388q0 95 40.5 174t105.5 133q47 39 75 61l39 31q122 103 122 214q0 123 -74 191.5t-215 68.5q-113 0 -193 -56t-140 -174l-118 42q58 141 181 221t270 80q195 0 308.5 -101t113.5 -269q0 -161 -147 -286l-111 -92q-126 -105 -126 -240v-62h-131v64zM355 -48v217h244
v-217h-244z" />
    <glyph glyph-name="at" unicode="@" horiz-adv-x="1649" 
d="M938 704q104 15 130 45q-3 234 -238 234q-112 0 -175.5 -51t-63.5 -142h-81q0 122 88.5 194.5t233.5 72.5q140 0 227 -73.5t87 -226.5v-395q0 -58 32 -89t92 -31q103 0 167 107t64 280q0 197 -86.5 353t-241.5 243.5t-351 87.5q-186 0 -342 -93.5t-246 -255.5t-90 -355
q0 -148 52.5 -279.5t142.5 -226.5t216 -150t267 -55q253 0 438 162l46 -56q-210 -179 -484 -179q-210 0 -383.5 103t-272.5 283t-99 398q0 162 58.5 306t159 247.5t240.5 164t297 60.5q218 0 391 -96.5t270 -269.5t97 -392q0 -195 -88.5 -325.5t-221.5 -130.5q-96 0 -149 45
t-57 130q-96 -167 -307 -167q-129 0 -201.5 65.5t-72.5 173.5q0 113 80 180t226 86zM559 422q0 -83 57 -126.5t152 -43.5q140 0 220 95.5t80 251.5v70q-53 -23 -274 -46q-119 -15 -177 -67.5t-58 -133.5z" />
    <glyph glyph-name="A" unicode="A" horiz-adv-x="1413" 
d="M389 505h635l-309 747h-13zM25 0l598 1358h169l597 -1358h-151l-169 410h-720l-175 -410h-149z" />
    <glyph glyph-name="B" unicode="B" horiz-adv-x="1358" 
d="M810 0h-645v1358h573q220 0 339 -92t119 -252q0 -111 -65.5 -189.5t-176.5 -113.5q133 -30 219.5 -122t86.5 -214q0 -162 -123.5 -268.5t-326.5 -106.5zM300 100h478q151 0 247 75.5t96 196.5q0 119 -100 198.5t-255 79.5h-466v-550zM300 749h411q155 0 252.5 66.5
t97.5 189.5q0 116 -86 185t-254 69h-421v-510z" />
    <glyph glyph-name="C" unicode="C" horiz-adv-x="1387" 
d="M99 678q0 329 182.5 521.5t480.5 192.5q172 0 299.5 -81t192.5 -205l-115 -37q-136 223 -380 223q-237 0 -379.5 -167.5t-142.5 -446.5q0 -280 143 -445t379 -165q141 0 248 66t167 174l122 -34q-77 -141 -211.5 -224.5t-322.5 -83.5q-196 0 -345.5 85t-233.5 247
t-84 380z" />
    <glyph glyph-name="D" unicode="D" horiz-adv-x="1404" 
d="M577 0h-412v1358h414q342 0 534 -174.5t192 -505.5q0 -323 -190.5 -500.5t-537.5 -177.5zM300 100h249q296 0 455.5 142.5t159.5 435.5q0 297 -157.5 439t-452.5 142h-254v-1159z" />
    <glyph glyph-name="E" unicode="E" horiz-adv-x="1265" 
d="M1158 0h-993v1358h969v-99h-834v-507h756v-98h-756v-554h858v-100z" />
    <glyph glyph-name="F" unicode="F" horiz-adv-x="1211" 
d="M300 0h-135v1358h937v-99h-802v-525h723v-98h-723v-636z" />
    <glyph glyph-name="G" unicode="G" horiz-adv-x="1460" 
d="M99 678q0 212 80.5 373t234.5 251t362 90q182 0 311.5 -78t199.5 -199l-115 -36q-150 213 -396 213q-252 0 -395.5 -167t-143.5 -447q0 -282 145 -446t387 -164q142 0 246 59t153.5 153.5t49.5 211.5v131h-468v99h601v-722h-101l-10 226q-123 -260 -475 -260
q-303 0 -484.5 192.5t-181.5 519.5z" />
    <glyph glyph-name="H" unicode="H" horiz-adv-x="1429" 
d="M300 0h-135v1358h135v-609h828v609h136v-1358h-136v650h-828v-650z" />
    <glyph glyph-name="I" unicode="I" horiz-adv-x="466" 
d="M300 0h-135v1358h135v-1358z" />
    <glyph glyph-name="J" unicode="J" horiz-adv-x="1016" 
d="M182 244q35 -83 105 -130t160 -46q268 4 268 324v966h135v-987q0 -200 -101.5 -302.5t-297.5 -102.5q-290 0 -390 238z" />
    <glyph glyph-name="K" unicode="K" horiz-adv-x="1312" 
d="M300 0h-135v1358h135v-757h5l759 757h183l-596 -585l634 -773h-171l-555 688l-259 -256v-432z" />
    <glyph glyph-name="L" unicode="L" horiz-adv-x="1140" 
d="M1064 0h-899v1358h135v-1258h764v-100z" />
    <glyph glyph-name="M" unicode="M" horiz-adv-x="1759" 
d="M300 0h-135v1358h179l529 -1102h8l530 1102h182v-1358h-136v1191l-518 -1081h-123l-516 1079v-1189z" />
    <glyph glyph-name="N" unicode="N" horiz-adv-x="1442" 
d="M300 0h-135v1358h159l814 -1175v1175h138v-1358h-158l-818 1180v-1180z" />
    <glyph glyph-name="O" unicode="O" 
d="M99 678q0 322 174.5 518t467.5 196q295 0 468.5 -196t173.5 -520t-174 -517t-468 -193q-295 0 -468.5 193.5t-173.5 518.5zM237 678q0 -278 136 -444t368 -166q231 0 367.5 164.5t136.5 443.5q0 284 -134 450t-370 166q-231 0 -367.5 -166t-136.5 -448z" />
    <glyph glyph-name="P" unicode="P" horiz-adv-x="1333" 
d="M300 0h-135v1358h591q222 0 354.5 -107t132.5 -284q0 -181 -134.5 -287t-352.5 -106h-456v-574zM300 672h429q177 0 275 75.5t98 219.5q0 140 -97.5 216t-279.5 76h-425v-587z" />
    <glyph glyph-name="Q" unicode="Q" 
d="M99 676q0 325 175.5 520.5t466.5 195.5q293 0 467.5 -196.5t174.5 -519.5q0 -341 -191 -534l189 -168l-91 -68l-184 164q-154 -104 -365 -104q-295 0 -468.5 194t-173.5 516zM237 676q0 -278 136.5 -443t367.5 -165q158 0 276 81l-297 263l90 70l290 -258
q145 165 145 452q0 286 -137 451t-367 165q-231 0 -367.5 -166t-136.5 -450z" />
    <glyph glyph-name="R" unicode="R" horiz-adv-x="1344" 
d="M165 -16v1367h599q222 0 350.5 -106t128.5 -272q0 -119 -60 -203.5t-155 -126.5q90 -47 129.5 -128.5t47.5 -194.5l2 -31q0 -4 0.5 -10.5t1.5 -9.5q2 -20 2 -25q1 -8 3 -30.5t3 -31t3 -27.5t4 -28.5t5 -25t6.5 -25t8 -20.5t10.5 -20l50 -52h-165q-29 54 -41 114.5
t-28 215.5q-7 134 -79.5 204t-246.5 70h-447v-604h-132zM297 698h465q169 0 258 71.5t89 201.5q0 125 -92 198t-274 73h-446v-544z" />
    <glyph glyph-name="S" unicode="S" horiz-adv-x="1307" 
d="M539 668q-94 30 -171 63q-75 33 -127 74q-49 40 -82 103t-33 134q0 167 144.5 264t390.5 97q181 0 324.5 -75.5t205.5 -187.5l-121 -42q-61 87 -169 137.5t-245 50.5q-194 0 -302 -65t-108 -179q0 -101 110 -167.5t347 -131.5q101 -27 155 -44.5t127 -49.5
q74 -31 127 -74q49 -41 82 -103t33 -134q0 -187 -149.5 -293t-413.5 -106q-197 0 -349 77t-245 209l131 50q62 -100 187 -160t280 -60q202 0 320.5 70.5t118.5 210.5v2q0 102 -110 168t-348 130z" />
    <glyph glyph-name="T" unicode="T" horiz-adv-x="1263" 
d="M565 1259h-490v99h1113v-99h-487v-1259h-136v1259z" />
    <glyph glyph-name="U" unicode="U" horiz-adv-x="1431" 
d="M165 482v876h134v-870q0 -205 111.5 -312.5t304.5 -107.5t304 108.5t111 311.5v870h136v-876q0 -245 -143 -380.5t-408 -135.5q-262 0 -406 134t-144 382z" />
    <glyph glyph-name="V" unicode="V" horiz-adv-x="1300" 
d="M565 0l-540 1358h149l469 -1240h6l474 1240h153l-546 -1358h-165z" />
    <glyph glyph-name="W" unicode="W" horiz-adv-x="1813" 
d="M400 0l-380 1358h150l306 -1227h9l344 1227h152l348 -1227h6l308 1227h150l-378 -1358h-160l-344 1213h-6l-344 -1213h-161z" />
    <glyph glyph-name="X" unicode="X" horiz-adv-x="1272" 
d="M198 0h-169l521 698l-495 660h170l407 -570h7l410 570h169l-495 -660l522 -698h-167l-439 606h-7z" />
    <glyph glyph-name="Y" unicode="Y" horiz-adv-x="1311" 
d="M590 560l-564 798h163l464 -692h5l463 692h164l-559 -798v-560h-136v560z" />
    <glyph glyph-name="Z" unicode="Z" horiz-adv-x="1304" 
d="M103 0v89l911 1170h-843v99h1009v-88l-916 -1170h940v-100h-1101z" />
    <glyph glyph-name="bracketleft" unicode="[" horiz-adv-x="719" 
d="M204 -277v1801h413v-112h-285v-1578h285v-111h-413z" />
    <glyph glyph-name="backslash" unicode="\" horiz-adv-x="781" 
d="M627 -154l-606 1600h134l605 -1600h-133z" />
    <glyph glyph-name="bracketright" unicode="]" horiz-adv-x="723" 
d="M102 -277v111h286v1578h-286v112h417v-1801h-417z" />
    <glyph glyph-name="asciicircum" unicode="^" horiz-adv-x="1099" 
d="M55 864l444 628h100l446 -628h-154l-341 487l-47 -63l-294 -424h-154z" />
    <glyph glyph-name="underscore" unicode="_" horiz-adv-x="830" 
d="M-35 -176v115h899v-115h-899z" />
    <glyph glyph-name="a" unicode="a" horiz-adv-x="1147" 
d="M215 240q0 -75 75 -127t200 -52q162 0 275.5 90.5t113.5 226.5v154q-103 -27 -321 -55q-179 -26 -261 -83t-82 -154zM83 233q0 134 115.5 215.5t361.5 114.5q248 36 319 60v55q0 104 -83.5 169t-231.5 65q-101 0 -196.5 -41.5t-161.5 -112.5l-85 59q78 85 194.5 136
t246.5 51q227 0 336.5 -97t109.5 -271v-636h-127v176q-37 -87 -151 -148.5t-258 -61.5q-179 0 -284 74t-105 193z" />
    <glyph glyph-name="b" unicode="b" horiz-adv-x="1178" 
d="M268 0h-129v1412h129v-639q32 91 132 161t230 70q210 0 339 -139.5t129 -376.5q0 -125 -38 -226t-103 -164.5t-148.5 -97.5t-178.5 -34q-124 0 -221.5 64t-140.5 162v-192zM264 488q0 -192 99.5 -309.5t248.5 -117.5q158 0 256.5 115.5t98.5 311.5q0 191 -97.5 306.5
t-256.5 115.5q-146 0 -247.5 -116.5t-101.5 -305.5z" />
    <glyph glyph-name="c" unicode="c" horiz-adv-x="1078" 
d="M81 486q0 233 133.5 375.5t362.5 142.5q141 0 247.5 -68.5t146.5 -171.5l-112 -28q-36 77 -112.5 125.5t-169.5 48.5q-163 0 -263 -119.5t-100 -304.5q0 -192 101 -308.5t262 -116.5q98 0 185 54.5t129 132.5l110 -31q-46 -108 -162 -179.5t-262 -71.5
q-223 0 -359.5 142.5t-136.5 377.5z" />
    <glyph glyph-name="d" unicode="d" horiz-adv-x="1180" 
d="M81 488q0 237 130.5 376.5t339.5 139.5q124 0 221.5 -66t139.5 -163v637h129v-1412h-125v194q-46 -102 -142.5 -165t-222.5 -63q-95 0 -179 34t-149.5 97.5t-103.5 164.5t-38 226zM214 488q0 -194 97.5 -310.5t257.5 -116.5q149 0 248 117t99 310q0 189 -101 305.5
t-249 116.5q-158 0 -255 -115.5t-97 -306.5z" />
    <glyph glyph-name="e" unicode="e" horiz-adv-x="1151" 
d="M81 492q0 226 140 369t364 143q223 0 356.5 -138t133.5 -350q0 -27 -4 -67h-857q0 -165 102 -276.5t276 -111.5q112 0 204 48t138 125l113 -30q-59 -109 -176 -173.5t-279 -64.5q-231 0 -371 145t-140 381zM217 536h725q0 159 -98.5 266.5t-258.5 107.5
q-162 0 -263.5 -109t-104.5 -265z" />
    <glyph glyph-name="f" unicode="f" horiz-adv-x="689" 
d="M252 876h-203v95h203v165q0 138 80.5 207t226.5 69h130v-94h-114q-190 0 -190 -197v-150h275v-95h-275v-876h-133v876z" />
    <glyph glyph-name="g" unicode="g" horiz-adv-x="1160" 
d="M214 503q0 -180 94.5 -292.5t246.5 -112.5q157 0 247 108.5t90 299.5q0 185 -91.5 294.5t-241.5 109.5q-157 0 -251 -113.5t-94 -293.5zM81 503q0 225 127 363t334 138q128 0 217.5 -60.5t132.5 -153.5v181h128v-871q0 -277 -111 -409.5t-354 -132.5q-263 0 -406 171
l94 53q134 -131 314 -131q165 0 250 105.5t85 297.5v157q-44 -95 -132.5 -152t-212.5 -57q-211 0 -338.5 139t-127.5 362z" />
    <glyph glyph-name="h" unicode="h" horiz-adv-x="1141" 
d="M268 0h-129v1412h129v-614h4q41 86 143.5 146t226.5 60q360 0 360 -375v-629h-129v608q0 302 -258 302q-136 0 -241.5 -98.5t-105.5 -229.5v-582z" />
    <glyph glyph-name="i" unicode="i" horiz-adv-x="400" 
d="M293 1208h-186v171h186v-171zM137 0v971h130v-971h-130z" />
    <glyph glyph-name="j" unicode="j" horiz-adv-x="465" 
d="M357 1208h-192v171h192v-171zM-57 -421v93h53q202 0 202 238v1061h128v-1069q0 -157 -80 -240t-229 -83h-74z" />
    <glyph glyph-name="k" unicode="k" horiz-adv-x="1038" 
d="M271 0h-132v1412h132v-963l532 522h174l-399 -385l450 -586h-161l-378 505l-218 -209v-296z" />
    <glyph glyph-name="l" unicode="l" horiz-adv-x="407" 
d="M268 0h-129v1412h129v-1412z" />
    <glyph glyph-name="m" unicode="m" horiz-adv-x="1733" 
d="M272 0h-133v971h129v-159h3q33 79 121 135.5t211 56.5q227 0 297 -231q15 53 95 132q45 44 119.5 71.5t160.5 27.5q166 0 242.5 -94t76.5 -281v-629h-130v618q0 151 -48.5 221.5t-172.5 70.5q-130 0 -219 -93.5t-89 -236.5v-580h-132v618q0 292 -226 292
q-136 0 -220.5 -89.5t-84.5 -230.5v-590z" />
    <glyph glyph-name="n" unicode="n" horiz-adv-x="1145" 
d="M272 0h-133v971h129v-183h3q26 80 133 148t244 68q165 0 261.5 -89.5t96.5 -285.5v-629h-133v608q0 302 -256 302q-137 0 -241 -97t-104 -227v-586z" />
    <glyph glyph-name="o" unicode="o" horiz-adv-x="1161" 
d="M214 486q0 -190 103 -307.5t264 -117.5q160 0 265 118.5t105 306.5q0 191 -105 307.5t-265 116.5q-159 0 -263 -116.5t-104 -307.5zM81 486q0 229 134 373.5t366 144.5q230 0 366.5 -145t136.5 -373q0 -133 -51 -247q-54 -120 -173 -196.5t-279 -76.5q-168 0 -284 80
q-216 148 -216 440z" />
    <glyph glyph-name="p" unicode="p" horiz-adv-x="1178" 
d="M268 488q0 -193 93.5 -310t251.5 -117q156 0 255 116t99 311q0 187 -95.5 304.5t-258.5 117.5q-150 0 -247.5 -119.5t-97.5 -302.5zM139 -434v1405h128v-198q46 106 142 168.5t221 62.5q208 0 338 -141.5t130 -374.5q0 -242 -133 -382t-335 -140q-128 0 -222 61t-140 163
v-624h-129z" />
    <glyph glyph-name="q" unicode="q" horiz-adv-x="1180" 
d="M214 488q0 -193 98.5 -310t253.5 -117q156 0 251 118t95 309q0 185 -97.5 303.5t-248.5 118.5q-164 0 -258 -117t-94 -305zM81 488q0 233 130.5 374.5t339.5 141.5q119 0 216.5 -61.5t148.5 -167.5v196h125v-1405h-129v626q-49 -102 -143 -164t-218 -62
q-203 0 -336.5 139t-133.5 383z" />
    <glyph glyph-name="r" unicode="r" horiz-adv-x="771" 
d="M272 0h-133v971h126v-154q37 78 121.5 132.5t204.5 54.5q97 0 162 -27v-103q-81 28 -162 28q-147 0 -233 -95t-86 -251v-556z" />
    <glyph glyph-name="s" unicode="s" horiz-adv-x="1053" 
d="M426 469q-72 22 -121 43q-62 25 -103 54q-40 30 -67.5 77.5t-27.5 100.5q0 124 117 196.5t312 72.5q149 0 266.5 -59.5t164.5 -143.5l-114 -38q-45 64 -128 99.5t-193 35.5q-149 0 -229.5 -43t-80.5 -120q0 -67 82.5 -111t265.5 -91q149 -37 223 -68q65 -27 102 -54
q40 -31 67.5 -78t27.5 -100q0 -139 -120 -217.5t-331 -78.5q-162 0 -287 60t-196 161l123 43q47 -73 143.5 -116t219.5 -43q156 0 245 47.5t89 141.5v2q0 67 -83 111t-269 89z" />
    <glyph glyph-name="t" unicode="t" horiz-adv-x="739" 
d="M252 876h-207v95h207v319h133v-319h300v-95h-300v-601q0 -96 43 -138.5t139 -40.5l118 2v-98h-135q-146 -2 -222 64t-76 200v612z" />
    <glyph glyph-name="u" unicode="u" horiz-adv-x="1137" 
d="M139 338v633h130v-605q0 -305 267 -305q155 0 244 102t89 253v555h129v-971h-128v174q-14 -59 -95 -127q-97 -81 -272 -81q-169 0 -266.5 98t-97.5 274z" />
    <glyph glyph-name="v" unicode="v" horiz-adv-x="1107" 
d="M472 0l-423 971h148l356 -873h3l351 873h150l-424 -971h-161z" />
    <glyph glyph-name="w" unicode="w" horiz-adv-x="1580" 
d="M365 0l-316 971h147l248 -867h9l257 867h160l258 -867h6l248 867h148l-317 -971h-166l-256 850h-5l-253 -850h-168z" />
    <glyph glyph-name="x" unicode="x" horiz-adv-x="1109" 
d="M225 0h-156l404 505l-384 466h157l305 -383h6l300 383h156l-381 -466l407 -505h-155l-327 419h-6z" />
    <glyph glyph-name="y" unicode="y" horiz-adv-x="1097" 
d="M490 -26l-441 997h152l351 -857h6l339 857h150l-489 -1147q-59 -138 -137.5 -198t-189.5 -60h-61v94h38q80 0 137.5 45.5t98.5 150.5z" />
    <glyph glyph-name="z" unicode="z" horiz-adv-x="1055" 
d="M972 0h-867v77l679 799h-622v95h791v-75l-685 -800h704v-96z" />
    <glyph glyph-name="braceleft" unicode="{" horiz-adv-x="879" 
d="M600 -275q-96 0 -164.5 62.5t-68.5 174.5v340q0 254 -162 254h-84v112h84q84 0 123 60t39 198v362q0 108 67 172t162 64h181v-112h-165q-115 0 -115 -138v-361q0 -210 -121 -300q121 -86 121 -289v-334q0 -81 30 -117.5t89 -36.5h161v-111h-177z" />
    <glyph glyph-name="braceright" unicode="}" horiz-adv-x="878" 
d="M102 -275v111h160q60 0 90 36.5t30 117.5v343q0 92 31.5 165.5t87.5 114.5q-119 89 -119 293v368q0 138 -116 138h-164v112h178q98 0 164.5 -63.5t66.5 -172.5v-362q0 -133 40 -195.5t122 -62.5h83v-112h-83q-162 0 -162 -243v-351q0 -112 -68 -174.5t-167 -62.5h-174z
" />
    <glyph glyph-name="asciitilde" unicode="~" horiz-adv-x="1576" 
d="M1047 448q-77 0 -143 26t-110 68q-12 10 -25.5 21.5t-29 26t-24.5 22.5q-85 76 -185 76q-158 0 -275 -191l-111 53q140 250 387 250q148 0 255 -93q16 -13 53 -46l8 -8t10 -9l9 -8q87 -76 181 -76q95 0 159 60q41 39 59 61.5t58 80.5l109 -55q-80 -124 -169.5 -191.5
t-215.5 -67.5z" />
    <glyph glyph-name="exclamdown" unicode="&#xa1;" horiz-adv-x="571" 
d="M211 -423l14 999h123l14 -999h-151zM163 749v216h244v-216h-244z" />
    <glyph glyph-name="cent" unicode="&#xa2;" horiz-adv-x="1082" 
d="M522 -64q-199 14 -320 157t-121 369q0 217 118.5 363.5t322.5 160.5v144h130v-147q120 -19 206 -86.5t115 -164.5l-119 -35q-30 81 -106 131t-177 50q-166 0 -263.5 -113.5t-97.5 -302.5q0 -190 99 -304t262 -114q106 0 192.5 55t124.5 137l117 -40
q-48 -97 -140.5 -167.5t-212.5 -89.5v-150h-130v147z" />
    <glyph glyph-name="sterling" unicode="&#xa3;" horiz-adv-x="1360" 
d="M888 -67q-70 0 -176 30q-104 27 -165 27q-143 0 -304 -36l-84 -18l-52 105q119 24 182 111.5t63 203.5v236h-241v114h241v306q0 176 108.5 269t296.5 93q136 0 238.5 -61.5t143.5 -154.5l-101 -50q-46 79 -112.5 116t-163.5 37q-279 0 -279 -252v-303h502v-114h-502v-236
q0 -157 -84 -264q96 14 159 14q81 0 180 -31q103 -27 153 -27q174 0 288 66l50 -107q-137 -74 -341 -74z" />
    <glyph glyph-name="currency" unicode="&#xa4;" horiz-adv-x="1398" 
d="M999 340q-123 -81 -298 -81q-172 0 -295 82l-225 -178l-98 71l233 191q-87 93 -87 228q0 133 84 230l-228 180l93 81l229 -178q125 80 294 80q168 0 296 -84l223 182l95 -83l-227 -180q86 -100 86 -228q0 -126 -87 -228l228 -189l-92 -75zM358 653q0 -120 96 -199.5
t247 -79.5q150 0 247 79.5t97 199.5q0 121 -97 201t-247 80q-149 0 -246 -80t-97 -201z" />
    <glyph glyph-name="yen" unicode="&#xa5;" horiz-adv-x="1299" 
d="M587 -34v351h-428v109h428v125h-428v111h350l-506 678h161l379 -510q4 -5 38 -51q19 -25 25 -36q34 -43 44 -58q6 9 14 17q4 6 13.5 19t14.5 21l63 84l378 514h164l-504 -678h341v-111h-418v-125h418v-109h-418v-351h-129z" />
    <glyph glyph-name="copyright" unicode="&#xa9;" horiz-adv-x="1619" 
d="M808 -27q-141 0 -265.5 53.5t-213.5 146t-141 222t-52 274.5q0 192 88.5 351t242.5 250t341 91q140 0 264.5 -53.5t214.5 -145t142 -220t52 -273.5t-52 -274.5t-141 -222t-214 -146t-266 -53.5zM189 669q0 -183 80 -331.5t222 -233t317 -84.5t317 84.5t223 233t81 331.5
q0 136 -47.5 255.5t-130 205t-197.5 134.5t-246 49q-130 0 -245 -49.5t-197 -135t-129.5 -205t-47.5 -254.5zM482 663q0 170 96 275t249 105q103 0 180 -56.5t107 -153.5h-62q-23 76 -82 117.5t-143 41.5q-128 0 -208 -91.5t-80 -235.5q0 -143 77.5 -233t200.5 -90
q86 0 149 40.5t91 114.5h57q-32 -95 -112 -151t-185 -56q-147 0 -241 104.5t-94 268.5z" />
    <glyph glyph-name="ordfeminine" unicode="&#xaa;" horiz-adv-x="770" 
d="M316 771q-130 0 -210 56t-80 149t69 153.5t164 78.5l109 17q130 17 204 40v3q0 70 -49 108.5t-147 38.5q-82 0 -144.5 -36t-74.5 -68l-23 -9l-89 48q39 74 132.5 123.5t198.5 49.5q152 0 235.5 -71t83.5 -187v-472h-121v64q-106 -86 -258 -86zM26 586v111h719v-111h-719z
M147 977q0 -43 43 -70t128 -27q109 0 181.5 55.5t72.5 142.5v74q-51 -13 -168 -31q-43 -5 -110 -16q-66 -11 -106.5 -43.5t-40.5 -84.5z" />
    <glyph glyph-name="guillemotleft" unicode="&#xab;" horiz-adv-x="1037" 
d="M473 12l-358 436l362 432l105 -59l-311 -373l309 -375zM440 448l361 430l105 -61l-311 -369l308 -374l-105 -61z" />
    <glyph glyph-name="logicalnot" unicode="&#xac;" horiz-adv-x="1156" 
d="M933 196v373h-838v113h969v-486h-131z" />
    <glyph glyph-name="uni00AD" unicode="&#xad;" horiz-adv-x="1191" 
d="M121 586v115h949v-115h-949z" />
    <glyph glyph-name="registered" unicode="&#xae;" horiz-adv-x="871" 
d="M435 632q-154 0 -258.5 107t-104.5 265q0 157 105 264.5t258 107.5q155 0 258.5 -106t103.5 -266t-103 -266t-259 -106zM128 1004q0 -137 87.5 -227.5t219.5 -90.5t220.5 91t88.5 227t-88.5 227t-220.5 91q-131 0 -219 -91t-88 -227zM302 801v416h145q65 0 104 -34.5
t39 -93.5q0 -88 -84 -117l92 -171h-65l-83 158h-91v-158h-57zM359 1014h86q39 0 61 19t22 55q0 72 -83 72h-86v-146z" />
    <glyph glyph-name="plusminus" unicode="&#xb1;" horiz-adv-x="1404" 
d="M638 331v367h-456v116h456v367h128v-367h456v-116h-456v-367h-128zM189 120v113h1027v-113h-1027z" />
    <glyph glyph-name="uni00B2" unicode="&#xb2;" horiz-adv-x="651" 
d="M46 1334q60 200 281 200q115 0 188.5 -58.5t73.5 -156.5q0 -113 -153 -241q-37 -31 -57 -47q-69 -57 -101 -86q-31 -28 -44 -42q-41 -45 -57 -81h412v-76h-535q-3 85 65 162q67 75 252 228q114 93 114 183q0 66 -42.5 102t-118.5 36q-141 0 -186 -144z" />
    <glyph glyph-name="uni00B3" unicode="&#xb3;" horiz-adv-x="651" 
d="M115 919q74 -113 200 -113q85 0 138.5 42t53.5 119q0 67 -58.5 109t-155.5 42q-25 0 -71 -3v79q49 -4 67 -4q87 0 134 38t47 103q0 60 -42.5 95.5t-116.5 35.5q-111 0 -168 -118l-86 26q69 166 258 166q115 0 187 -57t72 -143q0 -119 -123 -176q157 -51 157 -193
q0 -112 -79.5 -174.5t-213.5 -62.5q-203 0 -282 157z" />
    <glyph glyph-name="uni00B5" unicode="&#xb5;" horiz-adv-x="1150" 
d="M137 -468v1426h133v-629q0 -135 65.5 -210t199.5 -75q165 0 258 98t93 248v568h129v-992h-127v114q-57 -66 -150.5 -106.5t-210.5 -40.5q-161 0 -257 87v-488h-133z" />
    <glyph glyph-name="periodcentered" unicode="&#xb7;" horiz-adv-x="542" 
d="M149 516v218h243v-218h-243z" />
    <glyph glyph-name="uni00B9" unicode="&#xb9;" horiz-adv-x="709" 
d="M328 746l2 669l-204 -106v89l221 116h70v-768h-89z" />
    <glyph glyph-name="ordmasculine" unicode="&#xba;" horiz-adv-x="770" 
d="M384 771q-163 0 -258.5 108.5t-95.5 268.5q0 165 95.5 270t258.5 105q160 0 258 -105.5t98 -269.5q0 -161 -96.5 -269t-259.5 -108zM26 586v111h719v-111h-719zM155 1148q0 -123 61 -195.5t168 -72.5t170 73t63 195q0 121 -63 194t-170 73q-104 0 -166.5 -72.5
t-62.5 -194.5z" />
    <glyph glyph-name="guillemotright" unicode="&#xbb;" horiz-adv-x="1037" 
d="M556 12l-108 61l308 375l-313 373l107 59l362 -432zM121 817l105 61l362 -430l-359 -436l-103 64l304 372z" />
    <glyph glyph-name="questiondown" unicode="&#xbf;" horiz-adv-x="1004" 
d="M499 -454q-193 0 -308.5 102t-115.5 269q0 160 149 285q6 4 16 12.5t15 12.5q15 11 26 21q44 35 48 38q2 3 9 8q122 101 122 240v62h131v-64q0 -93 -41.5 -172.5t-107.5 -133.5l-33 -29q-19 -14 -79 -63q-123 -97 -123 -215q0 -123 74.5 -191t214.5 -68q114 0 196 56
t140 174l117 -44q-62 -144 -181.5 -222t-268.5 -78zM403 750v215h242v-215h-242z" />
    <glyph glyph-name="Agrave" unicode="&#xc0;" horiz-adv-x="1413" 
d="M688 1511l-301 317h181l243 -317h-123zM25 0l598 1358h169l597 -1358h-151l-169 410h-720l-175 -410h-149zM389 505h635l-309 747h-13z" />
    <glyph glyph-name="Aacute" unicode="&#xc1;" horiz-adv-x="1413" 
d="M688 1511h-118l241 317h182zM25 0l598 1358h169l597 -1358h-151l-169 410h-720l-175 -410h-149zM389 505h635l-309 747h-13z" />
    <glyph glyph-name="Acircumflex" unicode="&#xc2;" horiz-adv-x="1413" 
d="M445 1511h-143l345 299h120l350 -299h-145l-265 227zM25 0l598 1358h169l597 -1358h-151l-169 410h-720l-175 -410h-149zM389 505h635l-309 747h-13z" />
    <glyph glyph-name="Atilde" unicode="&#xc3;" horiz-adv-x="1413" 
d="M258 1630q89 164 263 164q79 0 180 -63q100 -63 148 -63q109 0 179 121l82 -47q-99 -162 -259 -162q-79 0 -176 64t-152 64q-58 0 -106.5 -34.5t-76.5 -89.5zM25 0l598 1358h169l597 -1358h-151l-169 410h-720l-175 -410h-149zM389 505h635l-309 747h-13z" />
    <glyph glyph-name="Adieresis" unicode="&#xc4;" horiz-adv-x="1413" 
d="M583 1584h-196v161h196v-161zM25 0l598 1358h169l597 -1358h-151l-169 410h-720l-175 -410h-149zM389 505h635l-309 747h-13zM822 1584v161h196v-161h-196z" />
    <glyph glyph-name="Aring" unicode="&#xc5;" horiz-adv-x="1413" 
d="M428 1668q0 97 80 164t201 67t201 -67.5t80 -163.5q0 -97 -81 -164.5t-200 -67.5q-117 0 -199 68t-82 164zM25 0l598 1358h169l597 -1358h-151l-169 410h-720l-175 -410h-149zM389 505h635l-309 747h-13zM526 1668q0 -64 52.5 -109t130.5 -45q80 0 130 43t50 111
q0 67 -50 110.5t-130 43.5t-131.5 -44.5t-51.5 -109.5z" />
    <glyph glyph-name="AE" unicode="&#xc6;" horiz-adv-x="2043" 
d="M1039 1250l-516 -745h537v745h-21zM25 0l947 1358h950v-99h-727v-504h649v-101h-656v-554h748v-100h-876v410h-602l-281 -410h-152z" />
    <glyph glyph-name="Ccedilla" unicode="&#xc7;" horiz-adv-x="1387" 
d="M99 678q0 329 182.5 521.5t480.5 192.5q172 0 299.5 -81t192.5 -205l-115 -37q-136 223 -380 223q-237 0 -379.5 -167.5t-142.5 -446.5q0 -280 143 -445t379 -165q141 0 248 66t167 174l122 -34q-72 -132 -194.5 -214t-292.5 -93l-22 -69q107 -6 166 -45t59 -105
q0 -74 -77 -120.5t-210 -46.5q-103 0 -206 28v77q115 -28 204 -28q69 0 124 27.5t55 68.5q0 47 -67 71t-184 21l38 123q-269 24 -429.5 213t-160.5 496z" />
    <glyph glyph-name="Egrave" unicode="&#xc8;" horiz-adv-x="1265" 
d="M1158 0h-993v1358h969v-99h-834v-507h756v-98h-756v-554h858v-100zM366 1828h181l242 -317h-122z" />
    <glyph glyph-name="Eacute" unicode="&#xc9;" horiz-adv-x="1265" 
d="M1158 0h-993v1358h969v-99h-834v-507h756v-98h-756v-554h858v-100zM498 1511l240 317h183l-305 -317h-118z" />
    <glyph glyph-name="Ecircumflex" unicode="&#xca;" horiz-adv-x="1265" 
d="M386 1511h-143l345 299h120l351 -299h-148l-262 227zM165 0v1358h969v-99h-834v-507h756v-98h-756v-554h858v-100h-993z" />
    <glyph glyph-name="Edieresis" unicode="&#xcb;" horiz-adv-x="1265" 
d="M1158 0h-993v1358h969v-99h-834v-507h756v-98h-756v-554h858v-100zM335 1584v161h195v-161h-195zM771 1584v161h195v-161h-195z" />
    <glyph glyph-name="Igrave" unicode="&#xcc;" horiz-adv-x="567" 
d="M362 0h-135v1358h135v-1358zM-22 1828h181l242 -317h-123z" />
    <glyph glyph-name="Iacute" unicode="&#xcd;" horiz-adv-x="576" 
d="M360 0h-135v1358h135v-1358zM165 1511l240 317h183l-304 -317h-119z" />
    <glyph glyph-name="Icircumflex" unicode="&#xce;" horiz-adv-x="682" 
d="M406 0h-135v1358h135v-1358zM-68 1511l345 299h121l350 -299h-147l-264 227l-261 -227h-144z" />
    <glyph glyph-name="Idieresis" unicode="&#xcf;" horiz-adv-x="539" 
d="M335 0h-135v1358h135v-1358zM-46 1584v161h195v-161h-195zM389 1584v161h195v-161h-195z" />
    <glyph glyph-name="Eth" unicode="&#xd0;" horiz-adv-x="1436" 
d="M609 0h-412v650h-195v95h195v613h414q342 0 534 -174.5t192 -505.5q0 -323 -190.5 -500.5t-537.5 -177.5zM332 100h249q296 0 455.5 142.5t159.5 435.5q0 297 -157.5 439t-452.5 142h-254v-514h427v-95h-427v-550z" />
    <glyph glyph-name="Ntilde" unicode="&#xd1;" horiz-adv-x="1442" 
d="M292 1630q89 164 264 164q80 0 180 -63t148 -63q111 0 178 121l84 -47q-100 -162 -261 -162q-79 0 -174 64t-153 64q-57 0 -105.5 -34.5t-77.5 -89.5zM165 0v1358h159l814 -1175v1175h138v-1358h-158l-818 1180v-1180h-135z" />
    <glyph glyph-name="Ograve" unicode="&#xd2;" 
d="M99 678q0 322 174.5 518t467.5 196q295 0 468.5 -196t173.5 -520t-174 -517t-468 -193q-295 0 -468.5 193.5t-173.5 518.5zM237 678q0 -278 136 -444t368 -166q231 0 367.5 164.5t136.5 443.5q0 284 -134 450t-370 166q-231 0 -367.5 -166t-136.5 -448zM432 1834h182
l241 -319h-122z" />
    <glyph glyph-name="Oacute" unicode="&#xd3;" 
d="M99 678q0 322 174.5 518t467.5 196q295 0 468.5 -196t173.5 -520t-174 -517t-468 -193q-295 0 -468.5 193.5t-173.5 518.5zM237 678q0 -278 136 -444t368 -166q231 0 367.5 164.5t136.5 443.5q0 284 -134 450t-370 166q-231 0 -367.5 -166t-136.5 -448zM610 1515l242 319
h181l-304 -319h-119z" />
    <glyph glyph-name="Ocircumflex" unicode="&#xd4;" 
d="M99 678q0 322 174.5 518t467.5 196q295 0 468.5 -196t173.5 -520t-174 -517t-468 -193q-295 0 -468.5 193.5t-173.5 518.5zM237 678q0 -278 136 -444t368 -166q231 0 367.5 164.5t136.5 443.5q0 284 -134 450t-370 166q-231 0 -367.5 -166t-136.5 -448zM337 1515l344 299
h121l350 -299h-147l-264 229l-261 -229h-143z" />
    <glyph glyph-name="Otilde" unicode="&#xd5;" 
d="M315 1630q90 164 264 164q79 0 181 -63q100 -63 147 -63q110 0 179 121l83 -47q-99 -162 -260 -162q-80 0 -175 64t-153 64q-57 0 -105 -34.5t-77 -89.5zM99 678q0 322 174.5 518t467.5 196q295 0 468.5 -196t173.5 -520t-174 -517t-468 -193q-295 0 -468.5 193.5
t-173.5 518.5zM237 678q0 -278 136 -444t368 -166q231 0 367.5 164.5t136.5 443.5q0 284 -134 450t-370 166q-231 0 -367.5 -166t-136.5 -448z" />
    <glyph glyph-name="Odieresis" unicode="&#xd6;" 
d="M99 678q0 322 174.5 518t467.5 196q295 0 468.5 -196t173.5 -520t-174 -517t-468 -193q-295 0 -468.5 193.5t-173.5 518.5zM237 678q0 -278 136 -444t368 -166q231 0 367.5 164.5t136.5 443.5q0 284 -134 450t-370 166q-231 0 -367.5 -166t-136.5 -448zM423 1584v161h195
v-161h-195zM858 1584v161h196v-161h-196z" />
    <glyph glyph-name="multiply" unicode="&#xd7;" horiz-adv-x="1430" 
d="M278 218l-95 82l435 338l-425 339l92 84l426 -348l429 348l95 -84l-427 -339l438 -342l-97 -78l-438 344z" />
    <glyph glyph-name="Oslash" unicode="&#xd8;" 
d="M99 678q0 213 78 375t224 251.5t340 89.5q184 0 327 -82l94 157h128l-132 -221q225 -194 225 -570q0 -324 -174 -518t-468 -194q-158 0 -287 63l-94 -163h-129l131 217q-263 191 -263 595zM237 678q0 -326 186 -492l589 1031q-116 75 -271 75q-231 0 -367.5 -166
t-136.5 -448zM511 122q99 -54 230 -54q231 0 368 165.5t137 444.5q0 299 -151 462z" />
    <glyph glyph-name="Ugrave" unicode="&#xd9;" horiz-adv-x="1431" 
d="M165 482v876h134v-870q0 -205 111.5 -312.5t304.5 -107.5t304 108.5t111 311.5v870h136v-876q0 -245 -143 -380.5t-408 -135.5q-262 0 -406 134t-144 382zM425 1834h179l243 -319h-123z" />
    <glyph glyph-name="Uacute" unicode="&#xda;" horiz-adv-x="1431" 
d="M165 482v876h134v-870q0 -205 111.5 -312.5t304.5 -107.5t304 108.5t111 311.5v870h136v-876q0 -245 -143 -380.5t-408 -135.5q-262 0 -406 134t-144 382zM575 1515l240 319h183l-306 -319h-117z" />
    <glyph glyph-name="Ucircumflex" unicode="&#xdb;" horiz-adv-x="1431" 
d="M165 482v876h134v-870q0 -205 111.5 -312.5t304.5 -107.5t304 108.5t111 311.5v870h136v-876q0 -245 -143 -380.5t-408 -135.5q-262 0 -406 134t-144 382zM316 1515l345 299h120l349 -299h-146l-264 229l-261 -229h-143z" />
    <glyph glyph-name="Udieresis" unicode="&#xdc;" horiz-adv-x="1431" 
d="M165 482v876h134v-870q0 -205 111.5 -312.5t304.5 -107.5t304 108.5t111 311.5v870h136v-876q0 -245 -143 -380.5t-408 -135.5q-262 0 -406 134t-144 382zM405 1584v161h195v-161h-195zM842 1584v161h195v-161h-195z" />
    <glyph glyph-name="Yacute" unicode="&#xdd;" horiz-adv-x="1311" 
d="M510 1515l240 319h182l-305 -319h-117zM26 1358h163l464 -692h5l463 692h164l-559 -798v-560h-136v560z" />
    <glyph glyph-name="Thorn" unicode="&#xde;" horiz-adv-x="1256" 
d="M286 0h-135v1358h135v-234h293q270 0 407.5 -111.5t137.5 -310.5q0 -210 -152.5 -317t-420.5 -107h-265v-278zM286 377h252q449 0 449 325q0 322 -424 322h-277v-647z" />
    <glyph glyph-name="germandbls" unicode="&#xdf;" horiz-adv-x="1329" 
d="M300 0h-135v1034q0 167 129.5 263.5t335.5 96.5q208 0 337 -100t129 -264q0 -222 -189 -313v-4q89 -19 160 -64.5t117.5 -125.5t46.5 -181q0 -165 -123.5 -270.5t-328.5 -105.5q-163 0 -314 42l13 103q132 -43 295 -43q136 0 228 77t92 197q0 147 -104.5 227.5
t-267.5 80.5h-133v100h119q111 0 180.5 76.5t69.5 195.5t-88.5 194.5t-236.5 75.5q-153 0 -242.5 -71.5t-89.5 -196.5v-1024z" />
    <glyph glyph-name="agrave" unicode="&#xe0;" horiz-adv-x="1147" 
d="M215 240q0 -75 75 -127t200 -52q162 0 275.5 90.5t113.5 226.5v154q-103 -27 -321 -55q-179 -26 -261 -83t-82 -154zM83 233q0 134 115.5 215.5t361.5 114.5q248 36 319 60v55q0 104 -83.5 169t-231.5 65q-101 0 -196.5 -41.5t-161.5 -112.5l-85 59q78 85 194.5 136
t246.5 51q227 0 336.5 -97t109.5 -271v-636h-127v176q-37 -87 -151 -148.5t-258 -61.5q-179 0 -284 74t-105 193zM296 1472h181l242 -319h-123z" />
    <glyph glyph-name="aacute" unicode="&#xe1;" horiz-adv-x="1147" 
d="M215 240q0 -75 75 -127t200 -52q162 0 275.5 90.5t113.5 226.5v154q-103 -27 -321 -55q-179 -26 -261 -83t-82 -154zM83 233q0 134 115.5 215.5t361.5 114.5q248 36 319 60v55q0 104 -83.5 169t-231.5 65q-101 0 -196.5 -41.5t-161.5 -112.5l-85 59q78 85 194.5 136
t246.5 51q227 0 336.5 -97t109.5 -271v-636h-127v176q-37 -87 -151 -148.5t-258 -61.5q-179 0 -284 74t-105 193zM401 1160l242 318h181l-304 -318h-119z" />
    <glyph glyph-name="acircumflex" unicode="&#xe2;" horiz-adv-x="1147" 
d="M215 240q0 -75 75 -127t200 -52q162 0 275.5 90.5t113.5 226.5v154q-103 -27 -321 -55q-179 -26 -261 -83t-82 -154zM83 233q0 134 115.5 215.5t361.5 114.5q248 36 319 60v55q0 104 -83.5 169t-231.5 65q-101 0 -196.5 -41.5t-161.5 -112.5l-85 59q78 85 194.5 136
t246.5 51q227 0 336.5 -97t109.5 -271v-636h-127v176q-37 -87 -151 -148.5t-258 -61.5q-179 0 -284 74t-105 193zM153 1160l346 300h120l348 -300h-145l-264 230l-262 -230h-143z" />
    <glyph glyph-name="atilde" unicode="&#xe3;" horiz-adv-x="1147" 
d="M215 240q0 -75 75 -127t200 -52q162 0 275.5 90.5t113.5 226.5v154q-103 -27 -321 -55q-179 -26 -261 -83t-82 -154zM83 233q0 134 115.5 215.5t361.5 114.5q248 36 319 60v55q0 104 -83.5 169t-231.5 65q-101 0 -196.5 -41.5t-161.5 -112.5l-85 59q78 85 194.5 136
t246.5 51q227 0 336.5 -97t109.5 -271v-636h-127v176q-37 -87 -151 -148.5t-258 -61.5q-179 0 -284 74t-105 193zM140 1265q88 163 264 163q78 0 180 -63q100 -63 148 -63q108 0 177 120l86 -46q-99 -162 -261 -162q-81 0 -176 64t-152 64q-58 0 -105.5 -34.5t-76.5 -89.5z
" />
    <glyph glyph-name="adieresis" unicode="&#xe4;" horiz-adv-x="1147" 
d="M215 240q0 -75 75 -127t200 -52q162 0 275.5 90.5t113.5 226.5v154q-103 -27 -321 -55q-179 -26 -261 -83t-82 -154zM83 233q0 134 115.5 215.5t361.5 114.5q248 36 319 60v55q0 104 -83.5 169t-231.5 65q-101 0 -196.5 -41.5t-161.5 -112.5l-85 59q78 85 194.5 136
t246.5 51q227 0 336.5 -97t109.5 -271v-636h-127v176q-37 -87 -151 -148.5t-258 -61.5q-179 0 -284 74t-105 193zM245 1227v163h195v-163h-195zM680 1227v163h195v-163h-195z" />
    <glyph glyph-name="aring" unicode="&#xe5;" horiz-adv-x="1147" 
d="M215 240q0 -75 75 -127t200 -52q162 0 275.5 90.5t113.5 226.5v154q-103 -27 -321 -55q-179 -26 -261 -83t-82 -154zM83 233q0 134 115.5 215.5t361.5 114.5q248 36 319 60v55q0 104 -83.5 169t-231.5 65q-101 0 -196.5 -41.5t-161.5 -112.5l-85 59q78 85 194.5 136
t246.5 51q227 0 336.5 -97t109.5 -271v-636h-127v176q-37 -87 -151 -148.5t-258 -61.5q-179 0 -284 74t-105 193zM278 1357q0 96 80 163.5t200 67.5t200.5 -68t80.5 -163q0 -97 -81 -165t-200 -68q-117 0 -198.5 68.5t-81.5 164.5zM376 1357q0 -66 52 -110.5t130 -44.5
q79 0 129.5 43t50.5 112q0 66 -49.5 110t-130.5 44q-79 0 -130.5 -45t-51.5 -109z" />
    <glyph glyph-name="ae" unicode="&#xe6;" horiz-adv-x="1933" 
d="M83 234q0 134 114.5 215t360.5 114t320 60v55q0 102 -81.5 168t-223.5 66q-222 0 -367 -156l-87 61q77 85 197.5 136t256.5 51q161 0 260 -61.5t134 -167.5q55 106 163 167.5t245 61.5q213 0 347.5 -140.5t134.5 -348.5v-66h-847v-41q18 -149 116 -248t253 -99
q109 0 199 49t137 124l113 -32q-134 -236 -453 -236q-152 0 -264 71.5t-171 198.5q-57 -119 -178 -194.5t-290 -75.5q-179 0 -284 73.5t-105 194.5zM215 240q0 -75 73.5 -127t196.5 -52q163 0 278 89.5t115 227.5v154q-74 -21 -314 -53q-349 -46 -349 -239zM1010 536h715
q0 158 -98.5 266t-251.5 108q-147 0 -243.5 -96.5t-115.5 -241.5z" />
    <glyph glyph-name="ccedilla" unicode="&#xe7;" horiz-adv-x="1078" 
d="M81 486q0 233 133.5 375.5t362.5 142.5q141 0 247.5 -68.5t146.5 -171.5l-112 -28q-36 77 -112.5 125.5t-169.5 48.5q-163 0 -263 -119.5t-100 -304.5q0 -192 101 -308.5t262 -116.5q98 0 185 54.5t129 132.5l110 -31q-44 -103 -151.5 -173t-245.5 -77l-20 -70
q107 -6 165.5 -45.5t58.5 -104.5q0 -74 -77 -121t-209 -47q-100 0 -207 27v78q115 -27 204 -27q69 0 125 27.5t56 68.5q0 45 -68 69q-66 24 -184 22l38 129q-185 29 -295 166.5t-110 346.5z" />
    <glyph glyph-name="egrave" unicode="&#xe8;" horiz-adv-x="1151" 
d="M81 492q0 226 140 369t364 143q223 0 356.5 -138t133.5 -350q0 -27 -4 -67h-857q0 -165 102 -276.5t276 -111.5q112 0 204 48t138 125l113 -30q-59 -109 -176 -173.5t-279 -64.5q-231 0 -371 145t-140 381zM217 536h725q0 159 -98.5 266.5t-258.5 107.5
q-162 0 -263.5 -109t-104.5 -265zM302 1478h181l242 -318h-122z" />
    <glyph glyph-name="eacute" unicode="&#xe9;" horiz-adv-x="1151" 
d="M81 492q0 226 140 369t364 143q223 0 356.5 -138t133.5 -350q0 -27 -4 -67h-857q0 -165 102 -276.5t276 -111.5q112 0 204 48t138 125l113 -30q-59 -109 -176 -173.5t-279 -64.5q-231 0 -371 145t-140 381zM217 536h725q0 159 -98.5 266.5t-258.5 107.5
q-162 0 -263.5 -109t-104.5 -265zM407 1160l240 318h182l-303 -318h-119z" />
    <glyph glyph-name="ecircumflex" unicode="&#xea;" horiz-adv-x="1151" 
d="M81 492q0 226 140 369t364 143q223 0 356.5 -138t133.5 -350q0 -27 -4 -67h-857q0 -165 102 -276.5t276 -111.5q112 0 204 48t138 125l113 -30q-59 -109 -176 -173.5t-279 -64.5q-231 0 -371 145t-140 381zM181 1160l345 300h120l348 -300h-144l-265 230l-262 -230h-142z
M217 536h725q0 159 -98.5 266.5t-258.5 107.5q-162 0 -263.5 -109t-104.5 -265z" />
    <glyph glyph-name="edieresis" unicode="&#xeb;" horiz-adv-x="1151" 
d="M461 1227h-196v163h196v-163zM81 492q0 226 140 369t364 143q223 0 356.5 -138t133.5 -350q0 -27 -4 -67h-857q0 -165 102 -276.5t276 -111.5q112 0 204 48t138 125l113 -30q-59 -109 -176 -173.5t-279 -64.5q-231 0 -371 145t-140 381zM217 536h725q0 159 -98.5 266.5
t-258.5 107.5q-162 0 -263.5 -109t-104.5 -265zM700 1227v163h195v-163h-195z" />
    <glyph glyph-name="igrave" unicode="&#xec;" horiz-adv-x="501" 
d="M308 0h-133v971h133v-971zM-61 1478h182l241 -318h-122z" />
    <glyph glyph-name="iacute" unicode="&#xed;" horiz-adv-x="519" 
d="M333 0h-133v971h133v-971zM139 1160l239 318h184l-306 -318h-117z" />
    <glyph glyph-name="icircumflex" unicode="&#xee;" horiz-adv-x="621" 
d="M47 1160h-144l345 300h120l349 -300h-145l-264 230zM243 0v971h133v-971h-133z" />
    <glyph glyph-name="idieresis" unicode="&#xef;" horiz-adv-x="480" 
d="M121 1227h-197v163h197v-163zM175 0v971h133v-971h-133zM360 1227v163h195v-163h-195z" />
    <glyph glyph-name="eth" unicode="&#xf0;" horiz-adv-x="1161" 
d="M400 999l-74 73l266 166q-118 63 -277 84l43 90q196 -27 340 -108l220 137l74 -74l-202 -126q291 -233 291 -762q0 -228 -133.5 -370.5t-368.5 -142.5q-229 0 -363.5 134.5t-134.5 341.5q0 218 136 346.5t360 128.5q126 0 218 -50.5t133 -129.5q-60 292 -243 439z
M214 446q0 -173 100.5 -279t269.5 -106q161 0 257 105.5t96 282.5q0 168 -97.5 270t-255.5 102q-166 0 -268 -99.5t-102 -275.5z" />
    <glyph glyph-name="ntilde" unicode="&#xf1;" horiz-adv-x="1154" 
d="M139 1265q91 163 264 163q80 0 182 -63q101 -63 147 -63q109 0 178 120l84 -46q-99 -162 -261 -162q-79 0 -174 64q-97 64 -153 64q-57 0 -104.5 -34.5t-78.5 -89.5zM148 0v971h129v-183h3q26 80 133 148t244 68q165 0 261.5 -89.5t96.5 -285.5v-629h-133v608
q0 302 -256 302q-137 0 -241 -97t-104 -227v-586h-133z" />
    <glyph glyph-name="ograve" unicode="&#xf2;" horiz-adv-x="1161" 
d="M214 486q0 -190 103 -307.5t264 -117.5q160 0 265 118.5t105 306.5q0 191 -105 307.5t-265 116.5q-159 0 -263 -116.5t-104 -307.5zM81 486q0 229 134 373.5t366 144.5q230 0 366.5 -145t136.5 -373q0 -133 -51 -247q-54 -120 -173 -196.5t-279 -76.5q-168 0 -284 80
q-216 148 -216 440zM301 1478h179l243 -318h-122z" />
    <glyph glyph-name="oacute" unicode="&#xf3;" horiz-adv-x="1161" 
d="M214 486q0 -190 103 -307.5t264 -117.5q160 0 265 118.5t105 306.5q0 191 -105 307.5t-265 116.5q-159 0 -263 -116.5t-104 -307.5zM81 486q0 229 134 373.5t366 144.5q230 0 366.5 -145t136.5 -373q0 -133 -51 -247q-54 -120 -173 -196.5t-279 -76.5q-168 0 -284 80
q-216 148 -216 440zM440 1160l239 318h183l-305 -318h-117z" />
    <glyph glyph-name="ocircumflex" unicode="&#xf4;" horiz-adv-x="1161" 
d="M319 1160h-142l345 300h120l349 -300h-146l-264 230zM81 486q0 229 134 373.5t366 144.5q230 0 366.5 -145t136.5 -373q0 -133 -51 -247q-54 -120 -173 -196.5t-279 -76.5q-168 0 -284 80q-216 148 -216 440zM214 486q0 -190 103 -307.5t264 -117.5q160 0 265 118.5
t105 306.5q0 191 -105 307.5t-265 116.5q-159 0 -263 -116.5t-104 -307.5z" />
    <glyph glyph-name="otilde" unicode="&#xf5;" horiz-adv-x="1161" 
d="M140 1265q88 163 263 163q81 0 181 -63t147 -63q111 0 178 120l83 -46q-98 -162 -258 -162q-79 0 -176 64t-152 64q-58 0 -105.5 -34.5t-78.5 -89.5zM81 486q0 229 134 373.5t366 144.5q230 0 366.5 -145t136.5 -373q0 -133 -51 -247q-54 -120 -173 -196.5t-279 -76.5
q-168 0 -284 80q-216 148 -216 440zM214 486q0 -190 103 -307.5t264 -117.5q160 0 265 118.5t105 306.5q0 191 -105 307.5t-265 116.5q-159 0 -263 -116.5t-104 -307.5z" />
    <glyph glyph-name="odieresis" unicode="&#xf6;" horiz-adv-x="1161" 
d="M461 1227h-196v163h196v-163zM81 486q0 229 134 373.5t366 144.5q230 0 366.5 -145t136.5 -373q0 -133 -51 -247q-54 -120 -173 -196.5t-279 -76.5q-168 0 -284 80q-216 148 -216 440zM214 486q0 -190 103 -307.5t264 -117.5q160 0 265 118.5t105 306.5q0 191 -105 307.5
t-265 116.5q-159 0 -263 -116.5t-104 -307.5zM700 1227v163h195v-163h-195z" />
    <glyph glyph-name="divide" unicode="&#xf7;" horiz-adv-x="1456" 
d="M185 586v115h1086v-115h-1086zM613 224v199h231v-199h-231zM613 864v203h231v-203h-231z" />
    <glyph glyph-name="oslash" unicode="&#xf8;" horiz-adv-x="1158" 
d="M81 484q0 149 59 266t174 185.5t270 68.5q140 0 238 -52l76 130h115l-111 -183q179 -143 179 -415q0 -106 -32.5 -199t-93.5 -164.5t-157 -113t-214 -41.5q-123 0 -220 44l-75 -124h-111l101 172q-95 69 -146.5 182t-51.5 244zM214 484q0 -206 127 -326l425 699
q-89 53 -182 53q-160 0 -265 -117.5t-105 -308.5zM418 100q80 -39 166 -39q159 0 263 117.5t104 305.5q0 191 -110 310z" />
    <glyph glyph-name="ugrave" unicode="&#xf9;" horiz-adv-x="1137" 
d="M139 338v633h130v-605q0 -305 267 -305q155 0 244 102t89 253v555h129v-971h-128v174q-14 -59 -95 -127q-97 -81 -272 -81q-169 0 -266.5 98t-97.5 274zM284 1478h180l243 -318h-122z" />
    <glyph glyph-name="uacute" unicode="&#xfa;" horiz-adv-x="1137" 
d="M139 338v633h130v-605q0 -305 267 -305q155 0 244 102t89 253v555h129v-971h-128v174q-14 -59 -95 -127q-97 -81 -272 -81q-169 0 -266.5 98t-97.5 274zM434 1160l241 318h182l-304 -318h-119z" />
    <glyph glyph-name="ucircumflex" unicode="&#xfb;" horiz-adv-x="1143" 
d="M139 338v633h130v-605q0 -305 267 -305q155 0 244 102t89 253v555h129v-971h-128v174q-14 -59 -95 -127q-97 -81 -272 -81q-169 0 -266.5 98t-97.5 274zM188 1160l345 300h121l350 -300h-147l-263 230l-262 -230h-144z" />
    <glyph glyph-name="udieresis" unicode="&#xfc;" horiz-adv-x="1137" 
d="M464 1227h-195v163h195v-163zM139 338v633h130v-605q0 -305 267 -305q155 0 244 102t89 253v555h129v-971h-128v174q-14 -59 -95 -127q-97 -81 -272 -81q-169 0 -266.5 98t-97.5 274zM705 1227v163h196v-163h-196z" />
    <glyph glyph-name="yacute" unicode="&#xfd;" horiz-adv-x="1097" 
d="M378 1160l241 318h181l-305 -318h-117zM49 971h152l351 -857h6l339 857h150l-489 -1147q-59 -138 -137.5 -198t-189.5 -60h-61v94h38q80 0 137.5 45.5t98.5 150.5l46 118z" />
    <glyph glyph-name="thorn" unicode="&#xfe;" horiz-adv-x="1178" 
d="M266 488q0 -189 98.5 -308t243.5 -119q164 0 261.5 114t97.5 311q0 193 -97 308.5t-262 115.5q-142 0 -242 -119t-100 -303zM139 -434v1846h131v-641q35 101 138.5 167t216.5 66q217 0 345 -139.5t128 -378.5q0 -125 -37 -224.5t-102 -163.5t-151.5 -98t-186.5 -34
q-121 0 -217 65.5t-134 162.5v-628h-131z" />
    <glyph glyph-name="ydieresis" unicode="&#xff;" horiz-adv-x="1097" 
d="M414 1227h-195v163h195v-163zM49 971h152l351 -857h6l339 857h150l-489 -1147q-59 -138 -137.5 -198t-189.5 -60h-61v94h38q80 0 137.5 45.5t98.5 150.5l46 118zM655 1227v163h195v-163h-195z" />
    <glyph glyph-name="Amacron" unicode="&#x100;" horiz-adv-x="1413" 
d="M1057 1616h-708v81h708v-81zM25 0l598 1358h169l597 -1358h-151l-169 410h-720l-175 -410h-149zM389 505h635l-309 747h-13z" />
    <glyph glyph-name="amacron" unicode="&#x101;" horiz-adv-x="1147" 
d="M914 1240h-708v82h708v-82zM83 233q0 134 115.5 215.5t361.5 114.5q248 36 319 60v55q0 104 -83.5 169t-231.5 65q-101 0 -196.5 -41.5t-161.5 -112.5l-85 59q78 85 194.5 136t246.5 51q227 0 336.5 -97t109.5 -271v-636h-127v176q-37 -87 -151 -148.5t-258 -61.5
q-179 0 -284 74t-105 193zM215 240q0 -75 75 -127t200 -52q162 0 275.5 90.5t113.5 226.5v154q-103 -27 -321 -55q-179 -26 -261 -83t-82 -154z" />
    <glyph glyph-name="Abreve" unicode="&#x102;" horiz-adv-x="1413" 
d="M481 1780q3 -78 69 -132t159 -54q96 0 162 55t71 131h109q-9 -113 -100 -189t-242 -76q-152 0 -242 76.5t-97 188.5h111zM25 0l598 1358h169l597 -1358h-151l-169 410h-720l-175 -410h-149zM389 505h635l-309 747h-13z" />
    <glyph glyph-name="abreve" unicode="&#x103;" horiz-adv-x="1147" 
d="M215 240q0 -75 75 -127t200 -52q162 0 275.5 90.5t113.5 226.5v154q-103 -27 -321 -55q-179 -26 -261 -83t-82 -154zM83 233q0 134 115.5 215.5t361.5 114.5q248 36 319 60v55q0 104 -83.5 169t-231.5 65q-101 0 -196.5 -41.5t-161.5 -112.5l-85 59q78 85 194.5 136
t246.5 51q227 0 336.5 -97t109.5 -271v-636h-127v176q-37 -87 -151 -148.5t-258 -61.5q-179 0 -284 74t-105 193zM217 1422h109q4 -76 70.5 -130t159.5 -54q94 0 160.5 55t70.5 129h111q-6 -111 -98.5 -187.5t-243.5 -76.5t-241.5 76.5t-97.5 187.5z" />
    <glyph glyph-name="Aogonek" unicode="&#x104;" horiz-adv-x="1369" 
d="M1363 0q-234 -129 -234 -216q0 -74 105 -74q48 0 139 27v-80q-69 -25 -162 -25q-203 0 -203 136q0 63 67 126.5t162 108.5l-168 407h-720l-175 -410h-149l598 1358h169l597 -1358h-26zM389 505h635l-309 747h-13z" />
    <glyph glyph-name="aogonek" unicode="&#x105;" horiz-adv-x="1111" 
d="M215 240q0 -75 75 -127t200 -52q162 0 275.5 90.5t113.5 226.5v154q-103 -27 -321 -55q-179 -26 -261 -83t-82 -154zM83 233q0 134 115.5 215.5t361.5 114.5q248 36 319 60v55q0 104 -83.5 169t-231.5 65q-101 0 -196.5 -41.5t-161.5 -112.5l-85 59q78 85 194.5 136
t246.5 51q227 0 336.5 -97t109.5 -271v-632h5l-5 -3v-1h-2q-236 -129 -236 -216q0 -74 108 -74q46 0 138 27v-80q-69 -25 -162 -25q-204 0 -204 136q0 63 67.5 126t163.5 110v172q-37 -87 -151 -148.5t-258 -61.5q-179 0 -284 74t-105 193z" />
    <glyph glyph-name="Cacute" unicode="&#x106;" horiz-adv-x="1387" 
d="M99 678q0 329 182.5 521.5t480.5 192.5q172 0 299.5 -81t192.5 -205l-115 -37q-136 223 -380 223q-237 0 -379.5 -167.5t-142.5 -446.5q0 -280 143 -445t379 -165q141 0 248 66t167 174l122 -34q-77 -141 -211.5 -224.5t-322.5 -83.5q-196 0 -345.5 85t-233.5 247
t-84 380zM636 1515l238 319h182l-304 -319h-116z" />
    <glyph glyph-name="cacute" unicode="&#x107;" horiz-adv-x="1078" 
d="M581 1160h-118l240 318h183zM81 486q0 233 133.5 375.5t362.5 142.5q141 0 247.5 -68.5t146.5 -171.5l-112 -28q-36 77 -112.5 125.5t-169.5 48.5q-163 0 -263 -119.5t-100 -304.5q0 -192 101 -308.5t262 -116.5q98 0 185 54.5t129 132.5l110 -31q-46 -108 -162 -179.5
t-262 -71.5q-223 0 -359.5 142.5t-136.5 377.5z" />
    <glyph glyph-name="Cdotaccent" unicode="&#x10a;" horiz-adv-x="1387" 
d="M99 678q0 329 182.5 521.5t480.5 192.5q172 0 299.5 -81t192.5 -205l-115 -37q-136 223 -380 223q-237 0 -379.5 -167.5t-142.5 -446.5q0 -280 143 -445t379 -165q141 0 248 66t167 174l122 -34q-77 -141 -211.5 -224.5t-322.5 -83.5q-196 0 -345.5 85t-233.5 247
t-84 380zM666 1584v164h195v-164h-195z" />
    <glyph glyph-name="cdotaccent" unicode="&#x10b;" horiz-adv-x="1078" 
d="M676 1229h-198v165h198v-165zM81 486q0 233 133.5 375.5t362.5 142.5q141 0 247.5 -68.5t146.5 -171.5l-112 -28q-36 77 -112.5 125.5t-169.5 48.5q-163 0 -263 -119.5t-100 -304.5q0 -192 101 -308.5t262 -116.5q98 0 185 54.5t129 132.5l110 -31q-46 -108 -162 -179.5
t-262 -71.5q-223 0 -359.5 142.5t-136.5 377.5z" />
    <glyph glyph-name="Ccaron" unicode="&#x10c;" horiz-adv-x="1387" 
d="M99 678q0 329 182.5 521.5t480.5 192.5q172 0 299.5 -81t192.5 -205l-115 -37q-136 223 -380 223q-237 0 -379.5 -167.5t-142.5 -446.5q0 -280 143 -445t379 -165q141 0 248 66t167 174l122 -34q-77 -141 -211.5 -224.5t-322.5 -83.5q-196 0 -345.5 85t-233.5 247
t-84 380zM365 1810h139l258 -224l260 224h139l-339 -295h-122z" />
    <glyph glyph-name="ccaron" unicode="&#x10d;" horiz-adv-x="1078" 
d="M81 486q0 233 133.5 375.5t362.5 142.5q141 0 247.5 -68.5t146.5 -171.5l-112 -28q-36 77 -112.5 125.5t-169.5 48.5q-163 0 -263 -119.5t-100 -304.5q0 -192 101 -308.5t262 -116.5q98 0 185 54.5t129 132.5l110 -31q-46 -108 -162 -179.5t-262 -71.5
q-223 0 -359.5 142.5t-136.5 377.5zM187 1454h141l257 -224l260 224h141l-340 -294h-123z" />
    <glyph glyph-name="Dcaron" unicode="&#x10e;" horiz-adv-x="1404" 
d="M577 0h-412v1358h414q342 0 534 -174.5t192 -505.5q0 -323 -190.5 -500.5t-537.5 -177.5zM216 1810h141l258 -224l258 224h140l-339 -295h-122zM300 100h249q296 0 455.5 142.5t159.5 435.5q0 297 -157.5 439t-452.5 142h-254v-1159z" />
    <glyph glyph-name="dcaron" unicode="&#x10f;" horiz-adv-x="1662" 
d="M81 488q0 237 130.5 376.5t339.5 139.5q124 0 221.5 -66t139.5 -163v637h129v-1412h-125v194q-46 -102 -142.5 -165t-222.5 -63q-95 0 -179 34t-149.5 97.5t-103.5 164.5t-38 226zM214 488q0 -194 97.5 -310.5t257.5 -116.5q149 0 248 117t99 310q0 189 -101 305.5
t-249 116.5q-158 0 -255 -115.5t-97 -306.5zM1093 1054l117 344h154l-169 -344h-102z" />
    <glyph glyph-name="Dcroat" unicode="&#x110;" horiz-adv-x="1374" 
d="M547 0h-412v650h-231v95h231v613h414q342 0 534 -174.5t192 -505.5q0 -323 -190.5 -500.5t-537.5 -177.5zM270 100h249q296 0 455.5 142.5t159.5 435.5q0 297 -157.5 439t-452.5 142h-254v-514h390v-95h-390v-550z" />
    <glyph glyph-name="dcroat" unicode="&#x111;" horiz-adv-x="1115" 
d="M81 486q0 239 130 378.5t340 139.5q124 0 220.5 -66.5t137.5 -162.5v387h-474v86h474v164h132v-164h159v-86h-159v-1162h-128v194q-50 -105 -144 -166.5t-220 -61.5q-96 0 -180 34t-148.5 97.5t-102 164t-37.5 224.5zM214 486q0 -192 97.5 -308.5t257.5 -116.5
q148 0 246 117t98 308q0 186 -99.5 305t-247.5 119q-157 0 -254.5 -116.5t-97.5 -307.5z" />
    <glyph glyph-name="Emacron" unicode="&#x112;" horiz-adv-x="1265" 
d="M1158 0h-993v1358h969v-99h-834v-507h756v-98h-756v-554h858v-100zM300 1616v82h708v-82h-708z" />
    <glyph glyph-name="emacron" unicode="&#x113;" horiz-adv-x="1151" 
d="M81 492q0 226 140 369t364 143q223 0 356.5 -138t133.5 -350q0 -27 -4 -67h-857q0 -165 102 -276.5t276 -111.5q112 0 204 48t138 125l113 -30q-59 -109 -176 -173.5t-279 -64.5q-231 0 -371 145t-140 381zM217 536h725q0 159 -98.5 266.5t-258.5 107.5
q-162 0 -263.5 -109t-104.5 -265zM222 1242v81h708v-81h-708z" />
    <glyph glyph-name="Edotaccent" unicode="&#x116;" horiz-adv-x="1265" 
d="M1158 0h-993v1358h969v-99h-834v-507h756v-98h-756v-554h858v-100zM575 1584v164h198v-164h-198z" />
    <glyph glyph-name="edotaccent" unicode="&#x117;" horiz-adv-x="1151" 
d="M681 1229h-197v165h197v-165zM81 492q0 226 140 369t364 143q223 0 356.5 -138t133.5 -350q0 -27 -4 -67h-857q0 -165 102 -276.5t276 -111.5q112 0 204 48t138 125l113 -30q-59 -109 -176 -173.5t-279 -64.5q-231 0 -371 145t-140 381zM217 536h725q0 159 -98.5 266.5
t-258.5 107.5q-162 0 -263.5 -109t-104.5 -265z" />
    <glyph glyph-name="Eogonek" unicode="&#x118;" horiz-adv-x="1220" 
d="M886 0q-235 -129 -235 -216q0 -74 106 -74q47 0 137 27v-80q-68 -25 -159 -25q-205 0 -205 136q0 61 65 123.5t158 108.5h-588v1358h969v-99h-834v-507h756v-98h-756v-554h858v-100h-272z" />
    <glyph glyph-name="eogonek" unicode="&#x119;" horiz-adv-x="1151" 
d="M81 492q0 226 140 369t364 143q223 0 356.5 -138t133.5 -350q0 -27 -4 -67h-857q0 -165 102 -276.5t276 -111.5q112 0 204 48t138 125l113 -30q-48 -90 -137 -150.5t-212 -79.5q-192 -112 -192 -192q0 -74 108 -74q46 0 136 27v-81q-69 -24 -161 -24q-204 0 -204 136
q0 51 47 104t120 97q-215 13 -343 156.5t-128 368.5zM217 536h725q0 159 -98.5 266.5t-258.5 107.5q-162 0 -263.5 -109t-104.5 -265z" />
    <glyph glyph-name="Ecaron" unicode="&#x11a;" horiz-adv-x="1265" 
d="M1158 0h-993v1358h969v-99h-834v-507h756v-98h-756v-554h858v-100zM231 1810h141l257 -224l259 224h141l-340 -295h-122z" />
    <glyph glyph-name="ecaron" unicode="&#x11b;" horiz-adv-x="1151" 
d="M81 492q0 226 140 369t364 143q223 0 356.5 -138t133.5 -350q0 -27 -4 -67h-857q0 -165 102 -276.5t276 -111.5q112 0 204 48t138 125l113 -30q-59 -109 -176 -173.5t-279 -64.5q-231 0 -371 145t-140 381zM181 1454h138l258 -224l259 224h141l-340 -294h-123zM217 536
h725q0 159 -98.5 266.5t-258.5 107.5q-162 0 -263.5 -109t-104.5 -265z" />
    <glyph glyph-name="Gbreve" unicode="&#x11e;" horiz-adv-x="1460" 
d="M99 678q0 212 80.5 373t234.5 251t362 90q182 0 311.5 -78t199.5 -199l-115 -36q-150 213 -396 213q-252 0 -395.5 -167t-143.5 -447q0 -282 145 -446t387 -164q142 0 246 59t153.5 153.5t49.5 211.5v131h-468v99h601v-722h-101l-10 226q-123 -260 -475 -260
q-303 0 -484.5 192.5t-181.5 519.5zM423 1780h108q6 -78 71.5 -132t159.5 -54t161 55t70 131h110q-9 -113 -100 -189t-241 -76q-152 0 -242.5 76.5t-96.5 188.5z" />
    <glyph glyph-name="gbreve" unicode="&#x11f;" horiz-adv-x="1160" 
d="M214 503q0 -180 94.5 -292.5t246.5 -112.5q157 0 247 108.5t90 299.5q0 185 -91.5 294.5t-241.5 109.5q-157 0 -251 -113.5t-94 -293.5zM81 503q0 225 127 363t334 138q128 0 217.5 -60.5t132.5 -153.5v181h128v-871q0 -277 -111 -409.5t-354 -132.5q-263 0 -406 171
l94 53q134 -131 314 -131q165 0 250 105.5t85 297.5v157q-44 -95 -132.5 -152t-212.5 -57q-211 0 -338.5 139t-127.5 362zM231 1422h110q4 -77 69.5 -130.5t160.5 -53.5q94 0 160.5 55t70.5 129h110q-7 -111 -99 -187.5t-242 -76.5q-152 0 -242.5 76.5t-97.5 187.5z" />
    <glyph glyph-name="Gdotaccent" unicode="&#x120;" horiz-adv-x="1460" 
d="M99 678q0 212 80.5 373t234.5 251t362 90q182 0 311.5 -78t199.5 -199l-115 -36q-150 213 -396 213q-252 0 -395.5 -167t-143.5 -447q0 -282 145 -446t387 -164q142 0 246 59t153.5 153.5t49.5 211.5v131h-468v99h601v-722h-101l-10 226q-123 -260 -475 -260
q-303 0 -484.5 192.5t-181.5 519.5zM671 1584v164h196v-164h-196z" />
    <glyph glyph-name="gdotaccent" unicode="&#x121;" horiz-adv-x="1160" 
d="M214 503q0 -180 94.5 -292.5t246.5 -112.5q157 0 247 108.5t90 299.5q0 185 -91.5 294.5t-241.5 109.5q-157 0 -251 -113.5t-94 -293.5zM81 503q0 225 127 363t334 138q128 0 217.5 -60.5t132.5 -153.5v181h128v-871q0 -277 -111 -409.5t-354 -132.5q-263 0 -406 171
l94 53q134 -131 314 -131q165 0 250 105.5t85 297.5v157q-44 -95 -132.5 -152t-212.5 -57q-211 0 -338.5 139t-127.5 362zM492 1229v165h196v-165h-196z" />
    <glyph glyph-name="uni0122" unicode="&#x122;" horiz-adv-x="1460" 
d="M99 678q0 212 80.5 373t234.5 251t362 90q182 0 311.5 -78t199.5 -199l-115 -36q-150 213 -396 213q-252 0 -395.5 -167t-143.5 -447q0 -282 145 -446t387 -164q142 0 246 59t153.5 153.5t49.5 211.5v131h-468v99h601v-722h-101l-10 226q-123 -260 -475 -260
q-303 0 -484.5 192.5t-181.5 519.5zM636 -454l110 339h158l-171 -339h-97z" />
    <glyph glyph-name="uni0123" unicode="&#x123;" horiz-adv-x="1160" 
d="M634 1166h-162l174 324h95zM81 503q0 222 128 361.5t332 139.5q132 0 220 -59.5t131 -154.5v181h128v-871q0 -279 -111.5 -410.5t-357.5 -131.5q-124 0 -231 44.5t-171 126.5l92 53q128 -131 314 -131q330 0 336 399q1 43 1 161q-47 -97 -135.5 -153t-214.5 -56
q-206 0 -333.5 139t-127.5 362zM214 503q0 -183 95 -295t242 -112q159 0 250 109t91 301q0 185 -91.5 294.5t-245.5 109.5t-247.5 -113t-93.5 -294z" />
    <glyph glyph-name="Hbar" unicode="&#x126;" horiz-adv-x="1631" 
d="M266 1058h-191v91h191v209h135v-209h828v209h136v-209h191v-91h-191v-1058h-136v650h-828v-650h-135v1058zM401 750h828v308h-828v-308z" />
    <glyph glyph-name="hbar" unicode="&#x127;" horiz-adv-x="1068" 
d="M65 1172h-162v87h162v153h130v-153h458v-87h-458v-390h3q41 83 142 143t224 60q133 0 235 -67q60 -39 95 -119t35 -188v-611h-129v592q0 298 -260 298q-138 0 -241.5 -99t-103.5 -228v-563h-130v1172z" />
    <glyph glyph-name="Imacron" unicode="&#x12a;" horiz-adv-x="566" 
d="M637 1616h-708v81h708v-81zM214 0v1358h135v-1358h-135z" />
    <glyph glyph-name="imacron" unicode="&#x12b;" horiz-adv-x="506" 
d="M607 1240h-708v82h708v-82zM191 0v971h133v-971h-133z" />
    <glyph glyph-name="Iogonek" unicode="&#x12e;" horiz-adv-x="489" 
d="M358 0q-233 -129 -233 -216q0 -74 106 -74q47 0 137 27v-80q-68 -25 -162 -25q-201 0 -201 136q0 63 66 126t162 109v1355h135v-1358h-10z" />
    <glyph glyph-name="iogonek" unicode="&#x12f;" horiz-adv-x="439" 
d="M330 1208h-186v171h186v-171zM-56 -232q0 63 67 126t163 109v968h130v-967h3l-3 -2v-2h-4q-236 -129 -236 -216q0 -74 109 -74q45 0 136 27v-80q-68 -25 -161 -25q-204 0 -204 136z" />
    <glyph glyph-name="Idotaccent" unicode="&#x130;" horiz-adv-x="471" 
d="M304 0h-135v1358h135v-1358zM137 1584v164h197v-164h-197z" />
    <glyph glyph-name="dotlessi" unicode="&#x131;" horiz-adv-x="411" 
d="M272 0h-133v971h133v-971z" />
    <glyph glyph-name="IJ" unicode="&#x132;" horiz-adv-x="1599" 
d="M354 0h-135v1358h135v-1358zM579 204l124 40q33 -83 103 -130t159 -46q270 4 270 324v966h134v-987q0 -200 -102 -302.5t-298 -102.5q-288 0 -390 238z" />
    <glyph glyph-name="ij" unicode="&#x133;" horiz-adv-x="1093" 
d="M926 1208h-191v171h191v-171zM183 1208v171h186v-171h-186zM213 0v971h130v-971h-130zM511 -421v93h53q203 0 203 238v1061h129v-1069q0 -158 -80 -240.5t-230 -82.5h-75z" />
    <glyph glyph-name="uni0136" unicode="&#x136;" horiz-adv-x="1312" 
d="M300 0h-135v1358h135v-757h5l759 757h183l-596 -585l634 -773h-171l-555 688l-259 -256v-432zM487 -438l111 338h159l-170 -338h-100z" />
    <glyph glyph-name="uni0137" unicode="&#x137;" horiz-adv-x="1038" 
d="M271 0h-132v1412h132v-963l532 522h174l-399 -385l450 -586h-161l-378 505l-218 -209v-296zM377 -438l112 338h159l-172 -338h-99z" />
    <glyph glyph-name="Lacute" unicode="&#x139;" horiz-adv-x="1185" 
d="M1109 0h-899v1358h135v-1258h764v-100zM165 1511l240 317h183l-306 -317h-117z" />
    <glyph glyph-name="lacute" unicode="&#x13a;" horiz-adv-x="521" 
d="M259 1511h-120l241 317h183zM200 0v1412h129v-1412h-129z" />
    <glyph glyph-name="uni013B" unicode="&#x13b;" horiz-adv-x="1140" 
d="M1064 0h-899v1358h135v-1258h764v-100zM431 -454l112 339h158l-171 -339h-99z" />
    <glyph glyph-name="uni013C" unicode="&#x13c;" horiz-adv-x="459" 
d="M300 0h-129v1412h129v-1412zM48 -454l112 339h160l-173 -339h-99z" />
    <glyph glyph-name="Lcaron" unicode="&#x13d;" horiz-adv-x="1629" 
d="M1064 0h-899v1358h135v-1258h764v-100zM493 1016l116 345h155l-170 -345h-101z" />
    <glyph glyph-name="lcaron" unicode="&#x13e;" horiz-adv-x="888" 
d="M268 0h-129v1412h129v-1412zM324 1054l115 344h154l-168 -344h-101z" />
    <glyph glyph-name="Lslash" unicode="&#x141;" horiz-adv-x="1272" 
d="M714 814l-287 -167v-547h764v-100h-899v572l-231 -136l-64 84l295 172v666h135v-592l223 130z" />
    <glyph glyph-name="lslash" unicode="&#x142;" horiz-adv-x="631" 
d="M663 838l-279 -160v-678h-131v605l-219 -126l-66 84l285 161v688h131v-614l217 122z" />
    <glyph glyph-name="Nacute" unicode="&#x143;" horiz-adv-x="1442" 
d="M606 1515l239 319h184l-307 -319h-116zM165 0v1358h159l814 -1175v1175h138v-1358h-158l-818 1180v-1180h-135z" />
    <glyph glyph-name="nacute" unicode="&#x144;" horiz-adv-x="1145" 
d="M272 0h-133v971h129v-183h3q26 80 133 148t244 68q165 0 261.5 -89.5t96.5 -285.5v-629h-133v608q0 302 -256 302q-137 0 -241 -97t-104 -227v-586zM445 1160l242 318h183l-306 -318h-119z" />
    <glyph glyph-name="uni0145" unicode="&#x145;" horiz-adv-x="1442" 
d="M567 -454l114 339h159l-173 -339h-100zM165 0v1358h159l814 -1175v1175h138v-1358h-158l-818 1180v-1180h-135z" />
    <glyph glyph-name="uni0146" unicode="&#x146;" horiz-adv-x="1145" 
d="M272 0h-133v971h129v-183h3q26 80 133 148t244 68q165 0 261.5 -89.5t96.5 -285.5v-629h-133v608q0 302 -256 302q-137 0 -241 -97t-104 -227v-586zM424 -454l112 339h159l-172 -339h-99z" />
    <glyph glyph-name="Ncaron" unicode="&#x147;" horiz-adv-x="1442" 
d="M342 1810h138l258 -224l260 224h139l-339 -295h-122zM165 0v1358h159l814 -1175v1175h138v-1358h-158l-818 1180v-1180h-135z" />
    <glyph glyph-name="ncaron" unicode="&#x148;" horiz-adv-x="1145" 
d="M272 0h-133v971h129v-183h3q26 80 133 148t244 68q165 0 261.5 -89.5t96.5 -285.5v-629h-133v608q0 302 -256 302q-137 0 -241 -97t-104 -227v-586zM199 1454h140l256 -224l261 224h141l-340 -294h-123z" />
    <glyph glyph-name="Omacron" unicode="&#x14c;" 
d="M1086 1616h-708v81h708v-81zM99 678q0 322 174.5 518t467.5 196q295 0 468.5 -196t173.5 -520t-174 -517t-468 -193q-295 0 -468.5 193.5t-173.5 518.5zM237 678q0 -278 136 -444t368 -166q231 0 367.5 164.5t136.5 443.5q0 284 -134 450t-370 166q-231 0 -367.5 -166
t-136.5 -448z" />
    <glyph glyph-name="omacron" unicode="&#x14d;" horiz-adv-x="1161" 
d="M943 1242h-708v81h708v-81zM81 486q0 229 134 373.5t366 144.5q230 0 366.5 -145t136.5 -373q0 -133 -51 -247q-54 -120 -173 -196.5t-279 -76.5q-168 0 -284 80q-216 148 -216 440zM214 486q0 -190 103 -307.5t264 -117.5q160 0 265 118.5t105 306.5q0 191 -105 307.5
t-265 116.5q-159 0 -263 -116.5t-104 -307.5z" />
    <glyph glyph-name="Ohungarumlaut" unicode="&#x150;" 
d="M99 678q0 322 174.5 518t467.5 196q295 0 468.5 -196t173.5 -520t-174 -517t-468 -193q-295 0 -468.5 193.5t-173.5 518.5zM237 678q0 -278 136 -444t368 -166q231 0 367.5 164.5t136.5 443.5q0 284 -134 450t-370 166q-231 0 -367.5 -166t-136.5 -448zM444 1517l225 325
h171l-274 -325h-122zM758 1517l223 325h171l-273 -325h-121z" />
    <glyph glyph-name="ohungarumlaut" unicode="&#x151;" horiz-adv-x="1161" 
d="M214 486q0 -190 103 -307.5t264 -117.5q160 0 265 118.5t105 306.5q0 191 -105 307.5t-265 116.5q-159 0 -263 -116.5t-104 -307.5zM81 486q0 229 134 373.5t366 144.5q230 0 366.5 -145t136.5 -373q0 -133 -51 -247q-54 -120 -173 -196.5t-279 -76.5q-168 0 -284 80
q-216 148 -216 440zM319 1158l225 326h172l-274 -326h-123zM634 1158l222 326h171l-271 -326h-122z" />
    <glyph glyph-name="OE" unicode="&#x152;" horiz-adv-x="2022" 
d="M99 680q0 161 50 295t138.5 226t213 142.5t271.5 50.5q122 0 222 -36h907v-99h-778v-504h698v-101h-698v-554h793v-100h-917q-101 -34 -227 -34q-149 0 -274 50.5t-213 142.5t-137 225.5t-49 295.5zM237 680q0 -277 149.5 -445t385.5 -168q122 0 218 45v1130
q-89 50 -218 50q-243 0 -389 -167t-146 -445z" />
    <glyph glyph-name="oe" unicode="&#x153;" horiz-adv-x="1989" 
d="M185 486q0 -190 103 -307.5t264 -117.5q152 0 255.5 108.5t113.5 283.5q-1 13 -1 39q0 22 1 32q-11 175 -114 280.5t-255 105.5q-159 0 -263 -116.5t-104 -307.5zM52 486q0 229 134 373.5t366 144.5q149 0 261 -63t174 -176q64 113 177.5 176t259.5 63q222 0 355.5 -138
t133.5 -350q0 -27 -4 -67h-855q0 -7 -2 -21q8 -158 109.5 -262.5t267.5 -104.5q111 0 202.5 47.5t140.5 125.5l113 -30q-59 -109 -176.5 -173.5t-279.5 -64.5q-149 0 -263 63.5t-178 178.5q-59 -108 -173 -175t-263 -67q-168 0 -284 80q-216 148 -216 440zM1055 536h725
q0 159 -98.5 266.5t-257.5 107.5q-163 0 -265 -109t-104 -265z" />
    <glyph glyph-name="Racute" unicode="&#x154;" horiz-adv-x="1344" 
d="M165 -16v1367h599q222 0 350.5 -106t128.5 -272q0 -119 -60 -203.5t-155 -126.5q90 -47 129.5 -128.5t47.5 -194.5l2 -31q0 -4 0.5 -10.5t1.5 -9.5q2 -20 2 -25q1 -8 3 -30.5t3 -31t3 -27.5t4 -28.5t5 -25t6.5 -25t8 -20.5t10.5 -20l50 -52h-165q-29 54 -41 114.5
t-28 215.5q-7 134 -79.5 204t-246.5 70h-447v-604h-132zM297 698h465q169 0 258 71.5t89 201.5q0 125 -92 198t-274 73h-446v-544zM449 1478l266 348h194l-324 -348h-136z" />
    <glyph glyph-name="racute" unicode="&#x155;" horiz-adv-x="771" 
d="M272 0h-133v971h126v-154q37 78 121.5 132.5t204.5 54.5q97 0 162 -27v-103q-81 28 -162 28q-147 0 -233 -95t-86 -251v-556zM312 1160l239 318h184l-305 -318h-118z" />
    <glyph glyph-name="uni0156" unicode="&#x156;" horiz-adv-x="1344" 
d="M165 -16v1367h599q222 0 350.5 -106t128.5 -272q0 -119 -60 -203.5t-155 -126.5q90 -47 129.5 -128.5t47.5 -194.5l2 -31q0 -4 0.5 -10.5t1.5 -9.5q2 -20 2 -25q1 -8 3 -30.5t3 -31t3 -27.5t4 -28.5t5 -25t6.5 -25t8 -20.5t10.5 -20l50 -52h-165q-29 54 -41 114.5
t-28 215.5q-7 134 -79.5 204t-246.5 70h-447v-604h-132zM297 698h465q169 0 258 71.5t89 201.5q0 125 -92 198t-274 73h-446v-544zM522 -464l125 362h165l-180 -362h-110z" />
    <glyph glyph-name="uni0157" unicode="&#x157;" horiz-adv-x="785" 
d="M288 0h-134v971h126v-154q36 78 120.5 132.5t203.5 54.5q100 0 163 -27v-103q-81 28 -163 28q-145 0 -230.5 -95.5t-85.5 -250.5v-556zM48 -454l111 339h159l-172 -339h-98z" />
    <glyph glyph-name="Rcaron" unicode="&#x158;" horiz-adv-x="1344" 
d="M165 -16v1367h599q222 0 350.5 -106t128.5 -272q0 -119 -60 -203.5t-155 -126.5q90 -47 129.5 -128.5t47.5 -194.5l2 -31q0 -4 0.5 -10.5t1.5 -9.5q2 -20 2 -25q1 -8 3 -30.5t3 -31t3 -27.5t4 -28.5t5 -25t6.5 -25t8 -20.5t10.5 -20l50 -52h-165q-29 54 -41 114.5
t-28 215.5q-7 134 -79.5 204t-246.5 70h-447v-604h-132zM196 1800h160l266 -224l265 224h161l-372 -322h-109zM297 698h465q169 0 258 71.5t89 201.5q0 125 -92 198t-274 73h-446v-544z" />
    <glyph glyph-name="rcaron" unicode="&#x159;" horiz-adv-x="860" 
d="M307 0h-134v971h126v-154q36 78 120.5 132.5t203.5 54.5q100 0 163 -27v-103q-81 28 -163 28q-145 0 -230.5 -95.5t-85.5 -250.5v-556zM92 1454h140l257 -224l260 224h138l-337 -294h-123z" />
    <glyph glyph-name="Sacute" unicode="&#x15a;" horiz-adv-x="1308" 
d="M538 1512l257 326h163l-312 -326h-108zM70 225l131 50q62 -100 187 -160t280 -60q202 0 320.5 70.5t118.5 210.5v2q0 102 -110 168t-348 130l-110 32q-94 30 -171 63q-75 33 -127 74q-49 40 -82 103t-33 134q0 167 144.5 264t390.5 97q181 0 324.5 -75.5t205.5 -187.5
l-121 -42q-61 87 -169 137.5t-245 50.5q-194 0 -302 -65t-108 -179q0 -101 110 -167.5t347 -131.5q101 -27 155 -44.5t127 -49.5q74 -31 127 -74q49 -41 82 -103t33 -134q0 -187 -149.5 -293t-413.5 -106q-197 0 -349 77t-245 209z" />
    <glyph glyph-name="sacute" unicode="&#x15b;" horiz-adv-x="1039" 
d="M353 1147l264 338h183l-325 -338h-122zM46 167l123 43q47 -73 143.5 -116t219.5 -43q156 0 245 47.5t89 141.5v2q0 67 -83 111t-269 89l-98 27q-72 22 -121 43q-62 25 -103 54q-40 30 -67.5 77.5t-27.5 100.5q0 124 117 196.5t312 72.5q149 0 266.5 -59.5t164.5 -143.5
l-114 -38q-45 64 -128 99.5t-193 35.5q-149 0 -229.5 -43t-80.5 -120q0 -67 82.5 -111t265.5 -91q149 -37 223 -68q65 -27 102 -54q40 -31 67.5 -78t27.5 -100q0 -139 -120 -217.5t-331 -78.5q-162 0 -287 60t-196 161z" />
    <glyph glyph-name="Scedilla" unicode="&#x15e;" horiz-adv-x="1308" 
d="M645 -427q-113 0 -212 30v71q117 -33 212 -33q76 0 134.5 29t58.5 71q0 101 -262 95l31 104q-177 12 -314.5 87.5t-222.5 197.5l131 50q62 -100 187 -160t280 -60q202 0 320.5 70.5t118.5 210.5v2q0 102 -110 168t-348 130l-110 32q-94 30 -171 63q-75 33 -127 74
q-49 40 -82 103t-33 134q0 167 144.5 264t390.5 97q181 0 324.5 -75.5t205.5 -187.5l-121 -42q-61 87 -169 137.5t-245 50.5q-194 0 -302 -65t-108 -179q0 -101 110 -167.5t347 -131.5q101 -27 155 -44.5t127 -49.5q74 -31 127 -74q49 -41 82 -103t33 -134q0 -160 -111 -262
t-313 -128q-15 -6 -73 -7q-7 -1 -20 -1l-16 -50q116 -3 178.5 -42.5t62.5 -108.5q0 -73 -80 -119.5t-210 -46.5z" />
    <glyph glyph-name="scedilla" unicode="&#x15f;" horiz-adv-x="1039" 
d="M500 -433q-115 0 -219 32v83q122 -35 219 -35q73 0 129.5 27.5t56.5 66.5q0 96 -264 89l35 119q-137 13 -242.5 71t-168.5 147l123 43q47 -73 143.5 -116t219.5 -43q156 0 245 47.5t89 141.5v2q0 67 -83 111t-269 89l-98 27q-72 22 -121 43q-62 25 -103 54
q-40 30 -67.5 77.5t-27.5 100.5q0 124 117 196.5t312 72.5q149 0 266.5 -59.5t164.5 -143.5l-114 -38q-45 64 -128 99.5t-193 35.5q-149 0 -229.5 -43t-80.5 -120q0 -67 82.5 -111t265.5 -91q149 -37 223 -68q65 -27 102 -54q40 -31 67.5 -78t27.5 -100q0 -132 -108 -209.5
t-301 -85.5l-16 -51q113 -4 175 -46t62 -111q0 -76 -80.5 -124t-211.5 -48z" />
    <glyph glyph-name="Scaron" unicode="&#x160;" horiz-adv-x="1308" 
d="M248 1811h125l283 -231l281 231h126l-358 -299h-102zM70 225l131 50q62 -100 187 -160t280 -60q202 0 320.5 70.5t118.5 210.5v2q0 102 -110 168t-348 130l-110 32q-94 30 -171 63q-75 33 -127 74q-49 40 -82 103t-33 134q0 167 144.5 264t390.5 97q181 0 324.5 -75.5
t205.5 -187.5l-121 -42q-61 87 -169 137.5t-245 50.5q-194 0 -302 -65t-108 -179q0 -101 110 -167.5t347 -131.5q101 -27 155 -44.5t127 -49.5q74 -31 127 -74q49 -41 82 -103t33 -134q0 -187 -149.5 -293t-413.5 -106q-197 0 -349 77t-245 209z" />
    <glyph glyph-name="scaron" unicode="&#x161;" horiz-adv-x="1039" 
d="M97 1459h143l281 -229l278 229h144l-370 -312h-107zM46 167l123 43q47 -73 143.5 -116t219.5 -43q156 0 245 47.5t89 141.5v2q0 67 -83 111t-269 89l-98 27q-72 22 -121 43q-62 25 -103 54q-40 30 -67.5 77.5t-27.5 100.5q0 124 117 196.5t312 72.5q149 0 266.5 -59.5
t164.5 -143.5l-114 -38q-45 64 -128 99.5t-193 35.5q-149 0 -229.5 -43t-80.5 -120q0 -67 82.5 -111t265.5 -91q149 -37 223 -68q65 -27 102 -54q40 -31 67.5 -78t27.5 -100q0 -139 -120 -217.5t-331 -78.5q-162 0 -287 60t-196 161z" />
    <glyph glyph-name="uni0162" unicode="&#x162;" horiz-adv-x="1263" 
d="M565 1259h-490v99h1113v-99h-487v-1259h-21l-30 -98q108 -5 166.5 -45t58.5 -104q0 -74 -77.5 -121t-209.5 -47q-100 0 -207 27v78q115 -28 206 -28q68 0 123 28t55 68q0 46 -67 70q-66 24 -182 22l49 163v1246z" />
    <glyph glyph-name="uni0163" unicode="&#x163;" horiz-adv-x="738" 
d="M252 876h-207v95h207v319h130v-319h292v-95h-292v-601q0 -95 44 -137t141 -42h109v-96h-142l-24 -83q97 -11 151.5 -53t54.5 -106q0 -73 -67 -118.5t-194 -45.5q-89 0 -180 20v76q95 -21 180 -21q68 0 108 25.5t40 69.5q0 94 -230 105l43 149q-164 50 -164 246v612z" />
    <glyph glyph-name="Tcaron" unicode="&#x164;" horiz-adv-x="1263" 
d="M565 1259h-490v99h1113v-99h-487v-1259h-136v1259zM237 1810h139l258 -224l259 224h139l-339 -295h-122z" />
    <glyph glyph-name="tcaron" unicode="&#x165;" horiz-adv-x="1264" 
d="M252 876h-207v95h207v319h133v-319h300v-95h-300v-601q0 -96 43 -138.5t139 -40.5l118 2v-98h-135q-146 -2 -222 64t-76 200v612zM451 1064l116 345h154l-168 -345h-102z" />
    <glyph glyph-name="Umacron" unicode="&#x16a;" horiz-adv-x="1431" 
d="M1074 1616h-708v81h708v-81zM165 482v876h134v-870q0 -205 111.5 -312.5t304.5 -107.5t304 108.5t111 311.5v870h136v-876q0 -245 -143 -380.5t-408 -135.5q-262 0 -406 134t-144 382z" />
    <glyph glyph-name="umacron" unicode="&#x16b;" horiz-adv-x="1137" 
d="M915 1242h-707v81h707v-81zM139 338v633h130v-605q0 -305 267 -305q155 0 244 102t89 253v555h129v-971h-128v174q-14 -59 -95 -127q-97 -81 -272 -81q-169 0 -266.5 98t-97.5 274z" />
    <glyph glyph-name="Uring" unicode="&#x16e;" horiz-adv-x="1431" 
d="M437 1668q0 97 80 164t202 67q121 0 201 -67t80 -164t-81 -164.5t-200 -67.5t-200.5 68t-81.5 164zM165 482v876h134v-870q0 -205 111.5 -312.5t304.5 -107.5t304 108.5t111 311.5v870h136v-876q0 -245 -143 -380.5t-408 -135.5q-262 0 -406 134t-144 382zM537 1668
q0 -65 51.5 -109.5t130.5 -44.5t129.5 43t50.5 111q0 67 -50 110.5t-130 43.5t-131 -44.5t-51 -109.5z" />
    <glyph glyph-name="uring" unicode="&#x16f;" horiz-adv-x="1137" 
d="M291 1384q0 97 80 164.5t202 67.5q120 0 200.5 -68.5t80.5 -163.5q0 -97 -81.5 -165t-199.5 -68q-119 0 -200.5 68t-81.5 165zM139 338v633h130v-605q0 -305 267 -305q155 0 244 102t89 253v555h129v-971h-128v174q-14 -59 -95 -127q-97 -81 -272 -81q-169 0 -266.5 98
t-97.5 274zM389 1384q0 -66 53 -110.5t131 -44.5q80 0 129.5 43t49.5 112q0 65 -50 109.5t-129 44.5q-80 0 -132 -45t-52 -109z" />
    <glyph glyph-name="Uhungarumlaut" unicode="&#x170;" horiz-adv-x="1431" 
d="M165 482v876h134v-870q0 -205 111.5 -312.5t304.5 -107.5t304 108.5t111 311.5v870h136v-876q0 -245 -143 -380.5t-408 -135.5q-262 0 -406 134t-144 382zM419 1517l228 325h171l-276 -325h-123zM733 1517l223 325h173l-274 -325h-122z" />
    <glyph glyph-name="uhungarumlaut" unicode="&#x171;" horiz-adv-x="1130" 
d="M139 338v633h130v-605q0 -305 267 -305q155 0 244 102t89 253v555h129v-971h-128v174q-14 -59 -95 -127q-97 -81 -272 -81q-169 0 -266.5 98t-97.5 274zM281 1158l225 326h171l-275 -326h-121zM594 1158l223 326h172l-273 -326h-122z" />
    <glyph glyph-name="Uogonek" unicode="&#x172;" horiz-adv-x="1431" 
d="M165 482v876h134v-870q0 -205 111.5 -312.5t304.5 -107.5t304 108.5t111 311.5v870h136v-876q0 -224 -119.5 -357t-342.5 -155q-186 -110 -186 -188q0 -74 106 -74q50 0 138 27v-81q-68 -24 -161 -24q-204 0 -204 136q0 51 47 104t120 97q-239 14 -369 147t-130 368z" />
    <glyph glyph-name="uogonek" unicode="&#x173;" horiz-adv-x="1096" 
d="M139 338v633h130v-605q0 -305 267 -305q155 0 244 102t89 253v555h129v-967h1q-1 0 -1 -1v-3h-6q-236 -129 -236 -216q0 -74 107 -74q47 0 139 27v-80q-69 -25 -162 -25q-204 0 -204 136q0 63 68 126.5t165 109.5h1v170q-14 -59 -95 -127q-97 -81 -272 -81
q-169 0 -266.5 98t-97.5 274z" />
    <glyph glyph-name="Wcircumflex" unicode="&#x174;" horiz-adv-x="1813" 
d="M502 1515l345 299h121l349 -299h-147l-262 229l-263 -229h-143zM20 1358h150l306 -1227h9l344 1227h152l348 -1227h6l308 1227h150l-378 -1358h-160l-344 1213h-6l-344 -1213h-161z" />
    <glyph glyph-name="wcircumflex" unicode="&#x175;" horiz-adv-x="1580" 
d="M378 1160l345 300h121l350 -300h-147l-263 230l-262 -230h-144zM49 971h147l248 -867h9l257 867h160l258 -867h6l248 867h148l-317 -971h-166l-256 850h-5l-253 -850h-168z" />
    <glyph glyph-name="Ycircumflex" unicode="&#x176;" horiz-adv-x="1311" 
d="M247 1515l346 299h120l351 -299h-147l-264 229l-262 -229h-144zM26 1358h163l464 -692h5l463 692h164l-559 -798v-560h-136v560z" />
    <glyph glyph-name="ycircumflex" unicode="&#x177;" horiz-adv-x="1097" 
d="M150 1160l345 300h121l350 -300h-146l-264 230l-262 -230h-144zM49 971h152l351 -857h6l339 857h150l-489 -1147q-59 -138 -137.5 -198t-189.5 -60h-61v94h38q80 0 137.5 45.5t98.5 150.5l46 118z" />
    <glyph glyph-name="Ydieresis" unicode="&#x178;" horiz-adv-x="1311" 
d="M338 1584v161h195v-161h-195zM26 1358h163l464 -692h5l463 692h164l-559 -798v-560h-136v560zM773 1584v161h195v-161h-195z" />
    <glyph glyph-name="Zacute" unicode="&#x179;" horiz-adv-x="1304" 
d="M103 0v89l911 1170h-843v99h1009v-88l-916 -1170h940v-100h-1101zM510 1515l241 319h183l-305 -319h-119z" />
    <glyph glyph-name="zacute" unicode="&#x17a;" horiz-adv-x="1055" 
d="M972 0h-867v77l679 799h-622v95h791v-75l-685 -800h704v-96zM397 1160l240 318h182l-305 -318h-117z" />
    <glyph glyph-name="Zdotaccent" unicode="&#x17b;" horiz-adv-x="1304" 
d="M103 0v89l911 1170h-843v99h1009v-88l-916 -1170h940v-100h-1101zM587 1584v164h197v-164h-197z" />
    <glyph glyph-name="zdotaccent" unicode="&#x17c;" horiz-adv-x="1055" 
d="M972 0h-867v77l679 799h-622v95h791v-75l-685 -800h704v-96zM457 1229v165h198v-165h-198z" />
    <glyph glyph-name="Zcaron" unicode="&#x17d;" horiz-adv-x="1304" 
d="M103 0v89l911 1170h-843v99h1009v-88l-916 -1170h940v-100h-1101zM275 1810h138l258 -224l260 224h139l-339 -295h-122z" />
    <glyph glyph-name="zcaron" unicode="&#x17e;" horiz-adv-x="1055" 
d="M972 0h-867v77l679 799h-622v95h791v-75l-685 -800h704v-96zM162 1454h138l257 -224l261 224h139l-338 -294h-123z" />
    <glyph glyph-name="uni018F" unicode="&#x18f;" horiz-adv-x="1462" 
d="M95 618q0 86 1 104h1125q-9 268 -140.5 419t-377.5 151q-283 0 -441 -219l-115 42q78 131 223.5 205t334.5 74q222 0 372 -96q286 -183 286 -622q0 -167 -48.5 -301.5t-135 -223.5t-206 -137t-262.5 -48q-156 0 -279 54.5t-196 150.5q-141 184 -141 447zM236 623
q0 -3 2 -25q1 -11 1 -22q2 -151 66 -277q118 -232 409 -232q187 0 335 121q79 64 125.5 177.5t47.5 257.5h-986z" />
    <glyph glyph-name="florin" unicode="&#x192;" horiz-adv-x="729" 
d="M119 -475q-39 0 -63 3q-32 4 -40 4l-13 5l-21 22v89q100 -8 130 -8q103 0 150.5 61t47.5 197v947h-212v113h212v153q0 142 84.5 214.5t228.5 72.5h124v-114h-121q-101 0 -144 -42.5t-43 -141.5v-142h278v-113h-278v-953q0 -179 -81 -273t-239 -94z" />
    <glyph glyph-name="uni0218" unicode="&#x218;" horiz-adv-x="1308" 
d="M509 -453l117 335h132l-169 -335h-80zM70 225l131 50q62 -100 187 -160t280 -60q202 0 320.5 70.5t118.5 210.5v2q0 102 -110 168t-348 130l-110 32q-94 30 -171 63q-75 33 -127 74q-49 40 -82 103t-33 134q0 167 144.5 264t390.5 97q181 0 324.5 -75.5t205.5 -187.5
l-121 -42q-61 87 -169 137.5t-245 50.5q-194 0 -302 -65t-108 -179q0 -101 110 -167.5t347 -131.5q101 -27 155 -44.5t127 -49.5q74 -31 127 -74q49 -41 82 -103t33 -134q0 -187 -149.5 -293t-413.5 -106q-197 0 -349 77t-245 209z" />
    <glyph glyph-name="uni0219" unicode="&#x219;" horiz-adv-x="1039" 
d="M353 -453l117 335h134l-171 -335h-80zM46 167l123 43q47 -73 143.5 -116t219.5 -43q156 0 245 47.5t89 141.5v2q0 67 -83 111t-269 89l-98 27q-72 22 -121 43q-62 25 -103 54q-40 30 -67.5 77.5t-27.5 100.5q0 124 117 196.5t312 72.5q149 0 266.5 -59.5t164.5 -143.5
l-114 -38q-45 64 -128 99.5t-193 35.5q-149 0 -229.5 -43t-80.5 -120q0 -67 82.5 -111t265.5 -91q149 -37 223 -68q65 -27 102 -54q40 -31 67.5 -78t27.5 -100q0 -139 -120 -217.5t-331 -78.5q-162 0 -287 60t-196 161z" />
    <glyph glyph-name="uni021A" unicode="&#x21a;" horiz-adv-x="1263" 
d="M545 -454h-99l112 339h158zM75 1259v99h1113v-99h-487v-1259h-136v1259h-490z" />
    <glyph glyph-name="uni021B" unicode="&#x21b;" horiz-adv-x="739" 
d="M411 -454h-100l113 339h158zM45 876v95h207v319h133v-319h300v-95h-300v-601q0 -96 43 -138.5t139 -40.5l118 2v-98h-135q-146 -2 -222 64t-76 200v612h-207z" />
    <glyph glyph-name="uni0237" unicode="&#x237;" horiz-adv-x="554" 
d="M-36 -434v96h51q202 0 202 235v1074h131v-1081q0 -157 -80.5 -240.5t-228.5 -83.5h-75z" />
    <glyph glyph-name="uni0259" unicode="&#x259;" horiz-adv-x="1158" 
d="M82 455v67h857q0 165 -102 276.5t-275 111.5q-113 0 -203 -48.5t-137 -125.5l-111 31q129 237 451 237q236 0 373.5 -145t137.5 -380q0 -227 -139.5 -370t-362.5 -143q-220 0 -354.5 137.5t-134.5 351.5zM213 434q0 -159 99 -266t259 -107q159 0 259 107t109 266h-726z
" />
    <glyph glyph-name="Wgrave" unicode="&#x1e80;" horiz-adv-x="1813" 
d="M931 1515l-300 319h180l242 -319h-122zM20 1358h150l306 -1227h9l344 1227h152l348 -1227h6l308 1227h150l-378 -1358h-160l-344 1213h-6l-344 -1213h-161z" />
    <glyph glyph-name="wgrave" unicode="&#x1e81;" horiz-adv-x="1580" 
d="M812 1158l-301 318h181l243 -318h-123zM49 971h147l248 -867h9l257 867h160l258 -867h6l248 867h148l-317 -971h-166l-256 850h-5l-253 -850h-168z" />
    <glyph glyph-name="Wacute" unicode="&#x1e82;" horiz-adv-x="1813" 
d="M852 1515h-117l241 319h182zM20 1358h150l306 -1227h9l344 1227h152l348 -1227h6l308 1227h150l-378 -1358h-160l-344 1213h-6l-344 -1213h-161z" />
    <glyph glyph-name="wacute" unicode="&#x1e83;" horiz-adv-x="1580" 
d="M745 1158h-118l240 318h183zM49 971h147l248 -867h9l257 867h160l258 -867h6l248 867h148l-317 -971h-166l-256 850h-5l-253 -850h-168z" />
    <glyph glyph-name="Wdieresis" unicode="&#x1e84;" horiz-adv-x="1813" 
d="M786 1584h-195v161h195v-161zM20 1358h150l306 -1227h9l344 1227h152l348 -1227h6l308 1227h150l-378 -1358h-160l-344 1213h-6l-344 -1213h-161zM1028 1584v161h195v-161h-195z" />
    <glyph glyph-name="wdieresis" unicode="&#x1e85;" horiz-adv-x="1580" 
d="M666 1227h-195v163h195v-163zM49 971h147l248 -867h9l257 867h160l258 -867h6l248 867h148l-317 -971h-166l-256 850h-5l-253 -850h-168zM906 1227v163h196v-163h-196z" />
    <glyph glyph-name="Ygrave" unicode="&#x1ef2;" horiz-adv-x="1311" 
d="M660 1515l-300 319h179l243 -319h-122zM26 1358h163l464 -692h5l463 692h164l-559 -798v-560h-136v560z" />
    <glyph glyph-name="ygrave" unicode="&#x1ef3;" horiz-adv-x="1097" 
d="M542 1158l-302 318h181l243 -318h-122zM49 971h152l351 -857h6l339 857h150l-489 -1147q-59 -138 -137.5 -198t-189.5 -60h-61v94h38q80 0 137.5 45.5t98.5 150.5l46 118z" />
    <glyph glyph-name="uni2010" unicode="&#x2010;" horiz-adv-x="553" 
d="M-23 569v111h576v-111h-576z" />
    <glyph glyph-name="endash" unicode="&#x2013;" horiz-adv-x="963" 
d="M0 569v111h963v-111h-963z" />
    <glyph glyph-name="emdash" unicode="&#x2014;" horiz-adv-x="2112" 
d="M0 569v111h2112v-111h-2112z" />
    <glyph glyph-name="uni2015" unicode="&#x2015;" horiz-adv-x="1998" 
d="M0 569v111h1998v-111h-1998z" />
    <glyph glyph-name="quoteleft" unicode="&#x2018;" horiz-adv-x="569" 
d="M135 1124q0 161 44.5 269t162.5 199l92 -69q-86 -73 -119.5 -144.5t-37.5 -184.5h112v-212h-254v142z" />
    <glyph glyph-name="quoteright" unicode="&#x2019;" horiz-adv-x="570" 
d="M135 961q87 73 120.5 144.5t36.5 184.5h-112v211h255v-143q0 -161 -45 -268.5t-163 -199.5z" />
    <glyph glyph-name="quotesinglbase" unicode="&#x201a;" horiz-adv-x="573" 
d="M135 -359q89 74 123 146t37 185h-112v211h255v-141q0 -161 -45 -269.5t-161 -198.5z" />
    <glyph glyph-name="quotereversed" unicode="&#x201b;" horiz-adv-x="569" 
d="M342 890q-118 91 -162.5 198.5t-44.5 269.5v143h254v-211h-112q4 -113 37.5 -185t119.5 -144z" />
    <glyph glyph-name="quotedblleft" unicode="&#x201c;" horiz-adv-x="993" 
d="M135 1118q0 167 47.5 285t163.5 204l91 -70q-149 -115 -156 -345h111v-210h-257v136zM556 982v136q0 162 46 274t165 200l91 -69q-85 -73 -118 -145.5t-38 -185.5h110v-210h-256z" />
    <glyph glyph-name="quotedblright" unicode="&#x201d;" horiz-adv-x="988" 
d="M556 947q83 71 117 148t37 195h-112v211h255v-137q0 -168 -46.5 -285.5t-161.5 -204.5zM135 961q84 70 116.5 142t36.5 187h-113v211h258v-137q0 -166 -45.5 -277.5t-163.5 -199.5z" />
    <glyph glyph-name="quotedblbase" unicode="&#x201e;" horiz-adv-x="990" 
d="M553 -373q85 72 119 149.5t38 197.5h-110v209h255v-135q0 -167 -46.5 -284.5t-160.5 -205.5zM135 -359q86 71 118.5 143.5t36.5 189.5h-113v209h258v-135q0 -162 -45.5 -273t-162.5 -201z" />
    <glyph glyph-name="uni201F" unicode="&#x201f;" horiz-adv-x="993" 
d="M346 874q-116 87 -163.5 205t-47.5 285v137h257v-211h-111q3 -119 36.5 -195.5t117.5 -147.5zM556 1364v137h256v-211h-110q5 -113 38 -185.5t118 -144.5l-91 -73q-119 88 -165 199.5t-46 277.5z" />
    <glyph glyph-name="bullet" unicode="&#x2022;" horiz-adv-x="980" 
d="M268 407v434h508v-434h-508z" />
    <glyph glyph-name="ellipsis" unicode="&#x2026;" horiz-adv-x="1964" 
d="M146 516v218h243v-218h-243zM870 516v218h242v-218h-242zM1595 516v218h241v-218h-241z" />
    <glyph glyph-name="fraction" unicode="&#x2044;" horiz-adv-x="297" 
d="M-224 -13h-103l850 1386h102z" />
    <glyph glyph-name="uni20B9" unicode="&#x20b9;" horiz-adv-x="1196" 
d="M784 -34l-669 543v103h89q192 0 307.5 69.5t137.5 202.5h-624l36 114h587q-16 92 -91 160t-184 68h-352l42 114h1115l-35 -114h-487q52 -45 84.5 -105t38.5 -123h399l-35 -114h-365q-20 -162 -144.5 -260t-332.5 -115l663 -543h-180z" />
    <glyph glyph-name="trademark" unicode="&#x2122;" horiz-adv-x="1127" 
d="M50 1285v66h417v-66h-174v-464h-68v464h-175zM537 821v530h63l201 -458l201 458h63v-530h-63v384l-169 -384h-63l-170 378v-378h-63z" />
    <glyph glyph-name="arrowleft" unicode="&#x2190;" horiz-adv-x="2206" 
d="M776 326l-606 333l606 331l67 -101l-214 -172h1353v-121h-1353l214 -171z" />
    <glyph glyph-name="arrowup" unicode="&#x2191;" horiz-adv-x="1357" 
d="M615 -160v1290l-204 -189l-119 51l389 525l384 -525l-113 -51l-206 189v-1290h-131z" />
    <glyph glyph-name="arrowright" unicode="&#x2192;" horiz-adv-x="2205" 
d="M1429 326l-65 99l212 171h-1352v121h1352l-212 172l65 101l606 -331z" />
    <glyph glyph-name="arrowdown" unicode="&#x2193;" horiz-adv-x="1357" 
d="M681 -211l-389 525l119 52l204 -187v1288h131v-1288l206 187l113 -52z" />
    <glyph glyph-name="arrowboth" unicode="&#x2194;" horiz-adv-x="2334" 
d="M713 328l-543 331l543 330l67 -93l-194 -179h1161l-193 179l67 93l543 -330l-543 -331l-67 91l193 177h-1160l193 -177z" />
    <glyph glyph-name="arrowupdn" unicode="&#x2195;" horiz-adv-x="1365" 
d="M681 -204l-387 438l98 62l225 -171v1056l-225 -171l-98 62l387 439l392 -439l-99 -62l-226 171v-1056l226 171l99 -62z" />
    <glyph glyph-name="uni2215" unicode="&#x2215;" horiz-adv-x="1264" 
d="M91 -271l974 1791h132l-977 -1791h-129z" />
    <glyph glyph-name="asteriskmath" unicode="&#x2217;" horiz-adv-x="1365" 
d="M622 146v444l-418 -262l-80 80l454 287l-454 287l80 81l421 -265v444h119v-445l425 267l71 -84l-451 -285l453 -287l-78 -82l-419 262v-442h-123z" />
    <glyph glyph-name="uniF8FF" unicode="&#xf8ff;" horiz-adv-x="1542" 
d="M758 60q-151 0 -279.5 75.5t-203 204.5t-74.5 280q0 152 75 280.5t203.5 203t280.5 74.5q151 0 279.5 -75t203.5 -203.5t75 -279.5q0 -152 -74.5 -281t-203.5 -204t-282 -75zM200 -164h59q50 0 71 34q10 16 10 39q0 47 -37 64q-18 9 -44 9h-59v-146zM235 -137v93h22
q31 0 43 -20q5 -9 5 -27q0 -32 -22 -42q-8 -4 -26 -4h-22zM268 621q0 -205 144 -350t348 -145q203 0 347.5 144.5t144.5 347.5q0 100 -39 191.5t-104.5 157.5t-156 105t-190.5 40q-134 0 -248 -65.5t-180 -178.5t-66 -247zM352 -109q0 -36 30 -50q16 -7 33 -7q31 0 45 16
q8 7 10 17l-31 3q-5 -9 -14 -12q-3 -1 -10 -1q-18 0 -25 13q-3 5 -3 13h85v8q0 27 -18 42q-16 14 -42 14q-36 0 -52 -27q-8 -13 -8 -29zM387 -98q2 13 12 19q4 3 14 3q17 0 23 -12l3 -10h-52zM442 719q10 -2 12 -4q52 -21 98 -27q41 -3 72 2q43 11 47 12q3 0 8.5 2.5
t7.5 3.5q-5 2 -16.5 8t-17 9t-13 8.5t-13.5 12.5h19q39 0 75 19q65 40 136 61q24 8 58 11q4 0 19.5 1t23.5 0q54 -2 89 -33q10 -11 28 -33v-2l-6 2q-45 17 -83 3.5t-62 -53.5q-7 -13 -25 -55q-9 -21 -27 -63.5t-20 -48.5q-33 -64 -65 -101q-27 -33 -66 -58q-45 -34 -116 -55
h-4h-1l24 22q12 11 25 44q41 116 45 127q24 73 57 131v3q-2 -4 -11 -13q-8 -10 -10 -12q-23 -36 -31 -57q-2 -6 -8 -6q-99 3 -177 67q-40 38 -59 55q-1 1 -5 7t-8 10zM481 -132q5 -34 56 -34q35 0 48 18q7 9 7 18q0 24 -36 30l-22 3q-16 4 -16 12q0 11 19 11q17 0 21 -14
l31 3q-5 32 -53 32q-33 0 -46 -16q-6 -7 -6 -18q0 -25 36 -31l21 -4q16 -3 16 -11q0 -11 -20 -11q-18 0 -23 14zM605 -25q0 -15 19 -15q18 0 18 15t-18 15q-19 0 -19 -15zM607 -164h34v109h-34v-109zM656 -109q0 -35 25 -48q12 -5 25 -5q18 0 29 9q5 5 7 8h1v-19
q0 -21 -25 -21q-16 0 -21 6l-6 6l-31 -3q7 -31 57 -31q37 0 52 19q9 9 9 23v110h-35v-18h-1q-6 12 -18 17q-8 3 -18 3q-30 0 -43 -25q-7 -11 -7 -31zM691 -109q0 21 12 28q8 4 15 4q16 0 22 -15q3 -7 3 -17q0 -30 -25 -30q-18 0 -24 14q-3 6 -3 16zM798 -164h34v64
q0 13 11 19q6 3 13 3q21 0 21 -22v-64h35v70q0 26 -20 36q-10 5 -23 5q-27 0 -37 -21v19h-34v-109zM927 -109q0 -34 28 -50q17 -7 33 -7q38 0 54 27q7 13 7 30q0 33 -28 49q-13 7 -33 7q-38 0 -54 -27q-7 -14 -7 -29zM962 -109q0 21 12 28q7 5 14 5q16 0 24 -16q3 -15 3 -17
q0 -20 -12 -29q-5 -4 -15 -4q-16 0 -23 15q-3 9 -3 18zM1051 -55l43 -109h39l43 109h-36l-26 -78h-1l-26 78h-36zM1177 -133q0 -21 21 -29q8 -4 21 -4q18 0 27 9q4 2 9 9v-16h33v74q0 20 -15 28q-17 9 -37 9q-30 0 -45 -15q-7 -6 -10 -17l32 -3q5 13 22 13q19 0 19 -14v-1
q0 -7 -13 -7l-17 -3q-19 0 -32 -8q-15 -8 -15 -25zM1210 -133q0 9 9 12q5 3 12 3q19 3 23 5v-11q0 -13 -12 -18q-6 -3 -14 -3q-18 0 -18 12zM1267 -16q0 16 11 26.5t27 10.5t26.5 -10.5t10.5 -26.5t-10.5 -27t-26.5 -11t-27 11t-11 27zM1279 -16q0 -11 7.5 -19t18.5 -8
t18.5 8t7.5 19t-7.5 18.5t-18.5 7.5t-18.5 -7.5t-7.5 -18.5zM1292 -33v35h14q12 0 12 -11q0 -5 -5 -10l8 -14h-10l-6 11h-5v-11h-8zM1300 -13h6q5 0 5 3t-5 3h-6v-6z" />
    <glyph glyph-name="_Designova" horiz-adv-x="1692" 
d="M844 -121q-174 0 -322.5 87t-235 235.5t-86.5 323.5q1 131 52 250.5t137.5 205.5t206 137t250.5 51q175 0 323.5 -86t235.5 -234.5t87 -323.5q0 -176 -87 -324.5t-236 -235t-325 -86.5zM278 525q0 -116 45 -221.5t120.5 -181.5t181 -121t221.5 -45q154 0 285 76t207 207
t76 285q0 116 -45 221.5t-120.5 181.5t-180.5 121t-221 45t-221 -45t-181.5 -120.5t-121.5 -181t-45 -221.5zM480 638q7 0 13 -4q58 -22 115 -31q45 -5 81 3q29 4 53 14q5 0 11.5 3t8.5 4q-5 3 -22.5 11.5t-27.5 15.5t-19 17h21q39 0 86 20q85 53 158 73q37 10 66 10
q6 0 24.5 1.5t26.5 0.5q67 -4 102 -39q6 -5 33 -37v-2q-3 2 -7 2q-53 20 -95.5 4.5t-71.5 -59.5q-5 -9 -10 -20.5t-11 -25t-9 -21.5q-6 -14 -25 -59t-30 -68q-36 -74 -74 -119q-20 -27 -74 -66q-52 -38 -136 -63h-7l28 24q18 17 30 51q7 20 25 71t27 78q31 90 65 150v1
q-3 -3 -11 -13q-9 -7 -11 -16q-23 -27 -38 -65q-3 -5 -9 -5q-117 5 -204 78q-10 10 -32.5 31t-33.5 32q-12 14 -16 18z" />
    <glyph glyph-name="_Origin" horiz-adv-x="2221" 
d="M133 929v50h1955v-50h-1955zM133 110v50h1955v-50h-1955zM211 311v177h42v-177h-42zM243 608v177h148v-32h-107v-39h97v-31h-97v-42h107v-33h-148zM281 311v177h34l89 -107v107h40v-177h-33l-88 109v-109h-42zM421 608v177h34l88 -107v107h40v-177h-33l-88 109v-109h-41z
M537 311v177h87q72 0 72 -45q0 -28 -26 -40q3 0 3 -2q28 -12 28 -42q0 -48 -71 -48h-93zM579 342h48q32 0 32 22t-32 22h-48v-44zM579 419h42q33 0 33 20q0 22 -33 22h-42v-42zM612 753v32h156v-32h-57v-145h-41v145h-58zM721 311v177h148v-33h-107v-38h96v-31h-96v-41h105
v-34h-146zM786 785h44l40 -124l42 124h38l40 -126l42 126h39l-57 -177h-45l-39 121l-41 -121h-43zM897 311v177h81q28 0 42 -6q36 -19 36 -57q0 -21 -10 -35q-15 -18 -29 -23l37 -56h-43l-35 50h-37v-50h-42zM939 394h37q38 0 38 31q0 30 -38 30h-37v-61zM1076 311v177h40
v-143h106v-34h-146zM1079 697q0 39 28 65q26 26 69 26t69 -26q28 -25 28 -65q0 -39 -28 -65q-25 -27 -68 -27q-45 0 -70 27q-28 28 -28 65zM1121 697q0 -25 15.5 -40.5t39.5 -15.5t39.5 15.5t15.5 40.5t-15.5 41.5t-39.5 16.5t-39.5 -16.5t-15.5 -41.5zM1251 311v177h41
v-177h-41zM1296 608v177h81q28 0 41 -6q36 -17 36 -57q0 -21 -10 -35q-9 -15 -29 -23l39 -56h-45l-33 50h-39v-50h-41zM1321 311v177h35l87 -107v107h42v-177h-34l-89 109v-109h-41zM1337 691h37q38 0 38 31t-38 31h-37v-62zM1474 608v177h148v-32h-107v-39h96v-31h-96v-75
h-41zM1511 335q0 24 25 24q10 0 17 -7t7 -17q0 -11 -7 -25l-14 -38h-26l12 41q-14 5 -14 22zM1638 608v177h147v-32h-106v-39h95v-31h-95v-42h106v-33h-147zM1661 311v177h80q30 0 52 -11q46 -21 46 -77q0 -28 -12 -47q-23 -42 -86 -42h-80zM1703 345h37q17 0 31 7
q26 14 26 48q0 21 -6 29q-14 26 -51 26h-37v-110zM1815 608v177h33l90 -107v107h40v-177h-34l-89 109v-109h-40zM1863 311v177h147v-33h-107v-38h97v-31h-97v-41h106v-34h-146z" />
    <glyph glyph-name="_VendorID" horiz-adv-x="1116" 
d="M73 -4v1187h974v-1187h-974zM76 -95q0 13 7.5 20.5t18.5 7.5q9 0 12 -3l4 -5v26h13v-72h-13v9l-4 -7q-8 -5 -15 -5q-23 0 -23 29zM90 -95q0 -17 13 -17q15 0 15 17v1q0 18 -13 18q-15 0 -15 -19zM126 47h869v1084h-869v-1084zM141 -95q0 13 7.5 20.5t19.5 7.5
q11 0 18.5 -7.5t7.5 -19.5q0 -2 -2 -5h-37q1 -13 13 -13q10 0 12 9h12q-4 -21 -24 -21q-27 0 -27 29zM155 -91h25q-3 15 -12 15q-12 0 -13 -15zM198 -106h14q3 -9 9 -9q9 0 9 7q0 3 -12 9q-18 5 -18 16q0 16 21 16t21 -16h-14q-1 7 -7 7q-7 0 -7 -6q0 -4 12 -9q17 -5 17 -15
q0 -18 -22 -18q-20 0 -23 18zM240 297q0 59 46 125l97 137h64l-84 -120q11 3 23 3q62 0 102.5 -41.5t40.5 -103.5q0 -61 -41.5 -103.5t-101.5 -42.5q-61 0 -103.5 42.5t-42.5 103.5zM240 768q0 56 46 123l97 142h64l-84 -122q7 2 23 2q63 0 103 -41t40 -104
q0 -61 -41 -102.5t-102 -41.5t-103.5 42t-42.5 102zM251 -56q0 7 8 7t8 -7q0 -8 -8 -8t-8 8zM252 -121v54h14v-54h-14zM276 -95q0 28 26 28q9 0 12 -3l4 -5v8h14v-41q0 -8 -2 -11q0 -24 -27 -24q-26 0 -26 18v1h14v-1q0 -8 12 -8q11 0 15 13v8l-4 -7q-8 -2 -14 -2
q-24 0 -24 26zM291 -94q0 -18 12 -18q15 0 15 17v1q0 18 -15 18q-12 0 -12 -18zM294 297q0 -42 25.5 -68t66.5 -26q39 0 64.5 26t25.5 68q0 40 -25.5 65t-64.5 25q-41 0 -66.5 -25t-25.5 -65zM294 768q0 -41 25.5 -67t66.5 -26q39 0 64.5 26.5t25.5 66.5t-25.5 66t-64.5 26
q-41 0 -66.5 -25t-25.5 -67zM343 -121v54h14v-10l4 7q5 3 13 3q17 0 20 -15q1 -3 1 -9v-30h-15v34q0 11 -10 11q-13 0 -13 -21v-24h-14zM402 -95q0 13 7.5 20.5t19.5 7.5q28 0 28 -28q0 -29 -28 -29q-12 0 -19.5 8t-7.5 21zM416 -95q0 -17 13 -17q15 0 15 17q0 19 -15 19
q-13 0 -13 -19zM462 -67h14l14 -45l13 45h14l-19 -54h-18zM522 -106q0 16 30 16h3v7q0 7 -9 7q-11 0 -11 -9h-13q0 18 24 18q19 0 21 -15v-39h-12v6l-3 -5q-8 -4 -14 -4q-16 0 -16 18zM535 -106q0 -6 8 -6q12 0 12 9v6q-20 2 -20 -9zM576 -78v9h6v8q0 15 19 15h6v-11
q-11 2 -11 -5v-7h11v-9h-11v-43h-14v43h-6zM589 297q0 62 44 125l97 137h66l-86 -120q10 3 25 3q61 0 102 -41.5t41 -103.5q0 -61 -41.5 -103.5t-101.5 -42.5q-61 0 -103.5 42.5t-42.5 103.5zM589 768q0 57 44 123l97 142h66l-87 -122q8 2 26 2q61 0 102 -41.5t41 -103.5
q0 -61 -41.5 -102.5t-101.5 -41.5q-61 0 -103.5 41.5t-42.5 102.5zM611 -95q0 28 28 28q27 0 27 -28q0 -29 -27 -29q-28 0 -28 29zM625 -95q0 -17 14 -17q13 0 13 17q0 19 -13 19q-14 0 -14 -19zM642 297q0 -42 26 -68t67 -26q38 0 62.5 26t24.5 68q0 40 -24.5 65t-62.5 25
q-41 0 -67 -25t-26 -65zM642 768q0 -41 26 -67t67 -26q38 0 62.5 26t24.5 67q0 40 -24.5 66t-62.5 26q-41 0 -67 -25.5t-26 -66.5zM675 -121v54h12v-10l6 7q4 3 13 3q16 0 19 -15v-39h-14v34q-4 11 -9 11q-15 0 -15 -21v-24h-12zM732 -78v9h8v13h14v-13h10v-9h-10v-28
q2 -10 9 -6v-10h-8q-15 0 -15 10v34h-8zM768 -106h15q1 -9 10 -9q8 0 8 7q0 3 -12 9q-17 5 -17 16q0 16 20 16q19 0 24 -16h-16q0 7 -9 7q-5 0 -5 -6q0 -5 11 -9q19 -6 19 -15q0 -18 -23 -18q-21 0 -25 18zM820 -116q0 10 9 10t9 -10q0 -8 -9 -8t-9 8zM844 -95q0 13 8 20.5
t18 7.5q25 0 25 -20h-13q-3 11 -12 11q-12 0 -12 -19q0 -17 12 -17q10 0 12 9h13q-1 -21 -25 -21q-26 0 -26 29zM900 -95q0 28 29 28q26 0 26 -28q0 -29 -26 -29q-29 0 -29 29zM914 -95q0 -17 15 -17q13 0 13 17q0 19 -13 19q-15 0 -15 -19zM965 -121v54h14v-9l5 6q3 3 9 3
q13 0 18 -10l5 7q3 3 11 3q17 0 17 -12q1 -4 1 -12v-30h-13v27q0 2 -0.5 5t-0.5 4q0 9 -10 9q-9 0 -9 -18v-27h-13v36q-5 9 -10 9q-10 0 -10 -18v-27h-14z" />
    </font>
</defs>
</svg>
