<?xml version="1.0" standalone="no"?>
<!DOCTYPE svg PUBLIC "-//W3C//DTD SVG 1.1//EN" "http://www.w3.org/Graphics/SVG/1.1/DTD/svg11.dtd" >
<svg xmlns="http://www.w3.org/2000/svg" xmlns:xlink="http://www.w3.org/1999/xlink" version="1.1">
<metadata>
Created by FontForge 20170731 at Wed Nov 15 16:18:16 2023
 By Aleksey,,,
Copyright (c) 2023 by Designova. All rights reserved.
</metadata>
<defs>
<font id="LinearGrotesk-MediumItalic" horiz-adv-x="1085" >
  <font-face 
    font-family="Linear Grotesk Medium Italic"
    font-weight="500"
    font-style="italic"
    font-stretch="normal"
    units-per-em="2048"
    panose-1="0 0 0 0 0 0 0 0 0 0"
    ascent="1638"
    descent="-410"
    x-height="986"
    cap-height="1365"
    bbox="-364 -476 2488 1914"
    underline-thickness="100"
    underline-position="-355"
    unicode-range="U+0020-F8FF"
  />
<missing-glyph horiz-adv-x="1355" 
d="M195 -32l216 1363h955l-216 -1363h-955zM378 251l319 398l-193 397zM425 109h539l-204 413zM595 1190l205 -415l336 415h-541zM862 649l195 -398l126 795z" />
    <glyph glyph-name=".notdef" horiz-adv-x="1355" 
d="M195 -32l216 1363h955l-216 -1363h-955zM378 251l319 398l-193 397zM425 109h539l-204 413zM595 1190l205 -415l336 415h-541zM862 649l195 -398l126 795z" />
    <glyph glyph-name=".null" horiz-adv-x="0" 
 />
    <glyph glyph-name="nonmarkingreturn" horiz-adv-x="682" 
 />
    <glyph glyph-name="space" unicode=" " horiz-adv-x="360" 
 />
    <glyph glyph-name="space" unicode="&#xa0;" horiz-adv-x="360" 
 />
    <glyph glyph-name="exclam" unicode="!" horiz-adv-x="562" 
d="M244 315l145 1000h200l-175 -1000h-170zM120 -62l38 241h302l-38 -241h-302z" />
    <glyph glyph-name="quotedbl" unicode="&#x22;" horiz-adv-x="1244" 
d="M729 917l335 570h252l-410 -570h-177zM309 917l337 570h252l-412 -570h-177z" />
    <glyph glyph-name="numbersign" unicode="#" horiz-adv-x="1414" 
d="M203 -41l125 367h-290l21 138h315l106 304h-292l21 137h316l126 366h169l-123 -366h417l125 366h169l-122 -366h283l-21 -137h-309l-106 -304h292l-21 -138h-316l-125 -367h-176l127 367h-414l-126 -367h-171zM546 464h415l105 304h-415z" />
    <glyph glyph-name="dollar" unicode="$" horiz-adv-x="1212" 
d="M522 -44q-132 15 -255 84.5t-172 174.5l163 72q36 -80 149 -136t225 -56q176 0 273 49t114 158q5 36 -1 64q-10 38 -21.5 56t-45.5 39q-64 45 -96 59q-18 8 -45 18q-52 19 -90 29l-98 32q-191 56 -283.5 143t-69.5 229q21 133 151.5 227.5t315.5 110.5l23 146h178
l-23 -147q134 -16 241 -87.5t118 -148.5l-155 -56q-52 79 -127.5 115.5t-190.5 36.5q-158 0 -248 -52.5t-105 -146.5q-14 -91 52 -144.5t235 -104.5q16 -5 52.5 -16.5t47 -15l36 -12t40.5 -14.5t38.5 -16t49.5 -22q71 -32 117 -76q45 -42 70.5 -105.5t14.5 -134.5
q-25 -158 -163.5 -248.5t-336.5 -104.5l-23 -142h-178z" />
    <glyph glyph-name="percent" unicode="%" horiz-adv-x="2178" 
d="M326 -57l1512 1379h216l-1511 -1379h-217zM288 1004q24 149 169 246t332 97q189 0 301.5 -96t88.5 -247t-167 -246t-331 -95q-120 0 -215 41t-144.5 120t-33.5 180zM462 1004q-14 -90 54 -144.5t187 -54.5q118 0 202 54.5t98 144.5q14 92 -51 147t-185 55
q-122 0 -206.5 -55.5t-98.5 -146.5zM1199 263q23 149 167 245.5t332 96.5q190 0 303.5 -96.5t90.5 -245.5q-24 -150 -169.5 -246.5t-333.5 -96.5q-119 0 -213.5 42t-143.5 121.5t-33 179.5zM1376 263q-15 -92 52.5 -147t183.5 -55q118 0 204 56t101 146q14 90 -52 144
t-190 54q-122 0 -203.5 -53.5t-95.5 -144.5z" />
    <glyph glyph-name="ampersand" unicode="&#x26;" horiz-adv-x="1272" 
d="M540 -25q-224 0 -341 106.5t-89 285.5q21 134 119 241.5t301 218.5q-78 114 -104 185t-15 140q21 130 121.5 210t241.5 80q137 0 209.5 -77t52.5 -201q-16 -104 -88.5 -190.5t-218.5 -178.5l307 -432q70 110 98 301h137q-33 -238 -159 -409l180 -255h-175l-107 149
q-198 -174 -470 -174zM249 367q-20 -124 61.5 -193.5t247.5 -69.5q238 0 385 141l-344 481q-177 -93 -255 -173t-95 -186zM550 1152q-7 -44 16 -97t97 -163q109 65 165.5 131t67.5 141q11 69 -27.5 109t-116.5 40q-82 0 -136 -43t-66 -118z" />
    <glyph glyph-name="quotesingle" unicode="'" horiz-adv-x="823" 
d="M309 917l335 570h251l-409 -570h-177z" />
    <glyph glyph-name="parenleft" unicode="(" horiz-adv-x="781" 
d="M535 -335q-370 385 -283 937q89 558 580 939l141 -63q-118 -101 -186.5 -174t-150.5 -188q-155 -212 -203 -514q-50 -320 56 -544q13 -30 22.5 -50.5t21 -42.5t17 -33.5t18 -31t17 -27t21.5 -30t23.5 -30.5t31 -39t35.5 -46z" />
    <glyph glyph-name="parenright" unicode=")" horiz-adv-x="782" 
d="M2 -274q80 76 89 84q87 83 175 183q82 104 117 164q50 85 94 205t63 240q48 302 -38 511q-46 113 -93 187.5t-133 177.5l162 63q371 -381 282 -939q-86 -548 -579 -937z" />
    <glyph glyph-name="asterisk" unicode="*" horiz-adv-x="1401" 
d="M1080 189l-301 325l-393 -320l-139 90l400 308l-446 124l96 141l433 -132l41 349h199l-69 -349l477 132l48 -141l-484 -124l304 -306z" />
    <glyph glyph-name="plus" unicode="+" horiz-adv-x="1489" 
d="M684 155l62 396h-513l23 144h513l60 379h174l-60 -379h508l-23 -144h-508l-62 -396h-174z" />
    <glyph glyph-name="comma" unicode="," horiz-adv-x="734" 
d="M22 -376l335 569h251l-411 -569h-175z" />
    <glyph glyph-name="hyphen" unicode="-" horiz-adv-x="1311" 
d="M186 551l23 144h1113l-23 -144h-1113z" />
    <glyph glyph-name="period" unicode="." horiz-adv-x="538" 
d="M112 -48l39 241h298l-39 -241h-298z" />
    <glyph glyph-name="slash" unicode="/" horiz-adv-x="887" 
d="M-30 -164l958 1581h187l-958 -1581h-187z" />
    <glyph glyph-name="zero" unicode="0" horiz-adv-x="1124" 
d="M381 682q-27 -168 -18 -292q8 -128 64 -203t157 -75q77 0 142 45.5t109 129.5q85 158 122 395q26 175 17 302.5t-63.5 199.5t-150.5 72q-143 0 -240 -152.5t-139 -421.5zM180 682q30 190 95 336t151 227q164 152 356 152q232 0 331.5 -186.5t45.5 -528.5
q-52 -331 -207.5 -522.5t-390.5 -191.5q-197 0 -312 155q-61 82 -79.5 223.5t10.5 335.5z" />
    <glyph glyph-name="one" unicode="1" horiz-adv-x="701" 
d="M400 0l184 1158l-378 -186l28 179l435 214h128l-216 -1365h-181z" />
    <glyph glyph-name="two" unicode="2" horiz-adv-x="1124" 
d="M265 1046q71 168 206.5 259.5t326.5 91.5q202 0 313 -103.5t84 -279.5q-33 -205 -303 -406q-44 -33 -84.5 -63t-60.5 -45t-34 -26q-106 -80 -146 -115q-93 -83 -115 -107q-48 -53 -85 -109h688l-23 -143h-924q11 70 54.5 148t97.5 142q45 52 144 137t164 132l181 133
q219 163 244 325q18 112 -42.5 175.5t-178.5 63.5q-117 0 -204.5 -66t-141.5 -186z" />
    <glyph glyph-name="three" unicode="3" horiz-adv-x="1185" 
d="M304 305q73 -193 296 -193q137 0 236.5 72t119.5 199q18 120 -67.5 191.5t-233.5 71.5q-57 0 -131 -6l23 144q41 -4 121 -4q128 0 219.5 66.5t109.5 178.5q17 101 -46 166t-178 65q-187 0 -310 -204l-155 46q71 138 199 218.5t297 80.5q207 0 314.5 -99.5t82.5 -257.5
q-17 -109 -96 -193t-188 -124q121 -33 191.5 -121.5t49.5 -218.5q-31 -195 -187.5 -305t-392.5 -110q-174 0 -292.5 79t-152.5 202z" />
    <glyph glyph-name="four" unicode="4" horiz-adv-x="1220" 
d="M118 300l22 140l849 941h174l-149 -937h211l-22 -144h-211l-51 -316h-198l51 316h-676zM331 444h485l75 473q16 105 42 205h-9l-155 -183z" />
    <glyph glyph-name="five" unicode="5" horiz-adv-x="1137" 
d="M311 285q30 -80 100 -126.5t164 -46.5q142 0 236.5 82.5t115.5 218.5q22 137 -50.5 221.5t-211.5 84.5q-163 0 -300 -121l-115 41l197 726h744l-22 -142h-565l-122 -432q125 69 274 69q198 0 302 -120.5t72 -320.5q-31 -195 -182.5 -323t-390.5 -128q-162 0 -267.5 70.5
t-148.5 194.5z" />
    <glyph glyph-name="six" unicode="6" horiz-adv-x="1128" 
d="M347 428q-22 -141 45 -228.5t197 -87.5q127 0 221.5 87t116.5 229q23 145 -45 233t-196 88q-124 0 -220.5 -91.5t-118.5 -229.5zM169 612q50 314 207 536q82 116 203.5 182.5t262.5 66.5q284 0 379 -258l-162 -48q-79 165 -239 165q-259 0 -391 -388q-35 -100 -50 -163
q55 84 150.5 135t207.5 51q202 0 310.5 -131t76.5 -330q-32 -203 -182.5 -332.5t-367.5 -129.5q-234 0 -343 145q-117 152 -62 499z" />
    <glyph glyph-name="seven" unicode="7" horiz-adv-x="1055" 
d="M974 1217h-733l23 148h961l-18 -118q-483 -565 -768 -1263h-203q241 616 738 1233z" />
    <glyph glyph-name="eight" unicode="8" horiz-adv-x="1157" 
d="M486 1023q-16 -102 45.5 -165.5t170.5 -63.5q111 0 192.5 64.5t97.5 164.5q16 101 -45 167t-172 66q-112 0 -193 -67t-96 -166zM130 369q22 136 117 227.5t228 129.5q-223 97 -190 306q25 156 170 260.5t342 104.5q195 0 309 -103.5t89 -261.5q-17 -109 -94.5 -187
t-191.5 -119q123 -37 189.5 -130.5t44.5 -228.5q-28 -176 -188.5 -287.5t-383.5 -111.5q-217 0 -343 110.5t-98 290.5zM335 377q-19 -116 54 -190.5t205 -74.5q131 0 230.5 75.5t117.5 189.5q18 115 -58 195.5t-205 80.5q-127 0 -226.5 -80t-117.5 -196z" />
    <glyph glyph-name="nine" unicode="9" horiz-adv-x="1121" 
d="M419 939q-22 -139 48 -227.5t189 -88.5q124 0 219.5 88.5t117.5 225.5q22 136 -44.5 227.5t-192.5 91.5q-124 0 -219.5 -89.5t-117.5 -227.5zM118 231l168 48q30 -75 94 -121t151 -46q92 0 168.5 44t126.5 123q97 152 132 371q-50 -73 -143 -121t-208 -48
q-194 0 -306.5 126t-80.5 330q32 201 190.5 330.5t367.5 129.5q175 0 283.5 -99.5t122.5 -263.5q11 -113 -16 -285q-60 -376 -225 -578.5t-437 -202.5q-146 0 -250 76.5t-138 186.5z" />
    <glyph glyph-name="colon" unicode=":" horiz-adv-x="538" 
d="M245 788l38 244h298l-38 -244h-298zM139 123l39 244h298l-39 -244h-298z" />
    <glyph glyph-name="semicolon" unicode=";" horiz-adv-x="697" 
d="M50 -203l334 570h251l-410 -570h-175zM362 788l38 244h300l-38 -244h-300z" />
    <glyph glyph-name="less" unicode="&#x3c;" horiz-adv-x="1399" 
d="M1127 -31l-884 588l16 100l1071 593l93 -111l-957 -531l790 -528z" />
    <glyph glyph-name="equal" unicode="=" horiz-adv-x="1459" 
d="M285 711l22 144h1113l-22 -144h-1113zM234 394l23 141h1113l-23 -141h-1113z" />
    <glyph glyph-name="greater" unicode="&#x3e;" horiz-adv-x="1398" 
d="M260 -31l-92 111l951 528l-784 528l128 114l883 -593l-16 -100z" />
    <glyph glyph-name="question" unicode="?" horiz-adv-x="1082" 
d="M491 376q15 94 73 174t139 136q48 28 92 58q5 3 12.5 8l10.5 7q12 8 23 14q69 47 108 93t47 103q18 114 -45.5 174.5t-209.5 60.5q-121 0 -213 -53.5t-175 -171.5l-152 50q86 148 239.5 233t322.5 85q218 0 330 -103t86 -273q-26 -162 -210 -288l-135 -90
q-145 -93 -165 -219l-12 -77h-179zM359 -62l38 241h299l-38 -241h-299z" />
    <glyph glyph-name="at" unicode="@" horiz-adv-x="1731" 
d="M837 -176q-169 0 -309 63t-230.5 171t-129 259t-11.5 320q27 168 113.5 317.5t211 257t284.5 170.5t328 63q232 0 400.5 -100.5t243.5 -281t39 -407.5q-33 -207 -152.5 -344.5t-268.5 -137.5q-181 0 -206 137q-124 -129 -324 -129q-141 0 -214.5 72.5t-54.5 193.5
q19 122 118.5 196.5t268.5 95.5l159 19q90 13 117 29q13 102 -33.5 151.5t-156.5 49.5q-113 0 -180 -52t-75 -143h-132q10 142 123.5 230t283.5 88q168 0 245 -85t52 -242l-62 -396q-15 -96 89 -96q95 0 170.5 100t101.5 263q31 192 -31.5 343.5t-204 236t-336.5 84.5
q-187 0 -357 -90.5t-284 -247.5t-144 -345q-23 -144 9 -271.5t107.5 -219t192.5 -145t259 -53.5q128 0 252.5 44t229.5 127l64 -92q-258 -203 -566 -203zM687 450q-11 -71 32.5 -109t137.5 -38q132 0 223 87.5t114 237.5l6 34q-76 -17 -211 -30l-53 -6q-224 -27 -249 -176z
" />
    <glyph glyph-name="A" unicode="A" horiz-adv-x="1383" 
d="M503 514h540l-154 688h-12zM8 0l784 1365h233l351 -1365h-212l-86 374h-652l-207 -374h-211z" />
    <glyph glyph-name="B" unicode="B" horiz-adv-x="1279" 
d="M768 0h-648l216 1365h574q227 0 333.5 -94t79.5 -261q-16 -102 -85.5 -177.5t-173.5 -115.5q110 -30 173 -121t44 -210q-26 -166 -166 -276t-347 -110zM340 149h410q126 0 218.5 63.5t109.5 171.5q17 107 -54 176.5t-205 69.5h-403zM439 775h350q131 0 221.5 58
t107.5 165q16 103 -45.5 161t-206.5 58h-357z" />
    <glyph glyph-name="C" unicode="C" horiz-adv-x="1354" 
d="M180 682q35 218 143.5 380.5t272.5 248.5t363 86q176 0 296 -86t167 -223l-177 -50q-99 210 -315 210q-210 0 -359 -154t-190 -412q-41 -260 60.5 -412t309.5 -152q128 0 241 65t178 167l168 -50q-79 -121 -222 -219q-164 -113 -383 -113q-147 0 -262 49t-188.5 140
t-101 225.5t-1.5 299.5z" />
    <glyph glyph-name="D" unicode="D" horiz-adv-x="1341" 
d="M546 0h-426l216 1365h429q342 0 503 -176.5t109 -506.5q-51 -318 -265 -500t-566 -182zM339 147h204q265 0 427.5 131.5t205.5 403.5q85 535 -459 535h-208z" />
    <glyph glyph-name="E" unicode="E" horiz-adv-x="1204" 
d="M1118 0h-998l216 1365h980l-23 -148h-784l-70 -438h707l-23 -146h-707l-76 -484h802z" />
    <glyph glyph-name="F" unicode="F" horiz-adv-x="1141" 
d="M316 0h-196l216 1365h952l-23 -148h-756l-72 -456h675l-24 -147h-675z" />
    <glyph glyph-name="G" unicode="G" horiz-adv-x="1409" 
d="M180 682q51 319 266 517t524 198q107 0 196 -29.5t147 -80.5q98 -85 138 -193l-175 -49q-111 203 -329 203q-224 0 -374.5 -153.5t-191.5 -412.5q-42 -261 62 -412.5t317 -151.5q180 0 302.5 102t150.5 256l12 60q2 14 6 34.5t5 27.5h-417l23 148h607l-118 -746h-140
l11 179q-157 -211 -473 -211q-296 0 -448.5 194t-100.5 520z" />
    <glyph glyph-name="H" unicode="H" horiz-adv-x="1343" 
d="M316 0h-196l216 1365h196l-93 -590h710l93 590h197l-216 -1365h-197l100 630h-710z" />
    <glyph glyph-name="I" unicode="I" horiz-adv-x="436" 
d="M316 0h-196l216 1365h196z" />
    <glyph glyph-name="J" unicode="J" horiz-adv-x="982" 
d="M246 290q14 -79 69.5 -125.5t138.5 -46.5q229 0 274 287l152 960h198l-156 -985q-31 -201 -157 -306.5t-331 -105.5q-159 0 -252.5 71.5t-115.5 191.5z" />
    <glyph glyph-name="K" unicode="K" horiz-adv-x="1269" 
d="M316 0h-196l216 1365h196l-108 -685h4l773 685h256l-684 -592l494 -773h-242l-397 647l-243 -210z" />
    <glyph glyph-name="L" unicode="L" horiz-adv-x="1086" 
d="M1037 0h-917l216 1365h196l-192 -1216h721z" />
    <glyph glyph-name="M" unicode="M" horiz-adv-x="1664" 
d="M316 0h-196l216 1365h249l290 -1048h9l625 1048h251l-216 -1365h-197l174 1098l-594 -1005h-159l-279 999z" />
    <glyph glyph-name="N" unicode="N" horiz-adv-x="1351" 
d="M316 0h-196l216 1365h217l526 -1090l172 1090h196l-216 -1365h-215l-528 1089z" />
    <glyph glyph-name="O" unicode="O" horiz-adv-x="1437" 
d="M180 682q51 323 258 519t501 196q295 0 440 -196t94 -521q-52 -325 -259 -518.5t-501 -193.5q-295 0 -440 194t-93 520zM381 682q-41 -260 54.5 -412t301.5 -152q205 0 349 150t186 412q41 261 -53.5 414.5t-302.5 153.5q-206 0 -350 -153t-185 -413z" />
    <glyph glyph-name="P" unicode="P" horiz-adv-x="1258" 
d="M316 0h-196l216 1365h588q228 0 344 -110.5t87 -295.5q-30 -186 -182 -295.5t-375 -109.5h-394zM427 701h365q155 0 248 65t113 193q20 125 -52.5 191.5t-229.5 66.5h-362z" />
    <glyph glyph-name="Q" unicode="Q" horiz-adv-x="1438" 
d="M180 680q51 324 258.5 520.5t500.5 196.5q194 0 327 -89.5t187 -252t20 -375.5q-51 -323 -258 -517l150 -161l-136 -95l-148 157q-167 -96 -368 -96q-196 0 -328.5 88.5t-185.5 249.5t-19 374zM381 680q-41 -260 54.5 -411t301.5 -151q127 0 234 61l-227 241l136 98
l220 -234q133 152 172 396q42 265 -54.5 416.5t-301.5 151.5t-349.5 -152.5t-185.5 -415.5z" />
    <glyph glyph-name="R" unicode="R" horiz-adv-x="1274" 
d="M119 -9l218 1379h598q222 0 335.5 -111t85.5 -285q-33 -206 -222 -320q108 -94 86 -304l-2 -28l-1 -5q1 -1 1 -7v-5l-1 -10q-1 -3 -1 -8v-4q1 -1 1 -7v1q-2 -42 -4 -77t9.5 -88.5t39.5 -120.5h-211q-28 61 -32 133t7 214q6 60 -1 100.5t-32 71.5t-75.5 45.5t-129.5 14.5
h-386l-91 -579h-192zM430 746h405q292 0 328 226q17 109 -48.5 167.5t-228.5 58.5h-384z" />
    <glyph glyph-name="S" unicode="S" horiz-adv-x="1247" 
d="M288 324q46 -97 145 -151.5t235 -54.5q151 0 254 65t119 173q18 115 -83 178q-52 31 -100 50.5t-134 45.5q-225 69 -310 119q-165 105 -136 285q26 165 185.5 264t394.5 99q181 0 306 -74t169 -194l-174 -51q-98 170 -327 170q-148 0 -243 -58.5t-110 -155.5
q-18 -109 96 -172q53 -30 104 -49.5t148 -48.5q36 -11 37 -11q99 -31 160.5 -58.5t121.5 -70.5q124 -91 97 -263q-29 -183 -192.5 -288t-409.5 -105q-206 0 -346 80t-192 220z" />
    <glyph glyph-name="T" unicode="T" horiz-adv-x="1208" 
d="M699 1217h-460l23 148h1116l-23 -148h-460l-193 -1217h-196z" />
    <glyph glyph-name="U" unicode="U" horiz-adv-x="1349" 
d="M199 499l137 866h198l-136 -862q-31 -189 49.5 -287t244.5 -98q167 0 278 99.5t141 285.5l136 862h198l-137 -866q-40 -253 -206 -392t-434 -139q-263 0 -386 137.5t-83 393.5z" />
    <glyph glyph-name="V" unicode="V" horiz-adv-x="1269" 
d="M519 0l-295 1365h214l219 -1188l8 -1l597 1189h216l-729 -1365h-230z" />
    <glyph glyph-name="W" unicode="W" horiz-adv-x="1761" 
d="M361 0l-141 1365h212l69 -1172h12l481 1172h204l113 -1172h7l445 1172h211l-574 -1365h-228l-106 1149h-9l-470 -1149h-226z" />
    <glyph glyph-name="X" unicode="X" horiz-adv-x="1271" 
d="M250 0h-236l613 701l-371 664h238l270 -532h8l440 532h239l-586 -664l394 -701h-233l-296 566h-8z" />
    <glyph glyph-name="Y" unicode="Y" horiz-adv-x="1289" 
d="M636 557l-415 808h230l301 -658h8l509 658h231l-667 -808l-88 -557h-197z" />
    <glyph glyph-name="Z" unicode="Z" horiz-adv-x="1258" 
d="M75 0l20 128l1017 1089h-780l23 148h1023l-20 -130l-1021 -1086h870l-24 -149h-1108z" />
    <glyph glyph-name="bracketleft" unicode="[" horiz-adv-x="722" 
d="M121 -284l281 1776h485l-22 -141h-309l-237 -1496h309l-22 -139h-485z" />
    <glyph glyph-name="backslash" unicode="\" horiz-adv-x="845" 
d="M639 -164l-419 1581h183l420 -1581h-184z" />
    <glyph glyph-name="bracketright" unicode="]" horiz-adv-x="726" 
d="M26 -284l22 139h309l237 1496h-309l22 141h488l-281 -1776h-488z" />
    <glyph glyph-name="asciicircum" unicode="^" horiz-adv-x="1211" 
d="M164 821l610 639h127l406 -639h-210l-288 459l-42 -42l-389 -417h-214z" />
    <glyph glyph-name="underscore" unicode="_" horiz-adv-x="921" 
d="M-74 -186l22 144h1011l-22 -144h-1011z" />
    <glyph glyph-name="a" unicode="a" 
d="M281 261q-10 -66 45 -110t157 -44q138 0 245.5 79.5t127.5 202.5l19 120q-85 -17 -271 -42q-296 -43 -323 -206zM89 248q44 276 530 341q214 29 276 46l8 56q14 86 -46.5 139.5t-181.5 53.5q-95 0 -191.5 -40t-168.5 -107l-105 90q99 88 226.5 139t254.5 51
q451 0 389 -392l-99 -625h-182l24 149q-46 -77 -153 -129t-235 -52q-181 0 -273.5 76.5t-72.5 203.5z" />
    <glyph glyph-name="b" unicode="b" horiz-adv-x="1135" 
d="M289 0h-185l224 1413h187l-92 -580q52 75 147 129.5t203 54.5q210 0 317.5 -141.5t69.5 -382.5q-21 -132 -79.5 -238t-140.5 -168q-159 -119 -333 -119q-107 0 -186 54.5t-107 137.5zM365 493q-27 -173 41 -278t197 -105q134 0 234.5 102.5t128.5 280.5q28 175 -38.5 279
t-202.5 104q-129 0 -231 -106t-129 -277z" />
    <glyph glyph-name="c" unicode="c" horiz-adv-x="1038" 
d="M130 492q38 237 198 381t388 144q148 0 245.5 -77t118.5 -191l-170 -41q-16 73 -73.5 120.5t-139.5 47.5q-143 0 -244.5 -107t-128.5 -277q-27 -175 42.5 -278.5t208.5 -103.5q89 0 171.5 52t128.5 128l153 -42q-59 -118 -192.5 -199t-285.5 -81q-226 0 -342 143t-78 381
z" />
    <glyph glyph-name="d" unicode="d" horiz-adv-x="1134" 
d="M130 493q38 240 192 382t362 142q107 0 185 -52.5t104 -128.5l92 577h189l-224 -1413h-181l25 161q-57 -84 -153 -138.5t-203 -54.5q-177 0 -297 119q-63 61 -87.5 167t-3.5 239zM324 493q-28 -176 38 -279.5t202 -103.5q129 0 231 105t129 278q27 172 -40.5 277.5
t-197.5 105.5q-137 0 -236 -105t-126 -278z" />
    <glyph glyph-name="e" unicode="e" horiz-adv-x="1104" 
d="M131 499q37 231 202.5 374.5t390.5 143.5q223 0 336 -139.5t78 -362.5q-4 -23 -17 -78h-808q-22 -141 52.5 -236t224.5 -95q206 0 326 157l153 -45q-75 -113 -205.5 -181.5t-297.5 -68.5q-232 0 -352 146t-83 385zM336 560h616q22 139 -45 230t-204 91t-239 -93.5
t-128 -227.5z" />
    <glyph glyph-name="f" unicode="f" horiz-adv-x="640" 
d="M324 845h-185l22 141h185l22 136q23 146 116 218.5t244 72.5h157l-22 -139h-131q-150 0 -177 -167l-19 -121h255l-22 -141h-255l-134 -845h-190z" />
    <glyph glyph-name="g" unicode="g" horiz-adv-x="1110" 
d="M325 512q-26 -167 37.5 -266t195.5 -99q131 0 223.5 97.5t119.5 269.5q27 166 -35.5 264t-188.5 98q-133 0 -229.5 -101t-122.5 -263zM65 -245l142 77q105 -124 277 -124q133 0 224 90.5t118 242.5q9 49 13 70q10 61 11 63q-54 -76 -141.5 -122t-189.5 -46
q-209 0 -315 139.5t-71 363.5q36 228 186.5 368t353.5 140q112 0 183.5 -51t96.5 -125l23 145h187l-137 -863q-44 -280 -182.5 -415t-385.5 -135q-271 0 -393 182z" />
    <glyph glyph-name="h" unicode="h" horiz-adv-x="1086" 
d="M291 0h-187l224 1413h187l-90 -567h4q56 74 152.5 122.5t198.5 48.5q172 0 253 -92.5t51 -287.5l-101 -637h-185l97 612q42 264 -171 264q-120 0 -221 -87.5t-120 -210.5z" />
    <glyph glyph-name="i" unicode="i" horiz-adv-x="376" 
d="M489 1181h-226l32 203h226zM98 0l156 986h185l-156 -986h-185z" />
    <glyph glyph-name="j" unicode="j" horiz-adv-x="426" 
d="M537 1181h-229l32 203h229zM-143 -408l23 144h47q172 0 206 214l164 1036h189l-165 -1044q-28 -173 -127 -261.5t-262 -88.5h-75z" />
    <glyph glyph-name="k" unicode="k" horiz-adv-x="1008" 
d="M294 0h-190l224 1413h190l-141 -886l526 459h245l-465 -397l348 -589h-228l-260 473l-201 -173z" />
    <glyph glyph-name="l" unicode="l" horiz-adv-x="396" 
d="M292 0h-188l224 1413h188z" />
    <glyph glyph-name="m" unicode="m" horiz-adv-x="1657" 
d="M295 0h-191l156 986h184l-21 -136q46 68 135 117.5t197 49.5q195 0 246 -203q33 50 118 118q46 38 118 61.5t148 23.5q329 0 269 -380l-101 -637h-189l99 627q20 128 -10.5 188.5t-131.5 60.5q-111 0 -199 -83t-107 -208l-93 -585h-186l100 630q39 246 -145 246
q-117 0 -199.5 -78t-102.5 -206z" />
    <glyph glyph-name="n" unicode="n" horiz-adv-x="1093" 
d="M295 0h-191l156 986h184l-24 -153h3q42 72 143 128t225 56q168 0 249 -91.5t50 -288.5l-101 -637h-193l97 611q42 265 -167 265q-120 0 -220 -86.5t-119 -208.5z" />
    <glyph glyph-name="o" unicode="o" horiz-adv-x="1114" 
d="M324 492q-28 -176 44 -279t208 -103q134 0 239.5 103.5t133.5 278.5q28 178 -44.5 281t-206.5 103q-135 0 -240.5 -102t-133.5 -282zM130 492q36 230 194 377.5t396 147.5q156 0 261 -69.5t145.5 -188t16.5 -267.5q-31 -189 -166 -347q-70 -81 -181.5 -129t-241.5 -48
t-226 46.5t-142 127.5q-87 151 -56 350z" />
    <glyph glyph-name="p" unicode="p" horiz-adv-x="1135" 
d="M369 493q-27 -174 35 -278.5t199 -104.5q134 0 235.5 104t128.5 279q27 172 -38 277.5t-204 105.5q-132 0 -230.5 -106.5t-125.5 -276.5zM38 -419l222 1405h181l-25 -162q63 89 156.5 141t200.5 52q209 0 317 -143t70 -381q-20 -124 -73.5 -225t-129 -166t-165.5 -99.5
t-185 -34.5q-113 0 -188.5 51t-103.5 132l-90 -570h-187z" />
    <glyph glyph-name="q" unicode="q" horiz-adv-x="1134" 
d="M324 493q-27 -176 39.5 -279.5t200.5 -103.5q135 0 232.5 104.5t125.5 278.5q27 170 -38 276.5t-198 106.5q-141 0 -237.5 -105.5t-124.5 -277.5zM130 493q38 238 191.5 381t362.5 143q104 0 181 -51t115 -142l25 162h181l-222 -1405h-189l90 571q-53 -81 -146 -132.5
t-201 -51.5q-96 0 -175 34.5t-134 99.5t-77 166t-2 225z" />
    <glyph glyph-name="r" unicode="r" horiz-adv-x="731" 
d="M295 0h-191l156 986h182l-21 -131q47 69 130.5 115.5t187.5 46.5q87 0 149 -25l-24 -151q-65 25 -149 25q-133 0 -222.5 -90.5t-113.5 -242.5z" />
    <glyph glyph-name="s" unicode="s" horiz-adv-x="1003" 
d="M236 270q93 -163 294 -163q113 0 187.5 38.5t85.5 105.5q3 26 -2 46q-7 28 -71 71q-14 10 -67 28q-155 46 -164 49q-132 41 -212 94q-101 68 -80 198q20 125 148.5 202.5t318.5 77.5q133 0 241 -62t149 -156l-140 -71q-37 66 -108.5 108t-161.5 42q-112 0 -178.5 -38
t-76.5 -104q-14 -81 78 -127q76 -37 190 -68q143 -41 231 -97q116 -72 96 -195q-19 -121 -151 -201t-333 -80q-152 0 -262 60.5t-162 170.5z" />
    <glyph glyph-name="t" unicode="t" horiz-adv-x="700" 
d="M335 845h-187l22 141h187l49 308h190l-49 -308h278l-22 -141h-278l-87 -546q-13 -83 17.5 -119.5t109.5 -36.5h129l-23 -143h-155q-315 0 -270 285z" />
    <glyph glyph-name="u" unicode="u" horiz-adv-x="1084" 
d="M159 350l101 636h191l-96 -606q-42 -270 176 -270q130 0 219 91.5t110 226.5l88 558h188l-156 -986h-181l23 143h-1q-38 -69 -131 -122t-222 -53q-166 0 -252.5 97t-56.5 285z" />
    <glyph glyph-name="v" unicode="v" horiz-adv-x="1058" 
d="M419 0l-248 986h212l168 -843h3l437 843h207l-556 -986h-223z" />
    <glyph glyph-name="w" unicode="w" horiz-adv-x="1521" 
d="M323 0l-150 986h209l76 -828h6l346 828h214l86 -828h8l335 828h207l-460 -986h-224l-83 807h-8l-336 -807h-226z" />
    <glyph glyph-name="x" unicode="x" 
d="M255 0h-223l477 509l-302 477h226l203 -358h9l312 358h229l-453 -477l319 -509h-225l-219 390h-9z" />
    <glyph glyph-name="y" unicode="y" horiz-adv-x="1056" 
d="M444 0l-273 986h215l177 -795h8l413 795h212l-652 -1138q-82 -145 -178.5 -206t-228.5 -61h-66l22 139h36q86 0 145 38.5t113 132.5z" />
    <glyph glyph-name="z" unicode="z" horiz-adv-x="1036" 
d="M969 0h-889l18 113l741 732h-571l22 141h814l-16 -105l-743 -740h646z" />
    <glyph glyph-name="braceleft" unicode="{" horiz-adv-x="916" 
d="M591 -283q-110 0 -179.5 65t-51.5 181l52 329q20 123 -10 176.5t-112 53.5h-108l22 140h108q86 0 130.5 52.5t65.5 181.5l56 351q17 111 105.5 178t199.5 67h212l-22 -141h-195q-54 0 -84.5 -27.5t-40.5 -91.5l-55 -348q-31 -196 -168 -291q107 -89 78 -280l-51 -322
q-12 -75 9 -104t81 -29h190l-23 -141h-209z" />
    <glyph glyph-name="braceright" unicode="}" horiz-adv-x="917" 
d="M26 -283l23 141h192q60 0 91 29t43 104l52 332q14 87 56.5 157t105.5 113q-105 93 -74 283l56 356q10 64 -12 91.5t-78 27.5h-196l22 141h213q113 0 180 -66t50 -179l-56 -351q-20 -125 9 -179.5t112 -54.5h108l-22 -140h-108q-81 0 -128.5 -54t-64.5 -166l-54 -339
q-19 -116 -108.5 -181t-202.5 -65h-209z" />
    <glyph glyph-name="asciitilde" unicode="~" horiz-adv-x="1688" 
d="M1189 417q-171 0 -271 95q-8 8 -23.5 21.5t-28 25t-22.5 21.5q-77 70 -178 70q-84 0 -161 -45t-161 -144l-140 64q198 266 486 266q168 0 274 -93q17 -16 49 -48q4 -2 9 -7q8 -6 10 -8q0 -2 3 -4.5t3 -3.5q84 -70 173 -70q93 0 168 54q51 38 74 60t83 87l141 -66
q-54 -62 -102 -107t-108.5 -85.5t-130.5 -61.5t-147 -21z" />
    <glyph glyph-name="exclamdown" unicode="&#xa1;" horiz-adv-x="560" 
d="M114 -425l174 1000h170l-144 -1000h-200zM242 708l38 242h300l-38 -242h-300z" />
    <glyph glyph-name="cent" unicode="&#xa2;" horiz-adv-x="1146" 
d="M516 -77q-212 20 -320 162t-73 362q34 212 184.5 357.5t373.5 164.5l23 142h180l-23 -146q130 -23 212.5 -94.5t96.5 -172.5l-171 -44q-13 81 -84.5 130t-182.5 49q-173 0 -289 -103.5t-144 -282.5q-28 -180 56 -284t254 -104q115 0 215.5 54.5t148.5 135.5l156 -50
q-66 -101 -179.5 -175t-252.5 -96l-24 -148h-180z" />
    <glyph glyph-name="sterling" unicode="&#xa3;" horiz-adv-x="1461" 
d="M949 -80q-80 0 -189 30q-109 25 -169 25q-71 0 -169 -11t-164 -25l-107 -20l-54 134q139 17 222 97t101 195l33 212h-262l23 144h262l44 279q28 176 166 271.5t347 95.5q158 0 266 -67.5t136 -166.5l-152 -61q-35 80 -97.5 116t-168.5 36q-146 0 -224 -54t-97 -173
l-44 -276h546l-23 -144h-546l-33 -212q-23 -137 -107 -235q69 8 134 8q99 0 197 -30q97 -25 155 -25q197 0 332 71l48 -134q-161 -80 -406 -80z" />
    <glyph glyph-name="currency" unicode="&#xa4;" horiz-adv-x="1553" 
d="M1150 310q-144 -75 -332 -75q-182 0 -308 75l-272 -173l-120 89l283 186q-68 94 -49 220q20 123 118 220l-222 176l144 99l221 -172q149 73 331 73q180 0 307 -77l271 178l115 -103l-278 -175q71 -102 52 -219q-18 -116 -122 -219l221 -184l-143 -94zM528 632
q-17 -112 68.5 -183.5t244.5 -71.5q156 0 266.5 72t127.5 183t-70.5 183t-243.5 72t-266 -72t-127 -183z" />
    <glyph glyph-name="yen" unicode="&#xa5;" horiz-adv-x="1445" 
d="M629 -48l54 338h-462l22 140h462l14 88h-462l22 138h361l-445 657h220l339 -501q4 -13 16 -27q1 -1 6 -8.5l9 -13.5q12 -19 14 -20q2 -4 8 -14q3 -5 8 -13t6 -9l13 -18q5 10 14 16q8 6 20 21q15 16 31.5 32.5t32 31.5t19.5 19l494 504h223l-649 -657h349l-22 -138h-450
l-14 -88h450l-22 -140h-450l-54 -338h-177z" />
    <glyph glyph-name="copyright" unicode="&#xa9;" horiz-adv-x="1722" 
d="M855 -27q-154 0 -281 57t-209 155t-117 234.5t-11 290.5q24 153 103 289t192 234t258 155t298 57q154 0 281.5 -56.5t209.5 -154t117 -234t11 -290.5q-33 -206 -155.5 -375t-306.5 -265.5t-390 -96.5zM368 710q-27 -173 29.5 -313.5t182 -220t294.5 -79.5q171 0 322.5 79
t252 219.5t127.5 314.5q28 172 -28.5 312t-182.5 219t-297 79q-168 0 -319 -79.5t-252 -219.5t-129 -311zM596 705q29 186 157.5 303.5t303.5 117.5q134 0 217.5 -79.5t84.5 -208.5h-142q-5 77 -50.5 118t-129.5 41q-115 0 -199.5 -80t-105.5 -210q-20 -127 36.5 -206.5
t167.5 -79.5q86 0 149 40.5t95 115.5h139q-43 -126 -156 -205.5t-248 -79.5q-170 0 -259 116t-60 297z" />
    <glyph glyph-name="ordfeminine" unicode="&#xaa;" horiz-adv-x="855" 
d="M124 546l21 129h781l-21 -129h-781zM223 929q31 197 380 244q143 19 198 34l6 39q10 63 -33.5 101t-130.5 38q-69 0 -137.5 -28.5t-119.5 -76.5l-76 64q70 64 162 101t183 37q324 0 279 -283l-71 -448h-131l17 107q-33 -55 -110 -92.5t-167 -37.5q-130 0 -196.5 56
t-52.5 145zM362 939q-8 -47 31.5 -79t111.5 -32q99 0 176.5 57t91.5 144l14 88q-61 -13 -195 -30q-212 -32 -230 -148z" />
    <glyph glyph-name="guillemotleft" unicode="&#xab;" horiz-adv-x="1089" 
d="M492 -10l-337 442l481 440l136 -74l-401 -366l280 -367zM507 432l479 437l134 -74l-398 -363l281 -365l-156 -74z" />
    <glyph glyph-name="logicalnot" unicode="&#xac;" horiz-adv-x="1292" 
d="M1041 174l57 361h-910l22 141h1089l-79 -502h-179z" />
    <glyph glyph-name="uni00AD" unicode="&#xad;" horiz-adv-x="1260" 
d="M186 551l23 144h1062l-23 -144h-1062z" />
    <glyph glyph-name="registered" unicode="&#xae;" horiz-adv-x="892" 
d="M550 649q-165 0 -259 110.5t-68 275.5q17 106 82 194t162 138t204 50q164 0 256.5 -109.5t67.5 -272.5q-26 -166 -153 -276t-292 -110zM287 1035q-23 -141 54 -234t218 -93q138 0 245.5 93.5t129.5 233.5q22 138 -56 230.5t-216 92.5q-140 0 -246.5 -92.5t-128.5 -230.5z
M427 823l68 430h164q72 0 108 -34.5t26 -94.5q-7 -44 -35 -77t-72 -46l67 -178h-74l-59 162h-101l-26 -162h-66zM529 1045h95q86 0 97 75q6 36 -13 53.5t-61 17.5h-95z" />
    <glyph glyph-name="plusminus" unicode="&#xb1;" horiz-adv-x="1472" 
d="M698 305l57 355h-495l22 143h495l57 356h174l-57 -356h492l-22 -143h-492l-57 -355h-174zM177 101l22 141h1149l-22 -141h-1149z" />
    <glyph glyph-name="uni00B2" unicode="&#xb2;" horiz-adv-x="665" 
d="M256 1313q96 218 316 218q121 0 187.5 -62.5t50.5 -164.5q-20 -117 -185 -245q-31 -22 -148 -111q-83 -64 -119 -118h376l-16 -106h-546q15 99 89 178q71 77 275 231q117 84 131 173q9 57 -21 88.5t-91 31.5q-50 0 -96 -29.5t-59 -56.5l-28 -56z" />
    <glyph glyph-name="uni00B3" unicode="&#xb3;" horiz-adv-x="665" 
d="M293 925q44 -113 158 -113q71 0 122 37.5t61 103.5q10 62 -33.5 97.5t-122.5 35.5q-39 0 -87 -4l17 108q64 -3 81 -3q66 0 112 33t55 90q9 53 -22.5 85.5t-89.5 32.5t-94 -28.5t-74 -89.5l-109 34q96 187 297 187q120 0 185.5 -59t50.5 -152q-18 -117 -138 -175
q134 -57 113 -192q-18 -113 -111.5 -179.5t-229.5 -66.5q-105 0 -172.5 48t-88.5 130z" />
    <glyph glyph-name="uni00B5" unicode="&#xb5;" horiz-adv-x="1192" 
d="M30 -468l223 1411h181l-98 -624q-41 -260 226 -260q172 0 281.5 88.5t132.5 229.5l89 566h174l-157 -991h-172l14 86q-158 -118 -390 -118q-158 0 -252 64l-71 -452h-181z" />
    <glyph glyph-name="periodcentered" unicode="&#xb7;" horiz-adv-x="539" 
d="M196 483l39 243h299l-39 -243h-299z" />
    <glyph glyph-name="uni00B9" unicode="&#xb9;" horiz-adv-x="592" 
d="M355 724l99 620l-182 -103l26 168l225 129h105l-129 -814h-144z" />
    <glyph glyph-name="ordmasculine" unicode="&#xba;" horiz-adv-x="855" 
d="M393 1111q-20 -127 32 -201t149 -74q96 0 172 74t96 201q20 128 -32 202.5t-148 74.5q-98 0 -173.5 -73.5t-95.5 -203.5zM124 546l21 129h781l-21 -129h-781zM252 1111q26 166 140.5 272.5t285.5 106.5q169 0 250 -106.5t55 -272.5q-21 -134 -120 -250q-49 -59 -130 -93
t-175 -34q-95 0 -163 33t-101 91q-64 112 -42 253z" />
    <glyph glyph-name="guillemotright" unicode="&#xbb;" horiz-adv-x="1088" 
d="M581 -10l-137 75l396 367l-286 366l161 74l341 -440zM97 70l391 362l-280 363l156 74l340 -437l-477 -442z" />
    <glyph glyph-name="questiondown" unicode="&#xbf;" horiz-adv-x="1080" 
d="M460 -457q-216 0 -329.5 103.5t-87.5 273.5q14 86 72 160t141 128l13 7q4 4 14 10t12 7q2 2 7 5t7 5q3 2 8 5.5t7 4.5q5 3 25.5 16.5t33.5 21.5q3 4 9 6h1q1 1 2 1q140 92 160 221l12 74h177l-12 -77q-15 -93 -74 -173t-141 -136l-14 -8l-28 -20q-9 -5 -25 -15l-24 -15
q-7 -5 -47 -30q-140 -89 -157 -197q-17 -114 47.5 -174t211.5 -60q122 0 214.5 54t174.5 172l150 -52q-88 -151 -238.5 -234.5t-321.5 -83.5zM524 710l38 240h297l-38 -240h-297z" />
    <glyph glyph-name="Agrave" unicode="&#xc0;" horiz-adv-x="1383" 
d="M882 1497l-250 323h237l181 -323h-168zM8 0l784 1365h233l351 -1365h-212l-86 374h-652l-207 -374h-211zM503 514h540l-154 688h-12z" />
    <glyph glyph-name="Aacute" unicode="&#xc1;" horiz-adv-x="1383" 
d="M941 1497h-162l278 323h239zM8 0l784 1365h233l351 -1365h-212l-86 374h-652l-207 -374h-211zM503 514h540l-154 688h-12z" />
    <glyph glyph-name="Acircumflex" unicode="&#xc2;" horiz-adv-x="1383" 
d="M707 1497h-200l387 311h166l293 -311h-201l-190 218zM8 0l784 1365h233l351 -1365h-212l-86 374h-652l-207 -374h-211zM503 514h540l-154 688h-12z" />
    <glyph glyph-name="Atilde" unicode="&#xc3;" horiz-adv-x="1383" 
d="M485 1615q129 167 306 167q75 0 166 -57q91 -58 130 -58q102 0 192 113l98 -74q-135 -166 -305 -166q-76 0 -164 59q-88 58 -133 58q-51 0 -103 -32.5t-89 -83.5zM8 0l784 1365h233l351 -1365h-212l-86 374h-652l-207 -374h-211zM503 514h540l-154 688h-12z" />
    <glyph glyph-name="Adieresis" unicode="&#xc4;" horiz-adv-x="1383" 
d="M829 1564h-228l30 190h228zM8 0l784 1365h233l351 -1365h-212l-86 374h-652l-207 -374h-211zM503 514h540l-154 688h-12zM1043 1564l30 190h228l-30 -190h-228z" />
    <glyph glyph-name="Aring" unicode="&#xc5;" horiz-adv-x="1383" 
d="M669 1667q16 102 110 174.5t218 72.5q122 0 194.5 -73t56.5 -174q-17 -103 -112 -175t-217 -72q-121 0 -193.5 71.5t-56.5 175.5zM8 0l784 1365h233l351 -1365h-212l-86 374h-652l-207 -374h-211zM503 514h540l-154 688h-12zM801 1667q-9 -57 30 -96t106 -39
q66 0 114.5 38t57.5 97q9 58 -26.5 97t-102.5 39q-68 0 -119 -40t-60 -96z" />
    <glyph glyph-name="AE" unicode="&#xc6;" horiz-adv-x="2007" 
d="M1171 1200l-547 -685h457l108 685h-18zM8 0l1087 1365h1022l-23 -148h-705l-69 -437h630l-24 -147h-643l-77 -486h738l-23 -147h-922l59 374h-546l-290 -374h-214z" />
    <glyph glyph-name="Ccedilla" unicode="&#xc7;" horiz-adv-x="1354" 
d="M180 682q35 218 143.5 380.5t272.5 248.5t363 86q176 0 296 -86t167 -223l-177 -50q-99 210 -315 210q-210 0 -359 -154t-190 -412q-41 -260 60.5 -412t309.5 -152q128 0 241 65t178 167l168 -50q-79 -121 -222 -219q-128 -88 -300 -108l-25 -53q93 -10 139 -49.5
t36 -102.5q-13 -79 -99.5 -129.5t-231.5 -50.5q-103 0 -192 24l17 108q107 -26 185 -26q61 0 113 23t58 59q6 43 -58 63q-65 19 -163 16l51 118q-259 28 -386.5 216t-79.5 493z" />
    <glyph glyph-name="Egrave" unicode="&#xc8;" horiz-adv-x="1204" 
d="M1118 0h-998l216 1365h980l-23 -148h-784l-70 -438h707l-23 -146h-707l-76 -484h802zM573 1820h239l180 -323h-167z" />
    <glyph glyph-name="Eacute" unicode="&#xc9;" horiz-adv-x="1204" 
d="M1118 0h-998l216 1365h980l-23 -148h-784l-70 -438h707l-23 -146h-707l-76 -484h802zM685 1497l278 323h240l-355 -323h-163z" />
    <glyph glyph-name="Ecircumflex" unicode="&#xca;" horiz-adv-x="1204" 
d="M618 1497h-201l388 311h164l293 -311h-200l-189 218zM120 0l216 1365h980l-23 -148h-784l-70 -438h707l-23 -146h-707l-76 -484h802l-24 -149h-998z" />
    <glyph glyph-name="Edieresis" unicode="&#xcb;" horiz-adv-x="1204" 
d="M1118 0h-998l216 1365h980l-23 -148h-784l-70 -438h707l-23 -146h-707l-76 -484h802zM515 1564l30 190h229l-30 -190h-229zM958 1564l30 190h226l-30 -190h-226z" />
    <glyph glyph-name="Igrave" unicode="&#xcc;" horiz-adv-x="541" 
d="M394 0h-196l216 1365h196zM240 1820h239l179 -323h-166z" />
    <glyph glyph-name="Iacute" unicode="&#xcd;" horiz-adv-x="550" 
d="M370 0h-196l216 1365h196zM357 1497l279 323h239l-355 -323h-163z" />
    <glyph glyph-name="Icircumflex" unicode="&#xce;" horiz-adv-x="619" 
d="M408 0h-196l216 1365h196zM122 1497l389 311h164l293 -311h-200l-189 218l-256 -218h-201z" />
    <glyph glyph-name="Idieresis" unicode="&#xcf;" horiz-adv-x="451" 
d="M323 0h-196l216 1365h196zM138 1564l30 190h230l-30 -190h-230zM581 1564l30 190h226l-30 -190h-226z" />
    <glyph glyph-name="Eth" unicode="&#xd0;" horiz-adv-x="1396" 
d="M601 0h-426l99 627h-175l22 139h175l95 599h429q342 0 503 -176.5t109 -506.5q-51 -318 -265 -500t-566 -182zM394 147h204q265 0 427.5 131.5t205.5 403.5q85 535 -459 535h-208l-72 -451h401l-22 -139h-401z" />
    <glyph glyph-name="Ntilde" unicode="&#xd1;" horiz-adv-x="1351" 
d="M487 1615q132 167 307 167q74 0 165 -57q91 -58 133 -58q102 0 189 113l99 -74q-135 -166 -305 -166q-75 0 -163 59q-88 58 -134 58q-52 0 -103.5 -32.5t-87.5 -83.5zM120 0l216 1365h217l526 -1090l172 1090h196l-216 -1365h-215l-528 1089l-172 -1089h-196z" />
    <glyph glyph-name="Ograve" unicode="&#xd2;" horiz-adv-x="1437" 
d="M180 682q51 323 258 519t501 196q295 0 440 -196t94 -521q-52 -325 -259 -518.5t-501 -193.5q-295 0 -440 194t-93 520zM381 682q-41 -260 54.5 -412t301.5 -152q205 0 349 150t186 412q41 261 -53.5 414.5t-302.5 153.5q-206 0 -350 -153t-185 -413zM663 1830h238
l179 -322h-164z" />
    <glyph glyph-name="Oacute" unicode="&#xd3;" horiz-adv-x="1437" 
d="M180 682q51 323 258 519t501 196q295 0 440 -196t94 -521q-52 -325 -259 -518.5t-501 -193.5q-295 0 -440 194t-93 520zM381 682q-41 -260 54.5 -412t301.5 -152q205 0 349 150t186 412q41 261 -53.5 414.5t-302.5 153.5q-206 0 -350 -153t-185 -413zM814 1508l280 322
h237l-353 -322h-164z" />
    <glyph glyph-name="Ocircumflex" unicode="&#xd4;" horiz-adv-x="1437" 
d="M180 682q51 323 258 519t501 196q295 0 440 -196t94 -521q-52 -325 -259 -518.5t-501 -193.5q-295 0 -440 194t-93 520zM381 682q-41 -260 54.5 -412t301.5 -152q205 0 349 150t186 412q41 261 -53.5 414.5t-302.5 153.5q-206 0 -350 -153t-185 -413zM536 1508l385 310
h166l293 -310h-200l-190 218l-254 -218h-200z" />
    <glyph glyph-name="Otilde" unicode="&#xd5;" horiz-adv-x="1437" 
d="M529 1615q129 167 305 167q76 0 167 -57q91 -58 130 -58q102 0 191 113l99 -74q-135 -166 -304 -166q-77 0 -165 59q-86 58 -133 58q-51 0 -103 -32.5t-89 -83.5zM180 682q51 323 258 519t501 196q295 0 440 -196t94 -521q-52 -325 -259 -518.5t-501 -193.5
q-295 0 -440 194t-93 520zM381 682q-41 -260 54.5 -412t301.5 -152q205 0 349 150t186 412q41 261 -53.5 414.5t-302.5 153.5q-206 0 -350 -153t-185 -413z" />
    <glyph glyph-name="Odieresis" unicode="&#xd6;" horiz-adv-x="1437" 
d="M180 682q51 323 258 519t501 196q295 0 440 -196t94 -521q-52 -325 -259 -518.5t-501 -193.5q-295 0 -440 194t-93 520zM381 682q-41 -260 54.5 -412t301.5 -152q205 0 349 150t186 412q41 261 -53.5 414.5t-302.5 153.5q-206 0 -350 -153t-185 -413zM629 1564l30 190
h228l-30 -190h-228zM1072 1564l30 190h226l-30 -190h-226z" />
    <glyph glyph-name="multiply" unicode="&#xd7;" horiz-adv-x="1514" 
d="M314 190l-116 100l523 327l-407 328l141 104l410 -338l516 338l115 -104l-512 -328l422 -331l-149 -96l-422 334z" />
    <glyph glyph-name="Oslash" unicode="&#xd8;" horiz-adv-x="1439" 
d="M180 682q51 323 258 519t501 196q174 0 300 -72l109 145h175l-173 -231q182 -193 125 -559q-52 -325 -260 -518.5t-502 -193.5q-156 0 -271 58l-111 -147h-173l167 225q-205 196 -145 578zM381 682q-43 -271 63 -422l692 927q-91 61 -220 61q-206 0 -350 -153t-185 -413z
M547 164q74 -46 190 -46q205 0 349 150t186 412q41 255 -45 398z" />
    <glyph glyph-name="Ugrave" unicode="&#xd9;" horiz-adv-x="1349" 
d="M199 499l137 866h198l-136 -862q-31 -189 49.5 -287t244.5 -98q167 0 278 99.5t141 285.5l136 862h198l-137 -866q-40 -253 -206 -392t-434 -139q-263 0 -386 137.5t-83 393.5zM635 1830h238l180 -322h-166z" />
    <glyph glyph-name="Uacute" unicode="&#xda;" horiz-adv-x="1349" 
d="M199 499l137 866h198l-136 -862q-31 -189 49.5 -287t244.5 -98q167 0 278 99.5t141 285.5l136 862h198l-137 -866q-40 -253 -206 -392t-434 -139q-263 0 -386 137.5t-83 393.5zM764 1508l279 322h238l-355 -322h-162z" />
    <glyph glyph-name="Ucircumflex" unicode="&#xdb;" horiz-adv-x="1349" 
d="M199 499l137 866h198l-136 -862q-31 -189 49.5 -287t244.5 -98q167 0 278 99.5t141 285.5l136 862h198l-137 -866q-40 -253 -206 -392t-434 -139q-263 0 -386 137.5t-83 393.5zM497 1508l385 310h167l292 -310h-199l-191 218l-255 -218h-199z" />
    <glyph glyph-name="Udieresis" unicode="&#xdc;" horiz-adv-x="1349" 
d="M199 499l137 866h198l-136 -862q-31 -189 49.5 -287t244.5 -98q167 0 278 99.5t141 285.5l136 862h198l-137 -866q-40 -253 -206 -392t-434 -139q-263 0 -386 137.5t-83 393.5zM593 1564l30 190h228l-30 -190h-228zM1034 1564l30 190h227l-30 -190h-227z" />
    <glyph glyph-name="Yacute" unicode="&#xdd;" horiz-adv-x="1289" 
d="M729 1508l280 322h238l-355 -322h-163zM221 1365h230l301 -658h8l509 658h231l-667 -808l-88 -557h-197l88 557z" />
    <glyph glyph-name="Thorn" unicode="&#xde;" horiz-adv-x="1197" 
d="M307 0h-196l216 1365h196l-36 -226h218q275 0 395.5 -117.5t89.5 -316.5q-35 -215 -203 -328t-432 -113h-206zM372 411h188q377 0 424 296q22 142 -57 213.5t-260 71.5h-203z" />
    <glyph glyph-name="germandbls" unicode="&#xdf;" horiz-adv-x="1247" 
d="M316 0h-196l161 1016q19 119 94.5 206.5t186.5 131t245 43.5q215 0 330.5 -100.5t89.5 -268.5q-16 -103 -78.5 -179.5t-151.5 -118.5l-1 -4q132 -36 201.5 -130t46.5 -237q-28 -177 -172.5 -284t-356.5 -107q-154 0 -277 38l33 154q117 -44 261 -44q115 0 204 68.5
t106 174.5q21 132 -56 204t-226 72h-135l23 147h118q96 0 168 66t88 171q17 103 -46 166t-187 63q-129 0 -212.5 -65t-101.5 -179z" />
    <glyph glyph-name="agrave" unicode="&#xe0;" 
d="M281 261q-10 -66 45 -110t157 -44q138 0 245.5 79.5t127.5 202.5l19 120q-85 -17 -271 -42q-296 -43 -323 -206zM89 248q44 276 530 341q214 29 276 46l8 56q14 86 -46.5 139.5t-181.5 53.5q-95 0 -191.5 -40t-168.5 -107l-105 90q99 88 226.5 139t254.5 51
q451 0 389 -392l-99 -625h-182l24 149q-46 -77 -153 -129t-235 -52q-181 0 -273.5 76.5t-72.5 203.5zM460 1474h239l178 -323h-166z" />
    <glyph glyph-name="aacute" unicode="&#xe1;" 
d="M281 261q-10 -66 45 -110t157 -44q138 0 245.5 79.5t127.5 202.5l19 120q-85 -17 -271 -42q-296 -43 -323 -206zM89 248q44 276 530 341q214 29 276 46l8 56q14 86 -46.5 139.5t-181.5 53.5q-95 0 -191.5 -40t-168.5 -107l-105 90q99 88 226.5 139t254.5 51
q451 0 389 -392l-99 -625h-182l24 149q-46 -77 -153 -129t-235 -52q-181 0 -273.5 76.5t-72.5 203.5zM540 1159l279 322h239l-354 -322h-164z" />
    <glyph glyph-name="acircumflex" unicode="&#xe2;" 
d="M281 261q-10 -66 45 -110t157 -44q138 0 245.5 79.5t127.5 202.5l19 120q-85 -17 -271 -42q-296 -43 -323 -206zM89 248q44 276 530 341q214 29 276 46l8 56q14 86 -46.5 139.5t-181.5 53.5q-95 0 -191.5 -40t-168.5 -107l-105 90q99 88 226.5 139t254.5 51
q451 0 389 -392l-99 -625h-182l24 149q-46 -77 -153 -129t-235 -52q-181 0 -273.5 76.5t-72.5 203.5zM291 1159l387 309h165l292 -309h-200l-189 218l-255 -218h-200z" />
    <glyph glyph-name="atilde" unicode="&#xe3;" 
d="M281 261q-10 -66 45 -110t157 -44q138 0 245.5 79.5t127.5 202.5l19 120q-85 -17 -271 -42q-296 -43 -323 -206zM89 248q44 276 530 341q214 29 276 46l8 56q14 86 -46.5 139.5t-181.5 53.5q-95 0 -191.5 -40t-168.5 -107l-105 90q99 88 226.5 139t254.5 51
q451 0 389 -392l-99 -625h-182l24 149q-46 -77 -153 -129t-235 -52q-181 0 -273.5 76.5t-72.5 203.5zM297 1258q132 166 307 166q76 0 167 -57q88 -58 128 -58q101 0 190 113l102 -73q-138 -166 -307 -166q-78 0 -163 58q-86 58 -133 58q-51 0 -102.5 -32.5t-88.5 -82.5z
" />
    <glyph glyph-name="adieresis" unicode="&#xe4;" 
d="M281 261q-10 -66 45 -110t157 -44q138 0 245.5 79.5t127.5 202.5l19 120q-85 -17 -271 -42q-296 -43 -323 -206zM89 248q44 276 530 341q214 29 276 46l8 56q14 86 -46.5 139.5t-181.5 53.5q-95 0 -191.5 -40t-168.5 -107l-105 90q99 88 226.5 139t254.5 51
q451 0 389 -392l-99 -625h-182l24 149q-46 -77 -153 -129t-235 -52q-181 0 -273.5 76.5t-72.5 203.5zM384 1220l31 192h228l-31 -192h-228zM825 1220l31 192h228l-31 -192h-228z" />
    <glyph glyph-name="aring" unicode="&#xe5;" 
d="M281 261q-10 -66 45 -110t157 -44q138 0 245.5 79.5t127.5 202.5l19 120q-85 -17 -271 -42q-296 -43 -323 -206zM89 248q44 276 530 341q214 29 276 46l8 56q14 86 -46.5 139.5t-181.5 53.5q-95 0 -191.5 -40t-168.5 -107l-105 90q99 88 226.5 139t254.5 51
q451 0 389 -392l-99 -625h-182l24 149q-46 -77 -153 -129t-235 -52q-181 0 -273.5 76.5t-72.5 203.5zM455 1359q17 102 111.5 174.5t216.5 72.5q125 0 197 -72t55 -175q-16 -102 -111.5 -174t-218.5 -72q-120 0 -193 71t-57 175zM589 1359q-9 -57 29.5 -95t104.5 -38
q67 0 116.5 37t58.5 96t-27.5 98t-104.5 39q-67 0 -117.5 -40t-59.5 -97z" />
    <glyph glyph-name="ae" unicode="&#xe6;" horiz-adv-x="1826" 
d="M90 251q44 274 533 338q216 30 272 46l9 57q13 82 -47.5 137t-173.5 55q-204 0 -369 -147l-106 90q211 190 496 190q273 0 345 -187q153 187 407 187q213 0 326 -140t78 -362l-13 -78h-795l-5 -32q-7 -127 62.5 -213t204.5 -86q101 0 186 44t137 114l154 -46
q-77 -115 -206 -182.5t-295 -67.5q-139 0 -237.5 62.5t-142.5 172.5q-193 -235 -475 -235q-179 0 -272 77t-73 206zM281 261q-10 -65 44.5 -109.5t152.5 -44.5q140 0 249 79.5t129 202.5l19 120q-84 -18 -258 -40q-309 -40 -336 -208zM1072 560h604q21 136 -47 228.5
t-194 92.5q-124 0 -217.5 -79.5t-136.5 -205.5z" />
    <glyph glyph-name="ccedilla" unicode="&#xe7;" horiz-adv-x="1038" 
d="M130 492q38 237 198 381t388 144q148 0 245.5 -77t118.5 -191l-170 -41q-16 73 -73.5 120.5t-139.5 47.5q-143 0 -244.5 -107t-128.5 -277q-27 -175 42.5 -278.5t208.5 -103.5q89 0 171.5 52t128.5 128l153 -42q-53 -106 -168.5 -184t-252.5 -93l-25 -53q95 -9 141 -48.5
t36 -104.5q-13 -78 -100.5 -129t-231.5 -51q-105 0 -192 25l17 107q103 -25 185 -25q60 0 111.5 23t57.5 60q7 41 -58 61q-61 19 -162 17l55 125q-174 34 -259 171t-52 343z" />
    <glyph glyph-name="egrave" unicode="&#xe8;" horiz-adv-x="1104" 
d="M131 499q37 231 202.5 374.5t390.5 143.5q223 0 336 -139.5t78 -362.5q-4 -23 -17 -78h-808q-22 -141 52.5 -236t224.5 -95q206 0 326 157l153 -45q-75 -113 -205.5 -181.5t-297.5 -68.5q-232 0 -352 146t-83 385zM336 560h616q22 139 -45 230t-204 91t-239 -93.5
t-128 -227.5zM481 1481h238l180 -322h-166z" />
    <glyph glyph-name="eacute" unicode="&#xe9;" horiz-adv-x="1104" 
d="M131 499q37 231 202.5 374.5t390.5 143.5q223 0 336 -139.5t78 -362.5q-4 -23 -17 -78h-808q-22 -141 52.5 -236t224.5 -95q206 0 326 157l153 -45q-75 -113 -205.5 -181.5t-297.5 -68.5q-232 0 -352 146t-83 385zM336 560h616q22 139 -45 230t-204 91t-239 -93.5
t-128 -227.5zM551 1159l279 322h237l-354 -322h-162z" />
    <glyph glyph-name="ecircumflex" unicode="&#xea;" horiz-adv-x="1104" 
d="M131 499q37 231 202.5 374.5t390.5 143.5q223 0 336 -139.5t78 -362.5q-4 -23 -17 -78h-808q-22 -141 52.5 -236t224.5 -95q206 0 326 157l153 -45q-75 -113 -205.5 -181.5t-297.5 -68.5q-232 0 -352 146t-83 385zM325 1159l387 309h164l293 -309h-200l-190 218
l-255 -218h-199zM336 560h616q22 139 -45 230t-204 91t-239 -93.5t-128 -227.5z" />
    <glyph glyph-name="edieresis" unicode="&#xeb;" horiz-adv-x="1104" 
d="M646 1220h-230l31 192h230zM131 499q37 231 202.5 374.5t390.5 143.5q223 0 336 -139.5t78 -362.5q-4 -23 -17 -78h-808q-22 -141 52.5 -236t224.5 -95q206 0 326 157l153 -45q-75 -113 -205.5 -181.5t-297.5 -68.5q-232 0 -352 146t-83 385zM336 560h616q22 139 -45 230
t-204 91t-239 -93.5t-128 -227.5zM859 1220l31 192h225l-31 -192h-225z" />
    <glyph glyph-name="igrave" unicode="&#xec;" horiz-adv-x="501" 
d="M354 0h-188l156 986h188zM163 1481h238l180 -322h-165z" />
    <glyph glyph-name="iacute" unicode="&#xed;" horiz-adv-x="512" 
d="M346 0h-188l156 986h188zM288 1159l279 322h238l-354 -322h-163z" />
    <glyph glyph-name="icircumflex" unicode="&#xee;" horiz-adv-x="575" 
d="M249 1159h-200l386 309h165l292 -309h-199l-191 218zM189 0l156 986h188l-156 -986h-188z" />
    <glyph glyph-name="idieresis" unicode="&#xef;" horiz-adv-x="410" 
d="M292 1220h-229l31 192h229zM108 0l156 986h188l-156 -986h-188zM506 1220l31 192h226l-31 -192h-226z" />
    <glyph glyph-name="eth" unicode="&#xf0;" horiz-adv-x="1113" 
d="M550 977l-92 107l236 138q-97 50 -222 68l87 134q179 -26 304 -103l239 140l92 -109l-211 -123q62 -64 101 -140q114 -220 55 -592q-38 -240 -197 -384.5t-398 -144.5q-225 0 -340 132t-83 337q34 218 191.5 349t377.5 131q100 0 174.5 -39t103.5 -96q-19 222 -151 351z
M316 444q-24 -150 44 -242t210 -92q136 0 232.5 91.5t120.5 243.5q24 147 -44.5 237t-201.5 90q-138 0 -237.5 -88t-123.5 -240z" />
    <glyph glyph-name="ntilde" unicode="&#xf1;" horiz-adv-x="1104" 
d="M303 1258q133 166 309 166q74 0 165 -57q89 -58 130 -58q101 0 190 113l100 -73q-135 -166 -306 -166q-79 0 -162 58q-86 58 -134 58q-50 0 -101.5 -32.5t-90.5 -82.5zM115 0l156 986h184l-24 -153h3q42 72 143 128t225 56q168 0 249 -91.5t50 -288.5l-101 -637h-193
l97 611q42 265 -167 265q-120 0 -220 -86.5t-119 -208.5l-92 -581h-191z" />
    <glyph glyph-name="ograve" unicode="&#xf2;" horiz-adv-x="1114" 
d="M324 492q-28 -176 44 -279t208 -103q134 0 239.5 103.5t133.5 278.5q28 178 -44.5 281t-206.5 103q-135 0 -240.5 -102t-133.5 -282zM130 492q36 230 194 377.5t396 147.5q156 0 261 -69.5t145.5 -188t16.5 -267.5q-31 -189 -166 -347q-70 -81 -181.5 -129t-241.5 -48
t-226 46.5t-142 127.5q-87 151 -56 350zM481 1481h238l180 -322h-166z" />
    <glyph glyph-name="oacute" unicode="&#xf3;" horiz-adv-x="1114" 
d="M324 492q-28 -176 44 -279t208 -103q134 0 239.5 103.5t133.5 278.5q28 178 -44.5 281t-206.5 103q-135 0 -240.5 -102t-133.5 -282zM130 492q36 230 194 377.5t396 147.5q156 0 261 -69.5t145.5 -188t16.5 -267.5q-31 -189 -166 -347q-70 -81 -181.5 -129t-241.5 -48
t-226 46.5t-142 127.5q-87 151 -56 350zM581 1159l280 322h237l-353 -322h-164z" />
    <glyph glyph-name="ocircumflex" unicode="&#xf4;" horiz-adv-x="1114" 
d="M521 1159h-201l388 309h165l291 -309h-199l-189 218zM130 492q36 230 194 377.5t396 147.5q156 0 261 -69.5t145.5 -188t16.5 -267.5q-31 -189 -166 -347q-70 -81 -181.5 -129t-241.5 -48t-226 46.5t-142 127.5q-87 151 -56 350zM324 492q-28 -176 44 -279t208 -103
q134 0 239.5 103.5t133.5 278.5q28 178 -44.5 281t-206.5 103q-135 0 -240.5 -102t-133.5 -282z" />
    <glyph glyph-name="otilde" unicode="&#xf5;" horiz-adv-x="1114" 
d="M304 1258q132 166 308 166q74 0 165 -57q89 -58 130 -58q101 0 190 113l99 -73q-135 -166 -305 -166q-77 0 -162 58q-86 58 -134 58q-50 0 -102 -32.5t-89 -82.5zM130 492q36 230 194 377.5t396 147.5q156 0 261 -69.5t145.5 -188t16.5 -267.5q-31 -189 -166 -347
q-70 -81 -181.5 -129t-241.5 -48t-226 46.5t-142 127.5q-87 151 -56 350zM324 492q-28 -176 44 -279t208 -103q134 0 239.5 103.5t133.5 278.5q28 178 -44.5 281t-206.5 103q-135 0 -240.5 -102t-133.5 -282z" />
    <glyph glyph-name="odieresis" unicode="&#xf6;" horiz-adv-x="1114" 
d="M646 1220h-230l31 192h230zM130 492q36 230 194 377.5t396 147.5q156 0 261 -69.5t145.5 -188t16.5 -267.5q-31 -189 -166 -347q-70 -81 -181.5 -129t-241.5 -48t-226 46.5t-142 127.5q-87 151 -56 350zM324 492q-28 -176 44 -279t208 -103q134 0 239.5 103.5
t133.5 278.5q28 178 -44.5 281t-206.5 103q-135 0 -240.5 -102t-133.5 -282zM859 1220l31 192h225l-31 -192h-225z" />
    <glyph glyph-name="divide" unicode="&#xf7;" horiz-adv-x="1532" 
d="M246 551l23 144h1213l-23 -144h-1213zM655 200l35 225h286l-35 -225h-286zM753 821l36 228h286l-36 -228h-286z" />
    <glyph glyph-name="oslash" unicode="&#xf8;" horiz-adv-x="1111" 
d="M130 492q36 230 194 377.5t396 147.5q127 0 218 -44l95 128h152l-149 -199q146 -142 104 -410q-31 -193 -165 -347q-71 -81 -181.5 -129t-239.5 -48q-114 0 -207 38l-84 -115h-153l134 180q-75 71 -104.5 184.5t-9.5 236.5zM324 492q-26 -164 40 -267l472 612
q-62 39 -138 39q-135 0 -240.5 -102t-133.5 -282zM449 140q61 -30 127 -30q134 0 239.5 103.5t133.5 278.5q24 150 -34 252z" />
    <glyph glyph-name="ugrave" unicode="&#xf9;" horiz-adv-x="1084" 
d="M159 350l101 636h191l-96 -606q-42 -270 176 -270q130 0 219 91.5t110 226.5l88 558h188l-156 -986h-181l23 143h-1q-38 -69 -131 -122t-222 -53q-166 0 -252.5 97t-56.5 285zM462 1481h239l180 -322h-166z" />
    <glyph glyph-name="uacute" unicode="&#xfa;" horiz-adv-x="1084" 
d="M159 350l101 636h191l-96 -606q-42 -270 176 -270q130 0 219 91.5t110 226.5l88 558h188l-156 -986h-181l23 143h-1q-38 -69 -131 -122t-222 -53q-166 0 -252.5 97t-56.5 285zM578 1159l279 322h237l-353 -322h-163z" />
    <glyph glyph-name="ucircumflex" unicode="&#xfb;" horiz-adv-x="1091" 
d="M159 350l101 636h191l-96 -606q-42 -270 176 -270q130 0 219 91.5t110 226.5l88 558h188l-156 -986h-181l23 143h-1q-38 -69 -131 -122t-222 -53q-166 0 -252.5 97t-56.5 285zM327 1159l386 309h166l292 -309h-200l-190 218l-255 -218h-199z" />
    <glyph glyph-name="udieresis" unicode="&#xfc;" horiz-adv-x="1084" 
d="M647 1220h-228l31 192h228zM159 350l101 636h191l-96 -606q-42 -270 176 -270q130 0 219 91.5t110 226.5l88 558h188l-156 -986h-181l23 143h-1q-38 -69 -131 -122t-222 -53q-166 0 -252.5 97t-56.5 285zM862 1220l31 192h224l-31 -192h-224z" />
    <glyph glyph-name="yacute" unicode="&#xfd;" horiz-adv-x="1056" 
d="M529 1159l279 322h239l-353 -322h-165zM71 -419l22 139h36q86 0 145 38.5t113 132.5l57 109l-273 986h215l177 -795h8l413 795h212l-652 -1138q-82 -145 -178.5 -206t-228.5 -61h-66z" />
    <glyph glyph-name="thorn" unicode="&#xfe;" horiz-adv-x="1133" 
d="M365 493q-27 -169 40.5 -276t191.5 -107q142 0 241 102t127 281q29 178 -36 280.5t-207 102.5q-125 0 -228 -107t-129 -276zM37 -421l291 1836h188l-93 -587q43 82 143.5 135.5t200.5 53.5q214 0 322 -141.5t69 -382.5q-21 -131 -78.5 -236t-138.5 -167
q-160 -122 -340 -122q-109 0 -185 53.5t-100 130.5l-91 -573h-188z" />
    <glyph glyph-name="ydieresis" unicode="&#xff;" horiz-adv-x="1056" 
d="M601 1220h-228l31 192h228zM71 -419l22 139h36q86 0 145 38.5t113 132.5l57 109l-273 986h215l177 -795h8l413 795h212l-652 -1138q-82 -145 -178.5 -206t-228.5 -61h-66zM815 1220l31 192h226l-31 -192h-226z" />
    <glyph glyph-name="Amacron" unicode="&#x100;" horiz-adv-x="1383" 
d="M1302 1583h-721l18 116h721zM8 0l784 1365h233l351 -1365h-212l-86 374h-652l-207 -374h-211zM503 514h540l-154 688h-12z" />
    <glyph glyph-name="amacron" unicode="&#x101;" 
d="M1081 1226h-720l19 118h720zM89 248q44 276 530 341q214 29 276 46l8 56q14 86 -46.5 139.5t-181.5 53.5q-95 0 -191.5 -40t-168.5 -107l-105 90q99 88 226.5 139t254.5 51q451 0 389 -392l-99 -625h-182l24 149q-46 -77 -153 -129t-235 -52q-181 0 -273.5 76.5
t-72.5 203.5zM281 261q-10 -66 45 -110t157 -44q138 0 245.5 79.5t127.5 202.5l19 120q-85 -17 -271 -42q-296 -43 -323 -206z" />
    <glyph glyph-name="Abreve" unicode="&#x102;" horiz-adv-x="1383" 
d="M782 1782q-8 -69 40 -115t129 -46q82 0 144 46.5t78 114.5h145q-26 -116 -127.5 -194t-257.5 -78q-157 0 -232.5 77.5t-65.5 194.5h147zM8 0l784 1365h233l351 -1365h-212l-86 374h-652l-207 -374h-211zM503 514h540l-154 688h-12z" />
    <glyph glyph-name="abreve" unicode="&#x103;" 
d="M281 261q-10 -66 45 -110t157 -44q138 0 245.5 79.5t127.5 202.5l19 120q-85 -17 -271 -42q-296 -43 -323 -206zM89 248q44 276 530 341q214 29 276 46l8 56q14 86 -46.5 139.5t-181.5 53.5q-95 0 -191.5 -40t-168.5 -107l-105 90q99 88 226.5 139t254.5 51
q451 0 389 -392l-99 -625h-182l24 149q-46 -77 -153 -129t-235 -52q-181 0 -273.5 76.5t-72.5 203.5zM412 1431h144q-5 -68 42 -114t127 -46q82 0 145 46t79 114h144q-25 -115 -126.5 -193.5t-258.5 -78.5t-232 78t-64 194z" />
    <glyph glyph-name="Aogonek" unicode="&#x104;" horiz-adv-x="1363" 
d="M909 -232q11 64 83.5 127t170.5 108l-85 371h-652l-207 -374h-211l784 1365h233l351 -1365h-35q-241 -119 -255 -202q-5 -35 14.5 -52.5t65.5 -17.5q50 0 136 23l-18 -110q-75 -24 -172 -24q-110 0 -162 40t-41 111zM503 514h540l-154 688h-12z" />
    <glyph glyph-name="aogonek" unicode="&#x105;" horiz-adv-x="1069" 
d="M281 261q-10 -66 45 -110t157 -44q138 0 245.5 79.5t127.5 202.5l19 120q-85 -17 -271 -42q-296 -43 -323 -206zM89 248q44 276 530 341q214 29 276 46l8 56q14 86 -46.5 139.5t-181.5 53.5q-95 0 -191.5 -40t-168.5 -107l-105 90q99 88 226.5 139t254.5 51
q451 0 389 -392l-98 -621h5l-6 -3v-1h-3q-244 -120 -257 -202q-5 -35 15.5 -52.5t67.5 -17.5q50 0 137 23l-18 -110q-78 -24 -176 -24q-107 0 -159 40t-41 111q11 64 83 127.5t169 106.5l24 147q-46 -77 -153 -129t-235 -52q-181 0 -273.5 76.5t-72.5 203.5z" />
    <glyph glyph-name="Cacute" unicode="&#x106;" horiz-adv-x="1354" 
d="M180 682q35 218 143.5 380.5t272.5 248.5t363 86q176 0 296 -86t167 -223l-177 -50q-99 210 -315 210q-210 0 -359 -154t-190 -412q-41 -260 60.5 -412t309.5 -152q128 0 241 65t178 167l168 -50q-79 -121 -222 -219q-164 -113 -383 -113q-147 0 -262 49t-188.5 140
t-101 225.5t-1.5 299.5zM836 1508l280 322h238l-354 -322h-164z" />
    <glyph glyph-name="cacute" unicode="&#x107;" horiz-adv-x="1038" 
d="M773 1159h-166l280 322h238zM130 492q38 237 198 381t388 144q148 0 245.5 -77t118.5 -191l-170 -41q-16 73 -73.5 120.5t-139.5 47.5q-143 0 -244.5 -107t-128.5 -277q-27 -175 42.5 -278.5t208.5 -103.5q89 0 171.5 52t128.5 128l153 -42q-59 -118 -192.5 -199
t-285.5 -81q-226 0 -342 143t-78 381z" />
    <glyph glyph-name="Cdotaccent" unicode="&#x10a;" horiz-adv-x="1354" 
d="M180 682q35 218 143.5 380.5t272.5 248.5t363 86q176 0 296 -86t167 -223l-177 -50q-99 210 -315 210q-210 0 -359 -154t-190 -412q-41 -260 60.5 -412t309.5 -152q128 0 241 65t178 167l168 -50q-79 -121 -222 -219q-164 -113 -383 -113q-147 0 -262 49t-188.5 140
t-101 225.5t-1.5 299.5zM869 1564l30 193h231l-30 -193h-231z" />
    <glyph glyph-name="cdotaccent" unicode="&#x10b;" horiz-adv-x="1038" 
d="M859 1220h-230l31 195h230zM130 492q38 237 198 381t388 144q148 0 245.5 -77t118.5 -191l-170 -41q-16 73 -73.5 120.5t-139.5 47.5q-143 0 -244.5 -107t-128.5 -277q-27 -175 42.5 -278.5t208.5 -103.5q89 0 171.5 52t128.5 128l153 -42q-59 -118 -192.5 -199
t-285.5 -81q-226 0 -342 143t-78 381z" />
    <glyph glyph-name="Ccaron" unicode="&#x10c;" horiz-adv-x="1354" 
d="M180 682q35 218 143.5 380.5t272.5 248.5t363 86q176 0 296 -86t167 -223l-177 -50q-99 210 -315 210q-210 0 -359 -154t-190 -412q-41 -260 60.5 -412t309.5 -152q128 0 241 65t178 167l168 -50q-79 -121 -222 -219q-164 -113 -383 -113q-147 0 -262 49t-188.5 140
t-101 225.5t-1.5 299.5zM613 1808h189l183 -206l253 206h189l-375 -300h-164z" />
    <glyph glyph-name="ccaron" unicode="&#x10d;" horiz-adv-x="1038" 
d="M130 492q38 237 198 381t388 144q148 0 245.5 -77t118.5 -191l-170 -41q-16 73 -73.5 120.5t-139.5 47.5q-143 0 -244.5 -107t-128.5 -277q-27 -175 42.5 -278.5t208.5 -103.5q89 0 171.5 52t128.5 128l153 -42q-59 -118 -192.5 -199t-285.5 -81q-226 0 -342 143t-78 381
zM377 1460h191l181 -206l253 206h190l-374 -301h-167z" />
    <glyph glyph-name="Dcaron" unicode="&#x10e;" horiz-adv-x="1341" 
d="M546 0h-426l216 1365h429q342 0 503 -176.5t109 -506.5q-51 -318 -265 -500t-566 -182zM339 147h204q265 0 427.5 131.5t205.5 403.5q85 535 -459 535h-208zM456 1808h190l183 -206l252 206h190l-374 -300h-166z" />
    <glyph glyph-name="dcaron" unicode="&#x10f;" horiz-adv-x="1545" 
d="M130 493q38 240 192 382t362 142q107 0 185 -52.5t104 -128.5l92 577h189l-224 -1413h-181l25 161q-57 -84 -153 -138.5t-203 -54.5q-177 0 -297 119q-63 61 -87.5 167t-3.5 239zM324 493q-28 -176 38 -279.5t202 -103.5q129 0 231 105t129 278q27 172 -40.5 277.5
t-197.5 105.5q-137 0 -236 -105t-126 -278zM1239 1038l163 359h204l-229 -359h-138z" />
    <glyph glyph-name="Dcroat" unicode="&#x110;" horiz-adv-x="1297" 
d="M502 0h-426l99 627h-215l22 139h215l95 599h429q342 0 503 -176.5t109 -506.5q-51 -318 -265 -500t-566 -182zM295 147h204q265 0 427.5 131.5t205.5 403.5q85 535 -459 535h-208l-72 -451h362l-22 -139h-362z" />
    <glyph glyph-name="dcroat" unicode="&#x111;" horiz-adv-x="1046" 
d="M130 490q38 241 191 380.5t359 139.5q109 0 187 -52t103 -128l49 306h-444l20 126h444l24 153h191l-24 -153h137l-20 -126h-137l-180 -1136h-184l25 161q-60 -89 -152.5 -141t-203.5 -52q-97 0 -176 34t-133 98t-75 164.5t-1 225.5zM324 490q-28 -175 38 -277.5
t202 -102.5q131 0 230.5 105t127.5 275q26 166 -40.5 272.5t-198.5 106.5q-135 0 -233.5 -104t-125.5 -275z" />
    <glyph glyph-name="Emacron" unicode="&#x112;" horiz-adv-x="1204" 
d="M1118 0h-998l216 1365h980l-23 -148h-784l-70 -438h707l-23 -146h-707l-76 -484h802zM499 1586l18 115h720l-18 -115h-720z" />
    <glyph glyph-name="emacron" unicode="&#x113;" horiz-adv-x="1104" 
d="M131 499q37 231 202.5 374.5t390.5 143.5q223 0 336 -139.5t78 -362.5q-4 -23 -17 -78h-808q-22 -141 52.5 -236t224.5 -95q206 0 326 157l153 -45q-75 -113 -205.5 -181.5t-297.5 -68.5q-232 0 -352 146t-83 385zM336 560h616q22 139 -45 230t-204 91t-239 -93.5
t-128 -227.5zM388 1229l18 116h722l-18 -116h-722z" />
    <glyph glyph-name="Edotaccent" unicode="&#x116;" horiz-adv-x="1204" 
d="M1118 0h-998l216 1365h980l-23 -148h-784l-70 -438h707l-23 -146h-707l-76 -484h802zM752 1564l30 193h231l-30 -193h-231z" />
    <glyph glyph-name="edotaccent" unicode="&#x117;" horiz-adv-x="1104" 
d="M870 1220h-232l31 195h232zM131 499q37 231 202.5 374.5t390.5 143.5q223 0 336 -139.5t78 -362.5q-4 -23 -17 -78h-808q-22 -141 52.5 -236t224.5 -95q206 0 326 157l153 -45q-75 -113 -205.5 -181.5t-297.5 -68.5q-232 0 -352 146t-83 385zM336 560h616q22 139 -45 230
t-204 91t-239 -93.5t-128 -227.5z" />
    <glyph glyph-name="Eogonek" unicode="&#x118;" horiz-adv-x="1183" 
d="M875 0q-243 -120 -256 -202q-5 -35 15 -52.5t67 -17.5q51 0 135 23l-18 -110q-74 -24 -173 -24q-107 0 -160 40.5t-42 110.5q11 63 81.5 125t166.5 107h-571l216 1365h980l-23 -148h-784l-70 -438h707l-23 -146h-707l-76 -484h802l-24 -149h-243z" />
    <glyph glyph-name="eogonek" unicode="&#x119;" horiz-adv-x="1104" 
d="M131 499q37 231 202.5 374.5t390.5 143.5q223 0 336 -139.5t78 -362.5q-4 -23 -17 -78h-808q-22 -141 52.5 -236t224.5 -95q206 0 326 157l153 -45q-60 -90 -155 -152.5t-217 -85.5q-201 -105 -213 -180q-5 -35 15 -52.5t67 -17.5q52 0 136 23l-18 -111q-77 -23 -173 -23
q-107 0 -160 40t-42 110q17 105 189 203q-201 22 -301.5 165t-65.5 362zM336 560h616q22 139 -45 230t-204 91t-239 -93.5t-128 -227.5z" />
    <glyph glyph-name="Ecaron" unicode="&#x11a;" horiz-adv-x="1204" 
d="M1118 0h-998l216 1365h980l-23 -148h-784l-70 -438h707l-23 -146h-707l-76 -484h802zM476 1808h191l181 -206l252 206h191l-374 -300h-166z" />
    <glyph glyph-name="ecaron" unicode="&#x11b;" horiz-adv-x="1104" 
d="M131 499q37 231 202.5 374.5t390.5 143.5q223 0 336 -139.5t78 -362.5q-4 -23 -17 -78h-808q-22 -141 52.5 -236t224.5 -95q206 0 326 157l153 -45q-75 -113 -205.5 -181.5t-297.5 -68.5q-232 0 -352 146t-83 385zM336 560h616q22 139 -45 230t-204 91t-239 -93.5
t-128 -227.5zM380 1460h190l182 -206l252 206h191l-376 -301h-165z" />
    <glyph glyph-name="Gbreve" unicode="&#x11e;" horiz-adv-x="1409" 
d="M180 682q51 319 266 517t524 198q107 0 196 -29.5t147 -80.5q98 -85 138 -193l-175 -49q-111 203 -329 203q-224 0 -374.5 -153.5t-191.5 -412.5q-42 -261 62 -412.5t317 -151.5q180 0 302.5 102t150.5 256l12 60q2 14 6 34.5t5 27.5h-417l23 148h607l-118 -746h-140
l11 179q-157 -211 -473 -211q-296 0 -448.5 194t-100.5 520zM681 1782h145q-5 -69 42.5 -115t127.5 -46q83 0 145 46.5t77 114.5h145q-24 -116 -126 -194t-259 -78t-231.5 77.5t-65.5 194.5z" />
    <glyph glyph-name="gbreve" unicode="&#x11f;" horiz-adv-x="1110" 
d="M325 512q-26 -167 37.5 -266t195.5 -99q131 0 223.5 97.5t119.5 269.5q27 166 -35.5 264t-188.5 98q-133 0 -229.5 -101t-122.5 -263zM65 -245l142 77q105 -124 277 -124q133 0 224 90.5t118 242.5q9 49 13 70q10 61 11 63q-54 -76 -141.5 -122t-189.5 -46
q-209 0 -315 139.5t-71 363.5q36 228 186.5 368t353.5 140q112 0 183.5 -51t96.5 -125l23 145h187l-137 -863q-44 -280 -182.5 -415t-385.5 -135q-271 0 -393 182zM431 1431h145q-7 -67 41 -113.5t127 -46.5q83 0 146 46.5t78 113.5h146q-25 -115 -127.5 -193.5
t-259.5 -78.5t-231.5 77.5t-64.5 194.5z" />
    <glyph glyph-name="Gdotaccent" unicode="&#x120;" horiz-adv-x="1409" 
d="M180 682q51 319 266 517t524 198q107 0 196 -29.5t147 -80.5q98 -85 138 -193l-175 -49q-111 203 -329 203q-224 0 -374.5 -153.5t-191.5 -412.5q-42 -261 62 -412.5t317 -151.5q180 0 302.5 102t150.5 256l12 60q2 14 6 34.5t5 27.5h-417l23 148h607l-118 -746h-140
l11 179q-157 -211 -473 -211q-296 0 -448.5 194t-100.5 520zM884 1564l30 193h229l-30 -193h-229z" />
    <glyph glyph-name="gdotaccent" unicode="&#x121;" horiz-adv-x="1110" 
d="M325 512q-26 -167 37.5 -266t195.5 -99q131 0 223.5 97.5t119.5 269.5q27 166 -35.5 264t-188.5 98q-133 0 -229.5 -101t-122.5 -263zM65 -245l142 77q105 -124 277 -124q133 0 224 90.5t118 242.5q9 49 13 70q10 61 11 63q-54 -76 -141.5 -122t-189.5 -46
q-209 0 -315 139.5t-71 363.5q36 228 186.5 368t353.5 140q112 0 183.5 -51t96.5 -125l23 145h187l-137 -863q-44 -280 -182.5 -415t-385.5 -135q-271 0 -393 182zM636 1220l31 195h232l-31 -195h-232z" />
    <glyph glyph-name="uni0122" unicode="&#x122;" horiz-adv-x="1409" 
d="M180 682q51 319 266 517t524 198q107 0 196 -29.5t147 -80.5q98 -85 138 -193l-175 -49q-111 203 -329 203q-224 0 -374.5 -153.5t-191.5 -412.5q-42 -261 62 -412.5t317 -151.5q180 0 302.5 102t150.5 256l12 60q2 14 6 34.5t5 27.5h-417l23 148h607l-118 -746h-140
l11 179q-157 -211 -473 -211q-296 0 -448.5 194t-100.5 520zM518 -461l157 349h211l-233 -349h-135z" />
    <glyph glyph-name="uni0123" unicode="&#x123;" horiz-adv-x="1110" 
d="M822 1164h-214l234 340h131zM64 -245l140 77q99 -124 276 -124q138 0 226.5 88.5t116.5 241.5q21 102 27 136q-53 -77 -141 -122.5t-194 -45.5q-206 0 -312 139.5t-70 363.5q36 227 185.5 367.5t350.5 140.5q116 0 188 -50t96 -126l23 145h187l-137 -864
q-45 -281 -183 -416t-388 -135q-127 0 -230.5 47.5t-160.5 136.5zM325 512q-27 -169 36.5 -267t191.5 -98q136 0 228 96t120 271q27 167 -36 264.5t-194 97.5q-129 0 -224.5 -100t-121.5 -264z" />
    <glyph glyph-name="Hbar" unicode="&#x126;" horiz-adv-x="1535" 
d="M379 1038h-169l22 136h169l30 191h196l-30 -191h710l30 191h197l-30 -191h170l-22 -136h-170l-164 -1038h-197l99 628h-710l-99 -628h-196zM534 776h710l41 262h-710z" />
    <glyph glyph-name="hbar" unicode="&#x127;" horiz-adv-x="973" 
d="M171 1139h-148l21 128h148l23 148h187l-23 -148h425l-21 -128h-425l-51 -323h3q54 70 150.5 120t200.5 50q131 0 228 -71q53 -39 73.5 -119.5t3.5 -190.5l-96 -605h-188l92 581q42 264 -173 264q-116 0 -217 -90.5t-120 -208.5l-86 -546h-187z" />
    <glyph glyph-name="Imacron" unicode="&#x12a;" horiz-adv-x="497" 
d="M860 1583h-721l18 116h721zM150 0l216 1365h196l-216 -1365h-196z" />
    <glyph glyph-name="imacron" unicode="&#x12b;" horiz-adv-x="457" 
d="M785 1229h-722l18 116h722zM134 0l156 986h188l-156 -986h-188z" />
    <glyph glyph-name="Iogonek" unicode="&#x12e;" horiz-adv-x="497" 
d="M379 0q-238 -117 -252 -199q-5 -34 15.5 -51.5t66.5 -17.5q52 0 135 23l-17 -111q-80 -23 -173 -23q-109 0 -161 40t-41 110q10 65 82 127.5t168 105.5l215 1361h196l-216 -1365h-18z" />
    <glyph glyph-name="iogonek" unicode="&#x12f;" horiz-adv-x="445" 
d="M523 1181h-226l32 203h226zM-120 -229q10 65 82.5 128t170.5 107l155 980h185l-155 -979h1q-1 0 -1 -1l-1 -6h-12q-236 -117 -250 -199q-5 -34 15.5 -51.5t67.5 -17.5q50 0 134 23l-17 -111q-80 -23 -174 -23q-107 0 -159.5 40t-41.5 110z" />
    <glyph glyph-name="Idotaccent" unicode="&#x130;" horiz-adv-x="421" 
d="M310 0h-196l216 1365h196zM344 1564l30 193h230l-30 -193h-230z" />
    <glyph glyph-name="dotlessi" unicode="&#x131;" horiz-adv-x="396" 
d="M292 0h-188l156 986h188z" />
    <glyph glyph-name="IJ" unicode="&#x132;" horiz-adv-x="1579" 
d="M388 0h-196l216 1365h196zM588 231l179 59q14 -78 70 -125t139 -47q228 0 273 287l152 960h199l-156 -985q-31 -200 -157 -306t-330 -106q-159 0 -252 71t-117 192z" />
    <glyph glyph-name="ij" unicode="&#x133;" horiz-adv-x="1100" 
d="M1134 1181h-228l32 203h228zM183 0l156 986h185l-156 -986h-185zM348 1181l32 203h226l-32 -203h-226zM455 -408l23 144h45q174 0 208 214l164 1036h188l-165 -1044q-28 -172 -127.5 -261t-259.5 -89h-76z" />
    <glyph glyph-name="uni0136" unicode="&#x136;" horiz-adv-x="1269" 
d="M316 0h-196l216 1365h196l-108 -685h4l773 685h256l-684 -592l494 -773h-242l-397 647l-243 -210zM371 -431l156 349h213l-233 -349h-136z" />
    <glyph glyph-name="uni0137" unicode="&#x137;" horiz-adv-x="1008" 
d="M294 0h-190l224 1413h190l-141 -886l526 459h245l-465 -397l348 -589h-228l-260 473l-201 -173zM275 -431l157 349h212l-235 -349h-134z" />
    <glyph glyph-name="Lacute" unicode="&#x139;" horiz-adv-x="1106" 
d="M1057 0h-917l216 1365h196l-192 -1216h721zM357 1497l279 323h239l-355 -323h-163z" />
    <glyph glyph-name="lacute" unicode="&#x13a;" horiz-adv-x="514" 
d="M503 1497h-162l279 323h238zM153 0l224 1413h188l-224 -1413h-188z" />
    <glyph glyph-name="uni013B" unicode="&#x13b;" horiz-adv-x="1086" 
d="M1037 0h-917l216 1365h196l-192 -1216h721zM305 -461l156 349h213l-233 -349h-136z" />
    <glyph glyph-name="uni013C" unicode="&#x13c;" horiz-adv-x="436" 
d="M320 0h-188l224 1413h188zM-53 -461l156 349h211l-232 -349h-135z" />
    <glyph glyph-name="Lcaron" unicode="&#x13d;" horiz-adv-x="1539" 
d="M1037 0h-917l216 1365h196l-192 -1216h721zM675 1004l162 361h204l-228 -361h-138z" />
    <glyph glyph-name="lcaron" unicode="&#x13e;" horiz-adv-x="841" 
d="M292 0h-188l224 1413h188zM517 1038l162 359h204l-229 -359h-137z" />
    <glyph glyph-name="Lslash" unicode="&#x141;" horiz-adv-x="1244" 
d="M912 810l-328 -171l-78 -492h721l-23 -147h-917l84 529l-220 -118l-70 126l318 168l104 660h196l-87 -553l231 123z" />
    <glyph glyph-name="lslash" unicode="&#x142;" horiz-adv-x="648" 
d="M827 823l-300 -156l-106 -667h-191l90 566l-210 -109l-68 126l305 157l107 675h191l-90 -569l206 104z" />
    <glyph glyph-name="Nacute" unicode="&#x143;" horiz-adv-x="1351" 
d="M787 1508l280 322h239l-354 -322h-165zM120 0l216 1365h217l526 -1090l172 1090h196l-216 -1365h-215l-528 1089l-172 -1089h-196z" />
    <glyph glyph-name="nacute" unicode="&#x144;" horiz-adv-x="1093" 
d="M295 0h-191l156 986h184l-24 -153h3q42 72 143 128t225 56q168 0 249 -91.5t50 -288.5l-101 -637h-193l97 611q42 265 -167 265q-120 0 -220 -86.5t-119 -208.5zM578 1159l280 322h238l-354 -322h-164z" />
    <glyph glyph-name="uni0145" unicode="&#x145;" horiz-adv-x="1351" 
d="M431 -461l157 349h210l-232 -349h-135zM120 0l216 1365h217l526 -1090l172 1090h196l-216 -1365h-215l-528 1089l-172 -1089h-196z" />
    <glyph glyph-name="uni0146" unicode="&#x146;" horiz-adv-x="1093" 
d="M295 0h-191l156 986h184l-24 -153h3q42 72 143 128t225 56q168 0 249 -91.5t50 -288.5l-101 -637h-193l97 611q42 265 -167 265q-120 0 -220 -86.5t-119 -208.5zM312 -461l156 349h211l-231 -349h-136z" />
    <glyph glyph-name="Ncaron" unicode="&#x147;" horiz-adv-x="1351" 
d="M565 1808h191l181 -206l252 206h190l-374 -300h-165zM120 0l216 1365h217l526 -1090l172 1090h196l-216 -1365h-215l-528 1089l-172 -1089h-196z" />
    <glyph glyph-name="ncaron" unicode="&#x148;" horiz-adv-x="1093" 
d="M295 0h-191l156 986h184l-24 -153h3q42 72 143 128t225 56q168 0 249 -91.5t50 -288.5l-101 -637h-193l97 611q42 265 -167 265q-120 0 -220 -86.5t-119 -208.5zM391 1460h190l182 -206l253 206h189l-374 -301h-166z" />
    <glyph glyph-name="Omacron" unicode="&#x14c;" horiz-adv-x="1437" 
d="M1319 1583h-721l18 116h721zM180 682q51 323 258 519t501 196q295 0 440 -196t94 -521q-52 -325 -259 -518.5t-501 -193.5q-295 0 -440 194t-93 520zM381 682q-41 -260 54.5 -412t301.5 -152q205 0 349 150t186 412q41 261 -53.5 414.5t-302.5 153.5q-206 0 -350 -153
t-185 -413z" />
    <glyph glyph-name="omacron" unicode="&#x14d;" horiz-adv-x="1114" 
d="M1115 1229h-721l18 116h721zM130 492q36 230 194 377.5t396 147.5q156 0 261 -69.5t145.5 -188t16.5 -267.5q-31 -189 -166 -347q-70 -81 -181.5 -129t-241.5 -48t-226 46.5t-142 127.5q-87 151 -56 350zM324 492q-28 -176 44 -279t208 -103q134 0 239.5 103.5
t133.5 278.5q28 178 -44.5 281t-206.5 103q-135 0 -240.5 -102t-133.5 -282z" />
    <glyph glyph-name="Ohungarumlaut" unicode="&#x150;" horiz-adv-x="1437" 
d="M180 682q51 323 258 519t501 196q295 0 440 -196t94 -521q-52 -325 -259 -518.5t-501 -193.5q-295 0 -440 194t-93 520zM381 682q-41 -260 54.5 -412t301.5 -152q205 0 349 150t186 412q41 261 -53.5 414.5t-302.5 153.5q-206 0 -350 -153t-185 -413zM633 1512l267 332
h223l-324 -332h-166zM970 1512l267 332h222l-325 -332h-164z" />
    <glyph glyph-name="ohungarumlaut" unicode="&#x151;" horiz-adv-x="1114" 
d="M324 492q-28 -176 44 -279t208 -103q134 0 239.5 103.5t133.5 278.5q28 178 -44.5 281t-206.5 103q-135 0 -240.5 -102t-133.5 -282zM130 492q36 230 194 377.5t396 147.5q156 0 261 -69.5t145.5 -188t16.5 -267.5q-31 -189 -166 -347q-70 -81 -181.5 -129t-241.5 -48
t-226 46.5t-142 127.5q-87 151 -56 350zM446 1159l266 333h222l-323 -333h-165zM782 1159l267 333h223l-322 -333h-168z" />
    <glyph glyph-name="OE" unicode="&#x152;" horiz-adv-x="1997" 
d="M180 682q51 321 265.5 518t509.5 197q120 0 213 -32h937l-23 -148h-748l-69 -437h674l-24 -147h-674l-77 -486h770l-23 -147h-955q-107 -32 -227 -32q-148 0 -263 50.5t-186.5 143t-98.5 226t-1 294.5zM381 682q-41 -259 61 -412.5t310 -153.5q122 0 220 56l161 1018
q-77 58 -201 58q-212 0 -361 -154t-190 -412z" />
    <glyph glyph-name="oe" unicode="&#x153;" horiz-adv-x="1920" 
d="M324 492q-28 -176 44 -279t208 -103q125 0 227 91.5t138 249.5q1 5 2 15t2 18t2 15q4 25 7 40q13 158 -59 247.5t-197 89.5q-135 0 -240.5 -102t-133.5 -282zM130 492q36 230 194 377.5t396 147.5q134 0 229.5 -51.5t147.5 -143.5q83 93 197.5 144t244.5 51
q223 0 336.5 -139.5t78.5 -362.5q-2 -11 -18 -78h-804l-6 -19q-14 -135 61 -223.5t218 -88.5q206 0 327 157l152 -45q-72 -113 -203.5 -181.5t-298.5 -68.5q-135 0 -235 51.5t-153 146.5q-12 -14 -17 -21q-70 -81 -181.5 -129t-241.5 -48t-226 46.5t-142 127.5
q-87 151 -56 350zM1154 560h615q22 139 -45.5 230t-205.5 91q-137 0 -238 -93.5t-126 -227.5z" />
    <glyph glyph-name="Racute" unicode="&#x154;" horiz-adv-x="1274" 
d="M819 1508h-163l279 322h238zM119 -9l218 1379h598q222 0 335.5 -111t85.5 -285q-33 -206 -222 -320q108 -94 86 -304l-2 -28l-1 -5q1 -1 1 -7v-5l-1 -10q-1 -3 -1 -8v-4q1 -1 1 -7v1q-2 -42 -4 -77t9.5 -88.5t39.5 -120.5h-211q-28 61 -32 133t7 214q6 60 -1 100.5
t-32 71.5t-75.5 45.5t-129.5 14.5h-386l-91 -579h-192zM430 746h405q292 0 328 226q17 109 -48.5 167.5t-228.5 58.5h-384z" />
    <glyph glyph-name="racute" unicode="&#x155;" horiz-adv-x="731" 
d="M295 0h-191l156 986h182l-21 -131q47 69 130.5 115.5t187.5 46.5q87 0 149 -25l-24 -151q-65 25 -149 25q-133 0 -222.5 -90.5t-113.5 -242.5zM445 1159l279 322h239l-354 -322h-164z" />
    <glyph glyph-name="uni0156" unicode="&#x156;" horiz-adv-x="1274" 
d="M538 -461h-135l156 349h211zM119 -9l218 1379h598q222 0 335.5 -111t85.5 -285q-33 -206 -222 -320q108 -94 86 -304l-2 -28l-1 -5q1 -1 1 -7v-5l-1 -10q-1 -3 -1 -8v-4q1 -1 1 -7v1q-2 -42 -4 -77t9.5 -88.5t39.5 -120.5h-211q-28 61 -32 133t7 214q6 60 -1 100.5
t-32 71.5t-75.5 45.5t-129.5 14.5h-386l-91 -579h-192zM430 746h405q292 0 328 226q17 109 -48.5 167.5t-228.5 58.5h-384z" />
    <glyph glyph-name="uni0157" unicode="&#x157;" horiz-adv-x="741" 
d="M303 0h-191l156 986h183l-21 -131q47 69 130.5 115.5t187.5 46.5q88 0 150 -25l-24 -151q-66 25 -150 25q-134 0 -223.5 -90.5t-113.5 -242.5zM-52 -461l157 349h212l-232 -349h-137z" />
    <glyph glyph-name="Rcaron" unicode="&#x158;" horiz-adv-x="1274" 
d="M743 1508l-274 300h189l182 -206l254 206h188l-374 -300h-165zM119 -9l218 1379h598q222 0 335.5 -111t85.5 -285q-33 -206 -222 -320q108 -94 86 -304l-2 -28l-1 -5q1 -1 1 -7v-5l-1 -10q-1 -3 -1 -8v-4q1 -1 1 -7v1q-2 -42 -4 -77t9.5 -88.5t39.5 -120.5h-211
q-28 61 -32 133t7 214q6 60 -1 100.5t-32 71.5t-75.5 45.5t-129.5 14.5h-386l-91 -579h-192zM430 746h405q292 0 328 226q17 109 -48.5 167.5t-228.5 58.5h-384z" />
    <glyph glyph-name="rcaron" unicode="&#x159;" horiz-adv-x="823" 
d="M331 0h-191l156 986h183l-21 -131q47 69 130.5 115.5t187.5 46.5q88 0 150 -25l-24 -151q-66 25 -150 25q-134 0 -223.5 -90.5t-113.5 -242.5zM276 1460h190l183 -206l253 206h188l-374 -301h-165z" />
    <glyph glyph-name="Sacute" unicode="&#x15a;" horiz-adv-x="1247" 
d="M288 324q46 -97 145 -151.5t235 -54.5q151 0 254 65t119 173q18 115 -83 178q-52 31 -100 50.5t-134 45.5q-225 69 -310 119q-165 105 -136 285q26 165 185.5 264t394.5 99q181 0 306 -74t169 -194l-174 -51q-98 170 -327 170q-148 0 -243 -58.5t-110 -155.5
q-18 -109 96 -172q53 -30 104 -49.5t148 -48.5q36 -11 37 -11q99 -31 160.5 -58.5t121.5 -70.5q124 -91 97 -263q-29 -183 -192.5 -288t-409.5 -105q-206 0 -346 80t-192 220zM727 1508l279 322h239l-354 -322h-164z" />
    <glyph glyph-name="sacute" unicode="&#x15b;" horiz-adv-x="1003" 
d="M236 270q93 -163 294 -163q113 0 187.5 38.5t85.5 105.5q3 26 -2 46q-7 28 -71 71q-14 10 -67 28q-155 46 -164 49q-132 41 -212 94q-101 68 -80 198q20 125 148.5 202.5t318.5 77.5q133 0 241 -62t149 -156l-140 -71q-37 66 -108.5 108t-161.5 42q-112 0 -178.5 -38
t-76.5 -104q-14 -81 78 -127q76 -37 190 -68q143 -41 231 -97q116 -72 96 -195q-19 -121 -151 -201t-333 -80q-152 0 -262 60.5t-162 170.5zM512 1159l281 322h236l-352 -322h-165z" />
    <glyph glyph-name="Scedilla" unicode="&#x15e;" horiz-adv-x="1247" 
d="M357 -283q103 -25 185 -25q60 0 111.5 23t57.5 60q7 42 -57 61q-61 19 -162 17l52 120q-168 18 -281.5 95t-159.5 200l185 56q46 -97 145 -151.5t235 -54.5q151 0 254 65t119 173q18 115 -83 178q-52 31 -100 50.5t-134 45.5q-225 69 -310 119q-165 105 -136 285
q26 165 185.5 264t394.5 99q181 0 306 -74t169 -194l-174 -51q-98 170 -327 170q-148 0 -243 -58.5t-110 -155.5q-18 -109 96 -172q53 -30 104 -49.5t148 -48.5q36 -11 37 -11q99 -31 160.5 -58.5t121.5 -70.5q124 -91 97 -263q-27 -169 -169.5 -272.5t-361.5 -118.5
l-25 -52q93 -9 140 -49t37 -104q-13 -78 -100.5 -129t-231.5 -51q-105 0 -192 25z" />
    <glyph glyph-name="scedilla" unicode="&#x15f;" horiz-adv-x="1003" 
d="M212 -283q103 -25 187 -25q60 0 111.5 23t57.5 60q7 41 -58 61q-61 19 -163 17l55 124q-112 19 -193 76t-123 146l150 71q93 -163 294 -163q113 0 187.5 38.5t85.5 105.5q3 26 -2 46q-7 28 -71 71q-14 10 -67 28q-155 46 -164 49q-132 41 -212 94q-101 68 -80 198
q20 125 148.5 202.5t318.5 77.5q133 0 241 -62t149 -156l-140 -71q-37 66 -108.5 108t-161.5 42q-112 0 -178.5 -38t-76.5 -104q-14 -81 78 -127q76 -37 190 -68q143 -41 231 -97q116 -72 96 -195q-18 -112 -132.5 -189.5t-292.5 -89.5l-24 -52q93 -9 139 -48.5t36 -104.5
q-13 -78 -100 -129t-232 -51q-103 0 -193 25z" />
    <glyph glyph-name="Scaron" unicode="&#x160;" horiz-adv-x="1247" 
d="M288 324q46 -97 145 -151.5t235 -54.5q151 0 254 65t119 173q18 115 -83 178q-52 31 -100 50.5t-134 45.5q-225 69 -310 119q-165 105 -136 285q26 165 185.5 264t394.5 99q181 0 306 -74t169 -194l-174 -51q-98 170 -327 170q-148 0 -243 -58.5t-110 -155.5
q-18 -109 96 -172q53 -30 104 -49.5t148 -48.5q36 -11 37 -11q99 -31 160.5 -58.5t121.5 -70.5q124 -91 97 -263q-29 -183 -192.5 -288t-409.5 -105q-206 0 -346 80t-192 220zM520 1808h190l181 -206l252 206h191l-374 -300h-166z" />
    <glyph glyph-name="scaron" unicode="&#x161;" horiz-adv-x="1003" 
d="M236 270q93 -163 294 -163q113 0 187.5 38.5t85.5 105.5q3 26 -2 46q-7 28 -71 71q-14 10 -67 28q-155 46 -164 49q-132 41 -212 94q-101 68 -80 198q20 125 148.5 202.5t318.5 77.5q133 0 241 -62t149 -156l-140 -71q-37 66 -108.5 108t-161.5 42q-112 0 -178.5 -38
t-76.5 -104q-14 -81 78 -127q76 -37 190 -68q143 -41 231 -97q116 -72 96 -195q-19 -121 -151 -201t-333 -80q-152 0 -262 60.5t-162 170.5zM335 1460h191l181 -206l251 206h190l-373 -301h-167z" />
    <glyph glyph-name="uni0162" unicode="&#x162;" horiz-adv-x="1208" 
d="M699 1217h-460l23 148h1116l-23 -148h-460l-193 -1217h-29l-39 -80q95 -10 141 -49.5t36 -102.5q-13 -79 -100 -129.5t-231 -50.5q-105 0 -192 24l17 108q107 -26 185 -26q60 0 111.5 23t57.5 59q6 43 -58 63q-63 19 -163 16l71 161z" />
    <glyph glyph-name="uni0163" unicode="&#x163;" horiz-adv-x="686" 
d="M335 845h-187l22 141h187l49 308h188l-49 -308h280l-22 -141h-280l-87 -546q-13 -83 18.5 -119.5t110.5 -36.5h129l-23 -143h-142l-30 -70q87 -14 129 -55t32 -104q-13 -78 -93 -127.5t-220 -49.5q-94 0 -177 20l17 106q83 -18 175 -18q136 0 148 78q7 40 -46 62.5
t-164 27.5l68 152q-155 58 -122 263z" />
    <glyph glyph-name="Tcaron" unicode="&#x164;" horiz-adv-x="1208" 
d="M699 1217h-460l23 148h1116l-23 -148h-460l-193 -1217h-196zM483 1808h189l183 -206l252 206h190l-375 -300h-165z" />
    <glyph glyph-name="tcaron" unicode="&#x165;" horiz-adv-x="1244" 
d="M335 845h-187l22 141h187l49 308h190l-49 -308h278l-22 -141h-278l-87 -546q-13 -83 17.5 -119.5t109.5 -36.5h129l-23 -143h-155q-315 0 -270 285zM622 1066l162 360h204l-228 -360h-138z" />
    <glyph glyph-name="Umacron" unicode="&#x16a;" horiz-adv-x="1349" 
d="M1286 1583h-720l18 116h720zM199 499l137 866h198l-136 -862q-31 -189 49.5 -287t244.5 -98q167 0 278 99.5t141 285.5l136 862h198l-137 -866q-40 -253 -206 -392t-434 -139q-263 0 -386 137.5t-83 393.5z" />
    <glyph glyph-name="umacron" unicode="&#x16b;" horiz-adv-x="1084" 
d="M1091 1229h-720l18 116h720zM159 350l101 636h191l-96 -606q-42 -270 176 -270q130 0 219 91.5t110 226.5l88 558h188l-156 -986h-181l23 143h-1q-38 -69 -131 -122t-222 -53q-166 0 -252.5 97t-56.5 285z" />
    <glyph glyph-name="Uring" unicode="&#x16e;" horiz-adv-x="1349" 
d="M648 1667q16 101 110.5 174t217.5 73q124 0 196.5 -73t56.5 -174q-17 -103 -113 -175t-218 -72q-120 0 -193 71.5t-57 175.5zM199 499l137 866h198l-136 -862q-31 -189 49.5 -287t244.5 -98q167 0 278 99.5t141 285.5l136 862h198l-137 -866q-40 -253 -206 -392
t-434 -139q-263 0 -386 137.5t-83 393.5zM782 1667q-9 -57 29.5 -96t104.5 -39q68 0 117.5 38t58.5 97q9 58 -28 97t-105 39q-66 0 -117 -40t-60 -96z" />
    <glyph glyph-name="uring" unicode="&#x16f;" horiz-adv-x="1084" 
d="M476 1377q16 103 110 175.5t218 72.5t196 -72.5t56 -175.5t-111.5 -175t-218.5 -72q-120 0 -193 71t-57 176zM159 350l101 636h191l-96 -606q-42 -270 176 -270q130 0 219 91.5t110 226.5l88 558h188l-156 -986h-181l23 143h-1q-38 -69 -131 -122t-222 -53
q-166 0 -252.5 97t-56.5 285zM609 1377q-9 -57 29.5 -95.5t105.5 -38.5q66 0 116 38t59 96q9 59 -28 98t-104 39q-68 0 -118.5 -40t-59.5 -97z" />
    <glyph glyph-name="Uhungarumlaut" unicode="&#x170;" horiz-adv-x="1349" 
d="M199 499l137 866h198l-136 -862q-31 -189 49.5 -287t244.5 -98q167 0 278 99.5t141 285.5l136 862h198l-137 -866q-40 -253 -206 -392t-434 -139q-263 0 -386 137.5t-83 393.5zM593 1512l267 332h221l-322 -332h-166zM932 1512l267 332h221l-325 -332h-163z" />
    <glyph glyph-name="uhungarumlaut" unicode="&#x171;" horiz-adv-x="1082" 
d="M159 350l101 636h191l-96 -606q-42 -270 176 -270q130 0 219 91.5t110 226.5l88 558h188l-156 -986h-181l23 143h-1q-38 -69 -131 -122t-222 -53q-166 0 -252.5 97t-56.5 285zM416 1159l267 333h222l-323 -333h-166zM753 1159l266 333h222l-322 -333h-166z" />
    <glyph glyph-name="Uogonek" unicode="&#x172;" horiz-adv-x="1349" 
d="M199 499l137 866h198l-136 -862q-31 -189 49.5 -287t244.5 -98q167 0 278 99.5t141 285.5l136 862h198l-137 -866q-35 -224 -170.5 -360t-354.5 -164q-191 -100 -203 -175q-5 -35 15 -52.5t66 -17.5q51 0 135 23l-18 -111q-78 -23 -173 -23q-108 0 -160 40t-41 110
q9 53 60.5 106t126.5 96q-224 20 -326.5 156t-65.5 372z" />
    <glyph glyph-name="uogonek" unicode="&#x173;" horiz-adv-x="1066" 
d="M159 350l101 636h191l-96 -606q-42 -270 176 -270q130 0 219 91.5t110 226.5l88 558h188l-155 -979h3l-3 -2l-1 -5h-10q-237 -117 -251 -199q-5 -34 15.5 -51.5t67.5 -17.5q50 0 133 23l-17 -111q-78 -23 -173 -23q-107 0 -158 40t-40 110q10 66 83 129.5t170 106.5
l22 136h-1q-38 -69 -131 -122t-222 -53q-166 0 -252.5 97t-56.5 285z" />
    <glyph glyph-name="Wcircumflex" unicode="&#x174;" horiz-adv-x="1761" 
d="M694 1508l388 310h166l291 -310h-199l-192 218l-252 -218h-202zM220 1365h212l69 -1172h12l481 1172h204l113 -1172h7l445 1172h211l-574 -1365h-228l-106 1149h-9l-470 -1149h-226z" />
    <glyph glyph-name="wcircumflex" unicode="&#x175;" horiz-adv-x="1521" 
d="M522 1159l386 309h165l293 -309h-199l-192 218l-253 -218h-200zM173 986h209l76 -828h6l346 828h214l86 -828h8l335 828h207l-460 -986h-224l-83 807h-8l-336 -807h-226z" />
    <glyph glyph-name="Ycircumflex" unicode="&#x176;" horiz-adv-x="1289" 
d="M465 1508l385 310h166l292 -310h-198l-192 218l-253 -218h-200zM221 1365h230l301 -658h8l509 658h231l-667 -808l-88 -557h-197l88 557z" />
    <glyph glyph-name="ycircumflex" unicode="&#x177;" horiz-adv-x="1056" 
d="M297 1159l386 309h167l290 -309h-198l-191 218l-253 -218h-201zM71 -419l22 139h36q86 0 145 38.5t113 132.5l57 109l-273 986h215l177 -795h8l413 795h212l-652 -1138q-82 -145 -178.5 -206t-228.5 -61h-66z" />
    <glyph glyph-name="Ydieresis" unicode="&#x178;" horiz-adv-x="1289" 
d="M558 1564l30 190h229l-30 -190h-229zM221 1365h230l301 -658h8l509 658h231l-667 -808l-88 -557h-197l88 557zM999 1564l30 190h228l-30 -190h-228z" />
    <glyph glyph-name="Zacute" unicode="&#x179;" horiz-adv-x="1258" 
d="M75 0l20 128l1017 1089h-780l23 148h1023l-20 -130l-1021 -1086h870l-24 -149h-1108zM710 1508l280 322h238l-355 -322h-163z" />
    <glyph glyph-name="zacute" unicode="&#x17a;" horiz-adv-x="1036" 
d="M969 0h-889l18 113l741 732h-571l22 141h814l-16 -105l-743 -740h646zM554 1159l280 322h238l-354 -322h-164z" />
    <glyph glyph-name="Zdotaccent" unicode="&#x17b;" horiz-adv-x="1258" 
d="M75 0l20 128l1017 1089h-780l23 148h1023l-20 -130l-1021 -1086h870l-24 -149h-1108zM785 1564l30 193h231l-30 -193h-231z" />
    <glyph glyph-name="zdotaccent" unicode="&#x17c;" horiz-adv-x="1036" 
d="M969 0h-889l18 113l741 732h-571l22 141h814l-16 -105l-743 -740h646zM616 1220l31 195h230l-31 -195h-230z" />
    <glyph glyph-name="Zcaron" unicode="&#x17d;" horiz-adv-x="1258" 
d="M75 0l20 128l1017 1089h-780l23 148h1023l-20 -130l-1021 -1086h870l-24 -149h-1108zM530 1808h190l183 -206l253 206h189l-376 -300h-164z" />
    <glyph glyph-name="zcaron" unicode="&#x17e;" horiz-adv-x="1036" 
d="M969 0h-889l18 113l741 732h-571l22 141h814l-16 -105l-743 -740h646zM369 1460h190l183 -206l251 206h190l-374 -301h-166z" />
    <glyph glyph-name="uni018F" unicode="&#x18f;" horiz-adv-x="1457" 
d="M186 644q8 50 21 113h1077q22 233 -76.5 362t-304.5 129q-251 0 -440 -203l-159 58q106 142 268 218t356 76q212 0 348.5 -90.5t186.5 -250.5t16 -376t-144 -378.5t-272 -248t-354 -85.5q-195 0 -325 88.5t-179.5 240.5t-18.5 347zM381 566q-17 -173 54 -302
q37 -70 115 -109t185 -39q186 0 334.5 130t191.5 360h-877q-1 -5 -1 -20q-2 -18 -2 -20z" />
    <glyph glyph-name="florin" unicode="&#x192;" horiz-adv-x="870" 
d="M92 -476q-32 0 -68 4q-33 4 -42 4h-5l-17 7l-26 29l17 110q119 -11 158 -11q105 0 159 53t74 181l143 900h-229l22 142h229l21 133q23 145 132 219t271 74h154l-23 -143h-149q-105 0 -151 -35t-60 -126l-20 -122h302l-22 -142h-302l-143 -904q-29 -181 -137 -277
t-288 -96z" />
    <glyph glyph-name="uni0218" unicode="&#x218;" horiz-adv-x="1247" 
d="M518 -461h-136l158 349h210zM103 268l185 56q46 -97 145 -151.5t235 -54.5q151 0 254 65t119 173q18 115 -83 178q-52 31 -100 50.5t-134 45.5q-225 69 -310 119q-165 105 -136 285q26 165 185.5 264t394.5 99q181 0 306 -74t169 -194l-174 -51q-98 170 -327 170
q-148 0 -243 -58.5t-110 -155.5q-18 -109 96 -172q53 -30 104 -49.5t148 -48.5q36 -11 37 -11q99 -31 160.5 -58.5t121.5 -70.5q124 -91 97 -263q-29 -183 -192.5 -288t-409.5 -105q-206 0 -346 80t-192 220z" />
    <glyph glyph-name="uni0219" unicode="&#x219;" horiz-adv-x="1003" 
d="M375 -461h-135l155 349h212zM86 199l150 71q93 -163 294 -163q113 0 187.5 38.5t85.5 105.5q3 26 -2 46q-7 28 -71 71q-14 10 -67 28q-155 46 -164 49q-132 41 -212 94q-101 68 -80 198q20 125 148.5 202.5t318.5 77.5q133 0 241 -62t149 -156l-140 -71
q-37 66 -108.5 108t-161.5 42q-112 0 -178.5 -38t-76.5 -104q-14 -81 78 -127q76 -37 190 -68q143 -41 231 -97q116 -72 96 -195q-19 -121 -151 -201t-333 -80q-152 0 -262 60.5t-162 170.5z" />
    <glyph glyph-name="uni021A" unicode="&#x21a;" horiz-adv-x="1208" 
d="M458 -461h-136l156 349h212zM239 1217l23 148h1116l-23 -148h-460l-193 -1217h-196l193 1217h-460z" />
    <glyph glyph-name="uni021B" unicode="&#x21b;" horiz-adv-x="700" 
d="M311 -461h-135l156 349h213zM148 845l22 141h187l49 308h190l-49 -308h278l-22 -141h-278l-87 -546q-13 -83 17.5 -119.5t109.5 -36.5h129l-23 -143h-155q-315 0 -270 285l89 560h-187z" />
    <glyph glyph-name="uni0237" unicode="&#x237;" horiz-adv-x="549" 
d="M-99 -417l23 143h45q174 0 207 213l166 1047h189l-167 -1056q-27 -170 -127 -258.5t-261 -88.5h-75z" />
    <glyph glyph-name="uni0259" unicode="&#x259;" horiz-adv-x="1147" 
d="M146 470q10 59 16 80h807q22 138 -53 233t-225 95q-99 0 -184.5 -43.5t-137.5 -113.5l-149 47q75 113 202 181t296 68q236 0 354 -146.5t80 -385.5q-25 -154 -108.5 -272t-209.5 -181.5t-274 -63.5q-221 0 -335 140t-79 362zM329 425q-22 -136 46.5 -227.5t206.5 -91.5
q136 0 237.5 91.5t129.5 227.5h-620z" />
    <glyph glyph-name="Wgrave" unicode="&#x1e80;" horiz-adv-x="1761" 
d="M1108 1508l-253 322h238l180 -322h-165zM220 1365h212l69 -1172h12l481 1172h204l113 -1172h7l445 1172h211l-574 -1365h-228l-106 1149h-9l-470 -1149h-226z" />
    <glyph glyph-name="wgrave" unicode="&#x1e81;" horiz-adv-x="1521" 
d="M924 1157l-251 322h237l180 -322h-166zM173 986h209l76 -828h6l346 828h214l86 -828h8l335 828h207l-460 -986h-224l-83 807h-8l-336 -807h-226z" />
    <glyph glyph-name="Wacute" unicode="&#x1e82;" horiz-adv-x="1761" 
d="M1099 1508h-164l280 322h238zM220 1365h212l69 -1172h12l481 1172h204l113 -1172h7l445 1172h211l-574 -1365h-228l-106 1149h-9l-470 -1149h-226z" />
    <glyph glyph-name="wacute" unicode="&#x1e83;" horiz-adv-x="1521" 
d="M940 1157h-163l279 322h238zM173 986h209l76 -828h6l346 828h214l86 -828h8l335 828h207l-460 -986h-224l-83 807h-8l-336 -807h-226z" />
    <glyph glyph-name="Wdieresis" unicode="&#x1e84;" horiz-adv-x="1761" 
d="M1020 1564h-230l30 190h230zM220 1365h212l69 -1172h12l481 1172h204l113 -1172h7l445 1172h211l-574 -1365h-228l-106 1149h-9l-470 -1149h-226zM1234 1564l30 190h225l-30 -190h-225z" />
    <glyph glyph-name="wdieresis" unicode="&#x1e85;" horiz-adv-x="1521" 
d="M843 1220h-228l31 192h228zM173 986h209l76 -828h6l346 828h214l86 -828h8l335 828h207l-460 -986h-224l-83 807h-8l-336 -807h-226zM1058 1220l31 192h226l-31 -192h-226z" />
    <glyph glyph-name="Ygrave" unicode="&#x1ef2;" horiz-adv-x="1289" 
d="M863 1506l-253 322h238l180 -322h-165zM221 1365h230l301 -658h8l509 658h231l-667 -808l-88 -557h-197l88 557z" />
    <glyph glyph-name="ygrave" unicode="&#x1ef3;" horiz-adv-x="1056" 
d="M674 1157l-251 322h237l180 -322h-166zM71 -419l22 139h36q86 0 145 38.5t113 132.5l57 109l-273 986h215l177 -795h8l413 795h212l-652 -1138q-82 -145 -178.5 -206t-228.5 -61h-66z" />
    <glyph glyph-name="uni2010" unicode="&#x2010;" horiz-adv-x="717" 
d="M120 535l22 140h659l-22 -140h-659z" />
    <glyph glyph-name="endash" unicode="&#x2013;" horiz-adv-x="1080" 
d="M85 535l22 140h1080l-22 -140h-1080z" />
    <glyph glyph-name="emdash" unicode="&#x2014;" horiz-adv-x="2321" 
d="M85 535l22 140h2321l-22 -140h-2321z" />
    <glyph glyph-name="uni2015" unicode="&#x2015;" horiz-adv-x="2199" 
d="M85 535l22 140h2199l-22 -140h-2199z" />
    <glyph glyph-name="quoteleft" unicode="&#x2018;" horiz-adv-x="607" 
d="M291 1088q26 163 95.5 272.5t222.5 202.5l112 -89q-108 -70 -156 -134.5t-69 -167.5h120l-38 -239h-311z" />
    <glyph glyph-name="quoteright" unicode="&#x2019;" horiz-adv-x="611" 
d="M266 930q109 70 158 135t70 167h-120l38 236h313l-25 -153q-26 -163 -96 -271.5t-223 -201.5z" />
    <glyph glyph-name="quotesinglbase" unicode="&#x201a;" horiz-adv-x="614" 
d="M64 -348q111 70 160.5 136.5t70.5 169.5h-120l38 235h313l-25 -152q-25 -161 -95 -271t-221 -202z" />
    <glyph glyph-name="quotereversed" unicode="&#x201b;" horiz-adv-x="607" 
d="M494 842q-123 93 -157.5 201.5t-9.5 271.5l25 153h311l-38 -236h-120q-11 -103 16.5 -168t113.5 -134z" />
    <glyph glyph-name="quotedblleft" unicode="&#x201c;" horiz-adv-x="1069" 
d="M290 1082q27 170 101 288.5t224 206.5l115 -90q-95 -53 -150.5 -129t-80.5 -188h119l-37 -237h-314zM723 933l23 149q26 164 97.5 277t224.5 204l116 -87q-108 -71 -156.5 -137t-70.5 -169h116l-37 -237h-313z" />
    <glyph glyph-name="quotedblright" unicode="&#x201d;" horiz-adv-x="1064" 
d="M719 917q107 69 156 137.5t71 177.5h-119l38 236h313l-24 -148q-27 -170 -101 -289t-224 -205zM266 929q106 67 153.5 132.5t68.5 170.5h-120l38 236h317l-24 -148q-26 -166 -98 -279.5t-225 -202.5z" />
    <glyph glyph-name="quotedblbase" unicode="&#x201e;" horiz-adv-x="1067" 
d="M515 -361q108 69 158.5 139.5t72.5 180.5h-117l37 234h313l-24 -147q-26 -167 -99.5 -286t-222.5 -207zM64 -348q108 68 156 134t70 173h-120l37 234h317l-24 -147q-25 -162 -96.5 -275t-223.5 -204z" />
    <glyph glyph-name="uni201F" unicode="&#x201f;" horiz-adv-x="1068" 
d="M496 826q-122 86 -158.5 205.5t-9.5 288.5l24 148h314l-38 -236h-119q-13 -109 14.5 -177.5t112.5 -137.5zM784 1320l24 148h313l-38 -236h-116q-11 -103 16.5 -168.5t112.5 -134.5l-143 -91q-125 89 -160 202t-9 280z" />
    <glyph glyph-name="bullet" unicode="&#x2022;" horiz-adv-x="859" 
d="M239 377l71 453h587l-71 -453h-587z" />
    <glyph glyph-name="ellipsis" unicode="&#x2026;" horiz-adv-x="2066" 
d="M198 483l39 243h300l-39 -243h-300zM981 483l39 243h300l-39 -243h-300zM1767 483l39 243h297l-39 -243h-297z" />
    <glyph glyph-name="fraction" unicode="&#x2044;" horiz-adv-x="375" 
d="M-215 -10h-149l1169 1387h149z" />
    <glyph glyph-name="uni20B9" unicode="&#x20b9;" horiz-adv-x="1340" 
d="M858 -48l-654 531l20 125h115q196 0 323 58.5t172 172.5h-676l72 143h627q-10 80 -75 134t-172 54h-405l80 143h1245l-72 -143h-495q72 -83 75 -188h440l-72 -143h-392q-51 -150 -192 -242.5t-352 -115.5l637 -529h-249z" />
    <glyph glyph-name="trademark" unicode="&#x2122;" horiz-adv-x="1151" 
d="M248 1320l11 72h440l-11 -72h-182l-74 -465h-76l74 465h-182zM684 855l85 537h73l132 -456l275 456h71l-85 -537h-71l60 377l-228 -377h-71l-109 371l-59 -371h-73z" />
    <glyph glyph-name="arrowleft" unicode="&#x2190;" horiz-adv-x="2387" 
d="M904 293l-644 344l753 343l71 -123l-228 -147h1430l-23 -148h-1430l181 -147z" />
    <glyph glyph-name="arrowup" unicode="&#x2191;" horiz-adv-x="1435" 
d="M604 -172l194 1228l-225 -164l-150 63l535 541l356 -541l-163 -63l-176 164l-194 -1228h-177z" />
    <glyph glyph-name="arrowright" unicode="&#x2192;" horiz-adv-x="2389" 
d="M1576 293l-69 122l226 147h-1431l23 148h1431l-179 147l108 123l646 -343z" />
    <glyph glyph-name="arrowdown" unicode="&#x2193;" horiz-adv-x="1435" 
d="M684 -232l-363 542l170 63l173 -164l194 1227h177l-194 -1227l228 164l143 -63z" />
    <glyph glyph-name="arrowboth" unicode="&#x2194;" horiz-adv-x="2546" 
d="M835 296l-575 341l683 342l74 -113l-213 -156h1163l-162 156l110 113l573 -342l-681 -341l-74 112l211 154h-1163l164 -154z" />
    <glyph glyph-name="arrowupdn" unicode="&#x2195;" horiz-adv-x="1442" 
d="M683 -221l-372 452l143 75l201 -152l152 957l-249 -152l-120 75l515 452l381 -452l-147 -75l-203 152l-152 -957l251 152l124 -75z" />
    <glyph glyph-name="uni2215" unicode="&#x2215;" horiz-adv-x="1389" 
d="M34 -279l1354 1768h185l-1357 -1768h-182z" />
    <glyph glyph-name="asteriskmath" unicode="&#x2217;" horiz-adv-x="1498" 
d="M686 125l66 417l-477 -246l-95 102l530 275l-443 274l127 102l404 -247l66 417h163l-66 -419l485 252l84 -108l-526 -271l442 -274l-125 -104l-399 245l-66 -415h-170z" />
    <glyph glyph-name="uniF8FF" unicode="&#xf8ff;" horiz-adv-x="1542" 
d="M758 60q-151 0 -279.5 75.5t-203 204.5t-74.5 280q0 152 75 280.5t203.5 203t280.5 74.5q151 0 279.5 -75t203.5 -203.5t75 -279.5q0 -152 -74.5 -281t-203.5 -204t-282 -75zM200 -164h59q50 0 71 34q10 16 10 39q0 47 -37 64q-18 9 -44 9h-59v-146zM235 -137v93h22
q31 0 43 -20q5 -9 5 -27q0 -32 -22 -42q-8 -4 -26 -4h-22zM268 621q0 -205 144 -350t348 -145q203 0 347.5 144.5t144.5 347.5q0 100 -39 191.5t-104.5 157.5t-156 105t-190.5 40q-134 0 -248 -65.5t-180 -178.5t-66 -247zM352 -109q0 -36 30 -50q16 -7 33 -7q31 0 45 16
q8 7 10 17l-31 3q-5 -9 -14 -12q-3 -1 -10 -1q-18 0 -25 13q-3 5 -3 13h85v8q0 27 -18 42q-16 14 -42 14q-36 0 -52 -27q-8 -13 -8 -29zM387 -98q2 13 12 19q4 3 14 3q17 0 23 -12l3 -10h-52zM442 719q10 -2 12 -4q52 -21 98 -27q41 -3 72 2q43 11 47 12q3 0 8.5 2.5
t7.5 3.5q-5 2 -16.5 8t-17 9t-13 8.5t-13.5 12.5h19q39 0 75 19q65 40 136 61q24 8 58 11q4 0 19.5 1t23.5 0q54 -2 89 -33q10 -11 28 -33v-2l-6 2q-45 17 -83 3.5t-62 -53.5q-7 -13 -25 -55q-9 -21 -27 -63.5t-20 -48.5q-33 -64 -65 -101q-27 -33 -66 -58q-45 -34 -116 -55
h-4h-1l24 22q12 11 25 44q41 116 45 127q24 73 57 131v3q-2 -4 -11 -13q-8 -10 -10 -12q-23 -36 -31 -57q-2 -6 -8 -6q-99 3 -177 67q-40 38 -59 55q-1 1 -5 7t-8 10zM481 -132q5 -34 56 -34q35 0 48 18q7 9 7 18q0 24 -36 30l-22 3q-16 4 -16 12q0 11 19 11q17 0 21 -14
l31 3q-5 32 -53 32q-33 0 -46 -16q-6 -7 -6 -18q0 -25 36 -31l21 -4q16 -3 16 -11q0 -11 -20 -11q-18 0 -23 14zM605 -25q0 -15 19 -15q18 0 18 15t-18 15q-19 0 -19 -15zM607 -164h34v109h-34v-109zM656 -109q0 -35 25 -48q12 -5 25 -5q18 0 29 9q5 5 7 8h1v-19
q0 -21 -25 -21q-16 0 -21 6l-6 6l-31 -3q7 -31 57 -31q37 0 52 19q9 9 9 23v110h-35v-18h-1q-6 12 -18 17q-8 3 -18 3q-30 0 -43 -25q-7 -11 -7 -31zM691 -109q0 21 12 28q8 4 15 4q16 0 22 -15q3 -7 3 -17q0 -30 -25 -30q-18 0 -24 14q-3 6 -3 16zM798 -164h34v64
q0 13 11 19q6 3 13 3q21 0 21 -22v-64h35v70q0 26 -20 36q-10 5 -23 5q-27 0 -37 -21v19h-34v-109zM927 -109q0 -34 28 -50q17 -7 33 -7q38 0 54 27q7 13 7 30q0 33 -28 49q-13 7 -33 7q-38 0 -54 -27q-7 -14 -7 -29zM962 -109q0 21 12 28q7 5 14 5q16 0 24 -16q3 -15 3 -17
q0 -20 -12 -29q-5 -4 -15 -4q-16 0 -23 15q-3 9 -3 18zM1051 -55l43 -109h39l43 109h-36l-26 -78h-1l-26 78h-36zM1177 -133q0 -21 21 -29q8 -4 21 -4q18 0 27 9q4 2 9 9v-16h33v74q0 20 -15 28q-17 9 -37 9q-30 0 -45 -15q-7 -6 -10 -17l32 -3q5 13 22 13q19 0 19 -14v-1
q0 -7 -13 -7l-17 -3q-19 0 -32 -8q-15 -8 -15 -25zM1210 -133q0 9 9 12q5 3 12 3q19 3 23 5v-11q0 -13 -12 -18q-6 -3 -14 -3q-18 0 -18 12zM1267 -16q0 16 11 26.5t27 10.5t26.5 -10.5t10.5 -26.5t-10.5 -27t-26.5 -11t-27 11t-11 27zM1279 -16q0 -11 7.5 -19t18.5 -8
t18.5 8t7.5 19t-7.5 18.5t-18.5 7.5t-18.5 -7.5t-7.5 -18.5zM1292 -33v35h14q12 0 12 -11q0 -5 -5 -10l8 -14h-10l-6 11h-5v-11h-8zM1300 -13h6q5 0 5 3t-5 3h-6v-6z" />
    <glyph glyph-name="_Designova" horiz-adv-x="1692" 
d="M844 -121q-174 0 -322.5 87t-235 235.5t-86.5 323.5q1 131 52 250.5t137.5 205.5t206 137t250.5 51q175 0 323.5 -86t235.5 -234.5t87 -323.5q0 -176 -87 -324.5t-236 -235t-325 -86.5zM278 525q0 -116 45 -221.5t120.5 -181.5t181 -121t221.5 -45q154 0 285 76t207 207
t76 285q0 116 -45 221.5t-120.5 181.5t-180.5 121t-221 45t-221 -45t-181.5 -120.5t-121.5 -181t-45 -221.5zM480 638q7 0 13 -4q58 -22 115 -31q45 -5 81 3q29 4 53 14q5 0 11.5 3t8.5 4q-5 3 -22.5 11.5t-27.5 15.5t-19 17h21q39 0 86 20q85 53 158 73q37 10 66 10
q6 0 24.5 1.5t26.5 0.5q67 -4 102 -39q6 -5 33 -37v-2q-3 2 -7 2q-53 20 -95.5 4.5t-71.5 -59.5q-5 -9 -10 -20.5t-11 -25t-9 -21.5q-6 -14 -25 -59t-30 -68q-36 -74 -74 -119q-20 -27 -74 -66q-52 -38 -136 -63h-7l28 24q18 17 30 51q7 20 25 71t27 78q31 90 65 150v1
q-3 -3 -11 -13q-9 -7 -11 -16q-23 -27 -38 -65q-3 -5 -9 -5q-117 5 -204 78q-10 10 -32.5 31t-33.5 32q-12 14 -16 18z" />
    <glyph glyph-name="_Origin" horiz-adv-x="2239" 
d="M142 929v50h1955v-50h-1955zM142 110v50h1955v-50h-1955zM220 311v177h42v-177h-42zM252 608v177h148v-32h-107v-39h97v-31h-97v-42h107v-33h-148zM290 311v177h34l89 -107v107h40v-177h-33l-88 109v-109h-42zM430 608v177h34l88 -107v107h40v-177h-33l-88 109v-109h-41z
M546 311v177h87q72 0 72 -45q0 -28 -26 -40q3 0 3 -2q28 -12 28 -42q0 -48 -71 -48h-93zM588 342h48q32 0 32 22t-32 22h-48v-44zM588 419h42q33 0 33 20q0 22 -33 22h-42v-42zM621 753v32h156v-32h-57v-145h-41v145h-58zM730 311v177h148v-33h-107v-38h96v-31h-96v-41h105
v-34h-146zM795 785h44l40 -124l42 124h38l40 -126l42 126h39l-57 -177h-45l-39 121l-41 -121h-43zM906 311v177h81q28 0 42 -6q36 -19 36 -57q0 -21 -10 -35q-15 -18 -29 -23l37 -56h-43l-35 50h-37v-50h-42zM948 394h37q38 0 38 31q0 30 -38 30h-37v-61zM1085 311v177h40
v-143h106v-34h-146zM1088 697q0 39 28 65q26 26 69 26t69 -26q28 -25 28 -65q0 -39 -28 -65q-26 -27 -68 -27q-44 0 -70 27q-28 28 -28 65zM1130 697q0 -25 15.5 -40.5t39.5 -15.5t39.5 15.5t15.5 40.5t-15.5 41.5t-39.5 16.5t-39.5 -16.5t-15.5 -41.5zM1260 311v177h41
v-177h-41zM1305 608v177h81q28 0 41 -6q36 -17 36 -57q0 -21 -10 -35q-9 -15 -29 -23l39 -56h-45l-33 50h-39v-50h-41zM1330 311v177h35l87 -107v107h42v-177h-34l-89 109v-109h-41zM1346 691h37q38 0 38 31t-38 31h-37v-62zM1483 608v177h148v-32h-107v-39h96v-31h-96v-75
h-41zM1520 335q0 24 25 24q10 0 17 -7t7 -17q0 -11 -7 -25l-14 -38h-26l12 41q-14 5 -14 22zM1647 608v177h147v-32h-106v-39h95v-31h-95v-42h106v-33h-147zM1670 311v177h80q30 0 52 -11q46 -21 46 -77q0 -28 -12 -47q-23 -42 -86 -42h-80zM1712 345h37q17 0 31 7
q26 14 26 48q0 21 -6 29q-14 26 -51 26h-37v-110zM1824 608v177h33l90 -107v107h40v-177h-34l-89 109v-109h-40zM1872 311v177h147v-33h-107v-38h97v-31h-97v-41h106v-34h-146z" />
    <glyph glyph-name="_VendorID" horiz-adv-x="1116" 
d="M73 -4v1187h974v-1187h-974zM76 -95q0 13 7.5 20.5t18.5 7.5q9 0 12 -3l4 -5v26h13v-72h-13v9l-4 -7q-8 -5 -15 -5q-23 0 -23 29zM90 -95q0 -17 13 -17q15 0 15 17v1q0 18 -13 18q-15 0 -15 -19zM126 47h869v1084h-869v-1084zM141 -95q0 13 7.5 20.5t19.5 7.5
q11 0 18.5 -7.5t7.5 -19.5q0 -2 -2 -5h-37q1 -13 13 -13q10 0 12 9h12q-4 -21 -24 -21q-27 0 -27 29zM155 -91h25q-3 15 -12 15q-12 0 -13 -15zM198 -106h14q3 -9 9 -9q9 0 9 7q0 3 -12 9q-18 5 -18 16q0 16 21 16t21 -16h-14q-1 7 -7 7q-7 0 -7 -6q0 -4 12 -9q17 -5 17 -15
q0 -18 -22 -18q-20 0 -23 18zM240 297q0 59 46 125l97 137h64l-84 -120q11 3 23 3q62 0 102.5 -41.5t40.5 -103.5q0 -61 -41.5 -103.5t-101.5 -42.5q-61 0 -103.5 42.5t-42.5 103.5zM240 768q0 56 46 123l97 142h64l-84 -122q7 2 23 2q63 0 103 -41t40 -104
q0 -61 -41 -102.5t-102 -41.5t-103.5 42t-42.5 102zM251 -56q0 7 8 7t8 -7q0 -8 -8 -8t-8 8zM252 -121v54h14v-54h-14zM276 -95q0 28 26 28q9 0 12 -3l4 -5v8h14v-41q0 -8 -2 -11q0 -24 -27 -24q-26 0 -26 18v1h14v-1q0 -8 12 -8q11 0 15 13v8l-4 -7q-8 -2 -14 -2
q-24 0 -24 26zM291 -94q0 -18 12 -18q15 0 15 17v1q0 18 -15 18q-12 0 -12 -18zM294 297q0 -42 25.5 -68t66.5 -26q39 0 64.5 26t25.5 68q0 40 -25.5 65t-64.5 25q-41 0 -66.5 -25t-25.5 -65zM294 768q0 -41 25.5 -67t66.5 -26q39 0 64.5 26.5t25.5 66.5t-25.5 66t-64.5 26
q-41 0 -66.5 -25t-25.5 -67zM343 -121v54h14v-10l4 7q5 3 13 3q17 0 20 -15q1 -3 1 -9v-30h-15v34q0 11 -10 11q-13 0 -13 -21v-24h-14zM402 -95q0 13 7.5 20.5t19.5 7.5q28 0 28 -28q0 -29 -28 -29q-12 0 -19.5 8t-7.5 21zM416 -95q0 -17 13 -17q15 0 15 17q0 19 -15 19
q-13 0 -13 -19zM462 -67h14l14 -45l13 45h14l-19 -54h-18zM522 -106q0 16 30 16h3v7q0 7 -9 7q-11 0 -11 -9h-13q0 18 24 18q19 0 21 -15v-39h-12v6l-3 -5q-8 -4 -14 -4q-16 0 -16 18zM535 -106q0 -6 8 -6q12 0 12 9v6q-20 2 -20 -9zM576 -78v9h6v8q0 15 19 15h6v-11
q-11 2 -11 -5v-7h11v-9h-11v-43h-14v43h-6zM589 297q0 62 44 125l97 137h66l-86 -120q10 3 25 3q61 0 102 -41.5t41 -103.5q0 -61 -41.5 -103.5t-101.5 -42.5q-61 0 -103.5 42.5t-42.5 103.5zM589 768q0 57 44 123l97 142h66l-87 -122q8 2 26 2q61 0 102 -41.5t41 -103.5
q0 -61 -41.5 -102.5t-101.5 -41.5q-61 0 -103.5 41.5t-42.5 102.5zM611 -95q0 28 28 28q27 0 27 -28q0 -29 -27 -29q-28 0 -28 29zM625 -95q0 -17 14 -17q13 0 13 17q0 19 -13 19q-14 0 -14 -19zM642 297q0 -42 26 -68t67 -26q38 0 62.5 26t24.5 68q0 40 -24.5 65t-62.5 25
q-41 0 -67 -25t-26 -65zM642 768q0 -41 26 -67t67 -26q38 0 62.5 26t24.5 67q0 40 -24.5 66t-62.5 26q-41 0 -67 -25.5t-26 -66.5zM675 -121v54h12v-10l6 7q4 3 13 3q16 0 19 -15v-39h-14v34q-4 11 -9 11q-15 0 -15 -21v-24h-12zM732 -78v9h8v13h14v-13h10v-9h-10v-28
q2 -10 9 -6v-10h-8q-15 0 -15 10v34h-8zM768 -106h15q1 -9 10 -9q8 0 8 7q0 3 -12 9q-17 5 -17 16q0 16 20 16q19 0 24 -16h-16q0 7 -9 7q-5 0 -5 -6q0 -5 11 -9q19 -6 19 -15q0 -18 -23 -18q-21 0 -25 18zM820 -116q0 10 9 10t9 -10q0 -8 -9 -8t-9 8zM844 -95q0 13 8 20.5
t18 7.5q25 0 25 -20h-13q-3 11 -12 11q-12 0 -12 -19q0 -17 12 -17q10 0 12 9h13q-1 -21 -25 -21q-26 0 -26 29zM900 -95q0 28 29 28q26 0 26 -28q0 -29 -26 -29q-29 0 -29 29zM914 -95q0 -17 15 -17q13 0 13 17q0 19 -13 19q-15 0 -15 -19zM965 -121v54h14v-9l5 6q3 3 9 3
q13 0 18 -10l5 7q3 3 11 3q17 0 17 -12q1 -4 1 -12v-30h-13v27q0 2 -0.5 5t-0.5 4q0 9 -10 9q-9 0 -9 -18v-27h-13v36q-5 9 -10 9q-10 0 -10 -18v-27h-14z" />
    </font>
</defs>
</svg>
