<?xml version="1.0" standalone="no"?>
<!DOCTYPE svg PUBLIC "-//W3C//DTD SVG 1.1//EN" "http://www.w3.org/Graphics/SVG/1.1/DTD/svg11.dtd" >
<svg xmlns="http://www.w3.org/2000/svg" xmlns:xlink="http://www.w3.org/1999/xlink" version="1.1">
<metadata>
Created by FontForge 20170731 at Wed Nov 15 16:18:45 2023
 By Aleksey,,,
Copyright (c) 2023 by Designova. All rights reserved.
</metadata>
<defs>
<font id="LinearGrotesk-SemiBoldItalic" horiz-adv-x="1064" >
  <font-face 
    font-family="Linear Grotesk SemiBold Italic"
    font-weight="600"
    font-style="italic"
    font-stretch="normal"
    units-per-em="2048"
    panose-1="0 0 0 0 0 0 0 0 0 0"
    ascent="1638"
    descent="-410"
    x-height="991"
    cap-height="1365"
    bbox="-363 -481 2479 1918"
    underline-thickness="100"
    underline-position="-355"
    unicode-range="U+0020-F8FF"
  />
<missing-glyph horiz-adv-x="1327" 
d="M195 -32l212 1339h927l-212 -1339h-927zM374 248l310 389l-186 390zM418 107h524l-197 405zM586 1169l199 -408l326 408h-525zM844 637l188 -392l124 786z" />
    <glyph glyph-name=".notdef" horiz-adv-x="1327" 
d="M195 -32l212 1339h927l-212 -1339h-927zM374 248l310 389l-186 390zM418 107h524l-197 405zM586 1169l199 -408l326 408h-525zM844 637l188 -392l124 786z" />
    <glyph glyph-name=".null" horiz-adv-x="0" 
 />
    <glyph glyph-name="nonmarkingreturn" horiz-adv-x="682" 
 />
    <glyph glyph-name="space" unicode=" " horiz-adv-x="352" 
 />
    <glyph glyph-name="space" unicode="&#xa0;" horiz-adv-x="352" 
 />
    <glyph glyph-name="exclam" unicode="!" horiz-adv-x="598" 
d="M248 296l148 1008h219l-175 -1008h-192zM128 -74l42 263h318l-42 -263h-318z" />
    <glyph glyph-name="quotedbl" unicode="&#x22;" horiz-adv-x="1265" 
d="M713 886l341 587h275l-418 -587h-198zM308 886l340 587h275l-417 -587h-198z" />
    <glyph glyph-name="numbersign" unicode="#" horiz-adv-x="1395" 
d="M188 -54l124 361h-276l25 162h306l91 271h-281l26 163h311l123 358h189l-120 -358h378l123 358h188l-120 -358h275l-26 -163h-304l-93 -271h283l-25 -162h-311l-124 -361h-195l126 361h-375l-126 -361h-192zM559 469h377l92 271h-376z" />
    <glyph glyph-name="dollar" unicode="$" horiz-adv-x="1183" 
d="M497 -55q-84 11 -165.5 45.5t-150.5 94t-98 133.5l182 81q28 -79 137 -135.5t219 -56.5q168 0 257 44.5t105 145.5q5 34 -3 57q-8 37 -18 53t-42 35q-41 30 -63 42.5t-70 30.5q-61 23 -88 31l-94 29q-189 56 -280 144t-68 234q21 135 148 231t307 115l23 145h200
l-24 -148q88 -12 167 -51t127.5 -93t49.5 -107l-170 -63q-49 80 -120 116.5t-182 36.5q-150 0 -232 -48t-96 -135q-14 -84 47 -134t222 -99q4 -1 24 -7.5t29 -8.5q108 -33 203 -78q76 -36 117 -77q46 -41 72 -106.5t14 -139.5q-25 -158 -160.5 -250t-325.5 -109l-22 -140
h-200z" />
    <glyph glyph-name="percent" unicode="%" horiz-adv-x="2160" 
d="M312 -70l1496 1382h245l-1497 -1382h-244zM294 986q16 101 89.5 181.5t182 124.5t230.5 44q189 0 301 -98t88 -252q-16 -102 -89 -182t-181 -122.5t-230 -42.5q-119 0 -213.5 41.5t-144 122t-33.5 183.5zM489 986q-13 -83 48.5 -132.5t173.5 -49.5q111 0 187 49.5
t89 132.5q13 85 -45.5 135t-172.5 50q-113 0 -190 -50.5t-90 -134.5zM1177 259q24 152 168 250.5t331 98.5q123 0 217.5 -44t141.5 -124.5t31 -180.5q-24 -154 -169.5 -253t-331.5 -99q-118 0 -212.5 43t-143 124.5t-32.5 184.5zM1373 259q-14 -86 47.5 -135.5t171.5 -49.5
q111 0 189 50.5t91 134.5t-46.5 132.5t-175.5 48.5q-115 0 -189 -48.5t-88 -132.5z" />
    <glyph glyph-name="ampersand" unicode="&#x26;" horiz-adv-x="1294" 
d="M542 -25q-228 0 -346.5 111.5t-89.5 297.5q22 137 115 244.5t281 213.5q-68 104 -91 173.5t-12 140.5q22 137 127.5 223t252.5 86q143 0 218.5 -82.5t54.5 -214.5q-16 -105 -84 -192.5t-200 -174.5l259 -373q58 122 75 275h182q-31 -251 -155 -425l193 -278h-234l-95 135
q-203 -160 -451 -160zM289 384q-17 -110 55.5 -171t224.5 -61q207 0 333 114l-306 439q-156 -82 -224 -153.5t-83 -167.5zM583 1156q-6 -39 14 -85t81 -135q91 60 136 115t55 117q9 58 -22 90t-97 32q-69 0 -112.5 -35t-54.5 -99z" />
    <glyph glyph-name="quotesingle" unicode="'" horiz-adv-x="857" 
d="M308 886l339 587h275l-416 -587h-198z" />
    <glyph glyph-name="parenleft" unicode="(" horiz-adv-x="760" 
d="M503 -345q-368 384 -279 936q87 558 576 938l160 -74q-125 -107 -192.5 -178t-148.5 -187q-146 -202 -193 -499q-50 -313 50 -527q14 -30 22.5 -50t20.5 -42.5t16.5 -32.5t18 -31t17 -27t21.5 -30.5t24 -31.5t32.5 -41t37.5 -49z" />
    <glyph glyph-name="parenright" unicode=")" horiz-adv-x="760" 
d="M-7 -274q8 8 41 39q41 43 59 57q88 86 168 179q72 89 112 159q48 82 90.5 198t61.5 233q46 293 -35 496q-45 114 -92 187t-138 181l186 74q365 -380 278 -938q-87 -548 -575 -936z" />
    <glyph glyph-name="asterisk" unicode="*" horiz-adv-x="1490" 
d="M1109 170l-291 316l-380 -311l-157 102l384 298l-423 120l108 162l413 -127l40 338h221l-67 -338l456 127l54 -162l-462 -120l289 -296z" />
    <glyph glyph-name="plus" unicode="+" horiz-adv-x="1480" 
d="M667 140l62 388h-498l26 167h498l59 373h195l-59 -373h492l-26 -167h-492l-62 -388h-195z" />
    <glyph glyph-name="comma" unicode="," horiz-adv-x="779" 
d="M23 -382l341 585h271l-417 -585h-195z" />
    <glyph glyph-name="hyphen" unicode="-" horiz-adv-x="1314" 
d="M190 528l26 167h1102l-26 -167h-1102z" />
    <glyph glyph-name="period" unicode="." horiz-adv-x="588" 
d="M126 -61l42 264h316l-42 -264h-316z" />
    <glyph glyph-name="slash" unicode="/" horiz-adv-x="889" 
d="M-36 -175l946 1580h210l-947 -1580h-209z" />
    <glyph glyph-name="zero" unicode="0" horiz-adv-x="1122" 
d="M407 682q-26 -165 -19 -277q5 -123 55.5 -197.5t141.5 -74.5q145 0 232 172q77 152 113 377q37 237 4 387q-17 78 -63 120.5t-116 42.5q-92 0 -164 -77q-131 -140 -184 -473zM177 682q31 196 96.5 342t154.5 225q165 148 353 148q234 0 334 -187.5t46 -527.5
q-53 -333 -209 -523.5t-393 -190.5q-188 0 -306 148q-64 80 -85 223t9 343z" />
    <glyph glyph-name="one" unicode="1" horiz-adv-x="668" 
d="M397 0l185 1161l-368 -183l28 176l422 211h124l-216 -1365h-175z" />
    <glyph glyph-name="two" unicode="2" horiz-adv-x="1082" 
d="M237 1039q70 170 206.5 264t325.5 94q205 0 316 -105t83 -283q-33 -206 -300 -407q-123 -91 -202 -155l-30 -23q-29 -23 -51 -42q-57 -45 -84 -74q-85 -88 -120 -143h648l-26 -165h-920q21 137 147 292q48 59 136 136q136 121 309 247q19 13 34 26q201 151 227 310
q16 104 -36.5 162.5t-158.5 58.5q-108 0 -191 -64t-132 -180z" />
    <glyph glyph-name="three" unicode="3" horiz-adv-x="1150" 
d="M304 324q69 -191 278 -191q124 0 214.5 68t108.5 185q18 112 -59 179t-214 67q-66 0 -135 -4l26 163q41 -4 125 -4q114 0 199 63t101 167q15 93 -42 154t-161 61q-177 0 -289 -199l-177 51q68 143 200.5 228t304.5 85q206 0 314.5 -101t83.5 -259q-17 -107 -91.5 -190.5
t-177.5 -124.5q115 -33 180 -120.5t44 -215.5q-31 -194 -188 -306t-392 -112q-177 0 -296 83.5t-146 211.5z" />
    <glyph glyph-name="four" unicode="4" horiz-adv-x="1190" 
d="M111 292l26 162l825 925h195l-146 -922h196l-26 -165h-196l-48 -306h-224l48 306h-650zM351 457h436l68 428q17 104 39 193h-8q-53 -64 -82 -98q-59 -68 -61 -72z" />
    <glyph glyph-name="five" unicode="5" horiz-adv-x="1127" 
d="M326 305q25 -77 90 -124.5t153 -47.5q127 0 215.5 79t109.5 208q20 127 -47 207t-193 80q-151 0 -284 -124l-130 49l195 733h752l-26 -165h-547l-112 -394q116 66 256 66q194 0 297 -122t70 -326q-29 -182 -166 -312q-72 -68 -178 -106t-233 -38q-163 0 -269.5 73
t-148.5 201z" />
    <glyph glyph-name="six" unicode="6" horiz-adv-x="1123" 
d="M371 432q-21 -135 38.5 -217t178.5 -82q114 0 199.5 82.5t106.5 216.5q22 138 -37 218.5t-177 80.5q-114 0 -201 -84t-108 -215zM167 617q51 318 209 538q82 115 200.5 178.5t259.5 63.5q294 0 384 -270l-184 -55q-69 160 -225 160q-227 0 -350 -338q-29 -75 -50 -157
q50 71 137 115t190 44q200 0 308.5 -130.5t76.5 -331.5q-33 -204 -184 -335t-369 -131q-230 0 -338 145q-120 160 -65 504z" />
    <glyph glyph-name="seven" unicode="7" horiz-adv-x="1041" 
d="M931 1195h-698l27 170h958l-22 -137q-459 -541 -745 -1242h-230q230 607 710 1209z" />
    <glyph glyph-name="eight" unicode="8" horiz-adv-x="1148" 
d="M508 1017q-15 -95 40.5 -155.5t152.5 -60.5q98 0 171 61t88 155q14 92 -39 153.5t-152 61.5q-101 0 -174 -61.5t-87 -153.5zM128 373q21 131 112.5 221.5t217.5 129.5q-209 98 -176 302q17 106 89.5 191t184 132.5t239.5 47.5q196 0 309.5 -105t88.5 -266
q-17 -106 -90.5 -182t-185.5 -120q117 -38 179.5 -130t41.5 -223q-28 -179 -187 -291t-382 -112q-218 0 -344 110.5t-97 294.5zM362 383q-17 -108 48.5 -179t184.5 -71q118 0 207.5 71.5t106.5 178.5q17 106 -50 180.5t-184 74.5t-206.5 -73.5t-106.5 -181.5z" />
    <glyph glyph-name="nine" unicode="9" horiz-adv-x="1111" 
d="M443 936q-21 -131 39.5 -213t172.5 -82q111 0 196 83t105 212q21 127 -36.5 211.5t-171.5 84.5q-111 0 -198 -83.5t-107 -212.5zM109 241l194 55q66 -163 226 -163q170 0 270 157q92 144 123 336q-54 -67 -138 -108.5t-187 -41.5q-193 0 -302.5 127t-77.5 331t188 333.5
t367 129.5q175 0 282 -100.5t124 -268.5q9 -112 -17 -279q-60 -379 -225.5 -580t-435.5 -201q-149 0 -253.5 79t-137.5 194z" />
    <glyph glyph-name="colon" unicode=":" horiz-adv-x="588" 
d="M257 762l42 265h316l-42 -265h-316zM153 109l42 265h316l-42 -265h-316z" />
    <glyph glyph-name="semicolon" unicode=";" horiz-adv-x="739" 
d="M50 -213l341 587h271l-417 -587h-195zM362 762l42 265h315l-42 -265h-315z" />
    <glyph glyph-name="less" unicode="&#x3c;" horiz-adv-x="1391" 
d="M1105 -46l-869 587l17 112l1056 591l107 -128l-923 -518l760 -517z" />
    <glyph glyph-name="equal" unicode="=" horiz-adv-x="1423" 
d="M269 686l26 168h1102l-26 -168h-1102zM219 374l26 165h1102l-26 -165h-1102z" />
    <glyph glyph-name="greater" unicode="&#x3e;" horiz-adv-x="1388" 
d="M270 -46l-107 127l918 517l-755 515l148 131l866 -591l-17 -112z" />
    <glyph glyph-name="question" unicode="?" horiz-adv-x="1095" 
d="M489 369q16 96 74.5 177.5t139.5 136.5q49 33 89 58q9 6 24 15q13 11 22 14q64 44 99.5 86.5t44.5 95.5q17 108 -41 162.5t-198 54.5q-116 0 -202 -52.5t-166 -171.5l-171 58q85 155 240 244t326 89q217 0 329 -105t85 -278q-14 -86 -72.5 -161.5t-139.5 -131.5l-131 -88
q-135 -91 -153 -205l-14 -89h-199zM358 -74l42 263h317l-42 -263h-317z" />
    <glyph glyph-name="at" unicode="@" horiz-adv-x="1755" 
d="M1791 670q-34 -213 -159 -356t-279 -144l84 -120q-260 -222 -587 -222q-135 0 -253 41t-204.5 115t-145.5 176.5t-76.5 226t1.5 263.5q22 136 81.5 262t149 226t200.5 174.5t241.5 114.5t264.5 40q232 0 400.5 -101.5t243.5 -283.5t38 -412zM348 650q-21 -136 8.5 -257
t100 -207.5t180 -137t240.5 -50.5q124 0 243 44.5t218 127.5q-74 3 -124.5 33t-69.5 83q-128 -108 -303 -108q-150 0 -225 78t-54 210q20 127 123.5 207.5t275.5 102.5l153 19q55 8 90 18q5 82 -35 120t-131 38q-107 0 -163.5 -50t-52.5 -141h-180q4 158 123 260t301 102
q173 0 255 -91.5t56 -253.5l-62 -391q-5 -36 10.5 -52t54.5 -16q82 0 147 92t88 240q29 180 -29 323.5t-189.5 224t-313.5 80.5q-130 0 -255 -51t-223.5 -137.5t-167 -206.5t-89.5 -253zM735 467q-9 -59 27 -89.5t115 -30.5q119 0 198.5 78t101.5 216v3q-84 -14 -175 -24
l-52 -6q-196 -23 -215 -147z" />
    <glyph glyph-name="A" unicode="A" horiz-adv-x="1393" 
d="M738 905l-209 -387h496l-84 387q-1 7 -8 40t-19.5 96.5t-25.5 132.5h-13zM15 0l771 1365h253l339 -1365h-241l-80 356h-611l-190 -356h-241z" />
    <glyph glyph-name="B" unicode="B" horiz-adv-x="1237" 
d="M742 0h-646l216 1365h571q233 0 339 -94t79 -262q-31 -200 -243 -289q104 -32 161.5 -120t38.5 -208q-27 -170 -167.5 -281t-348.5 -111zM346 172h380q114 0 199 59t101 159q15 99 -48 164t-188 65h-373zM444 787h323q121 0 203 53t97 152q15 95 -41.5 148t-187.5 53
h-330z" />
    <glyph glyph-name="C" unicode="C" horiz-adv-x="1360" 
d="M177 682q52 326 267 520.5t512 194.5q183 0 304 -88.5t168 -231.5l-202 -58q-98 207 -300 207q-197 0 -338.5 -148.5t-180.5 -395.5q-39 -248 56 -394.5t291 -146.5q122 0 228.5 64.5t170.5 165.5l193 -56q-79 -124 -222 -228q-76 -56 -179 -87.5t-215 -31.5
q-144 0 -258.5 49t-189 139.5t-103 225.5t-2.5 300z" />
    <glyph glyph-name="D" unicode="D" horiz-adv-x="1319" 
d="M531 0h-435l216 1365h439q341 0 499.5 -177t106.5 -506q-46 -292 -241 -481q-99 -96 -249.5 -148.5t-335.5 -52.5zM346 171h187q509 0 590 511q81 513 -424 513h-191z" />
    <glyph glyph-name="E" unicode="E" horiz-adv-x="1181" 
d="M1096 0h-1000l216 1365h983l-27 -172h-760l-64 -402h685l-26 -169h-685l-72 -450h777z" />
    <glyph glyph-name="F" unicode="F" horiz-adv-x="1098" 
d="M319 0h-223l216 1365h953l-27 -172h-730l-67 -423h657l-27 -169h-657z" />
    <glyph glyph-name="G" unicode="G" horiz-adv-x="1403" 
d="M177 682q51 318 267 516.5t525 198.5q108 0 200.5 -32t149.5 -85q98 -91 136 -198l-200 -56q-53 99 -125 149.5t-188 50.5q-210 0 -353 -148.5t-182 -395.5q-39 -249 57.5 -395t294.5 -146q168 0 282 91.5t143 233.5q8 28 21 117h-391l27 171h608l-119 -754h-156l8 161
q-157 -193 -455 -193q-144 0 -258.5 50.5t-188 141.5t-101.5 225.5t-2 296.5z" />
    <glyph glyph-name="H" unicode="H" horiz-adv-x="1296" 
d="M319 0h-223l216 1365h223l-91 -578h658l91 578h223l-216 -1365h-223l98 617h-658z" />
    <glyph glyph-name="I" unicode="I" horiz-adv-x="415" 
d="M319 0h-223l216 1365h223z" />
    <glyph glyph-name="J" unicode="J" horiz-adv-x="957" 
d="M254 309q16 -75 66.5 -121.5t126.5 -46.5q215 0 257 270l151 954h222l-155 -979q-32 -203 -160 -310.5t-335 -107.5q-161 0 -256.5 75.5t-118.5 198.5z" />
    <glyph glyph-name="K" unicode="K" horiz-adv-x="1251" 
d="M319 0h-223l216 1365h223l-103 -650h6l726 650h286l-679 -593l484 -772h-273l-375 628l-219 -193z" />
    <glyph glyph-name="L" unicode="L" horiz-adv-x="1067" 
d="M1020 0h-924l216 1365h223l-189 -1193h701z" />
    <glyph glyph-name="M" unicode="M" horiz-adv-x="1609" 
d="M319 0h-223l216 1365h278l264 -1015h6l588 1015h281l-216 -1365h-223l165 1042l-550 -956h-173l-249 951z" />
    <glyph glyph-name="N" unicode="N" horiz-adv-x="1306" 
d="M319 0h-223l216 1365h240l483 -1041l165 1041h226l-216 -1365h-241l-485 1042z" />
    <glyph glyph-name="O" unicode="O" horiz-adv-x="1430" 
d="M177 682q51 322 259 518.5t501 196.5t437.5 -196.5t93.5 -520.5q-52 -324 -258.5 -518t-498.5 -194q-194 0 -327 87.5t-187 249.5t-20 377zM408 682q-40 -250 48 -395.5t282 -145.5q192 0 326 144t174 395q39 251 -47.5 398.5t-280.5 147.5q-193 0 -327.5 -146.5
t-174.5 -397.5z" />
    <glyph glyph-name="P" unicode="P" horiz-adv-x="1221" 
d="M319 0h-223l216 1365h588q230 0 345 -112t86 -300q-30 -189 -182 -300t-375 -111h-369zM432 711h335q141 0 227.5 62.5t105.5 179.5q19 119 -47.5 179.5t-211.5 60.5h-333z" />
    <glyph glyph-name="Q" unicode="Q" horiz-adv-x="1432" 
d="M177 680q51 324 259.5 520.5t500.5 196.5q293 0 437.5 -196.5t93.5 -520.5q-51 -317 -251 -511l145 -158l-149 -105l-141 154q-163 -92 -361 -92q-294 0 -439.5 195.5t-94.5 516.5zM408 680q-40 -249 49 -394t281 -145q115 0 210 53l-213 231l147 107l203 -221
q117 142 153 369q40 253 -49 399.5t-279 146.5q-192 0 -327 -147t-175 -399z" />
    <glyph glyph-name="R" unicode="R" horiz-adv-x="1263" 
d="M96 0l217 1367h596q224 0 338 -112.5t86 -288.5q-31 -197 -202 -307q89 -96 74 -293q-13 -105 -5 -181t56 -185h-249q-31 64 -35.5 137.5t6.5 215.5q5 56 -0.5 92t-28 63t-68 39t-118.5 12h-356l-89 -559h-222zM430 711h335q141 0 228 62.5t106 179.5q19 119 -47.5 179.5
t-213.5 60.5h-332z" />
    <glyph glyph-name="S" unicode="S" horiz-adv-x="1227" 
d="M301 341q43 -92 139 -146t222 -54q136 0 230.5 59.5t110.5 157.5q16 105 -78 167q-72 47 -220 94q-221 70 -297 115q-172 103 -142 292q26 167 186.5 269t394.5 102q185 0 311 -77t172 -202l-198 -59q-96 167 -313 167q-134 0 -221 -54t-101 -144q-10 -69 43 -121
q36 -35 74.5 -56t70.5 -31.5t143 -43.5q26 -8 44 -15q93 -29 153.5 -57.5t116.5 -72.5q122 -95 95 -264q-29 -184 -195 -291.5t-410 -107.5q-206 0 -346.5 83.5t-193.5 227.5z" />
    <glyph glyph-name="T" unicode="T" horiz-adv-x="1196" 
d="M677 1193h-449l27 172h1118l-27 -172h-446l-189 -1193h-223z" />
    <glyph glyph-name="U" unicode="U" horiz-adv-x="1302" 
d="M176 504l136 861h225l-136 -859q-29 -180 43.5 -272.5t226.5 -92.5q158 0 261 94.5t130 270.5l136 859h224l-136 -861q-41 -258 -205 -397t-437 -139q-265 0 -387.5 137.5t-80.5 398.5z" />
    <glyph glyph-name="V" unicode="V" horiz-adv-x="1283" 
d="M511 0l-280 1365h245l192 -1157h9l561 1157h246l-715 -1365h-258z" />
    <glyph glyph-name="W" unicode="W" horiz-adv-x="1759" 
d="M354 0l-133 1365h240l56 -1145h9l452 1145h232l93 -1145h10l418 1145h239l-564 -1365h-257l-88 1118h-10l-440 -1118h-257z" />
    <glyph glyph-name="X" unicode="X" horiz-adv-x="1301" 
d="M290 0h-264l603 701l-364 664h269l248 -512h7l410 512h268l-573 -664l383 -701h-264l-273 545h-7z" />
    <glyph glyph-name="Y" unicode="Y" horiz-adv-x="1306" 
d="M629 557l-405 808h260l280 -641h4l481 641h264l-659 -808l-88 -557h-225z" />
    <glyph glyph-name="Z" unicode="Z" horiz-adv-x="1265" 
d="M78 0l23 146l978 1047h-748l27 172h1025l-23 -149l-980 -1044h834l-27 -172h-1109z" />
    <glyph glyph-name="bracketleft" unicode="[" horiz-adv-x="703" 
d="M97 -292l280 1771h495l-26 -166h-298l-228 -1442h298l-26 -163h-495z" />
    <glyph glyph-name="backslash" unicode="\" horiz-adv-x="849" 
d="M623 -175l-408 1580h205l409 -1580h-206z" />
    <glyph glyph-name="bracketright" unicode="]" horiz-adv-x="708" 
d="M20 -292l26 163h299l228 1442h-299l26 166h499l-280 -1771h-499z" />
    <glyph glyph-name="asciicircum" unicode="^" horiz-adv-x="1227" 
d="M160 794l616 654h134l409 -654h-238l-272 441l-29 -28l-383 -413h-237z" />
    <glyph glyph-name="underscore" unicode="_" horiz-adv-x="935" 
d="M-65 -196l26 167h1004l-26 -167h-1004z" />
    <glyph glyph-name="a" unicode="a" 
d="M302 270q-10 -61 37.5 -100t138.5 -39q128 0 227 73.5t117 189.5l17 107q-89 -18 -245 -40q-137 -21 -208 -66.5t-84 -124.5zM78 255q45 277 524 343q190 25 260 43l8 55q13 80 -44 126t-165 46q-190 0 -344 -139l-117 102q99 90 225 140.5t257 50.5q454 0 391 -400
l-99 -622h-210l22 137q-45 -71 -146 -120t-218 -49q-179 0 -271.5 79.5t-72.5 207.5z" />
    <glyph glyph-name="b" unicode="b" horiz-adv-x="1116" 
d="M301 0h-210l224 1412h213l-88 -553q53 70 139.5 116.5t185.5 46.5q207 0 315 -142.5t70 -382.5q-21 -134 -80 -240.5t-140 -167.5q-159 -121 -329 -121q-101 0 -176.5 50t-101.5 124zM380 497q-27 -166 33.5 -265.5t181.5 -99.5q123 0 215 97.5t119 267.5
q26 167 -33.5 263.5t-185.5 96.5q-121 0 -213 -99t-117 -261z" />
    <glyph glyph-name="c" unicode="c" horiz-adv-x="1030" 
d="M123 495q38 239 199.5 383t387.5 144q155 0 253.5 -81.5t113.5 -200.5l-190 -45q-17 72 -69 117t-132 45q-130 0 -222 -101t-118 -261q-26 -166 37 -264.5t188 -98.5q85 0 163.5 51.5t119.5 125.5l174 -48q-59 -122 -194 -207.5t-291 -85.5q-225 0 -341 144t-79 383z" />
    <glyph glyph-name="d" unicode="d" horiz-adv-x="1116" 
d="M124 497q38 240 191 382.5t360 142.5q97 0 169 -46.5t103 -114.5l88 551h215l-224 -1412h-209l23 144q-53 -76 -143 -126t-189 -50q-175 0 -294 121q-62 61 -86.5 167.5t-3.5 240.5zM344 497q-27 -167 34 -266t185 -99q119 0 211 99.5t119 265.5q25 162 -34.5 261
t-180.5 99q-128 0 -218 -98t-116 -262z" />
    <glyph glyph-name="e" unicode="e" horiz-adv-x="1093" 
d="M124 501q37 233 203 377t388 144t338 -142.5t80 -367.5l-19 -81h-783q-20 -130 48 -217.5t208 -87.5q94 0 175.5 41t131.5 111l172 -55q-75 -116 -205.5 -185.5t-300.5 -69.5q-232 0 -353 146t-83 387zM358 569h564q21 129 -41.5 213t-190.5 84q-126 0 -217.5 -85.5
t-114.5 -211.5z" />
    <glyph glyph-name="f" unicode="f" horiz-adv-x="645" 
d="M313 826h-176l26 165h176l19 121q24 150 118 225t248 75h166l-26 -163h-135q-133 0 -157 -151l-17 -107h241l-26 -165h-241l-131 -826h-216z" />
    <glyph glyph-name="g" unicode="g" horiz-adv-x="1093" 
d="M347 515q-25 -159 31 -251t175 -92q122 0 205.5 89.5t109.5 253.5q25 160 -30 251t-171 91q-122 0 -209 -94t-111 -248zM54 -234l157 90q102 -121 267 -121q117 0 203 82.5t111 217.5q1 7 5 27.5t6 34.5q3 14 11 58q-52 -67 -132.5 -107.5t-171.5 -40.5
q-209 0 -314 139.5t-70 365.5q37 232 186 371t351 139q104 0 172.5 -46.5t89.5 -114.5l21 130h213l-136 -860q-45 -283 -184 -416.5t-390 -133.5q-278 0 -395 185z" />
    <glyph glyph-name="h" unicode="h" horiz-adv-x="1065" 
d="M304 0h-213l224 1412h213l-86 -540h4q53 66 142.5 108t185.5 42q169 0 250.5 -94t50.5 -290l-101 -638h-211l97 611q39 246 -151 246q-112 0 -204 -84t-110 -201z" />
    <glyph glyph-name="i" unicode="i" horiz-adv-x="396" 
d="M502 1163h-240l35 221h240zM93 0l157 991h213l-157 -991h-213z" />
    <glyph glyph-name="j" unicode="j" horiz-adv-x="426" 
d="M531 1163h-246l35 221h246zM-149 -399l26 165h40q163 0 195 204l162 1021h213l-163 -1029q-28 -177 -130 -269t-268 -92h-75z" />
    <glyph glyph-name="k" unicode="k" horiz-adv-x="1004" 
d="M306 0h-215l224 1412h215l-135 -849l487 428h274l-464 -400l339 -591h-255l-245 455l-177 -153z" />
    <glyph glyph-name="l" unicode="l" horiz-adv-x="398" 
d="M307 0h-216l224 1412h216z" />
    <glyph glyph-name="m" unicode="m" horiz-adv-x="1631" 
d="M308 0h-217l157 991h210l-20 -127q43 64 129 111t187 47q189 0 242 -191q31 49 114 112q103 79 257 79q335 0 274 -384l-101 -638h-219l100 630q19 118 -8.5 172.5t-120.5 54.5q-102 0 -180.5 -76.5t-97.5 -193.5l-93 -587h-214l100 634q36 223 -129 223
q-110 0 -183.5 -72t-92.5 -193z" />
    <glyph glyph-name="n" unicode="n" horiz-adv-x="1071" 
d="M308 0h-217l157 991h210l-22 -138h2q38 66 134 117.5t214 51.5q168 0 247.5 -93t47.5 -291l-101 -638h-217l97 611q39 246 -150 246q-111 0 -201.5 -81t-108.5 -198z" />
    <glyph glyph-name="o" unicode="o" horiz-adv-x="1102" 
d="M343 495q-27 -171 39.5 -267t188.5 -96q121 0 218 96.5t124 266.5q27 172 -39.5 267t-187.5 95q-122 0 -219 -95t-124 -267zM123 495q24 146 95 261q73 120 203 193t291 73q159 0 264 -70.5t143.5 -188t14.5 -268.5q-31 -193 -161 -346q-72 -84 -183 -132.5t-245 -48.5
t-228 47t-139 130q-85 156 -55 350z" />
    <glyph glyph-name="p" unicode="p" horiz-adv-x="1116" 
d="M380 497q-26 -166 32 -265.5t183 -99.5q122 0 214.5 99t119.5 266q26 164 -32.5 262t-186.5 98q-124 0 -214.5 -99.5t-115.5 -260.5zM26 -412l222 1403h205l-23 -144q56 80 144.5 127.5t190.5 47.5q204 0 313 -144t72 -381q-21 -130 -79.5 -237t-138.5 -169
q-156 -123 -334 -123q-106 0 -176.5 46t-96.5 119l-86 -545h-213z" />
    <glyph glyph-name="q" unicode="q" horiz-adv-x="1116" 
d="M344 497q-27 -167 33.5 -266t184.5 -99q123 0 213 100t116 265q25 161 -33 260.5t-181 99.5q-130 0 -219 -98.5t-114 -261.5zM124 497q37 237 190 381t359 144q99 0 171.5 -47.5t107.5 -127.5l23 144h208l-222 -1403h-215l86 545q-53 -73 -139 -119t-187 -46
q-175 0 -296 123q-61 62 -84 168t-2 238z" />
    <glyph glyph-name="r" unicode="r" horiz-adv-x="726" 
d="M308 0h-217l157 991h205l-19 -119q49 63 129.5 106.5t175.5 43.5q89 0 144 -21l-29 -178q-59 22 -143 22q-127 0 -211.5 -87.5t-108.5 -236.5z" />
    <glyph glyph-name="s" unicode="s" horiz-adv-x="983" 
d="M242 285q93 -159 282 -159q99 0 165.5 36.5t76.5 96.5q12 76 -109 127q-37 16 -179 57q-70 23 -115 43t-88 52q-97 72 -76 199q20 128 151 206.5t319 78.5q133 0 240 -63.5t150 -161.5l-156 -79q-89 146 -259 146q-99 0 -159 -35.5t-69 -94.5q-8 -56 45 -99
q14 -14 64 -35q55 -22 152 -49q170 -49 247 -122.5t62 -171.5q-20 -126 -151 -207.5t-332 -81.5q-152 0 -266 63t-164 172z" />
    <glyph glyph-name="t" unicode="t" horiz-adv-x="691" 
d="M320 826h-178l26 165h178l48 301h214l-48 -301h265l-26 -165h-265l-82 -517q-12 -76 17 -110t100 -34h125l-26 -165h-153q-326 0 -279 296z" />
    <glyph glyph-name="u" unicode="u" 
d="M147 355l101 636h217l-96 -605q-41 -254 160 -254q116 0 197 86t101 214l89 559h214l-157 -991h-206l21 131h-3q-41 -66 -128.5 -114.5t-204.5 -48.5q-77 0 -138 23t-105 68.5t-61 121t-1 174.5z" />
    <glyph glyph-name="v" unicode="v" horiz-adv-x="1037" 
d="M395 0l-236 991h238l146 -826h4l407 826h238l-548 -991h-249z" />
    <glyph glyph-name="w" unicode="w" horiz-adv-x="1495" 
d="M306 0l-143 991h232l62 -805h7l323 805h233l68 -805h9l315 805h233l-456 -991h-250l-65 782h-7l-312 -782h-249z" />
    <glyph glyph-name="x" unicode="x" horiz-adv-x="1075" 
d="M272 0h-255l475 509l-300 482h261l184 -347h6l290 347h260l-447 -482l312 -509h-255l-202 376h-6z" />
    <glyph glyph-name="y" unicode="y" horiz-adv-x="1034" 
d="M422 13l-263 978h240l160 -768h6l388 768h236l-642 -1132q-84 -147 -184 -209t-238 -62h-71l25 159h38q83 0 143 37t109 125z" />
    <glyph glyph-name="z" unicode="z" horiz-adv-x="1062" 
d="M981 0h-896l20 128l704 698h-544l26 165h827l-19 -122l-711 -705h619z" />
    <glyph glyph-name="braceleft" unicode="{" horiz-adv-x="921" 
d="M593 -290q-112 0 -183 66.5t-52 186.5l51 324q19 117 -6.5 165t-101.5 48h-116l26 163h116q80 0 118.5 46.5t58.5 171.5l54 345q18 114 108.5 183.5t202.5 69.5h220l-26 -166h-203q-48 0 -72 -22.5t-33 -79.5l-55 -343q-29 -187 -155 -286q95 -93 67 -274l-50 -317
q-11 -69 5.5 -93.5t69.5 -24.5h198l-26 -163h-216z" />
    <glyph glyph-name="braceright" unicode="}" horiz-adv-x="921" 
d="M20 -290l26 163h199q54 0 79.5 24.5t36.5 93.5l51 326q13 82 52.5 151t97.5 114q-92 94 -64 279l56 350q9 57 -8.5 79.5t-67.5 22.5h-204l26 166h220q114 0 182.5 -68.5t49.5 -184.5l-54 -345q-19 -120 5.5 -169t100.5 -49h115l-26 -163h-115q-73 0 -115 -49t-58 -154
l-53 -334q-19 -118 -111 -185.5t-205 -67.5h-216z" />
    <glyph glyph-name="asciitilde" unicode="~" horiz-adv-x="1683" 
d="M1174 396q-86 0 -156.5 27t-112.5 70q-44 39 -71 67q-72 65 -165 65q-83 0 -155 -44t-154 -146l-157 74q199 280 493 280q164 0 272 -93q13 -9 27 -27q9 -6 21 -20l1 -1q1 -1 3 -1l5 -5l6 -5l2 -4l1 -1l2 -2q1 0 5 -4q73 -66 159 -66q85 0 156 51q51 40 73 61t82 88
l157 -75q-53 -64 -101.5 -110.5t-109.5 -90t-132.5 -66t-150.5 -22.5z" />
    <glyph glyph-name="exclamdown" unicode="&#xa1;" horiz-adv-x="596" 
d="M123 -431l172 1008h192l-146 -1008h-218zM248 683l42 263h316l-42 -263h-316z" />
    <glyph glyph-name="cent" unicode="&#xa2;" horiz-adv-x="1130" 
d="M492 -88q-205 23 -308.5 166.5t-68.5 361.5q33 209 180 355t364 170l22 139h199l-23 -145q129 -25 209.5 -101.5t88.5 -181.5l-191 -48q-8 80 -74.5 128.5t-173.5 48.5q-165 0 -271.5 -97t-133.5 -268q-28 -173 50 -271t239 -98q112 0 207 54.5t139 134.5l173 -57
q-63 -103 -175.5 -181.5t-251.5 -104.5l-23 -146h-199z" />
    <glyph glyph-name="sterling" unicode="&#xa3;" horiz-adv-x="1484" 
d="M957 -93q-76 0 -187 31q-105 25 -161 25q-68 0 -162 -11t-157 -25l-114 -21l-60 158q138 11 219 86.5t99 187.5l30 195h-255l27 168h255l41 261q29 180 167.5 277t346.5 97q162 0 271.5 -72t129.5 -177l-170 -71q-32 83 -90.5 118t-162.5 35q-137 0 -207.5 -49
t-88.5 -161l-41 -258h530l-27 -168h-530l-30 -195q-19 -120 -89 -215q48 6 105 6q96 0 194 -29q93 -26 146 -26q193 0 328 77l55 -155q-165 -89 -412 -89z" />
    <glyph glyph-name="currency" unicode="&#xa4;" horiz-adv-x="1593" 
d="M1157 287q-143 -69 -320 -69t-298 71l-266 -170l-135 102l279 187q-60 94 -42 212q20 121 108 214l-215 175l162 116l216 -173q139 71 318 71q172 0 297 -73l264 176l129 -119l-273 -174q64 -97 45 -213q-18 -116 -112 -211l218 -184l-165 -109zM572 620
q-17 -104 61.5 -170t229.5 -66q148 0 249 66t118 170t-63.5 171t-228.5 67q-147 0 -248 -66.5t-118 -171.5z" />
    <glyph glyph-name="yen" unicode="&#xa5;" horiz-adv-x="1471" 
d="M629 -61l53 332h-447l26 163h447l9 60h-447l26 165h336l-430 644h245l330 -498q1 -3 17 -25l2 -4q6 -6 12 -19q1 -2 5.5 -9t7.5 -11q2 -2 4.5 -6t3.5 -6t4 -5.5t4 -5.5q5 -6 7 -12l3 -4l2 3l10 9q8 8 11 12q18 19 46 47.5t34 34.5l484 499h249l-631 -644h327l-26 -165
h-439l-9 -60h439l-26 -163h-439l-53 -332h-197z" />
    <glyph glyph-name="copyright" unicode="&#xa9;" horiz-adv-x="1744" 
d="M865 -27q-205 0 -358 98t-222.5 270t-36.5 381q25 155 104 293.5t192.5 237.5t259 156.5t297.5 57.5q206 0 360 -97.5t223.5 -268.5t36.5 -379q-33 -209 -156.5 -381t-308.5 -270t-391 -98zM424 722q-26 -163 26 -295t168 -207t274 -75q159 0 299.5 74.5t234 206.5
t119.5 296q26 162 -26 294t-168.5 207t-275.5 75q-156 0 -296.5 -75.5t-234.5 -207.5t-120 -293zM596 716q31 194 164 316t313 122q145 0 231.5 -92.5t73.5 -238.5h-181q1 156 -152 156q-102 0 -176.5 -72.5t-92.5 -188.5q-18 -113 30.5 -183.5t145.5 -70.5q162 0 218 152
h182q-38 -144 -158.5 -237t-269.5 -93q-174 0 -265.5 121t-62.5 309z" />
    <glyph glyph-name="ordfeminine" unicode="&#xaa;" horiz-adv-x="836" 
d="M127 546l21 129h756l-21 -129h-756zM225 929q31 197 369 244q139 19 192 34l6 39q10 63 -32.5 101t-125.5 38q-66 0 -133.5 -28.5t-117.5 -76.5l-73 64q68 64 158 101t178 37q313 0 268 -283l-71 -448h-126l17 107q-33 -55 -107.5 -92.5t-161.5 -37.5q-126 0 -190 55.5
t-50 145.5zM359 939q-8 -47 30.5 -79t108.5 -32q95 0 170.5 57t89.5 144l14 88q-62 -14 -189 -30q-206 -32 -224 -148z" />
    <glyph glyph-name="guillemotleft" unicode="&#xab;" horiz-adv-x="1081" 
d="M492 -25l-339 450l485 447l154 -84l-393 -363l274 -364zM495 425l483 446l151 -86l-390 -360l274 -362l-179 -87z" />
    <glyph glyph-name="logicalnot" unicode="&#xac;" horiz-adv-x="1339" 
d="M1038 158l56 354h-881l26 166h1079l-82 -520h-198z" />
    <glyph glyph-name="uni00AD" unicode="&#xad;" horiz-adv-x="1271" 
d="M190 528l26 167h1059l-26 -167h-1059z" />
    <glyph glyph-name="registered" unicode="&#xae;" horiz-adv-x="926" 
d="M561 618q-171 0 -266.5 117.5t-67.5 291.5q27 174 160 291.5t303 117.5t266 -117t68 -292t-160.5 -292t-302.5 -117zM302 1027q-23 -145 54 -240t217 -95q139 0 246 95t130 240t-54 241t-216 96t-246.5 -96t-130.5 -241zM430 803l73 462h179q76 0 115 -37.5t29 -103.5
q-7 -46 -36.5 -82.5t-74.5 -52.5l67 -186h-84l-59 166h-106l-26 -166h-77zM545 1040h101q40 0 66 21t32 57t-13.5 54t-61.5 18h-101z" />
    <glyph glyph-name="plusminus" unicode="&#xb1;" horiz-adv-x="1449" 
d="M673 286l56 349h-478l26 167h478l55 349h195l-55 -349h475l-26 -167h-475l-56 -349h-195zM169 85l27 166h1137l-27 -166h-1137z" />
    <glyph glyph-name="uni00B2" unicode="&#xb2;" horiz-adv-x="670" 
d="M255 1302q93 223 321 223q124 0 188.5 -62t47.5 -168q-18 -114 -176 -240q-70 -58 -138 -108q-73 -54 -118 -116h356l-19 -118h-544q17 106 86.5 186t270.5 231q109 81 123 165q8 53 -18 82t-80 29q-50 0 -90 -29q-19 -14 -31.5 -25.5t-22 -27.5t-13 -24.5t-13.5 -32.5z
" />
    <glyph glyph-name="uni00B3" unicode="&#xb3;" horiz-adv-x="670" 
d="M303 924q42 -110 148 -110q65 0 111 34t56 95q10 57 -31 91.5t-114 34.5q-35 0 -87 -4l19 122q60 -4 84 -4q61 0 104 30.5t52 85.5q8 47 -20.5 77.5t-81.5 30.5q-95 0 -156 -115l-123 36q92 197 303 197q122 0 187 -60.5t50 -154.5q-18 -114 -133 -174q128 -59 106 -193
q-18 -116 -110 -182t-232 -66q-106 0 -176 49.5t-88 137.5z" />
    <glyph glyph-name="uni00B5" unicode="&#xb5;" horiz-adv-x="1164" 
d="M16 -473l224 1412h201l-99 -626q-19 -120 29.5 -181t179.5 -61q162 0 263.5 83t123.5 217l90 568h195l-159 -1000h-194l12 71q-157 -103 -365 -103q-143 0 -231 56l-69 -436h-201z" />
    <glyph glyph-name="periodcentered" unicode="&#xb7;" horiz-adv-x="587" 
d="M209 461l42 266h315l-42 -266h-315z" />
    <glyph glyph-name="uni00B9" unicode="&#xb9;" horiz-adv-x="582" 
d="M351 717l97 608l-178 -99l26 165l219 127h100l-126 -801h-138z" />
    <glyph glyph-name="ordmasculine" unicode="&#xba;" horiz-adv-x="836" 
d="M390 1111q-20 -128 29.5 -201.5t145.5 -73.5q93 0 166.5 74t93.5 201q20 128 -29.5 202.5t-142.5 74.5q-95 0 -169 -73.5t-94 -203.5zM127 546l21 129h756l-21 -129h-756zM254 1111q26 166 137.5 272.5t277.5 106.5q162 0 240 -107t52 -272q-21 -136 -117 -250
q-49 -59 -126.5 -93t-168.5 -34q-187 0 -256 124q-61 110 -39 253z" />
    <glyph glyph-name="guillemotright" unicode="&#xbb;" horiz-adv-x="1078" 
d="M573 -25l-151 86l387 364l-279 363l181 84l342 -447zM83 65l384 360l-273 360l178 86l341 -446l-481 -452z" />
    <glyph glyph-name="questiondown" unicode="&#xbf;" horiz-adv-x="1093" 
d="M464 -461q-215 0 -329 105.5t-87 276.5q14 88 73.5 164t141.5 130l12 7q4 3 14 9t13 8q12 9 13 10q7 2 14 9q10 6 29.5 19.5t27.5 18.5q2 2 9 4q0 2 2 2q1 0 1 1q1 0 1 2q131 87 149 203l14 87h196l-14 -89q-15 -96 -75 -177.5t-142 -138.5q-2 0 -5 -3q-5 -1 -7 -4
q-7 -4 -27 -19q-18 -10 -47 -30q-5 -3 -21.5 -13.5t-27.5 -16.5q-127 -82 -143 -181q-17 -108 41 -162.5t197 -54.5q119 0 207.5 52.5t166.5 171.5l167 -59q-88 -157 -240 -244.5t-324 -87.5zM397 302l1 1zM514 685l42 261h316l-42 -261h-316z" />
    <glyph glyph-name="Agrave" unicode="&#xc0;" horiz-adv-x="1393" 
d="M738 905l-209 -387h496l-84 387q-1 7 -8 40t-19.5 96.5t-25.5 132.5h-13zM15 0l771 1365h253l339 -1365h-241l-80 356h-611l-190 -356h-241zM623 1813h267l171 -323h-184z" />
    <glyph glyph-name="Aacute" unicode="&#xc1;" horiz-adv-x="1393" 
d="M738 905l-209 -387h496l-84 387q-1 7 -8 40t-19.5 96.5t-25.5 132.5h-13zM15 0l771 1365h253l339 -1365h-241l-80 356h-611l-190 -356h-241zM779 1490l274 323h266l-356 -323h-184z" />
    <glyph glyph-name="Acircumflex" unicode="&#xc2;" horiz-adv-x="1393" 
d="M738 905l-209 -387h496l-84 387q-1 7 -8 40t-19.5 96.5t-25.5 132.5h-13zM15 0l771 1365h253l339 -1365h-241l-80 356h-611l-190 -356h-241zM505 1490l382 315h189l288 -315h-227l-172 213l-234 -213h-226z" />
    <glyph glyph-name="Atilde" unicode="&#xc3;" horiz-adv-x="1393" 
d="M738 905l-209 -387h496l-84 387q-37 169 -53 269h-13q-28 -58 -137 -269zM15 0l771 1365h253l339 -1365h-241l-80 356h-611l-190 -356h-241zM488 1605q140 167 315 167q72 0 162 -54t129 -54q104 0 188 108l107 -84q-149 -170 -313 -170q-74 0 -161 57q-88 56 -130 56
q-48 0 -99.5 -30.5t-87.5 -78.5z" />
    <glyph glyph-name="Adieresis" unicode="&#xc4;" horiz-adv-x="1393" 
d="M738 905l-209 -387h496l-84 387q-1 7 -8 40t-19.5 96.5t-25.5 132.5h-13zM15 0l771 1365h253l339 -1365h-241l-80 356h-611l-190 -356h-241zM599 1551l32 206h241l-32 -206h-241zM1042 1551l32 206h239l-32 -206h-239z" />
    <glyph glyph-name="Aring" unicode="&#xc5;" horiz-adv-x="1393" 
d="M738 905l-209 -387h496l-84 387q-1 7 -8 40t-19.5 96.5t-25.5 132.5h-13zM15 0l771 1365h253l339 -1365h-241l-80 356h-611l-190 -356h-241zM669 1666q17 105 112 178.5t221 73.5q125 0 196.5 -74t54.5 -178q-17 -108 -113.5 -182t-218.5 -74q-123 0 -196 74t-56 182z
M819 1666q-9 -55 26 -91.5t97 -36.5q60 0 104.5 35.5t53.5 92.5q8 55 -25 91t-93 36q-62 0 -108.5 -37t-54.5 -90z" />
    <glyph glyph-name="AE" unicode="&#xc6;" horiz-adv-x="2004" 
d="M1152 1175l-507 -657h421l104 657h-18zM15 0l1053 1365h1050l-27 -170h-696l-64 -404h621l-27 -171h-632l-71 -449h725l-27 -171h-936l56 355h-518l-270 -355h-237z" />
    <glyph glyph-name="Ccedilla" unicode="&#xc7;" horiz-adv-x="1360" 
d="M177 682q52 326 267 520.5t512 194.5q183 0 304 -88.5t168 -231.5l-202 -58q-98 207 -300 207q-197 0 -338.5 -148.5t-180.5 -395.5q-39 -248 56 -394.5t291 -146.5q122 0 228.5 64.5t170.5 165.5l193 -56q-79 -124 -222 -228q-120 -89 -295 -112l-21 -47
q86 -11 128.5 -51.5t32.5 -102.5q-13 -80 -101 -133t-237 -53q-97 0 -185 24l19 123q97 -22 181 -22q59 0 104.5 18.5t51.5 54.5q6 38 -47.5 55.5t-166.5 16.5l50 115q-166 20 -280.5 109t-163.5 244t-17 356z" />
    <glyph glyph-name="Egrave" unicode="&#xc8;" horiz-adv-x="1181" 
d="M1096 0h-1000l216 1365h983l-27 -172h-760l-64 -402h685l-26 -169h-685l-72 -450h777zM537 1813h267l173 -323h-188z" />
    <glyph glyph-name="Eacute" unicode="&#xc9;" horiz-adv-x="1181" 
d="M1096 0h-1000l216 1365h983l-27 -172h-760l-64 -402h685l-26 -169h-685l-72 -450h777zM660 1490l273 323h267l-357 -323h-183z" />
    <glyph glyph-name="Ecircumflex" unicode="&#xca;" horiz-adv-x="1181" 
d="M616 1490h-226l381 315h188l289 -315h-228l-171 213zM96 0l216 1365h983l-27 -172h-760l-64 -402h685l-26 -169h-685l-72 -450h777l-27 -172h-1000z" />
    <glyph glyph-name="Edieresis" unicode="&#xcb;" horiz-adv-x="1181" 
d="M1096 0h-1000l216 1365h983l-27 -172h-760l-64 -402h685l-26 -169h-685l-72 -450h777zM484 1551l32 206h242l-32 -206h-242zM928 1551l32 206h240l-32 -206h-240z" />
    <glyph glyph-name="Igrave" unicode="&#xcc;" horiz-adv-x="515" 
d="M394 0h-223l216 1365h223zM216 1813h268l171 -323h-185z" />
    <glyph glyph-name="Iacute" unicode="&#xcd;" horiz-adv-x="529" 
d="M368 0h-223l216 1365h223zM332 1490l275 323h266l-357 -323h-184z" />
    <glyph glyph-name="Icircumflex" unicode="&#xce;" horiz-adv-x="543" 
d="M383 0h-223l216 1365h223zM80 1490l382 315h187l288 -315h-225l-172 213l-234 -213h-226z" />
    <glyph glyph-name="Idieresis" unicode="&#xcf;" horiz-adv-x="441" 
d="M332 0h-223l216 1365h223zM126 1551l32 206h240l-32 -206h-240zM568 1551l32 206h241l-32 -206h-241z" />
    <glyph glyph-name="Eth" unicode="&#xd0;" horiz-adv-x="1385" 
d="M597 0h-435l97 611h-163l25 162h163l94 592h439q341 0 499.5 -177t106.5 -506q-46 -292 -241 -481q-99 -96 -249.5 -148.5t-335.5 -52.5zM412 171h187q509 0 590 511q81 513 -424 513h-191l-67 -422h390l-25 -162h-390z" />
    <glyph glyph-name="Ntilde" unicode="&#xd1;" horiz-adv-x="1306" 
d="M456 1605q138 167 315 167q72 0 162 -54t130 -54q103 0 187 108l107 -84q-146 -170 -313 -170q-74 0 -161 57q-88 56 -131 56q-47 0 -98.5 -30.5t-87.5 -78.5zM96 0l216 1365h240l483 -1041l165 1041h226l-216 -1365h-241l-485 1042l-165 -1042h-223z" />
    <glyph glyph-name="Ograve" unicode="&#xd2;" horiz-adv-x="1430" 
d="M177 682q51 322 259 518.5t501 196.5t437.5 -196.5t93.5 -520.5q-52 -324 -258.5 -518t-498.5 -194q-194 0 -327 87.5t-187 249.5t-20 377zM408 682q-40 -250 48 -395.5t282 -145.5q192 0 326 144t174 395q39 251 -47.5 398.5t-280.5 147.5q-193 0 -327.5 -146.5
t-174.5 -397.5zM647 1825h266l171 -323h-184z" />
    <glyph glyph-name="Oacute" unicode="&#xd3;" horiz-adv-x="1430" 
d="M177 682q51 322 259 518.5t501 196.5t437.5 -196.5t93.5 -520.5q-52 -324 -258.5 -518t-498.5 -194q-194 0 -327 87.5t-187 249.5t-20 377zM408 682q-40 -250 48 -395.5t282 -145.5q192 0 326 144t174 395q39 251 -47.5 398.5t-280.5 147.5q-193 0 -327.5 -146.5
t-174.5 -397.5zM810 1502l273 323h267l-356 -323h-184z" />
    <glyph glyph-name="Ocircumflex" unicode="&#xd4;" horiz-adv-x="1430" 
d="M177 682q51 322 259 518.5t501 196.5t437.5 -196.5t93.5 -520.5q-52 -324 -258.5 -518t-498.5 -194q-194 0 -327 87.5t-187 249.5t-20 377zM408 682q-40 -250 48 -395.5t282 -145.5q192 0 326 144t174 395q39 251 -47.5 398.5t-280.5 147.5q-193 0 -327.5 -146.5
t-174.5 -397.5zM526 1502l381 315h190l288 -315h-228l-171 213l-233 -213h-227z" />
    <glyph glyph-name="Otilde" unicode="&#xd5;" horiz-adv-x="1430" 
d="M520 1605q138 167 314 167q73 0 163 -54q89 -54 130 -54q102 0 186 108l109 -84q-147 -170 -313 -170q-75 0 -161 57q-88 56 -131 56q-48 0 -99.5 -30.5t-86.5 -78.5zM177 682q51 322 259 518.5t501 196.5t437.5 -196.5t93.5 -520.5q-52 -324 -258.5 -518t-498.5 -194
q-194 0 -327 87.5t-187 249.5t-20 377zM408 682q-40 -250 48 -395.5t282 -145.5q192 0 326 144t174 395q39 251 -47.5 398.5t-280.5 147.5q-193 0 -327.5 -146.5t-174.5 -397.5z" />
    <glyph glyph-name="Odieresis" unicode="&#xd6;" horiz-adv-x="1430" 
d="M177 682q51 322 259 518.5t501 196.5t437.5 -196.5t93.5 -520.5q-52 -324 -258.5 -518t-498.5 -194q-194 0 -327 87.5t-187 249.5t-20 377zM408 682q-40 -250 48 -395.5t282 -145.5q192 0 326 144t174 395q39 251 -47.5 398.5t-280.5 147.5q-193 0 -327.5 -146.5
t-174.5 -397.5zM620 1551l32 206h241l-32 -206h-241zM1062 1551l32 206h241l-32 -206h-241z" />
    <glyph glyph-name="multiply" unicode="&#xd7;" horiz-adv-x="1481" 
d="M310 171l-133 116l507 319l-394 322l163 118l395 -332l503 332l128 -118l-496 -322l410 -325l-171 -110l-408 327z" />
    <glyph glyph-name="Oslash" unicode="&#xd8;" horiz-adv-x="1432" 
d="M177 682q51 321 260 518t500 197q166 0 288 -67l102 137h192l-172 -231q180 -197 123 -554q-52 -325 -259 -519.5t-500 -194.5q-155 0 -265 55l-104 -136h-190l169 223q-203 198 -144 572zM408 682q-39 -249 50 -390l646 878q-82 56 -194 56q-193 0 -327.5 -146.5
t-174.5 -397.5zM567 181q65 -40 171 -40q192 0 326.5 145t174.5 396q36 226 -36 367z" />
    <glyph glyph-name="Ugrave" unicode="&#xd9;" horiz-adv-x="1302" 
d="M176 504l136 861h225l-136 -859q-29 -180 43.5 -272.5t226.5 -92.5q158 0 261 94.5t130 270.5l136 859h224l-136 -861q-41 -258 -205 -397t-437 -139q-265 0 -387.5 137.5t-80.5 398.5zM592 1825h267l171 -323h-185z" />
    <glyph glyph-name="Uacute" unicode="&#xda;" horiz-adv-x="1302" 
d="M176 504l136 861h225l-136 -859q-29 -180 43.5 -272.5t226.5 -92.5q158 0 261 94.5t130 270.5l136 859h224l-136 -861q-41 -258 -205 -397t-437 -139q-265 0 -387.5 137.5t-80.5 398.5zM735 1502l275 323h265l-355 -323h-185z" />
    <glyph glyph-name="Ucircumflex" unicode="&#xdb;" horiz-adv-x="1302" 
d="M176 504l136 861h225l-136 -859q-29 -180 43.5 -272.5t226.5 -92.5q158 0 261 94.5t130 270.5l136 859h224l-136 -861q-41 -258 -205 -397t-437 -139q-265 0 -387.5 137.5t-80.5 398.5zM464 1502l381 315h190l288 -315h-228l-171 213l-233 -213h-227z" />
    <glyph glyph-name="Udieresis" unicode="&#xdc;" horiz-adv-x="1302" 
d="M176 504l136 861h225l-136 -859q-29 -180 43.5 -272.5t226.5 -92.5q158 0 261 94.5t130 270.5l136 859h224l-136 -861q-41 -258 -205 -397t-437 -139q-265 0 -387.5 137.5t-80.5 398.5zM559 1551l32 206h242l-32 -206h-242zM1001 1551l32 206h242l-32 -206h-242z" />
    <glyph glyph-name="Yacute" unicode="&#xdd;" horiz-adv-x="1306" 
d="M734 1502l274 323h266l-357 -323h-183zM224 1365h260l280 -641h4l481 641h264l-659 -808l-88 -557h-225l88 557z" />
    <glyph glyph-name="Thorn" unicode="&#xde;" horiz-adv-x="1178" 
d="M315 0h-223l216 1365h223l-35 -223h185q299 0 411 -136q102 -124 73 -305q-35 -218 -202 -332t-428 -114h-180zM382 425h159q345 0 389 278q22 134 -52 201t-243 67h-166z" />
    <glyph glyph-name="germandbls" unicode="&#xdf;" horiz-adv-x="1202" 
d="M319 0h-223l159 1004q29 186 175 289.5t353 103.5q217 0 332.5 -100.5t89.5 -270.5q-33 -201 -223 -292v-3q131 -37 195 -130t41 -234q-29 -183 -172.5 -291t-361.5 -108q-148 0 -259 36l33 177q111 -40 246 -40q104 0 186.5 64t97.5 162q20 124 -49.5 191.5t-211.5 67.5
h-137l27 169h117q91 0 157 60.5t82 160.5q14 94 -42.5 152t-168.5 58q-114 0 -191.5 -64t-94.5 -172z" />
    <glyph glyph-name="agrave" unicode="&#xe0;" 
d="M302 270q-10 -61 37.5 -100t138.5 -39q128 0 227 73.5t117 189.5l17 107q-89 -18 -245 -40q-137 -21 -208 -66.5t-84 -124.5zM78 255q45 277 524 343q190 25 260 43l8 55q13 80 -44 126t-165 46q-190 0 -344 -139l-117 102q99 90 225 140.5t257 50.5q454 0 391 -400
l-99 -622h-210l22 137q-45 -71 -146 -120t-218 -49q-179 0 -271.5 79.5t-72.5 207.5zM435 1474h265l172 -323h-185z" />
    <glyph glyph-name="aacute" unicode="&#xe1;" 
d="M302 270q-10 -61 37.5 -100t138.5 -39q128 0 227 73.5t117 189.5l17 107q-89 -18 -245 -40q-137 -21 -208 -66.5t-84 -124.5zM78 255q45 277 524 343q190 25 260 43l8 55q13 80 -44 126t-165 46q-190 0 -344 -139l-117 102q99 90 225 140.5t257 50.5q454 0 391 -400
l-99 -622h-210l22 137q-45 -71 -146 -120t-218 -49q-179 0 -271.5 79.5t-72.5 207.5zM521 1157l276 324h266l-359 -324h-183z" />
    <glyph glyph-name="acircumflex" unicode="&#xe2;" 
d="M302 270q-10 -61 37.5 -100t138.5 -39q128 0 227 73.5t117 189.5l17 107q-89 -18 -245 -40q-137 -21 -208 -66.5t-84 -124.5zM78 255q45 277 524 343q190 25 260 43l8 55q13 80 -44 126t-165 46q-190 0 -344 -139l-117 102q99 90 225 140.5t257 50.5q454 0 391 -400
l-99 -622h-210l22 137q-45 -71 -146 -120t-218 -49q-179 0 -271.5 79.5t-72.5 207.5zM274 1157l381 315h188l289 -315h-228l-171 214l-233 -214h-226z" />
    <glyph glyph-name="atilde" unicode="&#xe3;" 
d="M302 270q-10 -61 37.5 -100t138.5 -39q128 0 227 73.5t117 189.5l17 107q-89 -18 -245 -40q-137 -21 -208 -66.5t-84 -124.5zM78 255q45 277 524 343q190 25 260 43l8 55q13 80 -44 126t-165 46q-190 0 -344 -139l-117 102q99 90 225 140.5t257 50.5q454 0 391 -400
l-99 -622h-210l22 137q-45 -71 -146 -120t-218 -49q-179 0 -271.5 79.5t-72.5 207.5zM280 1253q138 167 314 167q74 0 163 -55q88 -55 129 -55q102 0 188 110l107 -85q-144 -170 -312 -170q-73 0 -162 56q-88 56 -129 56q-50 0 -101.5 -30.5t-85.5 -78.5z" />
    <glyph glyph-name="adieresis" unicode="&#xe4;" 
d="M302 270q-10 -61 37.5 -100t138.5 -39q128 0 227 73.5t117 189.5l17 107q-89 -18 -245 -40q-137 -21 -208 -66.5t-84 -124.5zM78 255q45 277 524 343q190 25 260 43l8 55q13 80 -44 126t-165 46q-190 0 -344 -139l-117 102q99 90 225 140.5t257 50.5q454 0 391 -400
l-99 -622h-210l22 137q-45 -71 -146 -120t-218 -49q-179 0 -271.5 79.5t-72.5 207.5zM366 1213l33 205h241l-33 -205h-241zM808 1213l33 205h241l-33 -205h-241z" />
    <glyph glyph-name="aring" unicode="&#xe5;" 
d="M302 270q-10 -61 37.5 -100t138.5 -39q128 0 227 73.5t117 189.5l17 107q-89 -18 -245 -40q-137 -21 -208 -66.5t-84 -124.5zM78 255q45 277 524 343q190 25 260 43l8 55q13 80 -44 126t-165 46q-190 0 -344 -139l-117 102q99 90 225 140.5t257 50.5q454 0 391 -400
l-99 -622h-210l22 137q-45 -71 -146 -120t-218 -49q-179 0 -271.5 79.5t-72.5 207.5zM447 1361q16 104 111 178t221 74q127 0 197.5 -74t54.5 -178q-17 -108 -112.5 -181.5t-219.5 -73.5q-122 0 -196 73t-56 182zM597 1361q-9 -56 25.5 -92t96.5 -36q61 0 105 35.5t54 92.5
q8 55 -24.5 91.5t-93.5 36.5q-62 0 -108.5 -38t-54.5 -90z" />
    <glyph glyph-name="ae" unicode="&#xe6;" horiz-adv-x="1786" 
d="M79 259q44 275 536 340q197 28 246 40q1 2 4 29q1 22 3 30q11 73 -45 121.5t-157 48.5q-192 0 -351 -141l-119 103q99 91 228 141.5t270 50.5q255 0 337 -168q159 168 388 168q212 0 327 -144t80 -366q0 -4 -7 -39q-6 -25 -9 -42h-772l-4 -30q-10 -114 57 -194.5
t193 -80.5q187 0 303 152l171 -55q-74 -116 -205.5 -185.5t-299.5 -69.5q-276 0 -376 220q-193 -220 -455 -220q-179 0 -271.5 79t-71.5 212zM302 270q-9 -59 37.5 -99t132.5 -40q129 0 229 74t118 187l17 109q-112 -23 -227 -38q-142 -19 -218 -65t-89 -128zM1060 567h556
q22 126 -41.5 212.5t-179.5 86.5q-113 0 -198.5 -72t-126.5 -188z" />
    <glyph glyph-name="ccedilla" unicode="&#xe7;" horiz-adv-x="1030" 
d="M123 495q38 239 199.5 383t387.5 144q155 0 253.5 -81.5t113.5 -200.5l-190 -45q-17 72 -69 117t-132 45q-130 0 -222 -101t-118 -261q-26 -166 37 -264.5t188 -98.5q85 0 163.5 51.5t119.5 125.5l174 -48q-52 -106 -163.5 -186.5t-245.5 -100.5l-23 -47
q88 -11 131 -51.5t33 -104.5q-13 -80 -102 -133t-238 -53q-96 0 -187 25l20 123q95 -22 182 -22q58 0 104 18.5t52 54.5q6 38 -47.5 55.5t-167.5 16.5l54 123q-173 36 -256 173t-51 343z" />
    <glyph glyph-name="egrave" unicode="&#xe8;" horiz-adv-x="1093" 
d="M124 501q37 233 203 377t388 144t338 -142.5t80 -367.5l-19 -81h-783q-20 -130 48 -217.5t208 -87.5q94 0 175.5 41t131.5 111l172 -55q-75 -116 -205.5 -185.5t-300.5 -69.5q-232 0 -353 146t-83 387zM358 569h564q21 129 -41.5 213t-190.5 84q-126 0 -217.5 -85.5
t-114.5 -211.5zM458 1481h267l171 -324h-186z" />
    <glyph glyph-name="eacute" unicode="&#xe9;" horiz-adv-x="1093" 
d="M124 501q37 233 203 377t388 144t338 -142.5t80 -367.5l-19 -81h-783q-20 -130 48 -217.5t208 -87.5q94 0 175.5 41t131.5 111l172 -55q-75 -116 -205.5 -185.5t-300.5 -69.5q-232 0 -353 146t-83 387zM358 569h564q21 129 -41.5 213t-190.5 84q-126 0 -217.5 -85.5
t-114.5 -211.5zM535 1157l274 324h266l-357 -324h-183z" />
    <glyph glyph-name="ecircumflex" unicode="&#xea;" horiz-adv-x="1093" 
d="M124 501q37 233 203 377t388 144t338 -142.5t80 -367.5l-19 -81h-783q-20 -130 48 -217.5t208 -87.5q94 0 175.5 41t131.5 111l172 -55q-75 -116 -205.5 -185.5t-300.5 -69.5q-232 0 -353 146t-83 387zM307 1157l383 315h188l287 -315h-226l-172 214l-232 -214h-228z
M358 569h564q21 129 -41.5 213t-190.5 84q-126 0 -217.5 -85.5t-114.5 -211.5z" />
    <glyph glyph-name="edieresis" unicode="&#xeb;" horiz-adv-x="1093" 
d="M643 1213h-240l33 205h240zM124 501q37 233 203 377t388 144t338 -142.5t80 -367.5l-19 -81h-783q-20 -130 48 -217.5t208 -87.5q94 0 175.5 41t131.5 111l172 -55q-75 -116 -205.5 -185.5t-300.5 -69.5q-232 0 -353 146t-83 387zM358 569h564q21 129 -41.5 213
t-190.5 84q-126 0 -217.5 -85.5t-114.5 -211.5zM845 1213l33 205h240l-33 -205h-240z" />
    <glyph glyph-name="igrave" unicode="&#xec;" horiz-adv-x="537" 
d="M408 0h-215l157 991h215zM191 1481h266l172 -324h-187z" />
    <glyph glyph-name="iacute" unicode="&#xed;" horiz-adv-x="519" 
d="M356 0h-215l157 991h215zM274 1157l276 324h267l-357 -324h-186z" />
    <glyph glyph-name="icircumflex" unicode="&#xee;" horiz-adv-x="529" 
d="M244 1157h-227l382 315h188l288 -315h-227l-171 214zM151 0l157 991h215l-157 -991h-215z" />
    <glyph glyph-name="idieresis" unicode="&#xef;" horiz-adv-x="426" 
d="M303 1213h-241l33 205h241zM99 0l157 991h215l-157 -991h-215zM505 1213l33 205h240l-33 -205h-240z" />
    <glyph glyph-name="eth" unicode="&#xf0;" horiz-adv-x="1097" 
d="M551 962l-105 124l210 126q-91 45 -203 62l98 156q180 -24 302 -101l234 140l102 -125l-203 -122q50 -56 85 -119q56 -103 72.5 -253.5t-11.5 -343.5q-39 -243 -200.5 -390.5t-399.5 -147.5q-223 0 -337 130t-81 336q23 144 101.5 253.5t198.5 168t263 58.5
q91 0 159.5 -32t95.5 -79q-15 182 -134 306zM335 441q-22 -137 40.5 -222.5t189.5 -85.5q122 0 209.5 84t109.5 226q22 135 -39.5 219.5t-182.5 84.5q-123 0 -214.5 -84t-112.5 -222z" />
    <glyph glyph-name="ntilde" unicode="&#xf1;" horiz-adv-x="1084" 
d="M289 1253q140 167 314 167q72 0 163 -55q89 -55 127 -55q105 0 188 110l109 -85q-147 -170 -313 -170q-71 0 -160 56t-131 56q-48 0 -100.5 -30.5t-87.5 -78.5zM104 0l157 991h210l-22 -138h2q38 66 134 117.5t214 51.5q168 0 247.5 -93t47.5 -291l-101 -638h-217l97 611
q39 246 -150 246q-111 0 -201.5 -81t-108.5 -198l-92 -578h-217z" />
    <glyph glyph-name="ograve" unicode="&#xf2;" horiz-adv-x="1102" 
d="M343 495q-27 -171 39.5 -267t188.5 -96q121 0 218 96.5t124 266.5q27 172 -39.5 267t-187.5 95q-122 0 -219 -95t-124 -267zM123 495q24 146 95 261q73 120 203 193t291 73q159 0 264 -70.5t143.5 -188t14.5 -268.5q-31 -193 -161 -346q-72 -84 -183 -132.5t-245 -48.5
t-228 47t-139 130q-85 156 -55 350zM458 1481h267l171 -324h-186z" />
    <glyph glyph-name="oacute" unicode="&#xf3;" horiz-adv-x="1102" 
d="M343 495q-27 -171 39.5 -267t188.5 -96q121 0 218 96.5t124 266.5q27 172 -39.5 267t-187.5 95q-122 0 -219 -95t-124 -267zM123 495q24 146 95 261q73 120 203 193t291 73q159 0 264 -70.5t143.5 -188t14.5 -268.5q-31 -193 -161 -346q-72 -84 -183 -132.5t-245 -48.5
t-228 47t-139 130q-85 156 -55 350zM565 1157l276 324h265l-356 -324h-185z" />
    <glyph glyph-name="ocircumflex" unicode="&#xf4;" horiz-adv-x="1102" 
d="M530 1157h-226l381 315h188l289 -315h-228l-170 214zM123 495q24 146 95 261q73 120 203 193t291 73q159 0 264 -70.5t143.5 -188t14.5 -268.5q-31 -193 -161 -346q-72 -84 -183 -132.5t-245 -48.5t-228 47t-139 130q-85 156 -55 350zM343 495q-27 -171 39.5 -267
t188.5 -96q121 0 218 96.5t124 266.5q27 172 -39.5 267t-187.5 95q-122 0 -219 -95t-124 -267z" />
    <glyph glyph-name="otilde" unicode="&#xf5;" horiz-adv-x="1102" 
d="M296 1253q138 167 313 167q74 0 163 -55t128 -55q104 0 187 110l109 -85q-147 -170 -312 -170q-73 0 -162 56q-88 56 -129 56q-49 0 -101 -30t-89 -79zM123 495q24 146 95 261q73 120 203 193t291 73q159 0 264 -70.5t143.5 -188t14.5 -268.5q-31 -193 -161 -346
q-72 -84 -183 -132.5t-245 -48.5t-228 47t-139 130q-85 156 -55 350zM343 495q-27 -171 39.5 -267t188.5 -96q121 0 218 96.5t124 266.5q27 172 -39.5 267t-187.5 95q-122 0 -219 -95t-124 -267z" />
    <glyph glyph-name="odieresis" unicode="&#xf6;" horiz-adv-x="1102" 
d="M641 1213h-240l33 205h240zM123 495q24 146 95 261q73 120 203 193t291 73q159 0 264 -70.5t143.5 -188t14.5 -268.5q-31 -193 -161 -346q-72 -84 -183 -132.5t-245 -48.5t-228 47t-139 130q-85 156 -55 350zM343 495q-27 -171 39.5 -267t188.5 -96q121 0 218 96.5
t124 266.5q27 172 -39.5 267t-187.5 95q-122 0 -219 -95t-124 -267zM843 1213l33 205h240l-33 -205h-240z" />
    <glyph glyph-name="divide" unicode="&#xf7;" horiz-adv-x="1508" 
d="M238 528l26 167h1200l-26 -167h-1200zM632 184l39 247h303l-39 -247h-303zM729 794l39 249h303l-39 -249h-303z" />
    <glyph glyph-name="oslash" unicode="&#xf8;" horiz-adv-x="1102" 
d="M123 493q22 143 94 261q74 120 204.5 194t290.5 74q119 0 210 -41l94 127h171l-153 -205q142 -145 100 -410q-30 -190 -161 -344q-72 -84 -183 -132.5t-245 -48.5q-115 0 -198 36l-87 -111h-167l136 182q-149 145 -106 418zM343 493q-22 -139 32 -234l434 567
q-50 31 -123 31q-121 0 -218.5 -96t-124.5 -268zM462 158q50 -25 109 -25q121 0 217.5 95.5t123.5 264.5q21 137 -21 224z" />
    <glyph glyph-name="ugrave" unicode="&#xf9;" 
d="M147 355l101 636h217l-96 -605q-41 -254 160 -254q116 0 197 86t101 214l89 559h214l-157 -991h-206l21 131h-3q-41 -66 -128.5 -114.5t-204.5 -48.5q-77 0 -138 23t-105 68.5t-61 121t-1 174.5zM438 1481h265l171 -324h-186z" />
    <glyph glyph-name="uacute" unicode="&#xfa;" 
d="M147 355l101 636h217l-96 -605q-41 -254 160 -254q116 0 197 86t101 214l89 559h214l-157 -991h-206l21 131h-3q-41 -66 -128.5 -114.5t-204.5 -48.5q-77 0 -138 23t-105 68.5t-61 121t-1 174.5zM556 1157l275 324h265l-356 -324h-184z" />
    <glyph glyph-name="ucircumflex" unicode="&#xfb;" horiz-adv-x="1070" 
d="M147 355l101 636h217l-96 -605q-41 -254 160 -254q116 0 197 86t101 214l89 559h214l-157 -991h-206l21 131h-3q-41 -66 -128.5 -114.5t-204.5 -48.5q-77 0 -138 23t-105 68.5t-61 121t-1 174.5zM302 1157l383 315h189l288 -315h-227l-173 214l-233 -214h-227z" />
    <glyph glyph-name="udieresis" unicode="&#xfc;" 
d="M641 1213h-241l33 205h241zM147 355l101 636h217l-96 -605q-41 -254 160 -254q116 0 197 86t101 214l89 559h214l-157 -991h-206l21 131h-3q-41 -66 -128.5 -114.5t-204.5 -48.5q-77 0 -138 23t-105 68.5t-61 121t-1 174.5zM842 1213l33 205h241l-33 -205h-241z" />
    <glyph glyph-name="yacute" unicode="&#xfd;" horiz-adv-x="1034" 
d="M518 1157l275 324h266l-358 -324h-183zM54 -412l25 159h38q83 0 143 37t109 125l53 104l-263 978h240l160 -768h6l388 768h236l-642 -1132q-84 -147 -184 -209t-238 -62h-71z" />
    <glyph glyph-name="thorn" unicode="&#xfe;" horiz-adv-x="1118" 
d="M382 495q-25 -163 34.5 -262.5t177.5 -99.5q130 0 220.5 97t116.5 265q27 168 -32 265t-190 97q-118 0 -209.5 -100t-117.5 -262zM25 -415l290 1827h216l-89 -559q43 73 135.5 121t187.5 48q212 0 318.5 -142t67.5 -385q-21 -134 -78.5 -238.5t-139.5 -166.5
q-160 -122 -338 -122q-103 0 -172.5 48t-94.5 117l-87 -548h-216z" />
    <glyph glyph-name="ydieresis" unicode="&#xff;" horiz-adv-x="1034" 
d="M602 1213h-241l33 205h241zM54 -412l25 159h38q83 0 143 37t109 125l53 104l-263 978h240l160 -768h6l388 768h236l-642 -1132q-84 -147 -184 -209t-238 -62h-71zM803 1213l33 205h240l-33 -205h-240z" />
    <glyph glyph-name="Amacron" unicode="&#x100;" horiz-adv-x="1393" 
d="M738 905l-209 -387h496l-84 387q-1 7 -8 40t-19.5 96.5t-25.5 132.5h-13zM15 0l771 1365h253l339 -1365h-241l-80 356h-611l-190 -356h-241zM578 1566l21 133h728l-21 -133h-728z" />
    <glyph glyph-name="amacron" unicode="&#x101;" 
d="M1072 1217h-727l21 135h727zM78 255q45 277 524 343q190 25 260 43l8 55q13 80 -44 126t-165 46q-190 0 -344 -139l-117 102q99 90 225 140.5t257 50.5q454 0 391 -400l-99 -622h-210l22 137q-45 -71 -146 -120t-218 -49q-179 0 -271.5 79.5t-72.5 207.5zM302 270
q-10 -61 37.5 -100t138.5 -39q128 0 227 73.5t117 189.5l17 107q-89 -18 -245 -40q-137 -21 -208 -66.5t-84 -124.5z" />
    <glyph glyph-name="Abreve" unicode="&#x102;" horiz-adv-x="1393" 
d="M738 905l-209 -387h496l-84 387q-1 7 -8 40t-19.5 96.5t-25.5 132.5h-13zM15 0l771 1365h253l339 -1365h-241l-80 356h-611l-190 -356h-241zM636 1781h164q-5 -64 38.5 -107t117.5 -43q76 0 131.5 42.5t72.5 107.5h162q-25 -117 -126.5 -197t-259.5 -80q-161 0 -236.5 80
t-63.5 197z" />
    <glyph glyph-name="abreve" unicode="&#x103;" 
d="M302 270q-10 -61 37.5 -100t138.5 -39q128 0 227 73.5t117 189.5l17 107q-89 -18 -245 -40q-137 -21 -208 -66.5t-84 -124.5zM78 255q45 277 524 343q190 25 260 43l8 55q13 80 -44 126t-165 46q-190 0 -344 -139l-117 102q99 90 225 140.5t257 50.5q454 0 391 -400
l-99 -622h-210l22 137q-45 -71 -146 -120t-218 -49q-179 0 -271.5 79.5t-72.5 207.5zM399 1434h165q-7 -64 35 -107.5t118 -43.5t132.5 43t71.5 108h163q-25 -117 -126.5 -197.5t-260.5 -80.5q-161 0 -235.5 80.5t-62.5 197.5z" />
    <glyph glyph-name="Aogonek" unicode="&#x104;" horiz-adv-x="1368" 
d="M738 905l-209 -387h496l-84 387q-1 7 -8 40t-19.5 96.5t-25.5 132.5h-13zM15 0l771 1365h253l339 -1365h-39q-233 -111 -246 -195q-5 -32 13.5 -48t61.5 -16q54 0 129 20l-20 -125q-73 -22 -172 -22q-111 0 -167 42t-44 115q10 64 79 126t163 105l-79 354h-611l-190 -356
h-241z" />
    <glyph glyph-name="aogonek" unicode="&#x105;" horiz-adv-x="1040" 
d="M302 270q-10 -61 37.5 -100t138.5 -39q128 0 227 73.5t117 189.5l17 107q-89 -18 -245 -40q-137 -21 -208 -66.5t-84 -124.5zM78 255q45 277 524 343q190 25 260 43l8 55q13 80 -44 126t-165 46q-190 0 -344 -139l-117 102q99 90 225 140.5t257 50.5q454 0 391 -400
l-99 -622h-10q-233 -111 -247 -195q-5 -32 14 -48t62 -16q55 0 130 20l-20 -125q-75 -22 -174 -22q-110 0 -165.5 42t-43.5 115q10 64 80 127t165 106l21 133q-45 -71 -146 -120t-218 -49q-179 0 -271.5 79.5t-72.5 207.5z" />
    <glyph glyph-name="Cacute" unicode="&#x106;" horiz-adv-x="1360" 
d="M177 682q52 326 267 520.5t512 194.5q183 0 304 -88.5t168 -231.5l-202 -58q-98 207 -300 207q-197 0 -338.5 -148.5t-180.5 -395.5q-39 -248 56 -394.5t291 -146.5q122 0 228.5 64.5t170.5 165.5l193 -56q-79 -124 -222 -228q-76 -56 -179 -87.5t-215 -31.5
q-144 0 -258.5 49t-189 139.5t-103 225.5t-2.5 300zM826 1502l276 323h264l-354 -323h-186z" />
    <glyph glyph-name="cacute" unicode="&#x107;" horiz-adv-x="1030" 
d="M777 1157h-184l275 324h266zM123 495q38 239 199.5 383t387.5 144q155 0 253.5 -81.5t113.5 -200.5l-190 -45q-17 72 -69 117t-132 45q-130 0 -222 -101t-118 -261q-26 -166 37 -264.5t188 -98.5q85 0 163.5 51.5t119.5 125.5l174 -48q-59 -122 -194 -207.5t-291 -85.5
q-225 0 -341 144t-79 383z" />
    <glyph glyph-name="Cdotaccent" unicode="&#x10a;" horiz-adv-x="1360" 
d="M177 682q52 326 267 520.5t512 194.5q183 0 304 -88.5t168 -231.5l-202 -58q-98 207 -300 207q-197 0 -338.5 -148.5t-180.5 -395.5q-39 -248 56 -394.5t291 -146.5q122 0 228.5 64.5t170.5 165.5l193 -56q-79 -124 -222 -228q-76 -56 -179 -87.5t-215 -31.5
q-144 0 -258.5 49t-189 139.5t-103 225.5t-2.5 300zM856 1551l33 209h244l-33 -209h-244z" />
    <glyph glyph-name="cdotaccent" unicode="&#x10b;" horiz-adv-x="1030" 
d="M857 1214h-244l33 209h244zM123 495q38 239 199.5 383t387.5 144q155 0 253.5 -81.5t113.5 -200.5l-190 -45q-17 72 -69 117t-132 45q-130 0 -222 -101t-118 -261q-26 -166 37 -264.5t188 -98.5q85 0 163.5 51.5t119.5 125.5l174 -48q-59 -122 -194 -207.5t-291 -85.5
q-225 0 -341 144t-79 383z" />
    <glyph glyph-name="Ccaron" unicode="&#x10c;" horiz-adv-x="1360" 
d="M177 682q52 326 267 520.5t512 194.5q183 0 304 -88.5t168 -231.5l-202 -58q-98 207 -300 207q-197 0 -338.5 -148.5t-180.5 -395.5q-39 -248 56 -394.5t291 -146.5q122 0 228.5 64.5t170.5 165.5l193 -56q-79 -124 -222 -228q-76 -56 -179 -87.5t-215 -31.5
q-144 0 -258.5 49t-189 139.5t-103 225.5t-2.5 300zM604 1805h215l163 -198l231 198h212l-370 -303h-185z" />
    <glyph glyph-name="ccaron" unicode="&#x10d;" horiz-adv-x="1030" 
d="M123 495q38 239 199.5 383t387.5 144q155 0 253.5 -81.5t113.5 -200.5l-190 -45q-17 72 -69 117t-132 45q-130 0 -222 -101t-118 -261q-26 -166 37 -264.5t188 -98.5q85 0 163.5 51.5t119.5 125.5l174 -48q-59 -122 -194 -207.5t-291 -85.5q-225 0 -341 144t-79 383z
M366 1460h214l162 -196l232 196h212l-369 -303h-185z" />
    <glyph glyph-name="Dcaron" unicode="&#x10e;" horiz-adv-x="1319" 
d="M531 0h-435l216 1365h439q341 0 499.5 -177t106.5 -506q-46 -292 -241 -481q-99 -96 -249.5 -148.5t-335.5 -52.5zM346 171h187q509 0 590 511q81 513 -424 513h-191zM434 1805h213l161 -198l232 198h213l-369 -303h-186z" />
    <glyph glyph-name="dcaron" unicode="&#x10f;" horiz-adv-x="1545" 
d="M124 497q38 240 191 382.5t360 142.5q97 0 169 -46.5t103 -114.5l88 551h215l-224 -1412h-209l23 144q-53 -76 -143 -126t-189 -50q-175 0 -294 121q-62 61 -86.5 167.5t-3.5 240.5zM344 497q-27 -167 34 -266t185 -99q119 0 211 99.5t119 265.5q25 162 -34.5 261
t-180.5 99q-128 0 -218 -98t-116 -262zM1233 1022l158 369h226l-231 -369h-153z" />
    <glyph glyph-name="Dcroat" unicode="&#x110;" horiz-adv-x="1328" 
d="M540 0h-435l97 611h-203l25 162h203l94 592h439q341 0 499.5 -177t106.5 -506q-46 -292 -241 -481q-99 -96 -249.5 -148.5t-335.5 -52.5zM355 171h187q509 0 590 511q81 513 -424 513h-191l-67 -422h348l-25 -162h-348z" />
    <glyph glyph-name="dcroat" unicode="&#x111;" horiz-adv-x="1072" 
d="M123 490q38 241 190.5 380.5t357.5 139.5q100 0 173.5 -45.5t101.5 -111.5l42 266h-432l23 146h432l24 147h215l-24 -147h125l-23 -146h-125l-177 -1119h-209l23 144q-60 -81 -146.5 -128.5t-187.5 -47.5q-95 0 -173.5 34t-132.5 98.5t-75.5 165t-1.5 224.5zM346 490
q-27 -166 32.5 -261.5t183.5 -95.5q120 0 212.5 98.5t117.5 258.5q25 157 -35.5 256t-181.5 99q-123 0 -213.5 -97t-115.5 -258z" />
    <glyph glyph-name="Emacron" unicode="&#x112;" horiz-adv-x="1181" 
d="M1096 0h-1000l216 1365h983l-27 -172h-760l-64 -402h685l-26 -169h-685l-72 -450h777zM468 1567l21 134h726l-21 -134h-726z" />
    <glyph glyph-name="emacron" unicode="&#x113;" horiz-adv-x="1093" 
d="M124 501q37 233 203 377t388 144t338 -142.5t80 -367.5l-19 -81h-783q-20 -130 48 -217.5t208 -87.5q94 0 175.5 41t131.5 111l172 -55q-75 -116 -205.5 -185.5t-300.5 -69.5q-232 0 -353 146t-83 387zM358 569h564q21 129 -41.5 213t-190.5 84q-126 0 -217.5 -85.5
t-114.5 -211.5zM379 1222l21 133h725l-21 -133h-725z" />
    <glyph glyph-name="Edotaccent" unicode="&#x116;" horiz-adv-x="1181" 
d="M1096 0h-1000l216 1365h983l-27 -172h-760l-64 -402h685l-26 -169h-685l-72 -450h777zM713 1551l33 209h246l-33 -209h-246z" />
    <glyph glyph-name="edotaccent" unicode="&#x117;" horiz-adv-x="1093" 
d="M868 1214h-245l33 209h245zM124 501q37 233 203 377t388 144t338 -142.5t80 -367.5l-19 -81h-783q-20 -130 48 -217.5t208 -87.5q94 0 175.5 41t131.5 111l172 -55q-75 -116 -205.5 -185.5t-300.5 -69.5q-232 0 -353 146t-83 387zM358 569h564q21 129 -41.5 213
t-190.5 84q-126 0 -217.5 -85.5t-114.5 -211.5z" />
    <glyph glyph-name="Eogonek" unicode="&#x118;" horiz-adv-x="1156" 
d="M871 0q-233 -111 -246 -195q-5 -32 14 -48t62 -16q53 0 127 20l-20 -125q-72 -22 -173 -22q-110 0 -165.5 42t-43.5 115q10 62 78 123.5t159 105.5h-567l216 1365h983l-27 -172h-760l-64 -402h685l-26 -169h-685l-72 -450h777l-27 -172h-225z" />
    <glyph glyph-name="eogonek" unicode="&#x119;" horiz-adv-x="1093" 
d="M124 501q37 233 203 377t388 144t338 -142.5t80 -367.5l-19 -81h-783q-20 -130 48 -217.5t208 -87.5q94 0 175.5 41t131.5 111l172 -55q-123 -190 -360 -240q-198 -101 -210 -178q-5 -32 14 -48t62 -16q52 0 129 20l-20 -125q-75 -22 -173 -22q-111 0 -166.5 42
t-43.5 115q9 53 59.5 106t124.5 96q-197 25 -294.5 167t-63.5 361zM358 569h564q21 129 -41.5 213t-190.5 84q-126 0 -217.5 -85.5t-114.5 -211.5z" />
    <glyph glyph-name="Ecaron" unicode="&#x11a;" horiz-adv-x="1181" 
d="M1096 0h-1000l216 1365h983l-27 -172h-760l-64 -402h685l-26 -169h-685l-72 -450h777zM461 1805h213l163 -198l229 198h215l-370 -303h-186z" />
    <glyph glyph-name="ecaron" unicode="&#x11b;" horiz-adv-x="1093" 
d="M124 501q37 233 203 377t388 144t338 -142.5t80 -367.5l-19 -81h-783q-20 -130 48 -217.5t208 -87.5q94 0 175.5 41t131.5 111l172 -55q-75 -116 -205.5 -185.5t-300.5 -69.5q-232 0 -353 146t-83 387zM358 569h564q21 129 -41.5 213t-190.5 84q-126 0 -217.5 -85.5
t-114.5 -211.5zM375 1460h212l163 -196l230 196h215l-370 -303h-185z" />
    <glyph glyph-name="Gbreve" unicode="&#x11e;" horiz-adv-x="1403" 
d="M177 682q51 318 267 516.5t525 198.5q108 0 200.5 -32t149.5 -85q98 -91 136 -198l-200 -56q-53 99 -125 149.5t-188 50.5q-210 0 -353 -148.5t-182 -395.5q-39 -249 57.5 -395t294.5 -146q168 0 282 91.5t143 233.5q8 28 21 117h-391l27 171h608l-119 -754h-156l8 161
q-157 -193 -455 -193q-144 0 -258.5 50.5t-188 141.5t-101.5 225.5t-2 296.5zM675 1781h165q-7 -64 36 -107t117 -43q77 0 133 42.5t71 107.5h162q-24 -117 -125 -197t-261 -80q-161 0 -235.5 80t-62.5 197z" />
    <glyph glyph-name="gbreve" unicode="&#x11f;" horiz-adv-x="1093" 
d="M347 515q-25 -159 31 -251t175 -92q122 0 205.5 89.5t109.5 253.5q25 160 -30 251t-171 91q-122 0 -209 -94t-111 -248zM54 -234l157 90q102 -121 267 -121q117 0 203 82.5t111 217.5q1 7 5 27.5t6 34.5q3 14 11 58q-52 -67 -132.5 -107.5t-171.5 -40.5
q-209 0 -314 139.5t-70 365.5q37 232 186 371t351 139q104 0 172.5 -46.5t89.5 -114.5l21 130h213l-136 -860q-45 -283 -184 -416.5t-390 -133.5q-278 0 -395 185zM415 1434h164q-5 -65 37.5 -108t117.5 -43q76 0 132 43t73 108h161q-25 -117 -126 -197.5t-260 -80.5
q-161 0 -236 80.5t-63 197.5z" />
    <glyph glyph-name="Gdotaccent" unicode="&#x120;" horiz-adv-x="1403" 
d="M177 682q51 318 267 516.5t525 198.5q108 0 200.5 -32t149.5 -85q98 -91 136 -198l-200 -56q-53 99 -125 149.5t-188 50.5q-210 0 -353 -148.5t-182 -395.5q-39 -249 57.5 -395t294.5 -146q168 0 282 91.5t143 233.5q8 28 21 117h-391l27 171h608l-119 -754h-156l8 161
q-157 -193 -455 -193q-144 0 -258.5 50.5t-188 141.5t-101.5 225.5t-2 296.5zM876 1551l33 209h243l-33 -209h-243z" />
    <glyph glyph-name="gdotaccent" unicode="&#x121;" horiz-adv-x="1093" 
d="M347 515q-25 -159 31 -251t175 -92q122 0 205.5 89.5t109.5 253.5q25 160 -30 251t-171 91q-122 0 -209 -94t-111 -248zM54 -234l157 90q102 -121 267 -121q117 0 203 82.5t111 217.5q1 7 5 27.5t6 34.5q3 14 11 58q-52 -67 -132.5 -107.5t-171.5 -40.5
q-209 0 -314 139.5t-70 365.5q37 232 186 371t351 139q104 0 172.5 -46.5t89.5 -114.5l21 130h213l-136 -860q-45 -283 -184 -416.5t-390 -133.5q-278 0 -395 185zM618 1214l33 209h244l-33 -209h-244z" />
    <glyph glyph-name="uni0122" unicode="&#x122;" horiz-adv-x="1403" 
d="M177 682q51 318 267 516.5t525 198.5q108 0 200.5 -32t149.5 -85q98 -91 136 -198l-200 -56q-53 99 -125 149.5t-188 50.5q-210 0 -353 -148.5t-182 -395.5q-39 -249 57.5 -395t294.5 -146q168 0 282 91.5t143 233.5q8 28 21 117h-391l27 171h608l-119 -754h-156l8 161
q-157 -193 -455 -193q-144 0 -258.5 50.5t-188 141.5t-101.5 225.5t-2 296.5zM509 -463l149 352h237l-234 -352h-152z" />
    <glyph glyph-name="uni0123" unicode="&#x123;" horiz-adv-x="1093" 
d="M827 1161h-237l234 347h150zM54 -234l157 90q94 -121 265 -121q121 0 203.5 80t110.5 215q16 78 24 125q-48 -66 -131.5 -107t-175.5 -41q-206 0 -311 140t-70 365q36 229 186 369.5t350 140.5q105 0 173.5 -46.5t89.5 -114.5l21 130h213l-136 -860q-45 -283 -185 -417.5
t-392 -134.5q-128 0 -233 49t-159 138zM347 515q-26 -159 31.5 -251.5t173.5 -92.5q123 0 206.5 90t109.5 254q25 161 -30.5 251.5t-175.5 90.5q-117 0 -203.5 -93.5t-111.5 -248.5z" />
    <glyph glyph-name="Hbar" unicode="&#x126;" horiz-adv-x="1500" 
d="M361 1026h-159l25 158h159l28 181h223l-28 -181h658l28 181h223l-28 -181h159l-25 -158h-159l-163 -1026h-223l98 617h-658l-98 -617h-223zM546 787h658l38 239h-658z" />
    <glyph glyph-name="hbar" unicode="&#x127;" horiz-adv-x="995" 
d="M197 1121h-140l23 147h140l23 144h215l-23 -144h411l-23 -147h-411l-46 -288h3q52 64 140.5 107.5t183.5 43.5q132 0 229 -71q52 -40 73 -122t4 -192l-95 -599h-214l91 576q39 242 -153 242q-108 0 -199.5 -84t-109.5 -198l-85 -536h-215z" />
    <glyph glyph-name="Imacron" unicode="&#x12a;" horiz-adv-x="525" 
d="M876 1566h-728l21 133h728zM153 0l216 1365h223l-216 -1365h-223z" />
    <glyph glyph-name="imacron" unicode="&#x12b;" horiz-adv-x="509" 
d="M812 1222h-727l21 133h727zM146 0l157 991h215l-157 -991h-215z" />
    <glyph glyph-name="Iogonek" unicode="&#x12e;" horiz-adv-x="513" 
d="M424 0q-229 -109 -242 -193q-5 -33 14 -49.5t63 -16.5q55 0 128 21l-19 -123q-78 -24 -174 -24q-112 0 -166 42t-43 114q10 64 77 125.5t157 104.5l216 1364h223l-216 -1365h-18z" />
    <glyph glyph-name="iogonek" unicode="&#x12f;" horiz-adv-x="496" 
d="M578 1163h-240l35 221h240zM-73 -229q10 65 79.5 127.5t163.5 105.5l156 987h213l-157 -991h-14q-228 -109 -241 -193q-5 -33 14 -49.5t62 -16.5q55 0 128 21l-19 -123q-76 -24 -174 -24q-111 0 -166.5 42t-44.5 114z" />
    <glyph glyph-name="Idotaccent" unicode="&#x130;" horiz-adv-x="416" 
d="M322 0h-223l216 1365h223zM333 1551l33 209h245l-33 -209h-245z" />
    <glyph glyph-name="dotlessi" unicode="&#x131;" horiz-adv-x="397" 
d="M306 0h-215l157 991h215z" />
    <glyph glyph-name="IJ" unicode="&#x132;" horiz-adv-x="1564" 
d="M403 0h-223l216 1365h223zM578 242l201 67q14 -75 64.5 -121.5t128.5 -46.5q216 0 258 270l151 954h222l-155 -979q-32 -203 -160 -310.5t-337 -107.5q-159 0 -255.5 76t-117.5 198z" />
    <glyph glyph-name="ij" unicode="&#x133;" horiz-adv-x="1103" 
d="M1142 1163h-244l35 221h244zM168 0l157 991h213l-157 -991h-213zM337 1163l35 221h240l-35 -221h-240zM463 -399l26 165h42q163 0 194 204l162 1021h214l-163 -1029q-28 -177 -130 -269t-268 -92h-77z" />
    <glyph glyph-name="uni0136" unicode="&#x136;" horiz-adv-x="1251" 
d="M319 0h-223l216 1365h223l-103 -650h6l726 650h286l-679 -593l484 -772h-273l-375 628l-219 -193zM351 -427l150 354h236l-234 -354h-152z" />
    <glyph glyph-name="uni0137" unicode="&#x137;" horiz-adv-x="1004" 
d="M306 0h-215l224 1412h215l-135 -849l487 428h274l-464 -400l339 -591h-255l-245 455l-177 -153zM263 -427l150 354h237l-236 -354h-151z" />
    <glyph glyph-name="Lacute" unicode="&#x139;" horiz-adv-x="1073" 
d="M1026 0h-924l216 1365h223l-189 -1193h701zM332 1490l274 323h266l-355 -323h-185z" />
    <glyph glyph-name="lacute" unicode="&#x13a;" horiz-adv-x="517" 
d="M510 1490h-183l272 323h267zM132 0l224 1412h216l-224 -1412h-216z" />
    <glyph glyph-name="uni013B" unicode="&#x13b;" horiz-adv-x="1067" 
d="M1020 0h-924l216 1365h223l-189 -1193h701zM283 -463l150 352h237l-235 -352h-152z" />
    <glyph glyph-name="uni013C" unicode="&#x13c;" horiz-adv-x="435" 
d="M332 0h-216l224 1412h216zM-60 -463l149 352h237l-235 -352h-151z" />
    <glyph glyph-name="Lcaron" unicode="&#x13d;" horiz-adv-x="1525" 
d="M1020 0h-924l216 1365h223l-189 -1193h701zM684 997l159 368h226l-231 -368h-154z" />
    <glyph glyph-name="lcaron" unicode="&#x13e;" horiz-adv-x="829" 
d="M307 0h-216l224 1412h216zM532 1022l157 369h228l-232 -369h-153z" />
    <glyph glyph-name="Lslash" unicode="&#x141;" horiz-adv-x="1229" 
d="M953 812l-345 -181l-73 -460h701l-27 -171h-924l80 506l-202 -109l-81 148l315 165l104 655h223l-84 -529l231 120z" />
    <glyph glyph-name="lslash" unicode="&#x142;" horiz-adv-x="682" 
d="M858 817l-303 -157l-105 -660h-216l86 545l-194 -102l-81 148l308 158l105 663h216l-87 -546l196 99z" />
    <glyph glyph-name="Nacute" unicode="&#x143;" horiz-adv-x="1306" 
d="M761 1502l274 323h266l-356 -323h-184zM96 0l216 1365h240l483 -1041l165 1041h226l-216 -1365h-241l-485 1042l-165 -1042h-223z" />
    <glyph glyph-name="nacute" unicode="&#x144;" horiz-adv-x="1071" 
d="M308 0h-217l157 991h210l-22 -138h2q38 66 134 117.5t214 51.5q168 0 247.5 -93t47.5 -291l-101 -638h-217l97 611q39 246 -150 246q-111 0 -201.5 -81t-108.5 -198zM554 1157l275 324h267l-358 -324h-184z" />
    <glyph glyph-name="uni0145" unicode="&#x145;" horiz-adv-x="1306" 
d="M402 -463l151 352h234l-233 -352h-152zM96 0l216 1365h240l483 -1041l165 1041h226l-216 -1365h-241l-485 1042l-165 -1042h-223z" />
    <glyph glyph-name="uni0146" unicode="&#x146;" horiz-adv-x="1071" 
d="M308 0h-217l157 991h210l-22 -138h2q38 66 134 117.5t214 51.5q168 0 247.5 -93t47.5 -291l-101 -638h-217l97 611q39 246 -150 246q-111 0 -201.5 -81t-108.5 -198zM298 -463l149 352h237l-236 -352h-150z" />
    <glyph glyph-name="Ncaron" unicode="&#x147;" horiz-adv-x="1306" 
d="M538 1805h214l164 -198l230 198h212l-369 -303h-186zM96 0l216 1365h240l483 -1041l165 1041h226l-216 -1365h-241l-485 1042l-165 -1042h-223z" />
    <glyph glyph-name="ncaron" unicode="&#x148;" horiz-adv-x="1071" 
d="M308 0h-217l157 991h210l-22 -138h2q38 66 134 117.5t214 51.5q168 0 247.5 -93t47.5 -291l-101 -638h-217l97 611q39 246 -150 246q-111 0 -201.5 -81t-108.5 -198zM376 1460h215l162 -196l229 196h215l-370 -303h-184z" />
    <glyph glyph-name="Omacron" unicode="&#x14c;" horiz-adv-x="1430" 
d="M1319 1566h-726l21 133h726zM177 682q51 322 259 518.5t501 196.5t437.5 -196.5t93.5 -520.5q-52 -324 -258.5 -518t-498.5 -194q-194 0 -327 87.5t-187 249.5t-20 377zM408 682q-40 -250 48 -395.5t282 -145.5q192 0 326 144t174 395q39 251 -47.5 398.5t-280.5 147.5
q-193 0 -327.5 -146.5t-174.5 -397.5z" />
    <glyph glyph-name="omacron" unicode="&#x14d;" horiz-adv-x="1102" 
d="M1109 1220h-727l21 132h727zM123 495q24 146 95 261q73 120 203 193t291 73q159 0 264 -70.5t143.5 -188t14.5 -268.5q-31 -193 -161 -346q-72 -84 -183 -132.5t-245 -48.5t-228 47t-139 130q-85 156 -55 350zM343 495q-27 -171 39.5 -267t188.5 -96q121 0 218 96.5
t124 266.5q27 172 -39.5 267t-187.5 95q-122 0 -219 -95t-124 -267z" />
    <glyph glyph-name="Ohungarumlaut" unicode="&#x150;" horiz-adv-x="1430" 
d="M177 682q51 322 259 518.5t501 196.5t437.5 -196.5t93.5 -520.5q-52 -324 -258.5 -518t-498.5 -194q-194 0 -327 87.5t-187 249.5t-20 377zM408 682q-40 -250 48 -395.5t282 -145.5q192 0 326 144t174 395q39 251 -47.5 398.5t-280.5 147.5q-193 0 -327.5 -146.5
t-174.5 -397.5zM620 1506l265 338h244l-323 -338h-186zM971 1506l263 338h245l-322 -338h-186z" />
    <glyph glyph-name="ohungarumlaut" unicode="&#x151;" horiz-adv-x="1102" 
d="M343 495q-27 -171 39.5 -267t188.5 -96q121 0 218 96.5t124 266.5q27 172 -39.5 267t-187.5 95q-122 0 -219 -95t-124 -267zM123 495q24 146 95 261q73 120 203 193t291 73q159 0 264 -70.5t143.5 -188t14.5 -268.5q-31 -193 -161 -346q-72 -84 -183 -132.5t-245 -48.5
t-228 47t-139 130q-85 156 -55 350zM424 1157l265 340h245l-324 -340h-186zM775 1157l265 340h245l-325 -340h-185z" />
    <glyph glyph-name="OE" unicode="&#x152;" horiz-adv-x="1998" 
d="M177 682q51 321 265 518t509 197q123 0 207 -32h952l-27 -172h-736l-64 -402h661l-27 -171h-661l-71 -449h756l-27 -171h-967q-107 -32 -222 -32q-197 0 -333 87t-192.5 249.5t-22.5 377.5zM408 682q-39 -248 55 -394.5t289 -146.5q115 0 213 58l152 964q-72 63 -193 63
q-197 0 -337 -148.5t-179 -395.5z" />
    <glyph glyph-name="oe" unicode="&#x153;" horiz-adv-x="1881" 
d="M343 495q-27 -171 39.5 -267t188.5 -96q116 0 211.5 90t127.5 250q0 4 0.5 9t1.5 11t1 9l4 22q18 160 -48.5 247t-182.5 87q-122 0 -219 -95t-124 -267zM123 495q24 146 95 261q73 120 203 193t291 73q259 0 369 -177q83 85 192.5 131t232.5 46q220 0 335.5 -142.5
t79.5 -367.5l-19 -81h-781l-2 -7q-18 -127 50.5 -212.5t204.5 -85.5q94 0 176 41.5t132 110.5l172 -55q-74 -116 -205 -185.5t-301 -69.5q-127 0 -224 47t-153 133q-71 -83 -182 -131.5t-244 -48.5q-134 0 -228 47t-139 130q-85 156 -55 350zM1146 569h565q21 129 -41.5 213
t-188.5 84q-128 0 -219.5 -85t-115.5 -212z" />
    <glyph glyph-name="Racute" unicode="&#x154;" horiz-adv-x="1263" 
d="M814 1502h-184l274 323h266zM96 0l217 1367h596q224 0 338 -112.5t86 -288.5q-31 -197 -202 -307q89 -96 74 -293q-13 -105 -5 -181t56 -185h-249q-31 64 -35.5 137.5t6.5 215.5q5 56 -0.5 92t-28 63t-68 39t-118.5 12h-356l-89 -559h-222zM430 711h335q141 0 228 62.5
t106 179.5q19 119 -47.5 179.5t-213.5 60.5h-332z" />
    <glyph glyph-name="racute" unicode="&#x155;" horiz-adv-x="730" 
d="M308 0h-217l157 991h205l-19 -119q49 63 129.5 106.5t175.5 43.5q89 0 144 -21l-29 -178q-59 22 -143 22q-127 0 -211.5 -87.5t-108.5 -236.5zM424 1157l274 324h265l-356 -324h-183z" />
    <glyph glyph-name="uni0156" unicode="&#x156;" horiz-adv-x="1263" 
d="M528 -463h-150l148 352h236zM96 0l217 1367h596q224 0 338 -112.5t86 -288.5q-31 -197 -202 -307q89 -96 74 -293q-13 -105 -5 -181t56 -185h-249q-31 64 -35.5 137.5t6.5 215.5q5 56 -0.5 92t-28 63t-68 39t-118.5 12h-356l-89 -559h-222zM430 711h335q141 0 228 62.5
t106 179.5q19 119 -47.5 179.5t-213.5 60.5h-332z" />
    <glyph glyph-name="uni0157" unicode="&#x157;" horiz-adv-x="734" 
d="M317 0h-218l157 991h205l-19 -119q49 63 129.5 106.5t175.5 43.5q90 0 144 -21l-29 -178q-59 22 -143 22q-127 0 -211 -87.5t-108 -236.5zM-58 -463l150 352h235l-234 -352h-151z" />
    <glyph glyph-name="Rcaron" unicode="&#x158;" horiz-adv-x="1263" 
d="M713 1502l-266 303h215l164 -198l229 198h213l-368 -303h-187zM96 0l217 1367h596q224 0 338 -112.5t86 -288.5q-31 -197 -202 -307q89 -96 74 -293q-13 -105 -5 -181t56 -185h-249q-31 64 -35.5 137.5t6.5 215.5q5 56 -0.5 92t-28 63t-68 39t-118.5 12h-356l-89 -559
h-222zM430 711h335q141 0 228 62.5t106 179.5q19 119 -47.5 179.5t-213.5 60.5h-332z" />
    <glyph glyph-name="rcaron" unicode="&#x159;" horiz-adv-x="771" 
d="M334 0h-218l157 991h205l-19 -119q49 63 129.5 106.5t175.5 43.5q90 0 144 -21l-29 -178q-59 22 -143 22q-127 0 -211 -87.5t-108 -236.5zM245 1460h213l164 -196l229 196h215l-369 -303h-187z" />
    <glyph glyph-name="Sacute" unicode="&#x15a;" horiz-adv-x="1227" 
d="M301 341q43 -92 139 -146t222 -54q136 0 230.5 59.5t110.5 157.5q16 105 -78 167q-72 47 -220 94q-221 70 -297 115q-172 103 -142 292q26 167 186.5 269t394.5 102q185 0 311 -77t172 -202l-198 -59q-96 167 -313 167q-134 0 -221 -54t-101 -144q-10 -69 43 -121
q36 -35 74.5 -56t70.5 -31.5t143 -43.5q26 -8 44 -15q93 -29 153.5 -57.5t116.5 -72.5q122 -95 95 -264q-29 -184 -195 -291.5t-410 -107.5q-206 0 -346.5 83.5t-193.5 227.5zM708 1502l275 323h266l-357 -323h-184z" />
    <glyph glyph-name="sacute" unicode="&#x15b;" horiz-adv-x="983" 
d="M242 285q93 -159 282 -159q99 0 165.5 36.5t76.5 96.5q12 76 -109 127q-37 16 -179 57q-70 23 -115 43t-88 52q-97 72 -76 199q20 128 151 206.5t319 78.5q133 0 240 -63.5t150 -161.5l-156 -79q-89 146 -259 146q-99 0 -159 -35.5t-69 -94.5q-8 -56 45 -99
q14 -14 64 -35q55 -22 152 -49q170 -49 247 -122.5t62 -171.5q-20 -126 -151 -207.5t-332 -81.5q-152 0 -266 63t-164 172zM498 1157l275 324h266l-356 -324h-185z" />
    <glyph glyph-name="Scedilla" unicode="&#x15e;" horiz-adv-x="1227" 
d="M348 -267q95 -22 180 -22q58 0 104 18.5t52 54.5q12 75 -213 72l52 119q-163 20 -274.5 100t-156.5 204l209 62q43 -92 139 -146t222 -54q136 0 230.5 59.5t110.5 157.5q16 105 -78 167q-72 47 -220 94q-221 70 -297 115q-172 103 -142 292q26 167 186.5 269t394.5 102
q185 0 311 -77t172 -202l-198 -59q-96 167 -313 167q-134 0 -221 -54t-101 -144q-10 -69 43 -121q36 -35 74.5 -56t70.5 -31.5t143 -43.5q26 -8 44 -15q93 -29 153.5 -57.5t116.5 -72.5q122 -95 95 -264t-168.5 -274t-356.5 -122l-21 -44q86 -11 129 -52t33 -104
q-13 -80 -101 -133t-237 -53q-99 0 -187 25z" />
    <glyph glyph-name="scedilla" unicode="&#x15f;" horiz-adv-x="983" 
d="M206 -267q94 -22 180 -22q59 0 105 18.5t52 54.5q6 38 -47.5 55.5t-167.5 16.5l53 123q-109 22 -188.5 80t-119.5 144l169 82q93 -159 282 -159q99 0 165.5 36.5t76.5 96.5q12 76 -109 127q-37 16 -179 57q-70 23 -115 43t-88 52q-97 72 -76 199q20 128 151 206.5
t319 78.5q133 0 240 -63.5t150 -161.5l-156 -79q-89 146 -259 146q-99 0 -159 -35.5t-69 -94.5q-8 -56 45 -99q14 -14 64 -35q55 -22 152 -49q170 -49 247 -122.5t62 -171.5q-18 -114 -130 -193.5t-287 -92.5l-20 -44q86 -11 129 -52t33 -104q-13 -80 -101.5 -133
t-238.5 -53q-95 0 -185 25z" />
    <glyph glyph-name="Scaron" unicode="&#x160;" horiz-adv-x="1227" 
d="M301 341q43 -92 139 -146t222 -54q136 0 230.5 59.5t110.5 157.5q16 105 -78 167q-72 47 -220 94q-221 70 -297 115q-172 103 -142 292q26 167 186.5 269t394.5 102q185 0 311 -77t172 -202l-198 -59q-96 167 -313 167q-134 0 -221 -54t-101 -144q-10 -69 43 -121
q36 -35 74.5 -56t70.5 -31.5t143 -43.5q26 -8 44 -15q93 -29 153.5 -57.5t116.5 -72.5q122 -95 95 -264q-29 -184 -195 -291.5t-410 -107.5q-206 0 -346.5 83.5t-193.5 227.5zM510 1805h213l163 -198l230 198h214l-369 -303h-186z" />
    <glyph glyph-name="scaron" unicode="&#x161;" horiz-adv-x="983" 
d="M242 285q93 -159 282 -159q99 0 165.5 36.5t76.5 96.5q12 76 -109 127q-37 16 -179 57q-70 23 -115 43t-88 52q-97 72 -76 199q20 128 151 206.5t319 78.5q133 0 240 -63.5t150 -161.5l-156 -79q-89 146 -259 146q-99 0 -159 -35.5t-69 -94.5q-8 -56 45 -99
q14 -14 64 -35q55 -22 152 -49q170 -49 247 -122.5t62 -171.5q-20 -126 -151 -207.5t-332 -81.5q-152 0 -266 63t-164 172zM321 1460h213l164 -196l231 196h212l-368 -303h-185z" />
    <glyph glyph-name="uni0162" unicode="&#x162;" horiz-adv-x="1196" 
d="M677 1193h-449l27 172h1118l-27 -172h-446l-189 -1193h-31l-34 -72q88 -11 130.5 -51t32.5 -103q-13 -80 -101.5 -133t-237.5 -53q-96 0 -187 24l19 123q97 -22 183 -22q58 0 103.5 18.5t51.5 54.5q6 38 -47.5 55.5t-166.5 16.5l62 143z" />
    <glyph glyph-name="uni0163" unicode="&#x163;" horiz-adv-x="687" 
d="M320 827h-178l26 164h178l48 301h212l-48 -301h265l-26 -164h-265l-82 -518q-12 -76 18 -110t101 -34h125l-26 -165h-130l-28 -64q81 -11 121.5 -54t30.5 -105q-13 -80 -96 -131.5t-229 -51.5q-91 0 -177 20l19 121q85 -18 172 -18q130 0 142 73q5 34 -46 54t-159 25
l69 156q-154 61 -121 271z" />
    <glyph glyph-name="Tcaron" unicode="&#x164;" horiz-adv-x="1196" 
d="M677 1193h-449l27 172h1118l-27 -172h-446l-189 -1193h-223zM474 1805h213l164 -198l230 198h214l-369 -303h-187z" />
    <glyph glyph-name="tcaron" unicode="&#x165;" horiz-adv-x="1272" 
d="M320 826h-178l26 165h178l48 301h214l-48 -301h265l-26 -165h-265l-82 -517q-12 -76 17 -110t100 -34h125l-26 -165h-153q-326 0 -279 296zM632 1059l159 370h226l-232 -370h-153z" />
    <glyph glyph-name="Umacron" unicode="&#x16a;" horiz-adv-x="1302" 
d="M1260 1566h-726l21 133h726zM176 504l136 861h225l-136 -859q-29 -180 43.5 -272.5t226.5 -92.5q158 0 261 94.5t130 270.5l136 859h224l-136 -861q-41 -258 -205 -397t-437 -139q-265 0 -387.5 137.5t-80.5 398.5z" />
    <glyph glyph-name="umacron" unicode="&#x16b;" 
d="M1078 1220h-727l21 132h727zM147 355l101 636h217l-96 -605q-41 -254 160 -254q116 0 197 86t101 214l89 559h214l-157 -991h-206l21 131h-3q-41 -66 -128.5 -114.5t-204.5 -48.5q-77 0 -138 23t-105 68.5t-61 121t-1 174.5z" />
    <glyph glyph-name="Uring" unicode="&#x16e;" horiz-adv-x="1302" 
d="M621 1666q17 104 112.5 178t219.5 74q129 0 199.5 -73.5t53.5 -178.5q-17 -108 -113 -182t-221 -74q-121 0 -194.5 74t-56.5 182zM176 504l136 861h225l-136 -859q-29 -180 43.5 -272.5t226.5 -92.5q158 0 261 94.5t130 270.5l136 859h224l-136 -861q-41 -258 -205 -397
t-437 -139q-265 0 -387.5 137.5t-80.5 398.5zM772 1666q-9 -55 26 -91.5t95 -36.5q63 0 107 35.5t53 92.5q8 56 -24.5 91.5t-95.5 35.5q-60 0 -106.5 -37.5t-54.5 -89.5z" />
    <glyph glyph-name="uring" unicode="&#x16f;" 
d="M461 1374q17 105 112.5 179t220.5 74q127 0 197.5 -73.5t53.5 -179.5q-17 -107 -113 -181t-219 -74q-122 0 -195.5 73.5t-56.5 181.5zM147 355l101 636h217l-96 -605q-41 -254 160 -254q116 0 197 86t101 214l89 559h214l-157 -991h-206l21 131h-3q-41 -66 -128.5 -114.5
t-204.5 -48.5q-77 0 -138 23t-105 68.5t-61 121t-1 174.5zM611 1374q-9 -54 27 -90.5t96 -36.5q62 0 106.5 35.5t53.5 91.5q8 56 -25 92t-95 36t-108.5 -37t-54.5 -91z" />
    <glyph glyph-name="Uhungarumlaut" unicode="&#x170;" horiz-adv-x="1302" 
d="M176 504l136 861h225l-136 -859q-29 -180 43.5 -272.5t226.5 -92.5q158 0 261 94.5t130 270.5l136 859h224l-136 -861q-41 -258 -205 -397t-437 -139q-265 0 -387.5 137.5t-80.5 398.5zM560 1506l264 338h246l-323 -338h-187zM911 1506l264 338h243l-322 -338h-185z" />
    <glyph glyph-name="uhungarumlaut" unicode="&#x171;" horiz-adv-x="1072" 
d="M147 355l101 636h217l-96 -605q-41 -254 160 -254q116 0 197 86t101 214l89 559h214l-157 -991h-206l21 131h-3q-41 -66 -128.5 -114.5t-204.5 -48.5q-77 0 -138 23t-105 68.5t-61 121t-1 174.5zM392 1157l267 340h244l-323 -340h-188zM744 1157l263 340h246l-325 -340
h-184z" />
    <glyph glyph-name="Uogonek" unicode="&#x172;" horiz-adv-x="1302" 
d="M176 504l136 861h225l-136 -859q-29 -180 43.5 -272.5t226.5 -92.5q158 0 261 94.5t130 270.5l136 859h224l-136 -861q-36 -224 -164.5 -359t-341.5 -167q-190 -97 -202 -173q-5 -32 14 -48t62 -16q54 0 128 20l-20 -125q-73 -22 -174 -22q-111 0 -166.5 42t-43.5 115
q9 53 59.5 105.5t125.5 95.5q-224 20 -324.5 156t-62.5 376z" />
    <glyph glyph-name="uogonek" unicode="&#x173;" horiz-adv-x="1040" 
d="M147 355l101 636h217l-96 -605q-41 -254 160 -254q116 0 197 86t101 214l89 559h214l-156 -984h1q-1 0 -1 -1l-1 -6h-13q-228 -109 -241 -193q-11 -66 75 -66q56 0 130 21l-19 -123q-78 -24 -175 -24q-111 0 -165.5 42t-43.5 114q11 67 81.5 130t165.5 106l20 124h-3
q-41 -66 -128.5 -114.5t-204.5 -48.5q-77 0 -138 23t-105 68.5t-61 121t-1 174.5z" />
    <glyph glyph-name="Wcircumflex" unicode="&#x174;" horiz-adv-x="1759" 
d="M684 1502l383 315h187l289 -315h-227l-171 213l-234 -213h-227zM221 1365h240l56 -1145h9l452 1145h232l93 -1145h10l418 1145h239l-564 -1365h-257l-88 1118h-10l-440 -1118h-257z" />
    <glyph glyph-name="wcircumflex" unicode="&#x175;" horiz-adv-x="1495" 
d="M498 1157l383 315h189l287 -315h-226l-171 214l-234 -214h-228zM163 991h232l62 -805h7l323 805h233l68 -805h9l315 805h233l-456 -991h-250l-65 782h-7l-312 -782h-249z" />
    <glyph glyph-name="Ycircumflex" unicode="&#x176;" horiz-adv-x="1306" 
d="M464 1502l382 315h187l289 -315h-227l-171 213l-233 -213h-227zM224 1365h260l280 -641h4l481 641h264l-659 -808l-88 -557h-225l88 557z" />
    <glyph glyph-name="ycircumflex" unicode="&#x177;" horiz-adv-x="1034" 
d="M276 1157l384 315h187l289 -315h-228l-170 214l-235 -214h-227zM54 -412l25 159h38q83 0 143 37t109 125l53 104l-263 978h240l160 -768h6l388 768h236l-642 -1132q-84 -147 -184 -209t-238 -62h-71z" />
    <glyph glyph-name="Ydieresis" unicode="&#x178;" horiz-adv-x="1306" 
d="M559 1551l32 206h240l-32 -206h-240zM224 1365h260l280 -641h4l481 641h264l-659 -808l-88 -557h-225l88 557zM1000 1551l32 206h239l-32 -206h-239z" />
    <glyph glyph-name="Zacute" unicode="&#x179;" horiz-adv-x="1265" 
d="M78 0l23 146l978 1047h-748l27 172h1025l-23 -149l-980 -1044h834l-27 -172h-1109zM709 1502l274 323h265l-355 -323h-184z" />
    <glyph glyph-name="zacute" unicode="&#x17a;" horiz-adv-x="1062" 
d="M981 0h-896l20 128l704 698h-544l26 165h827l-19 -122l-711 -705h619zM558 1157l276 324h266l-357 -324h-185z" />
    <glyph glyph-name="Zdotaccent" unicode="&#x17b;" horiz-adv-x="1265" 
d="M78 0l23 146l978 1047h-748l27 172h1025l-23 -149l-980 -1044h834l-27 -172h-1109zM780 1551l33 209h245l-33 -209h-245z" />
    <glyph glyph-name="zdotaccent" unicode="&#x17c;" horiz-adv-x="1062" 
d="M981 0h-896l20 128l704 698h-544l26 165h827l-19 -122l-711 -705h619zM617 1214l33 209h244l-33 -209h-244z" />
    <glyph glyph-name="Zcaron" unicode="&#x17d;" horiz-adv-x="1265" 
d="M78 0l23 146l978 1047h-748l27 172h1025l-23 -149l-980 -1044h834l-27 -172h-1109zM533 1805h214l163 -198l230 198h215l-370 -303h-187z" />
    <glyph glyph-name="zcaron" unicode="&#x17e;" horiz-adv-x="1062" 
d="M981 0h-896l20 128l704 698h-544l26 165h827l-19 -122l-711 -705h619zM373 1460h215l162 -196l230 196h214l-369 -303h-187z" />
    <glyph glyph-name="uni018F" unicode="&#x18f;" horiz-adv-x="1452" 
d="M184 656q6 38 23 114h1046q19 213 -75.5 334.5t-278.5 121.5q-243 0 -423 -200l-178 68q104 146 268.5 224.5t363.5 78.5q311 0 454.5 -196.5t92.5 -520.5q-34 -213 -143 -375t-271.5 -249.5t-355.5 -87.5t-323 88t-181 243t-19 357zM405 562q-14 -162 57 -285
q35 -63 106.5 -99.5t168.5 -36.5q172 0 311 123t180 334h-818q-2 -10 -2 -19z" />
    <glyph glyph-name="florin" unicode="&#x192;" horiz-adv-x="951" 
d="M141 -481q-32 0 -67 4l-41 4h-7l-19 9l-32 33l20 129q128 -11 167 -11q98 0 145.5 47.5t66.5 168.5l138 872h-222l26 164h222l18 117q24 149 133.5 225.5t271.5 76.5h162l-26 -165h-158q-96 0 -136 -31.5t-53 -115.5l-17 -107h293l-26 -164h-293l-139 -878
q-29 -182 -138.5 -280t-288.5 -98z" />
    <glyph glyph-name="uni0218" unicode="&#x218;" horiz-adv-x="1227" 
d="M521 -463h-151l149 352h237zM92 279l209 62q43 -92 139 -146t222 -54q136 0 230.5 59.5t110.5 157.5q16 105 -78 167q-72 47 -220 94q-221 70 -297 115q-172 103 -142 292q26 167 186.5 269t394.5 102q185 0 311 -77t172 -202l-198 -59q-96 167 -313 167q-134 0 -221 -54
t-101 -144q-10 -69 43 -121q36 -35 74.5 -56t70.5 -31.5t143 -43.5q26 -8 44 -15q93 -29 153.5 -57.5t116.5 -72.5q122 -95 95 -264q-29 -184 -195 -291.5t-410 -107.5q-206 0 -346.5 83.5t-193.5 227.5z" />
    <glyph glyph-name="uni0219" unicode="&#x219;" horiz-adv-x="983" 
d="M383 -463h-149l148 352h236zM73 203l169 82q93 -159 282 -159q99 0 165.5 36.5t76.5 96.5q12 76 -109 127q-37 16 -179 57q-70 23 -115 43t-88 52q-97 72 -76 199q20 128 151 206.5t319 78.5q133 0 240 -63.5t150 -161.5l-156 -79q-89 146 -259 146q-99 0 -159 -35.5
t-69 -94.5q-8 -56 45 -99q14 -14 64 -35q55 -22 152 -49q170 -49 247 -122.5t62 -171.5q-20 -126 -151 -207.5t-332 -81.5q-152 0 -266 63t-164 172z" />
    <glyph glyph-name="uni021A" unicode="&#x21a;" horiz-adv-x="1196" 
d="M462 -463h-152l151 352h235zM228 1193l27 172h1118l-27 -172h-446l-189 -1193h-223l189 1193h-449z" />
    <glyph glyph-name="uni021B" unicode="&#x21b;" horiz-adv-x="691" 
d="M313 -463h-150l148 352h238zM142 826l26 165h178l48 301h214l-48 -301h265l-26 -165h-265l-82 -517q-12 -76 17 -110t100 -34h125l-26 -165h-153q-326 0 -279 296l84 530h-178z" />
    <glyph glyph-name="uni0237" unicode="&#x237;" horiz-adv-x="552" 
d="M-94 -408l27 166h39q163 0 196 204l163 1029h216l-164 -1038q-28 -177 -131.5 -269t-269.5 -92h-76z" />
    <glyph glyph-name="uni0259" unicode="&#x259;" horiz-adv-x="1143" 
d="M144 479q6 39 17 81h784q20 130 -50 217t-208 87q-96 0 -175 -41t-130 -110l-170 55q75 114 206 184t300 70q233 0 351.5 -147t80.5 -387q-25 -155 -108.5 -274t-208.5 -182.5t-272 -63.5q-220 0 -336.5 142t-80.5 369zM353 422q-20 -126 43.5 -211.5t189.5 -85.5
q124 0 217 84.5t120 212.5h-570z" />
    <glyph glyph-name="Wgrave" unicode="&#x1e80;" horiz-adv-x="1759" 
d="M1092 1502l-251 323h266l173 -323h-188zM221 1365h240l56 -1145h9l452 1145h232l93 -1145h10l418 1145h239l-564 -1365h-257l-88 1118h-10l-440 -1118h-257z" />
    <glyph glyph-name="wgrave" unicode="&#x1e81;" horiz-adv-x="1495" 
d="M891 1156l-251 323h267l172 -323h-188zM163 991h232l62 -805h7l323 805h233l68 -805h9l315 805h233l-456 -991h-250l-65 782h-7l-312 -782h-249z" />
    <glyph glyph-name="Wacute" unicode="&#x1e82;" horiz-adv-x="1759" 
d="M1112 1502h-183l274 323h266zM221 1365h240l56 -1145h9l452 1145h232l93 -1145h10l418 1145h239l-564 -1365h-257l-88 1118h-10l-440 -1118h-257z" />
    <glyph glyph-name="wacute" unicode="&#x1e83;" horiz-adv-x="1495" 
d="M946 1156h-184l273 323h267zM163 991h232l62 -805h7l323 805h233l68 -805h9l315 805h233l-456 -991h-250l-65 782h-7l-312 -782h-249z" />
    <glyph glyph-name="Wdieresis" unicode="&#x1e84;" horiz-adv-x="1759" 
d="M1019 1551h-241l32 206h241zM221 1365h240l56 -1145h9l452 1145h232l93 -1145h10l418 1145h239l-564 -1365h-257l-88 1118h-10l-440 -1118h-257zM1220 1551l32 206h242l-32 -206h-242z" />
    <glyph glyph-name="wdieresis" unicode="&#x1e85;" horiz-adv-x="1495" 
d="M834 1213h-240l33 205h240zM163 991h232l62 -805h7l323 805h233l68 -805h9l315 805h233l-456 -991h-250l-65 782h-7l-312 -782h-249zM1037 1213l33 205h240l-33 -205h-240z" />
    <glyph glyph-name="Ygrave" unicode="&#x1ef2;" horiz-adv-x="1306" 
d="M860 1502l-251 323h266l172 -323h-187zM224 1365h260l280 -641h4l481 641h264l-659 -808l-88 -557h-225l88 557z" />
    <glyph glyph-name="ygrave" unicode="&#x1ef3;" horiz-adv-x="1034" 
d="M654 1156l-251 323h265l173 -323h-187zM54 -412l25 159h38q83 0 143 37t109 125l53 104l-263 978h240l160 -768h6l388 768h236l-642 -1132q-84 -147 -184 -209t-238 -62h-71z" />
    <glyph glyph-name="uni2010" unicode="&#x2010;" horiz-adv-x="869" 
d="M202 512l26 164h665l-26 -164h-665z" />
    <glyph glyph-name="endash" unicode="&#x2013;" horiz-adv-x="1073" 
d="M81 512l26 164h1073l-26 -164h-1073z" />
    <glyph glyph-name="emdash" unicode="&#x2014;" horiz-adv-x="2276" 
d="M81 512l26 164h2276l-26 -164h-2276z" />
    <glyph glyph-name="uni2015" unicode="&#x2015;" horiz-adv-x="2157" 
d="M81 512l26 164h2157l-26 -164h-2157z" />
    <glyph glyph-name="quoteleft" unicode="&#x2018;" horiz-adv-x="659" 
d="M301 1069q26 165 97 276.5t227 204.5l131 -102q-111 -70 -158.5 -129.5t-70.5 -154.5h117l-41 -260h-328z" />
    <glyph glyph-name="quoteright" unicode="&#x2019;" horiz-adv-x="662" 
d="M277 914q111 70 159 129.5t70 153.5h-115l40 258h329l-25 -163q-27 -165 -99 -275.5t-228 -205.5z" />
    <glyph glyph-name="quotesinglbase" unicode="&#x201a;" horiz-adv-x="664" 
d="M78 -343q111 70 160 131.5t71 156.5h-115l41 258h329l-26 -162q-26 -164 -98 -276t-226 -206z" />
    <glyph glyph-name="quotereversed" unicode="&#x201b;" horiz-adv-x="659" 
d="M508 811q-126 94 -161.5 204.5t-9.5 276.5l25 163h328l-40 -258h-117q-8 -95 21 -154.5t118 -128.5z" />
    <glyph glyph-name="quotedblleft" unicode="&#x201c;" horiz-adv-x="1101" 
d="M300 1063q27 171 102 292.5t227 209.5l133 -105q-95 -51 -150.5 -121t-83.5 -177h116l-41 -258h-328zM715 904l25 159q26 165 99 280.5t228 206.5l132 -100q-109 -72 -157.5 -132.5t-70.5 -155.5h113l-41 -258h-328z" />
    <glyph glyph-name="quotedblright" unicode="&#x201d;" horiz-adv-x="1097" 
d="M715 901q107 67 156 130.5t72 165.5h-116l40 258h328l-25 -158q-27 -172 -102.5 -293.5t-227.5 -208.5zM277 913q106 67 153 127t70 157h-115l40 258h330l-25 -158q-26 -169 -99.5 -284.5t-229.5 -205.5z" />
    <glyph glyph-name="quotedblbase" unicode="&#x201e;" horiz-adv-x="1101" 
d="M514 -355q109 68 158.5 133.5t72.5 167.5h-113l41 257h328l-25 -158q-27 -170 -101.5 -290.5t-225.5 -208.5zM78 -342q109 68 156.5 129t70.5 159h-115l41 257h330l-25 -158q-25 -164 -98 -279t-228 -208z" />
    <glyph glyph-name="uni201F" unicode="&#x201f;" horiz-adv-x="1100" 
d="M509 795q-125 87 -162 208.5t-10 293.5l25 158h328l-40 -258h-116q-9 -102 19.5 -165.5t114.5 -130.5zM777 1297l25 158h328l-40 -258h-113q-8 -95 21.5 -155.5t114.5 -128.5l-163 -106q-126 90 -162.5 205.5t-10.5 284.5z" />
    <glyph glyph-name="bullet" unicode="&#x2022;" horiz-adv-x="769" 
d="M179 357l74 471h593l-74 -471h-593z" />
    <glyph glyph-name="ellipsis" unicode="&#x2026;" horiz-adv-x="2024" 
d="M216 461l42 266h317l-42 -266h-317zM974 461l42 266h317l-42 -266h-317zM1736 461l42 266h314l-42 -266h-314z" />
    <glyph glyph-name="fraction" unicode="&#x2044;" horiz-adv-x="375" 
d="M-201 -9h-162l1155 1385h162z" />
    <glyph glyph-name="uni20B9" unicode="&#x20b9;" horiz-adv-x="1380" 
d="M867 -61l-639 530l23 142h124q363 0 459 200h-658l84 167h600q-15 69 -73.5 113.5t-152.5 44.5h-414l95 167h1233l-84 -167h-459q53 -75 57 -158h435l-85 -167h-378q-49 -141 -179.5 -230t-322.5 -117l593 -501l-12 -24h-246z" />
    <glyph glyph-name="trademark" unicode="&#x2122;" horiz-adv-x="1162" 
d="M257 1320l15 92h444l-15 -92h-175l-72 -455h-93l72 455h-176zM693 865l87 547h88l113 -450l257 450h88l-87 -547h-88l56 354l-202 -354h-79l-90 348l-55 -348h-88z" />
    <glyph glyph-name="arrowleft" unicode="&#x2190;" horiz-adv-x="2386" 
d="M921 271l-654 355l766 354l78 -141l-198 -129h1362l-27 -171h-1361l156 -129z" />
    <glyph glyph-name="arrowup" unicode="&#x2191;" horiz-adv-x="1433" 
d="M592 -181l189 1191l-202 -149l-168 71l545 558l362 -558l-181 -71l-160 149l-189 -1191h-196z" />
    <glyph glyph-name="arrowright" unicode="&#x2192;" horiz-adv-x="2388" 
d="M1549 271l-77 139l196 129h-1361l27 171h1362l-156 129l121 141l657 -354z" />
    <glyph glyph-name="arrowdown" unicode="&#x2193;" horiz-adv-x="1433" 
d="M681 -248l-369 558l192 72l154 -150l189 1192h196l-189 -1192l208 150l157 -72z" />
    <glyph glyph-name="arrowboth" unicode="&#x2194;" horiz-adv-x="2549" 
d="M850 273l-583 353l695 352l82 -129l-185 -139h1055l-142 139l126 129l581 -352l-693 -353l-84 130l185 136h-1054l141 -136z" />
    <glyph glyph-name="arrowupdn" unicode="&#x2195;" horiz-adv-x="1440" 
d="M681 -235l-380 465l165 87l184 -141l141 891l-228 -141l-138 87l527 465l385 -467l-166 -84l-184 140l-141 -891l228 140l139 -86z" />
    <glyph glyph-name="uni2215" unicode="&#x2215;" horiz-adv-x="1353" 
d="M12 -287l1336 1762h209l-1340 -1762h-205z" />
    <glyph glyph-name="asteriskmath" unicode="&#x2217;" horiz-adv-x="1460" 
d="M654 110l64 399l-452 -234l-110 119l510 266l-425 268l147 118l380 -236l64 400h186l-64 -402l458 241l95 -125l-503 -264l424 -265l-146 -122l-375 235l-63 -398h-190z" />
    <glyph glyph-name="uniF8FF" unicode="&#xf8ff;" horiz-adv-x="1542" 
d="M758 60q-151 0 -279.5 75.5t-203 204.5t-74.5 280q0 152 75 280.5t203.5 203t280.5 74.5q151 0 279.5 -75t203.5 -203.5t75 -279.5q0 -152 -74.5 -281t-203.5 -204t-282 -75zM200 -164h59q50 0 71 34q10 16 10 39q0 47 -37 64q-18 9 -44 9h-59v-146zM235 -137v93h22
q31 0 43 -20q5 -9 5 -27q0 -32 -22 -42q-8 -4 -26 -4h-22zM268 621q0 -205 144 -350t348 -145q203 0 347.5 144.5t144.5 347.5q0 100 -39 191.5t-104.5 157.5t-156 105t-190.5 40q-134 0 -248 -65.5t-180 -178.5t-66 -247zM352 -109q0 -36 30 -50q16 -7 33 -7q31 0 45 16
q8 7 10 17l-31 3q-5 -9 -14 -12q-3 -1 -10 -1q-18 0 -25 13q-3 5 -3 13h85v8q0 27 -18 42q-16 14 -42 14q-36 0 -52 -27q-8 -13 -8 -29zM387 -98q2 13 12 19q4 3 14 3q17 0 23 -12l3 -10h-52zM442 719q10 -2 12 -4q52 -21 98 -27q41 -3 72 2q43 11 47 12q3 0 8.5 2.5
t7.5 3.5q-5 2 -16.5 8t-17 9t-13 8.5t-13.5 12.5h19q39 0 75 19q65 40 136 61q24 8 58 11q4 0 19.5 1t23.5 0q54 -2 89 -33q10 -11 28 -33v-2l-6 2q-45 17 -83 3.5t-62 -53.5q-7 -13 -25 -55q-9 -21 -27 -63.5t-20 -48.5q-33 -64 -65 -101q-27 -33 -66 -58q-45 -34 -116 -55
h-4h-1l24 22q12 11 25 44q41 116 45 127q24 73 57 131v3q-2 -4 -11 -13q-8 -10 -10 -12q-23 -36 -31 -57q-2 -6 -8 -6q-99 3 -177 67q-40 38 -59 55q-1 1 -5 7t-8 10zM481 -132q5 -34 56 -34q35 0 48 18q7 9 7 18q0 24 -36 30l-22 3q-16 4 -16 12q0 11 19 11q17 0 21 -14
l31 3q-5 32 -53 32q-33 0 -46 -16q-6 -7 -6 -18q0 -25 36 -31l21 -4q16 -3 16 -11q0 -11 -20 -11q-18 0 -23 14zM605 -25q0 -15 19 -15q18 0 18 15t-18 15q-19 0 -19 -15zM607 -164h34v109h-34v-109zM656 -109q0 -35 25 -48q12 -5 25 -5q18 0 29 9q5 5 7 8h1v-19
q0 -21 -25 -21q-16 0 -21 6l-6 6l-31 -3q7 -31 57 -31q37 0 52 19q9 9 9 23v110h-35v-18h-1q-6 12 -18 17q-8 3 -18 3q-30 0 -43 -25q-7 -11 -7 -31zM691 -109q0 21 12 28q8 4 15 4q16 0 22 -15q3 -7 3 -17q0 -30 -25 -30q-18 0 -24 14q-3 6 -3 16zM798 -164h34v64
q0 13 11 19q6 3 13 3q21 0 21 -22v-64h35v70q0 26 -20 36q-10 5 -23 5q-27 0 -37 -21v19h-34v-109zM927 -109q0 -34 28 -50q17 -7 33 -7q38 0 54 27q7 13 7 30q0 33 -28 49q-13 7 -33 7q-38 0 -54 -27q-7 -14 -7 -29zM962 -109q0 21 12 28q7 5 14 5q16 0 24 -16q3 -15 3 -17
q0 -20 -12 -29q-5 -4 -15 -4q-16 0 -23 15q-3 9 -3 18zM1051 -55l43 -109h39l43 109h-36l-26 -78h-1l-26 78h-36zM1177 -133q0 -21 21 -29q8 -4 21 -4q18 0 27 9q4 2 9 9v-16h33v74q0 20 -15 28q-17 9 -37 9q-30 0 -45 -15q-7 -6 -10 -17l32 -3q5 13 22 13q19 0 19 -14v-1
q0 -7 -13 -7l-17 -3q-19 0 -32 -8q-15 -8 -15 -25zM1210 -133q0 9 9 12q5 3 12 3q19 3 23 5v-11q0 -13 -12 -18q-6 -3 -14 -3q-18 0 -18 12zM1267 -16q0 16 11 26.5t27 10.5t26.5 -10.5t10.5 -26.5t-10.5 -27t-26.5 -11t-27 11t-11 27zM1279 -16q0 -11 7.5 -19t18.5 -8
t18.5 8t7.5 19t-7.5 18.5t-18.5 7.5t-18.5 -7.5t-7.5 -18.5zM1292 -33v35h14q12 0 12 -11q0 -5 -5 -10l8 -14h-10l-6 11h-5v-11h-8zM1300 -13h6q5 0 5 3t-5 3h-6v-6z" />
    <glyph glyph-name="_Designova" horiz-adv-x="1692" 
d="M844 -121q-174 0 -322.5 87t-235 235.5t-86.5 323.5q1 131 52 250.5t137.5 205.5t206 137t250.5 51q175 0 323.5 -86t235.5 -234.5t87 -323.5q0 -176 -87 -324.5t-236 -235t-325 -86.5zM278 525q0 -116 45 -221.5t120.5 -181.5t181 -121t221.5 -45q154 0 285 76t207 207
t76 285q0 116 -45 221.5t-120.5 181.5t-180.5 121t-221 45t-221 -45t-181.5 -120.5t-121.5 -181t-45 -221.5zM480 638q7 0 13 -4q58 -22 115 -31q45 -5 81 3q29 4 53 14q5 0 11.5 3t8.5 4q-5 3 -22.5 11.5t-27.5 15.5t-19 17h21q39 0 86 20q85 53 158 73q37 10 66 10
q6 0 24.5 1.5t26.5 0.5q67 -4 102 -39q6 -5 33 -37v-2q-3 2 -7 2q-53 20 -95.5 4.5t-71.5 -59.5q-5 -9 -10 -20.5t-11 -25t-9 -21.5q-6 -14 -25 -59t-30 -68q-36 -74 -74 -119q-20 -27 -74 -66q-52 -38 -136 -63h-7l28 24q18 17 30 51q7 20 25 71t27 78q31 90 65 150v1
q-3 -3 -11 -13q-9 -7 -11 -16q-23 -27 -38 -65q-3 -5 -9 -5q-117 5 -204 78q-10 10 -32.5 31t-33.5 32q-12 14 -16 18z" />
    <glyph glyph-name="_Origin" horiz-adv-x="2247" 
d="M146 929v50h1955v-50h-1955zM146 110v50h1955v-50h-1955zM224 311v177h42v-177h-42zM256 608v177h148v-32h-107v-39h97v-31h-97v-42h107v-33h-148zM294 311v177h34l89 -107v107h40v-177h-33l-88 109v-109h-42zM434 608v177h34l88 -107v107h40v-177h-33l-88 109v-109h-41z
M550 311v177h87q72 0 72 -45q0 -28 -26 -40q3 0 3 -2q28 -12 28 -42q0 -48 -71 -48h-93zM592 342h48q32 0 32 22t-32 22h-48v-44zM592 419h42q33 0 33 20q0 22 -33 22h-42v-42zM625 753v32h156v-32h-57v-145h-41v145h-58zM734 311v177h148v-33h-107v-38h96v-31h-96v-41h105
v-34h-146zM799 785h44l40 -124l42 124h38l40 -126l42 126h39l-57 -177h-45l-39 121l-41 -121h-43zM910 311v177h81q28 0 42 -6q36 -19 36 -57q0 -21 -10 -35q-15 -18 -29 -23l37 -56h-43l-35 50h-37v-50h-42zM952 394h37q38 0 38 31q0 30 -38 30h-37v-61zM1089 311v177h40
v-143h106v-34h-146zM1092 697q0 39 28 65q26 26 69 26t69 -26q28 -25 28 -65q0 -39 -28 -65q-26 -27 -68 -27q-44 0 -70 27q-28 28 -28 65zM1134 697q0 -25 15.5 -40.5t39.5 -15.5t39.5 15.5t15.5 40.5t-15.5 41.5t-39.5 16.5t-39.5 -16.5t-15.5 -41.5zM1264 311v177h41
v-177h-41zM1309 608v177h81q28 0 41 -6q36 -17 36 -57q0 -21 -10 -35q-9 -15 -29 -23l39 -56h-45l-33 50h-39v-50h-41zM1334 311v177h35l87 -107v107h42v-177h-34l-89 109v-109h-41zM1350 691h37q38 0 38 31t-38 31h-37v-62zM1487 608v177h148v-32h-107v-39h96v-31h-96v-75
h-41zM1524 335q0 24 25 24q10 0 17 -7t7 -17q0 -11 -7 -25l-14 -38h-26l12 41q-14 5 -14 22zM1651 608v177h147v-32h-106v-39h95v-31h-95v-42h106v-33h-147zM1674 311v177h80q30 0 52 -11q46 -21 46 -77q0 -28 -12 -47q-23 -42 -86 -42h-80zM1716 345h37q17 0 31 7
q26 14 26 48q0 21 -6 29q-14 26 -51 26h-37v-110zM1828 608v177h33l90 -107v107h40v-177h-34l-89 109v-109h-40zM1876 311v177h147v-33h-107v-38h97v-31h-97v-41h106v-34h-146z" />
    <glyph glyph-name="_VendorID" horiz-adv-x="1116" 
d="M73 -4v1187h974v-1187h-974zM76 -95q0 13 7.5 20.5t18.5 7.5q9 0 12 -3l4 -5v26h13v-72h-13v9l-4 -7q-8 -5 -15 -5q-23 0 -23 29zM90 -95q0 -17 13 -17q15 0 15 17v1q0 18 -13 18q-15 0 -15 -19zM126 47h869v1084h-869v-1084zM141 -95q0 13 7.5 20.5t19.5 7.5
q11 0 18.5 -7.5t7.5 -19.5q0 -2 -2 -5h-37q1 -13 13 -13q10 0 12 9h12q-4 -21 -24 -21q-27 0 -27 29zM155 -91h25q-3 15 -12 15q-12 0 -13 -15zM198 -106h14q3 -9 9 -9q9 0 9 7q0 3 -12 9q-18 5 -18 16q0 16 21 16t21 -16h-14q-1 7 -7 7q-7 0 -7 -6q0 -4 12 -9q17 -5 17 -15
q0 -18 -22 -18q-20 0 -23 18zM240 297q0 59 46 125l97 137h64l-84 -120q11 3 23 3q62 0 102.5 -41.5t40.5 -103.5q0 -61 -41.5 -103.5t-101.5 -42.5q-61 0 -103.5 42.5t-42.5 103.5zM240 768q0 56 46 123l97 142h64l-84 -122q7 2 23 2q63 0 103 -41t40 -104
q0 -61 -41 -102.5t-102 -41.5t-103.5 42t-42.5 102zM251 -56q0 7 8 7t8 -7q0 -8 -8 -8t-8 8zM252 -121v54h14v-54h-14zM276 -95q0 28 26 28q9 0 12 -3l4 -5v8h14v-41q0 -8 -2 -11q0 -24 -27 -24q-26 0 -26 18v1h14v-1q0 -8 12 -8q11 0 15 13v8l-4 -7q-8 -2 -14 -2
q-24 0 -24 26zM291 -94q0 -18 12 -18q15 0 15 17v1q0 18 -15 18q-12 0 -12 -18zM294 297q0 -42 25.5 -68t66.5 -26q39 0 64.5 26t25.5 68q0 40 -25.5 65t-64.5 25q-41 0 -66.5 -25t-25.5 -65zM294 768q0 -41 25.5 -67t66.5 -26q39 0 64.5 26.5t25.5 66.5t-25.5 66t-64.5 26
q-41 0 -66.5 -25t-25.5 -67zM343 -121v54h14v-10l4 7q5 3 13 3q17 0 20 -15q1 -3 1 -9v-30h-15v34q0 11 -10 11q-13 0 -13 -21v-24h-14zM402 -95q0 13 7.5 20.5t19.5 7.5q28 0 28 -28q0 -29 -28 -29q-12 0 -19.5 8t-7.5 21zM416 -95q0 -17 13 -17q15 0 15 17q0 19 -15 19
q-13 0 -13 -19zM462 -67h14l14 -45l13 45h14l-19 -54h-18zM522 -106q0 16 30 16h3v7q0 7 -9 7q-11 0 -11 -9h-13q0 18 24 18q19 0 21 -15v-39h-12v6l-3 -5q-8 -4 -14 -4q-16 0 -16 18zM535 -106q0 -6 8 -6q12 0 12 9v6q-20 2 -20 -9zM576 -78v9h6v8q0 15 19 15h6v-11
q-11 2 -11 -5v-7h11v-9h-11v-43h-14v43h-6zM589 297q0 62 44 125l97 137h66l-86 -120q10 3 25 3q61 0 102 -41.5t41 -103.5q0 -61 -41.5 -103.5t-101.5 -42.5q-61 0 -103.5 42.5t-42.5 103.5zM589 768q0 57 44 123l97 142h66l-87 -122q8 2 26 2q61 0 102 -41.5t41 -103.5
q0 -61 -41.5 -102.5t-101.5 -41.5q-61 0 -103.5 41.5t-42.5 102.5zM611 -95q0 28 28 28q27 0 27 -28q0 -29 -27 -29q-28 0 -28 29zM625 -95q0 -17 14 -17q13 0 13 17q0 19 -13 19q-14 0 -14 -19zM642 297q0 -42 26 -68t67 -26q38 0 62.5 26t24.5 68q0 40 -24.5 65t-62.5 25
q-41 0 -67 -25t-26 -65zM642 768q0 -41 26 -67t67 -26q38 0 62.5 26t24.5 67q0 40 -24.5 66t-62.5 26q-41 0 -67 -25.5t-26 -66.5zM675 -121v54h12v-10l6 7q4 3 13 3q16 0 19 -15v-39h-14v34q-4 11 -9 11q-15 0 -15 -21v-24h-12zM732 -78v9h8v13h14v-13h10v-9h-10v-28
q2 -10 9 -6v-10h-8q-15 0 -15 10v34h-8zM768 -106h15q1 -9 10 -9q8 0 8 7q0 3 -12 9q-17 5 -17 16q0 16 20 16q19 0 24 -16h-16q0 7 -9 7q-5 0 -5 -6q0 -5 11 -9q19 -6 19 -15q0 -18 -23 -18q-21 0 -25 18zM820 -116q0 10 9 10t9 -10q0 -8 -9 -8t-9 8zM844 -95q0 13 8 20.5
t18 7.5q25 0 25 -20h-13q-3 11 -12 11q-12 0 -12 -19q0 -17 12 -17q10 0 12 9h13q-1 -21 -25 -21q-26 0 -26 29zM900 -95q0 28 29 28q26 0 26 -28q0 -29 -26 -29q-29 0 -29 29zM914 -95q0 -17 15 -17q13 0 13 17q0 19 -13 19q-15 0 -15 -19zM965 -121v54h14v-9l5 6q3 3 9 3
q13 0 18 -10l5 7q3 3 11 3q17 0 17 -12q1 -4 1 -12v-30h-13v27q0 2 -0.5 5t-0.5 4q0 9 -10 9q-9 0 -9 -18v-27h-13v36q-5 9 -10 9q-10 0 -10 -18v-27h-14z" />
    </font>
</defs>
</svg>
