<?xml version="1.0" standalone="no"?>
<!DOCTYPE svg PUBLIC "-//W3C//DTD SVG 1.1//EN" "http://www.w3.org/Graphics/SVG/1.1/DTD/svg11.dtd" >
<svg xmlns="http://www.w3.org/2000/svg" xmlns:xlink="http://www.w3.org/1999/xlink" version="1.1">
<metadata>
Created by FontForge 20170731 at Wed Nov 15 16:17:41 2023
 By Aleksey,,,
Copyright (c) 2023 by Designova. All rights reserved.
</metadata>
<defs>
<font id="LinearGrotesk-Italic" horiz-adv-x="1090" >
  <font-face 
    font-family="Linear Grotesk"
    font-weight="400"
    font-style="italic"
    font-stretch="normal"
    units-per-em="2048"
    panose-1="0 0 0 0 0 0 0 0 0 0"
    ascent="1638"
    descent="-410"
    x-height="981"
    cap-height="1365"
    bbox="-364 -489 2564 1908"
    underline-thickness="100"
    underline-position="-355"
    unicode-range="U+0020-F8FF"
  />
<missing-glyph horiz-adv-x="1382" 
d="M195 -33l220 1390h982l-220 -1390h-982zM383 256l327 404l-199 407zM431 110h554l-211 422zM604 1213l211 -424l346 424h-557zM879 660l201 -404l128 811z" />
    <glyph glyph-name=".notdef" horiz-adv-x="1382" 
d="M195 -33l220 1390h982l-220 -1390h-982zM383 256l327 404l-199 407zM431 110h554l-211 422zM604 1213l211 -424l346 424h-557zM879 660l201 -404l128 811z" />
    <glyph glyph-name=".null" horiz-adv-x="0" 
 />
    <glyph glyph-name="nonmarkingreturn" horiz-adv-x="682" 
 />
    <glyph glyph-name="space" unicode=" " horiz-adv-x="360" 
 />
    <glyph glyph-name="space" unicode="&#xa0;" horiz-adv-x="360" 
 />
    <glyph glyph-name="exclam" unicode="!" horiz-adv-x="571" 
d="M241 317l149 1027h217l-181 -1027h-185zM114 -68l41 255h321l-41 -255h-321z" />
    <glyph glyph-name="quotedbl" unicode="&#x22;" horiz-adv-x="1282" 
d="M741 929l348 591h272l-429 -591h-191zM309 929l351 591h271l-429 -591h-193z" />
    <glyph glyph-name="numbersign" unicode="#" horiz-adv-x="1464" 
d="M207 -46l127 374h-296l24 149h324l103 301h-299l24 149h326l129 372h183l-125 -372h417l129 372h183l-125 -372h292l-24 -149h-321l-103 -301h300l-24 -149h-327l-127 -374h-190l129 374h-415l-128 -374h-186zM573 477h416l104 301h-417z" />
    <glyph glyph-name="dollar" unicode="$" horiz-adv-x="1267" 
d="M541 -49q-87 11 -172.5 44.5t-159.5 92.5t-106 132l177 79q33 -82 149 -139.5t232 -57.5q180 0 277 48.5t115 157.5q5 35 -3 63q-10 39 -21 57t-44 39q-4 3 -16 11l-15 10t-12.5 8t-12.5 8t-11 6.5t-12.5 6.5t-12.5 6t-15.5 7t-17 6.5t-20.5 7.5q-62 18 -92 31l-100 30
q-96 28 -165 61.5t-120.5 79.5t-71.5 107t-8 137q21 136 154.5 233.5t323.5 115.5l24 150h195l-24 -153q140 -18 248.5 -92.5t116.5 -155.5l-167 -58q-52 81 -128 118t-194 37q-162 0 -252.5 -51.5t-105.5 -145.5q-14 -91 53 -144.5t240 -104.5q29 -12 54 -18
q126 -39 216 -81q81 -37 123 -78q46 -42 73 -108.5t16 -139.5q-26 -162 -168 -255.5t-345 -109.5l-23 -145h-195z" />
    <glyph glyph-name="percent" unicode="%" horiz-adv-x="2230" 
d="M320 -62l1561 1414h234l-1560 -1414h-235zM286 1022q16 101 91.5 182.5t188 126.5t239.5 45q198 0 314 -99t92 -255q-16 -102 -91.5 -183t-187.5 -124t-239 -43q-124 0 -222 42t-149.5 123t-35.5 185zM475 1022q-14 -89 54.5 -143.5t188.5 -54.5t204 54t98 144
q15 93 -50.5 147.5t-188.5 54.5q-122 0 -207 -55t-99 -147zM1222 268q16 102 91 183t187.5 125.5t240.5 44.5q195 0 313 -99.5t94 -253.5q-16 -103 -92 -185t-188.5 -126t-238.5 -44q-191 0 -311 100t-96 255zM1413 268q-15 -93 53 -147t188 -54q119 0 205.5 55.5
t100.5 145.5q15 91 -51.5 144.5t-191.5 53.5q-124 0 -206.5 -53.5t-97.5 -144.5z" />
    <glyph glyph-name="ampersand" unicode="&#x26;" horiz-adv-x="1313" 
d="M557 -25q-230 0 -350.5 106.5t-92.5 285.5q21 133 121.5 240.5t308.5 219.5q-80 114 -107 185t-17 140q21 130 123.5 210t246.5 80q141 0 216.5 -77t55.5 -201q-16 -104 -90 -190.5t-223 -178.5l316 -432q73 113 98 301h142q-33 -237 -161 -409l185 -255h-179l-110 149
q-205 -174 -483 -174zM255 367q-20 -123 64.5 -193t255.5 -70q243 0 395 141l-355 481q-183 -93 -263 -173t-97 -186zM563 1152q-7 -44 17 -97t100 -163q111 65 169 131t69 141q11 68 -29 108.5t-120 40.5q-84 0 -139 -42.5t-67 -118.5z" />
    <glyph glyph-name="quotesingle" unicode="'" horiz-adv-x="847" 
d="M309 929l347 591h270l-425 -591h-192z" />
    <glyph glyph-name="parenleft" unicode="(" horiz-adv-x="831" 
d="M562 -348q-384 396 -295 960q90 570 600 965l155 -70q-124 -105 -195.5 -179t-157.5 -192q-156 -220 -205 -524q-52 -324 56 -551q16 -34 28.5 -58.5t21.5 -43.5t22 -40t19 -31t24.5 -34.5t25.5 -33.5t36 -45.5t42 -53.5z" />
    <glyph glyph-name="parenright" unicode=")" horiz-adv-x="830" 
d="M7 -282q75 74 97 92q54 49 85 81t94 105q73 85 118 165q51 87 96.5 208.5t64.5 242.5q49 303 -38 520q-49 118 -98 194t-139 181l177 70q383 -394 293 -965q-89 -561 -598 -960z" />
    <glyph glyph-name="asterisk" unicode="*" horiz-adv-x="1404" 
d="M1089 187l-308 330l-405 -325l-153 95l410 315l-452 125l100 151l445 -132l42 352h215l-72 -352l488 132l54 -151l-496 -125l311 -312z" />
    <glyph glyph-name="plus" unicode="+" horiz-adv-x="1533" 
d="M698 155l63 402h-527l25 154h527l61 387h190l-61 -387h522l-25 -154h-522l-63 -402h-190z" />
    <glyph glyph-name="comma" unicode="," horiz-adv-x="750" 
d="M19 -387l347 589h268l-426 -589h-189z" />
    <glyph glyph-name="hyphen" unicode="-" horiz-adv-x="1342" 
d="M184 557l25 154h1150l-25 -154h-1150z" />
    <glyph glyph-name="period" unicode="." horiz-adv-x="541" 
d="M103 -54l41 256h317l-41 -256h-317z" />
    <glyph glyph-name="slash" unicode="/" horiz-adv-x="929" 
d="M-29 -172l987 1620h202l-985 -1620h-204z" />
    <glyph glyph-name="zero" unicode="0" horiz-adv-x="1153" 
d="M391 695q-28 -175 -19 -297q7 -131 64.5 -208t161.5 -77q80 0 146.5 47t112.5 133q87 160 125 402q26 178 17 308t-65 203.5t-155 73.5q-147 0 -246 -155t-142 -430zM184 695q31 194 97.5 342.5t154.5 231.5q167 155 366 155q239 0 340.5 -190t46.5 -539
q-53 -337 -212 -532.5t-402 -195.5q-199 0 -319 159q-63 83 -82.5 227.5t10.5 341.5z" />
    <glyph glyph-name="one" unicode="1" horiz-adv-x="723" 
d="M406 0l188 1188l-388 -190l29 183l446 218h132l-222 -1399h-185z" />
    <glyph glyph-name="two" unicode="2" horiz-adv-x="1164" 
d="M275 1066q72 169 212 263.5t335 94.5q208 0 322 -105.5t86 -285.5q-33 -208 -310 -413q-45 -32 -84.5 -61.5t-68 -51t-32.5 -24.5q-99 -72 -150 -117q-105 -94 -118 -109q-39 -42 -87 -111h708l-23 -146h-950q11 71 55.5 150t100.5 145q49 58 154 145q41 34 70.5 58.5
t63.5 50.5t54 40.5t72.5 52.5t87.5 64q224 166 249 331q18 113 -44 178t-183 65q-120 0 -210.5 -67t-143.5 -189z" />
    <glyph glyph-name="three" unicode="3" horiz-adv-x="1229" 
d="M318 310q75 -197 305 -197q140 0 242.5 74t122.5 203q19 122 -69.5 195.5t-241.5 73.5q-57 0 -134 -6l23 145q43 -4 126 -4q131 0 225.5 68t112.5 183q16 103 -48.5 169t-182.5 66q-192 0 -318 -208l-160 47q72 140 204.5 222.5t306.5 82.5q212 0 322 -102t85 -261
q-18 -112 -99.5 -198t-192.5 -126q59 -16 107.5 -46t84.5 -72.5t51.5 -101.5t4.5 -127q-32 -199 -192 -311t-402 -112q-181 0 -302 80.5t-155 206.5z" />
    <glyph glyph-name="four" unicode="4" horiz-adv-x="1257" 
d="M120 306l23 142l871 959h179l-151 -955h217l-24 -146h-217l-51 -322h-203l51 322h-695zM340 452h499l76 481q17 114 43 210h-10l-159 -187z" />
    <glyph glyph-name="five" unicode="5" horiz-adv-x="1169" 
d="M323 290q30 -82 102.5 -129.5t167.5 -47.5q144 0 242 85t120 223q22 139 -53 225.5t-217 86.5q-166 0 -309 -124l-118 41l201 741h765l-23 -146h-581l-123 -440q128 71 281 71q203 0 310 -123t75 -326q-32 -199 -187 -329.5t-401 -130.5q-166 0 -274.5 72t-152.5 198z
" />
    <glyph glyph-name="six" unicode="6" horiz-adv-x="1160" 
d="M358 435q-23 -142 46 -232t203 -90q129 0 225.5 89t119.5 233q24 148 -45.5 237.5t-200.5 89.5q-128 0 -226.5 -93t-121.5 -234zM173 624q50 315 213 546q85 120 209 187t271 67q291 0 389 -263l-166 -49q-83 168 -246 168q-267 0 -401 -396q-36 -101 -51 -166
q55 86 153 138t213 52q209 0 319.5 -133t78.5 -338t-186 -337.5t-378 -132.5q-240 0 -352 148q-123 156 -66 509z" />
    <glyph glyph-name="seven" unicode="7" horiz-adv-x="1088" 
d="M1000 1239h-754l24 152h988l-19 -120q-493 -572 -787 -1287h-208q244 623 756 1255z" />
    <glyph glyph-name="eight" unicode="8" horiz-adv-x="1187" 
d="M497 1043q-16 -106 47 -170t175 -64q114 0 198 65.5t100 168.5q17 102 -46.5 169.5t-176.5 67.5q-115 0 -198 -68t-99 -169zM134 376q21 138 118.5 232t233.5 132q-229 97 -194 312q25 160 173.5 266t351.5 106q200 0 317.5 -106t92.5 -266q-18 -113 -98 -191.5
t-197 -120.5q127 -38 194.5 -133t45.5 -233q-19 -118 -100.5 -211t-208.5 -144.5t-277 -51.5q-223 0 -352 112t-100 297zM343 384q-19 -118 56 -194.5t210 -76.5q134 0 236 77.5t121 193.5q19 117 -59.5 199t-210.5 82q-131 0 -232.5 -81t-120.5 -200z" />
    <glyph glyph-name="nine" unicode="9" horiz-adv-x="1150" 
d="M428 956q-22 -140 49.5 -231t194.5 -91q126 0 225 91t121 230q22 137 -46.5 231t-196.5 94q-127 0 -226 -91.5t-121 -232.5zM119 236l174 49q30 -78 96 -125t156 -47q94 0 172 44.5t130 126.5q100 158 136 378q-53 -74 -148 -123t-212 -49q-97 0 -177.5 33t-135.5 92
t-78 147.5t-7 192.5q33 205 196 337t377 132q179 0 289.5 -101.5t126.5 -269.5q11 -117 -17 -289q-61 -384 -230 -590.5t-448 -206.5q-150 0 -258 78t-142 191z" />
    <glyph glyph-name="colon" unicode=":" horiz-adv-x="541" 
d="M239 799l40 257h317l-40 -257h-317zM131 122l41 257h317l-41 -257h-317z" />
    <glyph glyph-name="semicolon" unicode=";" horiz-adv-x="714" 
d="M46 -212l348 591h268l-427 -591h-189zM366 799l40 257h318l-40 -257h-318z" />
    <glyph glyph-name="less" unicode="&#x3c;" horiz-adv-x="1448" 
d="M1162 -37l-914 603l17 107l1106 607l103 -121l-982 -539l811 -537z" />
    <glyph glyph-name="equal" unicode="=" horiz-adv-x="1508" 
d="M292 721l25 154h1150l-25 -154h-1150zM241 397l24 153h1150l-24 -153h-1150z" />
    <glyph glyph-name="greater" unicode="&#x3e;" horiz-adv-x="1444" 
d="M272 -37l-101 120l973 537l-803 536l140 124l912 -607l-17 -107z" />
    <glyph glyph-name="question" unicode="?" horiz-adv-x="1114" 
d="M501 383q15 96 76 179t146 140q16 11 47.5 31t45.5 29q16 12 21 14q23 14 26 15q69 47 109 93.5t48 103.5q18 115 -46 175t-213 60q-124 0 -218 -55t-176 -176l-167 54q88 154 248 242t337 88q227 0 343.5 -105.5t88.5 -280.5q-14 -88 -73.5 -164t-142.5 -134l-141 -91
q-147 -93 -166 -219l-14 -83h-193zM364 -68l41 255h320l-41 -255h-320z" />
    <glyph glyph-name="at" unicode="@" horiz-adv-x="1763" 
d="M852 -176q-173 0 -317.5 63t-237.5 171t-133 259t-13 320q27 167 115 317t215.5 257.5t291.5 170.5t336 63q179 0 324 -59t238 -162.5t132 -250.5t12 -317q-33 -207 -156 -344.5t-276 -137.5q-91 0 -145 35t-67 102q-131 -129 -331 -129q-146 0 -221 72.5t-56 193.5
q19 122 120.5 196.5t275.5 95.5l161 19q92 12 120 29q14 102 -34.5 151.5t-161.5 49.5q-115 0 -183.5 -52t-76.5 -143h-137q11 141 127 229.5t290 88.5q173 0 253.5 -85t55.5 -242l-62 -396q-15 -96 90 -96q98 0 175 100t103 263q31 192 -34 343.5t-210 236t-346 84.5
q-192 0 -366 -90.5t-290.5 -247.5t-146.5 -345q-23 -144 10.5 -271.5t111 -219t198.5 -145t266 -53.5q272 0 495 171l65 -92q-264 -203 -580 -203zM696 450q-11 -71 33.5 -109t140.5 -38q135 0 228 87.5t116 237.5l6 34q-78 -17 -215 -30l-55 -6q-229 -27 -254 -176z" />
    <glyph glyph-name="A" unicode="A" horiz-adv-x="1373" 
d="M476 511h586l-174 721h-12zM4 0l799 1365h202l364 -1365h-181l-97 394h-684l-221 -394h-182z" />
    <glyph glyph-name="B" unicode="B" horiz-adv-x="1291" 
d="M779 0h-647l216 1365h573q222 0 326.5 -93.5t79.5 -255.5q-17 -106 -90.5 -182.5t-182.5 -117.5q117 -31 183 -122t47 -212q-26 -164 -164 -273t-341 -109zM317 123h439q138 0 238 69.5t118 187.5q18 113 -59 187.5t-221 74.5h-432zM419 764h377q144 0 242 62t116 178
q17 111 -49 174t-225 63h-385z" />
    <glyph glyph-name="C" unicode="C" horiz-adv-x="1344" 
d="M182 682q34 219 144 382t273 248t359 85q173 0 289.5 -83t165.5 -216l-149 -43q-104 219 -330 219q-224 0 -382 -161t-201 -431q-43 -271 66 -430t330 -159q135 0 250 66t186 172l142 -44q-98 -143 -249 -231.5t-344 -88.5q-195 0 -331 85t-194.5 248t-24.5 382z" />
    <glyph glyph-name="D" unicode="D" horiz-adv-x="1346" 
d="M547 0h-415l216 1365h420q340 0 502.5 -176t109.5 -507q-51 -322 -267.5 -502t-565.5 -180zM317 123h223q279 0 453 138t219 421q45 285 -84 422t-405 137h-228z" />
    <glyph glyph-name="E" unicode="E" horiz-adv-x="1205" 
d="M1119 0h-987l216 1365h972l-19 -124h-806l-75 -473h725l-20 -124h-725l-83 -521h821z" />
    <glyph glyph-name="F" unicode="F" horiz-adv-x="1154" 
d="M298 0h-166l216 1365h942l-19 -124h-776l-78 -492h697l-20 -122h-697z" />
    <glyph glyph-name="G" unicode="G" horiz-adv-x="1406" 
d="M182 682q33 212 139.5 373t274.5 251.5t375 90.5q104 0 191 -27.5t141 -75.5q107 -96 140 -186l-147 -43q-114 209 -344 209q-237 0 -397.5 -161t-203.5 -431q-43 -274 67.5 -431.5t337.5 -157.5q196 0 327 113t158 279l20 127h-440l20 125h602l-117 -737h-120l19 200
q-159 -233 -493 -233q-299 0 -450.5 193t-99.5 522z" />
    <glyph glyph-name="H" unicode="H" horiz-adv-x="1360" 
d="M298 0h-166l216 1365h166l-95 -601h763l95 601h167l-216 -1365h-167l102 642h-763z" />
    <glyph glyph-name="I" unicode="I" horiz-adv-x="430" 
d="M298 0h-166l216 1365h166z" />
    <glyph glyph-name="J" unicode="J" horiz-adv-x="977" 
d="M226 268q17 -82 75.5 -128.5t146.5 -46.5q246 0 294 305l153 967h166l-157 -991q-31 -200 -152 -303.5t-318 -103.5q-309 0 -363 252z" />
    <glyph glyph-name="K" unicode="K" horiz-adv-x="1265" 
d="M298 0h-166l216 1365h166l-114 -722h4l820 722h220l-683 -590l498 -775h-207l-416 669l-269 -234z" />
    <glyph glyph-name="L" unicode="L" horiz-adv-x="1087" 
d="M1037 0h-905l216 1365h166l-197 -1242h739z" />
    <glyph glyph-name="M" unicode="M" horiz-adv-x="1686" 
d="M298 0h-166l216 1365h215l318 -1080h9l660 1080h220l-216 -1365h-166l183 1154l-638 -1051h-146l-307 1043z" />
    <glyph glyph-name="N" unicode="N" horiz-adv-x="1367" 
d="M298 0h-166l216 1365h191l567 -1140l180 1140h165l-216 -1365h-191l-566 1138z" />
    <glyph glyph-name="O" unicode="O" horiz-adv-x="1438" 
d="M182 682q51 322 258.5 518.5t500.5 196.5q196 0 328 -89t184.5 -251t18.5 -377q-52 -328 -257.5 -520.5t-499.5 -192.5t-439.5 194t-93.5 521zM351 682q-43 -270 61 -429.5t323 -159.5q217 0 370 157.5t196 429.5q43 273 -57 433.5t-322 160.5q-219 0 -373.5 -160.5
t-197.5 -431.5z" />
    <glyph glyph-name="P" unicode="P" horiz-adv-x="1268" 
d="M298 0h-166l216 1365h584q227 0 341.5 -108.5t85.5 -290.5q-29 -185 -180 -293t-374 -108h-418zM407 688h394q167 0 267 70.5t122 207.5q21 134 -57.5 204.5t-247.5 70.5h-390z" />
    <glyph glyph-name="Q" unicode="Q" horiz-adv-x="1438" 
d="M182 680q52 326 259.5 521.5t499.5 195.5q293 0 437.5 -196t93.5 -521q-53 -332 -265 -527l156 -162l-123 -84l-152 158q-168 -98 -373 -98q-196 0 -328.5 89t-185.5 250t-19 374zM351 680q-43 -269 62 -428t322 -159q144 0 260 70l-242 252l120 86l236 -246
q150 158 192 425q44 279 -58.5 436.5t-320.5 157.5t-373 -160t-198 -434z" />
    <glyph glyph-name="R" unicode="R" horiz-adv-x="1307" 
d="M131 -4l218 1373h597q222 0 334 -108.5t85 -278.5q-18 -112 -83.5 -194.5t-157.5 -130.5q69 -49 90.5 -128t11.5 -185l-1 -28q-1 -2 -1 -5.5v-5.5v-9q0 -5 -2 -17q0 -1 0.5 -4t0.5 -5q-5 -57 -6.5 -80t1 -58t11.5 -57l63 -79h-212q-24 57 -27 128t8 211q6 63 -2.5 106.5
t-36 78t-82.5 51t-139 16.5h-413l-94 -591h-163zM411 731h432q158 0 247.5 64t108.5 185q19 116 -53.5 181t-244.5 65h-412z" />
    <glyph glyph-name="S" unicode="S" horiz-adv-x="1256" 
d="M269 305q107 -212 399 -212q163 0 275.5 70t131.5 188q18 122 -91 189q-55 33 -103 52t-147 50q-78 23 -99 31q-40 12 -100.5 35t-87.5 40q-105 63 -131 115q-44 82 -29 177q26 163 182 260t393 97q175 0 299 -70.5t167 -183.5l-148 -45q-96 176 -342 176
q-160 0 -262 -63t-119 -171q-7 -43 9.5 -85t45.5 -68q25 -24 90 -53q77 -35 194 -70q16 -4 25 -7q23 -7 29 -10q101 -30 164.5 -57.5t127.5 -71.5q129 -92 103 -261q-29 -182 -190.5 -286t-409.5 -104q-209 0 -345.5 76.5t-190.5 213.5z" />
    <glyph glyph-name="T" unicode="T" horiz-adv-x="1211" 
d="M719 1241h-472l19 124h1111l-19 -124h-471l-197 -1241h-168z" />
    <glyph glyph-name="U" unicode="U" horiz-adv-x="1364" 
d="M210 494l138 871h166l-137 -868q-31 -198 56 -301t261 -103q177 0 298 105t152 299l137 868h167l-138 -871q-39 -248 -205.5 -387.5t-430.5 -139.5q-260 0 -382 137.5t-82 389.5z" />
    <glyph glyph-name="V" unicode="V" horiz-adv-x="1257" 
d="M526 0l-306 1365h182l243 -1221h9l634 1221h181l-739 -1365h-204z" />
    <glyph glyph-name="W" unicode="W" horiz-adv-x="1761" 
d="M368 0l-149 1365h183l83 -1201h13l507 1201h178l131 -1201h9l469 1201h182l-582 -1365h-194l-126 1180h-9l-500 -1180h-195z" />
    <glyph glyph-name="X" unicode="X" horiz-adv-x="1246" 
d="M212 0h-204l621 702l-381 663h209l289 -552h9l469 552h207l-595 -663l404 -702h-203l-318 585h-9z" />
    <glyph glyph-name="Y" unicode="Y" horiz-adv-x="1273" 
d="M645 562l-425 803h201l325 -673h4l537 673h198l-673 -803l-89 -562h-167z" />
    <glyph glyph-name="Z" unicode="Z" horiz-adv-x="1246" 
d="M74 0l17 107l1055 1134h-809l19 124h1013l-17 -109l-1061 -1133h900l-19 -123h-1098z" />
    <glyph glyph-name="bracketleft" unicode="[" horiz-adv-x="761" 
d="M131 -294l288 1818h509l-24 -152h-318l-239 -1514h318l-25 -152h-509z" />
    <glyph glyph-name="backslash" unicode="\" horiz-adv-x="888" 
d="M664 -172l-437 1620h201l435 -1620h-199z" />
    <glyph glyph-name="bracketright" unicode="]" horiz-adv-x="764" 
d="M27 -294l25 152h319l239 1514h-319l24 152h512l-288 -1818h-512z" />
    <glyph glyph-name="asciicircum" unicode="^" horiz-adv-x="1263" 
d="M166 833l633 659h135l427 -659h-231l-294 463l-38 -37l-401 -426h-231z" />
    <glyph glyph-name="underscore" unicode="_" horiz-adv-x="947" 
d="M-81 -193l25 154h1047l-25 -154h-1047z" />
    <glyph glyph-name="a" unicode="a" 
d="M258 252q-12 -71 49 -118.5t173 -47.5q151 0 267.5 84.5t137.5 212.5l21 136q-107 -22 -297 -46q-167 -26 -252 -79t-99 -142zM94 241q44 273 536 338q212 30 294 52l9 57q15 93 -52.5 152t-200.5 59q-99 0 -198 -41t-174 -111l-92 77q100 87 225 138t253 51
q223 0 319.5 -96t66.5 -288l-100 -629h-153l25 161q-47 -81 -161.5 -137.5t-248.5 -56.5q-182 0 -274.5 76t-73.5 198z" />
    <glyph glyph-name="b" unicode="b" horiz-adv-x="1133" 
d="M268 0h-158l224 1416h158l-97 -611q45 83 150 145.5t224 62.5q210 0 317 -141t69 -380q-21 -132 -79.5 -237.5t-139.5 -166.5q-158 -121 -332 -121q-115 0 -197.5 59.5t-110.5 148.5zM342 492q-29 -182 46.5 -294t213.5 -112q146 0 253.5 109.5t137.5 296.5
q29 182 -44.5 292.5t-218.5 110.5q-138 0 -248.5 -111.5t-139.5 -291.5z" />
    <glyph glyph-name="c" unicode="c" horiz-adv-x="1033" 
d="M134 490q37 236 195 379.5t385 143.5q144 0 241 -73t117 -182l-141 -34q-19 75 -82.5 123t-152.5 48q-151 0 -261 -114t-138 -291q-30 -183 47 -293.5t224 -110.5q93 0 183 53.5t138 129.5l129 -37q-62 -114 -191 -189.5t-278 -75.5q-223 0 -338 143.5t-77 379.5z" />
    <glyph glyph-name="d" unicode="d" horiz-adv-x="1133" 
d="M134 492q38 239 191 380t360 141q117 0 199.5 -59t108.5 -145l96 607h158l-224 -1416h-153l28 177q-61 -94 -161.5 -152t-216.5 -58q-172 0 -294 120q-63 61 -88 166t-4 239zM297 492q-29 -183 44 -294.5t219 -111.5q138 0 248.5 112t139.5 294q29 180 -46.5 291.5
t-213.5 111.5q-147 0 -254.5 -110t-136.5 -293z" />
    <glyph glyph-name="e" unicode="e" horiz-adv-x="1104" 
d="M135 497q36 230 199.5 373t388.5 143q224 0 335 -138t76 -357q-6 -35 -16 -73h-829q-24 -153 55.5 -256t239.5 -103q107 0 198 44t148 121l133 -38q-75 -112 -203.5 -179t-294.5 -67q-231 0 -349.5 146t-80.5 384zM310 553h668q23 146 -52 244t-221 98q-148 0 -257.5 -99
t-137.5 -243z" />
    <glyph glyph-name="f" unicode="f" horiz-adv-x="633" 
d="M333 862h-192l18 119h192l24 151q23 142 115.5 213t240.5 71h146l-18 -116h-124q-171 0 -200 -183l-22 -136h265l-18 -119h-265l-137 -862h-162z" />
    <glyph glyph-name="g" unicode="g" horiz-adv-x="1114" 
d="M300 509q-28 -174 42 -280.5t211 -106.5q143 0 244 103t130 286q27 175 -42.5 279.5t-203.5 104.5q-145 0 -249.5 -108t-131.5 -278zM73 -257l123 64q108 -128 287 -128q146 0 245 101t126 271l22 140q-61 -85 -152 -136t-202 -51q-209 0 -315 140t-71 363
q36 226 186 366t355 140q120 0 196.5 -54.5t102.5 -137.5l25 160h158l-137 -866q-45 -281 -180.5 -415.5t-380.5 -134.5q-270 0 -388 178z" />
    <glyph glyph-name="h" unicode="h" horiz-adv-x="1087" 
d="M268 0h-158l224 1416h158l-94 -595h5q56 84 157.5 138t216.5 54q360 0 300 -379l-100 -634h-158l97 611q45 284 -186 284q-129 0 -239.5 -93.5t-130.5 -220.5z" />
    <glyph glyph-name="i" unicode="i" horiz-adv-x="350" 
d="M468 1201h-204l29 184h204zM99 0l155 981h158l-155 -981h-158z" />
    <glyph glyph-name="j" unicode="j" horiz-adv-x="418" 
d="M534 1201h-206l29 184h206zM-140 -415l19 118h49q187 0 223 226l166 1052h158l-167 -1059q-26 -165 -123 -251t-252 -86h-73z" />
    <glyph glyph-name="k" unicode="k" horiz-adv-x="995" 
d="M273 0h-163l224 1416h163l-147 -928l562 493h212l-460 -392l351 -589h-195l-274 490l-226 -191z" />
    <glyph glyph-name="l" unicode="l" horiz-adv-x="376" 
d="M266 0h-156l224 1416h156z" />
    <glyph glyph-name="m" unicode="m" horiz-adv-x="1663" 
d="M270 0h-160l155 981h157l-23 -148q44 75 135 127.5t207 52.5t173.5 -56.5t79.5 -162.5q32 57 118 127q50 41 123 66.5t154 25.5q324 0 264 -379l-100 -634h-162l99 624q22 141 -11 206t-144 65q-122 0 -216 -88.5t-116 -223.5l-92 -583h-159l99 626q42 269 -161 269
q-126 0 -215.5 -83.5t-110.5 -218.5z" />
    <glyph glyph-name="n" unicode="n" horiz-adv-x="1092" 
d="M270 0h-160l155 981h157l-26 -168h2q39 78 148 139t237 61q167 0 248.5 -90.5t50.5 -288.5l-100 -634h-163l97 611q45 284 -188 284q-85 0 -164.5 -42t-133.5 -113.5t-67 -154.5z" />
    <glyph glyph-name="o" unicode="o" horiz-adv-x="1113" 
d="M297 490q-29 -182 49.5 -293t225.5 -111t261.5 111t143.5 293q29 185 -51 295t-226 110q-147 0 -260.5 -110t-142.5 -295zM134 490q36 230 194 376.5t390 146.5q231 0 344 -147t77 -376q-31 -195 -170 -350q-71 -80 -179 -126.5t-237 -46.5q-126 0 -220.5 46t-139.5 125
q-91 156 -59 352z" />
    <glyph glyph-name="p" unicode="p" horiz-adv-x="1133" 
d="M346 492q-30 -184 38.5 -295t217.5 -111q143 0 252 111t139 295q28 179 -43 291t-220 112q-141 0 -248.5 -113.5t-135.5 -289.5zM42 -428l223 1409h154l-28 -177q64 97 163.5 153t214.5 56q206 0 314.5 -143t71.5 -378q-19 -123 -72.5 -223.5t-128 -166t-164.5 -100.5
t-186 -35q-120 0 -199.5 55.5t-109.5 147.5l-95 -598h-158z" />
    <glyph glyph-name="q" unicode="q" horiz-adv-x="1133" 
d="M297 492q-29 -184 44.5 -295t218.5 -111t249.5 111.5t133.5 294.5q28 179 -43 291t-212 112q-153 0 -258 -111.5t-133 -291.5zM134 492q37 236 190.5 378.5t360.5 142.5q114 0 195.5 -55.5t116.5 -153.5l28 177h153l-223 -1409h-158l95 598q-58 -90 -157 -146.5
t-215 -56.5q-200 0 -312 140.5t-74 384.5z" />
    <glyph glyph-name="r" unicode="r" horiz-adv-x="726" 
d="M270 0h-160l155 981h153l-22 -143q49 74 135.5 124.5t198.5 50.5q91 0 154 -25l-20 -128q-72 26 -154 26q-140 0 -234.5 -92t-118.5 -247z" />
    <glyph glyph-name="s" unicode="s" horiz-adv-x="1006" 
d="M220 255q94 -169 305 -169q128 0 208.5 41t92.5 115q9 56 -41 104q-19 17 -71 38q-50 20 -203 64q-134 41 -216 95q-105 67 -85 196q20 123 144.5 198.5t316.5 75.5q133 0 238.5 -61.5t144.5 -151.5l-119 -61q-35 67 -111 111.5t-171 44.5q-124 0 -198 -42.5t-85 -115.5
q-14 -85 80 -135q15 -8 30.5 -15t26.5 -11.5t31 -11.5t29 -10t37 -11.5t40 -12.5q123 -33 200 -70q51 -26 84 -54q34 -30 52 -73t10 -91q-18 -120 -150 -197.5t-334 -77.5q-148 0 -255.5 59t-159.5 167z" />
    <glyph glyph-name="t" unicode="t" horiz-adv-x="699" 
d="M347 862h-194l18 119h194l50 313h162l-50 -313h295l-18 -119h-295l-92 -575q-14 -89 19.5 -127.5t121.5 -38.5h128l-19 -121h-150q-307 0 -263 275z" />
    <glyph glyph-name="u" unicode="u" horiz-adv-x="1083" 
d="M164 344l101 637h164l-96 -607q-45 -288 194 -288q142 0 237 96.5t118 239.5l88 559h158l-155 -981h-153l25 158q-29 -70 -130.5 -130.5t-244.5 -60.5q-164 0 -249 98t-57 279z" />
    <glyph glyph-name="v" unicode="v" horiz-adv-x="1063" 
d="M435 0l-258 981h181l192 -859h3l464 859h179l-566 -981h-195z" />
    <glyph glyph-name="w" unicode="w" horiz-adv-x="1528" 
d="M331 0l-154 981h181l88 -852h9l369 852h190l100 -852h9l358 852h180l-464 -981h-201l-96 831h-8l-359 -831h-202z" />
    <glyph glyph-name="x" unicode="x" horiz-adv-x="1076" 
d="M231 0h-191l482 509l-307 472h192l224 -370h9l335 370h190l-451 -472l322 -509h-191l-238 403h-9z" />
    <glyph glyph-name="y" unicode="y" horiz-adv-x="1059" 
d="M457 -13l-280 994h187l195 -823h9l441 823h183l-663 -1145q-85 -144 -175.5 -204t-212.5 -60h-62l19 116h38q82 0 143 41.5t118 143.5z" />
    <glyph glyph-name="z" unicode="z" horiz-adv-x="1014" 
d="M954 0h-876l15 95l773 767h-593l18 119h800l-14 -90l-778 -772h674z" />
    <glyph glyph-name="braceleft" unicode="{" horiz-adv-x="947" 
d="M606 -292q-115 0 -188.5 67t-54.5 187l53 335q20 125 -9.5 178t-111.5 53h-115l24 151h115q86 0 130 52t65 183l56 357q18 115 111 184t209 69h224l-24 -152h-207q-53 0 -82 -26.5t-39 -89.5l-56 -355q-32 -198 -168 -296q105 -93 76 -286l-52 -328q-12 -75 8 -103.5
t80 -28.5h201l-24 -151h-221z" />
    <glyph glyph-name="braceright" unicode="}" horiz-adv-x="945" 
d="M28 -292l24 151h203q59 0 88.5 28.5t41.5 103.5l53 338q14 88 57 160t107 116q-105 96 -75 288l58 363q10 63 -11.5 89.5t-75.5 26.5h-207l24 152h223q119 0 189.5 -68t51.5 -185l-56 -357q-20 -127 8.5 -181t110.5 -54h115l-24 -151h-115q-80 0 -126.5 -53.5
t-64.5 -166.5l-55 -346q-19 -119 -113 -186.5t-212 -67.5h-219z" />
    <glyph glyph-name="asciitilde" unicode="~" horiz-adv-x="1738" 
d="M1222 420q-89 0 -162 27.5t-119 70.5l-76 70q-77 69 -180 69q-87 0 -165 -45.5t-164 -147.5l-152 69q207 277 507 277q172 0 284 -96q24 -22 27 -25q20 -18 24 -22q0 -1 2 -2.5t2 -2.5l2 -2q2 -1 3 -1l11 -9q2 -5 5 -7q84 -70 175 -70q93 0 171 54q52 38 74.5 60t85.5 91
l153 -71q-56 -65 -105 -110.5t-112.5 -89t-136.5 -65.5t-154 -22z" />
    <glyph glyph-name="exclamdown" unicode="&#xa1;" horiz-adv-x="569" 
d="M110 -438l178 1028h185l-148 -1028h-215zM239 717l40 255h319l-40 -255h-319z" />
    <glyph glyph-name="cent" unicode="&#xa2;" horiz-adv-x="1192" 
d="M532 -82q-218 21 -328.5 167t-75.5 371q35 216 189.5 365t384.5 171l23 144h194l-24 -149q135 -25 220 -100t98 -180l-184 -45q-14 83 -86 133t-185 50q-177 0 -293.5 -104.5t-145.5 -284.5q-28 -182 57 -286.5t258 -104.5q117 0 218.5 56t151.5 138l168 -54
q-65 -103 -183 -180t-262 -102l-24 -152h-194z" />
    <glyph glyph-name="sterling" unicode="&#xa3;" horiz-adv-x="1494" 
d="M970 -87q-80 0 -196 32q-114 25 -172 25q-72 0 -171.5 -11.5t-167.5 -25.5l-116 -22l-58 146q143 15 228 96t104 198l33 211h-269l25 155h269l44 283q29 180 172.5 278t361.5 98q164 0 277.5 -70t139.5 -173l-164 -68q-36 84 -99.5 121t-171.5 37q-148 0 -226 -54
t-97 -174l-44 -278h560l-25 -155h-560l-33 -211q-22 -133 -104 -233q84 7 127 7q98 0 204 -31q101 -26 158 -26q202 0 343 75l52 -145q-175 -85 -424 -85z" />
    <glyph glyph-name="currency" unicode="&#xa4;" horiz-adv-x="1588" 
d="M1175 310q-147 -75 -340 -75q-188 0 -317 76l-280 -177l-129 97l292 190q-70 93 -50 222t119 223l-228 182l156 107l228 -177q154 74 339 74q182 0 315 -78l278 182l126 -110l-286 -180q72 -101 52 -223q-19 -119 -123 -221l228 -188l-156 -102zM544 643
q-17 -112 69 -183t247 -71q159 0 270 71.5t128 182.5q17 112 -70.5 184.5t-246.5 72.5q-158 0 -269 -72.5t-128 -184.5z" />
    <glyph glyph-name="yen" unicode="&#xa5;" horiz-adv-x="1494" 
d="M645 -54l55 344h-474l24 152h474l13 80h-474l24 152h365l-457 669h238l348 -513l18 -27q2 -2 3.5 -4.5t1.5 -3.5l10 -15l5 -5q3 -8 10 -16l9 -13q5 -9 15 -23l9 -13l2 2q1 1 3.5 4t3.5 5q7 5 10 10l4.5 4.5t4 4.5t3.5 3q15 16 31.5 32.5t32.5 32t20 19.5l508 516h242
l-666 -669h357l-24 -152h-465l-13 -80h465l-24 -152h-465l-55 -344h-192z" />
    <glyph glyph-name="copyright" unicode="&#xa9;" horiz-adv-x="1751" 
d="M870 -27q-158 0 -289 57t-215.5 155t-121 234.5t-12.5 290.5q33 204 158.5 372.5t314 265.5t398.5 97q158 0 289 -56.5t215.5 -154t121 -234t12.5 -290.5q-33 -206 -157.5 -375t-313 -265.5t-400.5 -96.5zM366 710q-27 -173 31.5 -313.5t188 -220t303.5 -79.5
q175 0 330 79t258 219.5t130 314.5q28 172 -30.5 312t-188.5 219t-305 79q-173 0 -327.5 -79.5t-258 -219.5t-131.5 -311zM601 705q29 186 160.5 303.5t310.5 117.5q137 0 224 -79.5t88 -208.5h-145q-6 77 -53 118t-134 41q-118 0 -204.5 -80t-107.5 -210
q-20 -127 38.5 -206.5t173.5 -79.5q87 0 152 40.5t97 115.5h143q-45 -126 -160.5 -205.5t-252.5 -79.5q-174 0 -266.5 116t-63.5 297z" />
    <glyph glyph-name="ordfeminine" unicode="&#xaa;" horiz-adv-x="867" 
d="M119 546l21 129h802l-21 -129h-802zM219 929q31 197 389 244q151 19 204 34l6 39q10 63 -35.5 101t-133.5 38q-71 0 -141.5 -28.5t-122.5 -76.5l-79 64q73 64 167 101t188 37q166 0 237.5 -70.5t49.5 -212.5l-71 -448h-134l17 107q-33 -55 -112.5 -92.5t-172.5 -37.5
q-133 0 -201.5 56t-54.5 145zM361 939q-8 -47 33 -79t115 -32q102 0 181.5 57t93.5 144l14 88q-64 -14 -200 -30q-219 -31 -237 -148z" />
    <glyph glyph-name="guillemotleft" unicode="&#xab;" horiz-adv-x="1137" 
d="M508 -16l-350 457l500 453l147 -79l-414 -374l291 -376zM520 441l497 451l144 -81l-408 -370l289 -373l-170 -81z" />
    <glyph glyph-name="logicalnot" unicode="&#xac;" horiz-adv-x="1301" 
d="M1048 172l59 369h-933l24 152h1127l-83 -521h-194z" />
    <glyph glyph-name="uni00AD" unicode="&#xad;" horiz-adv-x="1297" 
d="M184 557l25 154h1105l-25 -154h-1105z" />
    <glyph glyph-name="registered" unicode="&#xae;" horiz-adv-x="907" 
d="M558 649q-170 0 -267 110.5t-71 275.5q17 106 83 194t165.5 138t210.5 50q168 0 263.5 -109.5t70.5 -272.5q-26 -166 -155.5 -276t-299.5 -110zM286 1035q-23 -141 57 -234t224 -93q141 0 251.5 93.5t132.5 233.5q22 138 -59 230.5t-222 92.5q-143 0 -252.5 -92.5
t-131.5 -230.5zM432 823l68 430h166q74 0 111 -34t27 -95q-7 -44 -35.5 -77t-73.5 -46l70 -178h-76l-61 162h-104l-26 -162h-66zM534 1045h99q42 0 68.5 19.5t31.5 55.5q6 35 -14 53t-63 18h-99z" />
    <glyph glyph-name="plusminus" unicode="&#xb1;" horiz-adv-x="1519" 
d="M713 305l58 363h-507l24 155h507l58 362h190l-58 -362h506l-24 -155h-506l-58 -363h-190zM180 98l24 153h1190l-24 -153h-1190z" />
    <glyph glyph-name="uni00B2" unicode="&#xb2;" horiz-adv-x="671" 
d="M256 1338q96 222 325 222q124 0 191.5 -63t50.5 -169q-18 -117 -188 -249q-64 -45 -151 -113q-87 -66 -123 -120h386l-17 -107h-560q17 103 92 181q75 81 283 234q118 85 133 176q9 59 -22 91t-94 32q-52 0 -98 -30t-60 -58q-2 -4 -29 -56z" />
    <glyph glyph-name="uni00B3" unicode="&#xb3;" horiz-adv-x="671" 
d="M293 942q45 -115 163 -115q71 0 124 39t64 105q10 63 -35.5 99t-125.5 36q-34 0 -88 -3l17 110q60 -4 82 -4q68 0 115.5 34.5t57.5 92.5q8 53 -24.5 85.5t-92.5 32.5q-58 0 -96 -29t-74 -89l-113 33q98 191 305 191q124 0 190 -60t51 -155q-18 -119 -139 -179
q136 -59 115 -195q-19 -116 -114.5 -183.5t-235.5 -67.5q-108 0 -177 49.5t-91 133.5z" />
    <glyph glyph-name="uni00B5" unicode="&#xb5;" horiz-adv-x="1243" 
d="M34 -482l229 1447h197l-102 -640q-20 -127 34 -193.5t195 -66.5q175 0 284.5 88.5t132.5 230.5l92 581h192l-162 -1019h-191l13 81q-165 -114 -393 -114q-155 0 -252 63l-72 -458h-197z" />
    <glyph glyph-name="periodcentered" unicode="&#xb7;" horiz-adv-x="543" 
d="M189 488l41 256h319l-41 -256h-319z" />
    <glyph glyph-name="uni00B9" unicode="&#xb9;" horiz-adv-x="596" 
d="M361 739l101 633l-187 -104l26 163l228 129h102l-130 -821h-140z" />
    <glyph glyph-name="ordmasculine" unicode="&#xba;" horiz-adv-x="867" 
d="M393 1111q-20 -128 33.5 -201.5t155.5 -73.5q97 0 174.5 74t97.5 201q20 128 -33.5 202.5t-150.5 74.5q-102 0 -179.5 -73.5t-97.5 -203.5zM119 546l21 129h802l-21 -129h-802zM248 1111q26 167 143.5 273t294.5 106q171 0 254.5 -107t57.5 -272q-21 -137 -121 -250
q-52 -59 -134 -93t-177 -34q-98 0 -169 33t-105 91q-66 113 -44 253z" />
    <glyph glyph-name="guillemotright" unicode="&#xbb;" horiz-adv-x="1139" 
d="M608 -16l-147 81l407 376l-294 374l174 79l357 -453zM105 71l403 370l-292 370l172 81l355 -451l-496 -458z" />
    <glyph glyph-name="questiondown" unicode="&#xbf;" horiz-adv-x="1114" 
d="M475 -469q-224 0 -343 106.5t-91 280.5q14 90 75 166t148 131q0 2 7 4l4 4q13 10 27 16q3 4 8 6q4 4 9 6l14 9q18 13 58 39l12 6l1 1q145 96 164 221l13 81h190l-13 -83q-15 -96 -76 -179t-146 -140q-7 -5 -14 -8q-2 -1 -12.5 -8t-16.5 -12q-2 -1 -21.5 -12.5
t-28.5 -18.5q-4 -3 -21.5 -14t-27.5 -17q-141 -90 -158 -196q-18 -115 47.5 -175t214.5 -60q125 0 219 55t178 177l163 -56q-91 -157 -247.5 -243.5t-335.5 -86.5zM402 305h1h-1zM533 719l40 253h317l-40 -253h-317z" />
    <glyph glyph-name="Agrave" unicode="&#xc0;" horiz-adv-x="1373" 
d="M893 1507l-250 319h210l184 -319h-144zM4 0l799 1365h202l364 -1365h-181l-97 394h-684l-221 -394h-182zM476 511h586l-174 721h-12z" />
    <glyph glyph-name="Aacute" unicode="&#xc1;" horiz-adv-x="1373" 
d="M918 1507h-140l283 319h210zM4 0l799 1365h202l364 -1365h-181l-97 394h-684l-221 -394h-182zM476 511h586l-174 721h-12z" />
    <glyph glyph-name="Acircumflex" unicode="&#xc2;" horiz-adv-x="1373" 
d="M686 1507h-172l388 304h143l297 -304h-173l-207 223zM4 0l799 1365h202l364 -1365h-181l-97 394h-684l-221 -394h-182zM476 511h586l-174 721h-12z" />
    <glyph glyph-name="Atilde" unicode="&#xc3;" horiz-adv-x="1373" 
d="M482 1613q123 164 297 164q77 0 168 -60q90 -60 132 -60q105 0 194 116l89 -58q-130 -165 -295 -165q-79 0 -165 61q-87 60 -136 60q-111 0 -196 -118zM4 0l799 1365h202l364 -1365h-181l-97 394h-684l-221 -394h-182zM476 511h586l-174 721h-12z" />
    <glyph glyph-name="Adieresis" unicode="&#xc4;" horiz-adv-x="1373" 
d="M820 1577h-211l28 176h211zM4 0l799 1365h202l364 -1365h-181l-97 394h-684l-221 -394h-182zM476 511h586l-174 721h-12zM1048 1577l28 176h209l-28 -176h-209z" />
    <glyph glyph-name="Aring" unicode="&#xc5;" horiz-adv-x="1373" 
d="M670 1671q15 100 106.5 168.5t215.5 68.5q122 0 191.5 -69t54.5 -168q-16 -101 -108 -170.5t-213 -69.5q-120 0 -191.5 70t-55.5 170zM4 0l799 1365h202l364 -1365h-181l-97 394h-684l-221 -394h-182zM476 511h586l-174 721h-12zM787 1671q-10 -62 31.5 -104t113.5 -42
t125.5 41t63.5 105q9 62 -30.5 103t-113.5 41t-127.5 -42t-62.5 -102z" />
    <glyph glyph-name="AE" unicode="&#xc6;" horiz-adv-x="1998" 
d="M1191 1229l-588 -718h494l114 718h-20zM4 0l1123 1365h981l-19 -124h-713l-75 -473h637l-20 -124h-645l-83 -521h741l-19 -123h-896l62 394h-573l-316 -394h-185z" />
    <glyph glyph-name="Ccedilla" unicode="&#xc7;" horiz-adv-x="1344" 
d="M182 682q34 219 144 382t273 248t359 85q173 0 289.5 -83t165.5 -216l-149 -43q-104 219 -330 219q-224 0 -382 -161t-201 -431q-43 -271 66 -430t330 -159q135 0 250 66t186 172l142 -44q-89 -131 -223.5 -216.5t-305.5 -100.5l-27 -60q100 -7 149 -46t39 -105
q-12 -75 -98.5 -124.5t-225.5 -49.5q-97 0 -193 27l14 93q111 -27 190 -27q64 0 120 25t62 63q7 46 -56 69q-66 21 -171 17l53 119q-261 27 -390 216t-80 495z" />
    <glyph glyph-name="Egrave" unicode="&#xc8;" horiz-adv-x="1205" 
d="M1119 0h-987l216 1365h972l-19 -124h-806l-75 -473h725l-20 -124h-725l-83 -521h821zM599 1826h210l184 -319h-142z" />
    <glyph glyph-name="Eacute" unicode="&#xc9;" horiz-adv-x="1205" 
d="M1119 0h-987l216 1365h972l-19 -124h-806l-75 -473h725l-20 -124h-725l-83 -521h821zM695 1507l283 319h210l-353 -319h-140z" />
    <glyph glyph-name="Ecircumflex" unicode="&#xca;" horiz-adv-x="1205" 
d="M607 1507h-171l387 304h143l296 -304h-172l-207 223zM132 0l216 1365h972l-19 -124h-806l-75 -473h725l-20 -124h-725l-83 -521h821l-19 -123h-987z" />
    <glyph glyph-name="Edieresis" unicode="&#xcb;" horiz-adv-x="1205" 
d="M1119 0h-987l216 1365h972l-19 -124h-806l-75 -473h725l-20 -124h-725l-83 -521h821zM535 1577l28 176h212l-28 -176h-212zM973 1577l28 176h209l-28 -176h-209z" />
    <glyph glyph-name="Igrave" unicode="&#xcc;" horiz-adv-x="547" 
d="M389 0h-166l216 1365h166zM261 1826h208l185 -319h-143z" />
    <glyph glyph-name="Iacute" unicode="&#xcd;" horiz-adv-x="549" 
d="M361 0h-166l216 1365h166zM371 1507l285 319h210l-354 -319h-141z" />
    <glyph glyph-name="Icircumflex" unicode="&#xce;" horiz-adv-x="642" 
d="M403 0h-166l216 1365h166zM145 1507l387 304h144l295 -304h-171l-209 223l-275 -223h-171z" />
    <glyph glyph-name="Idieresis" unicode="&#xcf;" horiz-adv-x="442" 
d="M303 0h-166l216 1365h166zM146 1577l28 176h212l-28 -176h-212zM584 1577l28 176h210l-28 -176h-210z" />
    <glyph glyph-name="Eth" unicode="&#xd0;" horiz-adv-x="1405" 
d="M606 0h-415l102 642h-189l18 116h189l96 607h420q340 0 502.5 -176t109.5 -507q-51 -322 -267.5 -502t-565.5 -180zM376 123h223q279 0 453 138t219 421q45 285 -84 422t-405 137h-228l-77 -483h407l-18 -116h-407z" />
    <glyph glyph-name="Ntilde" unicode="&#xd1;" horiz-adv-x="1367" 
d="M501 1613q123 164 298 164q76 0 167 -60q92 -60 132 -60q106 0 195 116l88 -58q-131 -165 -295 -165q-77 0 -165 61q-88 60 -136 60q-111 0 -195 -118zM132 0l216 1365h191l567 -1140l180 1140h165l-216 -1365h-191l-566 1138l-180 -1138h-166z" />
    <glyph glyph-name="Ograve" unicode="&#xd2;" horiz-adv-x="1438" 
d="M182 682q51 322 258.5 518.5t500.5 196.5q196 0 328 -89t184.5 -251t18.5 -377q-52 -328 -257.5 -520.5t-499.5 -192.5t-439.5 194t-93.5 521zM351 682q-43 -270 61 -429.5t323 -159.5q217 0 370 157.5t196 429.5q43 273 -57 433.5t-322 160.5q-219 0 -373.5 -160.5
t-197.5 -431.5zM678 1835h212l182 -318h-142z" />
    <glyph glyph-name="Oacute" unicode="&#xd3;" horiz-adv-x="1438" 
d="M182 682q51 322 258.5 518.5t500.5 196.5q196 0 328 -89t184.5 -251t18.5 -377q-52 -328 -257.5 -520.5t-499.5 -192.5t-439.5 194t-93.5 521zM351 682q-43 -270 61 -429.5t323 -159.5q217 0 370 157.5t196 429.5q43 273 -57 433.5t-322 160.5q-219 0 -373.5 -160.5
t-197.5 -431.5zM819 1517l286 318h209l-354 -318h-141z" />
    <glyph glyph-name="Ocircumflex" unicode="&#xd4;" horiz-adv-x="1438" 
d="M182 682q51 322 258.5 518.5t500.5 196.5q196 0 328 -89t184.5 -251t18.5 -377q-52 -328 -257.5 -520.5t-499.5 -192.5t-439.5 194t-93.5 521zM351 682q-43 -270 61 -429.5t323 -159.5q217 0 370 157.5t196 429.5q43 273 -57 433.5t-322 160.5q-219 0 -373.5 -160.5
t-197.5 -431.5zM546 1517l387 302h144l296 -302h-172l-208 222l-276 -222h-171z" />
    <glyph glyph-name="Otilde" unicode="&#xd5;" horiz-adv-x="1438" 
d="M537 1613q120 164 296 164q78 0 168 -60t133 -60q103 0 192 116l89 -58q-132 -165 -294 -165q-80 0 -166 61q-88 60 -136 60q-111 0 -195 -118zM182 682q51 322 258.5 518.5t500.5 196.5q196 0 328 -89t184.5 -251t18.5 -377q-52 -328 -257.5 -520.5t-499.5 -192.5
t-439.5 194t-93.5 521zM351 682q-43 -270 61 -429.5t323 -159.5q217 0 370 157.5t196 429.5q43 273 -57 433.5t-322 160.5q-219 0 -373.5 -160.5t-197.5 -431.5z" />
    <glyph glyph-name="Odieresis" unicode="&#xd6;" horiz-adv-x="1438" 
d="M182 682q51 322 258.5 518.5t500.5 196.5q196 0 328 -89t184.5 -251t18.5 -377q-52 -328 -257.5 -520.5t-499.5 -192.5t-439.5 194t-93.5 521zM351 682q-43 -270 61 -429.5t323 -159.5q217 0 370 157.5t196 429.5q43 273 -57 433.5t-322 160.5q-219 0 -373.5 -160.5
t-197.5 -431.5zM643 1577l28 176h210l-28 -176h-210zM1079 1577l28 176h209l-28 -176h-209z" />
    <glyph glyph-name="multiply" unicode="&#xd7;" horiz-adv-x="1583" 
d="M338 187l-129 109l537 333l-418 334l154 112l422 -345l528 345l127 -112l-526 -334l434 -337l-163 -104l-432 340z" />
    <glyph glyph-name="Oslash" unicode="&#xd8;" horiz-adv-x="1439" 
d="M182 682q51 322 258.5 518.5t500.5 196.5q179 0 310 -75l113 152h156l-174 -231q184 -198 127 -563q-52 -328 -258 -520.5t-500 -192.5q-155 0 -279 60l-115 -156h-155l167 226q-214 190 -151 585zM351 682q-48 -298 80 -456l732 977q-97 71 -241 71
q-219 0 -373.5 -160.5t-197.5 -431.5zM526 144q88 -51 209 -51q219 0 372 157t196 430q42 271 -56 430z" />
    <glyph glyph-name="Ugrave" unicode="&#xd9;" horiz-adv-x="1364" 
d="M210 494l138 871h166l-137 -868q-31 -198 56 -301t261 -103q177 0 298 105t152 299l137 868h167l-138 -871q-39 -248 -205.5 -387.5t-430.5 -139.5q-260 0 -382 137.5t-82 389.5zM660 1835h208l184 -318h-143z" />
    <glyph glyph-name="Uacute" unicode="&#xda;" horiz-adv-x="1364" 
d="M210 494l138 871h166l-137 -868q-31 -198 56 -301t261 -103q177 0 298 105t152 299l137 868h167l-138 -871q-39 -248 -205.5 -387.5t-430.5 -139.5q-260 0 -382 137.5t-82 389.5zM773 1517l285 318h209l-354 -318h-140z" />
    <glyph glyph-name="Ucircumflex" unicode="&#xdb;" horiz-adv-x="1364" 
d="M210 494l138 871h166l-137 -868q-31 -198 56 -301t261 -103q177 0 298 105t152 299l137 868h167l-138 -871q-39 -248 -205.5 -387.5t-430.5 -139.5q-260 0 -382 137.5t-82 389.5zM513 1517l388 302h143l297 -302h-174l-206 222l-275 -222h-173z" />
    <glyph glyph-name="Udieresis" unicode="&#xdc;" horiz-adv-x="1364" 
d="M210 494l138 871h166l-137 -868q-31 -198 56 -301t261 -103q177 0 298 105t152 299l137 868h167l-138 -871q-39 -248 -205.5 -387.5t-430.5 -139.5q-260 0 -382 137.5t-82 389.5zM612 1577l28 176h211l-28 -176h-211zM1051 1577l28 176h209l-28 -176h-209z" />
    <glyph glyph-name="Yacute" unicode="&#xdd;" horiz-adv-x="1273" 
d="M722 1517l286 318h210l-355 -318h-141zM220 1365h201l325 -673h4l537 673h198l-673 -803l-89 -562h-167l89 562z" />
    <glyph glyph-name="Thorn" unicode="&#xde;" horiz-adv-x="1203" 
d="M286 0h-166l216 1365h166l-36 -228h254q271 0 391 -114t88 -315q-34 -213 -202.5 -323t-431.5 -110h-235zM349 399h218q411 0 459 309q25 154 -60.5 231t-280.5 77h-238z" />
    <glyph glyph-name="germandbls" unicode="&#xdf;" horiz-adv-x="1262" 
d="M298 0h-166l163 1026q27 173 172.5 272t349.5 99q211 0 324.5 -100t87.5 -265q-17 -109 -81 -187t-155 -120l-1 -3q136 -35 208.5 -129t49.5 -242q-27 -172 -168.5 -278t-349.5 -106q-154 0 -291 41l29 127q118 -42 275 -42q123 0 219.5 73t114.5 185q22 141 -60.5 217
t-239.5 76h-134l20 124h118q104 0 180 71t94 185q18 110 -51 180t-205 70q-140 0 -231.5 -68.5t-110.5 -188.5z" />
    <glyph glyph-name="agrave" unicode="&#xe0;" 
d="M258 252q-12 -71 49 -118.5t173 -47.5q151 0 267.5 84.5t137.5 212.5l21 136q-107 -22 -297 -46q-167 -26 -252 -79t-99 -142zM94 241q44 273 536 338q212 30 294 52l9 57q15 93 -52.5 152t-200.5 59q-99 0 -198 -41t-174 -111l-92 77q100 87 225 138t253 51
q223 0 319.5 -96t66.5 -288l-100 -629h-153l25 161q-47 -81 -161.5 -137.5t-248.5 -56.5q-182 0 -274.5 76t-73.5 198zM483 1473h209l185 -319h-144z" />
    <glyph glyph-name="aacute" unicode="&#xe1;" 
d="M258 252q-12 -71 49 -118.5t173 -47.5q151 0 267.5 84.5t137.5 212.5l21 136q-107 -22 -297 -46q-167 -26 -252 -79t-99 -142zM94 241q44 273 536 338q212 30 294 52l9 57q15 93 -52.5 152t-200.5 59q-99 0 -198 -41t-174 -111l-92 77q100 87 225 138t253 51
q223 0 319.5 -96t66.5 -288l-100 -629h-153l25 161q-47 -81 -161.5 -137.5t-248.5 -56.5q-182 0 -274.5 76t-73.5 198zM549 1163l286 319h209l-353 -319h-142z" />
    <glyph glyph-name="acircumflex" unicode="&#xe2;" 
d="M258 252q-12 -71 49 -118.5t173 -47.5q151 0 267.5 84.5t137.5 212.5l21 136q-107 -22 -297 -46q-167 -26 -252 -79t-99 -142zM94 241q44 273 536 338q212 30 294 52l9 57q15 93 -52.5 152t-200.5 59q-99 0 -198 -41t-174 -111l-92 77q100 87 225 138t253 51
q223 0 319.5 -96t66.5 -288l-100 -629h-153l25 161q-47 -81 -161.5 -137.5t-248.5 -56.5q-182 0 -274.5 76t-73.5 198zM300 1163l389 302h143l297 -302h-174l-207 222l-275 -222h-173z" />
    <glyph glyph-name="atilde" unicode="&#xe3;" 
d="M258 252q-12 -71 49 -118.5t173 -47.5q151 0 267.5 84.5t137.5 212.5l21 136q-107 -22 -297 -46q-167 -26 -252 -79t-99 -142zM94 241q44 273 536 338q212 30 294 52l9 57q15 93 -52.5 152t-200.5 59q-99 0 -198 -41t-174 -111l-92 77q100 87 225 138t253 51
q223 0 319.5 -96t66.5 -288l-100 -629h-153l25 161q-47 -81 -161.5 -137.5t-248.5 -56.5q-182 0 -274.5 76t-73.5 198zM304 1250q122 165 297 165q77 0 168 -60q89 -61 133 -61q103 0 192 116l90 -58q-130 -165 -294 -165q-81 0 -166 61q-86 61 -138 61q-108 0 -195 -119z
" />
    <glyph glyph-name="adieresis" unicode="&#xe4;" 
d="M258 252q-12 -71 49 -118.5t173 -47.5q151 0 267.5 84.5t137.5 212.5l21 136q-107 -22 -297 -46q-167 -26 -252 -79t-99 -142zM94 241q44 273 536 338q212 30 294 52l9 57q15 93 -52.5 152t-200.5 59q-99 0 -198 -41t-174 -111l-92 77q100 87 225 138t253 51
q223 0 319.5 -96t66.5 -288l-100 -629h-153l25 161q-47 -81 -161.5 -137.5t-248.5 -56.5q-182 0 -274.5 76t-73.5 198zM399 1226l28 176h213l-28 -176h-213zM838 1226l28 176h209l-28 -176h-209z" />
    <glyph glyph-name="aring" unicode="&#xe5;" 
d="M258 252q-12 -71 49 -118.5t173 -47.5q151 0 267.5 84.5t137.5 212.5l21 136q-107 -22 -297 -46q-167 -26 -252 -79t-99 -142zM94 241q44 273 536 338q212 30 294 52l9 57q15 93 -52.5 152t-200.5 59q-99 0 -198 -41t-174 -111l-92 77q100 87 225 138t253 51
q223 0 319.5 -96t66.5 -288l-100 -629h-153l25 161q-47 -81 -161.5 -137.5t-248.5 -56.5q-182 0 -274.5 76t-73.5 198zM461 1361q15 100 106.5 168.5t214.5 68.5q124 0 193.5 -68.5t54.5 -168.5q-17 -101 -109 -170.5t-214 -69.5q-118 0 -190 70t-56 170zM577 1361
q-10 -61 31.5 -103t113.5 -42q74 0 126.5 41t63.5 104q9 62 -31 103t-114 41t-127.5 -42t-62.5 -102z" />
    <glyph glyph-name="ae" unicode="&#xe6;" horiz-adv-x="1851" 
d="M94 242q43 272 533 337q258 39 297 52q0 2 4 29l2 28q14 89 -50 150t-190 61q-214 0 -384 -152l-92 77q99 88 227 138.5t267 50.5q288 0 348 -209q73 98 183.5 153.5t239.5 55.5q216 0 326 -138.5t76 -356.5l-12 -73h-814l-6 -38q-6 -137 68.5 -229t217.5 -92
q106 0 196 45.5t146 119.5l131 -38q-78 -115 -204.5 -180.5t-289.5 -65.5q-144 0 -242.5 67t-141.5 186q-181 -253 -488 -253q-181 0 -274.5 74t-73.5 201zM258 252q-11 -73 48 -119.5t171 -46.5q151 0 267.5 84.5t137.5 213.5l21 135q-77 -17 -285 -45q-333 -46 -360 -222z
M1073 553h652q23 145 -52 243.5t-212 98.5q-132 0 -234 -88t-145 -224z" />
    <glyph glyph-name="ccedilla" unicode="&#xe7;" horiz-adv-x="1033" 
d="M134 490q37 236 195 379.5t385 143.5q144 0 241 -73t117 -182l-141 -34q-19 75 -82.5 123t-152.5 48q-151 0 -261 -114t-138 -291q-30 -183 47 -293.5t224 -110.5q93 0 183 53.5t138 129.5l129 -37q-58 -106 -175.5 -180t-256.5 -84l-27 -59q101 -8 150 -47t39 -104
q-12 -77 -98.5 -126t-224.5 -49q-99 0 -196 27l15 93q109 -28 191 -28q64 0 120 25t62 65q7 45 -56 68q-65 23 -171 18l57 125q-175 33 -260.5 170t-52.5 344z" />
    <glyph glyph-name="egrave" unicode="&#xe8;" horiz-adv-x="1104" 
d="M135 497q36 230 199.5 373t388.5 143q224 0 335 -138t76 -357q-6 -35 -16 -73h-829q-24 -153 55.5 -256t239.5 -103q107 0 198 44t148 121l133 -38q-75 -112 -203.5 -179t-294.5 -67q-231 0 -349.5 146t-80.5 384zM310 553h668q23 146 -52 244t-221 98q-148 0 -257.5 -99
t-137.5 -243zM496 1482h210l183 -319h-142z" />
    <glyph glyph-name="eacute" unicode="&#xe9;" horiz-adv-x="1104" 
d="M135 497q36 230 199.5 373t388.5 143q224 0 335 -138t76 -357q-6 -35 -16 -73h-829q-24 -153 55.5 -256t239.5 -103q107 0 198 44t148 121l133 -38q-75 -112 -203.5 -179t-294.5 -67q-231 0 -349.5 146t-80.5 384zM310 553h668q23 146 -52 244t-221 98q-148 0 -257.5 -99
t-137.5 -243zM557 1163l286 319h209l-352 -319h-143z" />
    <glyph glyph-name="ecircumflex" unicode="&#xea;" horiz-adv-x="1104" 
d="M135 497q36 230 199.5 373t388.5 143q224 0 335 -138t76 -357q-6 -35 -16 -73h-829q-24 -153 55.5 -256t239.5 -103q107 0 198 44t148 121l133 -38q-75 -112 -203.5 -179t-294.5 -67q-231 0 -349.5 146t-80.5 384zM310 553h668q23 146 -52 244t-221 98q-148 0 -257.5 -99
t-137.5 -243zM334 1163l389 302h142l295 -302h-171l-207 222l-277 -222h-171z" />
    <glyph glyph-name="edieresis" unicode="&#xeb;" horiz-adv-x="1104" 
d="M638 1226h-211l28 176h211zM135 497q36 230 199.5 373t388.5 143q224 0 335 -138t76 -357q-6 -35 -16 -73h-829q-24 -153 55.5 -256t239.5 -103q107 0 198 44t148 121l133 -38q-75 -112 -203.5 -179t-294.5 -67q-231 0 -349.5 146t-80.5 384zM310 553h668q23 146 -52 244
t-221 98q-148 0 -257.5 -99t-137.5 -243zM864 1226l28 176h209l-28 -176h-209z" />
    <glyph glyph-name="igrave" unicode="&#xec;" horiz-adv-x="500" 
d="M348 0h-162l155 981h162zM181 1482h210l183 -319h-143z" />
    <glyph glyph-name="iacute" unicode="&#xed;" horiz-adv-x="499" 
d="M334 0h-162l155 981h162zM294 1163l286 319h210l-354 -319h-142z" />
    <glyph glyph-name="icircumflex" unicode="&#xee;" horiz-adv-x="590" 
d="M235 1163h-171l387 302h144l297 -302h-173l-207 222zM213 0l155 981h162l-155 -981h-162z" />
    <glyph glyph-name="idieresis" unicode="&#xef;" horiz-adv-x="388" 
d="M275 1226h-211l28 176h211zM114 0l155 981h162l-155 -981h-162zM502 1226l28 176h210l-28 -176h-210z" />
    <glyph glyph-name="eth" unicode="&#xf0;" horiz-adv-x="1115" 
d="M543 992l-80 89l263 152q-102 55 -237 74l70 111q181 -26 308 -104l242 140l79 -90l-220 -127q26 -24 62 -65q86 -107 114 -278.5t-7 -403.5q-37 -235 -195.5 -379t-394.5 -144q-224 0 -339 134t-82 340q35 220 191.5 349.5t379.5 129.5q109 0 189 -46t110 -114
q-20 259 -167 397zM290 447q-26 -161 50 -261t230 -100q149 0 254 98.5t131 263.5q25 159 -50 254.5t-221 95.5q-150 0 -259 -94.5t-135 -256.5z" />
    <glyph glyph-name="ntilde" unicode="&#xf1;" horiz-adv-x="1102" 
d="M308 1250q120 165 297 165q75 0 167 -60q89 -61 133 -61q104 0 191 116l89 -58q-129 -165 -292 -165q-81 0 -166 61q-88 61 -137 61q-109 0 -195 -119zM120 0l155 981h157l-26 -168h2q39 78 148 139t237 61q167 0 248.5 -90.5t50.5 -288.5l-100 -634h-163l97 611
q45 284 -188 284q-85 0 -164.5 -42t-133.5 -113.5t-67 -154.5l-93 -585h-160z" />
    <glyph glyph-name="ograve" unicode="&#xf2;" horiz-adv-x="1113" 
d="M297 490q-29 -182 49.5 -293t225.5 -111t261.5 111t143.5 293q29 185 -51 295t-226 110q-147 0 -260.5 -110t-142.5 -295zM134 490q36 230 194 376.5t390 146.5q231 0 344 -147t77 -376q-31 -195 -170 -350q-71 -80 -179 -126.5t-237 -46.5q-126 0 -220.5 46t-139.5 125
q-91 156 -59 352zM496 1482h210l183 -319h-142z" />
    <glyph glyph-name="oacute" unicode="&#xf3;" horiz-adv-x="1113" 
d="M297 490q-29 -182 49.5 -293t225.5 -111t261.5 111t143.5 293q29 185 -51 295t-226 110q-147 0 -260.5 -110t-142.5 -295zM134 490q36 230 194 376.5t390 146.5q231 0 344 -147t77 -376q-31 -195 -170 -350q-71 -80 -179 -126.5t-237 -46.5q-126 0 -220.5 46t-139.5 125
q-91 156 -59 352zM589 1163l286 319h209l-354 -319h-141z" />
    <glyph glyph-name="ocircumflex" unicode="&#xf4;" horiz-adv-x="1113" 
d="M502 1163h-172l388 302h144l294 -302h-171l-208 222zM134 490q36 230 194 376.5t390 146.5q231 0 344 -147t77 -376q-31 -195 -170 -350q-71 -80 -179 -126.5t-237 -46.5q-126 0 -220.5 46t-139.5 125q-91 156 -59 352zM297 490q-29 -182 49.5 -293t225.5 -111t261.5 111
t143.5 293q29 185 -51 295t-226 110q-147 0 -260.5 -110t-142.5 -295z" />
    <glyph glyph-name="otilde" unicode="&#xf5;" horiz-adv-x="1113" 
d="M308 1250q122 165 298 165q76 0 168 -60q88 -61 133 -61q103 0 192 116l87 -58q-128 -165 -293 -165q-79 0 -164 61q-88 61 -138 61q-108 0 -195 -119zM134 490q36 230 194 376.5t390 146.5q231 0 344 -147t77 -376q-31 -195 -170 -350q-71 -80 -179 -126.5t-237 -46.5
q-126 0 -220.5 46t-139.5 125q-91 156 -59 352zM297 490q-29 -182 49.5 -293t225.5 -111t261.5 111t143.5 293q29 185 -51 295t-226 110q-147 0 -260.5 -110t-142.5 -295z" />
    <glyph glyph-name="odieresis" unicode="&#xf6;" horiz-adv-x="1113" 
d="M640 1226h-212l28 176h212zM134 490q36 230 194 376.5t390 146.5q231 0 344 -147t77 -376q-31 -195 -170 -350q-71 -80 -179 -126.5t-237 -46.5q-126 0 -220.5 46t-139.5 125q-91 156 -59 352zM297 490q-29 -182 49.5 -293t225.5 -111t261.5 111t143.5 293
q29 185 -51 295t-226 110q-147 0 -260.5 -110t-142.5 -295zM865 1226l28 176h211l-28 -176h-211z" />
    <glyph glyph-name="divide" unicode="&#xf7;" horiz-adv-x="1581" 
d="M250 557l25 154h1257l-25 -154h-1257zM671 200l37 238h303l-37 -238h-303zM771 833l38 240h303l-38 -240h-303z" />
    <glyph glyph-name="oslash" unicode="&#xf8;" horiz-adv-x="1111" 
d="M134 490q36 230 194 376.5t390 146.5q134 0 224 -48l97 131h136l-147 -195q151 -145 109 -411q-32 -198 -169 -350q-72 -80 -179 -126.5t-236 -46.5q-114 0 -207 41l-89 -120h-137l133 177q-78 71 -109 184.5t-10 240.5zM297 490q-30 -185 51 -299l510 659
q-69 45 -158 45q-147 0 -260.5 -110t-142.5 -295zM430 121q64 -35 142 -35q147 0 260 111t143 293q27 175 -41 283z" />
    <glyph glyph-name="ugrave" unicode="&#xf9;" horiz-adv-x="1083" 
d="M164 344l101 637h164l-96 -607q-45 -288 194 -288q142 0 237 96.5t118 239.5l88 559h158l-155 -981h-153l25 158q-29 -70 -130.5 -130.5t-244.5 -60.5q-164 0 -249 98t-57 279zM480 1482h209l185 -319h-144z" />
    <glyph glyph-name="uacute" unicode="&#xfa;" horiz-adv-x="1083" 
d="M164 344l101 637h164l-96 -607q-45 -288 194 -288q142 0 237 96.5t118 239.5l88 559h158l-155 -981h-153l25 158q-29 -70 -130.5 -130.5t-244.5 -60.5q-164 0 -249 98t-57 279zM585 1163l284 319h210l-352 -319h-142z" />
    <glyph glyph-name="ucircumflex" unicode="&#xfb;" horiz-adv-x="1092" 
d="M164 344l101 637h164l-96 -607q-45 -288 194 -288q142 0 237 96.5t118 239.5l88 559h158l-155 -981h-153l25 158q-29 -70 -130.5 -130.5t-244.5 -60.5q-164 0 -249 98t-57 279zM338 1163l389 302h142l297 -302h-173l-207 222l-276 -222h-172z" />
    <glyph glyph-name="udieresis" unicode="&#xfc;" horiz-adv-x="1083" 
d="M643 1226h-211l28 176h211zM164 344l101 637h164l-96 -607q-45 -288 194 -288q142 0 237 96.5t118 239.5l88 559h158l-155 -981h-153l25 158q-29 -70 -130.5 -130.5t-244.5 -60.5q-164 0 -249 98t-57 279zM869 1226l28 176h208l-28 -176h-208z" />
    <glyph glyph-name="yacute" unicode="&#xfd;" horiz-adv-x="1059" 
d="M535 1163l283 319h211l-355 -319h-139zM79 -428l19 116h38q82 0 143 41.5t118 143.5l60 114l-280 994h187l195 -823h9l441 823h183l-663 -1145q-85 -144 -175.5 -204t-212.5 -60h-62z" />
    <glyph glyph-name="thorn" unicode="&#xfe;" horiz-adv-x="1133" 
d="M344 490q-29 -179 44.5 -291.5t206.5 -112.5q153 0 260 108t137 296q29 188 -42.5 296.5t-225.5 108.5q-130 0 -241 -113.5t-139 -291.5zM42 -428l292 1844h160l-97 -614q47 90 155 150.5t210 60.5q217 0 324 -140.5t69 -382.5q-20 -125 -74 -226t-130 -165t-167 -98
t-189 -34q-112 0 -193 60.5t-105 145.5l-95 -601h-160z" />
    <glyph glyph-name="ydieresis" unicode="&#xff;" horiz-adv-x="1059" 
d="M595 1226h-212l28 176h212zM79 -428l19 116h38q82 0 143 41.5t118 143.5l60 114l-280 994h187l195 -823h9l441 823h183l-663 -1145q-85 -144 -175.5 -204t-212.5 -60h-62zM821 1226l28 176h209l-28 -176h-209z" />
    <glyph glyph-name="Amacron" unicode="&#x100;" horiz-adv-x="1373" 
d="M1295 1602h-711l15 99h711zM4 0l799 1365h202l364 -1365h-181l-97 394h-684l-221 -394h-182zM476 511h586l-174 721h-12z" />
    <glyph glyph-name="amacron" unicode="&#x101;" 
d="M1082 1235h-711l15 99h711zM94 241q44 273 536 338q212 30 294 52l9 57q15 93 -52.5 152t-200.5 59q-99 0 -198 -41t-174 -111l-92 77q100 87 225 138t253 51q223 0 319.5 -96t66.5 -288l-100 -629h-153l25 161q-47 -81 -161.5 -137.5t-248.5 -56.5q-182 0 -274.5 76
t-73.5 198zM258 252q-12 -71 49 -118.5t173 -47.5q151 0 267.5 84.5t137.5 212.5l21 136q-107 -22 -297 -46q-167 -26 -252 -79t-99 -142z" />
    <glyph glyph-name="Abreve" unicode="&#x102;" horiz-adv-x="1373" 
d="M761 1784q-8 -73 44.5 -124t139.5 -51t156.5 52t84.5 123h126q-25 -114 -126.5 -190.5t-255.5 -76.5q-155 0 -231 76t-64 191h126zM4 0l799 1365h202l364 -1365h-181l-97 394h-684l-221 -394h-182zM476 511h586l-174 721h-12z" />
    <glyph glyph-name="abreve" unicode="&#x103;" 
d="M258 252q-12 -71 49 -118.5t173 -47.5q151 0 267.5 84.5t137.5 212.5l21 136q-107 -22 -297 -46q-167 -26 -252 -79t-99 -142zM94 241q44 273 536 338q212 30 294 52l9 57q15 93 -52.5 152t-200.5 59q-99 0 -198 -41t-174 -111l-92 77q100 87 225 138t253 51
q223 0 319.5 -96t66.5 -288l-100 -629h-153l25 161q-47 -81 -161.5 -137.5t-248.5 -56.5q-182 0 -274.5 76t-73.5 198zM416 1429h125q-6 -73 46 -124t138 -51q88 0 156.5 51t85.5 124h126q-24 -114 -126 -191t-257 -77q-154 0 -230 77t-64 191z" />
    <glyph glyph-name="Aogonek" unicode="&#x104;" horiz-adv-x="1355" 
d="M925 -234q11 65 87 129.5t175 107.5l-96 391h-684l-221 -394h-182l799 1365h202l364 -1365h-31q-248 -124 -262 -209q-6 -35 16 -53t71 -18q51 0 137 23l-15 -94q-74 -25 -169 -25q-102 0 -152 37.5t-39 104.5zM476 511h586l-174 721h-12z" />
    <glyph glyph-name="aogonek" unicode="&#x105;" horiz-adv-x="1077" 
d="M258 252q-12 -71 49 -118.5t173 -47.5q151 0 267.5 84.5t137.5 212.5l21 136q-107 -22 -297 -46q-167 -26 -252 -79t-99 -142zM94 241q44 273 536 338q212 30 294 52l9 57q15 93 -52.5 152t-200.5 59q-99 0 -198 -41t-174 -111l-92 77q100 87 225 138t253 51
q223 0 319.5 -96t66.5 -288l-99 -625h5l-6 -3v-1h-2q-247 -124 -261 -209q-12 -71 89 -71q49 0 133 23l-15 -94q-69 -25 -166 -25q-103 0 -152 37.5t-38 104.5q11 65 86.5 130t173.5 108l24 157q-47 -81 -161.5 -137.5t-248.5 -56.5q-182 0 -274.5 76t-73.5 198z" />
    <glyph glyph-name="Cacute" unicode="&#x106;" horiz-adv-x="1344" 
d="M182 682q34 219 144 382t273 248t359 85q173 0 289.5 -83t165.5 -216l-149 -43q-104 219 -330 219q-224 0 -382 -161t-201 -431q-43 -271 66 -430t330 -159q135 0 250 66t186 172l142 -44q-98 -143 -249 -231.5t-344 -88.5q-195 0 -331 85t-194.5 248t-24.5 382z
M843 1517l286 318h210l-353 -318h-143z" />
    <glyph glyph-name="cacute" unicode="&#x107;" horiz-adv-x="1033" 
d="M754 1163h-140l285 319h210zM134 490q37 236 195 379.5t385 143.5q144 0 241 -73t117 -182l-141 -34q-19 75 -82.5 123t-152.5 48q-151 0 -261 -114t-138 -291q-30 -183 47 -293.5t224 -110.5q93 0 183 53.5t138 129.5l129 -37q-62 -114 -191 -189.5t-278 -75.5
q-223 0 -338 143.5t-77 379.5z" />
    <glyph glyph-name="Cdotaccent" unicode="&#x10a;" horiz-adv-x="1344" 
d="M182 682q34 219 144 382t273 248t359 85q173 0 289.5 -83t165.5 -216l-149 -43q-104 219 -330 219q-224 0 -382 -161t-201 -431q-43 -271 66 -430t330 -159q135 0 250 66t186 172l142 -44q-98 -143 -249 -231.5t-344 -88.5q-195 0 -331 85t-194.5 248t-24.5 382z
M883 1577l28 177h215l-28 -177h-215z" />
    <glyph glyph-name="cdotaccent" unicode="&#x10b;" horiz-adv-x="1033" 
d="M855 1226h-215l29 180h215zM134 490q37 236 195 379.5t385 143.5q144 0 241 -73t117 -182l-141 -34q-19 75 -82.5 123t-152.5 48q-151 0 -261 -114t-138 -291q-30 -183 47 -293.5t224 -110.5q93 0 183 53.5t138 129.5l129 -37q-62 -114 -191 -189.5t-278 -75.5
q-223 0 -338 143.5t-77 379.5z" />
    <glyph glyph-name="Ccaron" unicode="&#x10c;" horiz-adv-x="1344" 
d="M182 682q34 219 144 382t273 248t359 85q173 0 289.5 -83t165.5 -216l-149 -43q-104 219 -330 219q-224 0 -382 -161t-201 -431q-43 -271 66 -430t330 -159q135 0 250 66t186 172l142 -44q-98 -143 -249 -231.5t-344 -88.5q-195 0 -331 85t-194.5 248t-24.5 382z
M624 1812h164l199 -214l272 214h165l-379 -295h-142z" />
    <glyph glyph-name="ccaron" unicode="&#x10d;" horiz-adv-x="1033" 
d="M134 490q37 236 195 379.5t385 143.5q144 0 241 -73t117 -182l-141 -34q-19 75 -82.5 123t-152.5 48q-151 0 -261 -114t-138 -291q-30 -183 47 -293.5t224 -110.5q93 0 183 53.5t138 129.5l129 -37q-62 -114 -191 -189.5t-278 -75.5q-223 0 -338 143.5t-77 379.5z
M388 1457h163l200 -212l272 212h165l-379 -294h-143z" />
    <glyph glyph-name="Dcaron" unicode="&#x10e;" horiz-adv-x="1346" 
d="M547 0h-415l216 1365h420q340 0 502.5 -176t109.5 -507q-51 -322 -267.5 -502t-565.5 -180zM317 123h223q279 0 453 138t219 421q45 285 -84 422t-405 137h-228zM468 1812h165l201 -214l271 214h165l-380 -295h-143z" />
    <glyph glyph-name="dcaron" unicode="&#x10f;" horiz-adv-x="1559" 
d="M134 492q38 239 191 380t360 141q117 0 199.5 -59t108.5 -145l96 607h158l-224 -1416h-153l28 177q-61 -94 -161.5 -152t-216.5 -58q-172 0 -294 120q-63 61 -88 166t-4 239zM297 492q-29 -183 44 -294.5t219 -111.5q138 0 248.5 112t139.5 294q29 180 -46.5 291.5
t-213.5 111.5q-147 0 -254.5 -110t-136.5 -293zM1238 1049l167 351h179l-227 -351h-119z" />
    <glyph glyph-name="Dcroat" unicode="&#x110;" horiz-adv-x="1300" 
d="M501 0h-415l102 642h-226l18 116h226l96 607h420q340 0 502.5 -176t109.5 -507q-51 -322 -267.5 -502t-565.5 -180zM271 123h223q279 0 453 138t219 421q45 285 -84 422t-405 137h-228l-77 -483h370l-18 -116h-370z" />
    <glyph glyph-name="dcroat" unicode="&#x111;" horiz-adv-x="1048" 
d="M134 492q38 241 190.5 381t360.5 140q117 0 199 -58.5t107 -145.5l55 346h-456l17 106h456l24 155h160l-24 -155h147l-17 -106h-147l-183 -1155h-156l28 177q-65 -97 -162 -153.5t-216 -56.5q-95 0 -173.5 34.5t-132.5 98.5t-75.5 165.5t-1.5 226.5zM297 492
q-29 -183 44 -294.5t219 -111.5q139 0 247.5 113t137.5 293q28 175 -45 289t-214 114q-145 0 -252.5 -110.5t-136.5 -292.5z" />
    <glyph glyph-name="Emacron" unicode="&#x112;" horiz-adv-x="1205" 
d="M1119 0h-987l216 1365h972l-19 -124h-806l-75 -473h725l-20 -124h-725l-83 -521h821zM514 1603l16 99h710l-16 -99h-710z" />
    <glyph glyph-name="emacron" unicode="&#x113;" horiz-adv-x="1104" 
d="M135 497q36 230 199.5 373t388.5 143q224 0 335 -138t76 -357q-6 -35 -16 -73h-829q-24 -153 55.5 -256t239.5 -103q107 0 198 44t148 121l133 -38q-75 -112 -203.5 -179t-294.5 -67q-231 0 -349.5 146t-80.5 384zM310 553h668q23 146 -52 244t-221 98q-148 0 -257.5 -99
t-137.5 -243zM391 1238l16 98h713l-16 -98h-713z" />
    <glyph glyph-name="Edotaccent" unicode="&#x116;" horiz-adv-x="1205" 
d="M1119 0h-987l216 1365h972l-19 -124h-806l-75 -473h725l-20 -124h-725l-83 -521h821zM774 1577l28 177h213l-28 -177h-213z" />
    <glyph glyph-name="edotaccent" unicode="&#x117;" horiz-adv-x="1104" 
d="M863 1226h-214l29 180h214zM135 497q36 230 199.5 373t388.5 143q224 0 335 -138t76 -357q-6 -35 -16 -73h-829q-24 -153 55.5 -256t239.5 -103q107 0 198 44t148 121l133 -38q-75 -112 -203.5 -179t-294.5 -67q-231 0 -349.5 146t-80.5 384zM310 553h668q23 146 -52 244
t-221 98q-148 0 -257.5 -99t-137.5 -243z" />
    <glyph glyph-name="Eogonek" unicode="&#x118;" horiz-adv-x="1187" 
d="M863 0q-248 -124 -262 -209q-12 -71 89 -71q50 0 134 23l-15 -94q-69 -25 -166 -25q-103 0 -152 37.5t-38 104.5q10 64 82.5 127t169.5 107h-573l216 1365h972l-19 -124h-806l-75 -473h725l-20 -124h-725l-83 -521h821l-19 -123h-256z" />
    <glyph glyph-name="eogonek" unicode="&#x119;" horiz-adv-x="1104" 
d="M135 497q36 230 199.5 373t388.5 143q224 0 335 -138t76 -357q-6 -35 -16 -73h-829q-24 -153 55.5 -256t239.5 -103q107 0 198 44t148 121l133 -38q-61 -91 -158.5 -153.5t-224.5 -83.5q-203 -108 -215 -185q-6 -35 17 -53t73 -18q49 0 135 23l-15 -94q-72 -25 -168 -25
q-104 0 -153 37t-38 105q9 53 62 106.5t131 96.5q-205 19 -307 162t-67 366zM310 553h668q23 146 -52 244t-221 98q-148 0 -257.5 -99t-137.5 -243z" />
    <glyph glyph-name="Ecaron" unicode="&#x11a;" horiz-adv-x="1205" 
d="M1119 0h-987l216 1365h972l-19 -124h-806l-75 -473h725l-20 -124h-725l-83 -521h821zM486 1812h163l200 -214l273 214h164l-378 -295h-144z" />
    <glyph glyph-name="ecaron" unicode="&#x11b;" horiz-adv-x="1104" 
d="M135 497q36 230 199.5 373t388.5 143q224 0 335 -138t76 -357q-6 -35 -16 -73h-829q-24 -153 55.5 -256t239.5 -103q107 0 198 44t148 121l133 -38q-75 -112 -203.5 -179t-294.5 -67q-231 0 -349.5 146t-80.5 384zM310 553h668q23 146 -52 244t-221 98q-148 0 -257.5 -99
t-137.5 -243zM384 1457h165l200 -212l272 212h164l-379 -294h-143z" />
    <glyph glyph-name="Gbreve" unicode="&#x11e;" horiz-adv-x="1406" 
d="M182 682q33 212 139.5 373t274.5 251.5t375 90.5q104 0 191 -27.5t141 -75.5q107 -96 140 -186l-147 -43q-114 209 -344 209q-237 0 -397.5 -161t-203.5 -431q-43 -274 67.5 -431.5t337.5 -157.5q196 0 327 113t158 279l20 127h-440l20 125h602l-117 -737h-120l19 200
q-159 -233 -493 -233q-299 0 -450.5 193t-99.5 522zM685 1784h128q-8 -73 44.5 -124t138.5 -51t156.5 52t84.5 123h127q-25 -114 -126.5 -190.5t-256.5 -76.5t-231 76t-65 191z" />
    <glyph glyph-name="gbreve" unicode="&#x11f;" horiz-adv-x="1114" 
d="M300 509q-28 -174 42 -280.5t211 -106.5q143 0 244 103t130 286q27 175 -42.5 279.5t-203.5 104.5q-145 0 -249.5 -108t-131.5 -278zM73 -257l123 64q108 -128 287 -128q146 0 245 101t126 271l22 140q-61 -85 -152 -136t-202 -51q-209 0 -315 140t-71 363
q36 226 186 366t355 140q120 0 196.5 -54.5t102.5 -137.5l25 160h158l-137 -866q-45 -281 -180.5 -415.5t-380.5 -134.5q-270 0 -388 178zM436 1429h127q-8 -73 45 -124t139 -51q88 0 156 51t85 124h126q-24 -114 -125.5 -191t-256.5 -77q-154 0 -230.5 77t-65.5 191z" />
    <glyph glyph-name="Gdotaccent" unicode="&#x120;" horiz-adv-x="1406" 
d="M182 682q33 212 139.5 373t274.5 251.5t375 90.5q104 0 191 -27.5t141 -75.5q107 -96 140 -186l-147 -43q-114 209 -344 209q-237 0 -397.5 -161t-203.5 -431q-43 -274 67.5 -431.5t337.5 -157.5q196 0 327 113t158 279l20 127h-440l20 125h602l-117 -737h-120l19 200
q-159 -233 -493 -233q-299 0 -450.5 193t-99.5 522zM892 1577l28 177h213l-28 -177h-213z" />
    <glyph glyph-name="gdotaccent" unicode="&#x121;" horiz-adv-x="1114" 
d="M300 509q-28 -174 42 -280.5t211 -106.5q143 0 244 103t130 286q27 175 -42.5 279.5t-203.5 104.5q-145 0 -249.5 -108t-131.5 -278zM73 -257l123 64q108 -128 287 -128q146 0 245 101t126 271l22 140q-61 -85 -152 -136t-202 -51q-209 0 -315 140t-71 363
q36 226 186 366t355 140q120 0 196.5 -54.5t102.5 -137.5l25 160h158l-137 -866q-45 -281 -180.5 -415.5t-380.5 -134.5q-270 0 -388 178zM651 1226l29 180h213l-29 -180h-213z" />
    <glyph glyph-name="uni0122" unicode="&#x122;" horiz-adv-x="1406" 
d="M182 682q33 212 139.5 373t274.5 251.5t375 90.5q104 0 191 -27.5t141 -75.5q107 -96 140 -186l-147 -43q-114 209 -344 209q-237 0 -397.5 -161t-203.5 -431q-43 -274 67.5 -431.5t337.5 -157.5q196 0 327 113t158 279l20 127h-440l20 125h602l-117 -737h-120l19 200
q-159 -233 -493 -233q-299 0 -450.5 193t-99.5 522zM528 -460l159 345h185l-228 -345h-116z" />
    <glyph glyph-name="uni0123" unicode="&#x123;" horiz-adv-x="1114" 
d="M807 1168h-187l230 332h114zM71 -257l123 64q107 -128 285 -128q151 0 244.5 97t126.5 268q14 65 26 147q-60 -87 -151.5 -137t-206.5 -50q-206 0 -311.5 140t-70.5 363q36 225 186 365.5t351 140.5q124 0 200.5 -54.5t102.5 -137.5l25 160h158l-137 -866
q-45 -281 -181 -415.5t-385 -134.5q-270 0 -385 178zM300 509q-28 -175 42 -281t207 -106q147 0 248 102.5t130 286.5q28 178 -42 281t-212 103q-138 0 -242 -107.5t-131 -278.5z" />
    <glyph glyph-name="Hbar" unicode="&#x126;" horiz-adv-x="1556" 
d="M397 1049h-181l18 115h181l32 201h166l-32 -201h763l32 201h167l-32 -201h179l-18 -115h-179l-166 -1049h-167l102 642h-763l-102 -642h-166zM518 764h763l45 285h-763z" />
    <glyph glyph-name="hbar" unicode="&#x127;" horiz-adv-x="986" 
d="M191 1159h-153l17 108h153l23 149h160l-23 -149h436l-17 -108h-436l-58 -361h3q52 77 155.5 133.5t215.5 56.5q126 0 227 -69q54 -38 75 -118t3 -192l-96 -609h-159l93 587q22 138 -20 210t-170 72q-125 0 -235 -94.5t-130 -217.5l-88 -557h-160z" />
    <glyph glyph-name="Imacron" unicode="&#x12a;" horiz-adv-x="475" 
d="M847 1602h-711l15 99h711zM156 0l216 1365h166l-216 -1365h-166z" />
    <glyph glyph-name="imacron" unicode="&#x12b;" horiz-adv-x="421" 
d="M763 1238h-711l16 98h711zM135 0l155 981h162l-155 -981h-162z" />
    <glyph glyph-name="Iogonek" unicode="&#x12e;" horiz-adv-x="473" 
d="M342 0q-245 -123 -259 -207q-5 -36 17 -54t72 -18q51 0 137 24l-15 -94q-75 -24 -169 -24q-102 0 -152.5 37t-39.5 104q11 64 86.5 128.5t174.5 108.5l215 1360h166l-216 -1365h-17z" />
    <glyph glyph-name="iogonek" unicode="&#x12f;" horiz-adv-x="401" 
d="M481 1201h-204l29 184h204zM-147 -232q11 65 86.5 129.5t173.5 107.5l154 976h158l-154 -975h3l-3 -2l-1 -4h-8q-245 -123 -259 -207q-5 -36 17 -54t71 -18q53 0 138 24l-15 -94q-75 -24 -168 -24q-104 0 -154 37t-39 104z" />
    <glyph glyph-name="Idotaccent" unicode="&#x130;" horiz-adv-x="414" 
d="M290 0h-166l216 1365h166zM350 1577l28 177h214l-28 -177h-214z" />
    <glyph glyph-name="dotlessi" unicode="&#x131;" horiz-adv-x="382" 
d="M272 0h-162l155 981h162z" />
    <glyph glyph-name="IJ" unicode="&#x132;" horiz-adv-x="1581" 
d="M368 0h-166l216 1365h166zM595 219l155 49q17 -82 76 -128.5t146 -46.5q246 0 294 305l153 967h164l-157 -991q-31 -200 -151.5 -303.5t-317.5 -103.5q-311 0 -362 252z" />
    <glyph glyph-name="ij" unicode="&#x133;" horiz-adv-x="1088" 
d="M1121 1201h-208l29 184h208zM193 0l155 981h158l-155 -981h-158zM358 1201l29 184h204l-29 -184h-204zM446 -415l19 118h49q186 0 222 226l166 1052h158l-167 -1059q-26 -165 -122.5 -251t-250.5 -86h-74z" />
    <glyph glyph-name="uni0136" unicode="&#x136;" horiz-adv-x="1265" 
d="M298 0h-166l216 1365h166l-114 -722h4l820 722h220l-683 -590l498 -775h-207l-416 669l-269 -234zM378 -435l161 344h184l-229 -344h-116z" />
    <glyph glyph-name="uni0137" unicode="&#x137;" horiz-adv-x="995" 
d="M273 0h-163l224 1416h163l-147 -928l562 493h212l-460 -392l351 -589h-195l-274 490l-226 -191zM278 -435l162 344h184l-229 -344h-117z" />
    <glyph glyph-name="Lacute" unicode="&#x139;" horiz-adv-x="1125" 
d="M1075 0h-905l216 1365h166l-197 -1242h739zM371 1507l285 319h210l-353 -319h-142z" />
    <glyph glyph-name="lacute" unicode="&#x13a;" horiz-adv-x="498" 
d="M489 1507h-140l284 319h208zM168 0l224 1416h156l-224 -1416h-156z" />
    <glyph glyph-name="uni013B" unicode="&#x13b;" horiz-adv-x="1087" 
d="M1037 0h-905l216 1365h166l-197 -1242h739zM316 -460l161 345h184l-229 -345h-116z" />
    <glyph glyph-name="uni013C" unicode="&#x13c;" horiz-adv-x="423" 
d="M301 0h-156l224 1416h156zM-49 -460l160 345h184l-228 -345h-116z" />
    <glyph glyph-name="Lcaron" unicode="&#x13d;" horiz-adv-x="1537" 
d="M1037 0h-905l216 1365h166l-197 -1242h739zM651 1016l164 349h178l-225 -349h-117z" />
    <glyph glyph-name="lcaron" unicode="&#x13e;" horiz-adv-x="804" 
d="M266 0h-156l224 1416h156zM491 1049l166 351h179l-226 -351h-119z" />
    <glyph glyph-name="Lslash" unicode="&#x141;" horiz-adv-x="1243" 
d="M868 811l-312 -167l-83 -521h739l-19 -123h-905l88 553l-237 -128l-59 104l319 172l105 664h166l-91 -574l229 124z" />
    <glyph glyph-name="lslash" unicode="&#x142;" horiz-adv-x="611" 
d="M793 831l-298 -156l-107 -675h-159l93 585l-220 -112l-61 104l304 157l108 682h159l-93 -590l217 110z" />
    <glyph glyph-name="Nacute" unicode="&#x143;" horiz-adv-x="1367" 
d="M799 1517l286 318h209l-353 -318h-142zM132 0l216 1365h191l567 -1140l180 1140h165l-216 -1365h-191l-566 1138l-180 -1138h-166z" />
    <glyph glyph-name="nacute" unicode="&#x144;" horiz-adv-x="1092" 
d="M270 0h-160l155 981h157l-26 -168h2q39 78 148 139t237 61q167 0 248.5 -90.5t50.5 -288.5l-100 -634h-163l97 611q45 284 -188 284q-85 0 -164.5 -42t-133.5 -113.5t-67 -154.5zM591 1163l285 319h209l-354 -319h-140z" />
    <glyph glyph-name="uni0145" unicode="&#x145;" horiz-adv-x="1367" 
d="M447 -460l161 345h183l-228 -345h-116zM132 0l216 1365h191l567 -1140l180 1140h165l-216 -1365h-191l-566 1138l-180 -1138h-166z" />
    <glyph glyph-name="uni0146" unicode="&#x146;" horiz-adv-x="1092" 
d="M270 0h-160l155 981h157l-26 -168h2q39 78 148 139t237 61q167 0 248.5 -90.5t50.5 -288.5l-100 -634h-163l97 611q45 284 -188 284q-85 0 -164.5 -42t-133.5 -113.5t-67 -154.5zM319 -460l160 345h184l-228 -345h-116z" />
    <glyph glyph-name="Ncaron" unicode="&#x147;" horiz-adv-x="1367" 
d="M583 1812h163l201 -214l272 214h165l-379 -295h-144zM132 0l216 1365h191l567 -1140l180 1140h165l-216 -1365h-191l-566 1138l-180 -1138h-166z" />
    <glyph glyph-name="ncaron" unicode="&#x148;" horiz-adv-x="1092" 
d="M270 0h-160l155 981h157l-26 -168h2q39 78 148 139t237 61q167 0 248.5 -90.5t50.5 -288.5l-100 -634h-163l97 611q45 284 -188 284q-85 0 -164.5 -42t-133.5 -113.5t-67 -154.5zM398 1457h164l201 -212l272 212h164l-379 -294h-142z" />
    <glyph glyph-name="Omacron" unicode="&#x14c;" horiz-adv-x="1438" 
d="M1316 1602h-711l15 99h711zM182 682q51 322 258.5 518.5t500.5 196.5q196 0 328 -89t184.5 -251t18.5 -377q-52 -328 -257.5 -520.5t-499.5 -192.5t-439.5 194t-93.5 521zM351 682q-43 -270 61 -429.5t323 -159.5q217 0 370 157.5t196 429.5q43 273 -57 433.5t-322 160.5
q-219 0 -373.5 -160.5t-197.5 -431.5z" />
    <glyph glyph-name="omacron" unicode="&#x14d;" horiz-adv-x="1113" 
d="M1113 1238h-711l16 98h711zM134 490q36 230 194 376.5t390 146.5q231 0 344 -147t77 -376q-31 -195 -170 -350q-71 -80 -179 -126.5t-237 -46.5q-126 0 -220.5 46t-139.5 125q-91 156 -59 352zM297 490q-29 -182 49.5 -293t225.5 -111t261.5 111t143.5 293
q29 185 -51 295t-226 110q-147 0 -260.5 -110t-142.5 -295z" />
    <glyph glyph-name="Ohungarumlaut" unicode="&#x150;" horiz-adv-x="1438" 
d="M182 682q51 322 258.5 518.5t500.5 196.5q196 0 328 -89t184.5 -251t18.5 -377q-52 -328 -257.5 -520.5t-499.5 -192.5t-439.5 194t-93.5 521zM351 682q-43 -270 61 -429.5t323 -159.5q217 0 370 157.5t196 429.5q43 273 -57 433.5t-322 160.5q-219 0 -373.5 -160.5
t-197.5 -431.5zM643 1519l271 328h196l-323 -328h-144zM967 1519l270 328h197l-323 -328h-144z" />
    <glyph glyph-name="ohungarumlaut" unicode="&#x151;" horiz-adv-x="1113" 
d="M297 490q-29 -182 49.5 -293t225.5 -111t261.5 111t143.5 293q29 185 -51 295t-226 110q-147 0 -260.5 -110t-142.5 -295zM134 490q36 230 194 376.5t390 146.5q231 0 344 -147t77 -376q-31 -195 -170 -350q-71 -80 -179 -126.5t-237 -46.5q-126 0 -220.5 46t-139.5 125
q-91 156 -59 352zM460 1163l270 327h198l-324 -327h-144zM785 1163l268 327h197l-323 -327h-142z" />
    <glyph glyph-name="OE" unicode="&#x152;" horiz-adv-x="1985" 
d="M182 682q34 213 144.5 376t275.5 251t360 88q124 0 215 -32h918l-19 -124h-758l-75 -473h683l-20 -124h-683l-83 -521h778l-19 -123h-933q-105 -33 -230 -33q-300 0 -453 194t-101 521zM351 682q-42 -270 70 -430.5t334 -160.5q130 0 221 51l171 1075q-79 57 -204 57
q-225 0 -387 -162t-205 -430z" />
    <glyph glyph-name="oe" unicode="&#x153;" horiz-adv-x="1945" 
d="M297 490q-29 -182 49.5 -293t225.5 -111q140 0 251 101.5t147 269.5q0 2 6 40q1 15 6 32q15 168 -65 267t-217 99q-147 0 -260.5 -110t-142.5 -295zM134 490q36 230 194 376.5t390 146.5q141 0 240 -57.5t147 -159.5q83 103 201.5 160t256.5 57q225 0 336 -137.5
t76 -357.5q-5 -28 -18 -73h-828v-4q-23 -152 56.5 -253.5t239.5 -101.5q106 0 197 44t148 121l132 -38q-74 -112 -202 -179t-294 -67q-143 0 -245.5 58t-151.5 163q-33 -40 -40 -48q-71 -80 -179 -126.5t-237 -46.5q-126 0 -220.5 46t-139.5 125q-91 156 -59 352zM1150 553
h668q23 146 -52 244t-221 98q-148 0 -258.5 -99.5t-136.5 -242.5z" />
    <glyph glyph-name="Racute" unicode="&#x154;" horiz-adv-x="1307" 
d="M807 1517h-139l284 318h209zM131 -4l218 1373h597q222 0 334 -108.5t85 -278.5q-18 -112 -83.5 -194.5t-157.5 -130.5q69 -49 90.5 -128t11.5 -185l-1 -28q-1 -2 -1 -5.5v-5.5v-9q0 -5 -2 -17q0 -1 0.5 -4t0.5 -5q-5 -57 -6.5 -80t1 -58t11.5 -57l63 -79h-212
q-24 57 -27 128t8 211q6 63 -2.5 106.5t-36 78t-82.5 51t-139 16.5h-413l-94 -591h-163zM411 731h432q158 0 247.5 64t108.5 185q19 116 -53.5 181t-244.5 65h-412z" />
    <glyph glyph-name="racute" unicode="&#x155;" horiz-adv-x="726" 
d="M270 0h-160l155 981h153l-22 -143q49 74 135.5 124.5t198.5 50.5q91 0 154 -25l-20 -128q-72 26 -154 26q-140 0 -234.5 -92t-118.5 -247zM454 1163l286 319h210l-354 -319h-142z" />
    <glyph glyph-name="uni0156" unicode="&#x156;" horiz-adv-x="1307" 
d="M529 -460h-115l161 345h184zM131 -4l218 1373h597q222 0 334 -108.5t85 -278.5q-18 -112 -83.5 -194.5t-157.5 -130.5q69 -49 90.5 -128t11.5 -185l-1 -28q-1 -2 -1 -5.5v-5.5v-9q0 -5 -2 -17q0 -1 0.5 -4t0.5 -5q-5 -57 -6.5 -80t1 -58t11.5 -57l63 -79h-212
q-24 57 -27 128t8 211q6 63 -2.5 106.5t-36 78t-82.5 51t-139 16.5h-413l-94 -591h-163zM411 731h432q158 0 247.5 64t108.5 185q19 116 -53.5 181t-244.5 65h-412z" />
    <glyph glyph-name="uni0157" unicode="&#x157;" horiz-adv-x="741" 
d="M286 0h-162l155 981h155l-22 -143q46 73 133.5 124t199.5 51q89 0 154 -25l-20 -128q-73 26 -154 26q-140 0 -234 -92t-118 -247zM-49 -460l161 345h185l-230 -345h-116z" />
    <glyph glyph-name="Rcaron" unicode="&#x158;" horiz-adv-x="1307" 
d="M756 1517l-279 295h163l201 -214l273 214h162l-378 -295h-142zM131 -4l218 1373h597q222 0 334 -108.5t85 -278.5q-18 -112 -83.5 -194.5t-157.5 -130.5q69 -49 90.5 -128t11.5 -185l-1 -28q-1 -2 -1 -5.5v-5.5v-9q0 -5 -2 -17q0 -1 0.5 -4t0.5 -5q-5 -57 -6.5 -80t1 -58
t11.5 -57l63 -79h-212q-24 57 -27 128t8 211q6 63 -2.5 106.5t-36 78t-82.5 51t-139 16.5h-413l-94 -591h-163zM411 731h432q158 0 247.5 64t108.5 185q19 116 -53.5 181t-244.5 65h-412z" />
    <glyph glyph-name="rcaron" unicode="&#x159;" horiz-adv-x="837" 
d="M310 0h-162l155 981h155l-22 -143q46 73 133.5 124t199.5 51q89 0 154 -25l-20 -128q-73 26 -154 26q-140 0 -234 -92t-118 -247zM291 1457h162l200 -212l274 212h163l-378 -294h-144z" />
    <glyph glyph-name="Sacute" unicode="&#x15a;" horiz-adv-x="1256" 
d="M269 305q107 -212 399 -212q163 0 275.5 70t131.5 188q18 122 -91 189q-55 33 -103 52t-147 50q-78 23 -99 31q-40 12 -100.5 35t-87.5 40q-105 63 -131 115q-44 82 -29 177q26 163 182 260t393 97q175 0 299 -70.5t167 -183.5l-148 -45q-96 176 -342 176
q-160 0 -262 -63t-119 -171q-7 -43 9.5 -85t45.5 -68q25 -24 90 -53q77 -35 194 -70q16 -4 25 -7q23 -7 29 -10q101 -30 164.5 -57.5t127.5 -71.5q129 -92 103 -261q-29 -182 -190.5 -286t-409.5 -104q-209 0 -345.5 76.5t-190.5 213.5zM739 1517l286 318h210l-354 -318
h-142z" />
    <glyph glyph-name="sacute" unicode="&#x15b;" horiz-adv-x="1006" 
d="M220 255q94 -169 305 -169q128 0 208.5 41t92.5 115q9 56 -41 104q-19 17 -71 38q-50 20 -203 64q-134 41 -216 95q-105 67 -85 196q20 123 144.5 198.5t316.5 75.5q133 0 238.5 -61.5t144.5 -151.5l-119 -61q-35 67 -111 111.5t-171 44.5q-124 0 -198 -42.5t-85 -115.5
q-14 -85 80 -135q15 -8 30.5 -15t26.5 -11.5t31 -11.5t29 -10t37 -11.5t40 -12.5q123 -33 200 -70q51 -26 84 -54q34 -30 52 -73t10 -91q-18 -120 -150 -197.5t-334 -77.5q-148 0 -255.5 59t-159.5 167zM514 1163l286 319h210l-354 -319h-142z" />
    <glyph glyph-name="Scedilla" unicode="&#x15e;" horiz-adv-x="1256" 
d="M359 -297q111 -28 192 -28q64 0 120 25t62 65q7 45 -57 68q-64 22 -172 18l54 120q-172 15 -286.5 89.5t-162.5 196.5l160 48q107 -212 399 -212q163 0 275.5 70t131.5 188q18 122 -91 189q-55 33 -103 52t-147 50q-78 23 -99 31q-40 12 -100.5 35t-87.5 40
q-105 63 -131 115q-44 82 -29 177q26 163 182 260t393 97q175 0 299 -70.5t167 -183.5l-148 -45q-96 176 -342 176q-160 0 -262 -63t-119 -171q-7 -43 9.5 -85t45.5 -68q25 -24 90 -53q77 -35 194 -70q16 -4 25 -7q23 -7 29 -10q101 -30 164.5 -57.5t127.5 -71.5
q129 -92 103 -261q-27 -172 -172 -274t-370 -114l-28 -60q99 -8 147.5 -47t38.5 -104q-12 -77 -97.5 -126t-224.5 -49q-96 0 -195 27z" />
    <glyph glyph-name="scedilla" unicode="&#x15f;" horiz-adv-x="1006" 
d="M213 -297q109 -28 190 -28q65 0 120.5 25t61.5 65q7 45 -56 68q-64 22 -171 18l56 122q-114 16 -196.5 73t-126.5 147l129 62q94 -169 305 -169q128 0 208.5 41t92.5 115q9 56 -41 104q-19 17 -71 38q-50 20 -203 64q-134 41 -216 95q-105 67 -85 196q20 123 144.5 198.5
t316.5 75.5q133 0 238.5 -61.5t144.5 -151.5l-119 -61q-35 67 -111 111.5t-171 44.5q-124 0 -198 -42.5t-85 -115.5q-14 -85 80 -135q15 -8 30.5 -15t26.5 -11.5t31 -11.5t29 -10t37 -11.5t40 -12.5q123 -33 200 -70q51 -26 84 -54q34 -30 52 -73t10 -91
q-18 -112 -135.5 -188t-299.5 -86l-28 -59q101 -8 149.5 -47t38.5 -104q-12 -77 -98 -126t-223 -49q-98 0 -196 27z" />
    <glyph glyph-name="Scaron" unicode="&#x160;" horiz-adv-x="1256" 
d="M269 305q107 -212 399 -212q163 0 275.5 70t131.5 188q18 122 -91 189q-55 33 -103 52t-147 50q-78 23 -99 31q-40 12 -100.5 35t-87.5 40q-105 63 -131 115q-44 82 -29 177q26 163 182 260t393 97q175 0 299 -70.5t167 -183.5l-148 -45q-96 176 -342 176
q-160 0 -262 -63t-119 -171q-7 -43 9.5 -85t45.5 -68q25 -24 90 -53q77 -35 194 -70q16 -4 25 -7q23 -7 29 -10q101 -30 164.5 -57.5t127.5 -71.5q129 -92 103 -261q-29 -182 -190.5 -286t-409.5 -104q-209 0 -345.5 76.5t-190.5 213.5zM528 1812h163l200 -214l273 214h164
l-378 -295h-144z" />
    <glyph glyph-name="scaron" unicode="&#x161;" horiz-adv-x="1006" 
d="M220 255q94 -169 305 -169q128 0 208.5 41t92.5 115q9 56 -41 104q-19 17 -71 38q-50 20 -203 64q-134 41 -216 95q-105 67 -85 196q20 123 144.5 198.5t316.5 75.5q133 0 238.5 -61.5t144.5 -151.5l-119 -61q-35 67 -111 111.5t-171 44.5q-124 0 -198 -42.5t-85 -115.5
q-14 -85 80 -135q15 -8 30.5 -15t26.5 -11.5t31 -11.5t29 -10t37 -11.5t40 -12.5q123 -33 200 -70q51 -26 84 -54q34 -30 52 -73t10 -91q-18 -120 -150 -197.5t-334 -77.5q-148 0 -255.5 59t-159.5 167zM345 1457h163l200 -212l273 212h163l-378 -294h-143z" />
    <glyph glyph-name="uni0162" unicode="&#x162;" horiz-adv-x="1211" 
d="M719 1241h-472l19 124h1111l-19 -124h-471l-197 -1241h-29l-42 -90q101 -7 150 -46t39 -105q-12 -75 -99 -124.5t-224 -49.5q-97 0 -195 27l14 93q111 -27 191 -27q64 0 120 25t62 63q7 46 -56 69q-66 21 -170 17l74 165z" />
    <glyph glyph-name="uni0163" unicode="&#x163;" horiz-adv-x="677" 
d="M347 862h-194l18 119h194l50 315h160l-50 -315h295l-18 -119h-295l-92 -575q-13 -87 21 -126.5t122 -39.5h128l-19 -121h-152l-35 -76q93 -14 136.5 -54.5t33.5 -104.5q-13 -77 -88.5 -124t-207.5 -47q-100 0 -178 18l14 91q83 -19 176 -19q63 0 105.5 23.5t49.5 64.5
q7 42 -45.5 66t-163.5 31l67 150q-158 54 -125 256z" />
    <glyph glyph-name="Tcaron" unicode="&#x164;" horiz-adv-x="1211" 
d="M719 1241h-472l19 124h1111l-19 -124h-471l-197 -1241h-168zM497 1812h163l201 -214l272 214h165l-380 -295h-141z" />
    <glyph glyph-name="tcaron" unicode="&#x165;" horiz-adv-x="1205" 
d="M347 862h-194l18 119h194l50 313h162l-50 -313h295l-18 -119h-295l-92 -575q-14 -89 19.5 -127.5t121.5 -38.5h128l-19 -121h-150q-307 0 -263 275zM604 1070l166 350h178l-226 -350h-118z" />
    <glyph glyph-name="Umacron" unicode="&#x16a;" horiz-adv-x="1364" 
d="M1290 1602h-710l15 99h710zM210 494l138 871h166l-137 -868q-31 -198 56 -301t261 -103q177 0 298 105t152 299l137 868h167l-138 -871q-39 -248 -205.5 -387.5t-430.5 -139.5q-260 0 -382 137.5t-82 389.5z" />
    <glyph glyph-name="umacron" unicode="&#x16b;" horiz-adv-x="1083" 
d="M1088 1238h-711l16 98h711zM164 344l101 637h164l-96 -607q-45 -288 194 -288q142 0 237 96.5t118 239.5l88 559h158l-155 -981h-153l25 158q-29 -70 -130.5 -130.5t-244.5 -60.5q-164 0 -249 98t-57 279z" />
    <glyph glyph-name="Uring" unicode="&#x16e;" horiz-adv-x="1364" 
d="M661 1671q15 99 106.5 168t213.5 69q123 0 192.5 -68.5t54.5 -168.5q-16 -101 -108 -170.5t-214 -69.5q-118 0 -189.5 70t-55.5 170zM210 494l138 871h166l-137 -868q-31 -198 56 -301t261 -103q177 0 298 105t152 299l137 868h167l-138 -871q-39 -248 -205.5 -387.5
t-430.5 -139.5q-260 0 -382 137.5t-82 389.5zM776 1671q-10 -62 31.5 -104t113.5 -42t125.5 41t63.5 105q9 62 -30.5 103t-113.5 41q-73 0 -127 -42t-63 -102z" />
    <glyph glyph-name="uring" unicode="&#x16f;" horiz-adv-x="1083" 
d="M483 1383q16 100 107 168t214 68q124 0 194 -68t54 -168t-109 -170t-214 -70q-118 0 -190 70t-56 170zM164 344l101 637h164l-96 -607q-45 -288 194 -288q142 0 237 96.5t118 239.5l88 559h158l-155 -981h-153l25 158q-29 -70 -130.5 -130.5t-244.5 -60.5q-164 0 -249 98
t-57 279zM598 1383q-10 -61 32 -103t114 -42q74 0 127 40.5t63 104.5q10 62 -30 103t-114 41q-73 0 -127.5 -42t-64.5 -102z" />
    <glyph glyph-name="Uhungarumlaut" unicode="&#x170;" horiz-adv-x="1364" 
d="M210 494l138 871h166l-137 -868q-31 -198 56 -301t261 -103q177 0 298 105t152 299l137 868h167l-138 -871q-39 -248 -205.5 -387.5t-430.5 -139.5q-260 0 -382 137.5t-82 389.5zM613 1519l271 328h196l-324 -328h-143zM937 1519l270 328h196l-323 -328h-143z" />
    <glyph glyph-name="uhungarumlaut" unicode="&#x171;" horiz-adv-x="1071" 
d="M164 344l101 637h164l-96 -607q-45 -288 194 -288q142 0 237 96.5t118 239.5l88 559h158l-155 -981h-153l25 158q-29 -70 -130.5 -130.5t-244.5 -60.5q-164 0 -249 98t-57 279zM429 1163l270 327h198l-325 -327h-143zM754 1163l268 327h199l-325 -327h-142z" />
    <glyph glyph-name="Uogonek" unicode="&#x172;" horiz-adv-x="1364" 
d="M210 494l138 871h166l-137 -868q-31 -198 56 -301t261 -103q177 0 298 105t152 299l137 868h167l-138 -871q-35 -223 -174.5 -359.5t-361.5 -161.5q-198 -106 -210 -182q-6 -35 17 -53t73 -18q49 0 136 23l-15 -94q-72 -25 -168 -25q-103 0 -152.5 37.5t-38.5 104.5
q8 53 62 106.5t131 96.5q-228 17 -332 153t-67 372z" />
    <glyph glyph-name="uogonek" unicode="&#x173;" horiz-adv-x="1070" 
d="M164 344l101 637h164l-96 -607q-45 -288 194 -288q142 0 237 96.5t118 239.5l88 559h158l-154 -975h5l-6 -3v-3h-6q-245 -123 -258 -207q-5 -36 17 -54t71 -18q51 0 136 24l-15 -94q-75 -24 -168 -24q-102 0 -152.5 37t-39.5 104q10 65 87 129.5t176 108.5l24 152
q-29 -70 -130.5 -130.5t-244.5 -60.5q-164 0 -249 98t-57 279z" />
    <glyph glyph-name="Wcircumflex" unicode="&#x174;" horiz-adv-x="1761" 
d="M708 1517l387 302h144l296 -302h-173l-207 222l-275 -222h-172zM219 1365h183l83 -1201h13l507 1201h178l131 -1201h9l469 1201h182l-582 -1365h-194l-126 1180h-9l-500 -1180h-195z" />
    <glyph glyph-name="wcircumflex" unicode="&#x175;" horiz-adv-x="1528" 
d="M532 1163l387 302h144l296 -302h-172l-208 222l-276 -222h-171zM177 981h181l88 -852h9l369 852h190l100 -852h9l358 852h180l-464 -981h-201l-96 831h-8l-359 -831h-202z" />
    <glyph glyph-name="Ycircumflex" unicode="&#x176;" horiz-adv-x="1273" 
d="M465 1517l388 302h144l295 -302h-172l-208 222l-275 -222h-172zM220 1365h201l325 -673h4l537 673h198l-673 -803l-89 -562h-167l89 562z" />
    <glyph glyph-name="ycircumflex" unicode="&#x177;" horiz-adv-x="1059" 
d="M310 1163l387 302h144l296 -302h-173l-207 222l-275 -222h-172zM79 -428l19 116h38q82 0 143 41.5t118 143.5l60 114l-280 994h187l195 -823h9l441 823h183l-663 -1145q-85 -144 -175.5 -204t-212.5 -60h-62z" />
    <glyph glyph-name="Ydieresis" unicode="&#x178;" horiz-adv-x="1273" 
d="M561 1577l28 176h214l-28 -176h-214zM220 1365h201l325 -673h4l537 673h198l-673 -803l-89 -562h-167l89 562zM1000 1577l28 176h209l-28 -176h-209z" />
    <glyph glyph-name="Zacute" unicode="&#x179;" horiz-adv-x="1246" 
d="M74 0l17 107l1055 1134h-809l19 124h1013l-17 -109l-1061 -1133h900l-19 -123h-1098zM708 1517l286 318h209l-354 -318h-141z" />
    <glyph glyph-name="zacute" unicode="&#x17a;" horiz-adv-x="1014" 
d="M954 0h-876l15 95l773 767h-593l18 119h800l-14 -90l-778 -772h674zM551 1163l286 319h209l-354 -319h-141z" />
    <glyph glyph-name="Zdotaccent" unicode="&#x17b;" horiz-adv-x="1246" 
d="M74 0l17 107l1055 1134h-809l19 124h1013l-17 -109l-1061 -1133h900l-19 -123h-1098zM793 1577l28 177h213l-28 -177h-213z" />
    <glyph glyph-name="zdotaccent" unicode="&#x17c;" horiz-adv-x="1014" 
d="M954 0h-876l15 95l773 767h-593l18 119h800l-14 -90l-778 -772h674zM618 1226l29 180h214l-29 -180h-214z" />
    <glyph glyph-name="Zcaron" unicode="&#x17d;" horiz-adv-x="1246" 
d="M74 0l17 107l1055 1134h-809l19 124h1013l-17 -109l-1061 -1133h900l-19 -123h-1098zM533 1812h163l201 -214l273 214h164l-379 -295h-144z" />
    <glyph glyph-name="zcaron" unicode="&#x17e;" horiz-adv-x="1014" 
d="M954 0h-876l15 95l773 767h-593l18 119h800l-14 -90l-778 -772h674zM372 1457h163l200 -212l273 212h163l-378 -294h-143z" />
    <glyph glyph-name="uni018F" unicode="&#x18f;" horiz-adv-x="1453" 
d="M186 632q7 48 19 109h1101q27 252 -76 392.5t-329 140.5q-264 0 -458 -209l-133 50q103 135 263 208.5t350 73.5q161 0 279 -52t183.5 -146t89.5 -226.5t-4 -292.5q-53 -329 -264.5 -521t-503.5 -192q-205 0 -334 96q-245 181 -183 569zM351 575q-21 -186 51 -324
q39 -76 122 -118t203 -42q174 0 335 118q83 60 143 167t84 240h-933q-1 -6 -3 -22z" />
    <glyph glyph-name="florin" unicode="&#x192;" horiz-adv-x="863" 
d="M79 -489q-32 0 -72 4q-23 3 -41 3l-8 1l-17 7l-29 31l19 121q91 -12 166 -12q107 0 159.5 52.5t72.5 181.5l145 912h-233l24 153h233l21 131q23 149 137.5 226t283.5 77h163l-25 -154h-158q-106 0 -151.5 -34.5t-59.5 -126.5l-19 -119h310l-24 -153h-310l-146 -918
q-29 -185 -142 -284t-299 -99z" />
    <glyph glyph-name="uni0218" unicode="&#x218;" horiz-adv-x="1256" 
d="M510 -460h-117l161 345h185zM109 257l160 48q107 -212 399 -212q163 0 275.5 70t131.5 188q18 122 -91 189q-55 33 -103 52t-147 50q-78 23 -99 31q-40 12 -100.5 35t-87.5 40q-105 63 -131 115q-44 82 -29 177q26 163 182 260t393 97q175 0 299 -70.5t167 -183.5
l-148 -45q-96 176 -342 176q-160 0 -262 -63t-119 -171q-7 -43 9.5 -85t45.5 -68q25 -24 90 -53q77 -35 194 -70q16 -4 25 -7q23 -7 29 -10q101 -30 164.5 -57.5t127.5 -71.5q129 -92 103 -261q-29 -182 -190.5 -286t-409.5 -104q-209 0 -345.5 76.5t-190.5 213.5z" />
    <glyph glyph-name="uni0219" unicode="&#x219;" horiz-adv-x="1006" 
d="M357 -460h-116l161 345h184zM91 193l129 62q94 -169 305 -169q128 0 208.5 41t92.5 115q9 56 -41 104q-19 17 -71 38q-50 20 -203 64q-134 41 -216 95q-105 67 -85 196q20 123 144.5 198.5t316.5 75.5q133 0 238.5 -61.5t144.5 -151.5l-119 -61q-35 67 -111 111.5
t-171 44.5q-124 0 -198 -42.5t-85 -115.5q-14 -85 80 -135q15 -8 30.5 -15t26.5 -11.5t31 -11.5t29 -10t37 -11.5t40 -12.5q123 -33 200 -70q51 -26 84 -54q34 -30 52 -73t10 -91q-18 -120 -150 -197.5t-334 -77.5q-148 0 -255.5 59t-159.5 167z" />
    <glyph glyph-name="uni021A" unicode="&#x21a;" horiz-adv-x="1211" 
d="M449 -460h-115l161 345h184zM247 1241l19 124h1111l-19 -124h-471l-197 -1241h-168l197 1241h-472z" />
    <glyph glyph-name="uni021B" unicode="&#x21b;" horiz-adv-x="699" 
d="M304 -460h-117l161 345h184zM153 862l18 119h194l50 313h162l-50 -313h295l-18 -119h-295l-92 -575q-14 -89 19.5 -127.5t121.5 -38.5h128l-19 -121h-150q-307 0 -263 275l93 587h-194z" />
    <glyph glyph-name="uni0237" unicode="&#x237;" horiz-adv-x="543" 
d="M-107 -428l19 118h48q186 0 222 226l168 1065h160l-169 -1072q-26 -165 -123 -251t-251 -86h-74z" />
    <glyph glyph-name="uni0259" unicode="&#x259;" horiz-adv-x="1144" 
d="M146 464q12 64 14 72h830q24 152 -55 255.5t-241 103.5q-107 0 -197.5 -45t-145.5 -119l-129 37q75 112 200 178.5t293 66.5q235 0 350 -146t77 -384q-36 -230 -199 -373t-386 -143q-221 0 -333.5 138t-77.5 359zM303 428q-23 -147 51.5 -244.5t221.5 -97.5
q146 0 255 97.5t142 244.5h-670z" />
    <glyph glyph-name="Wgrave" unicode="&#x1e80;" horiz-adv-x="1761" 
d="M1122 1517l-249 318h209l183 -318h-143zM219 1365h183l83 -1201h13l507 1201h178l131 -1201h9l469 1201h182l-582 -1365h-194l-126 1180h-9l-500 -1180h-195z" />
    <glyph glyph-name="wgrave" unicode="&#x1e81;" horiz-adv-x="1528" 
d="M946 1161l-250 319h210l183 -319h-143zM177 981h181l88 -852h9l369 852h190l100 -852h9l358 852h180l-464 -981h-201l-96 831h-8l-359 -831h-202z" />
    <glyph glyph-name="Wacute" unicode="&#x1e82;" horiz-adv-x="1761" 
d="M1078 1517h-140l285 318h210zM219 1365h183l83 -1201h13l507 1201h178l131 -1201h9l469 1201h182l-582 -1365h-194l-126 1180h-9l-500 -1180h-195z" />
    <glyph glyph-name="wacute" unicode="&#x1e83;" horiz-adv-x="1528" 
d="M921 1161h-141l285 319h210zM177 981h181l88 -852h9l369 852h190l100 -852h9l358 852h180l-464 -981h-201l-96 831h-8l-359 -831h-202z" />
    <glyph glyph-name="Wdieresis" unicode="&#x1e84;" horiz-adv-x="1761" 
d="M1017 1577h-212l28 176h212zM219 1365h183l83 -1201h13l507 1201h178l131 -1201h9l469 1201h182l-582 -1365h-194l-126 1180h-9l-500 -1180h-195zM1241 1577l28 176h211l-28 -176h-211z" />
    <glyph glyph-name="wdieresis" unicode="&#x1e85;" horiz-adv-x="1528" 
d="M839 1226h-210l28 176h210zM177 981h181l88 -852h9l369 852h190l100 -852h9l358 852h180l-464 -981h-201l-96 831h-8l-359 -831h-202zM1065 1226l28 176h209l-28 -176h-209z" />
    <glyph glyph-name="Ygrave" unicode="&#x1ef2;" horiz-adv-x="1273" 
d="M866 1515l-252 318h210l184 -318h-142zM220 1365h201l325 -673h4l537 673h198l-673 -803l-89 -562h-167l89 562z" />
    <glyph glyph-name="ygrave" unicode="&#x1ef3;" horiz-adv-x="1059" 
d="M688 1161l-250 319h210l184 -319h-144zM79 -428l19 116h38q82 0 143 41.5t118 143.5l60 114l-280 994h187l195 -823h9l441 823h183l-663 -1145q-85 -144 -175.5 -204t-212.5 -60h-62z" />
    <glyph glyph-name="uni2010" unicode="&#x2010;" horiz-adv-x="674" 
d="M78 541l24 151h688l-24 -151h-688z" />
    <glyph glyph-name="endash" unicode="&#x2013;" horiz-adv-x="1119" 
d="M86 541l24 151h1119l-24 -151h-1119z" />
    <glyph glyph-name="emdash" unicode="&#x2014;" horiz-adv-x="2396" 
d="M86 541l24 151h2396l-24 -151h-2396z" />
    <glyph glyph-name="uni2015" unicode="&#x2015;" horiz-adv-x="2270" 
d="M86 541l24 151h2270l-24 -151h-2270z" />
    <glyph glyph-name="quoteleft" unicode="&#x2018;" horiz-adv-x="619" 
d="M287 1108q27 167 100 281t232 209l126 -96q-114 -71 -164 -136t-73 -168h123l-40 -251h-329z" />
    <glyph glyph-name="quoteright" unicode="&#x2019;" horiz-adv-x="620" 
d="M262 948q113 71 163.5 136t71.5 167h-122l40 251h331l-26 -162q-27 -167 -100 -279t-232 -208z" />
    <glyph glyph-name="quotesinglbase" unicode="&#x201a;" horiz-adv-x="623" 
d="M56 -355q115 73 166 138.5t72 168.5h-122l40 250h331l-26 -161q-26 -166 -99.5 -279.5t-231.5 -208.5z" />
    <glyph glyph-name="quotereversed" unicode="&#x201b;" horiz-adv-x="619" 
d="M501 853q-129 95 -166 207.5t-11 279.5l26 162h329l-40 -251h-123q-9 -103 20.5 -168t120.5 -135z" />
    <glyph glyph-name="quotedblleft" unicode="&#x201c;" horiz-adv-x="1091" 
d="M287 1103q27 173 104.5 297t232.5 212l127 -96q-98 -54 -156 -130.5t-85 -189.5h123l-39 -249h-332zM730 947l25 156q26 167 101 284.5t233 210.5l128 -94q-113 -74 -163.5 -140t-72.5 -168h120l-39 -249h-332z" />
    <glyph glyph-name="quotedblright" unicode="&#x201d;" horiz-adv-x="1087" 
d="M728 934q110 70 161 139t74 178h-124l40 251h334l-25 -157q-28 -174 -105.5 -297.5t-234.5 -211.5zM262 947q111 69 159.5 134t71.5 170h-124l40 251h336l-25 -157q-27 -170 -103 -288t-235 -208z" />
    <glyph glyph-name="quotedblbase" unicode="&#x201e;" 
d="M519 -367q111 70 163 141t76 180h-121l39 248h334l-25 -155q-27 -172 -104 -294.5t-233 -213.5zM56 -355q112 71 162 137t73 172h-124l39 248h336l-25 -155q-26 -166 -101 -283t-233 -212z" />
    <glyph glyph-name="uni201F" unicode="&#x201f;" 
d="M502 836q-127 88 -166 212t-11 297l25 157h332l-40 -251h-123q-11 -109 18 -178t117 -139zM793 1345l25 157h332l-40 -251h-120q-11 -102 19 -167.5t119 -137.5l-158 -97q-129 90 -166.5 207.5t-10.5 288.5z" />
    <glyph glyph-name="bullet" unicode="&#x2022;" horiz-adv-x="933" 
d="M268 380l75 471h613l-75 -471h-613z" />
    <glyph glyph-name="ellipsis" unicode="&#x2026;" horiz-adv-x="2133" 
d="M189 488l41 256h318l-41 -256h-318zM994 488l41 256h318l-41 -256h-318zM1799 488l41 256h317l-41 -256h-317z" />
    <glyph glyph-name="fraction" unicode="&#x2044;" horiz-adv-x="404" 
d="M-210 -10h-154l1199 1413h153z" />
    <glyph glyph-name="uni20B9" unicode="&#x20b9;" horiz-adv-x="1371" 
d="M875 -54l-673 545l21 134h124q197 0 325 57t176 169h-697l79 153h640q-12 79 -76.5 131t-171.5 52h-424l88 156h1290l-79 -156h-501q68 -82 71 -183h455l-78 -153h-402q-52 -150 -195 -244.5t-357 -120.5l659 -540h-274z" />
    <glyph glyph-name="trademark" unicode="&#x2122;" horiz-adv-x="1171" 
d="M243 1320l11 72h452l-11 -72h-187l-74 -465h-78l74 465h-187zM693 855l85 537h74l139 -456l279 456h75l-85 -537h-75l60 377l-231 -377h-73l-115 371l-59 -371h-74z" />
    <glyph glyph-name="arrowleft" unicode="&#x2190;" horiz-adv-x="2449" 
d="M932 293l-675 356l788 355l76 -132l-225 -144h1460l-25 -161h-1460l179 -143z" />
    <glyph glyph-name="arrowup" unicode="&#x2191;" horiz-adv-x="1485" 
d="M621 -180l198 1246l-225 -162l-164 67l560 561l373 -561l-176 -67l-176 162l-198 -1246h-192z" />
    <glyph glyph-name="arrowright" unicode="&#x2192;" horiz-adv-x="2447" 
d="M1607 293l-75 131l224 143h-1458l25 161h1458l-178 144l117 132l676 -355z" />
    <glyph glyph-name="arrowdown" unicode="&#x2193;" horiz-adv-x="1485" 
d="M708 -244l-382 562l186 68l173 -164l198 1246h192l-198 -1246l228 164l154 -68z" />
    <glyph glyph-name="arrowboth" unicode="&#x2194;" horiz-adv-x="2615" 
d="M857 295l-600 354l712 354l81 -122l-211 -153h1167l-161 153l121 122l598 -354l-710 -354l-83 121l210 151h-1167l162 -151z" />
    <glyph glyph-name="arrowupdn" unicode="&#x2195;" horiz-adv-x="1495" 
d="M708 -232l-393 468l159 82l203 -151l152 956l-251 -152l-133 81l541 470l400 -470l-162 -81l-203 152l-152 -956l251 151l136 -82z" />
    <glyph glyph-name="uni2215" unicode="&#x2215;" horiz-adv-x="1415" 
d="M20 -289l1396 1811h201l-1399 -1811h-198z" />
    <glyph glyph-name="asteriskmath" unicode="&#x2217;" horiz-adv-x="1528" 
d="M692 122l67 422l-485 -248l-105 111l543 279l-454 279l139 110l411 -249l66 419h180l-66 -421l492 254l91 -116l-537 -276l454 -278l-138 -113l-406 247l-67 -420h-185z" />
    <glyph glyph-name="uniF8FF" unicode="&#xf8ff;" horiz-adv-x="1542" 
d="M758 60q-151 0 -279.5 75.5t-203 204.5t-74.5 280q0 152 75 280.5t203.5 203t280.5 74.5q151 0 279.5 -75t203.5 -203.5t75 -279.5q0 -152 -74.5 -281t-203.5 -204t-282 -75zM200 -164h59q50 0 71 34q10 16 10 39q0 47 -37 64q-18 9 -44 9h-59v-146zM235 -137v93h22
q31 0 43 -20q5 -9 5 -27q0 -32 -22 -42q-8 -4 -26 -4h-22zM268 621q0 -205 144 -350t348 -145q203 0 347.5 144.5t144.5 347.5q0 100 -39 191.5t-104.5 157.5t-156 105t-190.5 40q-134 0 -248 -65.5t-180 -178.5t-66 -247zM352 -109q0 -36 30 -50q16 -7 33 -7q31 0 45 16
q8 7 10 17l-31 3q-5 -9 -14 -12q-3 -1 -10 -1q-18 0 -25 13q-3 5 -3 13h85v8q0 27 -18 42q-16 14 -42 14q-36 0 -52 -27q-8 -13 -8 -29zM387 -98q2 13 12 19q4 3 14 3q17 0 23 -12l3 -10h-52zM442 719q10 -2 12 -4q52 -21 98 -27q41 -3 72 2q43 11 47 12q3 0 8.5 2.5
t7.5 3.5q-5 2 -16.5 8t-17 9t-13 8.5t-13.5 12.5h19q39 0 75 19q65 40 136 61q24 8 58 11q4 0 19.5 1t23.5 0q54 -2 89 -33q10 -11 28 -33v-2l-6 2q-45 17 -83 3.5t-62 -53.5q-7 -13 -25 -55q-9 -21 -27 -63.5t-20 -48.5q-33 -64 -65 -101q-27 -33 -66 -58q-45 -34 -116 -55
h-4h-1l24 22q12 11 25 44q41 116 45 127q24 73 57 131v3q-2 -4 -11 -13q-8 -10 -10 -12q-23 -36 -31 -57q-2 -6 -8 -6q-99 3 -177 67q-40 38 -59 55q-1 1 -5 7t-8 10zM481 -132q5 -34 56 -34q35 0 48 18q7 9 7 18q0 24 -36 30l-22 3q-16 4 -16 12q0 11 19 11q17 0 21 -14
l31 3q-5 32 -53 32q-33 0 -46 -16q-6 -7 -6 -18q0 -25 36 -31l21 -4q16 -3 16 -11q0 -11 -20 -11q-18 0 -23 14zM605 -25q0 -15 19 -15q18 0 18 15t-18 15q-19 0 -19 -15zM607 -164h34v109h-34v-109zM656 -109q0 -35 25 -48q12 -5 25 -5q18 0 29 9q5 5 7 8h1v-19
q0 -21 -25 -21q-16 0 -21 6l-6 6l-31 -3q7 -31 57 -31q37 0 52 19q9 9 9 23v110h-35v-18h-1q-6 12 -18 17q-8 3 -18 3q-30 0 -43 -25q-7 -11 -7 -31zM691 -109q0 21 12 28q8 4 15 4q16 0 22 -15q3 -7 3 -17q0 -30 -25 -30q-18 0 -24 14q-3 6 -3 16zM798 -164h34v64
q0 13 11 19q6 3 13 3q21 0 21 -22v-64h35v70q0 26 -20 36q-10 5 -23 5q-27 0 -37 -21v19h-34v-109zM927 -109q0 -34 28 -50q17 -7 33 -7q38 0 54 27q7 13 7 30q0 33 -28 49q-13 7 -33 7q-38 0 -54 -27q-7 -14 -7 -29zM962 -109q0 21 12 28q7 5 14 5q16 0 24 -16q3 -15 3 -17
q0 -20 -12 -29q-5 -4 -15 -4q-16 0 -23 15q-3 9 -3 18zM1051 -55l43 -109h39l43 109h-36l-26 -78h-1l-26 78h-36zM1177 -133q0 -21 21 -29q8 -4 21 -4q18 0 27 9q4 2 9 9v-16h33v74q0 20 -15 28q-17 9 -37 9q-30 0 -45 -15q-7 -6 -10 -17l32 -3q5 13 22 13q19 0 19 -14v-1
q0 -7 -13 -7l-17 -3q-19 0 -32 -8q-15 -8 -15 -25zM1210 -133q0 9 9 12q5 3 12 3q19 3 23 5v-11q0 -13 -12 -18q-6 -3 -14 -3q-18 0 -18 12zM1267 -16q0 16 11 26.5t27 10.5t26.5 -10.5t10.5 -26.5t-10.5 -27t-26.5 -11t-27 11t-11 27zM1279 -16q0 -11 7.5 -19t18.5 -8
t18.5 8t7.5 19t-7.5 18.5t-18.5 7.5t-18.5 -7.5t-7.5 -18.5zM1292 -33v35h14q12 0 12 -11q0 -5 -5 -10l8 -14h-10l-6 11h-5v-11h-8zM1300 -13h6q5 0 5 3t-5 3h-6v-6z" />
    <glyph glyph-name="_Designova" horiz-adv-x="1692" 
d="M844 -121q-174 0 -322.5 87t-235 235.5t-86.5 323.5q1 131 52 250.5t137.5 205.5t206 137t250.5 51q175 0 323.5 -86t235.5 -234.5t87 -323.5q0 -176 -87 -324.5t-236 -235t-325 -86.5zM278 525q0 -116 45 -221.5t120.5 -181.5t181 -121t221.5 -45q154 0 285 76t207 207
t76 285q0 116 -45 221.5t-120.5 181.5t-180.5 121t-221 45t-221 -45t-181.5 -120.5t-121.5 -181t-45 -221.5zM480 638q7 0 13 -4q58 -22 115 -31q45 -5 81 3q29 4 53 14q5 0 11.5 3t8.5 4q-5 3 -22.5 11.5t-27.5 15.5t-19 17h21q39 0 86 20q85 53 158 73q37 10 66 10
q6 0 24.5 1.5t26.5 0.5q67 -4 102 -39q6 -5 33 -37v-2q-3 2 -7 2q-53 20 -95.5 4.5t-71.5 -59.5q-5 -9 -10 -20.5t-11 -25t-9 -21.5q-6 -14 -25 -59t-30 -68q-36 -74 -74 -119q-20 -27 -74 -66q-52 -38 -136 -63h-7l28 24q18 17 30 51q7 20 25 71t27 78q31 90 65 150v1
q-3 -3 -11 -13q-9 -7 -11 -16q-23 -27 -38 -65q-3 -5 -9 -5q-117 5 -204 78q-10 10 -32.5 31t-33.5 32q-12 14 -16 18z" />
    <glyph glyph-name="_Origin" horiz-adv-x="2227" 
d="M136 929v50h1955v-50h-1955zM136 110v50h1955v-50h-1955zM214 311v177h42v-177h-42zM246 608v177h148v-32h-107v-39h97v-31h-97v-42h107v-33h-148zM284 311v177h34l89 -107v107h40v-177h-33l-88 109v-109h-42zM424 608v177h34l88 -107v107h40v-177h-33l-88 109v-109h-41z
M540 311v177h87q72 0 72 -45q0 -28 -26 -40q3 0 3 -2q28 -12 28 -42q0 -48 -71 -48h-93zM582 342h48q32 0 32 22t-32 22h-48v-44zM582 419h42q33 0 33 20q0 22 -33 22h-42v-42zM615 753v32h156v-32h-57v-145h-41v145h-58zM724 311v177h148v-33h-107v-38h96v-31h-96v-41h105
v-34h-146zM789 785h44l40 -124l42 124h38l40 -126l42 126h39l-57 -177h-45l-39 121l-41 -121h-43zM900 311v177h81q28 0 42 -6q36 -19 36 -57q0 -21 -10 -35q-15 -18 -29 -23l37 -56h-43l-35 50h-37v-50h-42zM942 394h37q38 0 38 31q0 30 -38 30h-37v-61zM1079 311v177h40
v-143h106v-34h-146zM1082 697q0 39 28 65q26 26 69 26t69 -26q28 -25 28 -65q0 -39 -28 -65q-26 -27 -68 -27q-44 0 -70 27q-28 28 -28 65zM1124 697q0 -25 15.5 -40.5t39.5 -15.5t39.5 15.5t15.5 40.5t-15.5 41.5t-39.5 16.5t-39.5 -16.5t-15.5 -41.5zM1254 311v177h41
v-177h-41zM1299 608v177h81q28 0 41 -6q36 -17 36 -57q0 -21 -10 -35q-9 -15 -29 -23l39 -56h-45l-33 50h-39v-50h-41zM1324 311v177h35l87 -107v107h42v-177h-34l-89 109v-109h-41zM1340 691h37q38 0 38 31t-38 31h-37v-62zM1477 608v177h148v-32h-107v-39h96v-31h-96v-75
h-41zM1514 335q0 24 25 24q10 0 17 -7t7 -17q0 -11 -7 -25l-14 -38h-26l12 41q-14 5 -14 22zM1641 608v177h147v-32h-106v-39h95v-31h-95v-42h106v-33h-147zM1664 311v177h80q30 0 52 -11q46 -21 46 -77q0 -28 -12 -47q-23 -42 -86 -42h-80zM1706 345h37q17 0 31 7
q26 14 26 48q0 21 -6 29q-14 26 -51 26h-37v-110zM1818 608v177h33l90 -107v107h40v-177h-34l-89 109v-109h-40zM1866 311v177h147v-33h-107v-38h97v-31h-97v-41h106v-34h-146z" />
    <glyph glyph-name="_VendorID" horiz-adv-x="1116" 
d="M73 -4v1187h974v-1187h-974zM76 -95q0 13 7.5 20.5t18.5 7.5q9 0 12 -3l4 -5v26h13v-72h-13v9l-4 -7q-8 -5 -15 -5q-23 0 -23 29zM90 -95q0 -17 13 -17q15 0 15 17v1q0 18 -13 18q-15 0 -15 -19zM126 47h869v1084h-869v-1084zM141 -95q0 13 7.5 20.5t19.5 7.5
q11 0 18.5 -7.5t7.5 -19.5q0 -2 -2 -5h-37q1 -13 13 -13q10 0 12 9h12q-4 -21 -24 -21q-27 0 -27 29zM155 -91h25q-3 15 -12 15q-12 0 -13 -15zM198 -106h14q3 -9 9 -9q9 0 9 7q0 3 -12 9q-18 5 -18 16q0 16 21 16t21 -16h-14q-1 7 -7 7q-7 0 -7 -6q0 -4 12 -9q17 -5 17 -15
q0 -18 -22 -18q-20 0 -23 18zM240 297q0 59 46 125l97 137h64l-84 -120q11 3 23 3q62 0 102.5 -41.5t40.5 -103.5q0 -61 -41.5 -103.5t-101.5 -42.5q-61 0 -103.5 42.5t-42.5 103.5zM240 768q0 56 46 123l97 142h64l-84 -122q7 2 23 2q63 0 103 -41t40 -104
q0 -61 -41 -102.5t-102 -41.5t-103.5 42t-42.5 102zM251 -56q0 7 8 7t8 -7q0 -8 -8 -8t-8 8zM252 -121v54h14v-54h-14zM276 -95q0 28 26 28q9 0 12 -3l4 -5v8h14v-41q0 -8 -2 -11q0 -24 -27 -24q-26 0 -26 18v1h14v-1q0 -8 12 -8q11 0 15 13v8l-4 -7q-8 -2 -14 -2
q-24 0 -24 26zM291 -94q0 -18 12 -18q15 0 15 17v1q0 18 -15 18q-12 0 -12 -18zM294 297q0 -42 25.5 -68t66.5 -26q39 0 64.5 26t25.5 68q0 40 -25.5 65t-64.5 25q-41 0 -66.5 -25t-25.5 -65zM294 768q0 -41 25.5 -67t66.5 -26q39 0 64.5 26.5t25.5 66.5t-25.5 66t-64.5 26
q-41 0 -66.5 -25t-25.5 -67zM343 -121v54h14v-10l4 7q5 3 13 3q17 0 20 -15q1 -3 1 -9v-30h-15v34q0 11 -10 11q-13 0 -13 -21v-24h-14zM402 -95q0 13 7.5 20.5t19.5 7.5q28 0 28 -28q0 -29 -28 -29q-12 0 -19.5 8t-7.5 21zM416 -95q0 -17 13 -17q15 0 15 17q0 19 -15 19
q-13 0 -13 -19zM462 -67h14l14 -45l13 45h14l-19 -54h-18zM522 -106q0 16 30 16h3v7q0 7 -9 7q-11 0 -11 -9h-13q0 18 24 18q19 0 21 -15v-39h-12v6l-3 -5q-8 -4 -14 -4q-16 0 -16 18zM535 -106q0 -6 8 -6q12 0 12 9v6q-20 2 -20 -9zM576 -78v9h6v8q0 15 19 15h6v-11
q-11 2 -11 -5v-7h11v-9h-11v-43h-14v43h-6zM589 297q0 62 44 125l97 137h66l-86 -120q10 3 25 3q61 0 102 -41.5t41 -103.5q0 -61 -41.5 -103.5t-101.5 -42.5q-61 0 -103.5 42.5t-42.5 103.5zM589 768q0 57 44 123l97 142h66l-87 -122q8 2 26 2q61 0 102 -41.5t41 -103.5
q0 -61 -41.5 -102.5t-101.5 -41.5q-61 0 -103.5 41.5t-42.5 102.5zM611 -95q0 28 28 28q27 0 27 -28q0 -29 -27 -29q-28 0 -28 29zM625 -95q0 -17 14 -17q13 0 13 17q0 19 -13 19q-14 0 -14 -19zM642 297q0 -42 26 -68t67 -26q38 0 62.5 26t24.5 68q0 40 -24.5 65t-62.5 25
q-41 0 -67 -25t-26 -65zM642 768q0 -41 26 -67t67 -26q38 0 62.5 26t24.5 67q0 40 -24.5 66t-62.5 26q-41 0 -67 -25.5t-26 -66.5zM675 -121v54h12v-10l6 7q4 3 13 3q16 0 19 -15v-39h-14v34q-4 11 -9 11q-15 0 -15 -21v-24h-12zM732 -78v9h8v13h14v-13h10v-9h-10v-28
q2 -10 9 -6v-10h-8q-15 0 -15 10v34h-8zM768 -106h15q1 -9 10 -9q8 0 8 7q0 3 -12 9q-17 5 -17 16q0 16 20 16q19 0 24 -16h-16q0 7 -9 7q-5 0 -5 -6q0 -5 11 -9q19 -6 19 -15q0 -18 -23 -18q-21 0 -25 18zM820 -116q0 10 9 10t9 -10q0 -8 -9 -8t-9 8zM844 -95q0 13 8 20.5
t18 7.5q25 0 25 -20h-13q-3 11 -12 11q-12 0 -12 -19q0 -17 12 -17q10 0 12 9h13q-1 -21 -25 -21q-26 0 -26 29zM900 -95q0 28 29 28q26 0 26 -28q0 -29 -26 -29q-29 0 -29 29zM914 -95q0 -17 15 -17q13 0 13 17q0 19 -13 19q-15 0 -15 -19zM965 -121v54h14v-9l5 6q3 3 9 3
q13 0 18 -10l5 7q3 3 11 3q17 0 17 -12q1 -4 1 -12v-30h-13v27q0 2 -0.5 5t-0.5 4q0 9 -10 9q-9 0 -9 -18v-27h-13v36q-5 9 -10 9q-10 0 -10 -18v-27h-14z" />
    </font>
</defs>
</svg>
