<?xml version="1.0" standalone="no"?>
<!DOCTYPE svg PUBLIC "-//W3C//DTD SVG 1.1//EN" "http://www.w3.org/Graphics/SVG/1.1/DTD/svg11.dtd" >
<svg xmlns="http://www.w3.org/2000/svg" xmlns:xlink="http://www.w3.org/1999/xlink" version="1.1">
<metadata>
Created by FontForge 20170731 at Wed Nov 15 16:19:20 2023
 By Aleksey,,,
Copyright (c) 2023 by Designova. All rights reserved.
</metadata>
<defs>
<font id="LinearGrotesk-Thin" horiz-adv-x="1206" >
  <font-face 
    font-family="Linear Grotesk Thin"
    font-weight="100"
    font-stretch="normal"
    units-per-em="2048"
    panose-1="0 0 0 0 0 0 0 0 0 0"
    ascent="1638"
    descent="-410"
    x-height="956"
    cap-height="1352"
    bbox="-293 -457 2212 1890"
    underline-thickness="100"
    underline-position="-355"
    unicode-range="U+0020-F8FF"
  />
<missing-glyph horiz-adv-x="1425" 
d="M200 0v1388h1025v-1388h-1025zM285 154l377 540l-377 539v-1079zM335 82h755l-378 540zM335 1306l377 -541l378 541h-755zM761 694l376 -540v1079z" />
    <glyph glyph-name=".notdef" horiz-adv-x="1425" 
d="M200 0v1388h1025v-1388h-1025zM285 154l377 540l-377 539v-1079zM335 82h755l-378 540zM335 1306l377 -541l378 541h-755zM761 694l376 -540v1079z" />
    <glyph glyph-name=".null" horiz-adv-x="0" 
 />
    <glyph glyph-name="nonmarkingreturn" horiz-adv-x="682" 
 />
    <glyph glyph-name="space" unicode=" " horiz-adv-x="360" 
 />
    <glyph glyph-name="space" unicode="&#xa0;" horiz-adv-x="360" 
 />
    <glyph glyph-name="exclam" unicode="!" horiz-adv-x="596" 
d="M395 -16h-193v156h193v-156zM252 1354h90l-15 -965h-61z" />
    <glyph glyph-name="quotedbl" unicode="&#x22;" horiz-adv-x="1199" 
d="M707 1030h-64l202 506h129zM225 1030l203 506h128l-267 -506h-64z" />
    <glyph glyph-name="numbersign" unicode="#" horiz-adv-x="1384" 
d="M323 400h-297v43h303l75 429h-302v44h308l68 389h60l-65 -389h525l68 389h59l-64 -389h295v-44h-303l-75 -429h302v-43h-306l-69 -392h-66l69 392h-523l-68 -392h-62zM392 443h524l75 429h-524z" />
    <glyph glyph-name="dollar" unicode="$" horiz-adv-x="1212" 
d="M184 239q65 -81 189 -135t232 -54q189 0 299 67.5t110 205.5q0 50 -18 86q-16 45 -36 72.5t-64 54.5q-9 6 -26.5 17.5t-24.5 16t-21.5 13t-26 14t-29 12.5t-38.5 15q-26 8 -59 19.5t-36 12.5l-102 33q-188 58 -281.5 138t-93.5 211t115 220.5t298 91.5v155h70v-155
q112 -2 221.5 -56t154.5 -122l-57 -23q-133 151 -357 151q-173 0 -274.5 -73.5t-101.5 -190.5t88 -187.5t274 -128.5q81 -25 108.5 -34t68.5 -25t94 -40q75 -35 120 -73q44 -41 74 -98.5t30 -120.5q0 -156 -124 -240.5t-319 -88.5v-149h-70v149q-113 2 -240.5 59.5
t-202.5 150.5z" />
    <glyph glyph-name="percent" unicode="%" horiz-adv-x="2108" 
d="M1177 281q0 137 112 225.5t279 88.5q168 0 279.5 -88.5t111.5 -225.5q0 -138 -113 -227t-278 -89q-163 0 -277 89t-114 227zM149 1073q0 136 113.5 225.5t278.5 89.5q169 0 279.5 -88.5t110.5 -226.5t-112 -225t-278 -87q-165 0 -278.5 86.5t-113.5 225.5zM215 1073
q0 -114 96.5 -189t229.5 -75q134 0 229 74.5t95 189.5t-94.5 191t-229.5 76q-136 0 -231 -76t-95 -191zM416 -10l1203 1371h75l-1200 -1371h-78zM1245 281q0 -117 95 -192t228 -75t230 76.5t97 190.5q0 115 -94.5 189.5t-232.5 74.5q-137 0 -230 -74.5t-93 -189.5z" />
    <glyph glyph-name="ampersand" unicode="&#x26;" horiz-adv-x="1257" 
d="M1009 174q-163 -189 -445 -189q-212 0 -335.5 95t-123.5 258q0 130 84 230.5t287 213.5q-108 123 -150.5 194t-42.5 140q0 116 76.5 184t206.5 68q123 0 197.5 -65.5t74.5 -174.5q0 -101 -60.5 -182.5t-202.5 -174.5l434 -498q75 127 77 325h67q-3 -218 -106 -373
l189 -215h-83zM175 338q0 -137 103 -216t284 -79q133 0 238 45t171 130l-457 521q-188 -103 -263.5 -192.5t-75.5 -208.5zM352 1116q0 -54 34 -112t136 -173l15 -16q119 72 175 148t56 165q0 83 -55 132.5t-149 49.5q-96 0 -154 -52.5t-58 -141.5z" />
    <glyph glyph-name="quotesingle" unicode="'" horiz-adv-x="777" 
d="M290 1030h-65l201 506h127z" />
    <glyph glyph-name="parenleft" unicode="(" horiz-adv-x="765" 
d="M215 642q0 559 387 942l52 -22q-78 -87 -130.5 -161t-111.5 -185q-125 -238 -125 -574q0 -361 146 -605q69 -119 104.5 -168.5t116.5 -141.5l-52 -23q-387 387 -387 938z" />
    <glyph glyph-name="parenright" unicode=")" horiz-adv-x="766" 
d="M111 -273q9 10 27.5 31.5t24 28t19.5 22.5t20 24l18 24t21.5 30.5t23 34t29.5 44.5q62 99 97 184q36 95 62 228.5t26 263.5q0 336 -124 570q-57 109 -110.5 184.5t-133.5 165.5l51 22q388 -384 388 -942q0 -546 -388 -938z" />
    <glyph glyph-name="asterisk" unicode="*" horiz-adv-x="1298" 
d="M605 656l-492 141l28 56l482 -149l-15 391h85l-15 -391l484 149l23 -56l-490 -141l371 -344l-59 -41l-359 353l-352 -351l-60 39z" />
    <glyph glyph-name="plus" unicode="+" horiz-adv-x="1490" 
d="M715 640h-513v51h513v404h66v-404h507v-51h-507v-422h-66v422z" />
    <glyph glyph-name="comma" unicode="," horiz-adv-x="671" 
d="M196 -349h-63l201 504h125z" />
    <glyph glyph-name="hyphen" unicode="-" horiz-adv-x="1294" 
d="M1149 640h-1002v51h1002v-51z" />
    <glyph glyph-name="period" unicode="." horiz-adv-x="563" 
d="M377 0h-190v155h190v-155z" />
    <glyph glyph-name="slash" unicode="/" horiz-adv-x="823" 
d="M115 -124h-72l665 1586h71z" />
    <glyph glyph-name="zero" unicode="0" horiz-adv-x="1220" 
d="M194 677q0 -316 107.5 -489.5t309.5 -173.5q109 0 192 52.5t131 148.5q90 183 90 462q0 317 -107.5 489t-310.5 172q-199 0 -305.5 -169.5t-106.5 -491.5zM123 677q0 348 128.5 529.5t354.5 181.5q228 0 359.5 -182.5t131.5 -528.5q0 -289 -108 -494
q-55 -105 -152 -161.5t-226 -56.5q-232 0 -360 187.5t-128 524.5z" />
    <glyph glyph-name="one" unicode="1" horiz-adv-x="731" 
d="M462 1306l-349 -200v72l361 205h58v-1383h-72z" />
    <glyph glyph-name="two" unicode="2" horiz-adv-x="1257" 
d="M162 1077q114 311 487 311q201 0 327 -96.5t126 -265.5q0 -201 -258 -400q-324 -246 -443 -361q-121 -112 -155 -218h856v-47h-936q0 44 15 90q25 60 159 203q33 34 127 112t144 115l167 130q253 196 253 378q0 149 -104 229.5t-285 80.5q-160 0 -267 -73.5t-148 -199.5z
" />
    <glyph glyph-name="three" unicode="3" horiz-adv-x="1318" 
d="M226 216q67 -92 176 -147t242 -55q199 0 324.5 91.5t125.5 259.5q0 106 -63 182t-166.5 112.5t-235.5 36.5q-36 0 -74 -0.5t-40 -0.5v51q36 -3 105 -3q183 0 294.5 84t111.5 225q0 127 -105 206.5t-274 79.5q-246 0 -373 -214l-66 19q141 245 442 245q202 0 324 -95
t122 -239q0 -125 -85.5 -213t-213.5 -117q159 -23 264 -116.5t105 -242.5q0 -190 -142.5 -295t-378.5 -105q-312 0 -482 223z" />
    <glyph glyph-name="four" unicode="4" horiz-adv-x="1389" 
d="M125 341v48l786 987h79v-986h276v-49h-276v-368h-67v368h-798zM197 390h726v684q0 181 2 226h-4l-142 -184z" />
    <glyph glyph-name="five" unicode="5" horiz-adv-x="1227" 
d="M210 206q64 -88 167 -140t220 -52q198 0 316.5 106.5t118.5 268.5q0 170 -117 272t-313 102q-95 0 -196 -31t-170 -86l-39 11l84 695h718v-49h-655l-76 -579q158 88 358 88q210 0 343.5 -117t133.5 -306q0 -183 -137.5 -303.5t-368.5 -120.5q-144 0 -260 56.5t-186 160.5
z" />
    <glyph glyph-name="six" unicode="6" horiz-adv-x="1244" 
d="M211 409q0 -170 116.5 -282.5t303.5 -112.5q180 0 300 113.5t120 281.5q0 172 -121 286.5t-305 114.5q-178 0 -296 -116t-118 -285zM123 590q0 294 118 529q61 124 179.5 196.5t272.5 72.5q254 0 397 -205l-57 -23q-130 178 -340 178q-125 0 -222 -56t-150 -155
q-93 -173 -117 -384q-7 -66 -11 -180q39 135 156 214.5t289 79.5q212 0 347 -127.5t135 -319.5q0 -189 -134 -317t-348 -128q-203 0 -332 102q-99 77 -141 202t-42 321z" />
    <glyph glyph-name="seven" unicode="7" horiz-adv-x="1186" 
d="M1000 1301h-903v51h988v-43q-265 -367 -412.5 -660t-251.5 -676h-69q72 268 166 491.5t202.5 407.5t279.5 429z" />
    <glyph glyph-name="eight" unicode="8" horiz-adv-x="1273" 
d="M252 1048q0 -126 114.5 -210.5t267.5 -84.5q101 0 190 39t142.5 107.5t53.5 148.5q0 129 -111 209.5t-275 80.5q-168 0 -275 -83t-107 -207zM123 350q0 147 100 246t262 134q-139 36 -220.5 117t-81.5 205q0 140 128 238t323 98q194 0 324.5 -97.5t130.5 -238.5
q0 -121 -84.5 -204.5t-215.5 -117.5q163 -35 262 -135t99 -249q0 -163 -148 -272t-368 -109q-143 0 -259.5 48.5t-184 137t-67.5 199.5zM193 353q0 -145 127.5 -242t313.5 -97q192 0 319 96.5t127 242.5q0 151 -129.5 251.5t-316.5 100.5q-183 0 -312 -100t-129 -252z" />
    <glyph glyph-name="nine" unicode="9" horiz-adv-x="1232" 
d="M193 944q0 -174 122.5 -285t299.5 -111q171 0 293.5 113.5t122.5 280.5q0 169 -118 282.5t-298 113.5q-182 0 -302 -112t-120 -282zM123 942q0 195 136.5 320.5t355.5 125.5q183 0 306.5 -91t163.5 -239q23 -78 23 -310q0 -783 -536 -783q-144 0 -251 59.5t-167 155.5
l61 24q52 -87 147.5 -138.5t211.5 -51.5q229 0 345 185.5t122 559.5q-45 -109 -163 -185.5t-271 -76.5q-206 0 -345 124t-139 321z" />
    <glyph glyph-name="colon" unicode=":" horiz-adv-x="563" 
d="M377 185h-190v155h190v-155zM187 895v157h190v-157h-190z" />
    <glyph glyph-name="semicolon" unicode=";" horiz-adv-x="645" 
d="M196 -166h-63l201 506h125zM264 895v157h188v-157h-188z" />
    <glyph glyph-name="less" unicode="&#x3c;" horiz-adv-x="1393" 
d="M1134 37l-912 589v51l912 591l37 -42l-885 -576l885 -573z" />
    <glyph glyph-name="equal" unicode="=" horiz-adv-x="1529" 
d="M1265 473h-1002v47h1002v-47zM263 812v50h1002v-50h-1002z" />
    <glyph glyph-name="greater" unicode="&#x3e;" horiz-adv-x="1394" 
d="M1172 626l-912 -589l-38 40l882 573l-882 576l38 42l912 -591v-51z" />
    <glyph glyph-name="question" unicode="?" horiz-adv-x="1029" 
d="M75 1130q67 122 184 190t256 68q195 0 307 -95t112 -255q0 -150 -144 -267l-122 -97q-149 -118 -149 -274v-31h-69v33q0 89 40.5 163.5t106.5 126.5q84 67 120 94q146 113 146 250t-93 219.5t-255 82.5q-246 0 -379 -229zM387 -16v156h192v-156h-192z" />
    <glyph glyph-name="at" unicode="@" horiz-adv-x="1720" 
d="M857 -165q-216 0 -393 101t-278 278t-101 392q0 159 59.5 301t162 243t246 160t304.5 59q225 0 402.5 -94t276.5 -263.5t99 -385.5q0 -192 -88.5 -317.5t-222.5 -125.5q-108 0 -159.5 51.5t-45.5 152.5q-44 -96 -127.5 -146.5t-201.5 -50.5q-131 0 -202.5 61.5
t-71.5 166.5q0 109 80 173.5t228 81.5l156 18q114 13 144 51q-1 247 -257 247q-117 0 -186 -51.5t-73 -142.5h-63q4 114 92 180.5t232 66.5q143 0 229 -70t86 -219v-394q0 -61 37 -94t103 -33q113 0 181.5 109t68.5 285q0 198 -91.5 356t-255.5 246.5t-370 88.5
q-146 0 -278.5 -55.5t-227.5 -150.5t-151 -227t-56 -278q0 -199 94 -363.5t258 -259.5t361 -95q259 0 455 157l34 -40q-210 -170 -489 -170zM575 420q0 -88 62.5 -133.5t164.5 -45.5q150 0 236 97.5t86 257.5v85q-8 -5 -19 -9t-26.5 -8t-30 -7t-35.5 -6t-36 -5t-39.5 -4.5
t-37.5 -4t-38 -4t-34 -3.5q-128 -15 -190.5 -70t-62.5 -140z" />
    <glyph glyph-name="A" unicode="A" horiz-adv-x="1464" 
d="M356 494h751l-374 804h-5zM45 0l640 1352h93l640 -1352h-80l-207 447h-798l-210 -447h-78z" />
    <glyph glyph-name="B" unicode="B" horiz-adv-x="1431" 
d="M838 0h-639v1352h573q220 0 341.5 -92t121.5 -244q0 -121 -79.5 -202t-206.5 -109q154 -29 254 -123t100 -219q0 -160 -130.5 -261.5t-334.5 -101.5zM266 50h557q179 0 295 88.5t116 220.5q0 135 -122.5 225.5t-303.5 90.5h-542v-625zM266 722h484q183 0 300.5 77
t117.5 216q0 126 -104.5 206t-297.5 80h-500v-579z" />
    <glyph glyph-name="C" unicode="C" horiz-adv-x="1423" 
d="M123 677q0 331 180.5 521t481.5 190q172 0 295.5 -76t180.5 -188l-61 -23q-58 104 -164 169.5t-251 65.5q-269 0 -430 -179.5t-161 -479.5q0 -303 163 -482t428 -179q159 0 275 66.5t182 180.5l64 -18q-160 -280 -521 -280q-301 0 -481.5 191.5t-180.5 520.5z" />
    <glyph glyph-name="D" unicode="D" horiz-adv-x="1461" 
d="M603 0h-404v1352h403q347 0 541.5 -171t194.5 -504q0 -331 -193.5 -504t-541.5 -173zM266 50h305q334 0 514.5 154.5t180.5 472.5q0 624 -689 624h-311v-1251z" />
    <glyph glyph-name="E" unicode="E" horiz-adv-x="1333" 
d="M1206 0h-1007v1352h975v-51h-908v-575h821v-47h-821v-629h940v-50z" />
    <glyph glyph-name="F" unicode="F" horiz-adv-x="1271" 
d="M266 0h-67v1352h935v-51h-868v-594h781v-48h-781v-659z" />
    <glyph glyph-name="G" unicode="G" horiz-adv-x="1519" 
d="M123 677q0 326 180 518.5t502 192.5q174 0 303 -71t195 -181l-59 -20q-143 220 -439 220q-192 0 -331 -83t-209.5 -231t-70.5 -345q0 -304 163 -482.5t446 -178.5q177 0 295 76q216 134 216 414v140h-534v50h602v-696h-61l-3 279q-49 -142 -179 -228t-338 -86
q-319 0 -498.5 192t-179.5 520z" />
    <glyph glyph-name="H" unicode="H" horiz-adv-x="1508" 
d="M266 0h-67v1352h67v-630h975v630h68v-1352h-68v675h-975v-675z" />
    <glyph glyph-name="I" unicode="I" horiz-adv-x="464" 
d="M266 0h-67v1352h67v-1352z" />
    <glyph glyph-name="J" unicode="J" horiz-adv-x="1041" 
d="M150 193q46 -85 127 -133t171 -44q325 6 325 364v972h70v-991q0 -396 -390 -396q-259 0 -368 208z" />
    <glyph glyph-name="K" unicode="K" horiz-adv-x="1355" 
d="M266 0h-67v1352h67v-836h3l887 836h94l-613 -578l669 -774h-93l-625 730l-322 -302v-428z" />
    <glyph glyph-name="L" unicode="L" horiz-adv-x="1191" 
d="M1089 0h-890v1352h67v-1302h823v-50z" />
    <glyph glyph-name="M" unicode="M" horiz-adv-x="1843" 
d="M291 1352l626 -1159h6l626 1159h96v-1352h-70v1268l-618 -1144h-72l-619 1147v-1271h-67v1352h92z" />
    <glyph glyph-name="N" unicode="N" horiz-adv-x="1531" 
d="M266 0h-67v1352h84l977 -1265v1265h73v-1352h-88l-979 1270v-1270z" />
    <glyph glyph-name="O" unicode="O" horiz-adv-x="1524" 
d="M123 677q0 323 172 517t466 194q295 0 467.5 -194.5t172.5 -518.5q0 -322 -172.5 -516t-467.5 -194t-466.5 195t-171.5 517zM194 677q0 -299 151 -480t416 -181q263 0 416.5 180t153.5 479q0 301 -155 481t-415 180t-413.5 -178.5t-153.5 -480.5z" />
    <glyph glyph-name="P" unicode="P" horiz-adv-x="1404" 
d="M266 0h-67v1352h603q217 0 350.5 -103t133.5 -274t-136 -273.5t-351 -102.5h-533v-599zM266 644h510q204 0 320.5 86t116.5 245q0 154 -118 240t-325 86h-504v-657z" />
    <glyph glyph-name="Q" unicode="Q" horiz-adv-x="1524" 
d="M123 675q0 325 171.5 519t466.5 194q294 0 467 -195t173 -518q0 -177 -55 -318.5t-157 -236.5l209 -181l-51 -35l-206 178q-158 -117 -380 -117q-294 0 -466 193.5t-172 516.5zM194 675q0 -301 152.5 -480t414.5 -179q193 0 337 103l-334 288l51 39l328 -286
q91 86 139.5 218t48.5 297q0 302 -156 481.5t-414 179.5q-260 0 -413.5 -179t-153.5 -482z" />
    <glyph glyph-name="R" unicode="R" horiz-adv-x="1379" 
d="M199 0v1352h609q224 0 352 -100.5t128 -259.5q0 -71 -24.5 -131t-66.5 -101t-93 -68t-108 -40q132 -35 187.5 -120t64.5 -218v1q3 -31 7.5 -79.5t6.5 -68.5t6.5 -50.5t9 -46.5t12.5 -34t19 -34l2 -2h-71q-25 47 -36.5 107t-26.5 205q-4 70 -25.5 124.5t-65 98.5
t-119.5 67.5t-180 23.5h-521v-626h-67zM266 677h539q196 0 304.5 84t108.5 230q0 139 -111.5 224.5t-321.5 85.5h-519v-624z" />
    <glyph glyph-name="S" unicode="S" horiz-adv-x="1368" 
d="M1181 338q0 49 -23 91t-63.5 75t-105 63t-136.5 54t-170 50q-80 21 -131 37q-78 24 -156 59q-79 32 -123 70q-47 39 -78 95.5t-31 121.5q0 155 140.5 245.5t382.5 90.5q165 0 298 -62t201 -157l-64 -22q-68 85 -184 135t-256 50q-209 0 -333 -76t-124 -204
q0 -61 33.5 -110.5t102.5 -89.5t153.5 -70.5t207.5 -64.5q106 -27 160 -44.5t128 -49.5q79 -32 123 -70q47 -39 78 -95.5t31 -121.5q0 -176 -144.5 -275.5t-407.5 -99.5q-184 0 -328 65.5t-237 180.5l72 26q73 -98 206.5 -157.5t290.5 -59.5q142 0 249.5 33.5t172.5 106.5
t65 178v2z" />
    <glyph glyph-name="T" unicode="T" horiz-adv-x="1325" 
d="M629 1301h-528v51h1125v-51h-527v-1301h-70v1301z" />
    <glyph glyph-name="U" unicode="U" horiz-adv-x="1511" 
d="M199 461v891h67v-881q0 -219 128 -337t359 -118q233 0 361 118.5t128 336.5v881h70v-891q0 -239 -143.5 -367.5t-415.5 -128.5q-266 0 -410 128t-144 368z" />
    <glyph glyph-name="V" unicode="V" horiz-adv-x="1357" 
d="M630 0l-585 1352h82l427 -1014q23 -57 51 -118q14 -36 35 -87l28 -68h6l115 273l440 1014h82l-600 -1352h-81z" />
    <glyph glyph-name="W" unicode="W" horiz-adv-x="1902" 
d="M451 0l-414 1352h80l302 -1020q20 -68 73 -267h6q5 17 24 76.5t35 111.5t24 79l324 1020h91l325 -1020l43 -134q25 -83 42 -133h6q45 183 72 267l301 1020h80l-412 -1352h-87l-324 1000q-54 160 -87 287h-5q-15 -54 -88 -287l-323 -1000h-88z" />
    <glyph glyph-name="X" unicode="X" horiz-adv-x="1285" 
d="M136 0h-87l543 696l-516 656h88l473 -614h8l472 614h89l-515 -656l545 -696h-86l-505 652h-8z" />
    <glyph glyph-name="Y" unicode="Y" horiz-adv-x="1349" 
d="M642 557l-594 795h85l540 -736h5l537 736h86l-589 -795v-557h-70v557z" />
    <glyph glyph-name="Z" unicode="Z" horiz-adv-x="1366" 
d="M130 0v47l1005 1254h-931v51h1010v-47l-1006 -1255h1034v-50h-1112z" />
    <glyph glyph-name="bracketleft" unicode="[" horiz-adv-x="736" 
d="M606 -253h-376v1795h376v-47h-309v-1701h309v-47z" />
    <glyph glyph-name="backslash" unicode="\" horiz-adv-x="781" 
d="M671 -124l-628 1586h68l627 -1586h-67z" />
    <glyph glyph-name="bracketright" unicode="]" horiz-adv-x="739" 
d="M130 -253v47h309v1701h-309v47h379v-1795h-379z" />
    <glyph glyph-name="asciicircum" unicode="^" horiz-adv-x="1081" 
d="M152 929h-77l428 579h72l430 -579h-80l-385 525h-2l-79 -102z" />
    <glyph glyph-name="underscore" unicode="_" horiz-adv-x="860" 
d="M-21 -147v49h901v-49h-901z" />
    <glyph glyph-name="a" unicode="a" horiz-adv-x="1218" 
d="M179 220q0 -87 90.5 -147.5t242.5 -60.5q126 0 233 45.5t171 129t64 186.5v190q-141 -41 -390 -72q-215 -28 -313 -94.5t-98 -176.5zM109 216q0 260 478 320q291 36 393 76v50q0 126 -101 203t-277 77q-112 0 -213.5 -42t-171.5 -119l-47 25q67 81 184 133t248 52
q212 0 329.5 -92.5t117.5 -242.5v-656h-67v208q-44 -100 -177 -171.5t-298 -71.5q-182 0 -290 69.5t-108 181.5z" />
    <glyph glyph-name="b" unicode="b" horiz-adv-x="1225" 
d="M239 0h-70v1411h70v-706q30 115 142 200.5t265 85.5q216 0 344.5 -137.5t128.5 -373.5q0 -124 -37.5 -223.5t-102.5 -162.5t-151 -96t-185 -33q-141 0 -248 74.5t-156 190.5v-230zM233 480q0 -214 116.5 -341t288.5 -127q188 0 303.5 127.5t115.5 340.5q0 211 -115 336.5
t-301 125.5q-171 0 -289.5 -126.5t-118.5 -335.5z" />
    <glyph glyph-name="c" unicode="c" horiz-adv-x="1121" 
d="M105 479q0 225 133.5 368.5t360.5 143.5q135 0 239 -58.5t150 -152.5l-63 -17q-43 81 -130.5 130t-195.5 49q-190 0 -308 -129t-118 -334q0 -208 120 -337.5t306 -129.5q113 0 213 55t150 136l58 -18q-56 -96 -169.5 -158t-251.5 -62q-220 0 -357 140.5t-137 373.5z" />
    <glyph glyph-name="d" unicode="d" horiz-adv-x="1224" 
d="M105 480q0 236 130 373.5t346 137.5q146 0 255.5 -81t151.5 -203v704h67v-1411h-66v232q-48 -120 -154.5 -193.5t-254.5 -73.5q-98 0 -183.5 33t-151 96t-103 162.5t-37.5 223.5zM173 480q0 -211 112 -339.5t300 -128.5q175 0 289.5 126.5t114.5 341.5q0 105 -33 193
t-88.5 146.5t-129 90.5t-154.5 32q-186 0 -298.5 -125.5t-112.5 -336.5z" />
    <glyph glyph-name="e" unicode="e" horiz-adv-x="1198" 
d="M105 483q0 224 136.5 366t363.5 142q148 0 262.5 -66.5t173.5 -174.5t59 -238v-24q-3 -13 -3 -25h-924q0 -125 52.5 -227t154 -163t233.5 -61q124 0 231 54.5t165 137.5l58 -19q-68 -102 -184 -161t-270 -59q-233 0 -370.5 144.5t-137.5 373.5zM173 506h858
q0 119 -52 218t-150 158.5t-224 59.5q-139 0 -237 -67q-187 -128 -195 -369z" />
    <glyph glyph-name="f" unicode="f" horiz-adv-x="744" 
d="M323 908h-228v48h228v195q0 130 79.5 195t223.5 65h98v-48h-95q-235 0 -235 -225v-182h298v-48h-298v-908h-71v908z" />
    <glyph glyph-name="g" unicode="g" 
d="M173 494q0 -200 111.5 -324.5t287.5 -124.5q186 0 292.5 121t106.5 333q0 198 -109.5 320.5t-284.5 122.5q-188 0 -296 -123.5t-108 -324.5zM105 494q0 223 127 360t340 137q148 0 249 -73.5t150 -187.5v226h67v-885q0 -273 -107 -400.5t-347 -127.5q-118 0 -221.5 42
t-170.5 113l53 29q138 -135 339 -135q206 0 296.5 114.5t90.5 354.5v190q-109 -255 -396 -255q-212 0 -341 138.5t-129 359.5z" />
    <glyph glyph-name="h" unicode="h" horiz-adv-x="1201" 
d="M239 0h-70v1411h70v-658h2q40 94 159 166t265 72q181 0 274 -95.5t93 -273.5v-622h-65v605q0 337 -315 337q-105 0 -200.5 -48.5t-154 -130.5t-58.5 -174v-589z" />
    <glyph glyph-name="i" unicode="i" horiz-adv-x="438" 
d="M297 1230h-156v143h156v-143zM189 0v956h66v-956h-66z" />
    <glyph glyph-name="j" unicode="j" horiz-adv-x="508" 
d="M366 1230h-152v143h152v-143zM-41 -437v47h63q237 0 237 257v1089h65v-1097q0 -145 -73.5 -220.5t-213.5 -75.5h-78z" />
    <glyph glyph-name="k" unicode="k" horiz-adv-x="1071" 
d="M240 0h-71v1411h71v-1042l639 587h90l-404 -375l466 -581h-82l-435 538l-274 -249v-289z" />
    <glyph glyph-name="l" unicode="l" horiz-adv-x="407" 
d="M238 0h-69v1411h69v-1411z" />
    <glyph glyph-name="m" unicode="m" horiz-adv-x="1828" 
d="M236 0h-67v956h64v-183h6q37 92 134.5 155t238.5 63q142 0 219.5 -72t98.5 -189q10 59 95 146q47 49 132.5 82t183.5 33q164 0 241 -90.5t77 -278.5v-622h-66v608q0 172 -60 253t-211 81q-156 0 -263.5 -103t-107.5 -264v-575h-70v606q0 336 -278 336q-161 0 -264 -99.5
t-103 -253.5v-589z" />
    <glyph glyph-name="n" unicode="n" horiz-adv-x="1202" 
d="M236 0h-67v956h64v-216h6q10 40 46 83.5t90 81t131 62t158 24.5q135 0 240 -67q61 -38 95 -115.5t34 -186.5v-622h-71v605q0 337 -310 337q-105 0 -201.5 -48.5t-155.5 -130.5t-59 -174v-589z" />
    <glyph glyph-name="o" unicode="o" 
d="M173 479q0 -206 118 -336.5t314 -130.5q193 0 313 131.5t120 335.5t-121.5 333.5t-311.5 129.5q-191 0 -311.5 -129t-120.5 -334zM105 479q0 226 135.5 369t364.5 143q225 0 364 -143.5t139 -368.5q0 -222 -136.5 -368t-366.5 -146q-155 0 -270 69t-172.5 184.5
t-57.5 260.5z" />
    <glyph glyph-name="p" unicode="p" horiz-adv-x="1225" 
d="M236 482q0 -210 112.5 -340t292.5 -130q181 0 298.5 127.5t117.5 340.5q0 207 -111.5 334.5t-304.5 127.5q-173 0 -289 -130.5t-116 -329.5zM169 -449v1405h70v-243q47 129 156 203.5t251 74.5q215 0 344 -139.5t129 -371.5q0 -240 -132 -377.5t-344 -137.5
q-144 0 -249.5 74t-154.5 198v-686h-70z" />
    <glyph glyph-name="q" unicode="q" horiz-adv-x="1224" 
d="M173 480q0 -213 114 -340.5t297 -127.5q180 0 292 131t112 339q0 201 -115.5 330.5t-288.5 129.5q-191 0 -301 -128.5t-110 -333.5zM105 480q0 232 129.5 371.5t345.5 139.5q138 0 249 -73.5t160 -201.5v240h66v-1405h-67v688q-53 -125 -158 -199.5t-249 -74.5
q-213 0 -344.5 137.5t-131.5 377.5z" />
    <glyph glyph-name="r" unicode="r" horiz-adv-x="812" 
d="M236 0h-67v956h64v-180q36 89 129 152t234 63q94 0 178 -32v-51q-88 32 -178 32q-160 0 -260 -101.5t-100 -257.5v-581z" />
    <glyph glyph-name="s" unicode="s" horiz-adv-x="1078" 
d="M977 220q0 -114 -114 -187.5t-316 -73.5q-303 0 -445 200l63 31q61 -81 160 -126.5t222 -45.5q159 0 262 57t103 145q1 81 -96 134t-310 103q-92 22 -144 39.5t-108 49.5q-124 63 -124 192q0 119 117 189t300 70q131 0 240.5 -55t161.5 -139l-52 -30q-51 74 -144.5 119.5
t-205.5 45.5q-153 0 -253.5 -56.5t-100.5 -142.5q0 -89 85 -139.5t296 -99.5q184 -44 278 -97q123 -62 125 -183z" />
    <glyph glyph-name="t" unicode="t" horiz-adv-x="769" 
d="M303 908h-228v48h228v332h73v-332h317v-48h-317v-655q0 -109 52 -158.5t166 -47.5l99 3v-50h-108q-138 -3 -210 58t-72 184v666z" />
    <glyph glyph-name="u" unicode="u" horiz-adv-x="1191" 
d="M169 326v630h67v-605q0 -156 77.5 -247.5t242.5 -91.5q188 0 294.5 111.5t106.5 280.5v552h65v-956h-65v208q-22 -96 -134 -169.5t-283 -73.5q-179 0 -275 98t-96 263z" />
    <glyph glyph-name="v" unicode="v" horiz-adv-x="1145" 
d="M528 0l-451 956h74l422 -909h5l413 909h78l-452 -956h-89z" />
    <glyph glyph-name="w" unicode="w" horiz-adv-x="1648" 
d="M416 0l-339 956h80l303 -906h8l311 906h87l316 -905h2l307 905h79l-341 -956h-91l-312 896h-7l-310 -896h-93z" />
    <glyph glyph-name="x" unicode="x" horiz-adv-x="1127" 
d="M182 0h-83l419 499l-394 457h82l357 -414h1l350 414h88l-396 -459l423 -497h-87l-378 457h-1z" />
    <glyph glyph-name="y" unicode="y" horiz-adv-x="1130" 
d="M535 -51l-458 1007h80l411 -934h4l404 934h78l-513 -1154q-59 -133 -130 -192t-167 -59h-50v49h41q159 0 246 218z" />
    <glyph glyph-name="z" unicode="z" horiz-adv-x="1099" 
d="M994 0h-863v41l754 867h-697v48h778v-42l-750 -867h778v-47z" />
    <glyph glyph-name="braceleft" unicode="{" horiz-adv-x="914" 
d="M200 610h-53v46h53q212 0 212 302v374q0 96 62.5 153t151.5 57h158v-47h-143q-69 0 -114 -47.5t-45 -131.5v-372q0 -237 -170 -313q78 -25 124 -102.5t46 -193.5v-345q0 -95 44 -144.5t121 -49.5h137v-47h-155q-91 0 -154 55t-63 156v352q0 145 -55.5 221.5t-156.5 76.5z
" />
    <glyph glyph-name="braceright" unicode="}" horiz-adv-x="910" 
d="M130 -251v47h137q76 0 121.5 50t45.5 144v354q0 110 45 187t121 100q-166 74 -166 305v380q0 85 -45.5 132t-118.5 47h-140v47h156q92 0 153 -56t61 -154v-374q0 -146 54 -224t157 -78h53v-46h-53q-100 0 -155.5 -77.5t-55.5 -209.5v-363q0 -101 -62 -156t-156 -55h-152z
" />
    <glyph glyph-name="asciitilde" unicode="~" horiz-adv-x="1623" 
d="M168 583q138 210 366 210q148 0 252 -88q12 -10 26.5 -22.5t31.5 -27.5t27 -23q101 -87 220 -87t196 71q41 38 62 60.5t53 66.5l53 -24q-77 -108 -162.5 -165t-201.5 -57q-147 0 -249 88q-45 36 -84 72q-104 89 -226 89q-178 0 -313 -189z" />
    <glyph glyph-name="exclamdown" unicode="&#xa1;" horiz-adv-x="594" 
d="M344 -404h-91l17 965h61zM202 809v154h191v-154h-191z" />
    <glyph glyph-name="cent" unicode="&#xa2;" horiz-adv-x="1119" 
d="M105 479q0 221 128 363.5t348 146.5v147h70v-149q119 -12 208 -67.5t129 -139.5l-61 -17q-43 79 -131.5 129t-196.5 50q-192 0 -309 -129t-117 -334q0 -208 119 -337.5t307 -129.5q112 0 211 55t151 136l57 -18q-57 -89 -151.5 -147.5t-215.5 -70.5v-151h-70v149
q-213 4 -344.5 144t-131.5 370z" />
    <glyph glyph-name="sterling" unicode="&#xa3;" horiz-adv-x="1421" 
d="M398 646h-263v50h263v352q0 165 106.5 252.5t294.5 87.5q122 0 219.5 -49t145.5 -125l-50 -23q-105 147 -310 147q-161 0 -250 -75t-89 -219v-348h544v-50h-544v-277q0 -221 -169 -329q174 34 287 34q84 0 185 -30q112 -28 174 -28q172 0 297 55l22 -48
q-129 -58 -321 -58q-65 0 -180 31q-114 30 -189 30q-70 0 -169 -12t-167 -27l-64 -14l-24 49q119 36 185 133t66 214v277z" />
    <glyph glyph-name="currency" unicode="&#xa4;" horiz-adv-x="1409" 
d="M140 212l-47 33l247 191q-111 96 -111 239t107 241l-243 185l47 39l244 -184q135 92 320 92q187 0 322 -96l239 186l47 -39l-244 -183q112 -104 112 -241q0 -133 -112 -239l244 -191l-44 -35l-242 186q-126 -94 -322 -94q-189 0 -322 94zM299 675q0 -136 115.5 -230
t289.5 -94q172 0 290 94.5t118 229.5q0 136 -118 230.5t-290 94.5t-288.5 -94.5t-116.5 -230.5z" />
    <glyph glyph-name="yen" unicode="&#xa5;" horiz-adv-x="1298" 
d="M571 650l-548 702h85l396 -513q3 -4 26.5 -34.5t44.5 -56.5q59 -75 73 -96h5q69 92 139 182l398 518h86l-544 -702h405v-45h-452v-198h452v-46h-452v-361h-68v361h-461v46h461v198h-461v45h415z" />
    <glyph glyph-name="copyright" unicode="&#xa9;" horiz-adv-x="1762" 
d="M880 -27q-203 0 -370 90.5t-262.5 249.5t-95.5 352q0 192 96 350t263 248.5t369 90.5q151 0 286 -53t232 -144.5t153.5 -219.5t56.5 -272q0 -145 -56 -273.5t-152.5 -220t-232 -145t-287.5 -53.5zM211 665q0 -182 86.5 -329.5t239.5 -231.5t343 -84q141 0 266 49
t214 134.5t140.5 205.5t51.5 256q0 181 -87.5 328t-241.5 230.5t-343 83.5q-188 0 -341.5 -84t-240.5 -231t-87 -327zM528 659q0 169 103.5 274t268.5 105q112 0 196 -56t116 -152h-67q-26 75 -89.5 116t-155.5 41q-138 0 -224.5 -91t-86.5 -234q0 -142 84 -232t217 -90
q94 0 161 40t98 114h63q-35 -94 -122 -149.5t-200 -55.5q-159 0 -260.5 103.5t-101.5 266.5z" />
    <glyph glyph-name="ordfeminine" unicode="&#xaa;" horiz-adv-x="812" 
d="M760 640h-707v46h707v-46zM53 1009q0 82 65 136t158 69q34 6 122.5 18.5t145.5 24t100 26.5v28q0 84 -66 135t-183 51q-88 0 -160 -36t-101 -76l-46 24q48 58 131.5 95t175.5 37q149 0 229 -63.5t80 -170.5v-453h-58v121q-44 -63 -128 -103t-187 -40q-127 0 -202.5 49
t-75.5 128zM112 1010q0 -56 59.5 -95.5t160.5 -39.5q127 0 219.5 69t92.5 171v121q-57 -16 -190 -36t-155 -24q-79 -13 -133 -56t-54 -110z" />
    <glyph glyph-name="guillemotleft" unicode="&#xab;" horiz-adv-x="1053" 
d="M488 55l-347 408l352 403l51 -27l-327 -376l324 -379zM491 463l352 400l51 -27l-328 -373l325 -377l-49 -29z" />
    <glyph glyph-name="logicalnot" unicode="&#xac;" horiz-adv-x="1176" 
d="M1008 624h-907v47h977v-434h-70v387z" />
    <glyph glyph-name="uni00AD" unicode="&#xad;" horiz-adv-x="1247" 
d="M1102 640h-955v51h955v-51z" />
    <glyph glyph-name="registered" unicode="&#xae;" horiz-adv-x="962" 
d="M481 629q-168 0 -280.5 106.5t-112.5 264.5q0 156 113.5 262.5t279.5 106.5t278.5 -105.5t112.5 -263.5q0 -160 -111.5 -265.5t-279.5 -105.5zM148 1000q0 -137 94.5 -227t238.5 -90q143 0 238 90.5t95 226.5q0 134 -95.5 224.5t-237.5 90.5t-237.5 -90.5t-95.5 -224.5z
M335 797v414h158q71 0 112.5 -34.5t41.5 -93.5q0 -41 -23 -71t-67 -44l99 -171h-71l-89 156h-98v-156h-63zM398 1009h93q43 0 66.5 18.5t23.5 54.5q0 72 -90 72h-93v-145z" />
    <glyph glyph-name="plusminus" unicode="&#xb1;" horiz-adv-x="1463" 
d="M700 758h-494v48h494v381h66v-381h491v-48h-491v-381h-66v381zM213 159v47h1038v-47h-1038z" />
    <glyph glyph-name="uni00B2" unicode="&#xb2;" horiz-adv-x="638" 
d="M47 1358q23 78 92 129t182 51q114 0 185 -54t71 -148q0 -115 -148 -225q-167 -129 -227 -184q-65 -59 -83 -111h458v-42h-524q-3 34 13 67t61 78q13 13 37.5 36t33.5 32q131 111 194 156q126 103 126 193q0 76 -53.5 117.5t-145.5 41.5q-163 0 -219 -147z" />
    <glyph glyph-name="uni00B3" unicode="&#xb3;" horiz-adv-x="638" 
d="M80 912q81 -113 222 -113q104 0 168 47t64 135q0 77 -62.5 123.5t-197.5 46.5q-14 0 -49 -4v48q24 -2 47 -2q118 0 172.5 43.5t54.5 113.5q0 65 -53.5 106t-142.5 41q-120 0 -196 -118l-51 16q80 146 247 146q114 0 183.5 -54t69.5 -135q0 -123 -140 -177
q176 -47 176 -194q0 -107 -80 -166.5t-210 -59.5q-179 0 -272 134z" />
    <glyph glyph-name="uni00B5" unicode="&#xb5;" horiz-adv-x="1203" 
d="M237 -449h-72v1405h72v-616q0 -149 81.5 -238.5t240.5 -89.5q192 0 304.5 113t112.5 279v552h66v-956h-64v208h-5q-29 -101 -142 -172t-280 -71q-226 0 -314 157v-571z" />
    <glyph glyph-name="periodcentered" unicode="&#xb7;" horiz-adv-x="563" 
d="M377 567h-190v157h190v-157z" />
    <glyph glyph-name="uni00B9" unicode="&#xb9;" horiz-adv-x="638" 
d="M307 773l1 699l-190 -108v64l198 116h51v-771h-60z" />
    <glyph glyph-name="ordmasculine" unicode="&#xba;" horiz-adv-x="812" 
d="M119 1187q0 -137 78.5 -224.5t206.5 -87.5q127 0 207.5 88.5t80.5 223.5q0 136 -80 223t-208 87q-125 0 -205 -86.5t-80 -223.5zM53 640v46h707v-46h-707zM56 1187q0 157 94 255.5t254 98.5q156 0 252 -99t96 -255q0 -151 -94.5 -253t-253.5 -102q-161 0 -254.5 101.5
t-93.5 253.5z" />
    <glyph glyph-name="guillemotright" unicode="&#xbb;" horiz-adv-x="1055" 
d="M480 463l-327 373l51 27l352 -400l-349 -406l-50 29zM503 839l52 27l353 -403l-348 -408l-54 29l325 379z" />
    <glyph glyph-name="questiondown" unicode="&#xbf;" horiz-adv-x="1028" 
d="M95 -86q0 152 146 268q17 13 58.5 45.5t64.5 49.5q147 115 147 275v29h68v-30q0 -172 -146 -291q-86 -67 -122 -93q-147 -109 -147 -251q0 -138 93.5 -220t255.5 -82q251 0 381 229l59 -21q-65 -124 -180.5 -191t-256.5 -67q-196 0 -308.5 95t-112.5 255zM450 810v153
h189v-153h-189z" />
    <glyph glyph-name="Agrave" unicode="&#xc0;" horiz-adv-x="1464" 
d="M434 1841h121l258 -319h-72zM45 0l640 1352h93l640 -1352h-80l-207 447h-798l-210 -447h-78zM356 494h751l-374 804h-5z" />
    <glyph glyph-name="Aacute" unicode="&#xc1;" horiz-adv-x="1464" 
d="M615 1522l258 319h121l-307 -319h-72zM45 0l640 1352h93l640 -1352h-80l-207 447h-798l-210 -447h-78zM356 494h751l-374 804h-5z" />
    <glyph glyph-name="Acircumflex" unicode="&#xc2;" horiz-adv-x="1464" 
d="M336 1522l360 292h73l362 -292h-87l-311 244l-310 -244h-87zM45 0l640 1352h93l640 -1352h-80l-207 447h-798l-210 -447h-78zM356 494h751l-374 804h-5z" />
    <glyph glyph-name="Atilde" unicode="&#xc3;" horiz-adv-x="1464" 
d="M298 1594q27 67 93 114.5t157 47.5q81 0 190 -68q104 -69 157 -69q115 0 189 129l56 -18q-81 -159 -243 -159q-65 0 -127 34q-23 13 -61 37.5t-57.5 35.5t-48 21t-55.5 10q-124 0 -192 -134zM45 0l640 1352h93l640 -1352h-80l-207 447h-798l-210 -447h-78zM356 494h751
l-374 804h-5z" />
    <glyph glyph-name="Adieresis" unicode="&#xc4;" horiz-adv-x="1464" 
d="M424 1609v134h166v-134h-166zM45 0l640 1352h93l640 -1352h-80l-207 447h-798l-210 -447h-78zM356 494h751l-374 804h-5zM863 1609v134h165v-134h-165z" />
    <glyph glyph-name="Aring" unicode="&#xc5;" horiz-adv-x="1464" 
d="M453 1670q0 90 79.5 155t198.5 65q117 0 196.5 -63.5t79.5 -156.5q0 -91 -78.5 -155.5t-197.5 -64.5q-117 0 -197.5 65t-80.5 155zM45 0l640 1352h93l640 -1352h-80l-207 447h-798l-210 -447h-78zM356 494h751l-374 804h-5zM516 1670q0 -73 60.5 -124t154.5 -51
q95 0 154.5 49t59.5 126q0 74 -59 124t-155 50q-95 0 -155 -50.5t-60 -123.5z" />
    <glyph glyph-name="AE" unicode="&#xc6;" horiz-adv-x="2109" 
d="M1119 1301l-615 -807h636v807h-21zM45 0l1037 1352h893v-51h-766v-575h684v-47h-687v-629h776v-50h-842v447h-671l-346 -447h-78z" />
    <glyph glyph-name="Ccedilla" unicode="&#xc7;" horiz-adv-x="1423" 
d="M123 677q0 331 180.5 521t481.5 190q172 0 295.5 -76t180.5 -188l-61 -23q-58 104 -164 169.5t-251 65.5q-269 0 -430 -179.5t-161 -479.5q0 -303 163 -482t428 -179q159 0 275 66.5t182 180.5l64 -18q-160 -277 -514 -280l-28 -91q123 -1 191.5 -40.5t68.5 -106.5
q0 -69 -76.5 -111.5t-198.5 -42.5q-115 0 -219 29v47q116 -34 220 -34q81 0 145.5 33.5t64.5 78.5q0 108 -272 108l40 132q-277 20 -441 209.5t-164 500.5z" />
    <glyph glyph-name="Egrave" unicode="&#xc8;" horiz-adv-x="1333" 
d="M1206 0h-1007v1352h975v-51h-908v-575h821v-47h-821v-629h940v-50zM446 1841h121l258 -319h-72z" />
    <glyph glyph-name="Eacute" unicode="&#xc9;" horiz-adv-x="1333" 
d="M1206 0h-1007v1352h975v-51h-908v-575h821v-47h-821v-629h940v-50zM548 1522l257 319h122l-306 -319h-73z" />
    <glyph glyph-name="Ecircumflex" unicode="&#xca;" horiz-adv-x="1333" 
d="M388 1522h-87l361 292h72l362 -292h-87l-310 244zM199 0v1352h975v-51h-908v-575h821v-47h-821v-629h940v-50h-1007z" />
    <glyph glyph-name="Edieresis" unicode="&#xcb;" horiz-adv-x="1333" 
d="M1206 0h-1007v1352h975v-51h-908v-575h821v-47h-821v-629h940v-50zM400 1609v134h164v-134h-164zM838 1609v134h165v-134h-165z" />
    <glyph glyph-name="Igrave" unicode="&#xcc;" horiz-adv-x="570" 
d="M315 0h-67v1352h67v-1352zM-7 1841h122l257 -319h-72z" />
    <glyph glyph-name="Iacute" unicode="&#xcd;" horiz-adv-x="580" 
d="M330 0h-67v1352h67v-1352zM199 1522l257 319h122l-306 -319h-73z" />
    <glyph glyph-name="Icircumflex" unicode="&#xce;" horiz-adv-x="710" 
d="M391 0h-67v1352h67v-1352zM-42 1522l360 292h73l361 -292h-86l-310 244l-311 -244h-87z" />
    <glyph glyph-name="Idieresis" unicode="&#xcf;" horiz-adv-x="627" 
d="M345 0h-67v1352h67v-1352zM12 1609v134h165v-134h-165zM450 1609v134h166v-134h-166z" />
    <glyph glyph-name="Eth" unicode="&#xd0;" horiz-adv-x="1484" 
d="M626 0h-404v673h-215v49h215v630h403q347 0 541.5 -171t194.5 -504q0 -331 -193.5 -504t-541.5 -173zM289 50h305q334 0 514.5 154.5t180.5 472.5q0 624 -689 624h-311v-579h472v-49h-472v-623z" />
    <glyph glyph-name="Ntilde" unicode="&#xd1;" horiz-adv-x="1531" 
d="M348 1594q29 68 94.5 115t156.5 47q84 0 190 -68q105 -69 159 -69q116 0 187 129l56 -18q-79 -159 -242 -159q-65 0 -128 34q-22 13 -60.5 37.5t-58 35.5t-48 21t-55.5 10q-125 0 -193 -134zM199 0v1352h84l977 -1265v1265h73v-1352h-88l-979 1270v-1270h-67z" />
    <glyph glyph-name="Ograve" unicode="&#xd2;" horiz-adv-x="1524" 
d="M123 677q0 323 172 517t466 194q295 0 467.5 -194.5t172.5 -518.5q0 -322 -172.5 -516t-467.5 -194t-466.5 195t-171.5 517zM194 677q0 -299 151 -480t416 -181q263 0 416.5 180t153.5 479q0 301 -155 481t-415 180t-413.5 -178.5t-153.5 -480.5zM498 1842h120l257 -319
h-72z" />
    <glyph glyph-name="Oacute" unicode="&#xd3;" horiz-adv-x="1524" 
d="M123 677q0 323 172 517t466 194q295 0 467.5 -194.5t172.5 -518.5q0 -322 -172.5 -516t-467.5 -194t-466.5 195t-171.5 517zM194 677q0 -299 151 -480t416 -181q263 0 416.5 180t153.5 479q0 301 -155 481t-415 180t-413.5 -178.5t-153.5 -480.5zM651 1523l256 319h122
l-306 -319h-72z" />
    <glyph glyph-name="Ocircumflex" unicode="&#xd4;" horiz-adv-x="1524" 
d="M123 677q0 323 172 517t466 194q295 0 467.5 -194.5t172.5 -518.5q0 -322 -172.5 -516t-467.5 -194t-466.5 195t-171.5 517zM194 677q0 -299 151 -480t416 -181q263 0 416.5 180t153.5 479q0 301 -155 481t-415 180t-413.5 -178.5t-153.5 -480.5zM366 1523l361 293h72
l362 -293h-87l-310 245l-311 -245h-87z" />
    <glyph glyph-name="Otilde" unicode="&#xd5;" horiz-adv-x="1524" 
d="M354 1594q27 67 92.5 114.5t156.5 47.5q84 0 190 -68q105 -69 159 -69q116 0 187 129l58 -18q-84 -159 -243 -159q-68 0 -127 34q-23 13 -61.5 37.5t-58 35.5t-48.5 21t-56 10q-124 0 -192 -134zM123 677q0 323 172 517t466 194q295 0 467.5 -194.5t172.5 -518.5
q0 -322 -172.5 -516t-467.5 -194t-466.5 195t-171.5 517zM194 677q0 -299 151 -480t416 -181q263 0 416.5 180t153.5 479q0 301 -155 481t-415 180t-413.5 -178.5t-153.5 -480.5z" />
    <glyph glyph-name="Odieresis" unicode="&#xd6;" horiz-adv-x="1524" 
d="M123 677q0 323 172 517t466 194q295 0 467.5 -194.5t172.5 -518.5q0 -322 -172.5 -516t-467.5 -194t-466.5 195t-171.5 517zM194 677q0 -299 151 -480t416 -181q263 0 416.5 180t153.5 479q0 301 -155 481t-415 180t-413.5 -178.5t-153.5 -480.5zM456 1609v134h164v-134
h-164zM895 1609v134h164v-134h-164z" />
    <glyph glyph-name="multiply" unicode="&#xd7;" horiz-adv-x="1442" 
d="M248 269l-45 39l472 351l-462 354l45 39l459 -357l462 357l46 -39l-461 -354l474 -353l-47 -37l-474 357z" />
    <glyph glyph-name="Oslash" unicode="&#xd8;" horiz-adv-x="1524" 
d="M123 675q0 323 172 518t466 195q188 0 343 -88l99 168h69l-120 -200q249 -190 249 -593q0 -211 -76 -371t-221.5 -249.5t-342.5 -89.5q-163 0 -290 62l-105 -178h-69l126 204q-145 89 -222.5 249.5t-77.5 372.5zM194 675q0 -193 66 -341.5t190 -229.5l622 1144
q-135 88 -311 88q-261 0 -414 -179t-153 -482zM502 74q116 -58 259 -58q264 0 417 180.5t153 478.5q0 362 -211 537z" />
    <glyph glyph-name="Ugrave" unicode="&#xd9;" horiz-adv-x="1511" 
d="M199 461v891h67v-881q0 -219 128 -337t359 -118q233 0 361 118.5t128 336.5v881h70v-891q0 -239 -143.5 -367.5t-415.5 -128.5q-266 0 -410 128t-144 368zM511 1842h120l258 -319h-72z" />
    <glyph glyph-name="Uacute" unicode="&#xda;" horiz-adv-x="1511" 
d="M199 461v891h67v-881q0 -219 128 -337t359 -118q233 0 361 118.5t128 336.5v881h70v-891q0 -239 -143.5 -367.5t-415.5 -128.5q-266 0 -410 128t-144 368zM627 1523l258 319h121l-307 -319h-72z" />
    <glyph glyph-name="Ucircumflex" unicode="&#xdb;" horiz-adv-x="1511" 
d="M199 461v891h67v-881q0 -219 128 -337t359 -118q233 0 361 118.5t128 336.5v881h70v-891q0 -239 -143.5 -367.5t-415.5 -128.5q-266 0 -410 128t-144 368zM366 1523l359 293h72l362 -293h-85l-312 245l-311 -245h-85z" />
    <glyph glyph-name="Udieresis" unicode="&#xdc;" horiz-adv-x="1511" 
d="M199 461v891h67v-881q0 -219 128 -337t359 -118q233 0 361 118.5t128 336.5v881h70v-891q0 -239 -143.5 -367.5t-415.5 -128.5q-266 0 -410 128t-144 368zM463 1609v134h164v-134h-164zM901 1609v134h165v-134h-165z" />
    <glyph glyph-name="Yacute" unicode="&#xdd;" horiz-adv-x="1349" 
d="M546 1523l257 319h122l-308 -319h-71zM48 1352h85l540 -736h5l537 736h86l-589 -795v-557h-70v557z" />
    <glyph glyph-name="Thorn" unicode="&#xde;" horiz-adv-x="1324" 
d="M248 0h-67v1354h67v-255h378q272 0 412 -104.5t140 -299.5q0 -209 -155.5 -310.5t-442.5 -101.5h-332v-283zM248 332h322q538 0 538 360t-496 360h-364v-720z" />
    <glyph glyph-name="germandbls" unicode="&#xdf;" horiz-adv-x="1410" 
d="M266 0h-67v1052q0 155 130.5 245.5t340.5 90.5q201 0 331.5 -99.5t130.5 -256.5q0 -120 -57.5 -204.5t-149.5 -123.5v-4q112 -17 227 -100q59 -42 94.5 -115.5t35.5 -161.5q0 -153 -123 -255.5t-325 -102.5q-178 0 -350 43l17 51q148 -43 330 -43q160 0 269.5 86
t109.5 221q0 110 -60.5 190t-157 118t-214.5 38h-132v47h120q130 0 211.5 89t81.5 221q0 136 -107 223t-285 87q-183 0 -292 -78.5t-109 -211.5v-1046z" />
    <glyph glyph-name="agrave" unicode="&#xe0;" horiz-adv-x="1218" 
d="M179 220q0 -87 90.5 -147.5t242.5 -60.5q126 0 233 45.5t171 129t64 186.5v190q-141 -41 -390 -72q-215 -28 -313 -94.5t-98 -176.5zM109 216q0 260 478 320q291 36 393 76v50q0 126 -101 203t-277 77q-112 0 -213.5 -42t-171.5 -119l-47 25q67 81 184 133t248 52
q212 0 329.5 -92.5t117.5 -242.5v-656h-67v208q-44 -100 -177 -171.5t-298 -71.5q-182 0 -290 69.5t-108 181.5zM370 1479h121l258 -319h-72z" />
    <glyph glyph-name="aacute" unicode="&#xe1;" horiz-adv-x="1218" 
d="M179 220q0 -87 90.5 -147.5t242.5 -60.5q126 0 233 45.5t171 129t64 186.5v190q-141 -41 -390 -72q-215 -28 -313 -94.5t-98 -176.5zM109 216q0 260 478 320q291 36 393 76v50q0 126 -101 203t-277 77q-112 0 -213.5 -42t-171.5 -119l-47 25q67 81 184 133t248 52
q212 0 329.5 -92.5t117.5 -242.5v-656h-67v208q-44 -100 -177 -171.5t-298 -71.5q-182 0 -290 69.5t-108 181.5zM453 1162l257 319h122l-307 -319h-72z" />
    <glyph glyph-name="acircumflex" unicode="&#xe2;" horiz-adv-x="1218" 
d="M179 220q0 -87 90.5 -147.5t242.5 -60.5q126 0 233 45.5t171 129t64 186.5v190q-141 -41 -390 -72q-215 -28 -313 -94.5t-98 -176.5zM109 216q0 260 478 320q291 36 393 76v50q0 126 -101 203t-277 77q-112 0 -213.5 -42t-171.5 -119l-47 25q67 81 184 133t248 52
q212 0 329.5 -92.5t117.5 -242.5v-656h-67v208q-44 -100 -177 -171.5t-298 -71.5q-182 0 -290 69.5t-108 181.5zM200 1162l360 292h72l363 -292h-86l-311 245l-311 -245h-87z" />
    <glyph glyph-name="atilde" unicode="&#xe3;" horiz-adv-x="1218" 
d="M179 220q0 -87 90.5 -147.5t242.5 -60.5q126 0 233 45.5t171 129t64 186.5v190q-141 -41 -390 -72q-215 -28 -313 -94.5t-98 -176.5zM109 216q0 260 478 320q291 36 393 76v50q0 126 -101 203t-277 77q-112 0 -213.5 -42t-171.5 -119l-47 25q67 81 184 133t248 52
q212 0 329.5 -92.5t117.5 -242.5v-656h-67v208q-44 -100 -177 -171.5t-298 -71.5q-182 0 -290 69.5t-108 181.5zM183 1220q27 66 94 114t157 48q86 0 190 -69q107 -69 158 -69q116 0 189 130l56 -19q-80 -158 -242 -158q-71 0 -129 33q-22 13 -61 38t-57.5 36t-47 20.5
t-56.5 9.5q-124 0 -192 -133z" />
    <glyph glyph-name="adieresis" unicode="&#xe4;" horiz-adv-x="1218" 
d="M179 220q0 -87 90.5 -147.5t242.5 -60.5q126 0 233 45.5t171 129t64 186.5v190q-141 -41 -390 -72q-215 -28 -313 -94.5t-98 -176.5zM109 216q0 260 478 320q291 36 393 76v50q0 126 -101 203t-277 77q-112 0 -213.5 -42t-171.5 -119l-47 25q67 81 184 133t248 52
q212 0 329.5 -92.5t117.5 -242.5v-656h-67v208q-44 -100 -177 -171.5t-298 -71.5q-182 0 -290 69.5t-108 181.5zM299 1238v135h165v-135h-165zM739 1238v135h165v-135h-165z" />
    <glyph glyph-name="aring" unicode="&#xe5;" horiz-adv-x="1218" 
d="M179 220q0 -87 90.5 -147.5t242.5 -60.5q126 0 233 45.5t171 129t64 186.5v190q-141 -41 -390 -72q-215 -28 -313 -94.5t-98 -176.5zM109 216q0 260 478 320q291 36 393 76v50q0 126 -101 203t-277 77q-112 0 -213.5 -42t-171.5 -119l-47 25q67 81 184 133t248 52
q212 0 329.5 -92.5t117.5 -242.5v-656h-67v208q-44 -100 -177 -171.5t-298 -71.5q-182 0 -290 69.5t-108 181.5zM320 1354q0 89 80 154.5t199 65.5q118 0 197.5 -64t79.5 -156t-79 -156t-198 -64q-117 0 -198 64.5t-81 155.5zM384 1354q0 -74 60.5 -125t154.5 -51
q95 0 154.5 49t59.5 127q0 73 -59.5 122.5t-154.5 49.5t-155 -50t-60 -122z" />
    <glyph glyph-name="ae" unicode="&#xe6;" horiz-adv-x="2067" 
d="M109 218q0 129 113 208t363 110q291 35 394 76v50q0 125 -100 202.5t-276 77.5q-238 0 -386 -161l-48 25q65 81 182 133t252 52q187 0 298 -75t130 -200q55 126 173.5 200.5t273.5 74.5q144 0 257.5 -67t173.5 -176.5t60 -237.5v-49h-923v-48q16 -175 133 -288t305 -113
q129 0 231 52.5t159 138.5l59 -21q-148 -217 -451 -217q-171 0 -292 82t-174 224q-44 -135 -186 -220.5t-323 -85.5q-182 0 -290 70.5t-108 182.5zM179 220q0 -87 89 -147.5t241 -60.5q127 0 234.5 45.5t171.5 129t64 186.5v190q-136 -41 -389 -72q-215 -26 -313 -92
t-98 -179zM1046 506h858q0 180 -120.5 308t-305.5 128q-179 0 -295 -113.5t-134 -280.5z" />
    <glyph glyph-name="ccedilla" unicode="&#xe7;" horiz-adv-x="1121" 
d="M105 479q0 225 133.5 368.5t360.5 143.5q135 0 239 -58.5t150 -152.5l-63 -17q-43 81 -130.5 130t-195.5 49q-190 0 -308 -129t-118 -334q0 -208 120 -337.5t306 -129.5q113 0 213 55t150 136l58 -18q-55 -95 -167 -157t-247 -63l-29 -92q123 -2 191.5 -41t68.5 -106
q0 -70 -76.5 -113t-200.5 -43q-111 0 -218 30v47q110 -33 220 -33q81 0 145 33t64 79q0 108 -271 108l42 134q-198 19 -317.5 156.5t-119.5 354.5z" />
    <glyph glyph-name="egrave" unicode="&#xe8;" horiz-adv-x="1198" 
d="M105 483q0 224 136.5 366t363.5 142q148 0 262.5 -66.5t173.5 -174.5t59 -238v-24q-3 -13 -3 -25h-924q0 -125 52.5 -227t154 -163t233.5 -61q124 0 231 54.5t165 137.5l58 -19q-68 -102 -184 -161t-270 -59q-233 0 -370.5 144.5t-137.5 373.5zM173 506h858
q0 119 -52 218t-150 158.5t-224 59.5q-139 0 -237 -67q-187 -128 -195 -369zM360 1481h122l257 -319h-72z" />
    <glyph glyph-name="eacute" unicode="&#xe9;" horiz-adv-x="1198" 
d="M105 483q0 224 136.5 366t363.5 142q148 0 262.5 -66.5t173.5 -174.5t59 -238v-24q-3 -13 -3 -25h-924q0 -125 52.5 -227t154 -163t233.5 -61q124 0 231 54.5t165 137.5l58 -19q-68 -102 -184 -161t-270 -59q-233 0 -370.5 144.5t-137.5 373.5zM173 506h858
q0 119 -52 218t-150 158.5t-224 59.5q-139 0 -237 -67q-187 -128 -195 -369zM446 1162l259 319h119l-305 -319h-73z" />
    <glyph glyph-name="ecircumflex" unicode="&#xea;" horiz-adv-x="1198" 
d="M105 483q0 224 136.5 366t363.5 142q148 0 262.5 -66.5t173.5 -174.5t59 -238v-24q-3 -13 -3 -25h-924q0 -125 52.5 -227t154 -163t233.5 -61q124 0 231 54.5t165 137.5l58 -19q-68 -102 -184 -161t-270 -59q-233 0 -370.5 144.5t-137.5 373.5zM173 506h858
q0 119 -52 218t-150 158.5t-224 59.5q-139 0 -237 -67q-187 -128 -195 -369zM210 1162l359 292h72l362 -292h-85l-311 245l-311 -245h-86z" />
    <glyph glyph-name="edieresis" unicode="&#xeb;" horiz-adv-x="1198" 
d="M467 1238h-165v135h165v-135zM105 483q0 224 136.5 366t363.5 142q148 0 262.5 -66.5t173.5 -174.5t59 -238v-24q-3 -13 -3 -25h-924q0 -125 52.5 -227t154 -163t233.5 -61q124 0 231 54.5t165 137.5l58 -19q-68 -102 -184 -161t-270 -59q-233 0 -370.5 144.5
t-137.5 373.5zM173 506h858q0 119 -52 218t-150 158.5t-224 59.5q-139 0 -237 -67q-187 -128 -195 -369zM741 1238v135h165v-135h-165z" />
    <glyph glyph-name="igrave" unicode="&#xec;" horiz-adv-x="508" 
d="M264 0h-71v956h71v-956zM-39 1481h122l256 -319h-72z" />
    <glyph glyph-name="iacute" unicode="&#xed;" horiz-adv-x="518" 
d="M302 0h-71v956h71v-956zM168 1162l259 319h120l-308 -319h-71z" />
    <glyph glyph-name="icircumflex" unicode="&#xee;" horiz-adv-x="643" 
d="M9 1162h-84l358 292h71l363 -292h-87l-310 245zM283 0v956h71v-956h-71z" />
    <glyph glyph-name="idieresis" unicode="&#xef;" horiz-adv-x="563" 
d="M147 1238h-167v135h167v-135zM250 0v956h71v-956h-71zM420 1238v135h164v-135h-164z" />
    <glyph glyph-name="eth" unicode="&#xf0;" horiz-adv-x="1209" 
d="M405 1025l-39 36l328 195q-142 85 -332 107l20 46q224 -31 369 -120l226 135l36 -39l-216 -127q155 -114 230.5 -311.5t75.5 -487.5q0 -221 -129.5 -357.5t-364.5 -136.5q-238 0 -371 135.5t-133 346.5q0 219 137 346t367 127q154 0 260.5 -61.5t153.5 -163.5
q-53 360 -282 529zM173 447q0 -196 118 -315.5t322 -119.5q193 0 305.5 119t112.5 322q0 190 -114.5 304.5t-303.5 114.5q-198 0 -319 -112.5t-121 -312.5z" />
    <glyph glyph-name="ntilde" unicode="&#xf1;" horiz-adv-x="1210" 
d="M169 1220q28 67 93 114.5t156 47.5q87 0 190 -69q106 -69 159 -69q118 0 187 130l58 -19q-85 -158 -243 -158q-71 0 -129 33q-19 11 -60 37.5t-59 36.5t-47 20t-56 10q-122 0 -192 -133zM177 0v956h64v-216h6q10 40 46 83.5t90 81t131 62t158 24.5q135 0 240 -67
q61 -38 95 -115.5t34 -186.5v-622h-71v605q0 337 -310 337q-105 0 -201.5 -48.5t-155.5 -130.5t-59 -174v-589h-67z" />
    <glyph glyph-name="ograve" unicode="&#xf2;" 
d="M173 479q0 -206 118 -336.5t314 -130.5q193 0 313 131.5t120 335.5t-121.5 333.5t-311.5 129.5q-191 0 -311.5 -129t-120.5 -334zM105 479q0 226 135.5 369t364.5 143q225 0 364 -143.5t139 -368.5q0 -222 -136.5 -368t-366.5 -146q-155 0 -270 69t-172.5 184.5
t-57.5 260.5zM350 1481h120l258 -319h-72z" />
    <glyph glyph-name="oacute" unicode="&#xf3;" 
d="M173 479q0 -206 118 -336.5t314 -130.5q193 0 313 131.5t120 335.5t-121.5 333.5t-311.5 129.5q-191 0 -311.5 -129t-120.5 -334zM105 479q0 226 135.5 369t364.5 143q225 0 364 -143.5t139 -368.5q0 -222 -136.5 -368t-366.5 -146q-155 0 -270 69t-172.5 184.5
t-57.5 260.5zM484 1162l257 319h122l-307 -319h-72z" />
    <glyph glyph-name="ocircumflex" unicode="&#xf4;" 
d="M296 1162h-86l359 292h72l362 -292h-85l-311 245zM105 479q0 226 135.5 369t364.5 143q225 0 364 -143.5t139 -368.5q0 -222 -136.5 -368t-366.5 -146q-155 0 -270 69t-172.5 184.5t-57.5 260.5zM173 479q0 -206 118 -336.5t314 -130.5q193 0 313 131.5t120 335.5
t-121.5 333.5t-311.5 129.5q-191 0 -311.5 -129t-120.5 -334z" />
    <glyph glyph-name="otilde" unicode="&#xf5;" 
d="M167 1220q30 67 96 114.5t156 47.5q85 0 189 -69q109 -69 159 -69q116 0 189 130l54 -19q-79 -158 -240 -158q-69 0 -129 33q-20 12 -60.5 37.5t-58.5 36t-47 20.5t-56 10q-127 0 -192 -133zM105 479q0 226 135.5 369t364.5 143q225 0 364 -143.5t139 -368.5
q0 -222 -136.5 -368t-366.5 -146q-155 0 -270 69t-172.5 184.5t-57.5 260.5zM173 479q0 -206 118 -336.5t314 -130.5q193 0 313 131.5t120 335.5t-121.5 333.5t-311.5 129.5q-191 0 -311.5 -129t-120.5 -334z" />
    <glyph glyph-name="odieresis" unicode="&#xf6;" 
d="M462 1238h-164v135h164v-135zM105 479q0 226 135.5 369t364.5 143q225 0 364 -143.5t139 -368.5q0 -222 -136.5 -368t-366.5 -146q-155 0 -270 69t-172.5 184.5t-57.5 260.5zM173 479q0 -206 118 -336.5t314 -130.5q193 0 313 131.5t120 335.5t-121.5 333.5t-311.5 129.5
q-191 0 -311.5 -129t-120.5 -334zM737 1238v135h165v-135h-165z" />
    <glyph glyph-name="divide" unicode="&#xf7;" horiz-adv-x="1516" 
d="M846 929h-176v139h176v-139zM207 640v51h1102v-51h-1102zM670 265v139h176v-139h-176z" />
    <glyph glyph-name="oslash" unicode="&#xf8;" 
d="M105 479q0 226 136.5 369t365.5 143q141 0 257 -64l84 137h62l-99 -168q197 -140 197 -417q0 -145 -58.5 -260.5t-173.5 -184.5t-269 -69q-132 0 -233 49l-81 -134h-63l97 160q-105 66 -163.5 183.5t-58.5 255.5zM173 479q0 -264 184 -390l480 790q-105 63 -230 63
q-191 0 -312.5 -129t-121.5 -334zM403 59q100 -47 204 -47q193 0 313 131.5t120 335.5q0 236 -162 368z" />
    <glyph glyph-name="ugrave" unicode="&#xf9;" horiz-adv-x="1191" 
d="M169 326v630h67v-605q0 -156 77.5 -247.5t242.5 -91.5q188 0 294.5 111.5t106.5 280.5v552h65v-956h-65v208q-22 -96 -134 -169.5t-283 -73.5q-179 0 -275 98t-96 263zM343 1481h119l259 -319h-73z" />
    <glyph glyph-name="uacute" unicode="&#xfa;" horiz-adv-x="1191" 
d="M169 326v630h67v-605q0 -156 77.5 -247.5t242.5 -91.5q188 0 294.5 111.5t106.5 280.5v552h65v-956h-65v208q-22 -96 -134 -169.5t-283 -73.5q-179 0 -275 98t-96 263zM478 1162l258 319h119l-305 -319h-72z" />
    <glyph glyph-name="ucircumflex" unicode="&#xfb;" horiz-adv-x="1196" 
d="M169 326v630h67v-605q0 -156 77.5 -247.5t242.5 -91.5q188 0 294.5 111.5t106.5 280.5v552h65v-956h-65v208q-22 -96 -134 -169.5t-283 -73.5q-179 0 -275 98t-96 263zM234 1162l359 292h73l361 -292h-86l-310 245l-312 -245h-85z" />
    <glyph glyph-name="udieresis" unicode="&#xfc;" horiz-adv-x="1191" 
d="M475 1238h-164v135h164v-135zM169 326v630h67v-605q0 -156 77.5 -247.5t242.5 -91.5q188 0 294.5 111.5t106.5 280.5v552h65v-956h-65v208q-22 -96 -134 -169.5t-283 -73.5q-179 0 -275 98t-96 263zM748 1238v135h166v-135h-166z" />
    <glyph glyph-name="yacute" unicode="&#xfd;" horiz-adv-x="1130" 
d="M412 1162l257 319h121l-307 -319h-71zM77 956h80l411 -934h4l404 934h78l-513 -1154q-59 -133 -130 -192t-167 -59h-50v49h41q159 0 246 218l54 131z" />
    <glyph glyph-name="thorn" unicode="&#xfe;" horiz-adv-x="1226" 
d="M235 482q3 -210 116 -340t289 -130q187 0 301.5 126.5t114.5 340.5q0 207 -111.5 335t-304.5 128q-170 0 -288.5 -131t-116.5 -329zM169 -449v1860h69v-701q47 127 158.5 204t248.5 77q216 0 345.5 -140t129.5 -372q0 -242 -132 -378t-346 -136q-142 0 -248.5 76
t-155.5 198v-688h-69z" />
    <glyph glyph-name="ydieresis" unicode="&#xff;" horiz-adv-x="1130" 
d="M424 1238h-165v135h165v-135zM77 956h80l411 -934h4l404 934h78l-513 -1154q-59 -133 -130 -192t-167 -59h-50v49h41q159 0 246 218l54 131zM697 1238v135h165v-135h-165z" />
    <glyph glyph-name="Amacron" unicode="&#x100;" horiz-adv-x="1464" 
d="M374 1652v45h706v-45h-706zM45 0l640 1352h93l640 -1352h-80l-207 447h-798l-210 -447h-78zM356 494h751l-374 804h-5z" />
    <glyph glyph-name="amacron" unicode="&#x101;" horiz-adv-x="1218" 
d="M959 1258h-706v45h706v-45zM109 216q0 260 478 320q291 36 393 76v50q0 126 -101 203t-277 77q-112 0 -213.5 -42t-171.5 -119l-47 25q67 81 184 133t248 52q212 0 329.5 -92.5t117.5 -242.5v-656h-67v208q-44 -100 -177 -171.5t-298 -71.5q-182 0 -290 69.5t-108 181.5z
M179 220q0 -87 90.5 -147.5t242.5 -60.5q126 0 233 45.5t171 129t64 186.5v190q-141 -41 -390 -72q-215 -28 -313 -94.5t-98 -176.5z" />
    <glyph glyph-name="Abreve" unicode="&#x102;" horiz-adv-x="1464" 
d="M456 1784q1 -88 83.5 -151t191.5 -63q110 0 189.5 64t84.5 150h68q-10 -111 -103 -186t-239 -75t-239.5 75t-103.5 186h68zM45 0l640 1352h93l640 -1352h-80l-207 447h-798l-210 -447h-78zM356 494h751l-374 804h-5z" />
    <glyph glyph-name="abreve" unicode="&#x103;" horiz-adv-x="1218" 
d="M179 220q0 -87 90.5 -147.5t242.5 -60.5q126 0 233 45.5t171 129t64 186.5v190q-141 -41 -390 -72q-215 -28 -313 -94.5t-98 -176.5zM109 216q0 260 478 320q291 36 393 76v50q0 126 -101 203t-277 77q-112 0 -213.5 -42t-171.5 -119l-47 25q67 81 184 133t248 52
q212 0 329.5 -92.5t117.5 -242.5v-656h-67v208q-44 -100 -177 -171.5t-298 -71.5q-182 0 -290 69.5t-108 181.5zM255 1421h68q2 -88 84.5 -151t191.5 -63q110 0 189.5 63.5t85.5 150.5h67q-9 -111 -102 -186t-240 -75q-146 0 -240 75t-104 186z" />
    <glyph glyph-name="Aogonek" unicode="&#x104;" horiz-adv-x="1399" 
d="M1411 0q-258 -138 -258 -233q0 -79 126 -79q62 0 146 29v-46q-73 -26 -153 -26q-183 0 -183 118q0 62 75 127.5t177 109.5h-3l-207 447h-798l-210 -447h-78l640 1352h93l640 -1352h-7zM356 494h751l-374 804h-5z" />
    <glyph glyph-name="aogonek" unicode="&#x105;" horiz-adv-x="1161" 
d="M179 220q0 -87 90.5 -147.5t242.5 -60.5q126 0 233 45.5t171 129t64 186.5v190q-141 -41 -390 -72q-215 -28 -313 -94.5t-98 -176.5zM109 216q0 260 478 320q291 36 393 76v50q0 126 -101 203t-277 77q-112 0 -213.5 -42t-171.5 -119l-47 25q67 81 184 133t248 52
q212 0 329.5 -92.5t117.5 -242.5v-656q-257 -138 -257 -233q0 -79 125 -79q63 0 147 29v-46q-73 -26 -154 -26q-183 0 -183 118q0 62 75 127.5t178 109.5h2v208q-44 -100 -177 -171.5t-298 -71.5q-182 0 -290 69.5t-108 181.5z" />
    <glyph glyph-name="Cacute" unicode="&#x106;" horiz-adv-x="1423" 
d="M123 677q0 331 180.5 521t481.5 190q172 0 295.5 -76t180.5 -188l-61 -23q-58 104 -164 169.5t-251 65.5q-269 0 -430 -179.5t-161 -479.5q0 -303 163 -482t428 -179q159 0 275 66.5t182 180.5l64 -18q-160 -280 -521 -280q-301 0 -481.5 191.5t-180.5 520.5zM667 1523
l257 319h120l-306 -319h-71z" />
    <glyph glyph-name="cacute" unicode="&#x107;" horiz-adv-x="1121" 
d="M577 1162h-71l257 319h121zM105 479q0 225 133.5 368.5t360.5 143.5q135 0 239 -58.5t150 -152.5l-63 -17q-43 81 -130.5 130t-195.5 49q-190 0 -308 -129t-118 -334q0 -208 120 -337.5t306 -129.5q113 0 213 55t150 136l58 -18q-56 -96 -169.5 -158t-251.5 -62
q-220 0 -357 140.5t-137 373.5z" />
    <glyph glyph-name="Cdotaccent" unicode="&#x10a;" horiz-adv-x="1423" 
d="M123 677q0 331 180.5 521t481.5 190q172 0 295.5 -76t180.5 -188l-61 -23q-58 104 -164 169.5t-251 65.5q-269 0 -430 -179.5t-161 -479.5q0 -303 163 -482t428 -179q159 0 275 66.5t182 180.5l64 -18q-160 -280 -521 -280q-301 0 -481.5 191.5t-180.5 520.5zM709 1607
v136h161v-136h-161z" />
    <glyph glyph-name="cdotaccent" unicode="&#x10b;" horiz-adv-x="1121" 
d="M685 1238h-161v136h161v-136zM105 479q0 225 133.5 368.5t360.5 143.5q135 0 239 -58.5t150 -152.5l-63 -17q-43 81 -130.5 130t-195.5 49q-190 0 -308 -129t-118 -334q0 -208 120 -337.5t306 -129.5q113 0 213 55t150 136l58 -18q-56 -96 -169.5 -158t-251.5 -62
q-220 0 -357 140.5t-137 373.5z" />
    <glyph glyph-name="Ccaron" unicode="&#x10c;" horiz-adv-x="1423" 
d="M123 677q0 331 180.5 521t481.5 190q172 0 295.5 -76t180.5 -188l-61 -23q-58 104 -164 169.5t-251 65.5q-269 0 -430 -179.5t-161 -479.5q0 -303 163 -482t428 -179q159 0 275 66.5t182 180.5l64 -18q-160 -280 -521 -280q-301 0 -481.5 191.5t-180.5 520.5zM396 1814
h86l308 -240l311 240h85l-358 -291h-75z" />
    <glyph glyph-name="ccaron" unicode="&#x10d;" horiz-adv-x="1121" 
d="M105 479q0 225 133.5 368.5t360.5 143.5q135 0 239 -58.5t150 -152.5l-63 -17q-43 81 -130.5 130t-195.5 49q-190 0 -308 -129t-118 -334q0 -208 120 -337.5t306 -129.5q113 0 213 55t150 136l58 -18q-56 -96 -169.5 -158t-251.5 -62q-220 0 -357 140.5t-137 373.5z
M228 1452h89l306 -240l310 240h87l-357 -290h-78z" />
    <glyph glyph-name="Dcaron" unicode="&#x10e;" horiz-adv-x="1461" 
d="M603 0h-404v1352h403q347 0 541.5 -171t194.5 -504q0 -331 -193.5 -504t-541.5 -173zM249 1814h88l307 -240l311 240h84l-355 -291h-78zM266 50h305q334 0 514.5 154.5t180.5 472.5q0 624 -689 624h-311v-1251z" />
    <glyph glyph-name="dcaron" unicode="&#x10f;" horiz-adv-x="1789" 
d="M105 480q0 236 130 373.5t346 137.5q146 0 255.5 -81t151.5 -203v704h67v-1411h-66v232q-48 -120 -154.5 -193.5t-254.5 -73.5q-98 0 -183.5 33t-151 96t-103 162.5t-37.5 223.5zM173 480q0 -211 112 -339.5t300 -128.5q175 0 289.5 126.5t114.5 341.5q0 105 -33 193
t-88.5 146.5t-129 90.5t-154.5 32q-186 0 -298.5 -125.5t-112.5 -336.5zM1118 1068l126 329h103l-169 -329h-60z" />
    <glyph glyph-name="Dcroat" unicode="&#x110;" horiz-adv-x="1447" 
d="M589 0h-404v673h-252v49h252v630h403q347 0 541.5 -171t194.5 -504q0 -331 -193.5 -504t-541.5 -173zM252 50h305q334 0 514.5 154.5t180.5 472.5q0 624 -689 624h-311v-579h436v-49h-436v-623z" />
    <glyph glyph-name="dcroat" unicode="&#x111;" horiz-adv-x="1198" 
d="M105 479q0 238 130 375t346 137q146 0 255.5 -81t151.5 -203v476h-522v46h522v182h67v-182h183v-46h-183v-1183h-67v232q-48 -120 -154 -193.5t-254 -73.5q-98 0 -183 33t-151 95.5t-103.5 161.5t-37.5 224zM173 479q0 -212 113 -339.5t303 -127.5q173 0 286 126t114 341
q4 207 -115 335t-290 128q-183 0 -297 -126.5t-114 -336.5z" />
    <glyph glyph-name="Emacron" unicode="&#x112;" horiz-adv-x="1333" 
d="M1206 0h-1007v1352h975v-51h-908v-575h821v-47h-821v-629h940v-50zM352 1654v45h707v-45h-707z" />
    <glyph glyph-name="emacron" unicode="&#x113;" horiz-adv-x="1198" 
d="M105 483q0 224 136.5 366t363.5 142q148 0 262.5 -66.5t173.5 -174.5t59 -238v-24q-3 -13 -3 -25h-924q0 -125 52.5 -227t154 -163t233.5 -61q124 0 231 54.5t165 137.5l58 -19q-68 -102 -184 -161t-270 -59q-233 0 -370.5 144.5t-137.5 373.5zM173 506h858
q0 119 -52 218t-150 158.5t-224 59.5q-139 0 -237 -67q-187 -128 -195 -369zM252 1258v45h705v-45h-705z" />
    <glyph glyph-name="Edotaccent" unicode="&#x116;" horiz-adv-x="1333" 
d="M1206 0h-1007v1352h975v-51h-908v-575h821v-47h-821v-629h940v-50zM649 1607v136h163v-136h-163z" />
    <glyph glyph-name="edotaccent" unicode="&#x117;" horiz-adv-x="1198" 
d="M685 1238h-161v136h161v-136zM105 483q0 224 136.5 366t363.5 142q148 0 262.5 -66.5t173.5 -174.5t59 -238v-24q-3 -13 -3 -25h-924q0 -125 52.5 -227t154 -163t233.5 -61q124 0 231 54.5t165 137.5l58 -19q-68 -102 -184 -161t-270 -59q-233 0 -370.5 144.5
t-137.5 373.5zM173 506h858q0 119 -52 218t-150 158.5t-224 59.5q-139 0 -237 -67q-187 -128 -195 -369z" />
    <glyph glyph-name="Eogonek" unicode="&#x118;" horiz-adv-x="1262" 
d="M904 0q-256 -139 -256 -233q0 -79 124 -79q63 0 147 29v-46q-73 -26 -153 -26q-183 0 -183 118q0 62 75 127.5t177 109.5h-636v1352h975v-51h-908v-575h821v-47h-821v-629h940v-50h-302z" />
    <glyph glyph-name="eogonek" unicode="&#x119;" horiz-adv-x="1198" 
d="M105 483q0 224 136.5 366t363.5 142q148 0 262.5 -66.5t173.5 -174.5t59 -238v-24q-3 -13 -3 -25h-924q0 -125 52.5 -227t154 -163t233.5 -61q124 0 231 54.5t165 137.5l58 -19q-57 -87 -151.5 -143.5t-217.5 -71.5q-207 -118 -207 -205q0 -78 125 -78q66 0 147 29v-47
q-72 -26 -154 -26q-182 0 -182 118q0 52 52.5 106.5t133.5 97.5q-233 0 -370.5 144.5t-137.5 373.5zM173 506h858q0 119 -52 218t-150 158.5t-224 59.5q-139 0 -237 -67q-187 -128 -195 -369z" />
    <glyph glyph-name="Ecaron" unicode="&#x11a;" horiz-adv-x="1333" 
d="M1206 0h-1007v1352h975v-51h-908v-575h821v-47h-821v-629h940v-50zM266 1814h86l308 -240l310 240h87l-358 -291h-76z" />
    <glyph glyph-name="ecaron" unicode="&#x11b;" horiz-adv-x="1198" 
d="M105 483q0 224 136.5 366t363.5 142q148 0 262.5 -66.5t173.5 -174.5t59 -238v-24q-3 -13 -3 -25h-924q0 -125 52.5 -227t154 -163t233.5 -61q124 0 231 54.5t165 137.5l58 -19q-68 -102 -184 -161t-270 -59q-233 0 -370.5 144.5t-137.5 373.5zM173 506h858
q0 119 -52 218t-150 158.5t-224 59.5q-139 0 -237 -67q-187 -128 -195 -369zM205 1452h88l306 -240l312 240h85l-357 -290h-77z" />
    <glyph glyph-name="Gbreve" unicode="&#x11e;" horiz-adv-x="1519" 
d="M123 677q0 326 180 518.5t502 192.5q174 0 303 -71t195 -181l-59 -20q-143 220 -439 220q-192 0 -331 -83t-209.5 -231t-70.5 -345q0 -304 163 -482.5t446 -178.5q177 0 295 76q216 134 216 414v140h-534v50h602v-696h-61l-3 279q-49 -142 -179 -228t-338 -86
q-319 0 -498.5 192t-179.5 520zM434 1784h68q2 -88 84 -151t192 -63t189 63.5t85 150.5h68q-11 -111 -104 -186t-238 -75q-147 0 -241 75t-103 186z" />
    <glyph glyph-name="gbreve" unicode="&#x11f;" 
d="M173 494q0 -200 111.5 -324.5t287.5 -124.5q186 0 292.5 121t106.5 333q0 198 -109.5 320.5t-284.5 122.5q-188 0 -296 -123.5t-108 -324.5zM105 494q0 223 127 360t340 137q148 0 249 -73.5t150 -187.5v226h67v-885q0 -273 -107 -400.5t-347 -127.5q-118 0 -221.5 42
t-170.5 113l53 29q138 -135 339 -135q206 0 296.5 114.5t90.5 354.5v190q-109 -255 -396 -255q-212 0 -341 138.5t-129 359.5zM247 1421h67q2 -89 84.5 -151.5t192.5 -62.5q109 0 189 64t84 150h68q-9 -111 -102 -186t-239 -75q-147 0 -240.5 75t-103.5 186z" />
    <glyph glyph-name="Gdotaccent" unicode="&#x120;" horiz-adv-x="1519" 
d="M123 677q0 326 180 518.5t502 192.5q174 0 303 -71t195 -181l-59 -20q-143 220 -439 220q-192 0 -331 -83t-209.5 -231t-70.5 -345q0 -304 163 -482.5t446 -178.5q177 0 295 76q216 134 216 414v140h-534v50h602v-696h-61l-3 279q-49 -142 -179 -228t-338 -86
q-319 0 -498.5 192t-179.5 520zM711 1607v136h162v-136h-162z" />
    <glyph glyph-name="gdotaccent" unicode="&#x121;" 
d="M173 494q0 -200 111.5 -324.5t287.5 -124.5q186 0 292.5 121t106.5 333q0 198 -109.5 320.5t-284.5 122.5q-188 0 -296 -123.5t-108 -324.5zM105 494q0 223 127 360t340 137q148 0 249 -73.5t150 -187.5v226h67v-885q0 -273 -107 -400.5t-347 -127.5q-118 0 -221.5 42
t-170.5 113l53 29q138 -135 339 -135q206 0 296.5 114.5t90.5 354.5v190q-109 -255 -396 -255q-212 0 -341 138.5t-129 359.5zM537 1238v136h162v-136h-162z" />
    <glyph glyph-name="uni0122" unicode="&#x122;" horiz-adv-x="1519" 
d="M123 677q0 326 180 518.5t502 192.5q174 0 303 -71t195 -181l-59 -20q-143 220 -439 220q-192 0 -331 -83t-209.5 -231t-70.5 -345q0 -304 163 -482.5t446 -178.5q177 0 295 76q216 134 216 414v140h-534v50h602v-696h-61l-3 279q-49 -142 -179 -228t-338 -86
q-319 0 -498.5 192t-179.5 520zM681 -451l126 330h103l-169 -330h-60z" />
    <glyph glyph-name="uni0123" unicode="&#x123;" 
d="M623 1166h-102l171 312h60zM105 494q0 222 127.5 359.5t339.5 137.5q150 0 250 -73.5t149 -187.5v226h67v-887q0 -273 -107.5 -399.5t-349.5 -126.5q-114 0 -220 42.5t-169 112.5l50 29q141 -135 342 -135q209 0 297 112.5t90 354.5v192q-110 -255 -399 -255
q-210 0 -338.5 138.5t-128.5 359.5zM173 494q0 -200 111.5 -324.5t287.5 -124.5q186 0 292.5 121t106.5 333q0 198 -109.5 320.5t-284.5 122.5q-185 0 -294.5 -124t-109.5 -324z" />
    <glyph glyph-name="Hbar" unicode="&#x126;" horiz-adv-x="1740" 
d="M317 1079h-216v47h216v226h67v-226h975v226h68v-226h214v-47h-214v-1079h-68v675h-975v-675h-67v1079zM384 722h975v357h-975v-357z" />
    <glyph glyph-name="hbar" unicode="&#x127;" horiz-adv-x="1163" 
d="M131 1202h-177v46h177v163h70v-163h504v-46h-504v-450h2q42 94 160 163.5t264 69.5q130 0 237 -65q61 -39 95.5 -116.5t34.5 -187.5v-616h-65v600q0 336 -315 336q-104 0 -199.5 -48.5t-154.5 -131t-59 -173.5v-583h-70v1202z" />
    <glyph glyph-name="Imacron" unicode="&#x12a;" horiz-adv-x="658" 
d="M681 1652h-706v45h706v-45zM290 0v1352h67v-1352h-67z" />
    <glyph glyph-name="imacron" unicode="&#x12b;" horiz-adv-x="593" 
d="M648 1256h-705v45h705v-45zM262 0v956h71v-956h-71z" />
    <glyph glyph-name="Iogonek" unicode="&#x12e;" horiz-adv-x="503" 
d="M362 0q-257 -139 -257 -233q0 -79 125 -79q62 0 146 29v-46q-73 -26 -152 -26q-185 0 -185 118q0 63 75.5 128t179.5 109v1352h67v-1352h1z" />
    <glyph glyph-name="iogonek" unicode="&#x12f;" horiz-adv-x="436" 
d="M359 1230h-156v143h156v-143zM-2 -237q0 63 75.5 128t179.5 109h-2v956h66v-956h4q-257 -139 -257 -233q0 -79 125 -79q62 0 146 29v-46q-73 -26 -152 -26q-185 0 -185 118z" />
    <glyph glyph-name="Idotaccent" unicode="&#x130;" horiz-adv-x="508" 
d="M288 0h-67v1352h67v-1352zM173 1607v136h162v-136h-162z" />
    <glyph glyph-name="dotlessi" unicode="&#x131;" horiz-adv-x="409" 
d="M240 0h-71v956h71v-956z" />
    <glyph glyph-name="IJ" unicode="&#x132;" horiz-adv-x="1643" 
d="M324 0h-67v1352h67v-1352zM625 173l64 20q46 -85 126.5 -133t170.5 -44q325 6 325 364v972h70v-991q0 -396 -389 -396q-258 0 -367 208z" />
    <glyph glyph-name="ij" unicode="&#x133;" horiz-adv-x="1102" 
d="M915 1230h-154v143h154v-143zM207 1230v143h156v-143h-156zM255 0v956h66v-956h-66zM509 -437v47h63q236 0 236 257v1089h66v-1097q0 -144 -74.5 -220t-213.5 -76h-77z" />
    <glyph glyph-name="uni0136" unicode="&#x136;" horiz-adv-x="1355" 
d="M266 0h-67v1352h67v-836h3l887 836h94l-613 -578l669 -774h-93l-625 730l-322 -302v-428zM534 -447l128 329h101l-168 -329h-61z" />
    <glyph glyph-name="uni0137" unicode="&#x137;" horiz-adv-x="1071" 
d="M240 0h-71v1411h71v-1042l639 587h90l-404 -375l466 -581h-82l-435 538l-274 -249v-289zM419 -447l128 329h101l-169 -329h-60z" />
    <glyph glyph-name="Lacute" unicode="&#x139;" horiz-adv-x="1257" 
d="M1155 0h-890v1352h67v-1302h823v-50zM199 1522l258 319h120l-306 -319h-72z" />
    <glyph glyph-name="lacute" unicode="&#x13a;" horiz-adv-x="517" 
d="M241 1522h-72l257 319h121zM233 0v1411h69v-1411h-69z" />
    <glyph glyph-name="uni013B" unicode="&#x13b;" horiz-adv-x="1191" 
d="M1089 0h-890v1352h67v-1302h823v-50zM481 -451l127 330h102l-169 -330h-60z" />
    <glyph glyph-name="uni013C" unicode="&#x13c;" horiz-adv-x="472" 
d="M272 0h-69v1411h69v-1411zM74 -451l127 330h102l-169 -330h-60z" />
    <glyph glyph-name="Lcaron" unicode="&#x13d;" horiz-adv-x="1720" 
d="M1089 0h-890v1352h67v-1302h823v-50zM463 1025l127 329h103l-170 -329h-60z" />
    <glyph glyph-name="lcaron" unicode="&#x13e;" horiz-adv-x="905" 
d="M238 0h-69v1411h69v-1411zM285 1068l128 329h103l-170 -329h-61z" />
    <glyph glyph-name="Lslash" unicode="&#x141;" horiz-adv-x="1309" 
d="M659 822l-286 -166v-606h823v-50h-890v618l-270 -155l-37 41l307 177v671h67v-636l250 144z" />
    <glyph glyph-name="lslash" unicode="&#x142;" horiz-adv-x="626" 
d="M640 854l-294 -168v-686h-69v647l-256 -148l-35 40l291 170v702h69v-663l258 147z" />
    <glyph glyph-name="Nacute" unicode="&#x143;" horiz-adv-x="1531" 
d="M662 1523l257 319h120l-305 -319h-72zM199 0v1352h84l977 -1265v1265h73v-1352h-88l-979 1270v-1270h-67z" />
    <glyph glyph-name="nacute" unicode="&#x144;" horiz-adv-x="1202" 
d="M236 0h-67v956h64v-216h6q10 40 46 83.5t90 81t131 62t158 24.5q135 0 240 -67q61 -38 95 -115.5t34 -186.5v-622h-71v605q0 337 -310 337q-105 0 -201.5 -48.5t-155.5 -130.5t-59 -174v-589zM499 1162l258 319h119l-305 -319h-72z" />
    <glyph glyph-name="uni0145" unicode="&#x145;" horiz-adv-x="1531" 
d="M634 -451l128 330h102l-170 -330h-60zM199 0v1352h84l977 -1265v1265h73v-1352h-88l-979 1270v-1270h-67z" />
    <glyph glyph-name="uni0146" unicode="&#x146;" horiz-adv-x="1202" 
d="M236 0h-67v956h64v-216h6q10 40 46 83.5t90 81t131 62t158 24.5q135 0 240 -67q61 -38 95 -115.5t34 -186.5v-622h-71v605q0 337 -310 337q-105 0 -201.5 -48.5t-155.5 -130.5t-59 -174v-589zM462 -451l127 330h103l-171 -330h-59z" />
    <glyph glyph-name="Ncaron" unicode="&#x147;" horiz-adv-x="1531" 
d="M487 1814l308 -240l311 240h85l-357 -291h-77l-357 291h87zM199 0v1352h84l977 -1265v1265h73v-1352h-88l-979 1270v-1270h-67z" />
    <glyph glyph-name="ncaron" unicode="&#x148;" horiz-adv-x="1202" 
d="M236 0h-67v956h64v-216h6q10 40 46 83.5t90 81t131 62t158 24.5q135 0 240 -67q61 -38 95 -115.5t34 -186.5v-622h-71v605q0 337 -310 337q-105 0 -201.5 -48.5t-155.5 -130.5t-59 -174v-589zM233 1452h86l307 -240l311 240h86l-358 -290h-76z" />
    <glyph glyph-name="Omacron" unicode="&#x14c;" horiz-adv-x="1524" 
d="M1109 1652h-705v45h705v-45zM123 677q0 323 172 517t466 194q295 0 467.5 -194.5t172.5 -518.5q0 -322 -172.5 -516t-467.5 -194t-466.5 195t-171.5 517zM194 677q0 -299 151 -480t416 -181q263 0 416.5 180t153.5 479q0 301 -155 481t-415 180t-413.5 -178.5
t-153.5 -480.5z" />
    <glyph glyph-name="omacron" unicode="&#x14d;" 
d="M977 1259h-708v46h708v-46zM105 479q0 226 135.5 369t364.5 143q225 0 364 -143.5t139 -368.5q0 -222 -136.5 -368t-366.5 -146q-155 0 -270 69t-172.5 184.5t-57.5 260.5zM173 479q0 -206 118 -336.5t314 -130.5q193 0 313 131.5t120 335.5t-121.5 333.5t-311.5 129.5
q-191 0 -311.5 -129t-120.5 -334z" />
    <glyph glyph-name="Ohungarumlaut" unicode="&#x150;" horiz-adv-x="1524" 
d="M123 677q0 323 172 517t466 194q295 0 467.5 -194.5t172.5 -518.5q0 -322 -172.5 -516t-467.5 -194t-466.5 195t-171.5 517zM194 677q0 -299 151 -480t416 -181q263 0 416.5 180t153.5 479q0 301 -155 481t-415 180t-413.5 -178.5t-153.5 -480.5zM504 1523l239 324h119
l-281 -324h-77zM792 1523l240 324h117l-281 -324h-76z" />
    <glyph glyph-name="ohungarumlaut" unicode="&#x151;" 
d="M173 479q0 -206 118 -336.5t314 -130.5q193 0 313 131.5t120 335.5t-121.5 333.5t-311.5 129.5q-191 0 -311.5 -129t-120.5 -334zM105 479q0 226 135.5 369t364.5 143q225 0 364 -143.5t139 -368.5q0 -222 -136.5 -368t-366.5 -146q-155 0 -270 69t-172.5 184.5
t-57.5 260.5zM384 1158l239 323h118l-280 -323h-77zM671 1158l240 323h120l-282 -323h-78z" />
    <glyph glyph-name="OE" unicode="&#x152;" horiz-adv-x="2060" 
d="M123 677q0 218 87 380t241 246.5t356 84.5q130 0 235 -36h883v-51h-821v-575h735v-47h-735v-629h828v-50h-882q-105 -35 -243 -35q-151 0 -277.5 49.5t-216.5 140.5t-140 225t-50 297zM194 677q0 -150 46 -274.5t127.5 -209t194.5 -131t245 -46.5q138 0 228 34v1246
q-92 40 -228 40q-275 0 -444 -181t-169 -478z" />
    <glyph glyph-name="oe" unicode="&#x153;" horiz-adv-x="2133" 
d="M173 479q0 -206 118 -336.5t314 -130.5q193 0 313 131.5t120 335.5t-121.5 333.5t-311.5 129.5q-191 0 -311.5 -129t-120.5 -334zM105 479q0 226 135.5 369t364.5 143q168 0 291.5 -83.5t176.5 -226.5q50 142 173.5 226t293.5 84q148 0 262.5 -66.5t173.5 -174.5t59 -238
q0 -13 -2 -24v-25h-925q0 -93 31 -175t87 -143.5t139 -97t182 -35.5q126 0 233 54.5t163 137.5l60 -19q-68 -103 -184.5 -161.5t-271.5 -58.5q-174 0 -297.5 84.5t-174.5 229.5q-53 -143 -175 -228.5t-295 -85.5q-155 0 -270 69t-172.5 184.5t-57.5 260.5zM1108 506h856
q0 119 -52 218t-149.5 158.5t-222.5 59.5q-137 0 -237 -67q-187 -129 -195 -369z" />
    <glyph glyph-name="Racute" unicode="&#x154;" horiz-adv-x="1379" 
d="M199 0v1352h609q224 0 352 -100.5t128 -259.5q0 -71 -24.5 -131t-66.5 -101t-93 -68t-108 -40q132 -35 187.5 -120t64.5 -218v1q3 -31 7.5 -79.5t6.5 -68.5t6.5 -50.5t9 -46.5t12.5 -34t19 -34l2 -2h-71q-25 47 -36.5 107t-26.5 205q-4 70 -25.5 124.5t-65 98.5
t-119.5 67.5t-180 23.5h-521v-626h-67zM266 677h539q196 0 304.5 84t108.5 230q0 139 -111.5 224.5t-321.5 85.5h-519v-624zM523 1523l257 319h121l-306 -319h-72z" />
    <glyph glyph-name="racute" unicode="&#x155;" horiz-adv-x="788" 
d="M236 0h-67v956h64v-180q36 89 129 152t234 63q94 0 178 -32v-51q-88 32 -178 32q-160 0 -260 -101.5t-100 -257.5v-581zM359 1162l258 319h120l-305 -319h-73z" />
    <glyph glyph-name="uni0156" unicode="&#x156;" horiz-adv-x="1379" 
d="M588 -451l127 330h102l-169 -330h-60zM199 0v1352h609q224 0 352 -100.5t128 -259.5q0 -71 -24.5 -131t-66.5 -101t-93 -68t-108 -40q132 -35 187.5 -120t64.5 -218v1q3 -31 7.5 -79.5t6.5 -68.5t6.5 -50.5t9 -46.5t12.5 -34t19 -34l2 -2h-71q-25 47 -36.5 107t-26.5 205
q-4 70 -25.5 124.5t-65 98.5t-119.5 67.5t-180 23.5h-521v-626h-67zM266 677h539q196 0 304.5 84t108.5 230q0 139 -111.5 224.5t-321.5 85.5h-519v-624z" />
    <glyph glyph-name="uni0157" unicode="&#x157;" horiz-adv-x="842" 
d="M266 0h-67v956h64v-180q36 89 129 152t234 63q94 0 178 -32v-51q-88 32 -178 32q-160 0 -260 -101.5t-100 -257.5v-581zM74 -451l127 330h103l-171 -330h-59z" />
    <glyph glyph-name="Rcaron" unicode="&#x158;" horiz-adv-x="1379" 
d="M263 1814h88l307 -240l312 240h85l-359 -291h-75zM199 0v1352h609q224 0 352 -100.5t128 -259.5q0 -71 -24.5 -131t-66.5 -101t-93 -68t-108 -40q132 -35 187.5 -120t64.5 -218v1q3 -31 7.5 -79.5t6.5 -68.5t6.5 -50.5t9 -46.5t12.5 -34t19 -34l2 -2h-71
q-25 47 -36.5 107t-26.5 205q-4 70 -25.5 124.5t-65 98.5t-119.5 67.5t-180 23.5h-521v-626h-67zM266 677h539q196 0 304.5 84t108.5 230q0 139 -111.5 224.5t-321.5 85.5h-519v-624z" />
    <glyph glyph-name="rcaron" unicode="&#x159;" horiz-adv-x="884" 
d="M258 0h-67v956h64v-180q36 89 129 152t234 63q94 0 178 -32v-51q-88 32 -178 32q-160 0 -260 -101.5t-100 -257.5v-581zM124 1452h89l306 -240l309 240h87l-358 -290h-77z" />
    <glyph glyph-name="Sacute" unicode="&#x15a;" horiz-adv-x="1368" 
d="M585 1521l260 323h126l-309 -323h-77zM125 209l72 26q73 -98 206.5 -157.5t290.5 -59.5q142 0 249.5 33.5t172.5 106.5t65 178v2q0 49 -23 91t-63.5 75t-105 63t-136.5 54t-170 50q-80 21 -131 37q-78 24 -156 59q-79 32 -123 70q-47 39 -78 95.5t-31 121.5
q0 155 140.5 245.5t382.5 90.5q165 0 298 -62t201 -157l-64 -22q-68 85 -184 135t-256 50q-209 0 -333 -76t-124 -204q0 -61 33.5 -110.5t102.5 -89.5t153.5 -70.5t207.5 -64.5q106 -27 160 -44.5t128 -49.5q79 -32 123 -70q47 -39 78 -95.5t31 -121.5q0 -176 -144.5 -275.5
t-407.5 -99.5q-184 0 -328 65.5t-237 180.5z" />
    <glyph glyph-name="sacute" unicode="&#x15b;" horiz-adv-x="1078" 
d="M165 190q61 -81 160 -126.5t222 -45.5q158 0 254.5 56t96.5 146q0 39 -22.5 73.5t-52.5 55.5q-27 20 -96 44q-78 27 -170 51q-7 1 -51 13q-92 22 -144 39.5t-108 49.5q-124 63 -124 192q0 119 117 189t300 70q131 0 241 -55t162 -139l-63 -31q-52 75 -140.5 119.5
t-199.5 44.5q-151 0 -244.5 -55t-93.5 -143t81 -140t246 -89q16 -4 44 -10q123 -30 194 -58q79 -35 106 -53q42 -30 69.5 -75t27.5 -93q0 -114 -114 -187.5t-316 -73.5q-303 0 -445 200zM392 1156l267 331h138l-318 -331h-87z" />
    <glyph glyph-name="Scedilla" unicode="&#x15e;" horiz-adv-x="1368" 
d="M470 -348q119 -35 222 -35q80 0 143.5 33t63.5 77q0 106 -272 106l40 130q-175 4 -313.5 69.5t-228.5 176.5l72 26q73 -98 206.5 -157.5t290.5 -59.5q142 0 249.5 33.5t172.5 106.5t65 178v2q0 49 -23 91t-63.5 75t-105 63t-136.5 54t-170 50q-80 21 -131 37
q-78 24 -156 59q-79 32 -123 70q-47 39 -78 95.5t-31 121.5q0 155 140.5 245.5t382.5 90.5q165 0 298 -62t201 -157l-64 -22q-68 85 -184 135t-256 50q-209 0 -333 -76t-124 -204q0 -61 33.5 -110.5t102.5 -89.5t153.5 -70.5t207.5 -64.5q106 -27 160 -44.5t128 -49.5
q79 -32 123 -70q47 -39 78 -95.5t31 -121.5q0 -168 -132 -266.5t-373 -107.5l-27 -88q122 -2 190 -41.5t68 -107.5q0 -70 -77 -113t-201 -43q-115 0 -220 29v52z" />
    <glyph glyph-name="scedilla" unicode="&#x15f;" horiz-adv-x="1078" 
d="M307 -345q112 -35 225 -35q79 0 141.5 31.5t62.5 74.5q0 103 -275 102l42 132q-269 13 -401 199l63 31q61 -81 160 -126.5t222 -45.5q159 0 262 57t103 145q1 81 -96 134t-310 103q-92 22 -144 39.5t-108 49.5q-124 63 -124 192q0 119 117 189t300 70q131 0 240.5 -55
t161.5 -139l-52 -30q-51 74 -144.5 119.5t-205.5 45.5q-153 0 -253.5 -56.5t-100.5 -142.5q0 -89 85 -139.5t296 -99.5q184 -44 278 -97q123 -62 125 -183q0 -109 -105.5 -181.5t-292.5 -79.5l-24 -80q122 -4 190 -44t68 -109q0 -72 -79 -117t-204 -45q-110 0 -223 31v60z
" />
    <glyph glyph-name="Scaron" unicode="&#x160;" horiz-adv-x="1368" 
d="M374 1816l305 -239l308 239h95l-363 -295h-80l-362 295h97zM125 209l72 26q73 -98 206.5 -157.5t290.5 -59.5q142 0 249.5 33.5t172.5 106.5t65 178v2q0 49 -23 91t-63.5 75t-105 63t-136.5 54t-170 50q-80 21 -131 37q-78 24 -156 59q-79 32 -123 70q-47 39 -78 95.5
t-31 121.5q0 155 140.5 245.5t382.5 90.5q165 0 298 -62t201 -157l-64 -22q-68 85 -184 135t-256 50q-209 0 -333 -76t-124 -204q0 -61 33.5 -110.5t102.5 -89.5t153.5 -70.5t207.5 -64.5q106 -27 160 -44.5t128 -49.5q79 -32 123 -70q47 -39 78 -95.5t31 -121.5
q0 -176 -144.5 -275.5t-407.5 -99.5q-184 0 -328 65.5t-237 180.5z" />
    <glyph glyph-name="scaron" unicode="&#x161;" horiz-adv-x="1078" 
d="M224 1458l306 -238l309 238h104l-373 -302h-79l-372 302h105zM102 159l63 31q61 -81 160 -126.5t222 -45.5q159 0 262 57t103 145q1 81 -96 134t-310 103q-92 22 -144 39.5t-108 49.5q-124 63 -124 192q0 119 117 189t300 70q131 0 240.5 -55t161.5 -139l-52 -30
q-51 74 -144.5 119.5t-205.5 45.5q-153 0 -253.5 -56.5t-100.5 -142.5q0 -89 85 -139.5t296 -99.5q184 -44 278 -97q123 -62 125 -183q0 -114 -114 -187.5t-316 -73.5q-303 0 -445 200z" />
    <glyph glyph-name="uni0162" unicode="&#x162;" horiz-adv-x="1325" 
d="M629 1301h-528v51h1125v-51h-527v-1301h-7l-34 -116q121 -1 190 -41t69 -106q0 -69 -76.5 -112t-200.5 -43q-116 0 -218 30v47q112 -34 222 -34q81 0 144.5 33t63.5 79q0 108 -272 108l49 159v1297z" />
    <glyph glyph-name="uni0163" unicode="&#x163;" horiz-adv-x="797" 
d="M303 908h-228v48h228v332h73v-332h286v-48h-286v-655q0 -109 51.5 -157.5t166.5 -48.5h70v-47h-79q-19 0 -45 2l-30 -98q111 -10 171 -52t60 -108q0 -68 -62.5 -109.5t-174.5 -41.5q-98 0 -180 19v45q89 -22 183 -22q75 0 121.5 30.5t46.5 78.5q0 111 -243 126l43 142
q-172 39 -172 230v666z" />
    <glyph glyph-name="Tcaron" unicode="&#x164;" horiz-adv-x="1325" 
d="M629 1301h-528v51h1125v-51h-527v-1301h-70v1301zM268 1814h87l307 -240l311 240h85l-357 -291h-78z" />
    <glyph glyph-name="tcaron" unicode="&#x165;" horiz-adv-x="1298" 
d="M303 908h-228v48h228v332h73v-332h317v-48h-317v-655q0 -109 52 -158.5t166 -47.5l99 3v-50h-108q-138 -3 -210 58t-72 184v666zM455 1064l127 327h103l-169 -327h-61z" />
    <glyph glyph-name="Umacron" unicode="&#x16a;" horiz-adv-x="1511" 
d="M1126 1652h-705v45h705v-45zM199 461v891h67v-881q0 -219 128 -337t359 -118q233 0 361 118.5t128 336.5v881h70v-891q0 -239 -143.5 -367.5t-415.5 -128.5q-266 0 -410 128t-144 368z" />
    <glyph glyph-name="umacron" unicode="&#x16b;" horiz-adv-x="1191" 
d="M945 1259h-707v46h707v-46zM169 326v630h67v-605q0 -156 77.5 -247.5t242.5 -91.5q188 0 294.5 111.5t106.5 280.5v552h65v-956h-65v208q-22 -96 -134 -169.5t-283 -73.5q-179 0 -275 98t-96 263z" />
    <glyph glyph-name="Uring" unicode="&#x16e;" horiz-adv-x="1511" 
d="M492 1670q0 90 80 155t198 65t197.5 -63.5t79.5 -156.5q0 -91 -78 -155.5t-199 -64.5q-117 0 -197.5 65t-80.5 155zM199 461v891h67v-881q0 -219 128 -337t359 -118q233 0 361 118.5t128 336.5v881h70v-891q0 -239 -143.5 -367.5t-415.5 -128.5q-266 0 -410 128t-144 368
zM555 1670q0 -73 61 -124t154 -51q96 0 155.5 49t59.5 126q0 74 -59.5 124t-155.5 50q-95 0 -155 -50.5t-60 -123.5z" />
    <glyph glyph-name="uring" unicode="&#x16f;" horiz-adv-x="1191" 
d="M322 1389q0 90 80.5 155t198.5 65q119 0 198.5 -63.5t79.5 -156.5q0 -90 -79 -155t-199 -65q-116 0 -197.5 65.5t-81.5 154.5zM169 326v630h67v-605q0 -156 77.5 -247.5t242.5 -91.5q188 0 294.5 111.5t106.5 280.5v552h65v-956h-65v208q-22 -96 -134 -169.5t-283 -73.5
q-179 0 -275 98t-96 263zM387 1389q0 -73 61 -124t153 -51q96 0 155 49t59 126q0 75 -58.5 125t-155.5 50q-94 0 -154 -51t-60 -124z" />
    <glyph glyph-name="Uhungarumlaut" unicode="&#x170;" horiz-adv-x="1511" 
d="M199 461v891h67v-881q0 -219 128 -337t359 -118q233 0 361 118.5t128 336.5v881h70v-891q0 -239 -143.5 -367.5t-415.5 -128.5q-266 0 -410 128t-144 368zM490 1523l240 324h117l-280 -324h-77zM778 1523l239 324h118l-280 -324h-77z" />
    <glyph glyph-name="uhungarumlaut" unicode="&#x171;" horiz-adv-x="1191" 
d="M169 326v630h67v-605q0 -156 77.5 -247.5t242.5 -91.5q188 0 294.5 111.5t106.5 280.5v552h65v-956h-65v208q-22 -96 -134 -169.5t-283 -73.5q-179 0 -275 98t-96 263zM328 1158l240 323h117l-280 -323h-77zM616 1158l239 323h118l-280 -323h-77z" />
    <glyph glyph-name="Uogonek" unicode="&#x172;" horiz-adv-x="1511" 
d="M199 461v891h67v-881q0 -219 128 -337t359 -118q233 0 361 118.5t128 336.5v881h70v-891q0 -221 -125.5 -349t-362.5 -144q-203 -118 -203 -203q0 -78 124 -78q67 0 147 29v-47q-75 -26 -154 -26q-183 0 -183 118q0 52 52.5 106t134.5 98q-261 3 -402 130.5t-141 365.5z
" />
    <glyph glyph-name="uogonek" unicode="&#x173;" horiz-adv-x="1137" 
d="M169 326v630h67v-605q0 -156 77.5 -247.5t242.5 -91.5q188 0 294.5 111.5t106.5 280.5v552h65v-956h2q-256 -138 -256 -233q0 -79 124 -79q60 0 147 29v-46q-73 -26 -153 -26q-183 0 -183 118q0 62 75 127.5t177 109.5h2v208q-22 -96 -134 -169.5t-283 -73.5
q-179 0 -275 98t-96 263z" />
    <glyph glyph-name="Wcircumflex" unicode="&#x174;" horiz-adv-x="1902" 
d="M451 0l-414 1352h80l302 -1020q20 -68 73 -267h6q5 17 24 76.5t35 111.5t24 79l324 1020h91l325 -1020l43 -134q25 -83 42 -133h6q45 183 72 267l301 1020h80l-412 -1352h-87l-324 1000q-54 160 -87 287h-5q-15 -54 -88 -287l-323 -1000h-88zM555 1523l361 293h71
l362 -293h-85l-311 245l-312 -245h-86z" />
    <glyph glyph-name="wcircumflex" unicode="&#x175;" horiz-adv-x="1648" 
d="M420 1162l361 292h72l360 -292h-84l-310 245l-313 -245h-86zM77 956h80l303 -906h8l311 906h87l316 -905h2l307 905h79l-341 -956h-91l-312 896h-7l-310 -896h-93z" />
    <glyph glyph-name="Ycircumflex" unicode="&#x176;" horiz-adv-x="1349" 
d="M272 1523l359 293h72l363 -293h-87l-310 245l-312 -245h-85zM48 1352h85l540 -736h5l537 736h86l-589 -795v-557h-70v557z" />
    <glyph glyph-name="ycircumflex" unicode="&#x177;" horiz-adv-x="1130" 
d="M175 1162l360 292h71l363 -292h-86l-311 245l-310 -245h-87zM77 956h80l411 -934h4l404 934h78l-513 -1154q-59 -133 -130 -192t-167 -59h-50v49h41q159 0 246 218l54 131z" />
    <glyph glyph-name="Ydieresis" unicode="&#x178;" horiz-adv-x="1349" 
d="M373 1743h166v-134h-166v134zM48 1352h85l540 -736h5l537 736h86l-589 -795v-557h-70v557zM811 1609v134h165v-134h-165z" />
    <glyph glyph-name="Zacute" unicode="&#x179;" horiz-adv-x="1366" 
d="M130 0v47l1005 1254h-931v51h1010v-47l-1006 -1255h1034v-50h-1112zM569 1523l257 319h120l-306 -319h-71z" />
    <glyph glyph-name="zacute" unicode="&#x17a;" horiz-adv-x="1099" 
d="M994 0h-863v41l754 867h-697v48h778v-42l-750 -867h778v-47zM435 1162l258 319h120l-306 -319h-72z" />
    <glyph glyph-name="Zdotaccent" unicode="&#x17b;" horiz-adv-x="1366" 
d="M130 0v47l1005 1254h-931v51h1010v-47l-1006 -1255h1034v-50h-1112zM659 1607v136h162v-136h-162z" />
    <glyph glyph-name="zdotaccent" unicode="&#x17c;" horiz-adv-x="1099" 
d="M994 0h-863v41l754 867h-697v48h778v-42l-750 -867h778v-47zM507 1238v136h164v-136h-164z" />
    <glyph glyph-name="Zcaron" unicode="&#x17d;" horiz-adv-x="1366" 
d="M130 0v47l1005 1254h-931v51h1010v-47l-1006 -1255h1034v-50h-1112zM303 1814h89l306 -240l310 240h87l-357 -291h-77z" />
    <glyph glyph-name="zcaron" unicode="&#x17e;" horiz-adv-x="1099" 
d="M994 0h-863v41l754 867h-697v48h778v-42l-750 -867h778v-47zM185 1452h88l306 -240l310 240h87l-358 -290h-76z" />
    <glyph glyph-name="uni018F" unicode="&#x18f;" horiz-adv-x="1480" 
d="M112 590q0 7 0.5 26.5t0.5 30.5q3 22 3 44h1180q-6 276 -135 453q-144 192 -455 192q-325 0 -479 -235l-60 21q72 122 213 194t326 72q227 0 382 -97q147 -94 213 -248t66 -372q0 -173 -48 -308.5t-135 -222t-205 -131t-261 -44.5q-132 0 -241 38t-178 102
q-92 86 -139.5 213t-47.5 272zM185 610q2 -11 2 -25q0 -173 61 -304q36 -78 93 -135q59 -59 157.5 -94.5t221.5 -35.5q202 0 375 127q93 70 148.5 199.5t55.5 295.5h-1114v-28z" />
    <glyph glyph-name="florin" unicode="&#x192;" horiz-adv-x="719" 
d="M-18 -402q63 -5 104 -5q250 0 250 301v1014h-228v48h228v193q0 131 80.5 196.5t222.5 65.5h98v-48h-95q-239 0 -239 -225v-182h302v-48h-302v-1019q0 -346 -310 -346q-31 0 -64 4q-35 4 -47 4v47z" />
    <glyph glyph-name="uni0218" unicode="&#x218;" horiz-adv-x="1368" 
d="M608 -453h-64l129 334h107zM125 209l72 26q73 -98 206.5 -157.5t290.5 -59.5q142 0 249.5 33.5t172.5 106.5t65 178v2q0 49 -23 91t-63.5 75t-105 63t-136.5 54t-170 50q-80 21 -131 37q-78 24 -156 59q-79 32 -123 70q-47 39 -78 95.5t-31 121.5q0 155 140.5 245.5
t382.5 90.5q165 0 298 -62t201 -157l-64 -22q-68 85 -184 135t-256 50q-209 0 -333 -76t-124 -204q0 -61 33.5 -110.5t102.5 -89.5t153.5 -70.5t207.5 -64.5q106 -27 160 -44.5t128 -49.5q79 -32 123 -70q47 -39 78 -95.5t31 -121.5q0 -176 -144.5 -275.5t-407.5 -99.5
q-184 0 -328 65.5t-237 180.5z" />
    <glyph glyph-name="uni0219" unicode="&#x219;" horiz-adv-x="1078" 
d="M443 -457h-72l132 342h115zM102 159l63 31q61 -81 160 -126.5t222 -45.5q159 0 262 57t103 145q1 81 -96 134t-310 103q-92 22 -144 39.5t-108 49.5q-124 63 -124 192q0 119 117 189t300 70q131 0 240.5 -55t161.5 -139l-52 -30q-51 74 -144.5 119.5t-205.5 45.5
q-153 0 -253.5 -56.5t-100.5 -142.5q0 -89 85 -139.5t296 -99.5q184 -44 278 -97q123 -62 125 -183q0 -114 -114 -187.5t-316 -73.5q-303 0 -445 200z" />
    <glyph glyph-name="uni021A" unicode="&#x21a;" horiz-adv-x="1325" 
d="M562 -451h-60l127 330h102zM101 1301v51h1125v-51h-527v-1301h-70v1301h-528z" />
    <glyph glyph-name="uni021B" unicode="&#x21b;" horiz-adv-x="769" 
d="M446 -451h-60l126 330h103zM75 908v48h228v332h73v-332h317v-48h-317v-655q0 -109 52 -158.5t166 -47.5l99 3v-50h-108q-138 -3 -210 58t-72 184v666h-228z" />
    <glyph glyph-name="uni0237" unicode="&#x237;" horiz-adv-x="574" 
d="M-40 -449v49h63q234 0 234 255v1101h68v-1109q0 -142 -76 -219t-211 -77h-78z" />
    <glyph glyph-name="uni0259" unicode="&#x259;" horiz-adv-x="1187" 
d="M92 442v51h928q0 125 -51.5 226t-152.5 162t-235 61q-129 0 -234 -53.5t-162 -136.5l-59 17q151 222 455 222q237 0 371 -143t134 -375q0 -223 -137.5 -365.5t-362.5 -142.5q-147 0 -261 66t-173.5 174t-59.5 237zM161 447q0 -119 51.5 -217.5t149.5 -158t224 -59.5
q128 0 227 61.5t150.5 159t56.5 214.5h-859z" />
    <glyph glyph-name="Wgrave" unicode="&#x1e80;" horiz-adv-x="1902" 
d="M1025 1523l-307 319h120l258 -319h-71zM37 1352h80l302 -1020q20 -68 73 -267h6q5 17 24 76.5t35 111.5t24 79l324 1020h91l325 -1020l43 -134q25 -83 42 -133h6q45 183 72 267l301 1020h80l-412 -1352h-87l-324 1000q-54 160 -87 287h-5q-15 -54 -88 -287l-323 -1000
h-88z" />
    <glyph glyph-name="wgrave" unicode="&#x1e81;" horiz-adv-x="1648" 
d="M897 1162l-307 319h122l257 -319h-72zM77 956h80l303 -906h8l311 906h87l316 -905h2l307 905h79l-341 -956h-91l-312 896h-7l-310 -896h-93z" />
    <glyph glyph-name="Wacute" unicode="&#x1e82;" horiz-adv-x="1902" 
d="M869 1523h-73l259 319h119zM37 1352h80l302 -1020q20 -68 73 -267h6q5 17 24 76.5t35 111.5t24 79l324 1020h91l325 -1020l43 -134q25 -83 42 -133h6q45 183 72 267l301 1020h80l-412 -1352h-87l-324 1000q-54 160 -87 287h-5q-15 -54 -88 -287l-323 -1000h-88z" />
    <glyph glyph-name="wacute" unicode="&#x1e83;" horiz-adv-x="1648" 
d="M738 1162h-71l257 319h121zM77 956h80l303 -906h8l311 906h87l316 -905h2l307 905h79l-341 -956h-91l-312 896h-7l-310 -896h-93z" />
    <glyph glyph-name="Wdieresis" unicode="&#x1e84;" horiz-adv-x="1902" 
d="M815 1609h-163v134h163v-134zM37 1352h80l302 -1020q20 -68 73 -267h6q5 17 24 76.5t35 111.5t24 79l324 1020h91l325 -1020l43 -134q25 -83 42 -133h6q45 183 72 267l301 1020h80l-412 -1352h-87l-324 1000q-54 160 -87 287h-5q-15 -54 -88 -287l-323 -1000h-88z
M1089 1609v134h165v-134h-165z" />
    <glyph glyph-name="wdieresis" unicode="&#x1e85;" horiz-adv-x="1648" 
d="M688 1238h-165v135h165v-135zM77 956h80l303 -906h8l311 906h87l316 -905h2l307 905h79l-341 -956h-91l-312 896h-7l-310 -896h-93zM962 1238v135h165v-135h-165z" />
    <glyph glyph-name="Ygrave" unicode="&#x1ef2;" horiz-adv-x="1349" 
d="M719 1523l-305 319h119l257 -319h-71zM48 1352h85l540 -736h5l537 736h86l-589 -795v-557h-70v557z" />
    <glyph glyph-name="ygrave" unicode="&#x1ef3;" horiz-adv-x="1130" 
d="M600 1162l-306 319h118l260 -319h-72zM77 956h80l411 -934h4l404 934h78l-513 -1154q-59 -133 -130 -192t-167 -59h-50v49h41q159 0 246 218l54 131z" />
    <glyph glyph-name="uni2010" unicode="&#x2010;" horiz-adv-x="519" 
d="M515 624h-552v45h552v-45z" />
    <glyph glyph-name="endash" unicode="&#x2013;" horiz-adv-x="972" 
d="M972 624h-972v45h972v-45z" />
    <glyph glyph-name="emdash" unicode="&#x2014;" horiz-adv-x="2212" 
d="M2212 624h-2212v45h2212v-45z" />
    <glyph glyph-name="uni2015" unicode="&#x2015;" horiz-adv-x="2090" 
d="M2090 624h-2090v45h2090v-45z" />
    <glyph glyph-name="quoteleft" unicode="&#x2018;" horiz-adv-x="543" 
d="M358 1049h-201v113q0 155 40 256t147 185l42 -29q-84 -77 -116.5 -161.5t-32.5 -211.5h121v-152z" />
    <glyph glyph-name="quoteright" unicode="&#x2019;" horiz-adv-x="546" 
d="M305 1369h-120v148h204v-112q0 -152 -41.5 -253.5t-148.5 -186.5l-42 31q83 76 115.5 161t32.5 212z" />
    <glyph glyph-name="quotesinglbase" unicode="&#x201a;" horiz-adv-x="546" 
d="M305 6h-120v149h204v-111q0 -153 -41.5 -254.5t-148.5 -187.5l-42 29q83 77 115.5 162t32.5 213z" />
    <glyph glyph-name="quotereversed" unicode="&#x201b;" horiz-adv-x="543" 
d="M157 1405v112h201v-148h-121q0 -128 32.5 -212.5t116.5 -160.5l-42 -31q-107 84 -147 185t-40 255z" />
    <glyph glyph-name="quotedblleft" unicode="&#x201c;" horiz-adv-x="1005" 
d="M817 1049h-204v107q0 156 41.5 259.5t149.5 187.5l44 -29q-84 -77 -116.5 -162t-32.5 -213h118v-150zM157 1049v107q0 159 43.5 270t148.5 193l41 -30q-148 -134 -148 -390h120v-150h-205z" />
    <glyph glyph-name="quotedblright" unicode="&#x201d;" horiz-adv-x="1001" 
d="M157 994q84 74 115.5 159t31.5 216h-123v148h207v-106q0 -158 -41 -262.5t-148 -186.5zM612 981q83 75 115.5 164.5t32.5 223.5h-121v148h205v-106q0 -158 -43 -268.5t-148 -194.5z" />
    <glyph glyph-name="quotedblbase" unicode="&#x201e;" horiz-adv-x="1001" 
d="M157 -369q84 75 115.5 160.5t31.5 216.5h-123v147h207v-105q0 -155 -41 -259t-148 -189zM609 -382q84 76 117 166.5t33 223.5h-120v147h205v-105q0 -159 -43 -269.5t-148 -192.5z" />
    <glyph glyph-name="uni201F" unicode="&#x201f;" horiz-adv-x="1005" 
d="M613 1411v106h204v-148h-118q0 -128 32.5 -213.5t116.5 -161.5l-44 -32q-108 82 -149.5 187t-41.5 262zM157 1411v106h205v-148h-120q0 -133 33 -222.5t115 -165.5l-41 -33q-105 84 -148.5 194.5t-43.5 268.5z" />
    <glyph glyph-name="bullet" unicode="&#x2022;" horiz-adv-x="1101" 
d="M804 455h-475v381h475v-381z" />
    <glyph glyph-name="ellipsis" unicode="&#x2026;" horiz-adv-x="2098" 
d="M1938 567h-188v157h188v-157zM182 567v157h192v-157h-192zM966 567v157h189v-157h-189z" />
    <glyph glyph-name="fraction" unicode="&#x2044;" horiz-adv-x="467" 
d="M-222 -3h-71l983 1360h71z" />
    <glyph glyph-name="uni20B9" unicode="&#x20b9;" horiz-adv-x="1212" 
d="M699 948h-666l16 50h650q-2 113 -98.5 208t-239.5 95h-328l19 51h1132l-15 -51h-628q101 -39 163 -124t62 -179h418l-15 -50h-403q-11 -184 -162 -287.5t-415 -103.5l710 -557h-80l-700 543v56h60q230 0 371 91.5t149 257.5z" />
    <glyph glyph-name="trademark" unicode="&#x2122;" horiz-adv-x="1242" 
d="M66 1279v65h451v-65h-189v-463h-73v463h-189zM592 816v528h69l218 -455l216 455h69v-528h-69v383l-182 -383h-68l-184 377v-377h-69z" />
    <glyph glyph-name="arrowleft" unicode="&#x2190;" horiz-adv-x="2274" 
d="M754 383l-568 298l568 298l35 -52l-285 -220h1530v-55h-1530l285 -220z" />
    <glyph glyph-name="arrowup" unicode="&#x2191;" horiz-adv-x="1342" 
d="M373 1013l-65 27l366 470l360 -470l-62 -27l-266 233v-1377h-68v1377z" />
    <glyph glyph-name="arrowright" unicode="&#x2192;" horiz-adv-x="2274" 
d="M1770 652h-1530v55h1530l-285 220l33 52l570 -298l-570 -298l-33 49z" />
    <glyph glyph-name="arrowdown" unicode="&#x2193;" horiz-adv-x="1342" 
d="M674 -159l-366 471l65 26l265 -232v1378h68v-1378l266 232l62 -26z" />
    <glyph glyph-name="arrowboth" unicode="&#x2194;" horiz-adv-x="2392" 
d="M694 385l-508 296l508 296l35 -47l-253 -223h1439l-253 223l35 47l509 -296l-509 -296l-35 45l253 222h-1439l253 -222z" />
    <glyph glyph-name="arrowupdn" unicode="&#x2195;" horiz-adv-x="1347" 
d="M673 -159l-363 395l48 27l282 -202v1229l-282 -203l-48 29l363 394l366 -394l-48 -29l-283 203v-1229l283 202l48 -27z" />
    <glyph glyph-name="uni2215" unicode="&#x2215;" horiz-adv-x="1345" 
d="M203 -247h-55l1016 1785h60z" />
    <glyph glyph-name="asteriskmath" unicode="&#x2217;" horiz-adv-x="1453" 
d="M215 383l-36 33l503 303l-503 301l36 35l487 -292v487h55v-489l487 294l30 -35l-501 -301l501 -305l-33 -34l-481 291v-486h-62v488z" />
    <glyph glyph-name="uniF8FF" unicode="&#xf8ff;" horiz-adv-x="1542" 
d="M758 60q-151 0 -279.5 75.5t-203 204.5t-74.5 280q0 152 75 280.5t203.5 203t280.5 74.5q151 0 279.5 -75t203.5 -203.5t75 -279.5q0 -152 -74.5 -281t-203.5 -204t-282 -75zM200 -164h59q50 0 71 34q10 16 10 39q0 47 -37 64q-18 9 -44 9h-59v-146zM235 -137v93h22
q31 0 43 -20q5 -9 5 -27q0 -32 -22 -42q-8 -4 -26 -4h-22zM268 621q0 -205 144 -350t348 -145q203 0 347.5 144.5t144.5 347.5q0 100 -39 191.5t-104.5 157.5t-156 105t-190.5 40q-134 0 -248 -65.5t-180 -178.5t-66 -247zM352 -109q0 -36 30 -50q16 -7 33 -7q31 0 45 16
q8 7 10 17l-31 3q-5 -9 -14 -12q-3 -1 -10 -1q-18 0 -25 13q-3 5 -3 13h85v8q0 27 -18 42q-16 14 -42 14q-36 0 -52 -27q-8 -13 -8 -29zM387 -98q2 13 12 19q4 3 14 3q17 0 23 -12l3 -10h-52zM442 719q10 -2 12 -4q52 -21 98 -27q41 -3 72 2q43 11 47 12q3 0 8.5 2.5
t7.5 3.5q-5 2 -16.5 8t-17 9t-13 8.5t-13.5 12.5h19q39 0 75 19q65 40 136 61q24 8 58 11q4 0 19.5 1t23.5 0q54 -2 89 -33q10 -11 28 -33v-2l-6 2q-45 17 -83 3.5t-62 -53.5q-7 -13 -25 -55q-9 -21 -27 -63.5t-20 -48.5q-33 -64 -65 -101q-27 -33 -66 -58q-45 -34 -116 -55
h-4h-1l24 22q12 11 25 44q41 116 45 127q24 73 57 131v3q-2 -4 -11 -13q-8 -10 -10 -12q-23 -36 -31 -57q-2 -6 -8 -6q-99 3 -177 67q-40 38 -59 55q-1 1 -5 7t-8 10zM481 -132q5 -34 56 -34q35 0 48 18q7 9 7 18q0 24 -36 30l-22 3q-16 4 -16 12q0 11 19 11q17 0 21 -14
l31 3q-5 32 -53 32q-33 0 -46 -16q-6 -7 -6 -18q0 -25 36 -31l21 -4q16 -3 16 -11q0 -11 -20 -11q-18 0 -23 14zM605 -25q0 -15 19 -15q18 0 18 15t-18 15q-19 0 -19 -15zM607 -164h34v109h-34v-109zM656 -109q0 -35 25 -48q12 -5 25 -5q18 0 29 9q5 5 7 8h1v-19
q0 -21 -25 -21q-16 0 -21 6l-6 6l-31 -3q7 -31 57 -31q37 0 52 19q9 9 9 23v110h-35v-18h-1q-6 12 -18 17q-8 3 -18 3q-30 0 -43 -25q-7 -11 -7 -31zM691 -109q0 21 12 28q8 4 15 4q16 0 22 -15q3 -7 3 -17q0 -30 -25 -30q-18 0 -24 14q-3 6 -3 16zM798 -164h34v64
q0 13 11 19q6 3 13 3q21 0 21 -22v-64h35v70q0 26 -20 36q-10 5 -23 5q-27 0 -37 -21v19h-34v-109zM927 -109q0 -34 28 -50q17 -7 33 -7q38 0 54 27q7 13 7 30q0 33 -28 49q-13 7 -33 7q-38 0 -54 -27q-7 -14 -7 -29zM962 -109q0 21 12 28q7 5 14 5q16 0 24 -16q3 -15 3 -17
q0 -20 -12 -29q-5 -4 -15 -4q-16 0 -23 15q-3 9 -3 18zM1051 -55l43 -109h39l43 109h-36l-26 -78h-1l-26 78h-36zM1177 -133q0 -21 21 -29q8 -4 21 -4q18 0 27 9q4 2 9 9v-16h33v74q0 20 -15 28q-17 9 -37 9q-30 0 -45 -15q-7 -6 -10 -17l32 -3q5 13 22 13q19 0 19 -14v-1
q0 -7 -13 -7l-17 -3q-19 0 -32 -8q-15 -8 -15 -25zM1210 -133q0 9 9 12q5 3 12 3q19 3 23 5v-11q0 -13 -12 -18q-6 -3 -14 -3q-18 0 -18 12zM1267 -16q0 16 11 26.5t27 10.5t26.5 -10.5t10.5 -26.5t-10.5 -27t-26.5 -11t-27 11t-11 27zM1279 -16q0 -11 7.5 -19t18.5 -8
t18.5 8t7.5 19t-7.5 18.5t-18.5 7.5t-18.5 -7.5t-7.5 -18.5zM1292 -33v35h14q12 0 12 -11q0 -5 -5 -10l8 -14h-10l-6 11h-5v-11h-8zM1300 -13h6q5 0 5 3t-5 3h-6v-6z" />
    <glyph glyph-name="_Designova" horiz-adv-x="1692" 
d="M844 -121q-174 0 -322.5 87t-235 235.5t-86.5 323.5q1 131 52 250.5t137.5 205.5t206 137t250.5 51q175 0 323.5 -86t235.5 -234.5t87 -323.5q0 -176 -87 -324.5t-236 -235t-325 -86.5zM278 525q0 -116 45 -221.5t120.5 -181.5t181 -121t221.5 -45q154 0 285 76t207 207
t76 285q0 116 -45 221.5t-120.5 181.5t-180.5 121t-221 45t-221 -45t-181.5 -120.5t-121.5 -181t-45 -221.5zM480 638q7 0 13 -4q58 -22 115 -31q45 -5 81 3q29 4 53 14q5 0 11.5 3t8.5 4q-5 3 -22.5 11.5t-27.5 15.5t-19 17h21q39 0 86 20q85 53 158 73q37 10 66 10
q6 0 24.5 1.5t26.5 0.5q67 -4 102 -39q6 -5 33 -37v-2q-3 2 -7 2q-53 20 -95.5 4.5t-71.5 -59.5q-5 -9 -10 -20.5t-11 -25t-9 -21.5q-6 -14 -25 -59t-30 -68q-36 -74 -74 -119q-20 -27 -74 -66q-52 -38 -136 -63h-7l28 24q18 17 30 51q7 20 25 71t27 78q31 90 65 150v1
q-3 -3 -11 -13q-9 -7 -11 -16q-23 -27 -38 -65q-3 -5 -9 -5q-117 5 -204 78q-10 10 -32.5 31t-33.5 32q-12 14 -16 18z" />
    <glyph glyph-name="_Origin" horiz-adv-x="2195" 
d="M120 929v50h1955v-50h-1955zM120 110v50h1955v-50h-1955zM198 311v177h42v-177h-42zM230 608v177h148v-32h-107v-39h97v-31h-97v-42h107v-33h-148zM268 311v177h34l89 -107v107h40v-177h-33l-88 109v-109h-42zM408 608v177h34l88 -107v107h40v-177h-33l-88 109v-109h-41z
M524 311v177h87q72 0 72 -45q0 -28 -26 -40q3 0 3 -2q28 -12 28 -42q0 -48 -71 -48h-93zM566 342h48q32 0 32 22t-32 22h-48v-44zM566 419h42q33 0 33 20q0 22 -33 22h-42v-42zM599 753v32h156v-32h-57v-145h-41v145h-58zM708 311v177h148v-33h-107v-38h96v-31h-96v-41h105
v-34h-146zM773 785h44l40 -124l42 124h38l40 -126l42 126h39l-57 -177h-45l-39 121l-41 -121h-43zM884 311v177h81q28 0 42 -6q36 -19 36 -57q0 -21 -10 -35q-15 -18 -29 -23l37 -56h-43l-35 50h-37v-50h-42zM926 394h37q38 0 38 31q0 30 -38 30h-37v-61zM1063 311v177h40
v-143h106v-34h-146zM1066 697q0 39 28 65q26 26 69 26t69 -26q28 -25 28 -65q0 -39 -28 -65q-26 -27 -68 -27q-44 0 -70 27q-28 28 -28 65zM1108 697q0 -25 15.5 -40.5t39.5 -15.5t39.5 15.5t15.5 40.5t-15.5 41.5t-39.5 16.5t-39.5 -16.5t-15.5 -41.5zM1238 311v177h41
v-177h-41zM1283 608v177h81q28 0 41 -6q36 -17 36 -57q0 -21 -10 -35q-9 -15 -29 -23l39 -56h-45l-33 50h-39v-50h-41zM1308 311v177h35l87 -107v107h42v-177h-34l-89 109v-109h-41zM1324 691h37q38 0 38 31t-38 31h-37v-62zM1461 608v177h148v-32h-107v-39h96v-31h-96v-75
h-41zM1498 335q0 24 25 24q10 0 17 -7t7 -17q0 -11 -7 -25l-14 -38h-26l12 41q-14 5 -14 22zM1625 608v177h147v-32h-106v-39h95v-31h-95v-42h106v-33h-147zM1648 311v177h80q30 0 52 -11q46 -21 46 -77q0 -28 -12 -47q-23 -42 -86 -42h-80zM1690 345h37q17 0 31 7
q26 14 26 48q0 21 -6 29q-14 26 -51 26h-37v-110zM1802 608v177h33l90 -107v107h40v-177h-34l-89 109v-109h-40zM1850 311v177h147v-33h-107v-38h97v-31h-97v-41h106v-34h-146z" />
    <glyph glyph-name="_VendorID" horiz-adv-x="1116" 
d="M73 -4v1187h974v-1187h-974zM76 -95q0 13 7.5 20.5t18.5 7.5q9 0 12 -3l4 -5v26h13v-72h-13v9l-4 -7q-8 -5 -15 -5q-23 0 -23 29zM90 -95q0 -17 13 -17q15 0 15 17v1q0 18 -13 18q-15 0 -15 -19zM126 47h869v1084h-869v-1084zM141 -95q0 13 7.5 20.5t19.5 7.5
q11 0 18.5 -7.5t7.5 -19.5q0 -2 -2 -5h-37q1 -13 13 -13q10 0 12 9h12q-4 -21 -24 -21q-27 0 -27 29zM155 -91h25q-3 15 -12 15q-12 0 -13 -15zM198 -106h14q3 -9 9 -9q9 0 9 7q0 3 -12 9q-18 5 -18 16q0 16 21 16t21 -16h-14q-1 7 -7 7q-7 0 -7 -6q0 -4 12 -9q17 -5 17 -15
q0 -18 -22 -18q-20 0 -23 18zM240 297q0 59 46 125l97 137h64l-84 -120q11 3 23 3q62 0 102.5 -41.5t40.5 -103.5q0 -61 -41.5 -103.5t-101.5 -42.5q-61 0 -103.5 42.5t-42.5 103.5zM240 768q0 56 46 123l97 142h64l-84 -122q7 2 23 2q63 0 103 -41t40 -104
q0 -61 -41 -102.5t-102 -41.5t-103.5 42t-42.5 102zM251 -56q0 7 8 7t8 -7q0 -8 -8 -8t-8 8zM252 -121v54h14v-54h-14zM276 -95q0 28 26 28q9 0 12 -3l4 -5v8h14v-41q0 -8 -2 -11q0 -24 -27 -24q-26 0 -26 18v1h14v-1q0 -8 12 -8q11 0 15 13v8l-4 -7q-8 -2 -14 -2
q-24 0 -24 26zM291 -94q0 -18 12 -18q15 0 15 17v1q0 18 -15 18q-12 0 -12 -18zM294 297q0 -42 25.5 -68t66.5 -26q39 0 64.5 26t25.5 68q0 40 -25.5 65t-64.5 25q-41 0 -66.5 -25t-25.5 -65zM294 768q0 -41 25.5 -67t66.5 -26q39 0 64.5 26.5t25.5 66.5t-25.5 66t-64.5 26
q-41 0 -66.5 -25t-25.5 -67zM343 -121v54h14v-10l4 7q5 3 13 3q17 0 20 -15q1 -3 1 -9v-30h-15v34q0 11 -10 11q-13 0 -13 -21v-24h-14zM402 -95q0 13 7.5 20.5t19.5 7.5q28 0 28 -28q0 -29 -28 -29q-12 0 -19.5 8t-7.5 21zM416 -95q0 -17 13 -17q15 0 15 17q0 19 -15 19
q-13 0 -13 -19zM462 -67h14l14 -45l13 45h14l-19 -54h-18zM522 -106q0 16 30 16h3v7q0 7 -9 7q-11 0 -11 -9h-13q0 18 24 18q19 0 21 -15v-39h-12v6l-3 -5q-8 -4 -14 -4q-16 0 -16 18zM535 -106q0 -6 8 -6q12 0 12 9v6q-20 2 -20 -9zM576 -78v9h6v8q0 15 19 15h6v-11
q-11 2 -11 -5v-7h11v-9h-11v-43h-14v43h-6zM589 297q0 62 44 125l97 137h66l-86 -120q10 3 25 3q61 0 102 -41.5t41 -103.5q0 -61 -41.5 -103.5t-101.5 -42.5q-61 0 -103.5 42.5t-42.5 103.5zM589 768q0 57 44 123l97 142h66l-87 -122q8 2 26 2q61 0 102 -41.5t41 -103.5
q0 -61 -41.5 -102.5t-101.5 -41.5q-61 0 -103.5 41.5t-42.5 102.5zM611 -95q0 28 28 28q27 0 27 -28q0 -29 -27 -29q-28 0 -28 29zM625 -95q0 -17 14 -17q13 0 13 17q0 19 -13 19q-14 0 -14 -19zM642 297q0 -42 26 -68t67 -26q38 0 62.5 26t24.5 68q0 40 -24.5 65t-62.5 25
q-41 0 -67 -25t-26 -65zM642 768q0 -41 26 -67t67 -26q38 0 62.5 26t24.5 67q0 40 -24.5 66t-62.5 26q-41 0 -67 -25.5t-26 -66.5zM675 -121v54h12v-10l6 7q4 3 13 3q16 0 19 -15v-39h-14v34q-4 11 -9 11q-15 0 -15 -21v-24h-12zM732 -78v9h8v13h14v-13h10v-9h-10v-28
q2 -10 9 -6v-10h-8q-15 0 -15 10v34h-8zM768 -106h15q1 -9 10 -9q8 0 8 7q0 3 -12 9q-17 5 -17 16q0 16 20 16q19 0 24 -16h-16q0 7 -9 7q-5 0 -5 -6q0 -5 11 -9q19 -6 19 -15q0 -18 -23 -18q-21 0 -25 18zM820 -116q0 10 9 10t9 -10q0 -8 -9 -8t-9 8zM844 -95q0 13 8 20.5
t18 7.5q25 0 25 -20h-13q-3 11 -12 11q-12 0 -12 -19q0 -17 12 -17q10 0 12 9h13q-1 -21 -25 -21q-26 0 -26 29zM900 -95q0 28 29 28q26 0 26 -28q0 -29 -26 -29q-29 0 -29 29zM914 -95q0 -17 15 -17q13 0 13 17q0 19 -13 19q-15 0 -15 -19zM965 -121v54h14v-9l5 6q3 3 9 3
q13 0 18 -10l5 7q3 3 11 3q17 0 17 -12q1 -4 1 -12v-30h-13v27q0 2 -0.5 5t-0.5 4q0 9 -10 9q-9 0 -9 -18v-27h-13v36q-5 9 -10 9q-10 0 -10 -18v-27h-14z" />
    </font>
</defs>
</svg>
