<?xml version="1.0" standalone="no"?>
<!DOCTYPE svg PUBLIC "-//W3C//DTD SVG 1.1//EN" "http://www.w3.org/Graphics/SVG/1.1/DTD/svg11.dtd" >
<svg xmlns="http://www.w3.org/2000/svg" xmlns:xlink="http://www.w3.org/1999/xlink" version="1.1">
<metadata>
Created by FontForge 20170731 at Wed Nov 15 16:19:06 2023
 By Aleksey,,,
Copyright (c) 2023 by Designova. All rights reserved.
</metadata>
<defs>
<font id="LinearGrotesk-ThinItalic" horiz-adv-x="1206" >
  <font-face 
    font-family="Linear Grotesk Thin Italic"
    font-weight="100"
    font-style="italic"
    font-stretch="normal"
    units-per-em="2048"
    panose-1="0 0 0 0 0 0 0 0 0 0"
    ascent="1638"
    descent="-410"
    x-height="956"
    cap-height="1352"
    bbox="-293 -457 2318 1890"
    underline-thickness="100"
    underline-position="-355"
    unicode-range="U+0020-F8FF"
  />
<missing-glyph horiz-adv-x="1425" 
d="M200 0l220 1388h1025l-220 -1388h-1025zM309 154l463 540l-292 539zM348 82h755l-292 540zM542 1306l291 -541l464 541h-755zM871 694l290 -540l171 1079z" />
    <glyph glyph-name=".notdef" horiz-adv-x="1425" 
d="M200 0l220 1388h1025l-220 -1388h-1025zM309 154l463 540l-292 539zM348 82h755l-292 540zM542 1306l291 -541l464 541h-755zM871 694l290 -540l171 1079z" />
    <glyph glyph-name=".null" horiz-adv-x="0" 
 />
    <glyph glyph-name="nonmarkingreturn" horiz-adv-x="682" 
 />
    <glyph glyph-name="space" unicode=" " horiz-adv-x="360" 
 />
    <glyph glyph-name="space" unicode="&#xa0;" horiz-adv-x="360" 
 />
    <glyph glyph-name="exclam" unicode="!" horiz-adv-x="596" 
d="M392 -16h-193l25 156h193zM328 389l138 965h90l-167 -965h-61z" />
    <glyph glyph-name="quotedbl" unicode="&#x22;" horiz-adv-x="1199" 
d="M870 1030h-64l282 506h129zM388 1030l283 506h128l-347 -506h-64z" />
    <glyph glyph-name="numbersign" unicode="#" horiz-adv-x="1384" 
d="M386 400h-297l7 43h303l143 429h-302l7 44h308l130 389h60l-127 -389h525l130 389h59l-126 -389h295l-7 -44h-303l-143 -429h302l-7 -43h-306l-131 -392h-66l131 392h-523l-130 -392h-62zM462 443h524l143 429h-524z" />
    <glyph glyph-name="dollar" unicode="$" horiz-adv-x="1212" 
d="M222 239q52 -81 167.5 -135t223.5 -54q189 0 309.5 67.5t142.5 205.5q8 50 -4 86q-9 46 -24.5 73t-55.5 54q-7 5 -27.5 20.5t-27 19.5t-23.5 14t-33.5 17.5t-40.5 16.5q-24 8 -55 19.5t-35 12.5l-97 33q-179 58 -260 138t-60 211t150.5 220.5t312.5 91.5l24 155h70
l-24 -155q111 -2 212 -56t136 -122l-61 -23q-109 151 -333 151q-173 0 -286.5 -73.5t-131.5 -190.5q-19 -117 58 -187.5t254 -128.5q76 -25 103 -34t65 -25t87 -40q69 -34 109 -73q37 -41 58 -98.5t11 -120.5q-16 -105 -88 -180t-176 -110.5t-231 -38.5l-24 -149h-70l24 149
q-113 2 -231 59.5t-179 150.5z" />
    <glyph glyph-name="percent" unicode="%" horiz-adv-x="2108" 
d="M1222 281q22 137 147.5 225.5t292.5 88.5q168 0 266 -88.5t76 -225.5q-15 -91 -79 -164t-160 -112.5t-203 -39.5q-163 0 -262.5 89t-77.5 227zM319 1073q22 136 149.5 225.5t292.5 89.5q168 0 265 -88t75 -227q-22 -138 -147.5 -225t-291.5 -87q-165 0 -265 86.5
t-78 225.5zM385 1073q-18 -114 66.5 -189t217.5 -75q87 0 166 33t133.5 94t66.5 137q18 115 -64.5 191t-217.5 76q-136 0 -243 -76t-125 -191zM414 -10l1421 1371h75l-1418 -1371h-78zM1290 281q-19 -117 64 -192t216 -75t242.5 76.5t127.5 190.5q18 115 -65 189.5
t-221 74.5q-137 0 -241.5 -74.5t-122.5 -189.5z" />
    <glyph glyph-name="ampersand" unicode="&#x26;" horiz-adv-x="1257" 
d="M1037 174q-194 -189 -475 -189q-212 0 -320.5 95t-82.5 258q20 130 120 230.5t321 213.5q-89 123 -120 194t-20 140q18 115 105.5 183.5t217.5 68.5q123 0 187 -65.5t47 -174.5q-16 -101 -89.5 -182.5t-230.5 -174.5l355 -498q95 126 129 325h67q-37 -218 -165 -373
l155 -215h-83zM229 338q-22 -137 68.5 -216t271.5 -79q273 0 437 175l-375 521q-204 -102 -293.5 -191.5t-108.5 -209.5zM529 1116q-8 -54 16.5 -112.5t108.5 -172.5l12 -16q130 72 198.5 148t82.5 165q13 83 -34.5 132.5t-141.5 49.5q-96 0 -162 -52.5t-80 -141.5z" />
    <glyph glyph-name="quotesingle" unicode="'" horiz-adv-x="777" 
d="M453 1030h-65l281 506h127z" />
    <glyph glyph-name="parenleft" unicode="(" horiz-adv-x="765" 
d="M317 642q87 559 536 942l48 -22q-92 -87 -156 -161.5t-140 -184.5q-163 -238 -216 -574q-58 -360 50 -605q51 -120 78.5 -169.5t93.5 -140.5l-56 -23q-325 387 -238 938z" />
    <glyph glyph-name="parenright" unicode=")" horiz-adv-x="766" 
d="M68 -273q9 9 32 31.5t29 28t23 22.5t24 24.5t21.5 23.5t26.5 30t28.5 34t36.5 45q79 102 126 184q51 95 98 228t68 264q53 336 -34 570q-40 108 -81.5 183.5t-107.5 166.5l55 22q326 -383 239 -942q-87 -547 -537 -938z" />
    <glyph glyph-name="asterisk" unicode="*" horiz-adv-x="1298" 
d="M709 656l-470 141l37 56l459 -149l46 391h85l-76 -391l507 149l14 -56l-512 -141l316 -344l-65 -41l-303 353l-408 -351l-54 39z" />
    <glyph glyph-name="plus" unicode="+" horiz-adv-x="1490" 
d="M816 640h-513l8 51h513l64 404h66l-64 -404h507l-8 -51h-507l-66 -422h-66z" />
    <glyph glyph-name="comma" unicode="," horiz-adv-x="671" 
d="M141 -349h-63l281 504h125z" />
    <glyph glyph-name="hyphen" unicode="-" horiz-adv-x="1294" 
d="M1250 640h-1002l8 51h1002z" />
    <glyph glyph-name="period" unicode="." horiz-adv-x="563" 
d="M377 0h-190l25 155h190z" />
    <glyph glyph-name="slash" unicode="/" horiz-adv-x="823" 
d="M95 -124h-72l917 1586h71z" />
    <glyph glyph-name="zero" unicode="0" horiz-adv-x="1220" 
d="M301 677q-50 -316 30 -489.5t282 -173.5q109 0 200.5 52.5t154.5 148.5q119 183 163 462q51 317 -29.5 489t-283.5 172q-199 0 -332.5 -169.5t-184.5 -491.5zM230 677q55 348 212.5 529.5t383.5 181.5q228 0 330.5 -182.5t47.5 -528.5q-46 -291 -186 -494
q-72 -105 -178 -161.5t-235 -56.5q-232 0 -330 187.5t-45 524.5z" />
    <glyph glyph-name="one" unicode="1" horiz-adv-x="731" 
d="M669 1306l-381 -200l12 72l393 205h58l-219 -1383h-72z" />
    <glyph glyph-name="two" unicode="2" horiz-adv-x="1257" 
d="M333 1077q163 311 536 311q201 0 311.5 -96.5t84.5 -265.5q-33 -201 -322 -400q-363 -246 -500 -361q-139 -113 -190 -218h856l-7 -47h-936q8 46 29 90q35 61 191 203q38 34 144 111.5t163 115.5l188 130q284 195 313 378q24 149 -67.5 229.5t-272.5 80.5
q-160 0 -278.5 -73.5t-179.5 -199.5z" />
    <glyph glyph-name="three" unicode="3" horiz-adv-x="1318" 
d="M260 216q52 -92 152.5 -147t233.5 -55q199 0 339 91.5t167 259.5q12 80 -14 143.5t-83 104t-137.5 62t-178.5 21.5q-36 0 -74 -0.5t-40 -0.5l8 51q36 -3 105 -3q183 0 308 84t147 225q20 127 -72.5 206.5t-261.5 79.5q-245 0 -407 -214l-63 19q180 245 481 245
q202 0 309 -95t84 -239q-20 -125 -119.5 -213t-231.5 -117q74 -11 135 -39.5t105.5 -72t64 -107.5t7.5 -140q-30 -190 -189.5 -295t-395.5 -105q-312 0 -446 223z" />
    <glyph glyph-name="four" unicode="4" horiz-adv-x="1389" 
d="M179 341l8 48l942 987h79l-156 -986h276l-8 -49h-276l-58 -368h-67l58 368h-798zM259 390h726l108 684q28 175 38 226h-4l-171 -184z" />
    <glyph glyph-name="five" unicode="5" horiz-adv-x="1227" 
d="M243 206q49 -88 144 -140t212 -52q198 0 333.5 106.5t161.5 268.5q26 170 -75 272t-296 102q-95 0 -201.5 -31t-183.5 -86l-37 11l194 695h718l-8 -49h-655l-167 -579q171 88 372 88q210 0 325 -117t85 -306q-29 -183 -186 -303.5t-388 -120.5q-144 0 -251 56.5
t-160 160.5z" />
    <glyph glyph-name="six" unicode="6" horiz-adv-x="1244" 
d="M276 409q-27 -170 71.5 -282.5t285.5 -112.5q180 0 318 113t165 282q27 172 -76 286.5t-287 114.5q-179 0 -315 -116t-162 -285zM216 590q48 295 202 529q81 124 211 196.5t284 72.5q254 0 364 -205l-60 -23q-102 178 -312 178q-125 0 -230.5 -56t-175.5 -155
q-119 -172 -177 -384q-19 -75 -40 -180q60 135 190 214.5t302 79.5q212 0 326.5 -127.5t84.5 -319.5q-30 -189 -184.5 -317t-368.5 -128q-202 0 -315 102q-87 77 -110 205t9 318z" />
    <glyph glyph-name="seven" unicode="7" horiz-adv-x="1186" 
d="M1206 1301h-903l8 51h988l-7 -43q-322 -366 -516 -659.5t-359 -676.5h-69q167 390 355.5 676t502.5 652z" />
    <glyph glyph-name="eight" unicode="8" horiz-adv-x="1273" 
d="M418 1048q-13 -84 30.5 -152.5t124.5 -105.5t180 -37q101 0 196 39t159.5 107.5t77.5 148.5q14 85 -27.5 152t-123.5 102.5t-189 35.5q-168 0 -288 -83t-140 -207zM178 350q24 147 139.5 246t283.5 134q-134 36 -202.5 117t-48.5 205q22 140 165.5 238t338.5 98
q194 0 309 -97.5t93 -238.5q-19 -120 -117 -204t-234 -118q156 -35 239.5 -135t60.5 -249q-17 -107 -98.5 -194.5t-207.5 -137t-271 -49.5q-143 0 -252 48.5t-162.5 137t-35.5 199.5zM249 353q-23 -145 89 -242t298 -97q192 0 334.5 96.5t165.5 242.5q16 100 -31.5 181
t-142 126t-216.5 45q-183 0 -328 -100t-169 -252z" />
    <glyph glyph-name="nine" unicode="9" horiz-adv-x="1232" 
d="M343 944q-19 -115 24.5 -206.5t131.5 -140.5t203 -49q112 0 215 51t174.5 142t88.5 201q27 169 -73 282.5t-280 113.5q-182 0 -320 -112t-164 -282zM183 180l64 24q38 -87 125.5 -138.5t203.5 -51.5q229 0 374.5 185.5t210.5 559.5q-61 -109 -191.5 -185.5t-283.5 -76.5
q-206 0 -325.5 124t-88.5 321q31 195 187.5 320.5t375.5 125.5q183 0 292 -91t126 -239q10 -82 -27 -310q-123 -783 -660 -783q-144 0 -241 59t-142 156z" />
    <glyph glyph-name="colon" unicode=":" horiz-adv-x="563" 
d="M406 185h-190l25 155h190zM329 895l25 157h190l-25 -157h-190z" />
    <glyph glyph-name="semicolon" unicode=";" horiz-adv-x="645" 
d="M170 -166h-63l281 506h125zM406 895l25 157h188l-25 -157h-188z" />
    <glyph glyph-name="less" unicode="&#x3c;" horiz-adv-x="1393" 
d="M1140 37l-819 589l8 51l1006 591l30 -42l-976 -576l794 -573z" />
    <glyph glyph-name="equal" unicode="=" horiz-adv-x="1529" 
d="M1340 473h-1002l7 47h1002zM392 812l8 50h1002l-8 -50h-1002z" />
    <glyph glyph-name="greater" unicode="&#x3e;" horiz-adv-x="1394" 
d="M1271 626l-1005 -589l-32 40l973 573l-791 576l45 42l818 -591z" />
    <glyph glyph-name="question" unicode="?" horiz-adv-x="1029" 
d="M254 1130q86 122 214 190t267 68q195 0 292 -95t71 -255q-23 -150 -186 -267l-137 -97q-168 -118 -193 -274l-5 -31h-69l6 33q13 89 66 163.5t127 126.5q108 76 134 94q165 114 186 250q22 137 -58 219.5t-242 82.5q-246 0 -415 -229zM384 -16l25 156h192l-25 -156h-192z
" />
    <glyph glyph-name="at" unicode="@" horiz-adv-x="1720" 
d="M831 -165q-216 0 -377 101t-234 278t-39 392q25 159 107 301t200.5 243t271.5 160t314 59q225 0 387.5 -94t234.5 -263.5t38 -385.5q-30 -192 -138.5 -317.5t-242.5 -125.5q-217 0 -173 204q-121 -197 -360 -197q-130 0 -192 61.5t-46 166.5q18 109 108 173.5t241 81.5
l158 18q116 13 153 51q37 247 -218 247q-117 0 -194.5 -52t-95.5 -142h-63q22 114 120.5 180.5t242.5 66.5q143 0 217.5 -70t51.5 -219l-62 -394q-10 -61 22 -94t98 -33q113 0 198.5 109t113.5 285q24 148 -9.5 276.5t-113 219.5t-204.5 143t-280 52q-195 0 -374 -94
t-300 -258t-152 -359q-32 -199 36 -363.5t217 -259.5t346 -95q259 0 480 157l28 -40q-237 -170 -516 -170zM642 420q-14 -88 40.5 -133.5t157.5 -45.5q150 0 251.5 97.5t126.5 257.5l14 85q-10 -5 -25 -10t-30 -8.5t-39 -7.5t-40 -6.5t-44.5 -5.5t-42.5 -4.5t-44.5 -4.5
t-38.5 -4q-131 -15 -202 -70t-84 -140z" />
    <glyph glyph-name="A" unicode="A" horiz-adv-x="1464" 
d="M434 494h751l-246 804h-5zM45 0l854 1352h93l426 -1352h-80l-136 447h-798l-281 -447h-78z" />
    <glyph glyph-name="B" unicode="B" horiz-adv-x="1431" 
d="M838 0h-639l214 1352h573q220 0 327 -92t83 -244q-19 -121 -111.5 -202t-223.5 -109q150 -29 234.5 -123t64.5 -219q-25 -160 -171.5 -261.5t-350.5 -101.5zM274 50h557q179 0 309 88.5t151 220.5q21 135 -87 225.5t-289 90.5h-542zM380 722h484q183 0 313 77t152 216
q20 126 -72 206t-285 80h-500z" />
    <glyph glyph-name="C" unicode="C" horiz-adv-x="1423" 
d="M230 677q53 331 263.5 521t511.5 190q172 0 283 -76t151 -188l-65 -23q-40 104 -136 169.5t-241 65.5q-269 0 -458.5 -179.5t-237.5 -479.5q-48 -303 87 -482t400 -179q159 0 285.5 66.5t210.5 180.5l61 -18q-205 -280 -566 -280q-301 0 -451 191.5t-98 520.5z" />
    <glyph glyph-name="D" unicode="D" horiz-adv-x="1461" 
d="M603 0h-404l214 1352h403q347 0 514.5 -171t114.5 -504q-52 -331 -273 -504t-569 -173zM274 50h305q220 0 383 65t270 206.5t141 355.5q99 624 -590 624h-311z" />
    <glyph glyph-name="E" unicode="E" horiz-adv-x="1333" 
d="M1206 0h-1007l214 1352h975l-8 -51h-908l-91 -575h821l-7 -47h-821l-100 -629h940z" />
    <glyph glyph-name="F" unicode="F" horiz-adv-x="1271" 
d="M266 0h-67l214 1352h935l-8 -51h-868l-94 -594h781l-8 -48h-781z" />
    <glyph glyph-name="G" unicode="G" horiz-adv-x="1519" 
d="M230 677q52 326 262.5 518.5t532.5 192.5q174 0 291.5 -71t166.5 -181l-62 -20q-108 220 -404 220q-289 0 -479 -179.5t-237 -479.5q-48 -304 86.5 -482.5t418.5 -178.5q175 0 307 76q238 135 281 414l22 140h-534l8 50h602l-110 -696h-61l41 279q-71 -142 -215 -228
t-352 -86q-319 0 -468 192t-97 520z" />
    <glyph glyph-name="H" unicode="H" horiz-adv-x="1508" 
d="M266 0h-67l214 1352h67l-100 -630h975l100 630h68l-214 -1352h-68l107 675h-975z" />
    <glyph glyph-name="I" unicode="I" horiz-adv-x="464" 
d="M266 0h-67l214 1352h67z" />
    <glyph glyph-name="J" unicode="J" horiz-adv-x="1041" 
d="M181 193q32 -85 105.5 -133t164.5 -44q326 6 382 364l154 972h70l-157 -991q-62 -396 -453 -396q-258 0 -335 208z" />
    <glyph glyph-name="K" unicode="K" horiz-adv-x="1355" 
d="M266 0h-67l214 1352h67l-132 -836h3l1019 836h94l-704 -578l546 -774h-93l-509 730l-370 -302z" />
    <glyph glyph-name="L" unicode="L" horiz-adv-x="1191" 
d="M1089 0h-890l214 1352h67l-206 -1302h823z" />
    <glyph glyph-name="M" unicode="M" horiz-adv-x="1843" 
d="M505 1352l443 -1159h6l809 1159h96l-214 -1352h-70l201 1268l-799 -1144h-72l-438 1147l-201 -1271h-67l214 1352h92z" />
    <glyph glyph-name="N" unicode="N" horiz-adv-x="1531" 
d="M266 0h-67l214 1352h84l777 -1265l200 1265h73l-214 -1352h-88l-778 1270z" />
    <glyph glyph-name="O" unicode="O" horiz-adv-x="1524" 
d="M230 677q51 323 254 517t497 194q295 0 436.5 -194.5t90.5 -518.5q-51 -321 -254.5 -515.5t-498.5 -194.5t-435.5 195t-89.5 517zM301 677q-31 -197 12 -345.5t159 -232t292 -83.5q263 0 444.5 180t229.5 479q48 301 -78.5 481t-386.5 180t-442 -178.5t-230 -480.5z" />
    <glyph glyph-name="P" unicode="P" horiz-adv-x="1404" 
d="M266 0h-67l214 1352h603q217 0 334.5 -103t89.5 -274q-27 -171 -179 -273.5t-367 -102.5h-533zM368 644h510q204 0 334.5 86t154.5 245q25 154 -79.5 240t-311.5 86h-504z" />
    <glyph glyph-name="Q" unicode="Q" horiz-adv-x="1524" 
d="M230 675q51 325 253.5 519t497.5 194q294 0 436 -195t91 -518q-28 -177 -105.5 -318.5t-194.5 -236.5l180 -181l-56 -35l-178 178q-176 -117 -399 -117q-294 0 -435 193.5t-90 516.5zM301 675q-48 -300 76.5 -479.5t386.5 -179.5q192 0 353 103l-289 288l58 39l282 -286
q105 86 174.5 218t95.5 297q48 302 -79.5 481.5t-385.5 179.5q-260 0 -442 -179t-230 -482z" />
    <glyph glyph-name="R" unicode="R" horiz-adv-x="1379" 
d="M199 0l214 1352h609q224 0 336 -100.5t87 -259.5q-22 -138 -120 -225t-226 -115q66 -18 109.5 -51.5t63 -76.5t26.5 -97t0 -113v1q-2 -34 -6 -93t-4.5 -79t0 -52.5t6 -51t15.5 -37.5l2 -2h-71q-18 47 -20 114t6 198q7 70 -5.5 124.5t-49.5 98.5t-109 67.5t-176 23.5h-521
l-99 -626h-67zM373 677h539q196 0 318 84t145 230q22 139 -76 224.5t-308 85.5h-519z" />
    <glyph glyph-name="S" unicode="S" horiz-adv-x="1368" 
d="M1235 338q8 49 -9 91t-52 75t-95 63t-128 54t-162 50q-74 21 -125 37q-76 25 -147 59q-73 32 -111 70q-41 39 -63.5 95.5t-11.5 121.5q25 155 179.5 245.5t396.5 90.5q165 0 288 -62t176 -157l-67 -22q-54 85 -162.5 135t-248.5 50q-209 0 -345 -76t-156 -204
q-8 -49 8.5 -91t51.5 -75t95 -63.5t127.5 -54.5t161.5 -51q101 -27 152.5 -44.5t120.5 -49.5q74 -32 112 -70q41 -39 63 -95.5t12 -121.5q-29 -177 -189 -276t-423 -99q-184 0 -317.5 65.5t-208.5 180.5l76 26q58 -98 182 -157.5t281 -59.5q142 0 254.5 33.5t189.5 106.5
t93 178z" />
    <glyph glyph-name="T" unicode="T" horiz-adv-x="1325" 
d="M835 1301h-528l8 51h1125l-8 -51h-527l-206 -1301h-70z" />
    <glyph glyph-name="U" unicode="U" horiz-adv-x="1511" 
d="M272 461l141 891h67l-139 -881q-35 -219 74 -337t341 -118q233 0 380 118.5t181 336.5l139 881h70l-141 -891q-38 -239 -202 -367.5t-436 -128.5q-266 0 -389.5 128t-85.5 368z" />
    <glyph glyph-name="V" unicode="V" horiz-adv-x="1357" 
d="M630 0l-371 1352h82l267 -1014q9 -44 32 -118q8 -35 21 -86t17 -69h6l159 273l600 1014h82l-814 -1352h-81z" />
    <glyph glyph-name="W" unicode="W" horiz-adv-x="1902" 
d="M451 0l-200 1352h80l141 -1020q11 -80 30 -267h6q11 23 60.5 128t65.5 139l485 1020h91l164 -1020l21 -134q13 -83 21 -133h6q78 190 115 267l462 1020h80l-626 -1352h-87l-166 1000q-27 148 -41 287h-5q-33 -75 -134 -287l-481 -1000h-88z" />
    <glyph glyph-name="X" unicode="X" horiz-adv-x="1285" 
d="M136 0h-87l653 696l-412 656h88l376 -614h8l569 614h89l-619 -656l435 -696h-86l-402 652h-8z" />
    <glyph glyph-name="Y" unicode="Y" horiz-adv-x="1349" 
d="M730 557l-468 795h85l424 -736h5l653 736h86l-715 -795l-88 -557h-70z" />
    <glyph glyph-name="Z" unicode="Z" horiz-adv-x="1366" 
d="M130 0l7 47l1204 1254h-931l8 51h1010l-7 -47l-1205 -1255h1034l-8 -50h-1112z" />
    <glyph glyph-name="bracketleft" unicode="[" horiz-adv-x="736" 
d="M566 -253h-376l284 1795h376l-7 -47h-309l-270 -1701h309z" />
    <glyph glyph-name="backslash" unicode="\" horiz-adv-x="781" 
d="M651 -124l-376 1586h68l375 -1586h-67z" />
    <glyph glyph-name="bracketright" unicode="]" horiz-adv-x="739" 
d="M90 -253l7 47h309l270 1701h-309l7 47h379l-284 -1795h-379z" />
    <glyph glyph-name="asciicircum" unicode="^" horiz-adv-x="1081" 
d="M299 929h-77l520 579h72l338 -579h-80l-302 525h-2l-95 -102z" />
    <glyph glyph-name="underscore" unicode="_" horiz-adv-x="860" 
d="M-44 -147l7 49h901l-7 -49h-901z" />
    <glyph glyph-name="a" unicode="a" horiz-adv-x="1218" 
d="M214 220q-14 -87 67 -147.5t233 -60.5q126 0 240.5 45.5t191.5 129t93 186.5l30 190q-147 -40 -401 -72q-220 -28 -328 -94.5t-126 -176.5zM143 216q42 260 529 320q297 36 405 76l8 50q20 126 -69 203t-265 77q-112 0 -220 -42t-190 -119l-43 25q80 81 205 133t256 52
q212 0 315 -92.5t79 -242.5l-104 -656h-67l33 208q-59 -100 -204 -171.5t-310 -71.5q-182 0 -278.5 69.5t-79.5 181.5z" />
    <glyph glyph-name="b" unicode="b" horiz-adv-x="1225" 
d="M239 0h-70l223 1411h70l-111 -706q47 115 173 200.5t279 85.5q216 0 322.5 -137.5t69.5 -373.5q-26 -165 -110 -283.5t-199 -175t-249 -56.5q-141 0 -236 74.5t-126 190.5zM309 480q-34 -214 62 -341t269 -127q188 0 323.5 127.5t169.5 340.5q33 210 -62 336t-281 126
q-111 0 -211.5 -54.5t-174 -161t-95.5 -246.5z" />
    <glyph glyph-name="c" unicode="c" horiz-adv-x="1121" 
d="M181 479q35 225 191.5 368.5t383.5 143.5q135 0 229.5 -58.5t126.5 -152.5l-66 -17q-30 81 -109.5 130t-188.5 49q-190 0 -328.5 -129t-170.5 -334q-33 -208 66.5 -337.5t285.5 -129.5q113 0 222 55t171 136l55 -18q-71 -96 -194.5 -158t-261.5 -62q-220 0 -334.5 140.5
t-77.5 373.5z" />
    <glyph glyph-name="d" unicode="d" horiz-adv-x="1224" 
d="M181 480q37 236 189 373.5t368 137.5q146 0 243 -81t119 -203l111 704h67l-223 -1411h-66l37 232q-67 -120 -185.5 -193.5t-266.5 -73.5q-98 0 -178 33t-135.5 96t-77.5 162.5t-2 223.5zM249 480q-33 -211 58.5 -339.5t279.5 -128.5q175 0 309.5 126.5t168.5 341.5
q33 209 -65 335.5t-267 126.5q-185 0 -317.5 -125.5t-166.5 -336.5z" />
    <glyph glyph-name="e" unicode="e" horiz-adv-x="1198" 
d="M181 483q36 224 195 366t386 142q148 0 252 -66t146 -174.5t21 -238.5l-4 -24q-6 -18 -7 -25h-924q-15 -93 3 -175t64.5 -143.5t124 -97t177.5 -35.5q124 0 239.5 54.5t186.5 137.5l55 -19q-84 -102 -209.5 -161t-279.5 -59t-259.5 67t-148 184t-18.5 267zM253 506h858
q29 182 -69.5 309t-287.5 127q-138 0 -247 -67q-208 -128 -254 -369z" />
    <glyph glyph-name="f" unicode="f" horiz-adv-x="744" 
d="M467 908h-228l7 48h228l31 195q20 130 110 195t234 65h98l-7 -48h-95q-235 0 -271 -225l-29 -182h298l-7 -48h-298l-144 -908h-71z" />
    <glyph glyph-name="g" unicode="g" 
d="M251 494q-31 -200 60.5 -324.5t267.5 -124.5q186 0 311.5 121t159.5 333q31 198 -59 320.5t-265 122.5q-188 0 -315.5 -123.5t-159.5 -324.5zM144 -302l58 29q116 -135 317 -135q206 0 315 114.5t147 354.5l30 190q-149 -255 -437 -255q-212 0 -319 138.5t-72 359.5
q36 223 184.5 360t361.5 137q148 0 237 -73.5t121 -187.5l35 226h67l-140 -885q-43 -273 -170 -400.5t-367 -127.5q-118 0 -215 42t-153 113z" />
    <glyph glyph-name="h" unicode="h" horiz-adv-x="1201" 
d="M239 0h-70l223 1411h70l-104 -658h2q56 94 186 166t276 72q181 0 259 -95.5t50 -273.5l-99 -622h-65l96 605q52 337 -262 337q-105 0 -208 -48.5t-174.5 -130.5t-86.5 -174z" />
    <glyph glyph-name="i" unicode="i" horiz-adv-x="438" 
d="M492 1230h-156l22 143h156zM189 0l151 956h66l-151 -956h-66z" />
    <glyph glyph-name="j" unicode="j" horiz-adv-x="508" 
d="M561 1230h-152l22 143h152zM-110 -437l7 47h63q238 0 278 257l172 1089h65l-173 -1097q-23 -145 -108.5 -220.5t-225.5 -75.5h-78z" />
    <glyph glyph-name="k" unicode="k" horiz-adv-x="1071" 
d="M240 0h-71l223 1411h71l-165 -1042l732 587h90l-463 -375l374 -581h-82l-350 538l-313 -249z" />
    <glyph glyph-name="l" unicode="l" horiz-adv-x="407" 
d="M238 0h-69l223 1411h69z" />
    <glyph glyph-name="m" unicode="m" horiz-adv-x="1828" 
d="M236 0h-67l151 956h64l-29 -183h6q52 92 159.5 155t248.5 63q142 0 208.5 -72t68.5 -189q19 60 118 146q55 49 145.5 82t188.5 33q164 0 227 -90.5t33 -278.5l-99 -622h-66l96 608q28 172 -19 253t-199 81q-156 0 -279.5 -103t-149.5 -264l-91 -575h-70l96 606
q54 336 -225 336q-160 0 -279 -99t-144 -254z" />
    <glyph glyph-name="n" unicode="n" horiz-adv-x="1202" 
d="M236 0h-67l151 956h64l-34 -216h6q35 88 171 169.5t294 81.5q135 0 229 -67q55 -37 77 -115t5 -187l-99 -622h-71l96 605q52 337 -257 337q-105 0 -209 -48.5t-176 -130.5t-87 -174z" />
    <glyph glyph-name="o" unicode="o" 
d="M249 479q-33 -206 64.5 -336.5t293.5 -130.5q193 0 333.5 131.5t173.5 335.5q32 204 -69 333.5t-291 129.5q-191 0 -332 -129t-173 -334zM181 479q36 226 194 369t387 143q149 0 253.5 -66t148 -182t20.5 -264q-35 -222 -195 -368t-390 -146q-155 0 -259 69t-143 184.5
t-16 260.5z" />
    <glyph glyph-name="p" unicode="p" horiz-adv-x="1225" 
d="M312 482q-33 -210 59 -340t272 -130q181 0 318.5 127.5t171.5 340.5q33 207 -58.5 334.5t-284.5 127.5q-173 0 -309.5 -130.5t-168.5 -329.5zM98 -449l222 1405h70l-38 -243q68 129 188.5 203.5t262.5 74.5q215 0 322 -139.5t70 -371.5q-25 -160 -105.5 -277.5
t-197 -177.5t-255.5 -60q-144 0 -237.5 74t-122.5 198l-109 -686h-70z" />
    <glyph glyph-name="q" unicode="q" horiz-adv-x="1224" 
d="M249 480q-33 -213 60.5 -340.5t276.5 -127.5q180 0 313 131.5t165 338.5q32 201 -63 330.5t-268 129.5q-191 0 -321.5 -128.5t-162.5 -333.5zM181 480q37 232 188.5 371.5t367.5 139.5q138 0 237.5 -73.5t127.5 -201.5l38 240h66l-222 -1405h-67l109 688
q-73 -125 -190 -199.5t-261 -74.5q-213 0 -322.5 137.5t-71.5 377.5z" />
    <glyph glyph-name="r" unicode="r" horiz-adv-x="812" 
d="M236 0h-67l151 956h64l-28 -180q49 89 152.5 152t244.5 63q94 0 173 -32l-8 -51q-84 32 -173 32q-160 0 -276 -101.5t-141 -257.5z" />
    <glyph glyph-name="s" unicode="s" horiz-adv-x="1078" 
d="M1012 220q-18 -114 -143.5 -187.5t-327.5 -73.5q-303 0 -414 200l68 31q48 -81 140 -126.5t215 -45.5q159 0 271 57t126 145q14 81 -74.5 134t-294.5 103q-89 22 -138 39.5t-100 49.5q-113 62 -93 192q19 119 147 189t311 70q131 0 231.5 -55t139.5 -139l-57 -30
q-38 74 -124.5 119.5t-198.5 45.5q-153 0 -263 -56.5t-123 -142.5q-14 -89 63 -139.5t280 -99.5q177 -44 263 -97q114 -63 96 -183z" />
    <glyph glyph-name="t" unicode="t" horiz-adv-x="769" 
d="M447 908h-228l7 48h228l53 332h73l-53 -332h317l-7 -48h-317l-104 -655q-17 -109 27 -158.5t158 -47.5l100 3l-8 -50h-108q-138 -3 -200.5 58t-43.5 184z" />
    <glyph glyph-name="u" unicode="u" horiz-adv-x="1191" 
d="M221 326l99 630h67l-95 -605q-25 -156 38 -247.5t228 -91.5q188 0 312 111.5t151 280.5l87 552h65l-151 -956h-65l33 208q-37 -96 -161 -169.5t-295 -73.5q-179 0 -259 97.5t-54 263.5z" />
    <glyph glyph-name="v" unicode="v" horiz-adv-x="1145" 
d="M528 0l-300 956h74l278 -909h5l557 909h78l-603 -956h-89z" />
    <glyph glyph-name="w" unicode="w" horiz-adv-x="1648" 
d="M416 0l-188 956h80l160 -906h8l454 906h87l173 -905h2l450 905h79l-492 -956h-91l-170 896h-7l-452 -896h-93z" />
    <glyph glyph-name="x" unicode="x" horiz-adv-x="1127" 
d="M182 0h-83l498 499l-322 457h82l292 -414h1l415 414h88l-468 -459l344 -497h-87l-306 457h-1z" />
    <glyph glyph-name="y" unicode="y" horiz-adv-x="1130" 
d="M527 -51l-299 1007h80l263 -934h4l552 934h78l-695 -1154q-80 -133 -160.5 -192t-176.5 -59h-50l8 49h41q159 0 280 218z" />
    <glyph glyph-name="z" unicode="z" horiz-adv-x="1099" 
d="M994 0h-863l6 41l892 867h-697l7 48h778l-6 -42l-888 -867h778z" />
    <glyph glyph-name="braceleft" unicode="{" horiz-adv-x="914" 
d="M297 610h-53l7 46h53q212 0 260 302l59 374q15 96 86.5 153t160.5 57h158l-7 -47h-143q-69 0 -121.5 -47.5t-66.5 -131.5l-58 -372q-39 -237 -220 -313q74 -25 107.5 -102.5t15.5 -193.5l-55 -345q-15 -95 21.5 -144.5t113.5 -49.5h137l-8 -47h-155q-91 0 -145 55
t-38 156l55 352q23 145 -20 221.5t-144 76.5z" />
    <glyph glyph-name="braceright" unicode="}" horiz-adv-x="910" 
d="M90 -251l8 47h137q76 0 129 50t68 144l56 354q18 110 75 187t137 100q-154 74 -118 305l60 380q14 85 -24 132t-111 47h-140l7 47h156q92 0 144 -56t37 -154l-59 -374q-23 -146 18.5 -224t144.5 -78h53l-7 -46h-53q-100 0 -168 -77.5t-89 -209.5l-57 -363
q-17 -101 -87.5 -156t-164.5 -55h-152z" />
    <glyph glyph-name="asciitilde" unicode="~" horiz-adv-x="1623" 
d="M260 583q172 210 400 210q148 0 238 -88q11 -10 23 -22.5t27 -27.5l23 -23q87 -87 206 -87q120 0 208 71q75 60 135 127l49 -24q-95 -108 -189 -165t-210 -57q-147 0 -235 88q-38 34 -73 72q-89 89 -212 89q-178 0 -343 -189z" />
    <glyph glyph-name="exclamdown" unicode="&#xa1;" horiz-adv-x="594" 
d="M280 -404h-91l170 965h61zM330 809l25 154h191l-25 -154h-191z" />
    <glyph glyph-name="cent" unicode="&#xa2;" horiz-adv-x="1119" 
d="M181 479q35 221 185.5 363.5t371.5 146.5l23 147h70l-24 -149q117 -12 197.5 -67.5t107.5 -139.5l-64 -17q-31 79 -111.5 129t-188.5 50q-192 0 -329.5 -129t-169.5 -334q-33 -208 65.5 -337.5t286.5 -129.5q112 0 220 55t172 136l54 -18q-71 -89 -175 -147.5t-226 -70.5
l-24 -151h-70l23 149q-212 4 -321 144t-73 370z" />
    <glyph glyph-name="sterling" unicode="&#xa3;" horiz-adv-x="1421" 
d="M500 646h-263l8 50h263l56 352q26 165 146 252.5t309 87.5q122 0 211.5 -49t125.5 -125l-53 -23q-83 147 -287 147q-161 0 -262 -75t-124 -219l-55 -348h544l-8 -50h-544l-44 -277q-34 -222 -221 -329q180 34 293 34q83 0 180 -30q107 -28 170 -28q172 0 305 55l15 -48
q-140 -58 -331 -58q-64 0 -175 31q-108 30 -184 30q-70 0 -170.5 -12t-171.5 -27l-66 -14l-17 49q125 36 206.5 133t99.5 214z" />
    <glyph glyph-name="currency" unicode="&#xa4;" horiz-adv-x="1409" 
d="M174 212l-42 33l277 191q-95 95 -73 239q22 143 145 241l-214 185l54 39l214 -184q150 92 335 92q187 0 307 -96l268 186l41 -39l-273 -183q95 -104 74 -241q-21 -133 -150 -239l214 -191l-50 -35l-212 186q-141 -94 -337 -94q-189 0 -307 94zM406 675
q-21 -136 79.5 -230t274.5 -94q172 0 305 94.5t154 229.5q21 136 -82 230.5t-275 94.5t-303.5 -94.5t-152.5 -230.5z" />
    <glyph glyph-name="yen" unicode="&#xa5;" horiz-adv-x="1298" 
d="M674 650l-437 702h85l315 -513q4 -6 12 -18.5t20.5 -33.5t23.5 -39q46 -72 58 -96h5q128 140 168 182l480 518h86l-655 -702h405l-7 -45h-452l-32 -198h452l-7 -46h-452l-57 -361h-68l57 361h-461l7 46h461l32 198h-461l7 45h415z" />
    <glyph glyph-name="copyright" unicode="&#xa9;" horiz-adv-x="1762" 
d="M876 -27q-152 0 -278.5 53.5t-209 145t-118.5 220t-13 273.5q31 192 151.5 350t302 248.5t383.5 90.5q151 0 278 -53t209 -144.5t118.5 -219.5t13.5 -272q-31 -193 -151 -352t-301.5 -249.5t-384.5 -90.5zM316 665q-29 -182 34 -329.5t203 -231.5t330 -84q189 0 356 83.5
t278 231.5t140 330q29 181 -35.5 328t-205 230.5t-329.5 83.5q-188 0 -355 -84t-277 -231t-139 -327zM632 659q27 169 147 274t285 105q112 0 187.5 -56t91.5 -152h-67q-14 75 -71 116t-149 41q-138 0 -238.5 -91t-123.5 -234q-23 -142 47 -232t203 -90q94 0 167.5 40
t115.5 114h63q-50 -94 -145.5 -149.5t-208.5 -55.5q-159 0 -244 103.5t-60 266.5z" />
    <glyph glyph-name="ordfeminine" unicode="&#xaa;" horiz-adv-x="812" 
d="M861 640h-707l8 46h707zM213 1009q13 82 86.5 136t168.5 69q34 6 125 18.5t150 24t104 26.5l5 28q13 84 -45 135t-175 51q-88 0 -166 -36t-113 -76l-42 24q57 58 146.5 95t181.5 37q149 0 219 -63.5t53 -170.5l-72 -453h-58l19 121q-53 -63 -143.5 -103t-193.5 -40
q-127 0 -195 49t-55 128zM272 1010q-9 -56 44.5 -95.5t154.5 -39.5q127 0 230.5 69t119.5 171l19 121q-60 -17 -197 -36.5t-158 -23.5q-81 -13 -141.5 -56t-71.5 -110z" />
    <glyph glyph-name="guillemotleft" unicode="&#xab;" horiz-adv-x="1053" 
d="M497 55l-283 408l416 403l47 -27l-387 -376l264 -379zM564 463l416 400l46 -27l-387 -373l266 -377l-54 -29z" />
    <glyph glyph-name="logicalnot" unicode="&#xac;" horiz-adv-x="1176" 
d="M1107 624h-907l7 47h977l-68 -434h-70z" />
    <glyph glyph-name="uni00AD" unicode="&#xad;" horiz-adv-x="1247" 
d="M1203 640h-955l8 51h955z" />
    <glyph glyph-name="registered" unicode="&#xae;" horiz-adv-x="962" 
d="M581 629q-168 0 -264 106.5t-71 264.5q25 156 155.5 262.5t296.5 106.5t261.5 -105.5t70.5 -263.5q-25 -159 -153 -265t-296 -106zM306 1000q-21 -137 59 -227t224 -90q143 0 252.5 90.5t130.5 226.5q22 134 -59.5 224.5t-223.5 90.5t-251.5 -90.5t-131.5 -224.5z
M461 797l66 414h158q71 0 107 -34.5t27 -93.5q-15 -87 -109 -115l72 -171h-71l-64 156h-98l-25 -156h-63zM558 1009h93q90 0 101 73q6 35 -14.5 53.5t-63.5 18.5h-93z" />
    <glyph glyph-name="plusminus" unicode="&#xb1;" horiz-adv-x="1463" 
d="M820 758h-494l8 48h494l60 381h66l-60 -381h491l-8 -48h-491l-60 -381h-66zM238 159l8 47h1038l-8 -47h-1038z" />
    <glyph glyph-name="uni00B2" unicode="&#xb2;" horiz-adv-x="638" 
d="M262 1358q35 78 112.5 129t190.5 51q114 0 176.5 -54t47.5 -148q-20 -116 -184 -225q-189 -131 -256 -184q-74 -59 -101 -111h458l-6 -42h-524q2 34 23.5 67t73.5 78q16 14 44 37t37 31q157 117 219 156q142 103 157 193q12 76 -35 117.5t-139 41.5q-164 0 -242 -147z
" />
    <glyph glyph-name="uni00B3" unicode="&#xb3;" horiz-adv-x="638" 
d="M224 912q65 -113 205 -113q104 0 175 47t85 135q12 77 -43 123.5t-190 46.5q-14 0 -49 -4l7 48q24 -2 47 -2q118 0 179 43.5t73 113.5q10 65 -37 106t-136 41q-120 0 -215 -118l-48 16q102 146 270 146q114 0 175 -54t48 -135q-19 -123 -168 -177q169 -47 145 -194
q-17 -107 -106 -166.5t-219 -59.5q-179 0 -251 134z" />
    <glyph glyph-name="uni00B5" unicode="&#xb5;" horiz-adv-x="1203" 
d="M166 -449h-72l222 1405h72l-97 -616q-23 -149 44 -238.5t226 -89.5q192 0 322 113t157 279l87 552h66l-151 -956h-64l33 208h-5q-45 -101 -169.5 -172t-291.5 -71q-225 0 -289 157z" />
    <glyph glyph-name="periodcentered" unicode="&#xb7;" horiz-adv-x="563" 
d="M467 567h-190l25 157h190z" />
    <glyph glyph-name="uni00B9" unicode="&#xb9;" horiz-adv-x="638" 
d="M429 773l112 699l-207 -108l10 64l217 116h51l-123 -771h-60z" />
    <glyph glyph-name="ordmasculine" unicode="&#xba;" horiz-adv-x="812" 
d="M307 1187q-22 -137 42.5 -224.5t193.5 -87.5q127 0 221.5 88.5t115.5 223.5q22 136 -44.5 223t-194.5 87q-125 0 -218.5 -86.5t-115.5 -223.5zM154 640l8 46h707l-8 -46h-707zM244 1187q25 157 134.5 255.5t269.5 98.5q156 0 236.5 -99t55.5 -255q-24 -151 -134.5 -253
t-269.5 -102q-161 0 -238.5 101.5t-53.5 253.5z" />
    <glyph glyph-name="guillemotright" unicode="&#xbb;" horiz-adv-x="1055" 
d="M553 463l-268 373l56 27l288 -400l-413 -406l-45 29zM519 84l385 379l-268 376l56 27l289 -403l-412 -408z" />
    <glyph glyph-name="questiondown" unicode="&#xbf;" horiz-adv-x="1028" 
d="M81 -86q24 152 189 268q20 13 66 45.5t72 49.5q165 115 190 275l5 29h68l-5 -30q-14 -89 -66 -163.5t-126 -127.5q-99 -69 -137 -93q-164 -110 -186 -251q-22 -138 58.5 -220t242.5 -82q251 0 417 229l56 -21q-85 -124 -211 -191t-267 -67q-196 0 -293.5 95t-72.5 255z
M578 810l25 153h189l-25 -153h-189z" />
    <glyph glyph-name="Agrave" unicode="&#xc0;" horiz-adv-x="1464" 
d="M726 1841h121l207 -319h-72zM45 0l854 1352h93l426 -1352h-80l-136 447h-798l-281 -447h-78zM434 494h751l-246 804h-5z" />
    <glyph glyph-name="Aacute" unicode="&#xc1;" horiz-adv-x="1464" 
d="M856 1522l309 319h121l-358 -319h-72zM45 0l854 1352h93l426 -1352h-80l-136 447h-798l-281 -447h-78zM434 494h751l-246 804h-5z" />
    <glyph glyph-name="Acircumflex" unicode="&#xc2;" horiz-adv-x="1464" 
d="M577 1522l406 292h73l316 -292h-87l-272 244l-349 -244h-87zM45 0l854 1352h93l426 -1352h-80l-136 447h-798l-281 -447h-78zM434 494h751l-246 804h-5z" />
    <glyph glyph-name="Atilde" unicode="&#xc3;" horiz-adv-x="1464" 
d="M550 1594q38 67 111.5 114.5t164.5 47.5q81 0 179 -68q93 -69 146 -69q115 0 210 129l53 -18q-106 -159 -268 -159q-65 0 -122 34q-21 13 -55 37.5t-51.5 35.5t-44.5 21t-54 10q-124 0 -214 -134zM45 0l854 1352h93l426 -1352h-80l-136 447h-798l-281 -447h-78zM434 494
h751l-246 804h-5z" />
    <glyph glyph-name="Adieresis" unicode="&#xc4;" horiz-adv-x="1464" 
d="M679 1609l21 134h166l-21 -134h-166zM45 0l854 1352h93l426 -1352h-80l-136 447h-798l-281 -447h-78zM434 494h751l-246 804h-5zM1118 1609l21 134h165l-21 -134h-165z" />
    <glyph glyph-name="Aring" unicode="&#xc5;" horiz-adv-x="1464" 
d="M718 1670q14 90 103.5 155t208.5 65q117 0 186.5 -63.5t55.5 -156.5q-15 -91 -103.5 -155.5t-207.5 -64.5q-117 0 -187 65t-56 155zM45 0l854 1352h93l426 -1352h-80l-136 447h-798l-281 -447h-78zM434 494h751l-246 804h-5zM781 1670q-12 -73 40.5 -124t146.5 -51
q95 0 162 49t80 126q11 74 -40 124t-147 50q-95 0 -162.5 -50.5t-79.5 -123.5z" />
    <glyph glyph-name="AE" unicode="&#xc6;" horiz-adv-x="2109" 
d="M1325 1301l-743 -807h636l128 807h-21zM45 0l1251 1352h893l-8 -51h-766l-91 -575h684l-7 -47h-687l-100 -629h776l-8 -50h-842l71 447h-671l-417 -447h-78z" />
    <glyph glyph-name="Ccedilla" unicode="&#xc7;" horiz-adv-x="1423" 
d="M230 677q53 331 263.5 521t511.5 190q172 0 283 -76t151 -188l-65 -23q-40 104 -136 169.5t-241 65.5q-269 0 -458.5 -179.5t-237.5 -479.5q-48 -303 87 -482t400 -179q159 0 285.5 66.5t210.5 180.5l61 -18q-203 -277 -559 -280l-42 -91q123 -1 185.5 -40.5t51.5 -106.5
q-11 -69 -94.5 -111.5t-205.5 -42.5q-115 0 -214 29l7 47q111 -34 215 -34q81 0 151 33.5t77 78.5q8 54 -55.5 81t-199.5 27l61 132q-273 20 -407.5 209.5t-85.5 500.5z" />
    <glyph glyph-name="Egrave" unicode="&#xc8;" horiz-adv-x="1333" 
d="M1206 0h-1007l214 1352h975l-8 -51h-908l-91 -575h821l-7 -47h-821l-100 -629h940zM738 1841h121l207 -319h-72z" />
    <glyph glyph-name="Eacute" unicode="&#xc9;" horiz-adv-x="1333" 
d="M1206 0h-1007l214 1352h975l-8 -51h-908l-91 -575h821l-7 -47h-821l-100 -629h940zM789 1522l308 319h122l-357 -319h-73z" />
    <glyph glyph-name="Ecircumflex" unicode="&#xca;" horiz-adv-x="1333" 
d="M629 1522h-87l407 292h72l316 -292h-87l-271 244zM199 0l214 1352h975l-8 -51h-908l-91 -575h821l-7 -47h-821l-100 -629h940l-8 -50h-1007z" />
    <glyph glyph-name="Edieresis" unicode="&#xcb;" horiz-adv-x="1333" 
d="M1206 0h-1007l214 1352h975l-8 -51h-908l-91 -575h821l-7 -47h-821l-100 -629h940zM655 1609l21 134h164l-21 -134h-164zM1093 1609l21 134h165l-21 -134h-165z" />
    <glyph glyph-name="Igrave" unicode="&#xcc;" horiz-adv-x="570" 
d="M315 0h-67l214 1352h67zM285 1841h122l206 -319h-72z" />
    <glyph glyph-name="Iacute" unicode="&#xcd;" horiz-adv-x="580" 
d="M330 0h-67l214 1352h67zM440 1522l308 319h122l-357 -319h-73z" />
    <glyph glyph-name="Icircumflex" unicode="&#xce;" horiz-adv-x="710" 
d="M391 0h-67l214 1352h67zM199 1522l406 292h73l315 -292h-86l-271 244l-350 -244h-87z" />
    <glyph glyph-name="Idieresis" unicode="&#xcf;" horiz-adv-x="627" 
d="M345 0h-67l214 1352h67zM267 1609l21 134h165l-21 -134h-165zM705 1609l21 134h166l-21 -134h-166z" />
    <glyph glyph-name="Eth" unicode="&#xd0;" horiz-adv-x="1484" 
d="M626 0h-404l107 673h-215l7 49h215l100 630h403q347 0 514.5 -171t114.5 -504q-52 -331 -273 -504t-569 -173zM297 50h305q220 0 383 65t270 206.5t141 355.5q99 624 -590 624h-311l-92 -579h472l-7 -49h-472z" />
    <glyph glyph-name="Ntilde" unicode="&#xd1;" horiz-adv-x="1531" 
d="M600 1594q40 68 113 115t164 47q84 0 179 -68q95 -69 148 -69q116 0 208 129l53 -18q-105 -159 -267 -159q-64 0 -123 34q-20 13 -54.5 37.5t-52 35.5t-44.5 21t-54 10q-125 0 -215 -134zM199 0l214 1352h84l777 -1265l200 1265h73l-214 -1352h-88l-778 1270l-201 -1270
h-67z" />
    <glyph glyph-name="Ograve" unicode="&#xd2;" horiz-adv-x="1524" 
d="M230 677q51 323 254 517t497 194q295 0 436.5 -194.5t90.5 -518.5q-51 -321 -254.5 -515.5t-498.5 -194.5t-435.5 195t-89.5 517zM301 677q-31 -197 12 -345.5t159 -232t292 -83.5q263 0 444.5 180t229.5 479q48 301 -78.5 481t-386.5 180t-442 -178.5t-230 -480.5z
M790 1842h120l206 -319h-72z" />
    <glyph glyph-name="Oacute" unicode="&#xd3;" horiz-adv-x="1524" 
d="M230 677q51 323 254 517t497 194q295 0 436.5 -194.5t90.5 -518.5q-51 -321 -254.5 -515.5t-498.5 -194.5t-435.5 195t-89.5 517zM301 677q-31 -197 12 -345.5t159 -232t292 -83.5q263 0 444.5 180t229.5 479q48 301 -78.5 481t-386.5 180t-442 -178.5t-230 -480.5z
M892 1523l307 319h122l-357 -319h-72z" />
    <glyph glyph-name="Ocircumflex" unicode="&#xd4;" horiz-adv-x="1524" 
d="M230 677q51 323 254 517t497 194q295 0 436.5 -194.5t90.5 -518.5q-51 -321 -254.5 -515.5t-498.5 -194.5t-435.5 195t-89.5 517zM301 677q-31 -197 12 -345.5t159 -232t292 -83.5q263 0 444.5 180t229.5 479q48 301 -78.5 481t-386.5 180t-442 -178.5t-230 -480.5z
M607 1523l408 293h72l315 -293h-87l-271 245l-350 -245h-87z" />
    <glyph glyph-name="Otilde" unicode="&#xd5;" horiz-adv-x="1524" 
d="M606 1594q38 67 111 114.5t164 47.5q84 0 179 -68q94 -69 148 -69q116 0 208 129l55 -18q-109 -159 -268 -159q-68 0 -122 34q-20 13 -55 37.5t-52.5 35.5t-45 21t-54.5 10q-124 0 -214 -134zM230 677q51 323 254 517t497 194q295 0 436.5 -194.5t90.5 -518.5
q-51 -321 -254.5 -515.5t-498.5 -194.5t-435.5 195t-89.5 517zM301 677q-31 -197 12 -345.5t159 -232t292 -83.5q263 0 444.5 180t229.5 479q48 301 -78.5 481t-386.5 180t-442 -178.5t-230 -480.5z" />
    <glyph glyph-name="Odieresis" unicode="&#xd6;" horiz-adv-x="1524" 
d="M230 677q51 323 254 517t497 194q295 0 436.5 -194.5t90.5 -518.5q-51 -321 -254.5 -515.5t-498.5 -194.5t-435.5 195t-89.5 517zM301 677q-31 -197 12 -345.5t159 -232t292 -83.5q263 0 444.5 180t229.5 479q48 301 -78.5 481t-386.5 180t-442 -178.5t-230 -480.5z
M711 1609l21 134h164l-21 -134h-164zM1150 1609l21 134h164l-21 -134h-164z" />
    <glyph glyph-name="multiply" unicode="&#xd7;" horiz-adv-x="1442" 
d="M291 269l-39 39l527 351l-406 354l52 39l402 -357l519 357l39 -39l-517 -354l418 -353l-52 -37l-418 357z" />
    <glyph glyph-name="Oslash" unicode="&#xd8;" horiz-adv-x="1524" 
d="M230 675q51 323 254 518t497 195q188 0 329 -88l126 168h69l-152 -200q219 -190 155 -593q-51 -321 -253.5 -515.5t-499.5 -194.5q-162 0 -280 62l-133 -178h-69l158 204q-131 89 -183 249.5t-18 372.5zM301 675q-31 -193 11.5 -341.5t153.5 -229.5l804 1144
q-121 88 -297 88q-261 0 -442.5 -179t-229.5 -482zM514 74q107 -58 250 -58q264 0 445.5 180.5t228.5 478.5q57 363 -126 537z" />
    <glyph glyph-name="Ugrave" unicode="&#xd9;" horiz-adv-x="1511" 
d="M272 461l141 891h67l-139 -881q-35 -219 74 -337t341 -118q233 0 380 118.5t181 336.5l139 881h70l-141 -891q-38 -239 -202 -367.5t-436 -128.5q-266 0 -389.5 128t-85.5 368zM803 1842h120l207 -319h-72z" />
    <glyph glyph-name="Uacute" unicode="&#xda;" horiz-adv-x="1511" 
d="M272 461l141 891h67l-139 -881q-35 -219 74 -337t341 -118q233 0 380 118.5t181 336.5l139 881h70l-141 -891q-38 -239 -202 -367.5t-436 -128.5q-266 0 -389.5 128t-85.5 368zM868 1523l309 319h121l-358 -319h-72z" />
    <glyph glyph-name="Ucircumflex" unicode="&#xdb;" horiz-adv-x="1511" 
d="M272 461l141 891h67l-139 -881q-35 -219 74 -337t341 -118q233 0 380 118.5t181 336.5l139 881h70l-141 -891q-38 -239 -202 -367.5t-436 -128.5q-266 0 -389.5 128t-85.5 368zM607 1523l406 293h72l315 -293h-85l-273 245l-350 -245h-85z" />
    <glyph glyph-name="Udieresis" unicode="&#xdc;" horiz-adv-x="1511" 
d="M272 461l141 891h67l-139 -881q-35 -219 74 -337t341 -118q233 0 380 118.5t181 336.5l139 881h70l-141 -891q-38 -239 -202 -367.5t-436 -128.5q-266 0 -389.5 128t-85.5 368zM718 1609l21 134h164l-21 -134h-164zM1156 1609l21 134h165l-21 -134h-165z" />
    <glyph glyph-name="Yacute" unicode="&#xdd;" horiz-adv-x="1349" 
d="M787 1523l308 319h122l-359 -319h-71zM262 1352h85l424 -736h5l653 736h86l-715 -795l-88 -557h-70l88 557z" />
    <glyph glyph-name="Thorn" unicode="&#xde;" horiz-adv-x="1324" 
d="M248 0h-67l214 1354h67l-40 -255h378q272 0 395.5 -104.5t92.5 -299.5q-33 -209 -204.5 -310.5t-458.5 -101.5h-332zM301 332h322q538 0 595 360q29 180 -81 270t-358 90h-364z" />
    <glyph glyph-name="germandbls" unicode="&#xdf;" horiz-adv-x="1410" 
d="M266 0h-67l167 1052q24 155 169 245.5t355 90.5q202 0 316 -99.5t89 -256.5q-19 -120 -90 -204.5t-168 -123.5l-1 -4q109 -17 211 -100q52 -42 76 -115.5t10 -161.5q-24 -153 -163.5 -255.5t-341.5 -102.5q-177 0 -343 43l25 51q142 -43 324 -43q160 0 283 86t144 221
q13 83 -11 150t-77.5 109t-127 64.5t-161.5 22.5h-132l7 47h120q130 0 226 89t117 221q21 136 -72 223t-271 87q-183 0 -304.5 -78.5t-142.5 -211.5z" />
    <glyph glyph-name="agrave" unicode="&#xe0;" horiz-adv-x="1218" 
d="M214 220q-14 -87 67 -147.5t233 -60.5q126 0 240.5 45.5t191.5 129t93 186.5l30 190q-147 -40 -401 -72q-220 -28 -328 -94.5t-126 -176.5zM143 216q42 260 529 320q297 36 405 76l8 50q20 126 -69 203t-265 77q-112 0 -220 -42t-190 -119l-43 25q80 81 205 133t256 52
q212 0 315 -92.5t79 -242.5l-104 -656h-67l33 208q-59 -100 -204 -171.5t-310 -71.5q-182 0 -278.5 69.5t-79.5 181.5zM604 1479h121l208 -319h-72z" />
    <glyph glyph-name="aacute" unicode="&#xe1;" horiz-adv-x="1218" 
d="M214 220q-14 -87 67 -147.5t233 -60.5q126 0 240.5 45.5t191.5 129t93 186.5l30 190q-147 -40 -401 -72q-220 -28 -328 -94.5t-126 -176.5zM143 216q42 260 529 320q297 36 405 76l8 50q20 126 -69 203t-265 77q-112 0 -220 -42t-190 -119l-43 25q80 81 205 133t256 52
q212 0 315 -92.5t79 -242.5l-104 -656h-67l33 208q-59 -100 -204 -171.5t-310 -71.5q-182 0 -278.5 69.5t-79.5 181.5zM637 1162l308 319h122l-358 -319h-72z" />
    <glyph glyph-name="acircumflex" unicode="&#xe2;" horiz-adv-x="1218" 
d="M214 220q-14 -87 67 -147.5t233 -60.5q126 0 240.5 45.5t191.5 129t93 186.5l30 190q-147 -40 -401 -72q-220 -28 -328 -94.5t-126 -176.5zM143 216q42 260 529 320q297 36 405 76l8 50q20 126 -69 203t-265 77q-112 0 -220 -42t-190 -119l-43 25q80 81 205 133t256 52
q212 0 315 -92.5t79 -242.5l-104 -656h-67l33 208q-59 -100 -204 -171.5t-310 -71.5q-182 0 -278.5 69.5t-79.5 181.5zM384 1162l406 292h72l317 -292h-86l-272 245l-350 -245h-87z" />
    <glyph glyph-name="atilde" unicode="&#xe3;" horiz-adv-x="1218" 
d="M214 220q-14 -87 67 -147.5t233 -60.5q126 0 240.5 45.5t191.5 129t93 186.5l30 190q-147 -40 -401 -72q-220 -28 -328 -94.5t-126 -176.5zM143 216q42 260 529 320q297 36 405 76l8 50q20 126 -69 203t-265 77q-112 0 -220 -42t-190 -119l-43 25q80 81 205 133t256 52
q212 0 315 -92.5t79 -242.5l-104 -656h-67l33 208q-59 -100 -204 -171.5t-310 -71.5q-182 0 -278.5 69.5t-79.5 181.5zM376 1220q38 66 112.5 114t164.5 48q85 0 179 -69q97 -69 147 -69q116 0 210 130l53 -19q-106 -158 -267 -158q-71 0 -124 33q-20 13 -55 38t-52 35.5
t-44 20.5t-55 10q-124 0 -213 -133z" />
    <glyph glyph-name="adieresis" unicode="&#xe4;" horiz-adv-x="1218" 
d="M214 220q-14 -87 67 -147.5t233 -60.5q126 0 240.5 45.5t191.5 129t93 186.5l30 190q-147 -40 -401 -72q-220 -28 -328 -94.5t-126 -176.5zM143 216q42 260 529 320q297 36 405 76l8 50q20 126 -69 203t-265 77q-112 0 -220 -42t-190 -119l-43 25q80 81 205 133t256 52
q212 0 315 -92.5t79 -242.5l-104 -656h-67l33 208q-59 -100 -204 -171.5t-310 -71.5q-182 0 -278.5 69.5t-79.5 181.5zM495 1238l21 135h165l-21 -135h-165zM935 1238l21 135h165l-21 -135h-165z" />
    <glyph glyph-name="aring" unicode="&#xe5;" horiz-adv-x="1218" 
d="M214 220q-14 -87 67 -147.5t233 -60.5q126 0 240.5 45.5t191.5 129t93 186.5l30 190q-147 -40 -401 -72q-220 -28 -328 -94.5t-126 -176.5zM143 216q42 260 529 320q297 36 405 76l8 50q20 126 -69 203t-265 77q-112 0 -220 -42t-190 -119l-43 25q80 81 205 133t256 52
q212 0 315 -92.5t79 -242.5l-104 -656h-67l33 208q-59 -100 -204 -171.5t-310 -71.5q-182 0 -278.5 69.5t-79.5 181.5zM534 1354q15 90 105 155t209 65q118 0 187.5 -64.5t54.5 -155.5q-14 -92 -103 -156t-208 -64q-117 0 -188 64.5t-57 155.5zM598 1354q-11 -74 41.5 -125
t146.5 -51q95 0 162 49t79 127q12 73 -39.5 122.5t-146.5 49.5t-163 -50t-80 -122z" />
    <glyph glyph-name="ae" unicode="&#xe6;" horiz-adv-x="2067" 
d="M144 218q20 129 145.5 208t380.5 110q297 35 406 76l8 50q20 125 -68 202.5t-264 77.5q-238 0 -411 -161l-44 25q78 81 203 133t260 52q187 0 286.5 -75t97.5 -200q75 126 205.5 200.5t285.5 74.5q108 0 195 -39t139 -105t74 -153.5t7 -183.5l-8 -49h-923l-8 -48
q-12 -175 87.5 -288t287.5 -113q129 0 239.5 52.5t180.5 138.5l56 -21q-182 -217 -486 -217q-170 0 -278 82t-139 224q-65 -135 -221 -220.5t-337 -85.5q-182 0 -278.5 70.5t-78.5 182.5zM214 220q-14 -87 65.5 -147.5t231.5 -60.5q127 0 241.5 45.5t192 129t93.5 186.5
l30 190q-141 -41 -400 -72q-220 -26 -328 -92t-126 -179zM1126 506h858q28 180 -72 308t-285 128q-179 0 -312.5 -113.5t-178.5 -280.5z" />
    <glyph glyph-name="ccedilla" unicode="&#xe7;" horiz-adv-x="1121" 
d="M181 479q35 225 191.5 368.5t383.5 143.5q135 0 229.5 -58.5t126.5 -152.5l-66 -17q-30 81 -109.5 130t-188.5 49q-190 0 -328.5 -129t-170.5 -334q-33 -208 66.5 -337.5t285.5 -129.5q113 0 222 55t171 136l55 -18q-70 -95 -191.5 -157t-257.5 -63l-43 -92
q122 -2 185 -41t52 -106q-11 -70 -94.5 -113t-207.5 -43q-110 0 -213 30l7 47q105 -33 215 -33q52 0 102.5 15t85 41t39.5 56q8 54 -55 81t-199 27l63 134q-195 19 -293 156.5t-63 354.5z" />
    <glyph glyph-name="egrave" unicode="&#xe8;" horiz-adv-x="1198" 
d="M181 483q36 224 195 366t386 142q148 0 252 -66t146 -174.5t21 -238.5l-4 -24q-6 -18 -7 -25h-924q-15 -93 3 -175t64.5 -143.5t124 -97t177.5 -35.5q124 0 239.5 54.5t186.5 137.5l55 -19q-84 -102 -209.5 -161t-279.5 -59t-259.5 67t-148 184t-18.5 267zM253 506h858
q29 182 -69.5 309t-287.5 127q-138 0 -247 -67q-208 -128 -254 -369zM595 1481h122l206 -319h-72z" />
    <glyph glyph-name="eacute" unicode="&#xe9;" horiz-adv-x="1198" 
d="M181 483q36 224 195 366t386 142q148 0 252 -66t146 -174.5t21 -238.5l-4 -24q-6 -18 -7 -25h-924q-15 -93 3 -175t64.5 -143.5t124 -97t177.5 -35.5q124 0 239.5 54.5t186.5 137.5l55 -19q-84 -102 -209.5 -161t-279.5 -59t-259.5 67t-148 184t-18.5 267zM253 506h858
q29 182 -69.5 309t-287.5 127q-138 0 -247 -67q-208 -128 -254 -369zM630 1162l310 319h119l-356 -319h-73z" />
    <glyph glyph-name="ecircumflex" unicode="&#xea;" horiz-adv-x="1198" 
d="M181 483q36 224 195 366t386 142q148 0 252 -66t146 -174.5t21 -238.5l-4 -24q-6 -18 -7 -25h-924q-15 -93 3 -175t64.5 -143.5t124 -97t177.5 -35.5q124 0 239.5 54.5t186.5 137.5l55 -19q-84 -102 -209.5 -161t-279.5 -59t-259.5 67t-148 184t-18.5 267zM253 506h858
q29 182 -69.5 309t-287.5 127q-138 0 -247 -67q-208 -128 -254 -369zM394 1162l405 292h72l316 -292h-85l-272 245l-350 -245h-86z" />
    <glyph glyph-name="edieresis" unicode="&#xeb;" horiz-adv-x="1198" 
d="M663 1238h-165l21 135h165zM181 483q36 224 195 366t386 142q148 0 252 -66t146 -174.5t21 -238.5l-4 -24q-6 -18 -7 -25h-924q-15 -93 3 -175t64.5 -143.5t124 -97t177.5 -35.5q124 0 239.5 54.5t186.5 137.5l55 -19q-84 -102 -209.5 -161t-279.5 -59t-259.5 67
t-148 184t-18.5 267zM253 506h858q29 182 -69.5 309t-287.5 127q-138 0 -247 -67q-208 -128 -254 -369zM937 1238l21 135h165l-21 -135h-165z" />
    <glyph glyph-name="igrave" unicode="&#xec;" horiz-adv-x="508" 
d="M264 0h-71l151 956h71zM196 1481h122l205 -319h-72z" />
    <glyph glyph-name="iacute" unicode="&#xed;" horiz-adv-x="518" 
d="M302 0h-71l151 956h71zM352 1162l310 319h120l-359 -319h-71z" />
    <glyph glyph-name="icircumflex" unicode="&#xee;" horiz-adv-x="643" 
d="M193 1162h-84l404 292h71l317 -292h-87l-271 245zM283 0l151 956h71l-151 -956h-71z" />
    <glyph glyph-name="idieresis" unicode="&#xef;" horiz-adv-x="563" 
d="M343 1238h-167l21 135h167zM250 0l151 956h71l-151 -956h-71zM616 1238l21 135h164l-21 -135h-164z" />
    <glyph glyph-name="eth" unicode="&#xf0;" horiz-adv-x="1209" 
d="M567 1025l-33 36l359 195q-128 85 -315 107l27 46q219 -31 350 -120l248 135l29 -39l-236 -127q271 -224 180 -799q-36 -221 -187 -357.5t-386 -136.5q-159 0 -264.5 64.5t-145 172t-17.5 245.5q34 219 191.5 346t387.5 127q154 0 250.5 -61.5t127.5 -163.5
q5 360 -198 529zM244 447q-31 -196 68 -315.5t303 -119.5q193 0 324.5 119t163.5 322q30 190 -66.5 304.5t-285.5 114.5q-198 0 -336.5 -112.5t-170.5 -312.5z" />
    <glyph glyph-name="ntilde" unicode="&#xf1;" horiz-adv-x="1210" 
d="M362 1220q39 67 111.5 114.5t163.5 47.5q87 0 179 -69q95 -69 148 -69q118 0 208 130l55 -19q-110 -158 -268 -158q-71 0 -124 33q-17 11 -54 37.5t-53.5 36.5t-44 20t-54.5 10q-122 0 -213 -133zM177 0l151 956h64l-34 -216h6q35 88 171 169.5t294 81.5q135 0 229 -67
q55 -37 77 -115t5 -187l-99 -622h-71l96 605q52 337 -257 337q-105 0 -209 -48.5t-176 -130.5t-87 -174l-93 -589h-67z" />
    <glyph glyph-name="ograve" unicode="&#xf2;" 
d="M249 479q-33 -206 64.5 -336.5t293.5 -130.5q193 0 333.5 131.5t173.5 335.5q32 204 -69 333.5t-291 129.5q-191 0 -332 -129t-173 -334zM181 479q36 226 194 369t387 143q149 0 253.5 -66t148 -182t20.5 -264q-35 -222 -195 -368t-390 -146q-155 0 -259 69t-143 184.5
t-16 260.5zM585 1481h120l207 -319h-72z" />
    <glyph glyph-name="oacute" unicode="&#xf3;" 
d="M249 479q-33 -206 64.5 -336.5t293.5 -130.5q193 0 333.5 131.5t173.5 335.5q32 204 -69 333.5t-291 129.5q-191 0 -332 -129t-173 -334zM181 479q36 226 194 369t387 143q149 0 253.5 -66t148 -182t20.5 -264q-35 -222 -195 -368t-390 -146q-155 0 -259 69t-143 184.5
t-16 260.5zM668 1162l308 319h122l-358 -319h-72z" />
    <glyph glyph-name="ocircumflex" unicode="&#xf4;" 
d="M480 1162h-86l405 292h72l316 -292h-85l-272 245zM181 479q36 226 194 369t387 143q149 0 253.5 -66t148 -182t20.5 -264q-35 -222 -195 -368t-390 -146q-155 0 -259 69t-143 184.5t-16 260.5zM249 479q-33 -206 64.5 -336.5t293.5 -130.5q193 0 333.5 131.5t173.5 335.5
q32 204 -69 333.5t-291 129.5q-191 0 -332 -129t-173 -334z" />
    <glyph glyph-name="otilde" unicode="&#xf5;" 
d="M360 1220q41 67 114.5 114.5t163.5 47.5q84 0 178 -69q98 -69 148 -69q116 0 210 130l51 -19q-104 -158 -265 -158q-70 0 -124 33q-19 12 -55 37.5t-53 36t-44 20.5t-54 10q-127 0 -213 -133zM181 479q36 226 194 369t387 143q149 0 253.5 -66t148 -182t20.5 -264
q-35 -222 -195 -368t-390 -146q-155 0 -259 69t-143 184.5t-16 260.5zM249 479q-33 -206 64.5 -336.5t293.5 -130.5q193 0 333.5 131.5t173.5 335.5q32 204 -69 333.5t-291 129.5q-191 0 -332 -129t-173 -334z" />
    <glyph glyph-name="odieresis" unicode="&#xf6;" 
d="M658 1238h-164l21 135h164zM181 479q36 226 194 369t387 143q149 0 253.5 -66t148 -182t20.5 -264q-35 -222 -195 -368t-390 -146q-155 0 -259 69t-143 184.5t-16 260.5zM249 479q-33 -206 64.5 -336.5t293.5 -130.5q193 0 333.5 131.5t173.5 335.5q32 204 -69 333.5
t-291 129.5q-191 0 -332 -129t-173 -334zM933 1238l21 135h165l-21 -135h-165z" />
    <glyph glyph-name="divide" unicode="&#xf7;" horiz-adv-x="1516" 
d="M993 929h-176l22 139h176zM308 640l8 51h1102l-8 -51h-1102zM712 265l22 139h176l-22 -139h-176z" />
    <glyph glyph-name="oslash" unicode="&#xf8;" 
d="M181 479q36 226 195 369t388 143q140 0 247 -64l106 137h62l-126 -168q175 -140 131 -417q-23 -145 -100 -260.5t-203 -184.5t-280 -69q-131 0 -225 49l-102 -134h-63l122 160q-95 66 -134.5 183.5t-17.5 255.5zM249 479q-42 -265 122 -390l605 790q-95 63 -220 63
q-191 0 -333 -129t-174 -334zM412 59q94 -47 197 -47q193 0 333.5 131.5t173.5 335.5q37 236 -104 368z" />
    <glyph glyph-name="ugrave" unicode="&#xf9;" horiz-adv-x="1191" 
d="M221 326l99 630h67l-95 -605q-25 -156 38 -247.5t228 -91.5q188 0 312 111.5t151 280.5l87 552h65l-151 -956h-65l33 208q-37 -96 -161 -169.5t-295 -73.5q-179 0 -259 97.5t-54 263.5zM578 1481h119l208 -319h-73z" />
    <glyph glyph-name="uacute" unicode="&#xfa;" horiz-adv-x="1191" 
d="M221 326l99 630h67l-95 -605q-25 -156 38 -247.5t228 -91.5q188 0 312 111.5t151 280.5l87 552h65l-151 -956h-65l33 208q-37 -96 -161 -169.5t-295 -73.5q-179 0 -259 97.5t-54 263.5zM662 1162l309 319h119l-356 -319h-72z" />
    <glyph glyph-name="ucircumflex" unicode="&#xfb;" horiz-adv-x="1196" 
d="M221 326l99 630h67l-95 -605q-25 -156 38 -247.5t228 -91.5q188 0 312 111.5t151 280.5l87 552h65l-151 -956h-65l33 208q-37 -96 -161 -169.5t-295 -73.5q-179 0 -259 97.5t-54 263.5zM418 1162l405 292h73l315 -292h-86l-271 245l-351 -245h-85z" />
    <glyph glyph-name="udieresis" unicode="&#xfc;" horiz-adv-x="1191" 
d="M671 1238h-164l21 135h164zM221 326l99 630h67l-95 -605q-25 -156 38 -247.5t228 -91.5q188 0 312 111.5t151 280.5l87 552h65l-151 -956h-65l33 208q-37 -96 -161 -169.5t-295 -73.5q-179 0 -259 97.5t-54 263.5zM944 1238l21 135h166l-21 -135h-166z" />
    <glyph glyph-name="yacute" unicode="&#xfd;" horiz-adv-x="1130" 
d="M596 1162l308 319h121l-358 -319h-71zM123 -449l8 49h41q159 0 280 218l75 131l-299 1007h80l263 -934h4l552 934h78l-695 -1154q-80 -133 -160.5 -192t-176.5 -59h-50z" />
    <glyph glyph-name="thorn" unicode="&#xfe;" horiz-adv-x="1226" 
d="M311 482q-30 -210 62.5 -340t268.5 -130q187 0 321.5 126t168.5 341q33 207 -58.5 335t-284.5 128q-170 0 -309 -131t-169 -329zM98 -449l294 1860h69l-111 -701q67 127 191 204t261 77q216 0 323.5 -140t70.5 -372q-38 -242 -192 -378t-368 -136q-142 0 -236 76
t-124 198l-109 -688h-69z" />
    <glyph glyph-name="ydieresis" unicode="&#xff;" horiz-adv-x="1130" 
d="M620 1238h-165l21 135h165zM123 -449l8 49h41q159 0 280 218l75 131l-299 1007h80l263 -934h4l552 934h78l-695 -1154q-80 -133 -160.5 -192t-176.5 -59h-50zM893 1238l21 135h165l-21 -135h-165z" />
    <glyph glyph-name="Amacron" unicode="&#x100;" horiz-adv-x="1464" 
d="M636 1652l7 45h706l-7 -45h-706zM45 0l854 1352h93l426 -1352h-80l-136 447h-798l-281 -447h-78zM434 494h751l-246 804h-5z" />
    <glyph glyph-name="amacron" unicode="&#x101;" horiz-adv-x="1218" 
d="M1158 1258h-706l7 45h706zM143 216q42 260 529 320q297 36 405 76l8 50q20 126 -69 203t-265 77q-112 0 -220 -42t-190 -119l-43 25q80 81 205 133t256 52q212 0 315 -92.5t79 -242.5l-104 -656h-67l33 208q-59 -100 -204 -171.5t-310 -71.5q-182 0 -278.5 69.5
t-79.5 181.5zM214 220q-14 -87 67 -147.5t233 -60.5q126 0 240.5 45.5t191.5 129t93 186.5l30 190q-147 -40 -401 -72q-220 -28 -328 -94.5t-126 -176.5z" />
    <glyph glyph-name="Abreve" unicode="&#x102;" horiz-adv-x="1464" 
d="M739 1784q-13 -88 59.5 -151t181.5 -63q110 0 200 64t108 150h68q-28 -111 -133 -186t-251 -75t-227.5 75t-73.5 186h68zM45 0l854 1352h93l426 -1352h-80l-136 447h-798l-281 -447h-78zM434 494h751l-246 804h-5z" />
    <glyph glyph-name="abreve" unicode="&#x103;" horiz-adv-x="1218" 
d="M214 220q-14 -87 67 -147.5t233 -60.5q126 0 240.5 45.5t191.5 129t93 186.5l30 190q-147 -40 -401 -72q-220 -28 -328 -94.5t-126 -176.5zM143 216q42 260 529 320q297 36 405 76l8 50q20 126 -69 203t-265 77q-112 0 -220 -42t-190 -119l-43 25q80 81 205 133t256 52
q212 0 315 -92.5t79 -242.5l-104 -656h-67l33 208q-59 -100 -204 -171.5t-310 -71.5q-182 0 -278.5 69.5t-79.5 181.5zM480 1421h68q-12 -88 60.5 -151t181.5 -63q110 0 199.5 63.5t109.5 150.5h67q-27 -111 -131.5 -186t-251.5 -75q-146 0 -228.5 75t-74.5 186z" />
    <glyph glyph-name="Aogonek" unicode="&#x104;" horiz-adv-x="1399" 
d="M1411 0q-280 -138 -295 -233q-6 -39 23 -59t91 -20q61 0 150 29l-7 -46q-78 -26 -157 -26q-183 0 -165 118q11 62 96 127.5t194 109.5h-3l-136 447h-798l-281 -447h-78l854 1352h93l426 -1352h-7zM434 494h751l-246 804h-5z" />
    <glyph glyph-name="aogonek" unicode="&#x105;" horiz-adv-x="1161" 
d="M214 220q-14 -87 67 -147.5t233 -60.5q126 0 240.5 45.5t191.5 129t93 186.5l30 190q-147 -40 -401 -72q-220 -28 -328 -94.5t-126 -176.5zM143 216q42 260 529 320q297 36 405 76l8 50q20 126 -69 203t-265 77q-112 0 -220 -42t-190 -119l-43 25q80 81 205 133t256 52
q212 0 315 -92.5t79 -242.5l-104 -656q-279 -138 -294 -233q-12 -79 113 -79q62 0 151 29l-7 -46q-78 -26 -158 -26q-183 0 -165 118q11 62 96.5 127.5t194.5 109.5h2l33 208q-59 -100 -204 -171.5t-310 -71.5q-182 0 -278.5 69.5t-79.5 181.5z" />
    <glyph glyph-name="Cacute" unicode="&#x106;" horiz-adv-x="1423" 
d="M230 677q53 331 263.5 521t511.5 190q172 0 283 -76t151 -188l-65 -23q-40 104 -136 169.5t-241 65.5q-269 0 -458.5 -179.5t-237.5 -479.5q-48 -303 87 -482t400 -179q159 0 285.5 66.5t210.5 180.5l61 -18q-205 -280 -566 -280q-301 0 -451 191.5t-98 520.5zM908 1523
l308 319h120l-357 -319h-71z" />
    <glyph glyph-name="cacute" unicode="&#x107;" horiz-adv-x="1121" 
d="M761 1162h-71l308 319h121zM181 479q35 225 191.5 368.5t383.5 143.5q135 0 229.5 -58.5t126.5 -152.5l-66 -17q-30 81 -109.5 130t-188.5 49q-190 0 -328.5 -129t-170.5 -334q-33 -208 66.5 -337.5t285.5 -129.5q113 0 222 55t171 136l55 -18q-71 -96 -194.5 -158
t-261.5 -62q-220 0 -334.5 140.5t-77.5 373.5z" />
    <glyph glyph-name="Cdotaccent" unicode="&#x10a;" horiz-adv-x="1423" 
d="M230 677q53 331 263.5 521t511.5 190q172 0 283 -76t151 -188l-65 -23q-40 104 -136 169.5t-241 65.5q-269 0 -458.5 -179.5t-237.5 -479.5q-48 -303 87 -482t400 -179q159 0 285.5 66.5t210.5 180.5l61 -18q-205 -280 -566 -280q-301 0 -451 191.5t-98 520.5zM964 1607
l21 136h161l-21 -136h-161z" />
    <glyph glyph-name="cdotaccent" unicode="&#x10b;" horiz-adv-x="1121" 
d="M881 1238h-161l22 136h161zM181 479q35 225 191.5 368.5t383.5 143.5q135 0 229.5 -58.5t126.5 -152.5l-66 -17q-30 81 -109.5 130t-188.5 49q-190 0 -328.5 -129t-170.5 -334q-33 -208 66.5 -337.5t285.5 -129.5q113 0 222 55t171 136l55 -18q-71 -96 -194.5 -158
t-261.5 -62q-220 0 -334.5 140.5t-77.5 373.5z" />
    <glyph glyph-name="Ccaron" unicode="&#x10c;" horiz-adv-x="1423" 
d="M230 677q53 331 263.5 521t511.5 190q172 0 283 -76t151 -188l-65 -23q-40 104 -136 169.5t-241 65.5q-269 0 -458.5 -179.5t-237.5 -479.5q-48 -303 87 -482t400 -179q159 0 285.5 66.5t210.5 180.5l61 -18q-205 -280 -566 -280q-301 0 -451 191.5t-98 520.5zM683 1814
h86l270 -240l349 240h85l-404 -291h-75z" />
    <glyph glyph-name="ccaron" unicode="&#x10d;" horiz-adv-x="1121" 
d="M181 479q35 225 191.5 368.5t383.5 143.5q135 0 229.5 -58.5t126.5 -152.5l-66 -17q-30 81 -109.5 130t-188.5 49q-190 0 -328.5 -129t-170.5 -334q-33 -208 66.5 -337.5t285.5 -129.5q113 0 222 55t171 136l55 -18q-71 -96 -194.5 -158t-261.5 -62q-220 0 -334.5 140.5
t-77.5 373.5zM458 1452h89l268 -240l348 240h87l-403 -290h-78z" />
    <glyph glyph-name="Dcaron" unicode="&#x10e;" horiz-adv-x="1461" 
d="M603 0h-404l214 1352h403q347 0 514.5 -171t114.5 -504q-52 -331 -273 -504t-569 -173zM274 50h305q220 0 383 65t270 206.5t141 355.5q99 624 -590 624h-311zM536 1814h88l269 -240l349 240h84l-401 -291h-78z" />
    <glyph glyph-name="dcaron" unicode="&#x10f;" horiz-adv-x="1789" 
d="M181 480q37 236 189 373.5t368 137.5q146 0 243 -81t119 -203l111 704h67l-223 -1411h-66l37 232q-67 -120 -185.5 -193.5t-266.5 -73.5q-98 0 -178 33t-135.5 96t-77.5 162.5t-2 223.5zM249 480q-33 -211 58.5 -339.5t279.5 -128.5q175 0 309.5 126.5t168.5 341.5
q33 209 -65 335.5t-267 126.5q-185 0 -317.5 -125.5t-166.5 -336.5zM1287 1068l178 329h103l-221 -329h-60z" />
    <glyph glyph-name="Dcroat" unicode="&#x110;" horiz-adv-x="1447" 
d="M589 0h-404l107 673h-252l7 49h252l100 630h403q347 0 514.5 -171t114.5 -504q-52 -331 -273 -504t-569 -173zM260 50h305q220 0 383 65t270 206.5t141 355.5q99 624 -590 624h-311l-92 -579h436l-7 -49h-436z" />
    <glyph glyph-name="dcroat" unicode="&#x111;" horiz-adv-x="1198" 
d="M181 479q38 238 189.5 375t367.5 137q146 0 243 -81t119 -203l75 476h-522l8 46h522l28 182h67l-28 -182h183l-8 -46h-183l-187 -1183h-67l37 232q-67 -120 -185 -193.5t-266 -73.5q-98 0 -178 33t-135.5 95.5t-77.5 161.5t-2 224zM249 479q-34 -212 59 -339.5
t283 -127.5q173 0 305.5 126t168.5 341q19 107 0.5 192.5t-65 145.5t-116 92.5t-151.5 32.5q-183 0 -316.5 -126.5t-167.5 -336.5z" />
    <glyph glyph-name="Emacron" unicode="&#x112;" horiz-adv-x="1333" 
d="M1206 0h-1007l214 1352h975l-8 -51h-908l-91 -575h821l-7 -47h-821l-100 -629h940zM614 1654l7 45h707l-7 -45h-707z" />
    <glyph glyph-name="emacron" unicode="&#x113;" horiz-adv-x="1198" 
d="M181 483q36 224 195 366t386 142q148 0 252 -66t146 -174.5t21 -238.5l-4 -24q-6 -18 -7 -25h-924q-15 -93 3 -175t64.5 -143.5t124 -97t177.5 -35.5q124 0 239.5 54.5t186.5 137.5l55 -19q-84 -102 -209.5 -161t-279.5 -59t-259.5 67t-148 184t-18.5 267zM253 506h858
q29 182 -69.5 309t-287.5 127q-138 0 -247 -67q-208 -128 -254 -369zM451 1258l7 45h705l-7 -45h-705z" />
    <glyph glyph-name="Edotaccent" unicode="&#x116;" horiz-adv-x="1333" 
d="M1206 0h-1007l214 1352h975l-8 -51h-908l-91 -575h821l-7 -47h-821l-100 -629h940zM904 1607l21 136h163l-21 -136h-163z" />
    <glyph glyph-name="edotaccent" unicode="&#x117;" horiz-adv-x="1198" 
d="M881 1238h-161l22 136h161zM181 483q36 224 195 366t386 142q148 0 252 -66t146 -174.5t21 -238.5l-4 -24q-6 -18 -7 -25h-924q-15 -93 3 -175t64.5 -143.5t124 -97t177.5 -35.5q124 0 239.5 54.5t186.5 137.5l55 -19q-84 -102 -209.5 -161t-279.5 -59t-259.5 67
t-148 184t-18.5 267zM253 506h858q29 182 -69.5 309t-287.5 127q-138 0 -247 -67q-208 -128 -254 -369z" />
    <glyph glyph-name="Eogonek" unicode="&#x118;" horiz-adv-x="1262" 
d="M904 0q-278 -138 -293 -233q-12 -79 112 -79q62 0 151 29l-7 -46q-78 -26 -157 -26q-183 0 -165 118q11 62 96 127.5t194 109.5h-636l214 1352h975l-8 -51h-908l-91 -575h821l-7 -47h-821l-100 -629h940l-8 -50h-302z" />
    <glyph glyph-name="eogonek" unicode="&#x119;" horiz-adv-x="1198" 
d="M181 483q36 224 195 366t386 142q148 0 252 -66t146 -174.5t21 -238.5l-4 -24q-6 -18 -7 -25h-924q-15 -93 3 -175t64.5 -143.5t124 -97t177.5 -35.5q124 0 239.5 54.5t186.5 137.5l55 -19q-150 -184 -403 -215q-225 -119 -239 -205q-6 -39 21.5 -58.5t90.5 -19.5
q66 0 152 29l-7 -47q-76 -26 -159 -26q-92 0 -132.5 29t-30.5 89q9 52 69.5 106.5t148.5 97.5q-154 0 -259.5 67t-148 184t-18.5 267zM253 506h858q29 182 -69.5 309t-287.5 127q-138 0 -247 -67q-208 -128 -254 -369z" />
    <glyph glyph-name="Ecaron" unicode="&#x11a;" horiz-adv-x="1333" 
d="M1206 0h-1007l214 1352h975l-8 -51h-908l-91 -575h821l-7 -47h-821l-100 -629h940zM553 1814h86l270 -240l348 240h87l-404 -291h-76z" />
    <glyph glyph-name="ecaron" unicode="&#x11b;" horiz-adv-x="1198" 
d="M181 483q36 224 195 366t386 142q148 0 252 -66t146 -174.5t21 -238.5l-4 -24q-6 -18 -7 -25h-924q-15 -93 3 -175t64.5 -143.5t124 -97t177.5 -35.5q124 0 239.5 54.5t186.5 137.5l55 -19q-84 -102 -209.5 -161t-279.5 -59t-259.5 67t-148 184t-18.5 267zM253 506h858
q29 182 -69.5 309t-287.5 127q-138 0 -247 -67q-208 -128 -254 -369zM435 1452h88l268 -240l350 240h85l-403 -290h-77z" />
    <glyph glyph-name="Gbreve" unicode="&#x11e;" horiz-adv-x="1519" 
d="M230 677q52 326 262.5 518.5t532.5 192.5q174 0 291.5 -71t166.5 -181l-62 -20q-108 220 -404 220q-289 0 -479 -179.5t-237 -479.5q-48 -304 86.5 -482.5t418.5 -178.5q175 0 307 76q238 135 281 414l22 140h-534l8 50h602l-110 -696h-61l41 279q-71 -142 -215 -228
t-352 -86q-319 0 -468 192t-97 520zM717 1784h68q-12 -88 60 -151t182 -63t199 63.5t109 150.5h68q-29 -111 -134 -186t-250 -75q-147 0 -229 75t-73 186z" />
    <glyph glyph-name="gbreve" unicode="&#x11f;" 
d="M251 494q-31 -200 60.5 -324.5t267.5 -124.5q186 0 311.5 121t159.5 333q31 198 -59 320.5t-265 122.5q-188 0 -315.5 -123.5t-159.5 -324.5zM144 -302l58 29q116 -135 317 -135q206 0 315 114.5t147 354.5l30 190q-149 -255 -437 -255q-212 0 -319 138.5t-72 359.5
q36 223 184.5 360t361.5 137q148 0 237 -73.5t121 -187.5l35 226h67l-140 -885q-43 -273 -170 -400.5t-367 -127.5q-118 0 -215 42t-153 113zM472 1421h67q-12 -89 60.5 -151.5t182.5 -62.5q109 0 199 64t108 150h68q-27 -111 -131.5 -186t-250.5 -75q-147 0 -229 75
t-74 186z" />
    <glyph glyph-name="Gdotaccent" unicode="&#x120;" horiz-adv-x="1519" 
d="M230 677q52 326 262.5 518.5t532.5 192.5q174 0 291.5 -71t166.5 -181l-62 -20q-108 220 -404 220q-289 0 -479 -179.5t-237 -479.5q-48 -304 86.5 -482.5t418.5 -178.5q175 0 307 76q238 135 281 414l22 140h-534l8 50h602l-110 -696h-61l41 279q-71 -142 -215 -228
t-352 -86q-319 0 -468 192t-97 520zM966 1607l21 136h162l-21 -136h-162z" />
    <glyph glyph-name="gdotaccent" unicode="&#x121;" 
d="M251 494q-31 -200 60.5 -324.5t267.5 -124.5q186 0 311.5 121t159.5 333q31 198 -59 320.5t-265 122.5q-188 0 -315.5 -123.5t-159.5 -324.5zM144 -302l58 29q116 -135 317 -135q206 0 315 114.5t147 354.5l30 190q-149 -255 -437 -255q-212 0 -319 138.5t-72 359.5
q36 223 184.5 360t361.5 137q148 0 237 -73.5t121 -187.5l35 226h67l-140 -885q-43 -273 -170 -400.5t-367 -127.5q-118 0 -215 42t-153 113zM733 1238l22 136h162l-22 -136h-162z" />
    <glyph glyph-name="uni0122" unicode="&#x122;" horiz-adv-x="1519" 
d="M230 677q52 326 262.5 518.5t532.5 192.5q174 0 291.5 -71t166.5 -181l-62 -20q-108 220 -404 220q-289 0 -479 -179.5t-237 -479.5q-48 -304 86.5 -482.5t418.5 -178.5q175 0 307 76q238 135 281 414l22 140h-534l8 50h602l-110 -696h-61l41 279q-71 -142 -215 -228
t-352 -86q-319 0 -468 192t-97 520zM610 -451l178 330h103l-221 -330h-60z" />
    <glyph glyph-name="uni0123" unicode="&#x123;" 
d="M808 1166h-102l220 312h60zM144 -302l55 29q119 -135 320 -135q209 0 315 112.5t146 354.5l31 192q-151 -255 -440 -255q-210 0 -316.5 138.5t-71.5 359.5q35 222 184.5 359.5t361.5 137.5q150 0 238 -73.5t120 -187.5l35 226h67l-140 -887q-43 -273 -170.5 -399.5
t-369.5 -126.5q-114 0 -213.5 42.5t-151.5 112.5zM251 494q-31 -200 60.5 -324.5t267.5 -124.5q186 0 311.5 121t159.5 333q31 198 -59 320.5t-265 122.5q-185 0 -314 -124t-161 -324z" />
    <glyph glyph-name="Hbar" unicode="&#x126;" horiz-adv-x="1740" 
d="M488 1079h-216l7 47h216l36 226h67l-36 -226h975l36 226h68l-36 -226h214l-7 -47h-214l-171 -1079h-68l107 675h-975l-107 -675h-67zM498 722h975l57 357h-975z" />
    <glyph glyph-name="hbar" unicode="&#x127;" horiz-adv-x="1163" 
d="M321 1202h-177l8 46h177l25 163h70l-25 -163h504l-8 -46h-504l-71 -450h2q57 94 186 163.5t275 69.5q129 0 227 -65q55 -38 77 -116t5 -188l-98 -616h-65l95 600q54 336 -262 336q-104 0 -207.5 -48.5t-175 -131t-86.5 -173.5l-92 -583h-70z" />
    <glyph glyph-name="Imacron" unicode="&#x12a;" horiz-adv-x="658" 
d="M943 1652h-706l7 45h706zM290 0l214 1352h67l-214 -1352h-67z" />
    <glyph glyph-name="imacron" unicode="&#x12b;" horiz-adv-x="593" 
d="M847 1256h-705l7 45h705zM262 0l151 956h71l-151 -956h-71z" />
    <glyph glyph-name="Iogonek" unicode="&#x12e;" horiz-adv-x="503" 
d="M362 0q-279 -139 -294 -233q-12 -79 113 -79q61 0 150 29l-7 -46q-78 -26 -156 -26q-93 0 -134.5 29.5t-32.5 88.5q11 63 97 128t196 109l214 1352h67l-214 -1352h1z" />
    <glyph glyph-name="iogonek" unicode="&#x12f;" horiz-adv-x="436" 
d="M554 1230h-156l22 143h156zM-40 -237q11 63 97 128t196 109h-2l151 956h66l-151 -956h4q-279 -139 -294 -233q-12 -79 113 -79q61 0 150 29l-7 -46q-78 -26 -156 -26q-93 0 -134.5 29.5t-32.5 88.5z" />
    <glyph glyph-name="Idotaccent" unicode="&#x130;" horiz-adv-x="508" 
d="M288 0h-67l214 1352h67zM428 1607l21 136h162l-21 -136h-162z" />
    <glyph glyph-name="dotlessi" unicode="&#x131;" horiz-adv-x="409" 
d="M240 0h-71l151 956h71z" />
    <glyph glyph-name="IJ" unicode="&#x132;" horiz-adv-x="1643" 
d="M324 0h-67l214 1352h67zM652 173l68 20q32 -85 105 -133t164 -44q326 6 382 364l154 972h70l-157 -991q-62 -396 -452 -396q-257 0 -334 208z" />
    <glyph glyph-name="ij" unicode="&#x133;" horiz-adv-x="1102" 
d="M1110 1230h-154l22 143h154zM255 0l151 956h66l-151 -956h-66zM402 1230l22 143h156l-22 -143h-156zM440 -437l7 47h63q237 0 277 257l172 1089h66l-173 -1097q-23 -144 -109.5 -220t-225.5 -76h-77z" />
    <glyph glyph-name="uni0136" unicode="&#x136;" horiz-adv-x="1355" 
d="M266 0h-67l214 1352h67l-132 -836h3l1019 836h94l-704 -578l546 -774h-93l-509 730l-370 -302zM463 -447l180 329h101l-220 -329h-61z" />
    <glyph glyph-name="uni0137" unicode="&#x137;" horiz-adv-x="1071" 
d="M240 0h-71l223 1411h71l-165 -1042l732 587h90l-463 -375l374 -581h-82l-350 538l-313 -249zM348 -447l180 329h101l-221 -329h-60z" />
    <glyph glyph-name="Lacute" unicode="&#x139;" horiz-adv-x="1257" 
d="M1155 0h-890l214 1352h67l-206 -1302h823zM440 1522l309 319h120l-357 -319h-72z" />
    <glyph glyph-name="lacute" unicode="&#x13a;" horiz-adv-x="517" 
d="M482 1522h-72l308 319h121zM233 0l223 1411h69l-223 -1411h-69z" />
    <glyph glyph-name="uni013B" unicode="&#x13b;" horiz-adv-x="1191" 
d="M1089 0h-890l214 1352h67l-206 -1302h823zM410 -451l179 330h102l-221 -330h-60z" />
    <glyph glyph-name="uni013C" unicode="&#x13c;" horiz-adv-x="472" 
d="M272 0h-69l223 1411h69zM3 -451l179 330h102l-221 -330h-60z" />
    <glyph glyph-name="Lcaron" unicode="&#x13d;" horiz-adv-x="1720" 
d="M1089 0h-890l214 1352h67l-206 -1302h823zM625 1025l179 329h103l-222 -329h-60z" />
    <glyph glyph-name="lcaron" unicode="&#x13e;" horiz-adv-x="905" 
d="M238 0h-69l223 1411h69zM454 1068l180 329h103l-222 -329h-61z" />
    <glyph glyph-name="Lslash" unicode="&#x141;" horiz-adv-x="1309" 
d="M789 822l-312 -166l-96 -606h823l-8 -50h-890l98 618l-295 -155l-30 41l335 177l106 671h67l-101 -636l273 144z" />
    <glyph glyph-name="lslash" unicode="&#x142;" horiz-adv-x="626" 
d="M775 854l-320 -168l-109 -686h-69l102 647l-279 -148l-29 40l318 170l111 702h69l-105 -663l282 147z" />
    <glyph glyph-name="Nacute" unicode="&#x143;" horiz-adv-x="1531" 
d="M903 1523l308 319h120l-356 -319h-72zM199 0l214 1352h84l777 -1265l200 1265h73l-214 -1352h-88l-778 1270l-201 -1270h-67z" />
    <glyph glyph-name="nacute" unicode="&#x144;" horiz-adv-x="1202" 
d="M236 0h-67l151 956h64l-34 -216h6q35 88 171 169.5t294 81.5q135 0 229 -67q55 -37 77 -115t5 -187l-99 -622h-71l96 605q52 337 -257 337q-105 0 -209 -48.5t-176 -130.5t-87 -174zM683 1162l309 319h119l-356 -319h-72z" />
    <glyph glyph-name="uni0145" unicode="&#x145;" horiz-adv-x="1531" 
d="M563 -451l180 330h102l-222 -330h-60zM199 0l214 1352h84l777 -1265l200 1265h73l-214 -1352h-88l-778 1270l-201 -1270h-67z" />
    <glyph glyph-name="uni0146" unicode="&#x146;" horiz-adv-x="1202" 
d="M236 0h-67l151 956h64l-34 -216h6q35 88 171 169.5t294 81.5q135 0 229 -67q55 -37 77 -115t5 -187l-99 -622h-71l96 605q52 337 -257 337q-105 0 -209 -48.5t-176 -130.5t-87 -174zM391 -451l179 330h103l-223 -330h-59z" />
    <glyph glyph-name="Ncaron" unicode="&#x147;" horiz-adv-x="1531" 
d="M774 1814l270 -240l349 240h85l-403 -291h-77l-311 291h87zM199 0l214 1352h84l777 -1265l200 1265h73l-214 -1352h-88l-778 1270l-201 -1270h-67z" />
    <glyph glyph-name="ncaron" unicode="&#x148;" horiz-adv-x="1202" 
d="M236 0h-67l151 956h64l-34 -216h6q35 88 171 169.5t294 81.5q135 0 229 -67q55 -37 77 -115t5 -187l-99 -622h-71l96 605q52 337 -257 337q-105 0 -209 -48.5t-176 -130.5t-87 -174zM463 1452h86l269 -240l349 240h86l-404 -290h-76z" />
    <glyph glyph-name="Omacron" unicode="&#x14c;" horiz-adv-x="1524" 
d="M1371 1652h-705l7 45h705zM230 677q51 323 254 517t497 194q295 0 436.5 -194.5t90.5 -518.5q-51 -321 -254.5 -515.5t-498.5 -194.5t-435.5 195t-89.5 517zM301 677q-31 -197 12 -345.5t159 -232t292 -83.5q263 0 444.5 180t229.5 479q48 301 -78.5 481t-386.5 180
t-442 -178.5t-230 -480.5z" />
    <glyph glyph-name="omacron" unicode="&#x14d;" 
d="M1176 1259h-708l8 46h708zM181 479q36 226 194 369t387 143q149 0 253.5 -66t148 -182t20.5 -264q-35 -222 -195 -368t-390 -146q-155 0 -259 69t-143 184.5t-16 260.5zM249 479q-33 -206 64.5 -336.5t293.5 -130.5q193 0 333.5 131.5t173.5 335.5q32 204 -69 333.5
t-291 129.5q-191 0 -332 -129t-173 -334z" />
    <glyph glyph-name="Ohungarumlaut" unicode="&#x150;" horiz-adv-x="1524" 
d="M230 677q51 323 254 517t497 194q295 0 436.5 -194.5t90.5 -518.5q-51 -321 -254.5 -515.5t-498.5 -194.5t-435.5 195t-89.5 517zM301 677q-31 -197 12 -345.5t159 -232t292 -83.5q263 0 444.5 180t229.5 479q48 301 -78.5 481t-386.5 180t-442 -178.5t-230 -480.5z
M745 1523l291 324h119l-333 -324h-77zM1033 1523l292 324h117l-333 -324h-76z" />
    <glyph glyph-name="ohungarumlaut" unicode="&#x151;" 
d="M249 479q-33 -206 64.5 -336.5t293.5 -130.5q193 0 333.5 131.5t173.5 335.5q32 204 -69 333.5t-291 129.5q-191 0 -332 -129t-173 -334zM181 479q36 226 194 369t387 143q149 0 253.5 -66t148 -182t20.5 -264q-35 -222 -195 -368t-390 -146q-155 0 -259 69t-143 184.5
t-16 260.5zM567 1158l291 323h118l-332 -323h-77zM854 1158l292 323h120l-334 -323h-78z" />
    <glyph glyph-name="OE" unicode="&#x152;" horiz-adv-x="2060" 
d="M230 677q53 329 271.5 520t525.5 191q130 0 229 -36h883l-8 -51h-821l-91 -575h735l-7 -47h-735l-100 -629h828l-8 -50h-882q-111 -35 -249 -35q-151 0 -269.5 49.5t-194 140.5t-104.5 225t-3 297zM301 677q-47 -300 96 -480.5t413 -180.5q137 0 233 34l197 1246
q-86 40 -221 40q-275 0 -473 -181t-245 -478z" />
    <glyph glyph-name="oe" unicode="&#x153;" horiz-adv-x="2133" 
d="M249 479q-33 -206 64.5 -336.5t293.5 -130.5q193 0 333.5 131.5t173.5 335.5q32 204 -69 333.5t-291 129.5q-191 0 -332 -129t-173 -334zM181 479q36 226 194 369t387 143q168 0 278.5 -83.5t140.5 -226.5q73 142 209.5 226t306.5 84q148 0 252 -66t146 -174.5t21 -238.5
q-3 -17 -6 -24l-4 -25h-925q-15 -93 3.5 -175t64.5 -143.5t123.5 -97t176.5 -35.5q126 0 241.5 54.5t184.5 137.5l57 -19q-85 -103 -210.5 -161.5t-280.5 -58.5q-174 0 -284 84t-138 230q-75 -143 -211 -228.5t-309 -85.5q-155 0 -259 69t-143 184.5t-16 260.5zM1188 506
h856q19 119 -17 218t-124.5 158.5t-213.5 59.5q-137 0 -247 -67q-208 -129 -254 -369z" />
    <glyph glyph-name="Racute" unicode="&#x154;" horiz-adv-x="1379" 
d="M199 0l214 1352h609q224 0 336 -100.5t87 -259.5q-22 -138 -120 -225t-226 -115q66 -18 109.5 -51.5t63 -76.5t26.5 -97t0 -113v1q-2 -34 -6 -93t-4.5 -79t0 -52.5t6 -51t15.5 -37.5l2 -2h-71q-18 47 -20 114t6 198q7 70 -5.5 124.5t-49.5 98.5t-109 67.5t-176 23.5h-521
l-99 -626h-67zM373 677h539q196 0 318 84t145 230q22 139 -76 224.5t-308 85.5h-519zM764 1523l308 319h121l-357 -319h-72z" />
    <glyph glyph-name="racute" unicode="&#x155;" horiz-adv-x="788" 
d="M236 0h-67l151 956h64l-28 -180q49 89 152.5 152t244.5 63q94 0 173 -32l-8 -51q-84 32 -173 32q-160 0 -276 -101.5t-141 -257.5zM543 1162l309 319h120l-356 -319h-73z" />
    <glyph glyph-name="uni0156" unicode="&#x156;" horiz-adv-x="1379" 
d="M517 -451l179 330h102l-221 -330h-60zM199 0l214 1352h609q224 0 336 -100.5t87 -259.5q-22 -138 -120 -225t-226 -115q66 -18 109.5 -51.5t63 -76.5t26.5 -97t0 -113v1q-2 -34 -6 -93t-4.5 -79t0 -52.5t6 -51t15.5 -37.5l2 -2h-71q-18 47 -20 114t6 198q7 70 -5.5 124.5
t-49.5 98.5t-109 67.5t-176 23.5h-521l-99 -626h-67zM373 677h539q196 0 318 84t145 230q22 139 -76 224.5t-308 85.5h-519z" />
    <glyph glyph-name="uni0157" unicode="&#x157;" horiz-adv-x="842" 
d="M266 0h-67l151 956h64l-28 -180q49 89 152.5 152t244.5 63q94 0 173 -32l-8 -51q-84 32 -173 32q-160 0 -276 -101.5t-141 -257.5zM3 -451l179 330h103l-223 -330h-59z" />
    <glyph glyph-name="Rcaron" unicode="&#x158;" horiz-adv-x="1379" 
d="M550 1814h88l269 -240l350 240h85l-405 -291h-75zM199 0l214 1352h609q224 0 336 -100.5t87 -259.5q-22 -138 -120 -225t-226 -115q66 -18 109.5 -51.5t63 -76.5t26.5 -97t0 -113v1q-2 -34 -6 -93t-4.5 -79t0 -52.5t6 -51t15.5 -37.5l2 -2h-71q-18 47 -20 114t6 198
q7 70 -5.5 124.5t-49.5 98.5t-109 67.5t-176 23.5h-521l-99 -626h-67zM373 677h539q196 0 318 84t145 230q22 139 -76 224.5t-308 85.5h-519z" />
    <glyph glyph-name="rcaron" unicode="&#x159;" horiz-adv-x="884" 
d="M258 0h-67l151 956h64l-28 -180q49 89 152.5 152t244.5 63q94 0 173 -32l-8 -51q-84 32 -173 32q-160 0 -276 -101.5t-141 -257.5zM354 1452h89l268 -240l347 240h87l-404 -290h-77z" />
    <glyph glyph-name="Sacute" unicode="&#x15a;" horiz-adv-x="1368" 
d="M826 1521l311 323h126l-360 -323h-77zM158 209l76 26q58 -98 182 -157.5t281 -59.5q142 0 254.5 33.5t189.5 106.5t93 178l1 2q8 49 -9 91t-52 75t-95 63t-128 54t-162 50q-74 21 -125 37q-76 25 -147 59q-73 32 -111 70q-41 39 -63.5 95.5t-11.5 121.5
q25 155 179.5 245.5t396.5 90.5q165 0 288 -62t176 -157l-67 -22q-54 85 -162.5 135t-248.5 50q-209 0 -345 -76t-156 -204q-8 -49 8.5 -91t51.5 -75t95 -63.5t127.5 -54.5t161.5 -51q101 -27 152.5 -44.5t120.5 -49.5q74 -32 112 -70q41 -39 63 -95.5t12 -121.5
q-29 -177 -189 -276t-423 -99q-184 0 -317.5 65.5t-208.5 180.5z" />
    <glyph glyph-name="sacute" unicode="&#x15b;" horiz-adv-x="1078" 
d="M195 190q48 -81 140 -126.5t215 -45.5q157 0 263 56t120 146q6 39 -11 73.5t-44 55.5q-25 21 -89 44q-75 27 -162 51q-6 1 -14 3t-18 5t-17 5q-89 22 -138 39.5t-100 49.5q-113 62 -93 192q19 119 147 189t311 70q131 0 232 -55t140 -139l-68 -31q-40 75 -121 119.5
t-193 44.5q-151 0 -253 -55t-116 -143t59 -140t232 -89q9 -2 42 -10q118 -30 185 -58q72 -34 97 -53q38 -30 58.5 -74.5t12.5 -93.5q-18 -114 -143.5 -187.5t-327.5 -73.5q-303 0 -414 200zM575 1156l320 331h138l-371 -331h-87z" />
    <glyph glyph-name="Scedilla" unicode="&#x15e;" horiz-adv-x="1368" 
d="M415 -348q113 -35 216 -35q80 0 149 33t76 77q8 54 -55 80t-200 26l60 130q-174 4 -302.5 69.5t-200.5 176.5l76 26q58 -98 182 -157.5t281 -59.5q142 0 254.5 33.5t189.5 106.5t93 178l1 2q8 49 -9 91t-52 75t-95 63t-128 54t-162 50q-74 21 -125 37q-76 25 -147 59
q-73 32 -111 70q-41 39 -63.5 95.5t-11.5 121.5q25 155 179.5 245.5t396.5 90.5q165 0 288 -62t176 -157l-67 -22q-54 85 -162.5 135t-248.5 50q-209 0 -345 -76t-156 -204q-8 -49 8.5 -91t51.5 -75t95 -63.5t127.5 -54.5t161.5 -51q101 -27 152.5 -44.5t120.5 -49.5
q74 -32 112 -70q41 -39 63 -95.5t12 -121.5q-27 -168 -175 -266.5t-390 -107.5l-41 -88q122 -2 184 -41.5t51 -107.5q-11 -70 -95 -113t-208 -43q-114 0 -215 29z" />
    <glyph glyph-name="scedilla" unicode="&#x15f;" horiz-adv-x="1078" 
d="M252 -345q108 -35 220 -35q79 0 146.5 31.5t74.5 74.5q8 52 -56 77.5t-203 24.5l63 132q-267 13 -370 199l68 31q48 -81 140 -126.5t215 -45.5q159 0 271 57t126 145q14 81 -74.5 134t-294.5 103q-89 22 -138 39.5t-100 49.5q-113 62 -93 192q19 119 147 189t311 70
q131 0 231.5 -55t139.5 -139l-57 -30q-38 74 -124.5 119.5t-198.5 45.5q-153 0 -263 -56.5t-123 -142.5q-14 -89 63 -139.5t280 -99.5q177 -44 263 -97q114 -63 96 -183q-18 -110 -134.5 -182t-304.5 -79l-37 -80q121 -4 182.5 -44t51.5 -109q-12 -72 -98 -117t-211 -45
q-110 0 -218 31z" />
    <glyph glyph-name="Scaron" unicode="&#x160;" horiz-adv-x="1368" 
d="M662 1816l267 -239l346 239h95l-410 -295h-80l-315 295h97zM158 209l76 26q58 -98 182 -157.5t281 -59.5q142 0 254.5 33.5t189.5 106.5t93 178l1 2q8 49 -9 91t-52 75t-95 63t-128 54t-162 50q-74 21 -125 37q-76 25 -147 59q-73 32 -111 70q-41 39 -63.5 95.5
t-11.5 121.5q25 155 179.5 245.5t396.5 90.5q165 0 288 -62t176 -157l-67 -22q-54 85 -162.5 135t-248.5 50q-209 0 -345 -76t-156 -204q-8 -49 8.5 -91t51.5 -75t95 -63.5t127.5 -54.5t161.5 -51q101 -27 152.5 -44.5t120.5 -49.5q74 -32 112 -70q41 -39 63 -95.5
t12 -121.5q-29 -177 -189 -276t-423 -99q-184 0 -317.5 65.5t-208.5 180.5z" />
    <glyph glyph-name="scaron" unicode="&#x161;" horiz-adv-x="1078" 
d="M455 1458l268 -238l347 238h104l-421 -302h-79l-324 302h105zM127 159l68 31q48 -81 140 -126.5t215 -45.5q159 0 271 57t126 145q14 81 -74.5 134t-294.5 103q-89 22 -138 39.5t-100 49.5q-113 62 -93 192q19 119 147 189t311 70q131 0 231.5 -55t139.5 -139l-57 -30
q-38 74 -124.5 119.5t-198.5 45.5q-153 0 -263 -56.5t-123 -142.5q-14 -89 63 -139.5t280 -99.5q177 -44 263 -97q114 -63 96 -183q-18 -114 -143.5 -187.5t-327.5 -73.5q-303 0 -414 200z" />
    <glyph glyph-name="uni0162" unicode="&#x162;" horiz-adv-x="1325" 
d="M835 1301h-528l8 51h1125l-8 -51h-527l-206 -1301h-7l-52 -116q121 -1 183.5 -41t51.5 -106q-11 -69 -94 -112t-207 -43q-117 0 -213 30l7 47q106 -34 217 -34q81 0 149.5 33t75.5 79q18 108 -255 108l75 159z" />
    <glyph glyph-name="uni0163" unicode="&#x163;" horiz-adv-x="797" 
d="M447 908h-228l7 48h228l53 332h73l-53 -332h286l-7 -48h-286l-104 -655q-17 -109 26.5 -157.5t158.5 -48.5h70l-7 -47h-79q-19 0 -45 2l-45 -98q110 -10 163 -52t42 -108q-10 -68 -79 -109.5t-181 -41.5q-100 0 -177 19l7 45q85 -22 179 -22q75 0 126 30.5t59 78.5
q9 55 -47 87t-176 39l66 142q-166 39 -136 230z" />
    <glyph glyph-name="Tcaron" unicode="&#x164;" horiz-adv-x="1325" 
d="M835 1301h-528l8 51h1125l-8 -51h-527l-206 -1301h-70zM555 1814h87l269 -240l349 240h85l-403 -291h-78z" />
    <glyph glyph-name="tcaron" unicode="&#x165;" horiz-adv-x="1298" 
d="M447 908h-228l7 48h228l53 332h73l-53 -332h317l-7 -48h-317l-104 -655q-17 -109 27 -158.5t158 -47.5l100 3l-8 -50h-108q-138 -3 -200.5 58t-43.5 184zM624 1064l178 327h103l-220 -327h-61z" />
    <glyph glyph-name="Umacron" unicode="&#x16a;" horiz-adv-x="1511" 
d="M1388 1652h-705l7 45h705zM272 461l141 891h67l-139 -881q-35 -219 74 -337t341 -118q233 0 380 118.5t181 336.5l139 881h70l-141 -891q-38 -239 -202 -367.5t-436 -128.5q-266 0 -389.5 128t-85.5 368z" />
    <glyph glyph-name="umacron" unicode="&#x16b;" horiz-adv-x="1191" 
d="M1144 1259h-707l8 46h707zM221 326l99 630h67l-95 -605q-25 -156 38 -247.5t228 -91.5q188 0 312 111.5t151 280.5l87 552h65l-151 -956h-65l33 208q-37 -96 -161 -169.5t-295 -73.5q-179 0 -259 97.5t-54 263.5z" />
    <glyph glyph-name="Uring" unicode="&#x16e;" horiz-adv-x="1511" 
d="M757 1670q14 90 104 155t208 65t187.5 -63.5t55.5 -156.5q-15 -91 -103 -155.5t-209 -64.5q-117 0 -187 65t-56 155zM272 461l141 891h67l-139 -881q-35 -219 74 -337t341 -118q233 0 380 118.5t181 336.5l139 881h70l-141 -891q-38 -239 -202 -367.5t-436 -128.5
q-266 0 -389.5 128t-85.5 368zM820 1670q-12 -73 41 -124t146 -51q95 0 162.5 49t80.5 126q12 74 -40 124t-148 50q-95 0 -162.5 -50.5t-79.5 -123.5z" />
    <glyph glyph-name="uring" unicode="&#x16f;" horiz-adv-x="1191" 
d="M542 1389q14 90 105 155t209 65q119 0 188 -63.5t55 -156.5q-15 -90 -104 -155t-209 -65q-116 0 -187 65.5t-57 154.5zM221 326l99 630h67l-95 -605q-25 -156 38 -247.5t228 -91.5q188 0 312 111.5t151 280.5l87 552h65l-151 -956h-65l33 208q-37 -96 -161 -169.5
t-295 -73.5q-179 0 -259 97.5t-54 263.5zM607 1389q-11 -73 41.5 -124t144.5 -51q96 0 163 49t79 126q12 75 -38.5 125t-147.5 50q-94 0 -162 -51t-80 -124z" />
    <glyph glyph-name="Uhungarumlaut" unicode="&#x170;" horiz-adv-x="1511" 
d="M272 461l141 891h67l-139 -881q-35 -219 74 -337t341 -118q233 0 380 118.5t181 336.5l139 881h70l-141 -891q-38 -239 -202 -367.5t-436 -128.5q-266 0 -389.5 128t-85.5 368zM731 1523l292 324h117l-332 -324h-77zM1019 1523l291 324h118l-332 -324h-77z" />
    <glyph glyph-name="uhungarumlaut" unicode="&#x171;" horiz-adv-x="1191" 
d="M221 326l99 630h67l-95 -605q-25 -156 38 -247.5t228 -91.5q188 0 312 111.5t151 280.5l87 552h65l-151 -956h-65l33 208q-37 -96 -161 -169.5t-295 -73.5q-179 0 -259 97.5t-54 263.5zM511 1158l292 323h117l-332 -323h-77zM799 1158l291 323h118l-332 -323h-77z" />
    <glyph glyph-name="Uogonek" unicode="&#x172;" horiz-adv-x="1511" 
d="M272 461l141 891h67l-139 -881q-35 -219 74 -337t341 -118q233 0 380 118.5t181 336.5l139 881h70l-141 -891q-35 -221 -180.5 -349t-385.5 -144q-221 -117 -235 -203q-6 -39 21.5 -58.5t89.5 -19.5q68 0 152 29l-7 -47q-80 -26 -159 -26q-92 0 -133 29t-31 89
q9 52 70 106t149 98q-260 3 -380.5 130.5t-83.5 365.5z" />
    <glyph glyph-name="uogonek" unicode="&#x173;" horiz-adv-x="1137" 
d="M221 326l99 630h67l-95 -605q-25 -156 38 -247.5t228 -91.5q188 0 312 111.5t151 280.5l87 552h65l-151 -956h2q-278 -138 -293 -233q-6 -40 21.5 -59.5t90.5 -19.5q59 0 151 29l-7 -46q-78 -26 -157 -26q-183 0 -165 118q11 62 96 127.5t194 109.5h2l33 208
q-37 -96 -161 -169.5t-295 -73.5q-179 0 -259 97.5t-54 263.5z" />
    <glyph glyph-name="Wcircumflex" unicode="&#x174;" horiz-adv-x="1902" 
d="M451 0l-200 1352h80l141 -1020q11 -80 30 -267h6q11 23 60.5 128t65.5 139l485 1020h91l164 -1020l21 -134q13 -83 21 -133h6q78 190 115 267l462 1020h80l-626 -1352h-87l-166 1000q-27 148 -41 287h-5q-33 -75 -134 -287l-481 -1000h-88zM796 1523l408 293h71l315 -293
h-85l-272 245l-351 -245h-86z" />
    <glyph glyph-name="wcircumflex" unicode="&#x175;" horiz-adv-x="1648" 
d="M604 1162l407 292h72l314 -292h-84l-271 245l-352 -245h-86zM228 956h80l160 -906h8l454 906h87l173 -905h2l450 905h79l-492 -956h-91l-170 896h-7l-452 -896h-93z" />
    <glyph glyph-name="Ycircumflex" unicode="&#x176;" horiz-adv-x="1349" 
d="M513 1523l406 293h72l316 -293h-87l-271 245l-351 -245h-85zM262 1352h85l424 -736h5l653 736h86l-715 -795l-88 -557h-70l88 557z" />
    <glyph glyph-name="ycircumflex" unicode="&#x177;" horiz-adv-x="1130" 
d="M359 1162l406 292h71l317 -292h-86l-272 245l-349 -245h-87zM123 -449l8 49h41q159 0 280 218l75 131l-299 1007h80l263 -934h4l552 934h78l-695 -1154q-80 -133 -160.5 -192t-176.5 -59h-50z" />
    <glyph glyph-name="Ydieresis" unicode="&#x178;" horiz-adv-x="1349" 
d="M649 1743h166l-21 -134h-166zM262 1352h85l424 -736h5l653 736h86l-715 -795l-88 -557h-70l88 557zM1066 1609l21 134h165l-21 -134h-165z" />
    <glyph glyph-name="Zacute" unicode="&#x179;" horiz-adv-x="1366" 
d="M130 0l7 47l1204 1254h-931l8 51h1010l-7 -47l-1205 -1255h1034l-8 -50h-1112zM810 1523l308 319h120l-357 -319h-71z" />
    <glyph glyph-name="zacute" unicode="&#x17a;" horiz-adv-x="1099" 
d="M994 0h-863l6 41l892 867h-697l7 48h778l-6 -42l-888 -867h778zM619 1162l309 319h120l-357 -319h-72z" />
    <glyph glyph-name="Zdotaccent" unicode="&#x17b;" horiz-adv-x="1366" 
d="M130 0l7 47l1204 1254h-931l8 51h1010l-7 -47l-1205 -1255h1034l-8 -50h-1112zM914 1607l21 136h162l-21 -136h-162z" />
    <glyph glyph-name="zdotaccent" unicode="&#x17c;" horiz-adv-x="1099" 
d="M994 0h-863l6 41l892 867h-697l7 48h778l-6 -42l-888 -867h778zM703 1238l22 136h164l-22 -136h-164z" />
    <glyph glyph-name="Zcaron" unicode="&#x17d;" horiz-adv-x="1366" 
d="M130 0l7 47l1204 1254h-931l8 51h1010l-7 -47l-1205 -1255h1034l-8 -50h-1112zM590 1814h89l268 -240l348 240h87l-403 -291h-77z" />
    <glyph glyph-name="zcaron" unicode="&#x17e;" horiz-adv-x="1099" 
d="M994 0h-863l6 41l892 867h-697l7 48h778l-6 -42l-888 -867h778zM415 1452h88l268 -240l348 240h87l-404 -290h-76z" />
    <glyph glyph-name="uni018F" unicode="&#x18f;" horiz-adv-x="1480" 
d="M205 590q8 42 10 57q7 21 10 44h1180q38 277 -63 453q-114 192 -424 192q-325 0 -517 -235l-56 21q91 122 243.5 194t337.5 72q228 0 366 -97q132 -94 174 -248t7 -372q-54 -342 -261 -524t-500 -182q-133 0 -235.5 38t-160.5 102q-78 86 -105.5 212.5t-5.5 272.5z
M280 585q-28 -174 13 -304q22 -78 71 -135q49 -59 142 -94.5t217 -35.5q202 0 395 127q104 70 180 199.5t102 295.5h-1114l-4 -28q0 -6 -1 -14.5t-1 -10.5z" />
    <glyph glyph-name="florin" unicode="&#x192;" horiz-adv-x="719" 
d="M-82 -402q63 -5 104 -5q249 0 297 301l161 1014h-228l7 48h228l31 193q20 131 111 196.5t233 65.5h98l-7 -48h-95q-239 0 -275 -225l-29 -182h302l-7 -48h-302l-162 -1019q-54 -346 -364 -346q-31 0 -64 4t-46 4z" />
    <glyph glyph-name="uni0218" unicode="&#x218;" horiz-adv-x="1368" 
d="M536 -453h-64l182 334h107zM158 209l76 26q58 -98 182 -157.5t281 -59.5q142 0 254.5 33.5t189.5 106.5t93 178l1 2q8 49 -9 91t-52 75t-95 63t-128 54t-162 50q-74 21 -125 37q-76 25 -147 59q-73 32 -111 70q-41 39 -63.5 95.5t-11.5 121.5q25 155 179.5 245.5
t396.5 90.5q165 0 288 -62t176 -157l-67 -22q-54 85 -162.5 135t-248.5 50q-209 0 -345 -76t-156 -204q-8 -49 8.5 -91t51.5 -75t95 -63.5t127.5 -54.5t161.5 -51q101 -27 152.5 -44.5t120.5 -49.5q74 -32 112 -70q41 -39 63 -95.5t12 -121.5q-29 -177 -189 -276t-423 -99
q-184 0 -317.5 65.5t-208.5 180.5z" />
    <glyph glyph-name="uni0219" unicode="&#x219;" horiz-adv-x="1078" 
d="M371 -457h-72l186 342h115zM127 159l68 31q48 -81 140 -126.5t215 -45.5q159 0 271 57t126 145q14 81 -74.5 134t-294.5 103q-89 22 -138 39.5t-100 49.5q-113 62 -93 192q19 119 147 189t311 70q131 0 231.5 -55t139.5 -139l-57 -30q-38 74 -124.5 119.5t-198.5 45.5
q-153 0 -263 -56.5t-123 -142.5q-14 -89 63 -139.5t280 -99.5q177 -44 263 -97q114 -63 96 -183q-18 -114 -143.5 -187.5t-327.5 -73.5q-303 0 -414 200z" />
    <glyph glyph-name="uni021A" unicode="&#x21a;" horiz-adv-x="1325" 
d="M491 -451h-60l179 330h102zM307 1301l8 51h1125l-8 -51h-527l-206 -1301h-70l206 1301h-528z" />
    <glyph glyph-name="uni021B" unicode="&#x21b;" horiz-adv-x="769" 
d="M375 -451h-60l178 330h103zM219 908l7 48h228l53 332h73l-53 -332h317l-7 -48h-317l-104 -655q-17 -109 27 -158.5t158 -47.5l100 3l-8 -50h-108q-138 -3 -200.5 58t-43.5 184l106 666h-228z" />
    <glyph glyph-name="uni0237" unicode="&#x237;" horiz-adv-x="574" 
d="M-111 -449l8 49h63q234 0 274 255l174 1101h68l-175 -1109q-22 -141 -110.5 -218.5t-223.5 -77.5h-78z" />
    <glyph glyph-name="uni0259" unicode="&#x259;" horiz-adv-x="1187" 
d="M162 442l8 51h928q20 125 -15.5 226t-127 162t-225.5 61q-129 0 -242.5 -53.5t-183.5 -136.5l-56 17q186 222 490 222q237 0 348.5 -143t74.5 -375q-36 -223 -196 -365.5t-385 -142.5q-147 0 -250.5 66t-146 174t-21.5 237zM232 447q-19 -119 17 -217.5t124.5 -158
t214.5 -59.5q191 0 329 127t174 308h-859z" />
    <glyph glyph-name="Wgrave" unicode="&#x1e80;" horiz-adv-x="1902" 
d="M1266 1523l-256 319h120l207 -319h-71zM251 1352h80l141 -1020q11 -80 30 -267h6q11 23 60.5 128t65.5 139l485 1020h91l164 -1020l21 -134q13 -83 21 -133h6q78 190 115 267l462 1020h80l-626 -1352h-87l-166 1000q-27 148 -41 287h-5q-33 -75 -134 -287l-481 -1000h-88
z" />
    <glyph glyph-name="wgrave" unicode="&#x1e81;" horiz-adv-x="1648" 
d="M1081 1162l-256 319h122l206 -319h-72zM228 956h80l160 -906h8l454 906h87l173 -905h2l450 905h79l-492 -956h-91l-170 896h-7l-452 -896h-93z" />
    <glyph glyph-name="Wacute" unicode="&#x1e82;" horiz-adv-x="1902" 
d="M1110 1523h-73l310 319h119zM251 1352h80l141 -1020q11 -80 30 -267h6q11 23 60.5 128t65.5 139l485 1020h91l164 -1020l21 -134q13 -83 21 -133h6q78 190 115 267l462 1020h80l-626 -1352h-87l-166 1000q-27 148 -41 287h-5q-33 -75 -134 -287l-481 -1000h-88z" />
    <glyph glyph-name="wacute" unicode="&#x1e83;" horiz-adv-x="1648" 
d="M922 1162h-71l308 319h121zM228 956h80l160 -906h8l454 906h87l173 -905h2l450 905h79l-492 -956h-91l-170 896h-7l-452 -896h-93z" />
    <glyph glyph-name="Wdieresis" unicode="&#x1e84;" horiz-adv-x="1902" 
d="M1070 1609h-163l21 134h163zM251 1352h80l141 -1020q11 -80 30 -267h6q11 23 60.5 128t65.5 139l485 1020h91l164 -1020l21 -134q13 -83 21 -133h6q78 190 115 267l462 1020h80l-626 -1352h-87l-166 1000q-27 148 -41 287h-5q-33 -75 -134 -287l-481 -1000h-88z
M1344 1609l21 134h165l-21 -134h-165z" />
    <glyph glyph-name="wdieresis" unicode="&#x1e85;" horiz-adv-x="1648" 
d="M884 1238h-165l21 135h165zM228 956h80l160 -906h8l454 906h87l173 -905h2l450 905h79l-492 -956h-91l-170 896h-7l-452 -896h-93zM1158 1238l21 135h165l-21 -135h-165z" />
    <glyph glyph-name="Ygrave" unicode="&#x1ef2;" horiz-adv-x="1349" 
d="M960 1523l-254 319h119l206 -319h-71zM262 1352h85l424 -736h5l653 736h86l-715 -795l-88 -557h-70l88 557z" />
    <glyph glyph-name="ygrave" unicode="&#x1ef3;" horiz-adv-x="1130" 
d="M784 1162l-255 319h118l209 -319h-72zM123 -449l8 49h41q159 0 280 218l75 131l-299 1007h80l263 -934h4l552 934h78l-695 -1154q-80 -133 -160.5 -192t-176.5 -59h-50z" />
    <glyph glyph-name="uni2010" unicode="&#x2010;" horiz-adv-x="519" 
d="M614 624h-552l7 45h552z" />
    <glyph glyph-name="endash" unicode="&#x2013;" horiz-adv-x="972" 
d="M1071 624h-972l7 45h972z" />
    <glyph glyph-name="emdash" unicode="&#x2014;" horiz-adv-x="2212" 
d="M2311 624h-2212l7 45h2212z" />
    <glyph glyph-name="uni2015" unicode="&#x2015;" horiz-adv-x="2090" 
d="M2189 624h-2090l7 45h2090z" />
    <glyph glyph-name="quoteleft" unicode="&#x2018;" horiz-adv-x="543" 
d="M524 1049h-201l18 113q24 154 80.5 255.5t176.5 185.5l37 -29q-96 -77 -142 -161.5t-66 -211.5h121z" />
    <glyph glyph-name="quoteright" unicode="&#x2019;" horiz-adv-x="546" 
d="M522 1369h-120l23 148h204l-17 -112q-24 -152 -82 -253.5t-178 -186.5l-37 31q95 76 141 161t66 212z" />
    <glyph glyph-name="quotesinglbase" unicode="&#x201a;" horiz-adv-x="546" 
d="M306 6h-120l24 149h204l-18 -111q-24 -153 -81.5 -254.5t-178.5 -187.5l-37 29q95 77 141 162t66 213z" />
    <glyph glyph-name="quotereversed" unicode="&#x201b;" horiz-adv-x="543" 
d="M380 1405l17 112h201l-23 -148h-121q-22 -122 -2 -209.5t92 -163.5l-47 -31q-94 84 -119 190.5t2 249.5z" />
    <glyph glyph-name="quotedblleft" unicode="&#x201c;" horiz-adv-x="1005" 
d="M983 1049h-204l17 107q24 155 82.5 259t179.5 188l39 -29q-96 -77 -142 -162.5t-66 -212.5h118zM323 1049l17 107q25 159 86 270t179 193l37 -30q-170 -135 -210 -390h120l-24 -150h-205z" />
    <glyph glyph-name="quotedblright" unicode="&#x201d;" horiz-adv-x="1001" 
d="M314 994q96 74 141 159t66 216h-123l23 148h207l-17 -106q-25 -157 -82.5 -262t-177.5 -187zM767 981q96 75 142.5 164.5t67.5 223.5h-121l23 148h205l-17 -106q-24 -158 -84.5 -268.5t-179.5 -194.5z" />
    <glyph glyph-name="quotedblbase" unicode="&#x201e;" horiz-adv-x="1001" 
d="M99 -369q95 75 140.5 160.5t65.5 216.5h-123l24 147h207l-17 -105q-25 -155 -82 -259t-178 -189zM548 -382q96 76 143.5 166.5t68.5 223.5h-120l24 147h205l-17 -105q-25 -159 -85.5 -269.5t-178.5 -192.5z" />
    <glyph glyph-name="uni201F" unicode="&#x201f;" horiz-adv-x="1005" 
d="M836 1411l17 106h204l-23 -148h-118q-22 -122 -2 -210.5t91 -164.5l-49 -32q-95 82 -121 192.5t1 256.5zM380 1411l17 106h205l-23 -148h-120q-22 -126 -3 -219t89 -169l-46 -33q-92 84 -117.5 194.5t-1.5 268.5z" />
    <glyph glyph-name="bullet" unicode="&#x2022;" horiz-adv-x="1101" 
d="M876 455h-475l60 381h475z" />
    <glyph glyph-name="ellipsis" unicode="&#x2026;" horiz-adv-x="2098" 
d="M2028 567h-188l25 157h188zM272 567l25 157h192l-25 -157h-192zM1056 567l25 157h189l-25 -157h-189z" />
    <glyph glyph-name="fraction" unicode="&#x2044;" horiz-adv-x="467" 
d="M-222 -3h-71l1198 1360h71z" />
    <glyph glyph-name="uni20B9" unicode="&#x20b9;" horiz-adv-x="1212" 
d="M849 948h-666l24 50h650q10 72 -20.5 140.5t-102 115.5t-167.5 47h-328l27 51h1132l-23 -51h-628q95 -39 143.5 -124.5t33.5 -178.5h418l-23 -50h-403q-40 -184 -207.5 -287.5t-431.5 -103.5l622 -557h-80l-614 543l9 56h60q230 0 385 91.5t190 257.5z" />
    <glyph glyph-name="trademark" unicode="&#x2122;" horiz-adv-x="1242" 
d="M269 1279l10 65h451l-10 -65h-189l-74 -463h-73l74 463h-189zM721 816l84 528h69l146 -455l288 455h69l-84 -528h-69l61 383l-243 -383h-68l-124 377l-60 -377h-69z" />
    <glyph glyph-name="arrowleft" unicode="&#x2190;" horiz-adv-x="2274" 
d="M815 383l-521 298l615 298l27 -52l-320 -220h1530l-9 -55h-1530l250 -220z" />
    <glyph glyph-name="arrowup" unicode="&#x2191;" horiz-adv-x="1342" 
d="M533 1013l-60 27l440 470l286 -470l-67 -27l-229 233l-218 -1377h-68l218 1377z" />
    <glyph glyph-name="arrowright" unicode="&#x2192;" horiz-adv-x="2274" 
d="M1873 652h-1530l9 55h1530l-250 220l41 52l523 -298l-617 -298l-26 49z" />
    <glyph glyph-name="arrowdown" unicode="&#x2193;" horiz-adv-x="1342" 
d="M649 -159l-292 471l70 26l228 -232l218 1378h68l-218 -1378l303 232l57 -26z" />
    <glyph glyph-name="arrowboth" unicode="&#x2194;" horiz-adv-x="2392" 
d="M755 385l-461 296l555 296l27 -47l-288 -223h1439l-218 223l43 47l462 -296l-556 -296l-28 45l288 222h-1439l218 -222z" />
    <glyph glyph-name="arrowupdn" unicode="&#x2195;" horiz-adv-x="1347" 
d="M648 -159l-301 395l53 27l250 -202l194 1229l-314 -203l-43 29l425 394l304 -394l-53 -29l-251 203l-194 -1229l315 202l43 -27z" />
    <glyph glyph-name="uni2215" unicode="&#x2215;" horiz-adv-x="1345" 
d="M164 -247h-55l1299 1785h60z" />
    <glyph glyph-name="asteriskmath" unicode="&#x2217;" horiz-adv-x="1453" 
d="M276 383l-31 33l551 303l-455 301l41 35l441 -292l77 487h55l-77 -489l533 294l25 -35l-549 -301l453 -305l-39 -34l-435 291l-77 -486h-62l78 488z" />
    <glyph glyph-name="uniF8FF" unicode="&#xf8ff;" horiz-adv-x="1542" 
d="M758 60q-151 0 -279.5 75.5t-203 204.5t-74.5 280q0 152 75 280.5t203.5 203t280.5 74.5q151 0 279.5 -75t203.5 -203.5t75 -279.5q0 -152 -74.5 -281t-203.5 -204t-282 -75zM200 -164h59q50 0 71 34q10 16 10 39q0 47 -37 64q-18 9 -44 9h-59v-146zM235 -137v93h22
q31 0 43 -20q5 -9 5 -27q0 -32 -22 -42q-8 -4 -26 -4h-22zM268 621q0 -205 144 -350t348 -145q203 0 347.5 144.5t144.5 347.5q0 100 -39 191.5t-104.5 157.5t-156 105t-190.5 40q-134 0 -248 -65.5t-180 -178.5t-66 -247zM352 -109q0 -36 30 -50q16 -7 33 -7q31 0 45 16
q8 7 10 17l-31 3q-5 -9 -14 -12q-3 -1 -10 -1q-18 0 -25 13q-3 5 -3 13h85v8q0 27 -18 42q-16 14 -42 14q-36 0 -52 -27q-8 -13 -8 -29zM387 -98q2 13 12 19q4 3 14 3q17 0 23 -12l3 -10h-52zM442 719q10 -2 12 -4q52 -21 98 -27q41 -3 72 2q43 11 47 12q3 0 8.5 2.5
t7.5 3.5q-5 2 -16.5 8t-17 9t-13 8.5t-13.5 12.5h19q39 0 75 19q65 40 136 61q24 8 58 11q4 0 19.5 1t23.5 0q54 -2 89 -33q10 -11 28 -33v-2l-6 2q-45 17 -83 3.5t-62 -53.5q-7 -13 -25 -55q-9 -21 -27 -63.5t-20 -48.5q-33 -64 -65 -101q-27 -33 -66 -58q-45 -34 -116 -55
h-4h-1l24 22q12 11 25 44q41 116 45 127q24 73 57 131v3q-2 -4 -11 -13q-8 -10 -10 -12q-23 -36 -31 -57q-2 -6 -8 -6q-99 3 -177 67q-40 38 -59 55q-1 1 -5 7t-8 10zM481 -132q5 -34 56 -34q35 0 48 18q7 9 7 18q0 24 -36 30l-22 3q-16 4 -16 12q0 11 19 11q17 0 21 -14
l31 3q-5 32 -53 32q-33 0 -46 -16q-6 -7 -6 -18q0 -25 36 -31l21 -4q16 -3 16 -11q0 -11 -20 -11q-18 0 -23 14zM605 -25q0 -15 19 -15q18 0 18 15t-18 15q-19 0 -19 -15zM607 -164h34v109h-34v-109zM656 -109q0 -35 25 -48q12 -5 25 -5q18 0 29 9q5 5 7 8h1v-19
q0 -21 -25 -21q-16 0 -21 6l-6 6l-31 -3q7 -31 57 -31q37 0 52 19q9 9 9 23v110h-35v-18h-1q-6 12 -18 17q-8 3 -18 3q-30 0 -43 -25q-7 -11 -7 -31zM691 -109q0 21 12 28q8 4 15 4q16 0 22 -15q3 -7 3 -17q0 -30 -25 -30q-18 0 -24 14q-3 6 -3 16zM798 -164h34v64
q0 13 11 19q6 3 13 3q21 0 21 -22v-64h35v70q0 26 -20 36q-10 5 -23 5q-27 0 -37 -21v19h-34v-109zM927 -109q0 -34 28 -50q17 -7 33 -7q38 0 54 27q7 13 7 30q0 33 -28 49q-13 7 -33 7q-38 0 -54 -27q-7 -14 -7 -29zM962 -109q0 21 12 28q7 5 14 5q16 0 24 -16q3 -15 3 -17
q0 -20 -12 -29q-5 -4 -15 -4q-16 0 -23 15q-3 9 -3 18zM1051 -55l43 -109h39l43 109h-36l-26 -78h-1l-26 78h-36zM1177 -133q0 -21 21 -29q8 -4 21 -4q18 0 27 9q4 2 9 9v-16h33v74q0 20 -15 28q-17 9 -37 9q-30 0 -45 -15q-7 -6 -10 -17l32 -3q5 13 22 13q19 0 19 -14v-1
q0 -7 -13 -7l-17 -3q-19 0 -32 -8q-15 -8 -15 -25zM1210 -133q0 9 9 12q5 3 12 3q19 3 23 5v-11q0 -13 -12 -18q-6 -3 -14 -3q-18 0 -18 12zM1267 -16q0 16 11 26.5t27 10.5t26.5 -10.5t10.5 -26.5t-10.5 -27t-26.5 -11t-27 11t-11 27zM1279 -16q0 -11 7.5 -19t18.5 -8
t18.5 8t7.5 19t-7.5 18.5t-18.5 7.5t-18.5 -7.5t-7.5 -18.5zM1292 -33v35h14q12 0 12 -11q0 -5 -5 -10l8 -14h-10l-6 11h-5v-11h-8zM1300 -13h6q5 0 5 3t-5 3h-6v-6z" />
    <glyph glyph-name="_Designova" horiz-adv-x="1692" 
d="M844 -121q-174 0 -322.5 87t-235 235.5t-86.5 323.5q1 131 52 250.5t137.5 205.5t206 137t250.5 51q175 0 323.5 -86t235.5 -234.5t87 -323.5q0 -176 -87 -324.5t-236 -235t-325 -86.5zM278 525q0 -116 45 -221.5t120.5 -181.5t181 -121t221.5 -45q154 0 285 76t207 207
t76 285q0 116 -45 221.5t-120.5 181.5t-180.5 121t-221 45t-221 -45t-181.5 -120.5t-121.5 -181t-45 -221.5zM480 638q7 0 13 -4q58 -22 115 -31q45 -5 81 3q29 4 53 14q5 0 11.5 3t8.5 4q-5 3 -22.5 11.5t-27.5 15.5t-19 17h21q39 0 86 20q85 53 158 73q37 10 66 10
q6 0 24.5 1.5t26.5 0.5q67 -4 102 -39q6 -5 33 -37v-2q-3 2 -7 2q-53 20 -95.5 4.5t-71.5 -59.5q-5 -9 -10 -20.5t-11 -25t-9 -21.5q-6 -14 -25 -59t-30 -68q-36 -74 -74 -119q-20 -27 -74 -66q-52 -38 -136 -63h-7l28 24q18 17 30 51q7 20 25 71t27 78q31 90 65 150v1
q-3 -3 -11 -13q-9 -7 -11 -16q-23 -27 -38 -65q-3 -5 -9 -5q-117 5 -204 78q-10 10 -32.5 31t-33.5 32q-12 14 -16 18z" />
    <glyph glyph-name="_Origin" horiz-adv-x="2195" 
d="M120 929v50h1955v-50h-1955zM120 110v50h1955v-50h-1955zM198 311v177h42v-177h-42zM230 608v177h148v-32h-107v-39h97v-31h-97v-42h107v-33h-148zM268 311v177h34l89 -107v107h40v-177h-33l-88 109v-109h-42zM408 608v177h34l88 -107v107h40v-177h-33l-88 109v-109h-41z
M524 311v177h87q72 0 72 -45q0 -28 -26 -40q3 0 3 -2q28 -12 28 -42q0 -48 -71 -48h-93zM566 342h48q32 0 32 22t-32 22h-48v-44zM566 419h42q33 0 33 20q0 22 -33 22h-42v-42zM599 753v32h156v-32h-57v-145h-41v145h-58zM708 311v177h148v-33h-107v-38h96v-31h-96v-41h105
v-34h-146zM773 785h44l40 -124l42 124h38l40 -126l42 126h39l-57 -177h-45l-39 121l-41 -121h-43zM884 311v177h81q28 0 42 -6q36 -19 36 -57q0 -21 -10 -35q-15 -18 -29 -23l37 -56h-43l-35 50h-37v-50h-42zM926 394h37q38 0 38 31q0 30 -38 30h-37v-61zM1063 311v177h40
v-143h106v-34h-146zM1066 697q0 39 28 65q26 26 69 26t69 -26q28 -25 28 -65q0 -39 -28 -65q-26 -27 -68 -27q-44 0 -70 27q-28 28 -28 65zM1108 697q0 -25 15.5 -40.5t39.5 -15.5t39.5 15.5t15.5 40.5t-15.5 41.5t-39.5 16.5t-39.5 -16.5t-15.5 -41.5zM1238 311v177h41
v-177h-41zM1283 608v177h81q28 0 41 -6q36 -17 36 -57q0 -21 -10 -35q-9 -15 -29 -23l39 -56h-45l-33 50h-39v-50h-41zM1308 311v177h35l87 -107v107h42v-177h-34l-89 109v-109h-41zM1324 691h37q38 0 38 31t-38 31h-37v-62zM1461 608v177h148v-32h-107v-39h96v-31h-96v-75
h-41zM1498 335q0 24 25 24q10 0 17 -7t7 -17q0 -11 -7 -25l-14 -38h-26l12 41q-14 5 -14 22zM1625 608v177h147v-32h-106v-39h95v-31h-95v-42h106v-33h-147zM1648 311v177h80q30 0 52 -11q46 -21 46 -77q0 -28 -12 -47q-23 -42 -86 -42h-80zM1690 345h37q17 0 31 7
q26 14 26 48q0 21 -6 29q-14 26 -51 26h-37v-110zM1802 608v177h33l90 -107v107h40v-177h-34l-89 109v-109h-40zM1850 311v177h147v-33h-107v-38h97v-31h-97v-41h106v-34h-146z" />
    <glyph glyph-name="_VendorID" horiz-adv-x="1116" 
d="M73 -4v1187h974v-1187h-974zM76 -95q0 13 7.5 20.5t18.5 7.5q9 0 12 -3l4 -5v26h13v-72h-13v9l-4 -7q-8 -5 -15 -5q-23 0 -23 29zM90 -95q0 -17 13 -17q15 0 15 17v1q0 18 -13 18q-15 0 -15 -19zM126 47h869v1084h-869v-1084zM141 -95q0 13 7.5 20.5t19.5 7.5
q11 0 18.5 -7.5t7.5 -19.5q0 -2 -2 -5h-37q1 -13 13 -13q10 0 12 9h12q-4 -21 -24 -21q-27 0 -27 29zM155 -91h25q-3 15 -12 15q-12 0 -13 -15zM198 -106h14q3 -9 9 -9q9 0 9 7q0 3 -12 9q-18 5 -18 16q0 16 21 16t21 -16h-14q-1 7 -7 7q-7 0 -7 -6q0 -4 12 -9q17 -5 17 -15
q0 -18 -22 -18q-20 0 -23 18zM240 297q0 59 46 125l97 137h64l-84 -120q11 3 23 3q62 0 102.5 -41.5t40.5 -103.5q0 -61 -41.5 -103.5t-101.5 -42.5q-61 0 -103.5 42.5t-42.5 103.5zM240 768q0 56 46 123l97 142h64l-84 -122q7 2 23 2q63 0 103 -41t40 -104
q0 -61 -41 -102.5t-102 -41.5t-103.5 42t-42.5 102zM251 -56q0 7 8 7t8 -7q0 -8 -8 -8t-8 8zM252 -121v54h14v-54h-14zM276 -95q0 28 26 28q9 0 12 -3l4 -5v8h14v-41q0 -8 -2 -11q0 -24 -27 -24q-26 0 -26 18v1h14v-1q0 -8 12 -8q11 0 15 13v8l-4 -7q-8 -2 -14 -2
q-24 0 -24 26zM291 -94q0 -18 12 -18q15 0 15 17v1q0 18 -15 18q-12 0 -12 -18zM294 297q0 -42 25.5 -68t66.5 -26q39 0 64.5 26t25.5 68q0 40 -25.5 65t-64.5 25q-41 0 -66.5 -25t-25.5 -65zM294 768q0 -41 25.5 -67t66.5 -26q39 0 64.5 26.5t25.5 66.5t-25.5 66t-64.5 26
q-41 0 -66.5 -25t-25.5 -67zM343 -121v54h14v-10l4 7q5 3 13 3q17 0 20 -15q1 -3 1 -9v-30h-15v34q0 11 -10 11q-13 0 -13 -21v-24h-14zM402 -95q0 13 7.5 20.5t19.5 7.5q28 0 28 -28q0 -29 -28 -29q-12 0 -19.5 8t-7.5 21zM416 -95q0 -17 13 -17q15 0 15 17q0 19 -15 19
q-13 0 -13 -19zM462 -67h14l14 -45l13 45h14l-19 -54h-18zM522 -106q0 16 30 16h3v7q0 7 -9 7q-11 0 -11 -9h-13q0 18 24 18q19 0 21 -15v-39h-12v6l-3 -5q-8 -4 -14 -4q-16 0 -16 18zM535 -106q0 -6 8 -6q12 0 12 9v6q-20 2 -20 -9zM576 -78v9h6v8q0 15 19 15h6v-11
q-11 2 -11 -5v-7h11v-9h-11v-43h-14v43h-6zM589 297q0 62 44 125l97 137h66l-86 -120q10 3 25 3q61 0 102 -41.5t41 -103.5q0 -61 -41.5 -103.5t-101.5 -42.5q-61 0 -103.5 42.5t-42.5 103.5zM589 768q0 57 44 123l97 142h66l-87 -122q8 2 26 2q61 0 102 -41.5t41 -103.5
q0 -61 -41.5 -102.5t-101.5 -41.5q-61 0 -103.5 41.5t-42.5 102.5zM611 -95q0 28 28 28q27 0 27 -28q0 -29 -27 -29q-28 0 -28 29zM625 -95q0 -17 14 -17q13 0 13 17q0 19 -13 19q-14 0 -14 -19zM642 297q0 -42 26 -68t67 -26q38 0 62.5 26t24.5 68q0 40 -24.5 65t-62.5 25
q-41 0 -67 -25t-26 -65zM642 768q0 -41 26 -67t67 -26q38 0 62.5 26t24.5 67q0 40 -24.5 66t-62.5 26q-41 0 -67 -25.5t-26 -66.5zM675 -121v54h12v-10l6 7q4 3 13 3q16 0 19 -15v-39h-14v34q-4 11 -9 11q-15 0 -15 -21v-24h-12zM732 -78v9h8v13h14v-13h10v-9h-10v-28
q2 -10 9 -6v-10h-8q-15 0 -15 10v34h-8zM768 -106h15q1 -9 10 -9q8 0 8 7q0 3 -12 9q-17 5 -17 16q0 16 20 16q19 0 24 -16h-16q0 7 -9 7q-5 0 -5 -6q0 -5 11 -9q19 -6 19 -15q0 -18 -23 -18q-21 0 -25 18zM820 -116q0 10 9 10t9 -10q0 -8 -9 -8t-9 8zM844 -95q0 13 8 20.5
t18 7.5q25 0 25 -20h-13q-3 11 -12 11q-12 0 -12 -19q0 -17 12 -17q10 0 12 9h13q-1 -21 -25 -21q-26 0 -26 29zM900 -95q0 28 29 28q26 0 26 -28q0 -29 -26 -29q-29 0 -29 29zM914 -95q0 -17 15 -17q13 0 13 17q0 19 -13 19q-15 0 -15 -19zM965 -121v54h14v-9l5 6q3 3 9 3
q13 0 18 -10l5 7q3 3 11 3q17 0 17 -12q1 -4 1 -12v-30h-13v27q0 2 -0.5 5t-0.5 4q0 9 -10 9q-9 0 -9 -18v-27h-13v36q-5 9 -10 9q-10 0 -10 -18v-27h-14z" />
    </font>
</defs>
</svg>
