<?xml version="1.0" standalone="no"?>
<!DOCTYPE svg PUBLIC "-//W3C//DTD SVG 1.1//EN" "http://www.w3.org/Graphics/SVG/1.1/DTD/svg11.dtd" >
<svg xmlns="http://www.w3.org/2000/svg" xmlns:xlink="http://www.w3.org/1999/xlink" version="1.1">
<metadata>
Created by FontForge 20170731 at Wed Nov 15 16:17:54 2023
 By Aleksey,,,
Copyright (c) 2023 by Designova. All rights reserved.
</metadata>
<defs>
<font id="LinearGrotesk-LightItalic" horiz-adv-x="1482" >
  <font-face 
    font-family="Linear Grotesk Light Italic"
    font-weight="300"
    font-style="italic"
    font-stretch="normal"
    units-per-em="2048"
    panose-1="0 0 0 0 0 0 0 0 0 0"
    ascent="1638"
    descent="-410"
    x-height="971"
    cap-height="1358"
    bbox="-329 -475 2268 1899"
    underline-thickness="100"
    underline-position="-355"
    unicode-range="U+0020-F8FF"
  />
<missing-glyph horiz-adv-x="1415" 
d="M195 -34l223 1408h1015l-223 -1408h-1015zM387 261l337 409l-207 412zM439 111h572l-218 429zM614 1229l220 -429l355 429h-575zM899 670l210 -410l131 823z" />
    <glyph glyph-name=".notdef" horiz-adv-x="1415" 
d="M195 -34l223 1408h1015l-223 -1408h-1015zM387 261l337 409l-207 412zM439 111h572l-218 429zM614 1229l220 -429l355 429h-575zM899 670l210 -410l131 823z" />
    <glyph glyph-name=".null" horiz-adv-x="0" 
 />
    <glyph glyph-name="nonmarkingreturn" horiz-adv-x="682" 
 />
    <glyph glyph-name="space" unicode=" " horiz-adv-x="360" 
 />
    <glyph glyph-name="space" unicode="&#xa0;" horiz-adv-x="360" 
 />
    <glyph glyph-name="exclam" unicode="!" horiz-adv-x="572" 
d="M276 342l147 1000h150l-174 -1000h-123zM155 -48l35 217h245l-35 -217h-245z" />
    <glyph glyph-name="quotedbl" unicode="&#x22;" horiz-adv-x="1179" 
d="M732 963l300 557h195l-366 -557h-129zM346 963l300 557h195l-366 -557h-129z" />
    <glyph glyph-name="numbersign" unicode="#" horiz-adv-x="1310" 
d="M208 -26l123 379h-269l17 109h286l113 348h-273l18 109h290l122 376h122l-119 -376h419l121 376h122l-119 -376h267l-18 -109h-285l-112 -348h273l-17 -109h-290l-122 -379h-128l125 379h-418l-123 -379h-125zM490 462h417l112 348h-417z" />
    <glyph glyph-name="dollar" unicode="$" horiz-adv-x="1162" 
d="M518 -32q-117 13 -228 79.5t-158 167.5l121 60q36 -81 140.5 -137t207.5 -56q343 0 381 231q6 41 -3 71q-7 40 -19 61.5t-43 45.5q-5 4 -17.5 13.5t-16 12t-13.5 9.5t-14.5 10t-14 8.5t-17 9t-18 8.5t-23.5 10q-67 25 -83 30l-90 32q-172 56 -251.5 142.5t-57.5 227.5
q21 133 142 227.5t292 105.5l24 151h132l-24 -152q117 -11 213 -77.5t111 -141.5l-117 -47q-46 79 -117 116t-177 37q-151 0 -242 -60t-107 -162q-16 -100 47.5 -160t220.5 -113q9 -3 37.5 -13t34.5 -12t27 -10t28 -11t24 -10t28 -12.5l27 -13.5l34 -17q68 -35 105 -75
q39 -41 60 -103.5t10 -132.5q-25 -159 -153.5 -248.5t-310.5 -101.5l-23 -146h-132z" />
    <glyph glyph-name="percent" unicode="%" horiz-adv-x="2014" 
d="M339 -42l1388 1392h156l-1388 -1392h-156zM301 1037q24 147 153 242t296 95q170 0 267 -94t73 -243q-24 -148 -152.5 -241.5t-294.5 -93.5q-164 0 -264.5 93t-77.5 242zM427 1037q-15 -98 52.5 -160t181.5 -62t199 61.5t101 160.5q16 100 -48.5 162.5t-180.5 62.5
t-202.5 -63t-102.5 -162zM1130 272q23 147 151.5 241.5t296.5 94.5t266.5 -94.5t75.5 -241.5q-24 -148 -153.5 -243.5t-295.5 -95.5q-107 0 -190 42t-125 120.5t-26 176.5zM1260 272q-16 -101 50 -163.5t179 -62.5t201 63.5t103 162.5q16 100 -49.5 161t-183.5 61t-201 -61
t-99 -161z" />
    <glyph glyph-name="ampersand" unicode="&#x26;" horiz-adv-x="1204" 
d="M986 160q-188 -185 -457 -185q-206 0 -313 99t-81 266q21 132 117.5 235t305.5 215q-81 119 -110 190.5t-17 140.5q19 119 107 191.5t216 72.5q122 0 186 -69t45 -183q-16 -102 -86.5 -184.5t-219.5 -175.5l326 -481q89 125 119 319h83q-35 -218 -161 -384l155 -227h-105
zM222 340q-22 -134 62.5 -210t256.5 -76q252 0 406 165l-348 511q-191 -100 -275 -187t-102 -203zM518 1121q-8 -51 14.5 -108.5t100.5 -170.5l7 -10q121 70 184 143t76 158q13 80 -30 126.5t-130 46.5q-89 0 -149 -50t-73 -135z" />
    <glyph glyph-name="quotesingle" unicode="'" horiz-adv-x="791" 
d="M346 963l298 557h194l-363 -557h-129z" />
    <glyph glyph-name="parenleft" unicode="(" horiz-adv-x="766" 
d="M526 -328q-322 391 -235 949q90 565 536 951l101 -52q-104 -98 -167 -171.5t-137 -188.5q-149 -221 -200 -539q-52 -336 42 -569q45 -114 71.5 -162.5t86.5 -137.5q4 -5 6.5 -8.5t6 -8.5t6.5 -10z" />
    <glyph glyph-name="parenright" unicode=")" horiz-adv-x="765" 
d="M38 -277q57 61 68 71q5 6 20 21.5t19.5 20t17 18t18.5 20.5t18 20.5t21.5 25.5t22.5 28.5t28 35.5q66 86 115 173q48 91 91.5 215.5t62.5 248.5q50 309 -27 535q-39 114 -80.5 190t-112.5 174l117 52q324 -387 234 -951q-87 -552 -535 -949z" />
    <glyph glyph-name="asterisk" unicode="*" horiz-adv-x="1263" 
d="M992 218l-275 336l-372 -332l-104 74l383 324l-416 130l70 114l408 -138l44 366h149l-71 -366l451 138l34 -114l-459 -130l280 -322z" />
    <glyph glyph-name="plus" unicode="+" horiz-adv-x="1420" 
d="M674 179l65 407h-472l18 115h472l62 391h128l-62 -391h470l-18 -115h-470l-65 -407h-128z" />
    <glyph glyph-name="comma" unicode="," horiz-adv-x="691" 
d="M48 -372l300 555h192l-364 -555h-128z" />
    <glyph glyph-name="hyphen" unicode="-" horiz-adv-x="1236" 
d="M214 586l18 115h994l-18 -115h-994z" />
    <glyph glyph-name="period" unicode="." horiz-adv-x="541" 
d="M144 -34l34 217h242l-34 -217h-242z" />
    <glyph glyph-name="slash" unicode="/" horiz-adv-x="817" 
d="M-3 -154l892 1600h137l-892 -1600h-137z" />
    <glyph glyph-name="zero" unicode="0" horiz-adv-x="1169" 
d="M346 678q-46 -291 16.5 -453t236.5 -162q92 0 169 49.5t130 138.5q99 170 139 427q47 293 -15.5 455t-232.5 162q-169 0 -282.5 -160.5t-160.5 -456.5zM206 678q57 354 216.5 534t381.5 180q231 0 329.5 -183.5t43.5 -530.5q-48 -304 -192 -502q-73 -100 -176 -155
t-225 -55q-224 0 -328 185t-50 527z" />
    <glyph glyph-name="one" unicode="1" horiz-adv-x="757" 
d="M450 0l191 1205l-400 -194l22 135l438 214h106l-215 -1360h-142z" />
    <glyph glyph-name="two" unicode="2" horiz-adv-x="1192" 
d="M302 1063q155 329 529 329q202 0 312.5 -99.5t83.5 -272.5q-33 -203 -311 -402q-307 -220 -419 -314q-122 -103 -180 -208h763l-15 -96h-925q10 58 35 107q6 13 16 28t18.5 27t24.5 30.5t24 28t28 30.5t25 26l26 26t21 22q36 36 129.5 108t156.5 117l168 121
q249 179 276 351q21 130 -53.5 201.5t-222.5 71.5q-136 0 -237 -69t-157 -192z" />
    <glyph glyph-name="three" unicode="3" horiz-adv-x="1253" 
d="M288 260q92 -197 337 -197q107 0 196 35t149.5 106t76.5 170q15 92 -28 160.5t-126.5 102.5t-194.5 34q-74 0 -122 -3l15 98q39 -4 113 -4q152 0 258.5 75t126.5 200q18 112 -58.5 185t-214.5 73q-213 0 -354 -209l-111 34q75 124 198.5 198t286.5 74q203 0 310 -97.5
t83 -248.5q-19 -117 -105.5 -201.5t-208.5 -120.5q136 -29 215.5 -120t57.5 -230q-30 -192 -186.5 -300t-390.5 -108q-168 0 -282 69.5t-161 185.5z" />
    <glyph glyph-name="four" unicode="4" horiz-adv-x="1300" 
d="M149 318l15 94l889 967h126l-152 -963h242l-16 -98h-242l-53 -338h-135l53 338h-727zM299 416h593l91 573q13 88 42 219h-8l-168 -192z" />
    <glyph glyph-name="five" unicode="5" horiz-adv-x="1176" 
d="M281 246q39 -84 120 -133.5t187 -49.5q168 0 279 94t136 244q24 152 -61.5 246.5t-248.5 94.5q-81 0 -174 -33t-164 -88l-76 28l193 709h728l-15 -96h-604l-144 -504q145 80 318 80q203 0 310.5 -119t76.5 -316q-30 -190 -182 -313.5t-387 -123.5q-307 0 -409 241z" />
    <glyph glyph-name="six" unicode="6" horiz-adv-x="1179" 
d="M315 419q-24 -155 57 -255.5t236 -100.5q152 0 265.5 100.5t137.5 255.5q25 159 -57 259t-237 100q-149 0 -263 -102.5t-139 -256.5zM194 602q49 305 203 532q80 120 205 189t272 69q268 0 370 -232l-115 -34q-87 169 -270 169q-100 0 -183 -44.5t-141 -125.5
q-100 -140 -154 -319q-24 -75 -47 -168q60 109 171.5 173.5t249.5 64.5q203 0 313.5 -129t79.5 -325q-31 -197 -182 -326.5t-365 -129.5q-221 0 -333 130q-131 149 -74 506z" />
    <glyph glyph-name="seven" unicode="7" horiz-adv-x="1113" 
d="M1081 1259h-809l16 99h965l-13 -81q-280 -325 -471.5 -631t-340.5 -666h-141q149 360 333 652t461 627z" />
    <glyph glyph-name="eight" unicode="8" horiz-adv-x="1208" 
d="M453 1034q-18 -113 62 -186t211 -73t233 74.5t120 184.5q18 114 -60 187.5t-211 73.5q-138 0 -238 -74.5t-117 -186.5zM156 359q22 141 124.5 236t249.5 133q-250 87 -214 312q24 149 168 250.5t339 101.5q192 0 305 -101t90 -251q-19 -116 -105 -197t-208 -115
q139 -38 211 -133.5t49 -238.5q-27 -170 -186.5 -280t-380.5 -110q-218 0 -344 109t-98 284zM296 366q-21 -131 70.5 -217t246.5 -86q157 0 277.5 87t140.5 216q21 132 -72 222t-249 90q-152 0 -272.5 -89.5t-141.5 -222.5z" />
    <glyph glyph-name="nine" unicode="9" horiz-adv-x="1173" 
d="M388 941q-25 -156 60.5 -255.5t229.5 -99.5t261 101.5t141 250.5q23 151 -59 254t-231 103t-263 -100t-139 -254zM153 206l120 36q33 -81 107 -130t175 -49q107 0 194.5 50t148.5 144q111 176 154 445q-57 -90 -166.5 -151t-238.5 -61q-95 0 -176 32t-136 89.5t-79 142.5
t-8 184q31 197 190 325.5t367 128.5q177 0 284.5 -95t123.5 -251q11 -110 -19 -297q-124 -783 -658 -783q-143 0 -244.5 68t-138.5 172z" />
    <glyph glyph-name="colon" unicode=":" horiz-adv-x="541" 
d="M281 832l34 218h242l-34 -218h-242zM172 144l34 218h242l-34 -218h-242z" />
    <glyph glyph-name="semicolon" unicode=";" horiz-adv-x="661" 
d="M76 -194l300 556h192l-364 -556h-128zM376 832l34 218h240l-34 -218h-240z" />
    <glyph glyph-name="less" unicode="&#x3c;" horiz-adv-x="1344" 
d="M1069 -10l-786 596l13 85l976 599l69 -91l-898 -550l724 -549z" />
    <glyph glyph-name="equal" unicode="=" horiz-adv-x="1437" 
d="M340 752l18 114h994l-18 -114h-994zM288 423l18 113h994l-18 -113h-994z" />
    <glyph glyph-name="greater" unicode="&#x3e;" horiz-adv-x="1342" 
d="M266 -10l-63 90l894 549l-720 549l92 92l789 -599l-13 -85z" />
    <glyph glyph-name="question" unicode="?" horiz-adv-x="1003" 
d="M474 388q16 95 68.5 174t126.5 133q39 30 85 61l44 31q137 102 156 214q19 123 -44.5 191.5t-203.5 68.5q-113 0 -202.5 -56t-167.5 -174l-111 42q80 141 216 221t283 80q195 0 292 -101t71 -269q-13 -84 -65.5 -157t-126.5 -129l-126 -92q-143 -106 -164 -240l-10 -62
h-131zM347 -48l35 217h244l-35 -217h-244z" />
    <glyph glyph-name="at" unicode="@" horiz-adv-x="1649" 
d="M1050 704q105 15 137 45q35 234 -201 234q-112 0 -184 -51t-86 -142h-81q19 122 119 194.5t245 72.5q141 0 216 -73.5t51 -226.5l-63 -395q-9 -58 18 -89t87 -31q103 0 184 107t109 280q31 197 -31 353t-203 243.5t-337 87.5q-186 0 -356.5 -93.5t-286.5 -255.5
t-147 -355q-23 -148 8.5 -279.5t107 -226.5t192.5 -150t258 -55q253 0 464 162l37 -56q-239 -179 -513 -179q-210 0 -367 103t-227.5 283t-36.5 398q34 216 162 394.5t317.5 281t399.5 102.5q164 0 296 -56.5t215.5 -156t118 -240.5t8.5 -305q-32 -195 -141 -325.5
t-242 -130.5q-96 0 -142 45t-36 130q-122 -167 -333 -167q-129 0 -191.5 65.5t-44.5 173.5q18 113 108.5 180t239.5 86zM626 422q-13 -83 37 -126.5t145 -43.5q140 0 235 95t120 252l11 70q-57 -23 -281 -46q-121 -15 -188 -67.5t-79 -133.5z" />
    <glyph glyph-name="A" unicode="A" horiz-adv-x="1413" 
d="M469 505h635l-191 747h-13zM25 0l813 1358h169l382 -1358h-151l-104 410h-720l-240 -410h-149z" />
    <glyph glyph-name="B" unicode="B" horiz-adv-x="1358" 
d="M810 0h-645l215 1358h573q220 0 324.5 -91.5t79.5 -252.5q-17 -111 -95.5 -189.5t-194.5 -113.5q127 -30 199.5 -122t52.5 -214q-25 -162 -165.5 -268.5t-343.5 -106.5zM316 100h478q151 0 259 75t127 197q19 119 -68.5 198.5t-242.5 79.5h-466zM419 749h411
q155 0 262.5 66.5t127.5 189.5q19 116 -56.5 185t-243.5 69h-421z" />
    <glyph glyph-name="C" unicode="C" horiz-adv-x="1387" 
d="M206 678q53 329 265.5 521.5t510.5 192.5q172 0 286.5 -81t160.5 -205l-121 -37q-100 223 -344 223q-238 0 -407 -167.5t-213 -446.5q-44 -280 73 -445t353 -165q141 0 258 66t195 174l116 -34q-98 -141 -246 -224.5t-336 -83.5q-298 0 -450.5 192t-100.5 520z" />
    <glyph glyph-name="D" unicode="D" horiz-adv-x="1404" 
d="M577 0h-412l215 1358h414q342 0 506 -174.5t112 -505.5q-51 -323 -269.5 -500.5t-565.5 -177.5zM316 100h249q296 0 478 142.5t228 435.5q47 297 -88 439t-430 142h-254z" />
    <glyph glyph-name="E" unicode="E" horiz-adv-x="1265" 
d="M1158 0h-993l215 1358h969l-16 -99h-834l-80 -507h756l-15 -98h-756l-88 -554h858z" />
    <glyph glyph-name="F" unicode="F" horiz-adv-x="1211" 
d="M300 0h-135l215 1358h937l-16 -99h-802l-83 -525h723l-15 -98h-723z" />
    <glyph glyph-name="G" unicode="G" horiz-adv-x="1460" 
d="M206 678q52 322 264.5 518t525.5 196q182 0 299 -78t169 -199l-121 -36q-117 213 -362 213q-252 0 -422 -167t-215 -447q-45 -282 74 -446t362 -164q212 0 350 121.5t166 302.5l21 131h-468l15 99h601l-114 -722h-101l26 226q-165 -260 -516 -260q-200 0 -337.5 86.5
t-194 248t-22.5 377.5z" />
    <glyph glyph-name="H" unicode="H" horiz-adv-x="1429" 
d="M300 0h-135l215 1358h135l-96 -609h828l96 609h136l-215 -1358h-136l103 650h-828z" />
    <glyph glyph-name="I" unicode="I" horiz-adv-x="466" 
d="M300 0h-135l215 1358h135z" />
    <glyph glyph-name="J" unicode="J" horiz-adv-x="1016" 
d="M221 244q22 -83 84.5 -130t152.5 -46q268 4 319 324l153 966h135l-156 -987q-32 -200 -149.5 -302.5t-313.5 -102.5q-290 0 -353 238z" />
    <glyph glyph-name="K" unicode="K" horiz-adv-x="1312" 
d="M300 0h-135l215 1358h135l-120 -757h5l879 757h183l-689 -585l512 -773h-171l-446 688l-300 -256z" />
    <glyph glyph-name="L" unicode="L" horiz-adv-x="1140" 
d="M1064 0h-899l215 1358h135l-199 -1258h764z" />
    <glyph glyph-name="M" unicode="M" horiz-adv-x="1759" 
d="M300 0h-135l215 1358h179l355 -1102h8l704 1102h182l-215 -1358h-136l189 1191l-690 -1081h-123l-345 1079z" />
    <glyph glyph-name="N" unicode="N" horiz-adv-x="1442" 
d="M300 0h-135l215 1358h159l628 -1175l186 1175h138l-215 -1358h-158l-631 1180z" />
    <glyph glyph-name="O" unicode="O" 
d="M206 678q51 322 256.5 518t498.5 196q295 0 437.5 -196t91.5 -520t-255.5 -517t-498.5 -193q-295 0 -438 194t-92 518zM344 678q-44 -278 66 -444t342 -166q231 0 393.5 164t206.5 444q45 284 -62.5 450t-343.5 166q-231 0 -394 -166t-208 -448z" />
    <glyph glyph-name="P" unicode="P" horiz-adv-x="1333" 
d="M300 0h-135l215 1358h591q222 0 338 -107t87 -284q-28 -181 -179.5 -287t-369.5 -106h-456zM406 672h429q177 0 287 75.5t133 219.5q23 140 -63 216t-268 76h-425z" />
    <glyph glyph-name="Q" unicode="Q" 
d="M206 676q52 325 258 520.5t497 195.5q293 0 436.5 -196.5t92.5 -519.5q-55 -342 -276 -534l163 -168l-102 -68l-158 164q-171 -104 -381 -104q-195 0 -327 88t-184.5 249t-18.5 373zM344 676q-44 -278 66.5 -443t341.5 -165q158 0 289 81l-256 263l101 70l249 -258
q172 166 217 452t-65.5 451t-340.5 165q-231 0 -394 -166t-208 -450z" />
    <glyph glyph-name="R" unicode="R" horiz-adv-x="1344" 
d="M162 -16l217 1367h599q222 0 333.5 -106t85.5 -272q-19 -119 -92.5 -203.5t-174.5 -126.5q82 -47 109 -128.5t17 -194.5l-3 -31q0 -4 -0.5 -10.5t-0.5 -9.5l-2 -25q-7 -58 -6.5 -117t16.5 -91l41 -52h-165q-20 54 -22.5 122.5t6.5 207.5q7 65 -2.5 113t-40 85.5
t-90.5 56.5t-150 19h-447l-96 -604h-132zM408 698h465q169 0 269.5 71.5t120.5 201.5q20 125 -60.5 198t-262.5 73h-446z" />
    <glyph glyph-name="S" unicode="S" horiz-adv-x="1307" 
d="M645 668q-92 31 -161 63q-68 31 -116 74q-42 40 -65 103t-12 134q27 167 187 264t405 97q181 0 312.5 -75.5t176.5 -187.5l-128 -42q-48 87 -147.5 137.5t-236.5 50.5q-194 0 -312.5 -65t-136.5 -179q-16 -101 83.5 -167.5t326.5 -131.5q164 -46 267 -94q69 -32 115 -74
q42 -41 65.5 -103.5t12.5 -133.5q-30 -187 -196.5 -293t-430.5 -106q-197 0 -337 77t-211 209l139 50q46 -100 161.5 -160t270.5 -60q202 0 331.5 70.5t151.5 210.5l1 2q16 102 -84 168t-327 130z" />
    <glyph glyph-name="T" unicode="T" horiz-adv-x="1263" 
d="M764 1259h-490l16 99h1113l-16 -99h-487l-199 -1259h-136z" />
    <glyph glyph-name="U" unicode="U" horiz-adv-x="1431" 
d="M241 482l139 876h134l-138 -870q-32 -205 62.5 -312.5t287.5 -107.5t321 108.5t160 311.5l138 870h136l-139 -876q-38 -245 -202.5 -380.5t-429.5 -135.5q-262 0 -385 134t-84 382z" />
    <glyph glyph-name="V" unicode="V" horiz-adv-x="1300" 
d="M565 0l-325 1358h149l273 -1240h6l670 1240h153l-761 -1358h-165z" />
    <glyph glyph-name="W" unicode="W" horiz-adv-x="1813" 
d="M400 0l-165 1358h150l112 -1227h9l538 1227h152l154 -1227h6l502 1227h150l-593 -1358h-160l-152 1213h-6l-536 -1213h-161z" />
    <glyph glyph-name="X" unicode="X" horiz-adv-x="1272" 
d="M198 0h-169l632 698l-391 660h170l317 -570h7l500 570h169l-599 -660l411 -698h-167l-343 606h-7z" />
    <glyph glyph-name="Y" unicode="Y" horiz-adv-x="1311" 
d="M679 560l-438 798h163l354 -692h5l573 692h164l-685 -798l-89 -560h-136z" />
    <glyph glyph-name="Z" unicode="Z" horiz-adv-x="1304" 
d="M103 0l14 89l1096 1170h-843l16 99h1009l-14 -88l-1101 -1170h940l-16 -100h-1101z" />
    <glyph glyph-name="bracketleft" unicode="[" horiz-adv-x="719" 
d="M160 -277l285 1801h413l-17 -112h-285l-250 -1578h285l-18 -111h-413z" />
    <glyph glyph-name="backslash" unicode="\" horiz-adv-x="781" 
d="M603 -154l-353 1600h134l352 -1600h-133z" />
    <glyph glyph-name="bracketright" unicode="]" horiz-adv-x="723" 
d="M58 -277l18 111h286l250 1578h-286l17 112h417l-285 -1801h-417z" />
    <glyph glyph-name="asciicircum" unicode="^" horiz-adv-x="1099" 
d="M192 864l543 628h100l347 -628h-154l-264 487l-57 -63l-361 -424h-154z" />
    <glyph glyph-name="underscore" unicode="_" horiz-adv-x="830" 
d="M-63 -176l18 115h899l-18 -115h-899z" />
    <glyph glyph-name="a" unicode="a" horiz-adv-x="1147" 
d="M253 240q-12 -75 55 -127t192 -52q162 0 290 90.5t149 226.5l24 154q-106 -27 -329 -55q-184 -26 -275 -83t-106 -154zM120 233q21 134 149.5 215.5t379.5 114.5q253 36 329 60l8 55q17 104 -56.5 169t-221.5 65q-101 0 -202.5 -41.5t-179.5 -112.5l-76 59
q92 85 216.5 136t254.5 51q227 0 321 -97t67 -271l-101 -636h-127l28 176q-52 -88 -175 -149t-267 -61q-180 0 -273 74t-74 193z" />
    <glyph glyph-name="b" unicode="b" horiz-adv-x="1178" 
d="M268 0h-129l224 1412h129l-102 -639q46 91 157.5 161t241.5 70q210 0 317 -139.5t69 -376.5q-26 -166 -111 -286.5t-198 -178t-241 -57.5q-124 0 -211.5 64t-115.5 162zM341 488q-30 -192 51 -309.5t230 -117.5q158 0 274.5 115.5t147.5 311.5q31 191 -48.5 306.5
t-238.5 115.5q-146 0 -266 -116.5t-150 -305.5z" />
    <glyph glyph-name="c" unicode="c" horiz-adv-x="1078" 
d="M158 486q37 233 193.5 375.5t384.5 142.5q141 0 237 -68.5t119 -171.5l-116 -28q-25 77 -93.5 125.5t-161.5 48.5q-163 0 -281.5 -119.5t-148.5 -304.5q-30 -192 52.5 -308.5t243.5 -116.5q98 0 193.5 54.5t149.5 132.5l105 -31q-64 -108 -190.5 -179.5t-272.5 -71.5
q-223 0 -337 142.5t-77 377.5z" />
    <glyph glyph-name="d" unicode="d" horiz-adv-x="1180" 
d="M158 488q38 237 190.5 376.5t361.5 139.5q124 0 211 -66t114 -163l101 637h129l-224 -1412h-125l31 194q-62 -102 -168.5 -165t-232.5 -63q-95 0 -173.5 34t-134 97.5t-78 164.5t-2.5 226zM291 488q-31 -194 48.5 -310.5t239.5 -116.5q149 0 266 116.5t148 310.5
q30 189 -52.5 305.5t-230.5 116.5q-158 0 -273 -115.5t-146 -306.5z" />
    <glyph glyph-name="e" unicode="e" horiz-adv-x="1151" 
d="M159 492q36 226 198.5 369t386.5 143q149 0 251 -64.5t143 -174.5t19 -249q-9 -43 -15 -67h-857q-12 -80 2.5 -150t53.5 -123t106.5 -84t154.5 -31q112 0 211.5 48t157.5 125l108 -30q-76 -109 -203 -173.5t-289 -64.5q-231 0 -348.5 145t-79.5 381zM302 536h725
q25 159 -56.5 266.5t-241.5 107.5q-162 0 -280.5 -109t-146.5 -265z" />
    <glyph glyph-name="f" unicode="f" horiz-adv-x="689" 
d="M391 876h-203l15 95h203l26 165q22 138 113.5 207t237.5 69h130l-15 -94h-114q-191 0 -221 -197l-24 -150h275l-15 -95h-275l-139 -876h-133z" />
    <glyph glyph-name="g" unicode="g" horiz-adv-x="1160" 
d="M294 503q-29 -180 48 -292.5t229 -112.5q157 0 264 108.5t137 299.5q29 185 -45 294.5t-224 109.5q-157 0 -269 -113.5t-140 -293.5zM106 -271l102 53q114 -131 294 -131q165 0 266.5 105.5t132.5 297.5l24 157q-59 -95 -156.5 -152t-221.5 -57q-211 0 -316.5 139
t-69.5 362q35 225 184 363t356 138q129 0 208.5 -60.5t107.5 -153.5l29 181h128l-138 -871q-44 -277 -176 -409.5t-375 -132.5q-263 0 -379 171z" />
    <glyph glyph-name="h" unicode="h" horiz-adv-x="1141" 
d="M268 0h-129l224 1412h129l-98 -614h4q55 86 167 146t236 60q359 0 301 -375l-100 -629h-129l96 608q48 302 -210 302q-136 0 -257 -98.5t-142 -229.5z" />
    <glyph glyph-name="i" unicode="i" horiz-adv-x="400" 
d="M484 1208h-186l27 171h186zM137 0l154 971h130l-154 -971h-130z" />
    <glyph glyph-name="j" unicode="j" horiz-adv-x="465" 
d="M548 1208h-192l27 171h192zM-124 -421l15 93h53q203 0 240 238l168 1061h128l-170 -1069q-25 -157 -118 -240t-242 -83h-74z" />
    <glyph glyph-name="k" unicode="k" horiz-adv-x="1038" 
d="M271 0h-132l224 1412h132l-153 -963l615 522h174l-460 -385l357 -586h-161l-298 505l-251 -209z" />
    <glyph glyph-name="l" unicode="l" horiz-adv-x="407" 
d="M268 0h-129l224 1412h129z" />
    <glyph glyph-name="m" unicode="m" horiz-adv-x="1733" 
d="M272 0h-133l154 971h129l-25 -159h3q45 79 142 135.5t220 56.5q227 0 260 -231q23 53 116 132q52 44 131 71.5t165 27.5q165 0 227 -94t33 -281l-100 -629h-130l98 618q24 151 -13.5 221.5t-161.5 70.5q-130 0 -234 -93.5t-126 -236.5l-92 -580h-132l98 618
q46 292 -180 292q-136 0 -234.5 -89.5t-121.5 -230.5z" />
    <glyph glyph-name="n" unicode="n" horiz-adv-x="1145" 
d="M272 0h-133l154 971h129l-29 -183h3q38 80 156 148t255 68q79 0 138.5 -20t103.5 -64t57 -116t0 -175l-100 -629h-133l96 608q48 302 -208 302q-137 0 -256 -97t-140 -227z" />
    <glyph glyph-name="o" unicode="o" horiz-adv-x="1161" 
d="M291 486q-30 -190 54.5 -307.5t245.5 -117.5q160 0 283.5 118.5t153.5 306.5q30 191 -56.5 307.5t-246.5 116.5q-159 0 -281.5 -116.5t-152.5 -307.5zM158 486q36 229 193 373.5t389 144.5q230 0 343.5 -145t77.5 -373q-21 -133 -90 -247q-73 -120 -204 -196.5
t-291 -76.5q-168 0 -272 80q-192 148 -146 440z" />
    <glyph glyph-name="p" unicode="p" horiz-adv-x="1178" 
d="M345 488q-30 -193 45 -310t233 -117q156 0 273 116t148 311q30 187 -47 304.5t-240 117.5q-150 0 -266.5 -119.5t-145.5 -302.5zM70 -434l223 1405h128l-32 -198q63 106 169.5 168.5t230.5 62.5q208 0 315.5 -141.5t70.5 -374.5q-38 -242 -193 -382t-357 -140
q-128 0 -212.5 61t-114.5 163l-99 -624h-129z" />
    <glyph glyph-name="q" unicode="q" horiz-adv-x="1180" 
d="M291 488q-30 -193 50 -310t235 -117q156 0 269.5 118t143.5 309q30 185 -49 303.5t-230 118.5q-164 0 -276.5 -117t-142.5 -305zM158 488q37 233 190 374.5t362 141.5q119 0 206.5 -61.5t122.5 -167.5l31 196h125l-223 -1405h-129l99 626q-65 -102 -168.5 -164
t-227.5 -62q-203 0 -314.5 139t-73.5 383z" />
    <glyph glyph-name="r" unicode="r" horiz-adv-x="771" 
d="M272 0h-133l154 971h126l-25 -154q50 78 143 132.5t213 54.5q98 0 158 -27l-17 -103q-77 28 -157 28q-147 0 -248 -95t-126 -251z" />
    <glyph glyph-name="s" unicode="s" horiz-adv-x="1053" 
d="M500 469q-68 22 -114 43q-58 25 -94 54q-35 30 -55 77.5t-12 100.5q19 124 147.5 196.5t323.5 72.5q149 0 257 -59.5t142 -143.5l-120 -38q-35 64 -112 99.5t-187 35.5q-149 0 -236.5 -43t-99.5 -120q-4 -28 7 -51.5t35 -43t66 -38.5t90.5 -34.5t117.5 -34.5
q142 -37 212 -68q59 -26 94 -54q35 -30 54.5 -77t11.5 -101q-22 -139 -154.5 -217.5t-343.5 -78.5q-162 0 -277 60t-171 161l130 43q36 -73 125.5 -116t212.5 -43q156 0 252.5 47t111.5 142v2q11 67 -65 111t-255 89z" />
    <glyph glyph-name="t" unicode="t" horiz-adv-x="739" 
d="M391 876h-207l15 95h207l50 319h133l-50 -319h300l-15 -95h-300l-95 -601q-16 -96 20.5 -138.5t132.5 -40.5l119 2l-16 -98h-135q-146 -2 -211.5 64t-44.5 200z" />
    <glyph glyph-name="u" unicode="u" horiz-adv-x="1137" 
d="M193 338l100 633h130l-96 -605q-48 -305 219 -305q155 0 260 102t129 253l88 555h129l-154 -971h-128l28 174q-24 -60 -116 -127q-109 -81 -284 -81q-169 0 -251 98t-54 274z" />
    <glyph glyph-name="v" unicode="v" horiz-adv-x="1107" 
d="M472 0l-269 971h148l218 -873h3l489 873h150l-578 -971h-161z" />
    <glyph glyph-name="w" unicode="w" horiz-adv-x="1580" 
d="M365 0l-162 971h147l110 -867h9l395 867h160l120 -867h6l386 867h148l-471 -971h-166l-121 850h-5l-388 -850h-168z" />
    <glyph glyph-name="x" unicode="x" horiz-adv-x="1109" 
d="M225 0h-156l484 505l-310 466h157l244 -383h6l361 383h156l-455 -466l327 -505h-155l-261 419h-6z" />
    <glyph glyph-name="y" unicode="y" horiz-adv-x="1097" 
d="M486 -26l-283 997h152l215 -857h6l475 857h150l-671 -1147q-80 -138 -168.5 -198t-199.5 -60h-61l15 94h38q80 0 144.5 45.5t122.5 150.5z" />
    <glyph glyph-name="z" unicode="z" horiz-adv-x="1055" 
d="M972 0h-867l12 77l806 799h-622l15 95h791l-12 -75l-812 -800h704z" />
    <glyph glyph-name="braceleft" unicode="{" horiz-adv-x="879" 
d="M556 -275q-96 0 -154.5 62.5t-40.5 174.5l54 340q40 254 -122 254h-84l18 112h84q84 0 132.5 60t70.5 198l57 362q17 108 94 172t172 64h181l-17 -112h-165q-115 0 -137 -138l-57 -361q-34 -211 -169 -300q108 -86 75 -289l-53 -334q-12 -81 12 -117.5t83 -36.5h161
l-18 -111h-177z" />
    <glyph glyph-name="braceright" unicode="}" horiz-adv-x="878" 
d="M58 -275l18 111h160q60 0 96 36.5t48 117.5l55 343q15 92 58 165.5t105 114.5q-104 89 -73 293l59 368q22 138 -94 138h-164l17 112h178q98 0 154.5 -63.5t39.5 -172.5l-57 -362q-22 -133 8 -195.5t113 -62.5h83l-18 -112h-83q-162 0 -200 -243l-56 -351
q-18 -112 -96 -174.5t-177 -62.5h-174z" />
    <glyph glyph-name="asciitilde" unicode="~" horiz-adv-x="1576" 
d="M1118 448q-77 0 -139.5 26t-98.5 68q-8 8 -68 70q-73 76 -173 76q-81 0 -155 -46t-150 -145l-103 53q179 250 427 250q147 0 240 -93l46 -46q2 -2 6.5 -8t8.5 -9l8 -8q74 -76 169 -76q94 0 168 60q47 39 69 61.5t71 80.5l100 -55q-100 -124 -200 -191.5t-226 -67.5z" />
    <glyph glyph-name="exclamdown" unicode="&#xa1;" horiz-adv-x="571" 
d="M144 -423l172 999h123l-144 -999h-151zM282 749l34 216h244l-34 -216h-244z" />
    <glyph glyph-name="cent" unicode="&#xa2;" horiz-adv-x="1082" 
d="M512 -64q-196 14 -295 157t-63 369q35 217 176.5 363.5t347.5 160.5l23 144h130l-23 -147q117 -19 192 -86.5t89 -164.5l-125 -35q-17 81 -85 131t-169 50q-166 0 -281.5 -113.5t-145.5 -302.5q-30 -190 51 -304t244 -114q106 0 201 55t146 137l111 -40
q-63 -97 -167 -167.5t-227 -89.5l-23 -150h-130z" />
    <glyph glyph-name="sterling" unicode="&#xa3;" horiz-adv-x="1360" 
d="M877 -67q-70 0 -171 30q-99 27 -161 27q-144 0 -309 -36l-87 -18l-36 105q124 24 200.5 111.5t94.5 203.5l38 236h-241l18 114h241l48 306q28 176 151.5 269t311.5 93q136 0 228.5 -61.5t118.5 -154.5l-109 -50q-33 79 -93.5 116t-157.5 37q-279 0 -319 -252l-48 -303
h502l-18 -114h-502l-38 -236q-24 -155 -125 -264q98 14 161 14q81 0 175 -31q98 -27 149 -27q173 0 298 66l33 -107q-150 -74 -353 -74z" />
    <glyph glyph-name="currency" unicode="&#xa4;" horiz-adv-x="1398" 
d="M1053 340q-137 -81 -311 -81q-173 0 -282 82l-253 -178l-87 71l263 191q-72 93 -51 228q21 132 121 230l-200 180l106 81l201 -178q137 80 307 80q167 0 282 -84l252 182l82 -83l-255 -180q70 -101 49 -228q-20 -126 -123 -228l198 -189l-104 -75zM461 653
q-19 -120 64.5 -199.5t234.5 -79.5q150 0 259.5 79.5t128.5 199.5q20 121 -64.5 201t-234.5 80q-149 0 -258.5 -80t-129.5 -201z" />
    <glyph glyph-name="yen" unicode="&#xa5;" horiz-adv-x="1299" 
d="M582 -34l55 351h-428l17 109h428l20 125h-428l18 111h350l-399 678h161l298 -510l30 -51q12 -19 20 -36q28 -46 34 -58q8 9 17 17l18 21t17 19q28 33 76 84l459 514h164l-611 -678h341l-18 -111h-418l-20 -125h418l-17 -109h-418l-55 -351h-129z" />
    <glyph glyph-name="copyright" unicode="&#xa9;" horiz-adv-x="1619" 
d="M804 -27q-141 0 -257 53.5t-190.5 146t-106 222t-8.5 274.5q31 192 144.5 351t282 250t355.5 91q140 0 256 -53.5t191 -145t107 -220t9 -273.5q-31 -194 -144 -354t-282 -251t-357 -91zM295 669q-29 -183 27.5 -331.5t185 -233t303.5 -84.5t330.5 84.5t260 233
t133.5 331.5q21 136 -7.5 255.5t-97 205t-176 134.5t-238.5 49q-130 0 -253 -49.5t-218.5 -135t-162 -205t-87.5 -254.5zM587 663q27 170 139.5 275t265.5 105q103 0 171.5 -56.5t82.5 -153.5h-62q-11 76 -63.5 117.5t-136.5 41.5q-128 0 -222.5 -91.5t-117.5 -235.5
q-23 -143 40.5 -233t186.5 -90q86 0 155.5 40.5t109.5 114.5h57q-47 -95 -136 -151t-194 -56q-147 0 -224.5 104.5t-51.5 268.5z" />
    <glyph glyph-name="ordfeminine" unicode="&#xaa;" horiz-adv-x="770" 
d="M438 771q-130 0 -201 56t-56 149t93 153.5t176 78.5l112 17q134 17 210 40l1 3q11 71 -32 109t-141 38q-82 0 -150 -36t-85 -68l-25 -9l-81 48q50 74 151.5 123.5t206.5 49.5q152 0 224.5 -71t53.5 -187l-74 -472h-121l10 64q-121 -86 -272 -86zM119 586l17 111h719
l-17 -111h-719zM302 977q-7 -43 31.5 -70t123.5 -27q108 0 190 55.5t96 142.5l11 74q-53 -13 -172 -31q-44 -5 -113 -16q-67 -11 -113 -43.5t-54 -84.5z" />
    <glyph glyph-name="guillemotleft" unicode="&#xab;" horiz-adv-x="1037" 
d="M475 12l-289 436l430 432l96 -59l-370 -373l250 -375zM511 448l429 430l95 -61l-369 -369l249 -374l-115 -61z" />
    <glyph glyph-name="logicalnot" unicode="&#xac;" horiz-adv-x="1156" 
d="M964 196l59 373h-838l18 113h969l-77 -486h-131z" />
    <glyph glyph-name="uni00AD" unicode="&#xad;" horiz-adv-x="1191" 
d="M214 586l18 115h949l-18 -115h-949z" />
    <glyph glyph-name="registered" unicode="&#xae;" horiz-adv-x="871" 
d="M535 632q-154 0 -241.5 107t-62.5 265q25 157 147 264.5t275 107.5q155 0 241.5 -106.5t61.5 -265.5q-26 -160 -145.5 -266t-275.5 -106zM287 1004q-22 -136 51.5 -227t205.5 -91t234.5 91t124.5 227t-52.5 227t-206.5 91q-131 0 -233 -91t-124 -227zM429 801l66 416h145
q65 0 98.5 -34.5t23.5 -93.5q-13 -87 -102 -117l65 -171h-65l-58 158h-91l-25 -158h-57zM520 1014h86q83 0 94 74q12 72 -71 72h-86z" />
    <glyph glyph-name="plusminus" unicode="&#xb1;" horiz-adv-x="1404" 
d="M690 331l59 367h-456l18 116h456l58 367h128l-58 -367h456l-18 -116h-456l-59 -367h-128zM208 120l18 113h1027l-18 -113h-1027z" />
    <glyph glyph-name="uni00B2" unicode="&#xb2;" horiz-adv-x="651" 
d="M257 1334q92 200 313 200q115 0 179 -58.5t49 -156.5q-18 -113 -191 -241q-2 -1 -24.5 -18t-40.5 -29q-75 -55 -114 -86q-33 -25 -51 -42q-51 -49 -70 -81h412l-12 -76h-535q10 84 91 162q79 75 288 228q128 92 143 183q10 66 -26.5 102t-112.5 36q-141 0 -209 -144z" />
    <glyph glyph-name="uni00B3" unicode="&#xb3;" horiz-adv-x="651" 
d="M261 919q56 -113 182 -113q85 0 145 42t72 119q11 67 -41 109t-149 42q-24 0 -71 -3l12 79q49 -4 66 -4q87 0 140.5 38t63.5 103q9 60 -27.5 95.5t-110.5 35.5q-112 0 -187 -118l-82 26q96 166 284 166q115 0 178 -57t50 -143q-20 -119 -151 -176q148 -51 126 -193
q-18 -112 -107 -174.5t-223 -62.5q-203 0 -258 157z" />
    <glyph glyph-name="uni00B5" unicode="&#xb5;" horiz-adv-x="1150" 
d="M63 -468l226 1426h133l-100 -629q-21 -135 32.5 -210t187.5 -75q165 0 273.5 97.5t132.5 248.5l90 568h129l-157 -992h-127l18 114q-68 -66 -168 -106.5t-217 -40.5q-161 0 -243 87l-77 -488h-133z" />
    <glyph glyph-name="periodcentered" unicode="&#xb7;" horiz-adv-x="542" 
d="M231 516l34 218h243l-34 -218h-243z" />
    <glyph glyph-name="uni00B9" unicode="&#xb9;" horiz-adv-x="709" 
d="M446 746l108 669l-221 -106l14 89l240 116h70l-122 -768h-89z" />
    <glyph glyph-name="ordmasculine" unicode="&#xba;" horiz-adv-x="770" 
d="M506 771q-109 0 -182.5 52t-100.5 137t-11 188q26 165 138 270t275 105q160 0 241.5 -105.5t55.5 -269.5q-26 -161 -139.5 -269t-276.5 -108zM119 586l17 111h719l-17 -111h-719zM337 1148q-20 -123 29.5 -195.5t156.5 -72.5t181.5 73t94.5 195q19 122 -32.5 194.5
t-158.5 72.5q-104 0 -178 -72.5t-93 -194.5z" />
    <glyph glyph-name="guillemotright" unicode="&#xbb;" horiz-adv-x="1037" 
d="M558 12l-98 61l367 375l-254 373l116 59l294 -432zM138 76l363 372l-251 369l115 61l294 -430l-428 -436z" />
    <glyph glyph-name="questiondown" unicode="&#xbf;" horiz-adv-x="1004" 
d="M427 -454q-193 0 -292 102t-73 269q25 161 194 285q7 4 19 13l16 12q16 11 29 21q52 37 54 38q4 3 11 8q138 101 160 240l9 62h131l-10 -64q-14 -93 -68.5 -172t-128.5 -134l-38 -29q-4 -3 -89 -63q-139 -98 -157 -215q-20 -123 44 -191t204 -68q114 0 205 56t168 174
l110 -44q-85 -144 -217 -222t-281 -78zM522 750l34 215h242l-34 -215h-242z" />
    <glyph glyph-name="Agrave" unicode="&#xc0;" horiz-adv-x="1413" 
d="M927 1511l-250 317h181l192 -317h-123zM25 0l813 1358h169l382 -1358h-151l-104 410h-720l-240 -410h-149zM469 505h635l-191 747h-13z" />
    <glyph glyph-name="Aacute" unicode="&#xc1;" horiz-adv-x="1413" 
d="M927 1511h-118l292 317h182zM25 0l813 1358h169l382 -1358h-151l-104 410h-720l-240 -410h-149zM469 505h635l-191 747h-13z" />
    <glyph glyph-name="Acircumflex" unicode="&#xc2;" horiz-adv-x="1413" 
d="M684 1511h-143l393 299h120l302 -299h-145l-229 227zM25 0l813 1358h169l382 -1358h-151l-104 410h-720l-240 -410h-149zM469 505h635l-191 747h-13z" />
    <glyph glyph-name="Atilde" unicode="&#xc3;" horiz-adv-x="1413" 
d="M516 1630q114 164 289 164q80 0 170 -63q91 -63 138 -63q110 0 198 121l75 -47q-124 -162 -285 -162q-78 0 -166 64q-86 64 -141 64q-58 0 -112 -34.5t-91 -89.5zM25 0l813 1358h169l382 -1358h-151l-104 410h-720l-240 -410h-149zM469 505h635l-191 747h-13z" />
    <glyph glyph-name="Adieresis" unicode="&#xc4;" horiz-adv-x="1413" 
d="M834 1584h-196l25 161h196zM25 0l813 1358h169l382 -1358h-151l-104 410h-720l-240 -410h-149zM469 505h635l-191 747h-13zM1073 1584l25 161h196l-25 -161h-196z" />
    <glyph glyph-name="Aring" unicode="&#xc5;" horiz-adv-x="1413" 
d="M692 1668q15 97 106 164t212 67t190 -67t54 -164t-107 -164.5t-211 -67.5q-117 0 -188 68t-56 164zM25 0l813 1358h169l382 -1358h-151l-104 410h-720l-240 -410h-149zM469 505h635l-191 747h-13zM790 1668q-10 -64 35.5 -109t123.5 -45q80 0 136.5 43t67.5 111
q11 67 -32 110.5t-123 43.5t-138.5 -44.5t-69.5 -109.5z" />
    <glyph glyph-name="AE" unicode="&#xc6;" horiz-adv-x="2043" 
d="M1237 1250l-634 -745h537l118 745h-21zM25 0l1162 1358h950l-16 -99h-727l-79 -504h649l-16 -101h-656l-88 -554h748l-16 -100h-876l65 410h-602l-346 -410h-152z" />
    <glyph glyph-name="Ccedilla" unicode="&#xc7;" horiz-adv-x="1387" 
d="M206 678q53 329 265.5 521.5t510.5 192.5q172 0 286.5 -81t160.5 -205l-121 -37q-100 223 -344 223q-238 0 -407 -167.5t-213 -446.5q-44 -280 73 -445t353 -165q141 0 258 66t195 174l116 -34q-93 -132 -228 -214t-307 -93l-33 -69q107 -6 159 -45t42 -105
q-12 -74 -96 -120.5t-217 -46.5q-103 0 -202 28l12 77q111 -28 200 -28q69 0 128 27.5t66 68.5q8 47 -56 71q-63 24 -180 21l57 123q-265 24 -395.5 213t-82.5 496z" />
    <glyph glyph-name="Egrave" unicode="&#xc8;" horiz-adv-x="1265" 
d="M1158 0h-993l215 1358h969l-16 -99h-834l-80 -507h756l-15 -98h-756l-88 -554h858zM656 1828h181l191 -317h-122z" />
    <glyph glyph-name="Eacute" unicode="&#xc9;" horiz-adv-x="1265" 
d="M1158 0h-993l215 1358h969l-16 -99h-834l-80 -507h756l-15 -98h-756l-88 -554h858zM737 1511l291 317h183l-356 -317h-118z" />
    <glyph glyph-name="Ecircumflex" unicode="&#xca;" horiz-adv-x="1265" 
d="M625 1511h-143l393 299h120l303 -299h-148l-226 227zM165 0l215 1358h969l-16 -99h-834l-80 -507h756l-15 -98h-756l-88 -554h858l-16 -100h-993z" />
    <glyph glyph-name="Edieresis" unicode="&#xcb;" horiz-adv-x="1265" 
d="M1158 0h-993l215 1358h969l-16 -99h-834l-80 -507h756l-15 -98h-756l-88 -554h858zM586 1584l25 161h195l-25 -161h-195zM1022 1584l25 161h195l-25 -161h-195z" />
    <glyph glyph-name="Igrave" unicode="&#xcc;" horiz-adv-x="567" 
d="M362 0h-135l215 1358h135zM268 1828h181l191 -317h-123z" />
    <glyph glyph-name="Iacute" unicode="&#xcd;" horiz-adv-x="576" 
d="M360 0h-135l215 1358h135zM404 1511l291 317h183l-355 -317h-119z" />
    <glyph glyph-name="Icircumflex" unicode="&#xce;" horiz-adv-x="682" 
d="M406 0h-135l215 1358h135zM171 1511l393 299h121l302 -299h-147l-228 227l-297 -227h-144z" />
    <glyph glyph-name="Idieresis" unicode="&#xcf;" horiz-adv-x="539" 
d="M335 0h-135l215 1358h135zM205 1584l25 161h195l-25 -161h-195zM640 1584l25 161h195l-25 -161h-195z" />
    <glyph glyph-name="Eth" unicode="&#xd0;" horiz-adv-x="1436" 
d="M609 0h-412l103 650h-195l15 95h195l97 613h414q342 0 506 -174.5t112 -505.5q-51 -323 -269.5 -500.5t-565.5 -177.5zM348 100h249q296 0 478 142.5t228 435.5q47 297 -88 439t-430 142h-254l-81 -514h427l-15 -95h-427z" />
    <glyph glyph-name="Ntilde" unicode="&#xd1;" horiz-adv-x="1442" 
d="M550 1630q114 164 290 164q80 0 170 -63q92 -63 138 -63q112 0 197 121l77 -47q-126 -162 -287 -162q-78 0 -164 64q-85 64 -142 64t-111 -34.5t-92 -89.5zM165 0l215 1358h159l628 -1175l186 1175h138l-215 -1358h-158l-631 1180l-187 -1180h-135z" />
    <glyph glyph-name="Ograve" unicode="&#xd2;" 
d="M206 678q51 322 256.5 518t498.5 196q295 0 437.5 -196t91.5 -520t-255.5 -517t-498.5 -193q-295 0 -438 194t-92 518zM344 678q-44 -278 66 -444t342 -166q231 0 393.5 164t206.5 444q45 284 -62.5 450t-343.5 166q-231 0 -394 -166t-208 -448zM722 1834h182l191 -319
h-122z" />
    <glyph glyph-name="Oacute" unicode="&#xd3;" 
d="M206 678q51 322 256.5 518t498.5 196q295 0 437.5 -196t91.5 -520t-255.5 -517t-498.5 -193q-295 0 -438 194t-92 518zM344 678q-44 -278 66 -444t342 -166q231 0 393.5 164t206.5 444q45 284 -62.5 450t-343.5 166q-231 0 -394 -166t-208 -448zM850 1515l292 319h181
l-354 -319h-119z" />
    <glyph glyph-name="Ocircumflex" unicode="&#xd4;" 
d="M206 678q51 322 256.5 518t498.5 196q295 0 437.5 -196t91.5 -520t-255.5 -517t-498.5 -193q-295 0 -438 194t-92 518zM344 678q-44 -278 66 -444t342 -166q231 0 393.5 164t206.5 444q45 284 -62.5 450t-343.5 166q-231 0 -394 -166t-208 -448zM577 1515l391 299h121
l303 -299h-147l-228 229l-297 -229h-143z" />
    <glyph glyph-name="Otilde" unicode="&#xd5;" 
d="M573 1630q116 164 290 164q79 0 171 -63q91 -63 137 -63q111 0 198 121l76 -47q-125 -162 -286 -162q-79 0 -165 64q-85 64 -142 64t-111 -34.5t-91 -89.5zM206 678q51 322 256.5 518t498.5 196q295 0 437.5 -196t91.5 -520t-255.5 -517t-498.5 -193q-295 0 -438 194
t-92 518zM344 678q-44 -278 66 -444t342 -166q231 0 393.5 164t206.5 444q45 284 -62.5 450t-343.5 166q-231 0 -394 -166t-208 -448z" />
    <glyph glyph-name="Odieresis" unicode="&#xd6;" 
d="M206 678q51 322 256.5 518t498.5 196q295 0 437.5 -196t91.5 -520t-255.5 -517t-498.5 -193q-295 0 -438 194t-92 518zM344 678q-44 -278 66 -444t342 -166q231 0 393.5 164t206.5 444q45 284 -62.5 450t-343.5 166q-231 0 -394 -166t-208 -448zM674 1584l25 161h195
l-25 -161h-195zM1109 1584l25 161h196l-25 -161h-196z" />
    <glyph glyph-name="multiply" unicode="&#xd7;" horiz-adv-x="1430" 
d="M313 218l-82 82l488 338l-371 339l105 84l371 -348l484 348l82 -84l-481 -339l384 -342l-109 -78l-384 344z" />
    <glyph glyph-name="Oslash" unicode="&#xd8;" 
d="M206 678q34 213 138 375t264 251.5t354 89.5q184 0 314 -82l119 157h128l-167 -221q194 -194 134 -570q-51 -324 -255.5 -518t-498.5 -194q-158 0 -277 63l-120 -163h-129l165 217q-232 190 -169 595zM344 678q-51 -326 108 -492l753 1031q-103 75 -259 75
q-231 0 -394 -166t-208 -448zM530 122q92 -54 222 -54q231 0 394 165.5t207 444.5q48 298 -77 462z" />
    <glyph glyph-name="Ugrave" unicode="&#xd9;" horiz-adv-x="1431" 
d="M241 482l139 876h134l-138 -870q-32 -205 62.5 -312.5t287.5 -107.5t321 108.5t160 311.5l138 870h136l-139 -876q-38 -245 -202.5 -380.5t-429.5 -135.5q-262 0 -385 134t-84 382zM715 1834h179l193 -319h-123z" />
    <glyph glyph-name="Uacute" unicode="&#xda;" horiz-adv-x="1431" 
d="M241 482l139 876h134l-138 -870q-32 -205 62.5 -312.5t287.5 -107.5t321 108.5t160 311.5l138 870h136l-139 -876q-38 -245 -202.5 -380.5t-429.5 -135.5q-262 0 -385 134t-84 382zM815 1515l290 319h183l-356 -319h-117z" />
    <glyph glyph-name="Ucircumflex" unicode="&#xdb;" horiz-adv-x="1431" 
d="M241 482l139 876h134l-138 -870q-32 -205 62.5 -312.5t287.5 -107.5t321 108.5t160 311.5l138 870h136l-139 -876q-38 -245 -202.5 -380.5t-429.5 -135.5q-262 0 -385 134t-84 382zM556 1515l392 299h120l302 -299h-146l-228 229l-297 -229h-143z" />
    <glyph glyph-name="Udieresis" unicode="&#xdc;" horiz-adv-x="1431" 
d="M241 482l139 876h134l-138 -870q-32 -205 62.5 -312.5t287.5 -107.5t321 108.5t160 311.5l138 870h136l-139 -876q-38 -245 -202.5 -380.5t-429.5 -135.5q-262 0 -385 134t-84 382zM656 1584l25 161h195l-25 -161h-195zM1093 1584l25 161h195l-25 -161h-195z" />
    <glyph glyph-name="Yacute" unicode="&#xdd;" horiz-adv-x="1311" 
d="M750 1515l290 319h182l-355 -319h-117zM241 1358h163l354 -692h5l573 692h164l-685 -798l-89 -560h-136l89 560z" />
    <glyph glyph-name="Thorn" unicode="&#xde;" horiz-adv-x="1256" 
d="M286 0h-135l215 1358h135l-37 -234h293q270 0 390 -111.5t88 -310.5q-33 -210 -202.5 -317t-437.5 -107h-265zM346 377h252q449 0 500 325q25 161 -68 241.5t-305 80.5h-277z" />
    <glyph glyph-name="germandbls" unicode="&#xdf;" horiz-adv-x="1329" 
d="M300 0h-135l164 1034q26 167 171 263.5t351 96.5q208 0 321 -100t87 -264q-34 -221 -238 -313l-1 -4q134 -29 211.5 -125.5t53.5 -245.5q-26 -165 -166 -270.5t-345 -105.5q-162 0 -308 42l30 103q125 -43 288 -43q136 0 240 77t123 197q23 147 -68.5 227.5t-254.5 80.5
h-133l16 100h119q111 0 192.5 76.5t100.5 195.5t-57.5 194.5t-224.5 75.5q-153 0 -254 -71.5t-121 -196.5z" />
    <glyph glyph-name="agrave" unicode="&#xe0;" horiz-adv-x="1147" 
d="M253 240q-12 -75 55 -127t192 -52q162 0 290 90.5t149 226.5l24 154q-106 -27 -329 -55q-184 -26 -275 -83t-106 -154zM120 233q21 134 149.5 215.5t379.5 114.5q253 36 329 60l8 55q17 104 -56.5 169t-221.5 65q-101 0 -202.5 -41.5t-179.5 -112.5l-76 59
q92 85 216.5 136t254.5 51q227 0 321 -97t67 -271l-101 -636h-127l28 176q-52 -88 -175 -149t-267 -61q-180 0 -273 74t-74 193zM529 1472h181l192 -319h-123z" />
    <glyph glyph-name="aacute" unicode="&#xe1;" horiz-adv-x="1147" 
d="M253 240q-12 -75 55 -127t192 -52q162 0 290 90.5t149 226.5l24 154q-106 -27 -329 -55q-184 -26 -275 -83t-106 -154zM120 233q21 134 149.5 215.5t379.5 114.5q253 36 329 60l8 55q17 104 -56.5 169t-221.5 65q-101 0 -202.5 -41.5t-179.5 -112.5l-76 59
q92 85 216.5 136t254.5 51q227 0 321 -97t67 -271l-101 -636h-127l28 176q-52 -88 -175 -149t-267 -61q-180 0 -273 74t-74 193zM585 1160l292 318h181l-354 -318h-119z" />
    <glyph glyph-name="acircumflex" unicode="&#xe2;" horiz-adv-x="1147" 
d="M253 240q-12 -75 55 -127t192 -52q162 0 290 90.5t149 226.5l24 154q-106 -27 -329 -55q-184 -26 -275 -83t-106 -154zM120 233q21 134 149.5 215.5t379.5 114.5q253 36 329 60l8 55q17 104 -56.5 169t-221.5 65q-101 0 -202.5 -41.5t-179.5 -112.5l-76 59
q92 85 216.5 136t254.5 51q227 0 321 -97t67 -271l-101 -636h-127l28 176q-52 -88 -175 -149t-267 -61q-180 0 -273 74t-74 193zM337 1160l393 300h120l301 -300h-145l-228 230l-298 -230h-143z" />
    <glyph glyph-name="atilde" unicode="&#xe3;" horiz-adv-x="1147" 
d="M253 240q-12 -75 55 -127t192 -52q162 0 290 90.5t149 226.5l24 154q-106 -27 -329 -55q-184 -26 -275 -83t-106 -154zM120 233q21 134 149.5 215.5t379.5 114.5q253 36 329 60l8 55q17 104 -56.5 169t-221.5 65q-101 0 -202.5 -41.5t-179.5 -112.5l-76 59
q92 85 216.5 136t254.5 51q227 0 321 -97t67 -271l-101 -636h-127l28 176q-52 -88 -175 -149t-267 -61q-180 0 -273 74t-74 193zM340 1265q115 163 290 163q78 0 170 -63t138 -63q109 0 196 120l79 -46q-125 -162 -287 -162q-80 0 -166 64q-85 64 -141 64
q-58 0 -111.5 -34.5t-90.5 -89.5z" />
    <glyph glyph-name="adieresis" unicode="&#xe4;" horiz-adv-x="1147" 
d="M253 240q-12 -75 55 -127t192 -52q162 0 290 90.5t149 226.5l24 154q-106 -27 -329 -55q-184 -26 -275 -83t-106 -154zM120 233q21 134 149.5 215.5t379.5 114.5q253 36 329 60l8 55q17 104 -56.5 169t-221.5 65q-101 0 -202.5 -41.5t-179.5 -112.5l-76 59
q92 85 216.5 136t254.5 51q227 0 321 -97t67 -271l-101 -636h-127l28 176q-52 -88 -175 -149t-267 -61q-180 0 -273 74t-74 193zM439 1227l26 163h195l-26 -163h-195zM874 1227l26 163h195l-26 -163h-195z" />
    <glyph glyph-name="aring" unicode="&#xe5;" horiz-adv-x="1147" 
d="M253 240q-12 -75 55 -127t192 -52q162 0 290 90.5t149 226.5l24 154q-106 -27 -329 -55q-184 -26 -275 -83t-106 -154zM120 233q21 134 149.5 215.5t379.5 114.5q253 36 329 60l8 55q17 104 -56.5 169t-221.5 65q-101 0 -202.5 -41.5t-179.5 -112.5l-76 59
q92 85 216.5 136t254.5 51q227 0 321 -97t67 -271l-101 -636h-127l28 176q-52 -88 -175 -149t-267 -61q-180 0 -273 74t-74 193zM493 1357q15 96 106 163.5t211 67.5t189.5 -68t54.5 -163q-15 -97 -107 -165t-211 -68q-117 0 -187.5 68t-55.5 165zM591 1357
q-11 -66 34 -110.5t123 -44.5q79 0 136.5 43t68.5 112q10 66 -32.5 110t-123.5 44q-79 0 -137.5 -45t-68.5 -109z" />
    <glyph glyph-name="ae" unicode="&#xe6;" horiz-adv-x="1933" 
d="M120 234q21 134 148.5 215t378.5 114t330 60l8 55q16 102 -55 168t-213 66q-221 0 -391 -156l-78 61q91 85 219.5 136t264.5 51q161 0 250 -61.5t108 -167.5q72 106 189.5 167.5t254.5 61.5q213 0 325.5 -140.5t79.5 -348.5l-11 -66h-847l-6 -41q-6 -149 76.5 -248
t237.5 -99q109 0 206.5 49t156.5 124l108 -32q-171 -236 -490 -236q-152 0 -253 71.5t-140 198.5q-75 -119 -208 -194.5t-302 -75.5q-179 0 -272.5 73.5t-74.5 194.5zM253 240q-12 -76 53.5 -127.5t188.5 -51.5q106 0 202 39.5t161 113t80 164.5l24 154q-76 -21 -322 -53
q-357 -46 -387 -239zM1095 536h715q25 158 -56.5 266t-234.5 108q-147 0 -259 -96.5t-153 -241.5z" />
    <glyph glyph-name="ccedilla" unicode="&#xe7;" horiz-adv-x="1078" 
d="M158 486q37 233 193.5 375.5t384.5 142.5q141 0 237 -68.5t119 -171.5l-116 -28q-25 77 -93.5 125.5t-161.5 48.5q-163 0 -281.5 -119.5t-148.5 -304.5q-30 -192 52.5 -308.5t243.5 -116.5q98 0 193.5 54.5t149.5 132.5l105 -31q-60 -103 -179 -173t-257 -77l-31 -70
q106 -6 158.5 -45.5t41.5 -104.5q-11 -74 -96 -121t-217 -47q-100 0 -202 27l12 78q111 -27 200 -27q69 0 129.5 27.5t66.5 68.5q7 44 -57 69q-63 24 -181 22l59 129q-181 29 -269 166.5t-55 346.5z" />
    <glyph glyph-name="egrave" unicode="&#xe8;" horiz-adv-x="1151" 
d="M159 492q36 226 198.5 369t386.5 143q149 0 251 -64.5t143 -174.5t19 -249q-9 -43 -15 -67h-857q-12 -80 2.5 -150t53.5 -123t106.5 -84t154.5 -31q112 0 211.5 48t157.5 125l108 -30q-76 -109 -203 -173.5t-289 -64.5q-231 0 -348.5 145t-79.5 381zM302 536h725
q25 159 -56.5 266.5t-241.5 107.5q-162 0 -280.5 -109t-146.5 -265zM536 1478h181l192 -318h-122z" />
    <glyph glyph-name="eacute" unicode="&#xe9;" horiz-adv-x="1151" 
d="M159 492q36 226 198.5 369t386.5 143q149 0 251 -64.5t143 -174.5t19 -249q-9 -43 -15 -67h-857q-12 -80 2.5 -150t53.5 -123t106.5 -84t154.5 -31q112 0 211.5 48t157.5 125l108 -30q-76 -109 -203 -173.5t-289 -64.5q-231 0 -348.5 145t-79.5 381zM302 536h725
q25 159 -56.5 266.5t-241.5 107.5q-162 0 -280.5 -109t-146.5 -265zM591 1160l290 318h182l-353 -318h-119z" />
    <glyph glyph-name="ecircumflex" unicode="&#xea;" horiz-adv-x="1151" 
d="M159 492q36 226 198.5 369t386.5 143q149 0 251 -64.5t143 -174.5t19 -249q-9 -43 -15 -67h-857q-12 -80 2.5 -150t53.5 -123t106.5 -84t154.5 -31q112 0 211.5 48t157.5 125l108 -30q-76 -109 -203 -173.5t-289 -64.5q-231 0 -348.5 145t-79.5 381zM302 536h725
q25 159 -56.5 266.5t-241.5 107.5q-162 0 -280.5 -109t-146.5 -265zM365 1160l392 300h120l301 -300h-144l-229 230l-298 -230h-142z" />
    <glyph glyph-name="edieresis" unicode="&#xeb;" horiz-adv-x="1151" 
d="M655 1227h-196l26 163h196zM159 492q36 226 198.5 369t386.5 143q149 0 251 -64.5t143 -174.5t19 -249q-9 -43 -15 -67h-857q-12 -80 2.5 -150t53.5 -123t106.5 -84t154.5 -31q112 0 211.5 48t157.5 125l108 -30q-76 -109 -203 -173.5t-289 -64.5q-231 0 -348.5 145
t-79.5 381zM302 536h725q25 159 -56.5 266.5t-241.5 107.5q-162 0 -280.5 -109t-146.5 -265zM894 1227l26 163h195l-26 -163h-195z" />
    <glyph glyph-name="igrave" unicode="&#xec;" horiz-adv-x="501" 
d="M308 0h-133l154 971h133zM173 1478h182l191 -318h-122z" />
    <glyph glyph-name="iacute" unicode="&#xed;" horiz-adv-x="519" 
d="M333 0h-133l154 971h133zM323 1160l289 318h184l-356 -318h-117z" />
    <glyph glyph-name="icircumflex" unicode="&#xee;" horiz-adv-x="621" 
d="M231 1160h-144l392 300h120l302 -300h-145l-228 230zM243 0l154 971h133l-154 -971h-133z" />
    <glyph glyph-name="idieresis" unicode="&#xef;" horiz-adv-x="480" 
d="M315 1227h-197l26 163h197zM175 0l154 971h133l-154 -971h-133zM554 1227l26 163h195l-26 -163h-195z" />
    <glyph glyph-name="eth" unicode="&#xf0;" horiz-adv-x="1161" 
d="M558 999l-62 73l292 166q-108 63 -264 84l58 90q191 -27 323 -108l241 137l63 -74l-222 -126q254 -233 170 -762q-36 -228 -192 -370.5t-391 -142.5q-152 0 -256.5 63t-146.5 170.5t-20 242.5q34 218 190.5 346.5t380.5 128.5q126 0 210.5 -50.5t112.5 -129.5
q-13 292 -174 439zM285 446q-27 -173 56.5 -279t252.5 -106q161 0 273.5 105.5t140.5 282.5q27 168 -54.5 270t-239.5 102q-166 0 -284 -99.5t-145 -275.5z" />
    <glyph glyph-name="ntilde" unicode="&#xf1;" horiz-adv-x="1154" 
d="M339 1265q118 163 290 163q81 0 172 -63t137 -63q110 0 197 120l77 -46q-124 -162 -287 -162q-78 0 -164 64t-142 64q-57 0 -110 -34.5t-93 -89.5zM148 0l154 971h129l-29 -183h3q38 80 156 148t255 68q79 0 138.5 -20t103.5 -64t57 -116t0 -175l-100 -629h-133l96 608
q48 302 -208 302q-137 0 -256 -97t-140 -227l-93 -586h-133z" />
    <glyph glyph-name="ograve" unicode="&#xf2;" horiz-adv-x="1161" 
d="M291 486q-30 -190 54.5 -307.5t245.5 -117.5q160 0 283.5 118.5t153.5 306.5q30 191 -56.5 307.5t-246.5 116.5q-159 0 -281.5 -116.5t-152.5 -307.5zM158 486q36 229 193 373.5t389 144.5q230 0 343.5 -145t77.5 -373q-21 -133 -90 -247q-73 -120 -204 -196.5
t-291 -76.5q-168 0 -272 80q-192 148 -146 440zM535 1478h179l193 -318h-122z" />
    <glyph glyph-name="oacute" unicode="&#xf3;" horiz-adv-x="1161" 
d="M291 486q-30 -190 54.5 -307.5t245.5 -117.5q160 0 283.5 118.5t153.5 306.5q30 191 -56.5 307.5t-246.5 116.5q-159 0 -281.5 -116.5t-152.5 -307.5zM158 486q36 229 193 373.5t389 144.5q230 0 343.5 -145t77.5 -373q-21 -133 -90 -247q-73 -120 -204 -196.5
t-291 -76.5q-168 0 -272 80q-192 148 -146 440zM624 1160l289 318h183l-355 -318h-117z" />
    <glyph glyph-name="ocircumflex" unicode="&#xf4;" horiz-adv-x="1161" 
d="M503 1160h-142l392 300h120l302 -300h-146l-228 230zM158 486q36 229 193 373.5t389 144.5q230 0 343.5 -145t77.5 -373q-21 -133 -90 -247q-73 -120 -204 -196.5t-291 -76.5q-168 0 -272 80q-192 148 -146 440zM291 486q-30 -190 54.5 -307.5t245.5 -117.5
q160 0 283.5 118.5t153.5 306.5q30 191 -56.5 307.5t-246.5 116.5q-159 0 -281.5 -116.5t-152.5 -307.5z" />
    <glyph glyph-name="otilde" unicode="&#xf5;" horiz-adv-x="1161" 
d="M340 1265q115 163 289 163q81 0 171 -63q91 -63 137 -63q111 0 197 120l76 -46q-123 -162 -284 -162q-78 0 -166 64q-86 64 -141 64q-58 0 -111 -34.5t-93 -89.5zM158 486q36 229 193 373.5t389 144.5q230 0 343.5 -145t77.5 -373q-21 -133 -90 -247
q-73 -120 -204 -196.5t-291 -76.5q-168 0 -272 80q-192 148 -146 440zM291 486q-30 -190 54.5 -307.5t245.5 -117.5q160 0 283.5 118.5t153.5 306.5q30 191 -56.5 307.5t-246.5 116.5q-159 0 -281.5 -116.5t-152.5 -307.5z" />
    <glyph glyph-name="odieresis" unicode="&#xf6;" horiz-adv-x="1161" 
d="M655 1227h-196l26 163h196zM158 486q36 229 193 373.5t389 144.5q230 0 343.5 -145t77.5 -373q-21 -133 -90 -247q-73 -120 -204 -196.5t-291 -76.5q-168 0 -272 80q-192 148 -146 440zM291 486q-30 -190 54.5 -307.5t245.5 -117.5q160 0 283.5 118.5t153.5 306.5
q30 191 -56.5 307.5t-246.5 116.5q-159 0 -281.5 -116.5t-152.5 -307.5zM894 1227l26 163h195l-26 -163h-195z" />
    <glyph glyph-name="divide" unicode="&#xf7;" horiz-adv-x="1456" 
d="M278 586l18 115h1086l-18 -115h-1086zM648 224l32 199h231l-32 -199h-231zM750 864l32 203h231l-32 -203h-231z" />
    <glyph glyph-name="oslash" unicode="&#xf8;" horiz-adv-x="1158" 
d="M158 484q36 228 194 374t391 146q139 0 230 -52l96 130h115l-140 -183q156 -143 114 -415q-17 -106 -64.5 -199t-119.5 -164.5t-174.5 -113t-220.5 -41.5q-123 0 -213 44l-95 -124h-111l128 172q-84 69 -117.5 182t-12.5 244zM291 484q-33 -206 75 -326l536 699
q-82 53 -174 53q-160 0 -283.5 -117.5t-153.5 -308.5zM434 100q74 -39 160 -39q159 0 281.5 117.5t152.5 305.5q30 190 -61 310z" />
    <glyph glyph-name="ugrave" unicode="&#xf9;" horiz-adv-x="1137" 
d="M193 338l100 633h130l-96 -605q-48 -305 219 -305q155 0 260 102t129 253l88 555h129l-154 -971h-128l28 174q-24 -60 -116 -127q-109 -81 -284 -81q-169 0 -251 98t-54 274zM518 1478h180l193 -318h-122z" />
    <glyph glyph-name="uacute" unicode="&#xfa;" horiz-adv-x="1137" 
d="M193 338l100 633h130l-96 -605q-48 -305 219 -305q155 0 260 102t129 253l88 555h129l-154 -971h-128l28 174q-24 -60 -116 -127q-109 -81 -284 -81q-169 0 -251 98t-54 274zM618 1160l291 318h182l-354 -318h-119z" />
    <glyph glyph-name="ucircumflex" unicode="&#xfb;" horiz-adv-x="1143" 
d="M193 338l100 633h130l-96 -605q-48 -305 219 -305q155 0 260 102t129 253l88 555h129l-154 -971h-128l28 174q-24 -60 -116 -127q-109 -81 -284 -81q-169 0 -251 98t-54 274zM372 1160l392 300h121l303 -300h-147l-227 230l-298 -230h-144z" />
    <glyph glyph-name="udieresis" unicode="&#xfc;" horiz-adv-x="1137" 
d="M658 1227h-195l26 163h195zM193 338l100 633h130l-96 -605q-48 -305 219 -305q155 0 260 102t129 253l88 555h129l-154 -971h-128l28 174q-24 -60 -116 -127q-109 -81 -284 -81q-169 0 -251 98t-54 274zM899 1227l26 163h196l-26 -163h-196z" />
    <glyph glyph-name="yacute" unicode="&#xfd;" horiz-adv-x="1097" 
d="M562 1160l291 318h181l-355 -318h-117zM101 -434l15 94h38q80 0 144.5 45.5t122.5 150.5l65 118l-283 997h152l215 -857h6l475 857h150l-671 -1147q-80 -138 -168.5 -198t-199.5 -60h-61z" />
    <glyph glyph-name="thorn" unicode="&#xfe;" horiz-adv-x="1178" 
d="M343 488q-29 -189 50.5 -308t224.5 -119q164 0 279.5 114t146.5 311q31 193 -48 308.5t-244 115.5q-142 0 -261 -119t-148 -303zM70 -434l293 1846h131l-102 -641q52 101 165.5 167t226.5 66q217 0 323 -139.5t68 -378.5q-20 -125 -73 -224.5t-128 -163.5t-166.5 -98
t-191.5 -34q-121 0 -206.5 66t-108.5 162l-100 -628h-131z" />
    <glyph glyph-name="ydieresis" unicode="&#xff;" horiz-adv-x="1097" 
d="M608 1227h-195l26 163h195zM101 -434l15 94h38q80 0 144.5 45.5t122.5 150.5l65 118l-283 997h152l215 -857h6l475 857h150l-671 -1147q-80 -138 -168.5 -198t-199.5 -60h-61zM849 1227l26 163h195l-26 -163h-195z" />
    <glyph glyph-name="Amacron" unicode="&#x100;" horiz-adv-x="1413" 
d="M1313 1616h-708l13 81h708zM25 0l813 1358h169l382 -1358h-151l-104 410h-720l-240 -410h-149zM469 505h635l-191 747h-13z" />
    <glyph glyph-name="amacron" unicode="&#x101;" horiz-adv-x="1147" 
d="M1110 1240h-708l13 82h708zM120 233q21 134 149.5 215.5t379.5 114.5q253 36 329 60l8 55q17 104 -56.5 169t-221.5 65q-101 0 -202.5 -41.5t-179.5 -112.5l-76 59q92 85 216.5 136t254.5 51q227 0 321 -97t67 -271l-101 -636h-127l28 176q-52 -88 -175 -149t-267 -61
q-180 0 -273 74t-74 193zM253 240q-12 -75 55 -127t192 -52q162 0 290 90.5t149 226.5l24 154q-106 -27 -329 -55q-184 -26 -275 -83t-106 -154z" />
    <glyph glyph-name="Abreve" unicode="&#x102;" horiz-adv-x="1413" 
d="M763 1780q-9 -78 48 -132t150 -54q96 0 170.5 55t92.5 131h109q-27 -113 -130 -189t-254 -76t-229 76.5t-68 188.5h111zM25 0l813 1358h169l382 -1358h-151l-104 410h-720l-240 -410h-149zM469 505h635l-191 747h-13z" />
    <glyph glyph-name="abreve" unicode="&#x103;" horiz-adv-x="1147" 
d="M253 240q-12 -75 55 -127t192 -52q162 0 290 90.5t149 226.5l24 154q-106 -27 -329 -55q-184 -26 -275 -83t-106 -154zM120 233q21 134 149.5 215.5t379.5 114.5q253 36 329 60l8 55q17 104 -56.5 169t-221.5 65q-101 0 -202.5 -41.5t-179.5 -112.5l-76 59
q92 85 216.5 136t254.5 51q227 0 321 -97t67 -271l-101 -636h-127l28 176q-52 -88 -175 -149t-267 -61q-180 0 -273 74t-74 193zM442 1422h109q-8 -76 50 -130t151 -54q94 0 169.5 55t90.5 129h111q-24 -111 -128.5 -187.5t-255.5 -76.5t-229 76.5t-68 187.5z" />
    <glyph glyph-name="Aogonek" unicode="&#x104;" horiz-adv-x="1369" 
d="M1363 0q-254 -129 -268 -216q-12 -74 93 -74q47 0 143 27l-12 -80q-74 -25 -166 -25q-203 0 -182 136q10 63 87.5 126.5t178.5 108.5l-103 407h-720l-240 -410h-149l813 1358h169l382 -1358h-26zM469 505h635l-191 747h-13z" />
    <glyph glyph-name="aogonek" unicode="&#x105;" horiz-adv-x="1111" 
d="M253 240q-12 -75 55 -127t192 -52q162 0 290 90.5t149 226.5l24 154q-106 -27 -329 -55q-184 -26 -275 -83t-106 -154zM120 233q21 134 149.5 215.5t379.5 114.5q253 36 329 60l8 55q17 104 -56.5 169t-221.5 65q-101 0 -202.5 -41.5t-179.5 -112.5l-76 59
q92 85 216.5 136t254.5 51q227 0 321 -97t67 -271l-100 -632h5l-6 -3v-1h-2q-256 -129 -270 -216q-12 -74 96 -74q46 0 142 27l-12 -80q-74 -25 -166 -25q-204 0 -183 136q10 63 88 126t181 110l27 172q-52 -88 -175 -149t-267 -61q-180 0 -273 74t-74 193z" />
    <glyph glyph-name="Cacute" unicode="&#x106;" horiz-adv-x="1387" 
d="M206 678q53 329 265.5 521.5t510.5 192.5q172 0 286.5 -81t160.5 -205l-121 -37q-100 223 -344 223q-238 0 -407 -167.5t-213 -446.5q-44 -280 73 -445t353 -165q141 0 258 66t195 174l116 -34q-98 -141 -246 -224.5t-336 -83.5q-298 0 -450.5 192t-100.5 520zM876 1515
l288 319h182l-354 -319h-116z" />
    <glyph glyph-name="cacute" unicode="&#x107;" horiz-adv-x="1078" 
d="M765 1160h-118l290 318h183zM158 486q37 233 193.5 375.5t384.5 142.5q141 0 237 -68.5t119 -171.5l-116 -28q-25 77 -93.5 125.5t-161.5 48.5q-163 0 -281.5 -119.5t-148.5 -304.5q-30 -192 52.5 -308.5t243.5 -116.5q98 0 193.5 54.5t149.5 132.5l105 -31
q-64 -108 -190.5 -179.5t-272.5 -71.5q-223 0 -337 142.5t-77 377.5z" />
    <glyph glyph-name="Cdotaccent" unicode="&#x10a;" horiz-adv-x="1387" 
d="M206 678q53 329 265.5 521.5t510.5 192.5q172 0 286.5 -81t160.5 -205l-121 -37q-100 223 -344 223q-238 0 -407 -167.5t-213 -446.5q-44 -280 73 -445t353 -165q141 0 258 66t195 174l116 -34q-98 -141 -246 -224.5t-336 -83.5q-298 0 -450.5 192t-100.5 520zM917 1584
l26 164h195l-26 -164h-195z" />
    <glyph glyph-name="cdotaccent" unicode="&#x10b;" horiz-adv-x="1078" 
d="M871 1229h-198l26 165h198zM158 486q37 233 193.5 375.5t384.5 142.5q141 0 237 -68.5t119 -171.5l-116 -28q-25 77 -93.5 125.5t-161.5 48.5q-163 0 -281.5 -119.5t-148.5 -304.5q-30 -192 52.5 -308.5t243.5 -116.5q98 0 193.5 54.5t149.5 132.5l105 -31
q-64 -108 -190.5 -179.5t-272.5 -71.5q-223 0 -337 142.5t-77 377.5z" />
    <glyph glyph-name="Ccaron" unicode="&#x10c;" horiz-adv-x="1387" 
d="M206 678q53 329 265.5 521.5t510.5 192.5q172 0 286.5 -81t160.5 -205l-121 -37q-100 223 -344 223q-238 0 -407 -167.5t-213 -446.5q-44 -280 73 -445t353 -165q141 0 258 66t195 174l116 -34q-98 -141 -246 -224.5t-336 -83.5q-298 0 -450.5 192t-100.5 520zM652 1810
h139l222 -224l296 224h139l-386 -295h-122z" />
    <glyph glyph-name="ccaron" unicode="&#x10d;" horiz-adv-x="1078" 
d="M158 486q37 233 193.5 375.5t384.5 142.5q141 0 237 -68.5t119 -171.5l-116 -28q-25 77 -93.5 125.5t-161.5 48.5q-163 0 -281.5 -119.5t-148.5 -304.5q-30 -192 52.5 -308.5t243.5 -116.5q98 0 193.5 54.5t149.5 132.5l105 -31q-64 -108 -190.5 -179.5t-272.5 -71.5
q-223 0 -337 142.5t-77 377.5zM417 1454h141l222 -224l295 224h141l-386 -294h-123z" />
    <glyph glyph-name="Dcaron" unicode="&#x10e;" horiz-adv-x="1404" 
d="M577 0h-412l215 1358h414q342 0 506 -174.5t112 -505.5q-51 -323 -269.5 -500.5t-565.5 -177.5zM316 100h249q296 0 478 142.5t228 435.5q47 297 -88 439t-430 142h-254zM503 1810h141l222 -224l294 224h140l-386 -295h-122z" />
    <glyph glyph-name="dcaron" unicode="&#x10f;" horiz-adv-x="1662" 
d="M158 488q38 237 190.5 376.5t361.5 139.5q124 0 211 -66t114 -163l101 637h129l-224 -1412h-125l31 194q-62 -102 -168.5 -165t-232.5 -63q-95 0 -173.5 34t-134 97.5t-78 164.5t-2.5 226zM291 488q-31 -194 48.5 -310.5t239.5 -116.5q149 0 266 116.5t148 310.5
q30 189 -52.5 305.5t-230.5 116.5q-158 0 -273 -115.5t-146 -306.5zM1260 1054l171 344h154l-223 -344h-102z" />
    <glyph glyph-name="Dcroat" unicode="&#x110;" horiz-adv-x="1374" 
d="M547 0h-412l103 650h-231l15 95h231l97 613h414q342 0 506 -174.5t112 -505.5q-51 -323 -269.5 -500.5t-565.5 -177.5zM286 100h249q296 0 478 142.5t228 435.5q47 297 -88 439t-430 142h-254l-81 -514h390l-15 -95h-390z" />
    <glyph glyph-name="dcroat" unicode="&#x111;" horiz-adv-x="1115" 
d="M158 486q38 239 190 378.5t362 139.5q124 0 210 -66.5t112 -162.5l61 387h-474l14 86h474l26 164h132l-26 -164h159l-14 -86h-159l-184 -1162h-128l31 194q-67 -105 -170.5 -166.5t-229.5 -61.5q-96 0 -174.5 34t-133 97.5t-76.5 164t-2 224.5zM291 486
q-31 -192 48.5 -308.5t239.5 -116.5q148 0 264.5 117t146.5 308q30 186 -51 305t-229 119q-157 0 -272.5 -116.5t-146.5 -307.5z" />
    <glyph glyph-name="Emacron" unicode="&#x112;" horiz-adv-x="1265" 
d="M1158 0h-993l215 1358h969l-16 -99h-834l-80 -507h756l-15 -98h-756l-88 -554h858zM556 1616l13 82h708l-13 -82h-708z" />
    <glyph glyph-name="emacron" unicode="&#x113;" horiz-adv-x="1151" 
d="M159 492q36 226 198.5 369t386.5 143q149 0 251 -64.5t143 -174.5t19 -249q-9 -43 -15 -67h-857q-12 -80 2.5 -150t53.5 -123t106.5 -84t154.5 -31q112 0 211.5 48t157.5 125l108 -30q-76 -109 -203 -173.5t-289 -64.5q-231 0 -348.5 145t-79.5 381zM302 536h725
q25 159 -56.5 266.5t-241.5 107.5q-162 0 -280.5 -109t-146.5 -265zM419 1242l13 81h708l-13 -81h-708z" />
    <glyph glyph-name="Edotaccent" unicode="&#x116;" horiz-adv-x="1265" 
d="M1158 0h-993l215 1358h969l-16 -99h-834l-80 -507h756l-15 -98h-756l-88 -554h858zM826 1584l26 164h198l-26 -164h-198z" />
    <glyph glyph-name="edotaccent" unicode="&#x117;" horiz-adv-x="1151" 
d="M876 1229h-197l26 165h197zM159 492q36 226 198.5 369t386.5 143q149 0 251 -64.5t143 -174.5t19 -249q-9 -43 -15 -67h-857q-12 -80 2.5 -150t53.5 -123t106.5 -84t154.5 -31q112 0 211.5 48t157.5 125l108 -30q-76 -109 -203 -173.5t-289 -64.5q-231 0 -348.5 145
t-79.5 381zM302 536h725q25 159 -56.5 266.5t-241.5 107.5q-162 0 -280.5 -109t-146.5 -265z" />
    <glyph glyph-name="Eogonek" unicode="&#x118;" horiz-adv-x="1220" 
d="M886 0q-255 -128 -269 -216q-6 -37 17.5 -55.5t76.5 -18.5q47 0 141 27l-12 -80q-72 -25 -163 -25q-103 0 -148.5 34t-35.5 102q10 61 84.5 123.5t175.5 108.5h-588l215 1358h969l-16 -99h-834l-80 -507h756l-15 -98h-756l-88 -554h858l-16 -100h-272z" />
    <glyph glyph-name="eogonek" unicode="&#x119;" horiz-adv-x="1151" 
d="M159 492q36 226 198.5 369t386.5 143q149 0 251 -64.5t143 -174.5t19 -249q-9 -43 -15 -67h-857q-12 -80 2.5 -150t53.5 -123t106.5 -84t154.5 -31q112 0 211.5 48t157.5 125l108 -30q-62 -90 -160.5 -150.5t-224.5 -79.5q-209 -112 -223 -192q-5 -37 19 -55.5t78 -18.5
q46 0 140 27l-13 -81q-72 -24 -165 -24q-102 0 -147.5 34t-34.5 102q17 100 199 201q-212 13 -317.5 156.5t-70.5 368.5zM302 536h725q25 159 -56.5 266.5t-241.5 107.5q-162 0 -280.5 -109t-146.5 -265z" />
    <glyph glyph-name="Ecaron" unicode="&#x11a;" horiz-adv-x="1265" 
d="M1158 0h-993l215 1358h969l-16 -99h-834l-80 -507h756l-15 -98h-756l-88 -554h858zM518 1810h141l221 -224l295 224h141l-387 -295h-122z" />
    <glyph glyph-name="ecaron" unicode="&#x11b;" horiz-adv-x="1151" 
d="M159 492q36 226 198.5 369t386.5 143q149 0 251 -64.5t143 -174.5t19 -249q-9 -43 -15 -67h-857q-12 -80 2.5 -150t53.5 -123t106.5 -84t154.5 -31q112 0 211.5 48t157.5 125l108 -30q-76 -109 -203 -173.5t-289 -64.5q-231 0 -348.5 145t-79.5 381zM302 536h725
q25 159 -56.5 266.5t-241.5 107.5q-162 0 -280.5 -109t-146.5 -265zM411 1454h138l223 -224l294 224h141l-386 -294h-123z" />
    <glyph glyph-name="Gbreve" unicode="&#x11e;" horiz-adv-x="1460" 
d="M206 678q52 322 264.5 518t525.5 196q182 0 299 -78t169 -199l-121 -36q-117 213 -362 213q-252 0 -422 -167t-215 -447q-45 -282 74 -446t362 -164q212 0 350 121.5t166 302.5l21 131h-468l15 99h601l-114 -722h-101l26 226q-165 -260 -516 -260q-200 0 -337.5 86.5
t-194 248t-22.5 377.5zM705 1780h108q-6 -78 50.5 -132t150.5 -54t170 55t91 131h110q-27 -113 -130 -189t-253 -76q-152 0 -230 76.5t-67 188.5z" />
    <glyph glyph-name="gbreve" unicode="&#x11f;" horiz-adv-x="1160" 
d="M294 503q-29 -180 48 -292.5t229 -112.5q157 0 264 108.5t137 299.5q29 185 -45 294.5t-224 109.5q-157 0 -269 -113.5t-140 -293.5zM106 -271l102 53q114 -131 294 -131q165 0 266.5 105.5t132.5 297.5l24 157q-59 -95 -156.5 -152t-221.5 -57q-211 0 -316.5 139
t-69.5 362q35 225 184 363t356 138q129 0 208.5 -60.5t107.5 -153.5l29 181h128l-138 -871q-44 -277 -176 -409.5t-375 -132.5q-263 0 -379 171zM456 1422h110q-8 -77 49 -130.5t152 -53.5q94 0 169.5 55t90.5 129h110q-24 -111 -128.5 -187.5t-254.5 -76.5
q-152 0 -230 76.5t-68 187.5z" />
    <glyph glyph-name="Gdotaccent" unicode="&#x120;" horiz-adv-x="1460" 
d="M206 678q52 322 264.5 518t525.5 196q182 0 299 -78t169 -199l-121 -36q-117 213 -362 213q-252 0 -422 -167t-215 -447q-45 -282 74 -446t362 -164q212 0 350 121.5t166 302.5l21 131h-468l15 99h601l-114 -722h-101l26 226q-165 -260 -516 -260q-200 0 -337.5 86.5
t-194 248t-22.5 377.5zM922 1584l26 164h196l-26 -164h-196z" />
    <glyph glyph-name="gdotaccent" unicode="&#x121;" horiz-adv-x="1160" 
d="M294 503q-29 -180 48 -292.5t229 -112.5q157 0 264 108.5t137 299.5q29 185 -45 294.5t-224 109.5q-157 0 -269 -113.5t-140 -293.5zM106 -271l102 53q114 -131 294 -131q165 0 266.5 105.5t132.5 297.5l24 157q-59 -95 -156.5 -152t-221.5 -57q-211 0 -316.5 139
t-69.5 362q35 225 184 363t356 138q129 0 208.5 -60.5t107.5 -153.5l29 181h128l-138 -871q-44 -277 -176 -409.5t-375 -132.5q-263 0 -379 171zM687 1229l26 165h196l-26 -165h-196z" />
    <glyph glyph-name="uni0122" unicode="&#x122;" horiz-adv-x="1460" 
d="M206 678q52 322 264.5 518t525.5 196q182 0 299 -78t169 -199l-121 -36q-117 213 -362 213q-252 0 -422 -167t-215 -447q-45 -282 74 -446t362 -164q212 0 350 121.5t166 302.5l21 131h-468l15 99h601l-114 -722h-101l26 226q-165 -260 -516 -260q-200 0 -337.5 86.5
t-194 248t-22.5 377.5zM564 -454l164 339h158l-225 -339h-97z" />
    <glyph glyph-name="uni0123" unicode="&#x123;" horiz-adv-x="1160" 
d="M819 1166h-162l225 324h95zM106 -271l100 53q108 -131 294 -131q330 0 399 399q7 38 26 161q-62 -97 -159.5 -153t-223.5 -56q-206 0 -311 139t-70 362q35 222 185 361.5t354 139.5q132 0 210.5 -59.5t106.5 -154.5l29 181h128l-138 -871q-44 -279 -176 -410.5
t-379 -131.5q-124 0 -224 44.5t-151 126.5zM294 503q-29 -183 48 -295t224 -112q159 0 267.5 109.5t138.5 300.5q29 185 -45.5 294.5t-227.5 109.5q-154 0 -265 -113t-140 -294z" />
    <glyph glyph-name="Hbar" unicode="&#x126;" horiz-adv-x="1631" 
d="M434 1058h-191l14 91h191l33 209h135l-33 -209h828l33 209h136l-33 -209h191l-14 -91h-191l-168 -1058h-136l103 650h-828l-103 -650h-135zM520 750h828l49 308h-828z" />
    <glyph glyph-name="hbar" unicode="&#x127;" horiz-adv-x="1068" 
d="M251 1172h-162l13 87h162l25 153h130l-25 -153h458l-13 -87h-458l-62 -390h3q53 83 164 143t234 60q132 0 224 -67q54 -39 76.5 -119t5.5 -188l-97 -611h-129l94 592q46 298 -213 298q-138 0 -257.5 -99t-139.5 -228l-89 -563h-130z" />
    <glyph glyph-name="Imacron" unicode="&#x12a;" horiz-adv-x="566" 
d="M893 1616h-708l13 81h708zM214 0l215 1358h135l-215 -1358h-135z" />
    <glyph glyph-name="imacron" unicode="&#x12b;" horiz-adv-x="506" 
d="M803 1240h-708l13 82h708zM191 0l154 971h133l-154 -971h-133z" />
    <glyph glyph-name="Iogonek" unicode="&#x12e;" horiz-adv-x="489" 
d="M358 0q-254 -129 -267 -216q-6 -37 17.5 -55.5t76.5 -18.5q47 0 141 27l-12 -80q-72 -25 -166 -25q-201 0 -180 136q11 63 87 126t178 109l215 1355h135l-215 -1358h-10z" />
    <glyph glyph-name="iogonek" unicode="&#x12f;" horiz-adv-x="439" 
d="M521 1208h-186l27 171h186zM-93 -232q10 63 87 126t180 109l154 968h130l-153 -967h3l-4 -2v-2h-4q-256 -129 -270 -216q-6 -37 18 -55.5t79 -18.5q44 0 140 27l-12 -80q-72 -25 -165 -25q-204 0 -183 136z" />
    <glyph glyph-name="Idotaccent" unicode="&#x130;" horiz-adv-x="471" 
d="M304 0h-135l215 1358h135zM388 1584l26 164h197l-26 -164h-197z" />
    <glyph glyph-name="dotlessi" unicode="&#x131;" horiz-adv-x="411" 
d="M272 0h-133l154 971h133z" />
    <glyph glyph-name="IJ" unicode="&#x132;" horiz-adv-x="1599" 
d="M354 0h-135l215 1358h135zM611 204l131 40q19 -83 82 -130t152 -46q270 4 321 324l153 966h134l-156 -987q-32 -200 -150 -302.5t-314 -102.5q-289 0 -353 238z" />
    <glyph glyph-name="ij" unicode="&#x133;" horiz-adv-x="1093" 
d="M1117 1208h-191l27 171h191zM213 0l154 971h130l-154 -971h-130zM374 1208l27 171h186l-27 -171h-186zM444 -421l15 93h53q204 0 241 238l168 1061h129l-170 -1069q-25 -158 -118 -240.5t-243 -82.5h-75z" />
    <glyph glyph-name="uni0136" unicode="&#x136;" horiz-adv-x="1312" 
d="M300 0h-135l215 1358h135l-120 -757h5l879 757h183l-689 -585l512 -773h-171l-446 688l-300 -256zM418 -438l164 338h159l-223 -338h-100z" />
    <glyph glyph-name="uni0137" unicode="&#x137;" horiz-adv-x="1038" 
d="M271 0h-132l224 1412h132l-153 -963l615 522h174l-460 -385l357 -586h-161l-298 505l-251 -209zM308 -438l165 338h159l-225 -338h-99z" />
    <glyph glyph-name="Lacute" unicode="&#x139;" horiz-adv-x="1185" 
d="M1109 0h-899l215 1358h135l-199 -1258h764zM404 1511l291 317h183l-357 -317h-117z" />
    <glyph glyph-name="lacute" unicode="&#x13a;" horiz-adv-x="521" 
d="M498 1511h-120l292 317h183zM200 0l224 1412h129l-224 -1412h-129z" />
    <glyph glyph-name="uni013B" unicode="&#x13b;" horiz-adv-x="1140" 
d="M1064 0h-899l215 1358h135l-199 -1258h764zM359 -454l166 339h158l-225 -339h-99z" />
    <glyph glyph-name="uni013C" unicode="&#x13c;" horiz-adv-x="459" 
d="M300 0h-129l224 1412h129zM-24 -454l166 339h160l-227 -339h-99z" />
    <glyph glyph-name="Lcaron" unicode="&#x13d;" horiz-adv-x="1629" 
d="M1064 0h-899l215 1358h135l-199 -1258h764zM654 1016l171 345h155l-225 -345h-101z" />
    <glyph glyph-name="lcaron" unicode="&#x13e;" horiz-adv-x="888" 
d="M268 0h-129l224 1412h129zM491 1054l169 344h154l-222 -344h-101z" />
    <glyph glyph-name="Lslash" unicode="&#x141;" horiz-adv-x="1272" 
d="M843 814l-314 -167l-86 -547h764l-16 -100h-899l91 572l-253 -136l-51 84l323 172l105 666h135l-94 -592l244 130z" />
    <glyph glyph-name="lslash" unicode="&#x142;" horiz-adv-x="631" 
d="M796 838l-305 -160l-107 -678h-131l96 605l-239 -126l-53 84l311 161l109 688h131l-98 -614l237 122z" />
    <glyph glyph-name="Nacute" unicode="&#x143;" horiz-adv-x="1442" 
d="M846 1515l289 319h184l-357 -319h-116zM165 0l215 1358h159l628 -1175l186 1175h138l-215 -1358h-158l-631 1180l-187 -1180h-135z" />
    <glyph glyph-name="nacute" unicode="&#x144;" horiz-adv-x="1145" 
d="M272 0h-133l154 971h129l-29 -183h3q38 80 156 148t255 68q79 0 138.5 -20t103.5 -64t57 -116t0 -175l-100 -629h-133l96 608q48 302 -208 302q-137 0 -256 -97t-140 -227zM629 1160l292 318h183l-356 -318h-119z" />
    <glyph glyph-name="uni0145" unicode="&#x145;" horiz-adv-x="1442" 
d="M495 -454l168 339h159l-227 -339h-100zM165 0l215 1358h159l628 -1175l186 1175h138l-215 -1358h-158l-631 1180l-187 -1180h-135z" />
    <glyph glyph-name="uni0146" unicode="&#x146;" horiz-adv-x="1145" 
d="M272 0h-133l154 971h129l-29 -183h3q38 80 156 148t255 68q79 0 138.5 -20t103.5 -64t57 -116t0 -175l-100 -629h-133l96 608q48 302 -208 302q-137 0 -256 -97t-140 -227zM352 -454l166 339h159l-226 -339h-99z" />
    <glyph glyph-name="Ncaron" unicode="&#x147;" horiz-adv-x="1442" 
d="M629 1810h138l222 -224l296 224h139l-386 -295h-122zM165 0l215 1358h159l628 -1175l186 1175h138l-215 -1358h-158l-631 1180l-187 -1180h-135z" />
    <glyph glyph-name="ncaron" unicode="&#x148;" horiz-adv-x="1145" 
d="M272 0h-133l154 971h129l-29 -183h3q38 80 156 148t255 68q79 0 138.5 -20t103.5 -64t57 -116t0 -175l-100 -629h-133l96 608q48 302 -208 302q-137 0 -256 -97t-140 -227zM429 1454h140l221 -224l296 224h141l-386 -294h-123z" />
    <glyph glyph-name="Omacron" unicode="&#x14c;" 
d="M1342 1616h-708l13 81h708zM206 678q51 322 256.5 518t498.5 196q295 0 437.5 -196t91.5 -520t-255.5 -517t-498.5 -193q-295 0 -438 194t-92 518zM344 678q-44 -278 66 -444t342 -166q231 0 393.5 164t206.5 444q45 284 -62.5 450t-343.5 166q-231 0 -394 -166
t-208 -448z" />
    <glyph glyph-name="omacron" unicode="&#x14d;" horiz-adv-x="1161" 
d="M1140 1242h-708l13 81h708zM158 486q36 229 193 373.5t389 144.5q230 0 343.5 -145t77.5 -373q-21 -133 -90 -247q-73 -120 -204 -196.5t-291 -76.5q-168 0 -272 80q-192 148 -146 440zM291 486q-30 -190 54.5 -307.5t245.5 -117.5q160 0 283.5 118.5t153.5 306.5
q30 191 -56.5 307.5t-246.5 116.5q-159 0 -281.5 -116.5t-152.5 -307.5z" />
    <glyph glyph-name="Ohungarumlaut" unicode="&#x150;" 
d="M206 678q51 322 256.5 518t498.5 196q295 0 437.5 -196t91.5 -520t-255.5 -517t-498.5 -193q-295 0 -438 194t-92 518zM344 678q-44 -278 66 -444t342 -166q231 0 393.5 164t206.5 444q45 284 -62.5 450t-343.5 166q-231 0 -394 -166t-208 -448zM684 1517l277 325h171
l-326 -325h-122zM998 1517l275 325h171l-325 -325h-121z" />
    <glyph glyph-name="ohungarumlaut" unicode="&#x151;" horiz-adv-x="1161" 
d="M291 486q-30 -190 54.5 -307.5t245.5 -117.5q160 0 283.5 118.5t153.5 306.5q30 191 -56.5 307.5t-246.5 116.5q-159 0 -281.5 -116.5t-152.5 -307.5zM158 486q36 229 193 373.5t389 144.5q230 0 343.5 -145t77.5 -373q-21 -133 -90 -247q-73 -120 -204 -196.5
t-291 -76.5q-168 0 -272 80q-192 148 -146 440zM502 1158l277 326h172l-326 -326h-123zM817 1158l274 326h171l-323 -326h-122z" />
    <glyph glyph-name="OE" unicode="&#x152;" horiz-adv-x="2022" 
d="M207 680q34 215 145.5 377.5t277.5 249.5t363 87q121 0 216 -36h907l-16 -99h-778l-79 -504h698l-16 -101h-698l-88 -554h793l-16 -100h-917q-106 -34 -232 -34q-302 0 -457 194.5t-103 519.5zM345 680q-44 -277 79 -445t359 -168q121 0 225 45l179 1130q-82 50 -210 50
q-243 0 -416 -167t-216 -445z" />
    <glyph glyph-name="oe" unicode="&#x153;" horiz-adv-x="1989" 
d="M262 486q-30 -190 54.5 -307.5t245.5 -117.5q152 0 273 108.5t158 283.5q1 13 5 39q6 30 6 32q17 175 -69.5 280.5t-238.5 105.5q-159 0 -281.5 -116.5t-152.5 -307.5zM129 486q36 229 193 373.5t389 144.5q149 0 251 -63t146 -176q82 113 205.5 176t269.5 63
q147 0 249 -64.5t143.5 -174.5t19.5 -249q-9 -43 -15 -67h-855q-1 -7 -5 -21q-17 -158 68 -262.5t251 -104.5q111 0 210 47.5t160 125.5l108 -30q-76 -109 -203.5 -173.5t-289.5 -64.5q-149 0 -253 63.5t-150 178.5q-77 -108 -201 -175t-273 -67q-168 0 -272 80
q-192 148 -146 440zM1140 536h725q25 159 -56.5 266.5t-240.5 107.5q-163 0 -282 -109t-146 -265z" />
    <glyph glyph-name="Racute" unicode="&#x154;" horiz-adv-x="1344" 
d="M162 -16l217 1367h599q222 0 333.5 -106t85.5 -272q-19 -119 -92.5 -203.5t-174.5 -126.5q82 -47 109 -128.5t17 -194.5l-3 -31q0 -4 -0.5 -10.5t-0.5 -9.5l-2 -25q-7 -58 -6.5 -117t16.5 -91l41 -52h-165q-20 54 -22.5 122.5t6.5 207.5q7 65 -2.5 113t-40 85.5
t-90.5 56.5t-150 19h-447l-96 -604h-132zM408 698h465q169 0 269.5 71.5t120.5 201.5q20 125 -60.5 198t-262.5 73h-446zM683 1478l321 348h194l-379 -348h-136z" />
    <glyph glyph-name="racute" unicode="&#x155;" horiz-adv-x="771" 
d="M272 0h-133l154 971h126l-25 -154q50 78 143 132.5t213 54.5q98 0 158 -27l-17 -103q-77 28 -157 28q-147 0 -248 -95t-126 -251zM496 1160l289 318h184l-355 -318h-118z" />
    <glyph glyph-name="uni0156" unicode="&#x156;" horiz-adv-x="1344" 
d="M162 -16l217 1367h599q222 0 333.5 -106t85.5 -272q-19 -119 -92.5 -203.5t-174.5 -126.5q82 -47 109 -128.5t17 -194.5l-3 -31q0 -4 -0.5 -10.5t-0.5 -9.5l-2 -25q-7 -58 -6.5 -117t16.5 -91l41 -52h-165q-20 54 -22.5 122.5t6.5 207.5q7 65 -2.5 113t-40 85.5
t-90.5 56.5t-150 19h-447l-96 -604h-132zM408 698h465q169 0 269.5 71.5t120.5 201.5q20 125 -60.5 198t-262.5 73h-446zM449 -464l182 362h165l-237 -362h-110z" />
    <glyph glyph-name="uni0157" unicode="&#x157;" horiz-adv-x="785" 
d="M288 0h-134l154 971h126l-25 -154q49 78 142 132.5t212 54.5q101 0 159 -27l-17 -103q-77 28 -158 28q-145 0 -245.5 -95t-125.5 -251zM-24 -454l165 339h159l-226 -339h-98z" />
    <glyph glyph-name="Rcaron" unicode="&#x158;" horiz-adv-x="1344" 
d="M162 -16l217 1367h599q222 0 333.5 -106t85.5 -272q-19 -119 -92.5 -203.5t-174.5 -126.5q82 -47 109 -128.5t17 -194.5l-3 -31q0 -4 -0.5 -10.5t-0.5 -9.5l-2 -25q-7 -58 -6.5 -117t16.5 -91l41 -52h-165q-20 54 -22.5 122.5t6.5 207.5q7 65 -2.5 113t-40 85.5
t-90.5 56.5t-150 19h-447l-96 -604h-132zM408 698h465q169 0 269.5 71.5t120.5 201.5q20 125 -60.5 198t-262.5 73h-446zM481 1800h160l231 -224l300 224h161l-423 -322h-109z" />
    <glyph glyph-name="rcaron" unicode="&#x159;" horiz-adv-x="860" 
d="M307 0h-134l154 971h126l-25 -154q49 78 142 132.5t212 54.5q100 0 159 -27l-17 -103q-77 28 -158 28q-145 0 -245.5 -95t-125.5 -251zM322 1454h140l222 -224l295 224h138l-383 -294h-123z" />
    <glyph glyph-name="Sacute" unicode="&#x15a;" horiz-adv-x="1308" 
d="M777 1512l309 326h163l-364 -326h-108zM106 225l139 50q46 -100 161.5 -160t270.5 -60q202 0 331.5 70.5t151.5 210.5l1 2q16 102 -84 168t-327 130l-105 32q-92 31 -161 63q-68 31 -116 74q-42 40 -65 103t-12 134q27 167 187 264t405 97q181 0 312.5 -75.5
t176.5 -187.5l-128 -42q-48 87 -147.5 137.5t-236.5 50.5q-194 0 -312.5 -65t-136.5 -179q-16 -101 83.5 -167.5t326.5 -131.5q164 -46 267 -94q69 -32 115 -74q42 -41 65.5 -103.5t12.5 -133.5q-30 -187 -196.5 -293t-430.5 -106q-197 0 -337 77t-211 209z" />
    <glyph glyph-name="sacute" unicode="&#x15b;" horiz-adv-x="1039" 
d="M535 1147l317 338h183l-378 -338h-122zM72 167l130 43q36 -73 125.5 -116t212.5 -43q156 0 252.5 47t111.5 142v2q11 67 -65 111t-255 89l-94 27q-68 22 -114 43q-58 25 -94 54q-35 30 -55 77.5t-12 100.5q19 124 147.5 196.5t323.5 72.5q149 0 257 -59.5t142 -143.5
l-120 -38q-35 64 -112 99.5t-187 35.5q-149 0 -236.5 -43t-99.5 -120q-4 -28 7 -51.5t35 -43t66 -38.5t90.5 -34.5t117.5 -34.5q142 -37 212 -68q59 -26 94 -54q35 -30 54.5 -77t11.5 -101q-22 -139 -154.5 -217.5t-343.5 -78.5q-162 0 -277 60t-171 161z" />
    <glyph glyph-name="Scedilla" unicode="&#x15e;" horiz-adv-x="1308" 
d="M577 -427q-113 0 -207 30l11 71q112 -33 207 -33q76 0 139 29t70 71q8 50 -53 74t-194 21l47 104q-175 12 -300.5 87.5t-190.5 197.5l139 50q46 -100 161.5 -160t270.5 -60q202 0 331.5 70.5t151.5 210.5l1 2q16 102 -84 168t-327 130l-105 32q-92 31 -161 63
q-68 31 -116 74q-42 40 -65 103t-12 134q27 167 187 264t405 97q181 0 312.5 -75.5t176.5 -187.5l-128 -42q-48 87 -147.5 137.5t-236.5 50.5q-194 0 -312.5 -65t-136.5 -179q-16 -101 83.5 -167.5t326.5 -131.5q164 -46 267 -94q69 -32 115 -74q42 -41 65.5 -103.5
t12.5 -133.5q-25 -160 -153 -262t-333 -128q-17 -6 -74 -7q-8 -1 -21 -1l-23 -50q115 -3 171.5 -42.5t45.5 -108.5q-12 -73 -99.5 -119.5t-217.5 -46.5z" />
    <glyph glyph-name="scedilla" unicode="&#x15f;" horiz-adv-x="1039" 
d="M431 -433q-115 0 -214 32l14 83q116 -35 213 -35q73 0 133.5 27t67.5 67q8 48 -53.5 70.5t-196.5 18.5l54 119q-135 13 -231.5 71t-145.5 147l130 43q36 -73 125.5 -116t212.5 -43q156 0 252.5 47t111.5 142v2q11 67 -65 111t-255 89l-94 27q-68 22 -114 43
q-58 25 -94 54q-35 30 -55 77.5t-12 100.5q19 124 147.5 196.5t323.5 72.5q149 0 257 -59.5t142 -143.5l-120 -38q-35 64 -112 99.5t-187 35.5q-149 0 -236.5 -43t-99.5 -120q-4 -28 7 -51.5t35 -43t66 -38.5t90.5 -34.5t117.5 -34.5q142 -37 212 -68q59 -26 94 -54
q35 -30 54.5 -77t11.5 -101q-21 -132 -141.5 -209.5t-313.5 -85.5l-24 -51q112 -4 167.5 -45.5t44.5 -111.5q-12 -76 -100 -124t-220 -48z" />
    <glyph glyph-name="Scaron" unicode="&#x160;" horiz-adv-x="1308" 
d="M535 1811h125l246 -231l318 231h126l-406 -299h-102zM106 225l139 50q46 -100 161.5 -160t270.5 -60q202 0 331.5 70.5t151.5 210.5l1 2q16 102 -84 168t-327 130l-105 32q-92 31 -161 63q-68 31 -116 74q-42 40 -65 103t-12 134q27 167 187 264t405 97
q181 0 312.5 -75.5t176.5 -187.5l-128 -42q-48 87 -147.5 137.5t-236.5 50.5q-194 0 -312.5 -65t-136.5 -179q-16 -101 83.5 -167.5t326.5 -131.5q164 -46 267 -94q69 -32 115 -74q42 -41 65.5 -103.5t12.5 -133.5q-30 -187 -196.5 -293t-430.5 -106q-197 0 -337 77
t-211 209z" />
    <glyph glyph-name="scaron" unicode="&#x161;" horiz-adv-x="1039" 
d="M328 1459h143l245 -229l314 229h144l-419 -312h-107zM72 167l130 43q36 -73 125.5 -116t212.5 -43q156 0 252.5 47t111.5 142v2q11 67 -65 111t-255 89l-94 27q-68 22 -114 43q-58 25 -94 54q-35 30 -55 77.5t-12 100.5q19 124 147.5 196.5t323.5 72.5q149 0 257 -59.5
t142 -143.5l-120 -38q-35 64 -112 99.5t-187 35.5q-149 0 -236.5 -43t-99.5 -120q-4 -28 7 -51.5t35 -43t66 -38.5t90.5 -34.5t117.5 -34.5q142 -37 212 -68q59 -26 94 -54q35 -30 54.5 -77t11.5 -101q-22 -139 -154.5 -217.5t-343.5 -78.5q-162 0 -277 60t-171 161z" />
    <glyph glyph-name="uni0162" unicode="&#x162;" horiz-adv-x="1263" 
d="M764 1259h-490l16 99h1113l-16 -99h-487l-199 -1259h-21l-46 -98q107 -5 159.5 -44.5t42.5 -104.5q-11 -74 -96 -121t-218 -47q-100 0 -202 27l12 78q111 -28 201 -28q68 0 127.5 28t66.5 68q7 46 -56 70t-179 22l75 163z" />
    <glyph glyph-name="uni0163" unicode="&#x163;" horiz-adv-x="738" 
d="M391 876h-207l15 95h207l50 319h130l-50 -319h292l-15 -95h-292l-95 -601q-16 -95 21.5 -137t134.5 -42h109l-15 -96h-142l-37 -83q95 -11 143 -53t38 -106q-12 -73 -86 -118.5t-201 -45.5q-89 0 -177 20l12 76q92 -21 177 -21q68 0 112 25.5t51 69.5q15 94 -214 105
l67 149q-157 50 -125 246z" />
    <glyph glyph-name="Tcaron" unicode="&#x164;" horiz-adv-x="1263" 
d="M764 1259h-490l16 99h1113l-16 -99h-487l-199 -1259h-136zM524 1810h139l222 -224l295 224h139l-386 -295h-122z" />
    <glyph glyph-name="tcaron" unicode="&#x165;" horiz-adv-x="1264" 
d="M391 876h-207l15 95h207l50 319h133l-50 -319h300l-15 -95h-300l-95 -601q-16 -96 20.5 -138.5t132.5 -40.5l119 2l-16 -98h-135q-146 -2 -211.5 64t-44.5 200zM620 1064l170 345h154l-222 -345h-102z" />
    <glyph glyph-name="Umacron" unicode="&#x16a;" horiz-adv-x="1431" 
d="M1330 1616h-708l13 81h708zM241 482l139 876h134l-138 -870q-32 -205 62.5 -312.5t287.5 -107.5t321 108.5t160 311.5l138 870h136l-139 -876q-38 -245 -202.5 -380.5t-429.5 -135.5q-262 0 -385 134t-84 382z" />
    <glyph glyph-name="umacron" unicode="&#x16b;" horiz-adv-x="1137" 
d="M1112 1242h-707l13 81h707zM193 338l100 633h130l-96 -605q-48 -305 219 -305q155 0 260 102t129 253l88 555h129l-154 -971h-128l28 174q-24 -60 -116 -127q-109 -81 -284 -81q-169 0 -251 98t-54 274z" />
    <glyph glyph-name="Uring" unicode="&#x16e;" horiz-adv-x="1431" 
d="M701 1668q15 97 106 164t213 67q121 0 190 -67t54 -164t-107 -164.5t-211 -67.5t-189.5 67.5t-55.5 164.5zM241 482l139 876h134l-138 -870q-32 -205 62.5 -312.5t287.5 -107.5t321 108.5t160 311.5l138 870h136l-139 -876q-38 -245 -202.5 -380.5t-429.5 -135.5
q-262 0 -385 134t-84 382zM801 1668q-10 -65 34.5 -109.5t123.5 -44.5t136.5 43t67.5 111q11 67 -32 110.5t-123 43.5t-138 -44.5t-69 -109.5z" />
    <glyph glyph-name="uring" unicode="&#x16f;" horiz-adv-x="1137" 
d="M510 1384q15 97 106 164.5t213 67.5q120 0 189.5 -68.5t54.5 -163.5q-15 -97 -107 -165t-211 -68q-118 0 -189 68t-56 165zM193 338l100 633h130l-96 -605q-48 -305 219 -305q155 0 260 102t129 253l88 555h129l-154 -971h-128l28 174q-24 -60 -116 -127
q-109 -81 -284 -81q-169 0 -251 98t-54 274zM608 1384q-11 -65 35 -110t125 -45q80 0 136 43t67 112q11 65 -32 109.5t-122 44.5q-80 0 -139.5 -45t-69.5 -109z" />
    <glyph glyph-name="Uhungarumlaut" unicode="&#x170;" horiz-adv-x="1431" 
d="M241 482l139 876h134l-138 -870q-32 -205 62.5 -312.5t287.5 -107.5t321 108.5t160 311.5l138 870h136l-139 -876q-38 -245 -202.5 -380.5t-429.5 -135.5q-262 0 -385 134t-84 382zM659 1517l280 325h171l-328 -325h-123zM973 1517l275 325h173l-326 -325h-122z" />
    <glyph glyph-name="uhungarumlaut" unicode="&#x171;" horiz-adv-x="1130" 
d="M193 338l100 633h130l-96 -605q-48 -305 219 -305q155 0 260 102t129 253l88 555h129l-154 -971h-128l28 174q-24 -60 -116 -127q-109 -81 -284 -81q-169 0 -251 98t-54 274zM464 1158l277 326h171l-327 -326h-121zM777 1158l275 326h172l-325 -326h-122z" />
    <glyph glyph-name="Uogonek" unicode="&#x172;" horiz-adv-x="1431" 
d="M241 482l139 876h134l-138 -870q-32 -205 62.5 -312.5t287.5 -107.5t321 108.5t160 311.5l138 870h136l-139 -876q-35 -224 -175.5 -357t-367.5 -155q-202 -109 -216 -188q-5 -37 18.5 -55.5t76.5 -18.5q49 0 142 27l-13 -81q-71 -24 -165 -24q-102 0 -147.5 34
t-34.5 102q17 100 199 201q-237 14 -346 147t-72 368z" />
    <glyph glyph-name="uogonek" unicode="&#x173;" horiz-adv-x="1096" 
d="M193 338l100 633h130l-96 -605q-48 -305 219 -305q155 0 260 102t129 253l88 555h129l-153 -967h1q-1 0 -2 -1v-3h-6q-256 -129 -270 -216q-12 -74 95 -74q47 0 143 27l-12 -80q-74 -25 -166 -25q-204 0 -183 136q10 63 88.5 126.5t182.5 109.5h1l27 170
q-24 -60 -116 -127q-109 -81 -284 -81q-169 0 -251 98t-54 274z" />
    <glyph glyph-name="Wcircumflex" unicode="&#x174;" horiz-adv-x="1813" 
d="M742 1515l392 299h121l302 -299h-147l-226 229l-299 -229h-143zM235 1358h150l112 -1227h9l538 1227h152l154 -1227h6l502 1227h150l-593 -1358h-160l-152 1213h-6l-536 -1213h-161z" />
    <glyph glyph-name="wcircumflex" unicode="&#x175;" horiz-adv-x="1580" 
d="M562 1160l392 300h121l303 -300h-147l-227 230l-298 -230h-144zM203 971h147l110 -867h9l395 867h160l120 -867h6l386 867h148l-471 -971h-166l-121 850h-5l-388 -850h-168z" />
    <glyph glyph-name="Ycircumflex" unicode="&#x176;" horiz-adv-x="1311" 
d="M487 1515l393 299h120l304 -299h-147l-228 229l-298 -229h-144zM241 1358h163l354 -692h5l573 692h164l-685 -798l-89 -560h-136l89 560z" />
    <glyph glyph-name="ycircumflex" unicode="&#x177;" horiz-adv-x="1097" 
d="M334 1160l392 300h121l303 -300h-146l-228 230l-298 -230h-144zM101 -434l15 94h38q80 0 144.5 45.5t122.5 150.5l65 118l-283 997h152l215 -857h6l475 857h150l-671 -1147q-80 -138 -168.5 -198t-199.5 -60h-61z" />
    <glyph glyph-name="Ydieresis" unicode="&#x178;" horiz-adv-x="1311" 
d="M589 1584l25 161h195l-25 -161h-195zM241 1358h163l354 -692h5l573 692h164l-685 -798l-89 -560h-136l89 560zM1024 1584l25 161h195l-25 -161h-195z" />
    <glyph glyph-name="Zacute" unicode="&#x179;" horiz-adv-x="1304" 
d="M103 0l14 89l1096 1170h-843l16 99h1009l-14 -88l-1101 -1170h940l-16 -100h-1101zM750 1515l291 319h183l-355 -319h-119z" />
    <glyph glyph-name="zacute" unicode="&#x17a;" horiz-adv-x="1055" 
d="M972 0h-867l12 77l806 799h-622l15 95h791l-12 -75l-812 -800h704zM581 1160l290 318h182l-355 -318h-117z" />
    <glyph glyph-name="Zdotaccent" unicode="&#x17b;" horiz-adv-x="1304" 
d="M103 0l14 89l1096 1170h-843l16 99h1009l-14 -88l-1101 -1170h940l-16 -100h-1101zM838 1584l26 164h197l-26 -164h-197z" />
    <glyph glyph-name="zdotaccent" unicode="&#x17c;" horiz-adv-x="1055" 
d="M972 0h-867l12 77l806 799h-622l15 95h791l-12 -75l-812 -800h704zM652 1229l26 165h198l-26 -165h-198z" />
    <glyph glyph-name="Zcaron" unicode="&#x17d;" horiz-adv-x="1304" 
d="M103 0l14 89l1096 1170h-843l16 99h1009l-14 -88l-1101 -1170h940l-16 -100h-1101zM562 1810h138l222 -224l296 224h139l-386 -295h-122z" />
    <glyph glyph-name="zcaron" unicode="&#x17e;" horiz-adv-x="1055" 
d="M972 0h-867l12 77l806 799h-622l15 95h791l-12 -75l-812 -800h704zM392 1454h138l222 -224l296 224h139l-384 -294h-123z" />
    <glyph glyph-name="uni018F" unicode="&#x18f;" horiz-adv-x="1462" 
d="M193 618q5 34 17 104h1125q33 268 -74 419t-353 151q-284 0 -476 -219l-108 42q99 131 256 205t346 74q222 0 357 -96q257 -184 187 -622q-35 -222 -145 -384t-269 -244t-350 -82q-156 0 -271 54.5t-172 150.5q-111 184 -70 447zM330 576q-22 -151 22 -277
q82 -232 373 -232q185 0 354 121q89 64 153.5 177t88.5 258h-986q-2 -12 -2 -25q-1 -16 -3 -22z" />
    <glyph glyph-name="florin" unicode="&#x192;" horiz-adv-x="729" 
d="M44 -475q-39 0 -63 3q-31 4 -39 4l-12 5l-18 22l14 89q100 -8 129 -8q103 0 160 61t79 197l150 947h-212l18 113h212l24 153q22 142 118 214.5t240 72.5h124l-18 -114h-121q-100 0 -150 -42.5t-66 -141.5l-22 -142h278l-18 -113h-278l-151 -953q-29 -179 -124.5 -273
t-253.5 -94z" />
    <glyph glyph-name="uni0218" unicode="&#x218;" horiz-adv-x="1308" 
d="M437 -453l170 335h132l-222 -335h-80zM106 225l139 50q46 -100 161.5 -160t270.5 -60q202 0 331.5 70.5t151.5 210.5l1 2q16 102 -84 168t-327 130l-105 32q-92 31 -161 63q-68 31 -116 74q-42 40 -65 103t-12 134q27 167 187 264t405 97q181 0 312.5 -75.5t176.5 -187.5
l-128 -42q-48 87 -147.5 137.5t-236.5 50.5q-194 0 -312.5 -65t-136.5 -179q-16 -101 83.5 -167.5t326.5 -131.5q164 -46 267 -94q69 -32 115 -74q42 -41 65.5 -103.5t12.5 -133.5q-30 -187 -196.5 -293t-430.5 -106q-197 0 -337 77t-211 209z" />
    <glyph glyph-name="uni0219" unicode="&#x219;" horiz-adv-x="1039" 
d="M281 -453l170 335h134l-224 -335h-80zM72 167l130 43q36 -73 125.5 -116t212.5 -43q156 0 252.5 47t111.5 142v2q11 67 -65 111t-255 89l-94 27q-68 22 -114 43q-58 25 -94 54q-35 30 -55 77.5t-12 100.5q19 124 147.5 196.5t323.5 72.5q149 0 257 -59.5t142 -143.5
l-120 -38q-35 64 -112 99.5t-187 35.5q-149 0 -236.5 -43t-99.5 -120q-4 -28 7 -51.5t35 -43t66 -38.5t90.5 -34.5t117.5 -34.5q142 -37 212 -68q59 -26 94 -54q35 -30 54.5 -77t11.5 -101q-22 -139 -154.5 -217.5t-343.5 -78.5q-162 0 -277 60t-171 161z" />
    <glyph glyph-name="uni021A" unicode="&#x21a;" horiz-adv-x="1263" 
d="M473 -454h-99l166 339h158zM274 1259l16 99h1113l-16 -99h-487l-199 -1259h-136l199 1259h-490z" />
    <glyph glyph-name="uni021B" unicode="&#x21b;" horiz-adv-x="739" 
d="M339 -454h-100l167 339h158zM184 876l15 95h207l50 319h133l-50 -319h300l-15 -95h-300l-95 -601q-16 -96 20.5 -138.5t132.5 -40.5l119 2l-16 -98h-135q-146 -2 -211.5 64t-44.5 200l97 612h-207z" />
    <glyph glyph-name="uni0237" unicode="&#x237;" horiz-adv-x="554" 
d="M-105 -434l15 96h51q203 0 240 235l170 1074h131l-171 -1081q-25 -157 -119 -240.5t-242 -83.5h-75z" />
    <glyph glyph-name="uni0259" unicode="&#x259;" horiz-adv-x="1158" 
d="M154 455l11 67h857q26 165 -58.5 276.5t-257.5 111.5q-113 0 -210.5 -48.5t-156.5 -125.5l-107 31q168 237 489 237q236 0 350.5 -145t77.5 -380q-36 -227 -198 -370t-385 -143q-220 0 -332.5 137.5t-79.5 351.5zM282 434q-25 -159 57 -266t242 -107q159 0 276 107
t151 266h-726z" />
    <glyph glyph-name="Wgrave" unicode="&#x1e80;" horiz-adv-x="1813" 
d="M1171 1515l-250 319h180l192 -319h-122zM235 1358h150l112 -1227h9l538 1227h152l154 -1227h6l502 1227h150l-593 -1358h-160l-152 1213h-6l-536 -1213h-161z" />
    <glyph glyph-name="wgrave" unicode="&#x1e81;" horiz-adv-x="1580" 
d="M995 1158l-250 318h181l192 -318h-123zM203 971h147l110 -867h9l395 867h160l120 -867h6l386 867h148l-471 -971h-166l-121 850h-5l-388 -850h-168z" />
    <glyph glyph-name="Wacute" unicode="&#x1e82;" horiz-adv-x="1813" 
d="M1092 1515h-117l291 319h182zM235 1358h150l112 -1227h9l538 1227h152l154 -1227h6l502 1227h150l-593 -1358h-160l-152 1213h-6l-536 -1213h-161z" />
    <glyph glyph-name="wacute" unicode="&#x1e83;" horiz-adv-x="1580" 
d="M928 1158h-118l291 318h183zM203 971h147l110 -867h9l395 867h160l120 -867h6l386 867h148l-471 -971h-166l-121 850h-5l-388 -850h-168z" />
    <glyph glyph-name="Wdieresis" unicode="&#x1e84;" horiz-adv-x="1813" 
d="M1037 1584h-195l25 161h195zM235 1358h150l112 -1227h9l538 1227h152l154 -1227h6l502 1227h150l-593 -1358h-160l-152 1213h-6l-536 -1213h-161zM1279 1584l25 161h195l-25 -161h-195z" />
    <glyph glyph-name="wdieresis" unicode="&#x1e85;" horiz-adv-x="1580" 
d="M860 1227h-195l26 163h195zM203 971h147l110 -867h9l395 867h160l120 -867h6l386 867h148l-471 -971h-166l-121 850h-5l-388 -850h-168zM1100 1227l26 163h196l-26 -163h-196z" />
    <glyph glyph-name="Ygrave" unicode="&#x1ef2;" horiz-adv-x="1311" 
d="M900 1515l-250 319h179l193 -319h-122zM241 1358h163l354 -692h5l573 692h164l-685 -798l-89 -560h-136l89 560z" />
    <glyph glyph-name="ygrave" unicode="&#x1ef3;" horiz-adv-x="1097" 
d="M725 1158l-251 318h181l192 -318h-122zM101 -434l15 94h38q80 0 144.5 45.5t122.5 150.5l65 118l-283 997h152l215 -857h6l475 857h150l-671 -1147q-80 -138 -168.5 -198t-199.5 -60h-61z" />
    <glyph glyph-name="uni2010" unicode="&#x2010;" horiz-adv-x="553" 
d="M67 569l18 111h576l-18 -111h-576z" />
    <glyph glyph-name="endash" unicode="&#x2013;" horiz-adv-x="963" 
d="M90 569l18 111h963l-18 -111h-963z" />
    <glyph glyph-name="emdash" unicode="&#x2014;" horiz-adv-x="2112" 
d="M90 569l18 111h2112l-18 -111h-2112z" />
    <glyph glyph-name="uni2015" unicode="&#x2015;" horiz-adv-x="1998" 
d="M90 569l18 111h1998l-18 -111h-1998z" />
    <glyph glyph-name="quoteleft" unicode="&#x2018;" horiz-adv-x="569" 
d="M313 1124q25 161 87 269t194 199l81 -69q-97 -73 -142 -144.5t-67 -184.5h112l-33 -212h-254z" />
    <glyph glyph-name="quoteright" unicode="&#x2019;" horiz-adv-x="570" 
d="M287 961q98 72 143 144t66 185h-112l34 211h255l-23 -143q-26 -162 -88 -269t-194 -199z" />
    <glyph glyph-name="quotesinglbase" unicode="&#x201a;" horiz-adv-x="573" 
d="M78 -359q100 74 146 146t67 185h-112l33 211h255l-22 -141q-26 -161 -88 -269.5t-192 -198.5z" />
    <glyph glyph-name="quotereversed" unicode="&#x201b;" horiz-adv-x="569" 
d="M483 890q-104 91 -131 198.5t-2 269.5l23 143h254l-34 -211h-112q-14 -113 8.5 -185t96.5 -144z" />
    <glyph glyph-name="quotedblleft" unicode="&#x201c;" horiz-adv-x="993" 
d="M312 1118q26 167 92.5 285t196.5 204l79 -70q-167 -114 -210 -345h111l-33 -210h-257zM712 982l21 136q25 162 89 274t197 200l80 -69q-96 -73 -141 -145.5t-67 -185.5h110l-33 -210h-256z" />
    <glyph glyph-name="quotedblright" unicode="&#x201d;" horiz-adv-x="988" 
d="M706 947q94 71 140.5 148t67.5 195h-112l34 211h255l-22 -137q-27 -168 -92 -285.5t-194 -204.5zM287 961q95 70 139 142t66 187h-113l34 211h258l-22 -137q-26 -166 -89.5 -277.5t-195.5 -199.5z" />
    <glyph glyph-name="quotedblbase" unicode="&#x201e;" horiz-adv-x="990" 
d="M494 -373q96 72 142.5 149.5t69.5 197.5h-110l33 209h255l-21 -135q-27 -167 -92 -284.5t-193 -205.5zM78 -359q97 71 141.5 143.5t66.5 189.5h-113l33 209h258l-21 -135q-26 -162 -89 -273t-194 -201z" />
    <glyph glyph-name="uni201F" unicode="&#x201f;" horiz-adv-x="993" 
d="M484 874q-102 87 -131 205t-2 285l22 137h257l-34 -211h-111q-15 -120 6 -196t94 -147zM772 1364l22 137h256l-34 -211h-110q-13 -113 9 -185.5t95 -144.5l-103 -73q-105 88 -133 199.5t-2 277.5z" />
    <glyph glyph-name="bullet" unicode="&#x2022;" horiz-adv-x="980" 
d="M332 407l69 434h508l-69 -434h-508z" />
    <glyph glyph-name="ellipsis" unicode="&#x2026;" horiz-adv-x="1964" 
d="M228 516l34 218h243l-34 -218h-243zM952 516l34 218h242l-34 -218h-242zM1677 516l34 218h241l-34 -218h-241z" />
    <glyph glyph-name="fraction" unicode="&#x2044;" horiz-adv-x="297" 
d="M-226 -13h-103l1069 1386h102z" />
    <glyph glyph-name="uni20B9" unicode="&#x20b9;" horiz-adv-x="1196" 
d="M779 -34l-583 543l16 103h89q192 0 319 69.5t169 202.5h-624l54 114h587q-2 92 -66 160t-173 68h-352l60 114h1115l-53 -114h-487q96 -96 87 -228h399l-53 -114h-365q-46 -162 -185.5 -260t-350.5 -115l577 -543h-180z" />
    <glyph glyph-name="trademark" unicode="&#x2122;" horiz-adv-x="1127" 
d="M254 1285l10 66h417l-10 -66h-174l-74 -464h-68l74 464h-175zM667 821l84 530h63l128 -458l274 458h63l-84 -530h-63l61 384l-230 -384h-63l-110 378l-60 -378h-63z" />
    <glyph glyph-name="arrowleft" unicode="&#x2190;" horiz-adv-x="2206" 
d="M828 326l-554 333l659 331l51 -101l-241 -172h1353l-20 -121h-1353l187 -171z" />
    <glyph glyph-name="arrowup" unicode="&#x2191;" horiz-adv-x="1357" 
d="M590 -160l204 1290l-234 -189l-111 51l472 525l301 -525l-121 -51l-176 189l-204 -1290h-131z" />
    <glyph glyph-name="arrowright" unicode="&#x2192;" horiz-adv-x="2205" 
d="M1481 326l-50 99l239 171h-1352l20 121h1352l-185 172l81 101l553 -331z" />
    <glyph glyph-name="arrowdown" unicode="&#x2193;" horiz-adv-x="1357" 
d="M648 -211l-306 525l127 52l174 -187l204 1288h131l-204 -1288l236 187l105 -52z" />
    <glyph glyph-name="arrowboth" unicode="&#x2194;" horiz-adv-x="2334" 
d="M765 328l-491 331l596 330l52 -93l-222 -179h1161l-165 179l82 93l490 -330l-595 -331l-53 91l221 177h-1160l165 -177z" />
    <glyph glyph-name="arrowupdn" unicode="&#x2195;" horiz-adv-x="1365" 
d="M649 -204l-318 438l108 62l198 -171l167 1056l-252 -171l-88 62l456 439l323 -439l-109 -62l-199 171l-167 -1056l253 171l89 -62z" />
    <glyph glyph-name="uni2215" unicode="&#x2215;" horiz-adv-x="1264" 
d="M48 -271l1258 1791h132l-1261 -1791h-129z" />
    <glyph glyph-name="asteriskmath" unicode="&#x2217;" horiz-adv-x="1365" 
d="M645 146l70 444l-459 -262l-67 80l499 287l-408 287l92 81l379 -265l71 444h119l-71 -445l468 267l57 -84l-496 -285l408 -287l-91 -82l-378 262l-70 -442h-123z" />
    <glyph glyph-name="uniF8FF" unicode="&#xf8ff;" horiz-adv-x="1542" 
d="M758 60q-151 0 -279.5 75.5t-203 204.5t-74.5 280q0 152 75 280.5t203.5 203t280.5 74.5q151 0 279.5 -75t203.5 -203.5t75 -279.5q0 -152 -74.5 -281t-203.5 -204t-282 -75zM200 -164h59q50 0 71 34q10 16 10 39q0 47 -37 64q-18 9 -44 9h-59v-146zM235 -137v93h22
q31 0 43 -20q5 -9 5 -27q0 -32 -22 -42q-8 -4 -26 -4h-22zM268 621q0 -205 144 -350t348 -145q203 0 347.5 144.5t144.5 347.5q0 100 -39 191.5t-104.5 157.5t-156 105t-190.5 40q-134 0 -248 -65.5t-180 -178.5t-66 -247zM352 -109q0 -36 30 -50q16 -7 33 -7q31 0 45 16
q8 7 10 17l-31 3q-5 -9 -14 -12q-3 -1 -10 -1q-18 0 -25 13q-3 5 -3 13h85v8q0 27 -18 42q-16 14 -42 14q-36 0 -52 -27q-8 -13 -8 -29zM387 -98q2 13 12 19q4 3 14 3q17 0 23 -12l3 -10h-52zM442 719q10 -2 12 -4q52 -21 98 -27q41 -3 72 2q43 11 47 12q3 0 8.5 2.5
t7.5 3.5q-5 2 -16.5 8t-17 9t-13 8.5t-13.5 12.5h19q39 0 75 19q65 40 136 61q24 8 58 11q4 0 19.5 1t23.5 0q54 -2 89 -33q10 -11 28 -33v-2l-6 2q-45 17 -83 3.5t-62 -53.5q-7 -13 -25 -55q-9 -21 -27 -63.5t-20 -48.5q-33 -64 -65 -101q-27 -33 -66 -58q-45 -34 -116 -55
h-4h-1l24 22q12 11 25 44q41 116 45 127q24 73 57 131v3q-2 -4 -11 -13q-8 -10 -10 -12q-23 -36 -31 -57q-2 -6 -8 -6q-99 3 -177 67q-40 38 -59 55q-1 1 -5 7t-8 10zM481 -132q5 -34 56 -34q35 0 48 18q7 9 7 18q0 24 -36 30l-22 3q-16 4 -16 12q0 11 19 11q17 0 21 -14
l31 3q-5 32 -53 32q-33 0 -46 -16q-6 -7 -6 -18q0 -25 36 -31l21 -4q16 -3 16 -11q0 -11 -20 -11q-18 0 -23 14zM605 -25q0 -15 19 -15q18 0 18 15t-18 15q-19 0 -19 -15zM607 -164h34v109h-34v-109zM656 -109q0 -35 25 -48q12 -5 25 -5q18 0 29 9q5 5 7 8h1v-19
q0 -21 -25 -21q-16 0 -21 6l-6 6l-31 -3q7 -31 57 -31q37 0 52 19q9 9 9 23v110h-35v-18h-1q-6 12 -18 17q-8 3 -18 3q-30 0 -43 -25q-7 -11 -7 -31zM691 -109q0 21 12 28q8 4 15 4q16 0 22 -15q3 -7 3 -17q0 -30 -25 -30q-18 0 -24 14q-3 6 -3 16zM798 -164h34v64
q0 13 11 19q6 3 13 3q21 0 21 -22v-64h35v70q0 26 -20 36q-10 5 -23 5q-27 0 -37 -21v19h-34v-109zM927 -109q0 -34 28 -50q17 -7 33 -7q38 0 54 27q7 13 7 30q0 33 -28 49q-13 7 -33 7q-38 0 -54 -27q-7 -14 -7 -29zM962 -109q0 21 12 28q7 5 14 5q16 0 24 -16q3 -15 3 -17
q0 -20 -12 -29q-5 -4 -15 -4q-16 0 -23 15q-3 9 -3 18zM1051 -55l43 -109h39l43 109h-36l-26 -78h-1l-26 78h-36zM1177 -133q0 -21 21 -29q8 -4 21 -4q18 0 27 9q4 2 9 9v-16h33v74q0 20 -15 28q-17 9 -37 9q-30 0 -45 -15q-7 -6 -10 -17l32 -3q5 13 22 13q19 0 19 -14v-1
q0 -7 -13 -7l-17 -3q-19 0 -32 -8q-15 -8 -15 -25zM1210 -133q0 9 9 12q5 3 12 3q19 3 23 5v-11q0 -13 -12 -18q-6 -3 -14 -3q-18 0 -18 12zM1267 -16q0 16 11 26.5t27 10.5t26.5 -10.5t10.5 -26.5t-10.5 -27t-26.5 -11t-27 11t-11 27zM1279 -16q0 -11 7.5 -19t18.5 -8
t18.5 8t7.5 19t-7.5 18.5t-18.5 7.5t-18.5 -7.5t-7.5 -18.5zM1292 -33v35h14q12 0 12 -11q0 -5 -5 -10l8 -14h-10l-6 11h-5v-11h-8zM1300 -13h6q5 0 5 3t-5 3h-6v-6z" />
    <glyph glyph-name="_Designova" horiz-adv-x="1692" 
d="M844 -121q-174 0 -322.5 87t-235 235.5t-86.5 323.5q1 131 52 250.5t137.5 205.5t206 137t250.5 51q175 0 323.5 -86t235.5 -234.5t87 -323.5q0 -176 -87 -324.5t-236 -235t-325 -86.5zM278 525q0 -116 45 -221.5t120.5 -181.5t181 -121t221.5 -45q154 0 285 76t207 207
t76 285q0 116 -45 221.5t-120.5 181.5t-180.5 121t-221 45t-221 -45t-181.5 -120.5t-121.5 -181t-45 -221.5zM480 638q7 0 13 -4q58 -22 115 -31q45 -5 81 3q29 4 53 14q5 0 11.5 3t8.5 4q-5 3 -22.5 11.5t-27.5 15.5t-19 17h21q39 0 86 20q85 53 158 73q37 10 66 10
q6 0 24.5 1.5t26.5 0.5q67 -4 102 -39q6 -5 33 -37v-2q-3 2 -7 2q-53 20 -95.5 4.5t-71.5 -59.5q-5 -9 -10 -20.5t-11 -25t-9 -21.5q-6 -14 -25 -59t-30 -68q-36 -74 -74 -119q-20 -27 -74 -66q-52 -38 -136 -63h-7l28 24q18 17 30 51q7 20 25 71t27 78q31 90 65 150v1
q-3 -3 -11 -13q-9 -7 -11 -16q-23 -27 -38 -65q-3 -5 -9 -5q-117 5 -204 78q-10 10 -32.5 31t-33.5 32q-12 14 -16 18z" />
    <glyph glyph-name="_Origin" horiz-adv-x="2221" 
d="M133 929v50h1955v-50h-1955zM133 110v50h1955v-50h-1955zM211 311v177h42v-177h-42zM243 608v177h148v-32h-107v-39h97v-31h-97v-42h107v-33h-148zM281 311v177h34l89 -107v107h40v-177h-33l-88 109v-109h-42zM421 608v177h34l88 -107v107h40v-177h-33l-88 109v-109h-41z
M537 311v177h87q72 0 72 -45q0 -28 -26 -40q3 0 3 -2q28 -12 28 -42q0 -48 -71 -48h-93zM579 342h48q32 0 32 22t-32 22h-48v-44zM579 419h42q33 0 33 20q0 22 -33 22h-42v-42zM612 753v32h156v-32h-57v-145h-41v145h-58zM721 311v177h148v-33h-107v-38h96v-31h-96v-41h105
v-34h-146zM786 785h44l40 -124l42 124h38l40 -126l42 126h39l-57 -177h-45l-39 121l-41 -121h-43zM897 311v177h81q28 0 42 -6q36 -19 36 -57q0 -21 -10 -35q-15 -18 -29 -23l37 -56h-43l-35 50h-37v-50h-42zM939 394h37q38 0 38 31q0 30 -38 30h-37v-61zM1076 311v177h40
v-143h106v-34h-146zM1079 697q0 39 28 65q26 26 69 26t69 -26q28 -25 28 -65q0 -39 -28 -65q-25 -27 -68 -27q-45 0 -70 27q-28 28 -28 65zM1121 697q0 -25 15.5 -40.5t39.5 -15.5t39.5 15.5t15.5 40.5t-15.5 41.5t-39.5 16.5t-39.5 -16.5t-15.5 -41.5zM1251 311v177h41
v-177h-41zM1296 608v177h81q28 0 41 -6q36 -17 36 -57q0 -21 -10 -35q-9 -15 -29 -23l39 -56h-45l-33 50h-39v-50h-41zM1321 311v177h35l87 -107v107h42v-177h-34l-89 109v-109h-41zM1337 691h37q38 0 38 31t-38 31h-37v-62zM1474 608v177h148v-32h-107v-39h96v-31h-96v-75
h-41zM1511 335q0 24 25 24q10 0 17 -7t7 -17q0 -11 -7 -25l-14 -38h-26l12 41q-14 5 -14 22zM1638 608v177h147v-32h-106v-39h95v-31h-95v-42h106v-33h-147zM1661 311v177h80q30 0 52 -11q46 -21 46 -77q0 -28 -12 -47q-23 -42 -86 -42h-80zM1703 345h37q17 0 31 7
q26 14 26 48q0 21 -6 29q-14 26 -51 26h-37v-110zM1815 608v177h33l90 -107v107h40v-177h-34l-89 109v-109h-40zM1863 311v177h147v-33h-107v-38h97v-31h-97v-41h106v-34h-146z" />
    <glyph glyph-name="_VendorID" horiz-adv-x="1116" 
d="M73 -4v1187h974v-1187h-974zM76 -95q0 13 7.5 20.5t18.5 7.5q9 0 12 -3l4 -5v26h13v-72h-13v9l-4 -7q-8 -5 -15 -5q-23 0 -23 29zM90 -95q0 -17 13 -17q15 0 15 17v1q0 18 -13 18q-15 0 -15 -19zM126 47h869v1084h-869v-1084zM141 -95q0 13 7.5 20.5t19.5 7.5
q11 0 18.5 -7.5t7.5 -19.5q0 -2 -2 -5h-37q1 -13 13 -13q10 0 12 9h12q-4 -21 -24 -21q-27 0 -27 29zM155 -91h25q-3 15 -12 15q-12 0 -13 -15zM198 -106h14q3 -9 9 -9q9 0 9 7q0 3 -12 9q-18 5 -18 16q0 16 21 16t21 -16h-14q-1 7 -7 7q-7 0 -7 -6q0 -4 12 -9q17 -5 17 -15
q0 -18 -22 -18q-20 0 -23 18zM240 297q0 59 46 125l97 137h64l-84 -120q11 3 23 3q62 0 102.5 -41.5t40.5 -103.5q0 -61 -41.5 -103.5t-101.5 -42.5q-61 0 -103.5 42.5t-42.5 103.5zM240 768q0 56 46 123l97 142h64l-84 -122q7 2 23 2q63 0 103 -41t40 -104
q0 -61 -41 -102.5t-102 -41.5t-103.5 42t-42.5 102zM251 -56q0 7 8 7t8 -7q0 -8 -8 -8t-8 8zM252 -121v54h14v-54h-14zM276 -95q0 28 26 28q9 0 12 -3l4 -5v8h14v-41q0 -8 -2 -11q0 -24 -27 -24q-26 0 -26 18v1h14v-1q0 -8 12 -8q11 0 15 13v8l-4 -7q-8 -2 -14 -2
q-24 0 -24 26zM291 -94q0 -18 12 -18q15 0 15 17v1q0 18 -15 18q-12 0 -12 -18zM294 297q0 -42 25.5 -68t66.5 -26q39 0 64.5 26t25.5 68q0 40 -25.5 65t-64.5 25q-41 0 -66.5 -25t-25.5 -65zM294 768q0 -41 25.5 -67t66.5 -26q39 0 64.5 26.5t25.5 66.5t-25.5 66t-64.5 26
q-41 0 -66.5 -25t-25.5 -67zM343 -121v54h14v-10l4 7q5 3 13 3q17 0 20 -15q1 -3 1 -9v-30h-15v34q0 11 -10 11q-13 0 -13 -21v-24h-14zM402 -95q0 13 7.5 20.5t19.5 7.5q28 0 28 -28q0 -29 -28 -29q-12 0 -19.5 8t-7.5 21zM416 -95q0 -17 13 -17q15 0 15 17q0 19 -15 19
q-13 0 -13 -19zM462 -67h14l14 -45l13 45h14l-19 -54h-18zM522 -106q0 16 30 16h3v7q0 7 -9 7q-11 0 -11 -9h-13q0 18 24 18q19 0 21 -15v-39h-12v6l-3 -5q-8 -4 -14 -4q-16 0 -16 18zM535 -106q0 -6 8 -6q12 0 12 9v6q-20 2 -20 -9zM576 -78v9h6v8q0 15 19 15h6v-11
q-11 2 -11 -5v-7h11v-9h-11v-43h-14v43h-6zM589 297q0 62 44 125l97 137h66l-86 -120q10 3 25 3q61 0 102 -41.5t41 -103.5q0 -61 -41.5 -103.5t-101.5 -42.5q-61 0 -103.5 42.5t-42.5 103.5zM589 768q0 57 44 123l97 142h66l-87 -122q8 2 26 2q61 0 102 -41.5t41 -103.5
q0 -61 -41.5 -102.5t-101.5 -41.5q-61 0 -103.5 41.5t-42.5 102.5zM611 -95q0 28 28 28q27 0 27 -28q0 -29 -27 -29q-28 0 -28 29zM625 -95q0 -17 14 -17q13 0 13 17q0 19 -13 19q-14 0 -14 -19zM642 297q0 -42 26 -68t67 -26q38 0 62.5 26t24.5 68q0 40 -24.5 65t-62.5 25
q-41 0 -67 -25t-26 -65zM642 768q0 -41 26 -67t67 -26q38 0 62.5 26t24.5 67q0 40 -24.5 66t-62.5 26q-41 0 -67 -25.5t-26 -66.5zM675 -121v54h12v-10l6 7q4 3 13 3q16 0 19 -15v-39h-14v34q-4 11 -9 11q-15 0 -15 -21v-24h-12zM732 -78v9h8v13h14v-13h10v-9h-10v-28
q2 -10 9 -6v-10h-8q-15 0 -15 10v34h-8zM768 -106h15q1 -9 10 -9q8 0 8 7q0 3 -12 9q-17 5 -17 16q0 16 20 16q19 0 24 -16h-16q0 7 -9 7q-5 0 -5 -6q0 -5 11 -9q19 -6 19 -15q0 -18 -23 -18q-21 0 -25 18zM820 -116q0 10 9 10t9 -10q0 -8 -9 -8t-9 8zM844 -95q0 13 8 20.5
t18 7.5q25 0 25 -20h-13q-3 11 -12 11q-12 0 -12 -19q0 -17 12 -17q10 0 12 9h13q-1 -21 -25 -21q-26 0 -26 29zM900 -95q0 28 29 28q26 0 26 -28q0 -29 -26 -29q-29 0 -29 29zM914 -95q0 -17 15 -17q13 0 13 17q0 19 -13 19q-15 0 -15 -19zM965 -121v54h14v-9l5 6q3 3 9 3
q13 0 18 -10l5 7q3 3 11 3q17 0 17 -12q1 -4 1 -12v-30h-13v27q0 2 -0.5 5t-0.5 4q0 9 -10 9q-9 0 -9 -18v-27h-13v36q-5 9 -10 9q-10 0 -10 -18v-27h-14z" />
    </font>
</defs>
</svg>
