<?xml version="1.0" standalone="no"?>
<!DOCTYPE svg PUBLIC "-//W3C//DTD SVG 1.1//EN" "http://www.w3.org/Graphics/SVG/1.1/DTD/svg11.dtd" >
<svg xmlns="http://www.w3.org/2000/svg" xmlns:xlink="http://www.w3.org/1999/xlink" version="1.1">
<metadata>
Created by FontForge 20170731 at Wed Nov 15 15:54:37 2023
 By Aleksey,,,
Copyright (c) 2023 by Designova. All rights reserved.
</metadata>
<defs>
<font id="LinearGrotesk-BlackItalic" horiz-adv-x="1080" >
  <font-face 
    font-family="Linear Grotesk Black Italic"
    font-weight="900"
    font-style="italic"
    font-stretch="normal"
    units-per-em="2048"
    panose-1="0 0 0 0 0 0 0 0 0 0"
    ascent="1638"
    descent="-410"
    x-height="1003"
    cap-height="1365"
    bbox="-363 -483 2405 1933"
    underline-thickness="100"
    underline-position="-355"
    unicode-range="U+0020-F8FF"
  />
<missing-glyph horiz-adv-x="1245" 
d="M195 -30l201 1269h845l-201 -1269h-845zM360 235l285 370l-168 369zM400 101h477l-177 385zM559 1109l178 -388l301 388h-479zM791 605l169 -371l117 741z" />
    <glyph glyph-name=".notdef" horiz-adv-x="1245" 
d="M195 -30l201 1269h845l-201 -1269h-845zM360 235l285 370l-168 369zM400 101h477l-177 385zM559 1109l178 -388l301 388h-479zM791 605l169 -371l117 741z" />
    <glyph glyph-name=".null" horiz-adv-x="0" 
 />
    <glyph glyph-name="nonmarkingreturn" horiz-adv-x="682" 
 />
    <glyph glyph-name="space" unicode=" " horiz-adv-x="360" 
 />
    <glyph glyph-name="space" unicode="&#xa0;" horiz-adv-x="360" 
 />
    <glyph glyph-name="exclam" unicode="!" horiz-adv-x="650" 
d="M247 252l147 1013h260l-174 -1013h-233zM134 -100l49 308h350l-49 -308h-350z" />
    <glyph glyph-name="quotedbl" unicode="&#x22;" horiz-adv-x="1281" 
d="M669 812l347 614h319l-422 -614h-244zM301 812l346 614h320l-425 -614h-241z" />
    <glyph glyph-name="numbersign" unicode="#" horiz-adv-x="1332" 
d="M163 -79l114 342h-247l33 210h283l68 201h-252l33 210h288l114 340h233l-110 -340h283l114 340h234l-112 -340h245l-33 -210h-282l-67 -201h251l-33 -210h-287l-115 -342h-239l117 342h-283l-115 -342h-235zM583 473h283l67 201h-284z" />
    <glyph glyph-name="dollar" unicode="$" horiz-adv-x="1131" 
d="M451 -76q-82 16 -158 53t-138.5 100t-86.5 139l232 109q3 -52 50.5 -98t116 -72t137.5 -26q146 0 215 34.5t82 118.5q4 28 -2 44q-6 32 -12.5 42.5t-31.5 27.5l-12 9q-48 35 -83 49q-9 4 -21 9q-21 7 -48.5 15.5t-33.5 10.5l-85 29q-85 28 -147 60.5t-109.5 78.5
t-66.5 108t-7 140q21 132 138 229t282 122l22 141h241l-23 -145q135 -27 229.5 -109.5t81.5 -170.5l-203 -75q-44 82 -102 116.5t-160 34.5q-128 0 -190.5 -36t-74.5 -109q-11 -69 37 -108t190 -85q3 -1 9.5 -2.5t9.5 -2.5q15 -6 21 -7q0 -2 6 -3h1q108 -37 190 -77
q76 -37 112 -77q45 -44 70.5 -111.5t12.5 -142.5q-25 -158 -149.5 -251t-301.5 -115l-21 -137h-241z" />
    <glyph glyph-name="percent" unicode="%" horiz-adv-x="2071" 
d="M266 -94l1434 1366h300l-1432 -1366h-302zM296 934q17 104 89.5 187.5t179 129t225.5 45.5q185 0 293.5 -101t83.5 -261q-17 -105 -89.5 -187.5t-178 -126t-223.5 -43.5q-178 0 -291.5 99t-88.5 258zM534 934q-10 -68 36.5 -105.5t139.5 -37.5t151 37t69 106
q11 72 -33.5 110t-140.5 38q-95 0 -153 -38.5t-69 -109.5zM1097 245q17 104 89 187t178 128t225 45q183 0 293.5 -101t85.5 -259t-168 -259t-325 -101q-179 0 -291 100.5t-87 259.5zM1337 245q-11 -71 35 -109t137 -38q93 0 152 39t70 108q11 70 -34 107t-142 37
q-195 0 -218 -144z" />
    <glyph glyph-name="ampersand" unicode="&#x26;" horiz-adv-x="1345" 
d="M556 -25q-235 0 -359.5 119t-93.5 314q22 138 112.5 247t273.5 216q-60 96 -81 166.5t-10 142.5q23 147 135.5 239.5t268.5 92.5q151 0 231 -89t58 -232q-17 -106 -82.5 -195t-189.5 -173l222 -325q41 96 58 251h226q-23 -254 -153 -444l209 -305h-290l-87 125
q-199 -150 -448 -150zM331 408q-16 -100 51.5 -154.5t208.5 -54.5q178 0 298 93l-284 407q-139 -75 -200 -139.5t-74 -151.5zM625 1180q-5 -33 11.5 -73.5t66.5 -115.5q144 94 161 200q7 47 -18.5 73t-81.5 26q-59 0 -95 -29t-44 -81z" />
    <glyph glyph-name="quotesingle" unicode="'" horiz-adv-x="911" 
d="M301 812l344 614h320l-421 -614h-243z" />
    <glyph glyph-name="parenleft" unicode="(" horiz-adv-x="748" 
d="M460 -361q-354 377 -267 921q87 551 559 926l198 -96q-134 -120 -197 -187.5t-142 -182.5q-131 -190 -174 -460q-47 -286 41 -485q5 -13 17.5 -43t15 -35.5t15 -29.5t21 -36.5t30 -44.5t46 -65.5t64.5 -88.5z" />
    <glyph glyph-name="parenright" unicode=")" horiz-adv-x="747" 
d="M-19 -271q59 62 120 120q76 76 153 167q58 75 99 145q43 78 81.5 185t55.5 214q42 264 -28 457q-43 113 -85.5 182t-138.5 191l227 96q354 -374 267 -926q-87 -543 -559 -921z" />
    <glyph glyph-name="asterisk" unicode="*" horiz-adv-x="1553" 
d="M1099 122l-259 299l-343 -290l-192 127l342 274l-369 110l132 206l363 -117l37 309h261l-61 -309l400 117l67 -206l-406 -110l254 -271z" />
    <glyph glyph-name="plus" unicode="+" horiz-adv-x="1436" 
d="M617 104l59 369h-453l34 215h453l56 352h237l-56 -352h450l-34 -215h-450l-59 -369h-237z" />
    <glyph glyph-name="comma" unicode="," horiz-adv-x="849" 
d="M26 -391l346 612h318l-423 -612h-241z" />
    <glyph glyph-name="hyphen" unicode="-" horiz-adv-x="1291" 
d="M188 473l34 215h1065l-34 -215h-1065z" />
    <glyph glyph-name="period" unicode="." horiz-adv-x="651" 
d="M138 -86l49 307h347l-49 -307h-347z" />
    <glyph glyph-name="slash" unicode="/" horiz-adv-x="889" 
d="M-43 -193l907 1554h253l-905 -1554h-255z" />
    <glyph glyph-name="zero" unicode="0" horiz-adv-x="1120" 
d="M555 -32q-141 0 -241 78q-61 47 -101 123q-42 79 -53.5 207t14.5 306q25 162 77.5 293.5t116.5 210.5q61 76 138 125q133 84 274 84q237 0 336 -190t46 -523q-53 -336 -212.5 -525t-394.5 -189zM479 682q-76 -487 112 -487q187 0 263 487q76 484 -110 484
q-189 0 -265 -484z" />
    <glyph glyph-name="one" unicode="1" horiz-adv-x="729" 
d="M374 0l160 1013l-335 -175l47 301l434 226h193l-216 -1365h-283z" />
    <glyph glyph-name="two" unicode="2" horiz-adv-x="1040" 
d="M64 0q26 164 146 328q45 63 126 139q130 123 270 228q11 8 37 28q168 131 190 275q13 78 -23.5 123t-108.5 45q-164 0 -256 -227l-239 71q72 182 208.5 283.5t324.5 101.5q206 0 317.5 -110.5t82.5 -292.5q-18 -115 -87.5 -209.5t-199.5 -197.5q-15 -11 -112 -87
q-190 -149 -279 -271h549l-36 -227h-910z" />
    <glyph glyph-name="three" unicode="3" horiz-adv-x="1115" 
d="M539 -30q-185 0 -304 94.5t-135 235.5l249 80q47 -183 221 -183q91 0 158 54.5t82 145.5q13 85 -44.5 140.5t-163.5 55.5q-72 0 -144 -6l36 225q45 -4 136 -4q83 0 148 51t79 136q12 76 -29 123.5t-115 47.5q-141 0 -234 -188l-230 68q64 159 201.5 254t315.5 95
q207 0 317 -104.5t84 -269.5q-15 -97 -78.5 -178t-152.5 -127q94 -35 148 -120t36 -199q-31 -198 -188.5 -312.5t-392.5 -114.5z" />
    <glyph glyph-name="four" unicode="4" horiz-adv-x="1143" 
d="M641 -9l44 279h-582l35 223l763 880h253l-138 -877h160l-36 -226h-160l-44 -279h-295zM415 496h306l47 301q15 91 32 158h-9q-65 -89 -103 -134z" />
    <glyph glyph-name="five" unicode="5" horiz-adv-x="1121" 
d="M541 -30q-171 0 -276 81t-142 222l259 82q16 -68 66.5 -113t115.5 -45q97 0 165.5 63.5t86.5 173.5q16 104 -34.5 171.5t-143.5 67.5q-125 0 -233 -126l-177 67l197 751h769l-36 -229h-498l-82 -289q86 51 197 51q190 0 286.5 -124.5t63.5 -333.5q-29 -179 -166 -318
q-70 -70 -179.5 -111t-238.5 -41z" />
    <glyph glyph-name="six" unicode="6" horiz-adv-x="1112" 
d="M562 -30q-108 0 -195.5 38.5t-132.5 107.5q-122 173 -69 511q35 217 115 385q83 174 225.5 278.5t317.5 104.5q314 0 394 -305l-244 -74q-57 150 -183 150q-142 0 -235 -195q-38 -77 -57 -151q100 91 246 91q198 0 301 -131.5t71 -336.5q-34 -212 -182.5 -342.5
t-371.5 -130.5zM443 441q-18 -115 22.5 -179.5t125.5 -64.5q83 0 143.5 63.5t78.5 180.5q19 120 -20 182t-125 62q-87 0 -147 -64.5t-78 -179.5z" />
    <glyph glyph-name="seven" unicode="7" horiz-adv-x="1017" 
d="M181 -9q209 586 638 1139h-600l37 235h945l-29 -187q-394 -462 -683 -1187h-308z" />
    <glyph glyph-name="eight" unicode="8" horiz-adv-x="1131" 
d="M560 -30q-139 0 -243.5 47.5t-157 142.5t-32.5 222q13 90 71 166q51 68 101 103.5t117 62.5q-178 113 -149 293q28 170 175.5 279t343.5 109q198 0 309.5 -109t84.5 -279q-29 -181 -242 -293q100 -45 153 -129.5t35 -202.5q-30 -185 -186.5 -298.5t-379.5 -113.5z
M434 397q-14 -86 31 -143t131 -57q85 0 147 57t76 143q13 82 -30.5 142t-128.5 60t-149 -59t-77 -143zM572 997q-12 -77 22.5 -125t101.5 -48q68 0 116 48t60 125q12 74 -20.5 121.5t-101.5 47.5q-68 0 -117.5 -47.5t-60.5 -121.5z" />
    <glyph glyph-name="nine" unicode="9" horiz-adv-x="1108" 
d="M501 -30q-154 0 -260.5 88.5t-131.5 212.5l250 73q60 -147 180 -147q62 0 115.5 33t90.5 92q64 102 91 234q-107 -92 -249 -92q-190 0 -294 127.5t-71 335.5q32 207 185.5 337.5t366.5 130.5q176 0 280 -104.5t119 -283.5q10 -113 -13 -264q-60 -378 -227 -575.5
t-432 -197.5zM522 928q-17 -111 20 -174t123 -63q83 0 141.5 64.5t75.5 173.5q17 106 -20.5 171.5t-120.5 65.5q-85 0 -143.5 -66t-75.5 -172z" />
    <glyph glyph-name="colon" unicode=":" horiz-adv-x="651" 
d="M164 74l49 309h347l-49 -309h-347zM262 695l49 307h347l-49 -307h-347z" />
    <glyph glyph-name="semicolon" unicode=";" horiz-adv-x="807" 
d="M51 -231l347 614h318l-424 -614h-241zM354 695l49 307h348l-49 -307h-348z" />
    <glyph glyph-name="less" unicode="&#x3c;" horiz-adv-x="1358" 
d="M1042 -82l-819 579l21 137l1004 586l131 -165l-836 -489l682 -485z" />
    <glyph glyph-name="equal" unicode="=" horiz-adv-x="1361" 
d="M247 623l34 214h1065l-34 -214h-1065zM200 326l33 213h1065l-33 -213h-1065z" />
    <glyph glyph-name="greater" unicode="&#x3e;" horiz-adv-x="1355" 
d="M284 -82l-127 165l830 483l-677 483l180 171l819 -586l-21 -137z" />
    <glyph glyph-name="question" unicode="?" horiz-adv-x="1088" 
d="M466 350q16 98 74 181t138 140q29 18 81 54q1 1 9.5 6.5t12.5 7.5l21 14q55 39 82.5 73t34.5 77q14 93 -29.5 135t-160.5 42q-104 0 -177 -49.5t-146 -170.5l-206 73q78 168 234 265.5t329 97.5q210 0 319 -108t81 -283q-14 -89 -71.5 -165.5t-135.5 -134.5l-123 -84
q-55 -38 -86 -79t-40 -94l-18 -112h-241zM340 -100l49 308h349l-49 -308h-349z" />
    <glyph glyph-name="at" unicode="@" horiz-adv-x="1817" 
d="M881 -172q-172 0 -315 65.5t-235 177.5t-131 269t-11 334q37 234 177 427t347 303t435 110q178 0 322 -61.5t236 -169t129.5 -260.5t9.5 -330q-17 -108 -60 -204t-103 -165t-135 -111.5t-156.5 -43t-166.5 40.5q-40 32 -56 64q-126 -96 -297 -96q-157 0 -237 84t-58 226
q17 106 89.5 184t191.5 119q66 21 140 32l151 19q39 6 69 12q0 61 -34.5 89t-112.5 28q-172 0 -189 -129h-222q22 153 145.5 249t301.5 96q181 0 268 -96.5t59 -269.5l-62 -393q-4 -25 5.5 -34.5t40.5 -9.5q71 0 128.5 85.5t79.5 223.5q28 174 -27 312t-181.5 215.5
t-302.5 77.5q-166 0 -318.5 -83t-255.5 -226.5t-130 -314.5q-28 -176 28.5 -320.5t182.5 -227t294 -82.5q205 0 378 117l110 -167q-241 -166 -522 -166zM794 490q-8 -48 22.5 -72t99.5 -24q103 0 173.5 64t95.5 181q-112 -16 -150 -19l-48 -6q-177 -19 -193 -124z" />
    <glyph glyph-name="A" unicode="A" horiz-adv-x="1392" 
d="M22 0l732 1365h316l300 -1365h-313l-56 305h-514l-153 -305h-312zM595 528h368l-90 566h-11z" />
    <glyph glyph-name="B" unicode="B" horiz-adv-x="1197" 
d="M72 0l216 1365h565q241 0 348.5 -96t79.5 -271q-14 -89 -70 -160.5t-138 -112.5q85 -35 133.5 -119.5t30.5 -198.5q-28 -182 -170.5 -294.5t-357.5 -112.5h-637zM406 237h298q83 0 147.5 45t76.5 125q12 78 -34 128t-143 50h-290zM498 818h246q93 0 152.5 40.5
t72.5 117.5q12 76 -31 113.5t-141 37.5h-251z" />
    <glyph glyph-name="C" unicode="C" horiz-adv-x="1369" 
d="M721 -30q-142 0 -255.5 49.5t-187 140t-102 225.5t-2.5 298q34 213 143.5 375.5t273 249.5t356.5 87q188 0 315.5 -96.5t172.5 -252.5l-267 -75q-42 91 -101 138t-159 47q-163 0 -278.5 -128.5t-150.5 -344.5q-34 -217 42 -347t237 -130q104 0 199.5 63.5t147.5 158.5
l255 -78q-72 -118 -164 -199q-204 -181 -475 -181z" />
    <glyph glyph-name="D" unicode="D" horiz-adv-x="1292" 
d="M72 0l216 1365h457q340 0 490.5 -176.5t98.5 -505.5q-34 -216 -146 -379q-66 -94 -150 -156q-89 -67 -221.5 -107.5t-287.5 -40.5h-457zM405 234h132q212 0 331 107.5t156 341.5q38 237 -49 342t-292 105h-136z" />
    <glyph glyph-name="E" unicode="E" horiz-adv-x="1158" 
d="M72 0l216 1365h987l-38 -238h-691l-48 -306h620l-37 -233h-620l-55 -351h710l-38 -237h-1006z" />
    <glyph glyph-name="F" unicode="F" horiz-adv-x="1058" 
d="M72 0l216 1365h958l-38 -238h-662l-51 -328h592l-38 -234h-592l-89 -565h-296z" />
    <glyph glyph-name="G" unicode="G" horiz-adv-x="1394" 
d="M714 -30q-185 0 -319 87t-194 250.5t-27 375.5q33 207 140.5 368.5t275.5 252.5t369 91q117 0 214 -37t154 -98q100 -109 132 -214l-268 -75q-2 4 -7 12q-39 67 -79 109q-63 64 -182 64q-172 0 -290.5 -127.5t-153.5 -345.5q-33 -213 47 -345t236 -132q129 0 217 63
t122 171q14 47 23 102h-325l37 237h613l-123 -779h-201l-11 104q-143 -134 -400 -134z" />
    <glyph glyph-name="H" unicode="H" horiz-adv-x="1246" 
d="M72 0l216 1365h294l-86 -547h511l86 547h297l-216 -1365h-297l92 583h-511l-92 -583h-294z" />
    <glyph glyph-name="I" unicode="I" horiz-adv-x="440" 
d="M72 0l216 1365h296l-216 -1365h-296z" />
    <glyph glyph-name="J" unicode="J" horiz-adv-x="960" 
d="M424 -30q-168 0 -266.5 87.5t-113.5 217.5l252 92q8 -67 50.5 -114t110.5 -47q165 0 200 225l148 934h299l-153 -966q-32 -202 -171 -315.5t-356 -113.5z" />
    <glyph glyph-name="K" unicode="K" horiz-adv-x="1245" 
d="M72 0l216 1365h296l-87 -553h5l595 553h371l-667 -600l456 -765h-353l-320 569l-147 -132l-69 -437h-296z" />
    <glyph glyph-name="L" unicode="L" horiz-adv-x="1055" 
d="M72 0l216 1365h296l-178 -1128h643l-38 -237h-939z" />
    <glyph glyph-name="M" unicode="M" horiz-adv-x="1536" 
d="M72 0l216 1365h356l188 -927h7l482 927h359l-216 -1365h-295l141 888l-429 -824h-207l-168 832l-142 -896h-292z" />
    <glyph glyph-name="N" unicode="N" horiz-adv-x="1256" 
d="M72 0l216 1365h301l370 -909l144 909h297l-216 -1365h-301l-373 896l-142 -896h-296z" />
    <glyph glyph-name="O" unicode="O" horiz-adv-x="1410" 
d="M700 -30q-290 0 -433.5 195t-92.5 517q51 321 257.5 517t494.5 196t432.5 -196t93.5 -517q-51 -322 -257.5 -517t-494.5 -195zM480 682q-35 -222 33.5 -349t224.5 -127t264 127t143 349q35 220 -33 347t-224 127t-264.5 -127.5t-143.5 -346.5z" />
    <glyph glyph-name="P" unicode="P" horiz-adv-x="1187" 
d="M72 0l216 1365h583q237 0 352 -116t84 -313q-31 -196 -185.5 -312.5t-378.5 -116.5h-295l-80 -507h-296zM486 746h253q109 0 177.5 49.5t82.5 140.5q15 95 -34.5 143t-164.5 48h-254z" />
    <glyph glyph-name="Q" unicode="Q" horiz-adv-x="1410" 
d="M174 682q51 321 257.5 517t494.5 196t432.5 -196t93.5 -517q-48 -301 -233 -492l131 -152l-182 -132l-129 147q-154 -83 -339 -83q-191 0 -322.5 88.5t-184.5 250t-19 373.5zM480 682q-35 -222 33.5 -349t224.5 -127q74 0 142 31l-176 201l185 137l156 -182
q73 119 100 289q35 221 -33 347.5t-224 126.5t-264.5 -127t-143.5 -347z" />
    <glyph glyph-name="R" unicode="R" horiz-adv-x="1267" 
d="M72 0l217 1367h592q223 0 339.5 -118.5t87.5 -303.5q-28 -174 -165 -292q58 -91 45 -260q-13 -110 -0.5 -182t77.5 -211h-339q-40 74 -47 153t4 221q9 56 0 88t-42.5 44t-111.5 12h-277l-82 -518h-298zM486 746h253q109 0 177.5 49.5t82.5 140.5q15 95 -34.5 143
t-164.5 48h-254z" />
    <glyph glyph-name="S" unicode="S" horiz-adv-x="1200" 
d="M621 -30q-202 0 -346.5 92t-191.5 250l271 81q32 -81 120.5 -134t190.5 -53q101 0 170.5 46t80.5 116q12 76 -45.5 124.5t-194.5 94.5q-201 65 -267 99q-195 108 -162 321q28 173 192.5 280.5t397.5 107.5q195 0 321.5 -85t171.5 -229l-262 -77q-95 152 -271 152
q-101 0 -166.5 -40.5t-76.5 -108.5q-3 -30 2 -50q2 -8 6.5 -16t8.5 -13.5t13.5 -14.5t12.5 -12t14 -12t12 -9q22 -18 123 -54q36 -13 69 -23t57 -16.5t28 -7.5q154 -52 246 -131q107 -95 80 -268q-20 -127 -105.5 -220.5t-215 -141.5t-284.5 -48z" />
    <glyph glyph-name="T" unicode="T" horiz-adv-x="1176" 
d="M443 0l178 1127h-411l38 238h1112l-38 -238h-408l-178 -1127h-293z" />
    <glyph glyph-name="U" unicode="U" horiz-adv-x="1255" 
d="M622 -30q-269 0 -390 138t-77 413l133 844h298l-134 -847q-50 -312 208 -312t307 312l134 847h298l-133 -844q-43 -269 -205 -410t-439 -141z" />
    <glyph glyph-name="V" unicode="V" horiz-adv-x="1286" 
d="M480 0l-242 1365h321l128 -1069l5 -3l464 1072h324l-677 -1365h-323z" />
    <glyph glyph-name="W" unicode="W" horiz-adv-x="1734" 
d="M330 0l-108 1365h308l16 -1069h11l377 1069h294l44 -1069h8l353 1069h311l-539 -1365h-336l-34 1033h-9l-362 -1033h-334z" />
    <glyph glyph-name="X" unicode="X" horiz-adv-x="1335" 
d="M38 0l571 701l-330 664h342l185 -460h8l334 460h342l-542 -664l351 -701h-339l-212 489h-8l-362 -489h-340z" />
    <glyph glyph-name="Y" unicode="Y" horiz-adv-x="1323" 
d="M511 0l87 551l-372 814h336l214 -596h10l401 596h340l-632 -814l-87 -551h-297z" />
    <glyph glyph-name="Z" unicode="Z" horiz-adv-x="1263" 
d="M78 0l32 200l863 927h-658l38 238h1027l-32 -206l-863 -922h738l-38 -237h-1107z" />
    <glyph glyph-name="bracketleft" unicode="[" horiz-adv-x="691" 
d="M72 -306l275 1737h511l-34 -214h-272l-208 -1311h272l-33 -212h-511z" />
    <glyph glyph-name="backslash" unicode="\" horiz-adv-x="852" 
d="M581 -193l-377 1554h251l378 -1554h-252z" />
    <glyph glyph-name="bracketright" unicode="]" horiz-adv-x="694" 
d="M12 -306l33 212h272l208 1311h-272l34 214h514l-275 -1737h-514z" />
    <glyph glyph-name="asciicircum" unicode="^" horiz-adv-x="1246" 
d="M149 724l618 676h154l406 -676h-292l-235 399l5 6l-363 -405h-293z" />
    <glyph glyph-name="underscore" unicode="_" horiz-adv-x="928" 
d="M-58 -214l34 215h976l-34 -215h-976z" />
    <glyph glyph-name="a" unicode="a" horiz-adv-x="1039" 
d="M401 -30q-173 0 -263 83.5t-69 219.5q22 138 149.5 227.5t347.5 119.5q190 28 214 34l8 53q9 60 -30.5 90t-115.5 30q-169 0 -309 -124l-145 135q204 195 484 195q239 0 329 -106.5t57 -315.5l-97 -611h-277l16 104q-40 -59 -122.5 -96.5t-176.5 -37.5zM363 296
q-7 -45 25.5 -75.5t90.5 -30.5q97 0 172 61t90 159l11 67q-113 -25 -171 -32q-198 -27 -218 -149z" />
    <glyph glyph-name="b" unicode="b" horiz-adv-x="1103" 
d="M607 -30q-82 0 -148.5 37.5t-88.5 91.5l-16 -99h-276l223 1406h283l-75 -474q121 101 262 101q200 0 306 -143.5t68 -386.5q-22 -137 -79.5 -244.5t-136.5 -169.5q-153 -119 -322 -119zM439 503q-23 -143 18.5 -224.5t138.5 -81.5q96 0 164 78.5t92 227.5
q22 142 -19.5 222.5t-139.5 80.5q-100 0 -166 -81t-88 -222z" />
    <glyph glyph-name="c" unicode="c" horiz-adv-x="1029" 
d="M540 -30q-226 0 -343.5 145.5t-78.5 386.5q38 243 202 387t389 144q163 0 263.5 -94.5t108.5 -224.5l-252 -61q-8 66 -47 109.5t-104 43.5q-104 0 -174.5 -84t-91.5 -220q-23 -145 24 -225t145 -80q76 0 138 48t89 117l233 -60q-54 -135 -196 -233.5t-305 -98.5z" />
    <glyph glyph-name="d" unicode="d" horiz-adv-x="1103" 
d="M494 -30q-176 0 -293 120q-59 62 -82 169t-1 244q38 245 188.5 387.5t357.5 142.5q150 0 225 -104l76 477h283l-223 -1406h-277l16 101q-42 -55 -118 -93t-152 -38zM411 503q-24 -146 19 -226t140 -80q96 0 163 81t90 225q22 140 -18 221.5t-138 81.5q-102 0 -168 -80.5
t-88 -222.5z" />
    <glyph glyph-name="e" unicode="e" 
d="M551 -30q-151 0 -258 65t-154 187t-21 283q38 240 205 384t387 144q104 0 189.5 -38.5t142 -107t79.5 -167.5t5 -215q-8 -48 -21 -96h-713q-15 -98 39.5 -162.5t162.5 -64.5q76 0 142.5 36.5t109.5 96.5l223 -78q-74 -118 -210 -192.5t-308 -74.5zM422 590h426
q16 100 -28.5 167t-142.5 67t-168.5 -67.5t-86.5 -166.5z" />
    <glyph glyph-name="f" unicode="f" horiz-adv-x="654" 
d="M163 0l123 779h-155l36 224h155l13 83q25 157 121 238.5t254 81.5h189l-36 -228h-144q-45 0 -68.5 -24.5t-33.5 -83.5l-10 -67h205l-36 -224h-205l-123 -779h-285z" />
    <glyph glyph-name="g" unicode="g" 
d="M438 -400q-282 0 -402 201l207 123q79 -111 232 -111q82 0 151 55t88 141q15 57 21 97q-39 -41 -107 -67.5t-131 -26.5q-204 0 -308.5 139t-67.5 370q36 233 184 372.5t345 139.5q78 0 132.5 -34t77.5 -82l14 86h287l-135 -851q-45 -282 -190 -417t-398 -135zM413 521
q-22 -135 19 -208.5t130 -73.5t151.5 73t84.5 209q21 135 -19 210t-127 75q-90 0 -154 -74.5t-85 -210.5z" />
    <glyph glyph-name="h" unicode="h" horiz-adv-x="1057" 
d="M78 0l223 1406h283l-74 -468h6q110 95 260 95q143 0 235 -82q48 -44 67 -123.5t3 -184.5l-102 -643h-286l97 614q32 192 -102 192q-85 0 -153.5 -71.5t-84.5 -171.5l-89 -563h-283z" />
    <glyph glyph-name="i" unicode="i" horiz-adv-x="445" 
d="M82 0l159 1003h282l-159 -1003h-282zM254 1110l43 273h289l-43 -273h-289z" />
    <glyph glyph-name="j" unicode="j" horiz-adv-x="432" 
d="M-154 -379l37 231h33q64 0 101.5 41t52.5 133l155 977h285l-156 -987q-31 -195 -141.5 -295t-289.5 -100h-77zM237 1110l43 273h293l-43 -273h-293z" />
    <glyph glyph-name="k" unicode="k" horiz-adv-x="1025" 
d="M78 0l223 1406h283l-118 -740l384 337h351l-467 -411l323 -592h-331l-207 405l-109 -97l-49 -308h-283z" />
    <glyph glyph-name="l" unicode="l" horiz-adv-x="441" 
d="M78 0l223 1406h285l-223 -1406h-285z" />
    <glyph glyph-name="m" unicode="m" horiz-adv-x="1592" 
d="M78 0l159 1003h273l-15 -95h1q20 23 53 48q35 28 101 52.5t124 24.5q169 0 228 -149q126 149 335 149q195 0 253 -120q52 -109 26 -270l-102 -643h-286l101 638q14 86 -6.5 127t-81.5 41q-81 0 -138.5 -62.5t-72.5 -153.5l-93 -590h-284l102 644q12 77 -10.5 119.5
t-78.5 42.5q-86 0 -140 -57.5t-70 -158.5l-93 -590h-285z" />
    <glyph glyph-name="n" unicode="n" horiz-adv-x="1058" 
d="M78 0l159 1003h273l-16 -98h1q108 128 294 128q355 0 293 -390l-102 -643h-283l97 611q16 106 -8.5 150.5t-95.5 44.5q-89 0 -154.5 -66.5t-82.5 -170.5l-90 -569h-285z" />
    <glyph glyph-name="o" unicode="o" horiz-adv-x="1082" 
d="M537 -30q-111 0 -197.5 33.5t-134.5 90.5q-128 150 -87 408q32 209 172 364q70 78 179 122.5t237 44.5q129 0 222.5 -44t140.5 -123q89 -153 57 -364q-25 -149 -102 -273q-44 -72 -109 -129q-66 -58 -165 -94t-213 -36zM411 502q-25 -154 24 -229.5t138 -75.5
q69 0 144 59q40 32 71.5 97t45.5 149q27 178 -38 246q-55 58 -126 58q-42 0 -81 -17t-75 -51.5t-63 -95t-40 -140.5z" />
    <glyph glyph-name="p" unicode="p" horiz-adv-x="1103" 
d="M16 -393l221 1396h274l-16 -98q120 128 276 128q202 0 307 -143.5t67 -386.5q-22 -137 -80.5 -244.5t-139.5 -169.5q-158 -119 -323 -119q-89 0 -145.5 32t-81.5 81l-75 -476h-284zM439 503q-23 -142 19 -224t138 -82q97 0 164.5 80t91.5 226q23 144 -18.5 223.5
t-140.5 79.5q-100 0 -166 -81.5t-88 -221.5z" />
    <glyph glyph-name="q" unicode="q" horiz-adv-x="1103" 
d="M755 85q-103 -115 -264 -115q-165 0 -283 118q-62 61 -87 169t-3 246q25 161 104 282.5t192.5 184.5t245.5 63q152 0 232 -128l16 98h276l-221 -1396h-283zM411 503q-24 -146 18 -226t138 -80t165 81t92 225q21 138 -20 220.5t-139 82.5q-99 0 -165.5 -81t-88.5 -222z
" />
    <glyph glyph-name="r" unicode="r" horiz-adv-x="728" 
d="M78 0l159 1003h273l-14 -85q43 50 112.5 82.5t145.5 32.5q92 0 129 -19l-39 -242q-63 17 -129 17q-112 0 -182.5 -81t-93.5 -225l-76 -483h-285z" />
    <glyph glyph-name="s" unicode="s" horiz-adv-x="970" 
d="M505 -30q-160 0 -278 67t-165 179l218 110q87 -142 250 -142q66 0 109.5 27t49.5 67q5 30 -9 50t-45 37q-26 14 -67 30q-16 6 -38 13q-43 8 -83 26q-142 46 -205.5 114t-43.5 189q14 87 82.5 155.5t170 104.5t216.5 36q134 0 246.5 -66t154.5 -173l-204 -102
q-93 128 -228 128q-62 0 -103.5 -25t-47.5 -64q-5 -29 8 -48t41 -38q19 -14 86 -35q38 -13 62.5 -21t38.5 -13q293 -96 262 -301q-21 -131 -149.5 -218t-328.5 -87z" />
    <glyph glyph-name="t" unicode="t" horiz-adv-x="686" 
d="M511 0q-350 0 -299 322l72 457h-153l36 224h153l45 285h283l-45 -285h222l-36 -224h-222l-70 -442q-17 -110 86 -110h121l-36 -227h-157z" />
    <glyph glyph-name="u" unicode="u" horiz-adv-x="1057" 
d="M441 -30q-105 0 -179 41q-48 25 -81 67q-34 43 -46 117t2 175l100 633h286l-96 -604q-31 -202 113 -202q83 0 144.5 72t78.5 178l88 556h287l-159 -1003h-273l14 90h-6q-40 -53 -114 -86.5t-159 -33.5z" />
    <glyph glyph-name="v" unicode="v" horiz-adv-x="1012" 
d="M348 0l-201 1003h309l81 -780h6l331 780h309l-519 -1003h-316z" />
    <glyph glyph-name="w" unicode="w" horiz-adv-x="1461" 
d="M284 0l-129 1003h303l20 -740h7l261 740h285l30 -740h7l254 740h302l-447 -1003h-305l-24 714h-7l-251 -714h-306z" />
    <glyph glyph-name="x" unicode="x" horiz-adv-x="1093" 
d="M2 0l460 512l-284 491h346l128 -312h5l229 312h346l-439 -491l298 -512h-336l-153 340h-5l-260 -340h-335z" />
    <glyph glyph-name="y" unicode="y" horiz-adv-x="1022" 
d="M33 -393l35 223h34q91 0 146.5 29t91.5 98l48 89l-241 957h307l115 -690h5l312 690h307l-612 -1113q-83 -152 -195.5 -217.5t-272.5 -65.5h-80z" />
    <glyph glyph-name="z" unicode="z" horiz-adv-x="1096" 
d="M90 0l28 175l607 604h-473l36 224h845l-26 -165l-614 -611h543l-36 -227h-910z" />
    <glyph glyph-name="braceleft" unicode="{" horiz-adv-x="916" 
d="M581 -304q-53 0 -100 17t-82.5 49.5t-51.5 85t-6 117.5l49 306q15 107 0.5 141t-70.5 34h-136l33 211h136q59 0 83.5 33.5t42.5 145.5l52 325q19 122 113.5 196t207.5 74h231l-34 -214h-216q-33 0 -44 -11.5t-18 -57.5l-51 -324q-28 -171 -131 -271q72 -100 46 -261
l-47 -301q-9 -59 -3 -71.5t45 -12.5h211l-33 -211h-227z" />
    <glyph glyph-name="braceright" unicode="}" horiz-adv-x="914" 
d="M12 -304l33 211h212q39 0 50.5 13t21.5 71l49 309q23 152 125 253q-71 97 -44 264l53 331q7 47 -0.5 58t-43.5 11h-215l34 214h230q116 0 185.5 -73t49.5 -197l-52 -325q-16 -109 -1.5 -144t71.5 -35h135l-33 -211h-135q-55 0 -82 -35t-42 -129l-51 -317
q-13 -84 -64 -146.5t-118.5 -92.5t-141.5 -30h-226z" />
    <glyph glyph-name="asciitilde" unicode="~" horiz-adv-x="1641" 
d="M1120 347q-83 0 -151 28t-111 72q-23 20 -65 62q-56 54 -133 54q-71 0 -131 -40.5t-139 -143.5l-193 91q96 149 224.5 228.5t274.5 79.5q161 0 265 -96q1 -1 4 -4.5t4 -5.5q1 0 4 -3t5 -4q4 -6 7 -8l20 -19l-2 -3l5 -7l-8 -7l1 -1l14 9l8 -7q2 -2 4 -5l1 -2q0 -2 1 -3
q32 -27 59 -39.5t66 -12.5t63.5 8t57.5 31q13 10 21.5 17.5t16 13.5t15.5 14.5t13 13t16.5 17.5t18 20t24.5 28t30 34l193 -97q-55 -69 -101 -116t-109.5 -96.5t-137 -75t-155.5 -25.5zM1007 635l4 -3h1l-3 -3zM1008 628l2 -2v1q-1 1 -1 2z" />
    <glyph glyph-name="exclamdown" unicode="&#xa1;" horiz-adv-x="647" 
d="M125 -437l175 1012h233l-148 -1012h-260zM248 619l49 307h347l-49 -307h-347z" />
    <glyph glyph-name="cent" unicode="&#xa2;" horiz-adv-x="1095" 
d="M443 -107q-186 30 -279 172t-60 352q32 201 168.5 346t336.5 176l21 137h241l-22 -144q124 -32 196.5 -115.5t71.5 -194.5l-232 -63q0 82 -51.5 129.5t-151.5 47.5q-139 0 -226.5 -82t-112.5 -237t37.5 -238t199.5 -83q104 0 186 54t113 133l213 -73
q-53 -106 -162 -191.5t-245 -118.5l-23 -146h-241z" />
    <glyph glyph-name="sterling" unicode="&#xa3;" horiz-adv-x="1474" 
d="M138 87q139 -1 214.5 62t93.5 173l25 155h-232l34 215h232l35 222q29 182 165.5 282t337.5 100q165 0 274.5 -82.5t119.5 -197.5l-208 -91q-29 89 -74.5 122t-139.5 33q-118 0 -169.5 -37t-67.5 -133l-34 -218h483l-34 -215h-483l-25 -155q-15 -95 -58 -173q16 2 45 2
q97 0 183 -30q85 -21 128 -21q101 0 172.5 20t140.5 66l65 -202q-161 -99 -415 -99q-81 0 -179 28q-92 23 -138 23q-126 0 -284 -33l-128 -25z" />
    <glyph glyph-name="currency" unicode="&#xa4;" horiz-adv-x="1608" 
d="M1129 239q-133 -61 -290 -61q-154 0 -269 63l-246 -164l-167 132l266 183q-44 87 -27 196q17 108 87 197l-202 171l202 147l201 -165q139 62 285 62q152 0 268 -66l246 170l157 -151l-253 -169q44 -92 28 -196q-15 -100 -92 -196l203 -179l-203 -138zM635 588
q-14 -90 48 -143t190 -53q127 0 208 53.5t95 142.5q14 90 -50 143.5t-191 53.5q-125 0 -205.5 -53.5t-94.5 -143.5z" />
    <glyph glyph-name="yen" unicode="&#xa5;" horiz-adv-x="1483" 
d="M610 -86l43 266h-408l36 228h408l3 22h-408l35 223h275l-388 611h302l341 -538q1 -3 0 -4l3 -3h-1l3 -7v-2v5l2 -3l520 552h303l-578 -611h267l-35 -223h-401l-3 -22h401l-36 -228h-401l-43 -266h-240z" />
    <glyph glyph-name="copyright" unicode="&#xa9;" horiz-adv-x="1799" 
d="M893 -27q-158 0 -288 59.5t-214 162t-119 246t-10 305.5q34 214 161 390t316 277t398 101q127 0 237.5 -38t191 -107t136 -165t71.5 -211.5t-2 -246.5q-34 -216 -161.5 -393.5t-316.5 -278.5t-400 -101zM481 746q-18 -118 6.5 -221t83.5 -176.5t151 -115.5t205 -42
q233 0 410 157.5t215 397.5q18 116 -6.5 218.5t-84 175.5t-152.5 115.5t-206 42.5q-228 0 -406 -158.5t-216 -393.5zM606 740q32 203 171.5 332t328.5 129q162 0 253.5 -106.5t69.5 -271.5h-224q15 156 -134 156q-92 0 -158.5 -65.5t-83.5 -172.5q-16 -105 27.5 -168.5
t131.5 -63.5q156 0 194 153h228q-34 -163 -164.5 -269.5t-293.5 -106.5q-183 0 -280 128t-66 326z" />
    <glyph glyph-name="ordfeminine" unicode="&#xaa;" horiz-adv-x="770" 
d="M411 650q-115 0 -175.5 56.5t-46.5 147.5q15 93 100 152.5t233 79.5q112 16 143 23l5 36q7 39 -20 60t-77 21q-113 0 -206 -84l-99 90q140 132 325 132q160 0 221 -72t38 -212l-65 -409h-186l11 69q-29 -39 -83.5 -64.5t-117.5 -25.5zM108 424l25 157h690l-25 -157h-690z
M386 869q-5 -30 16.5 -50.5t60.5 -20.5q65 0 115 40.5t61 107.5l7 45q-80 -18 -114 -22q-134 -18 -146 -100z" />
    <glyph glyph-name="guillemotleft" unicode="&#xab;" horiz-adv-x="1101" 
d="M497 404l478 457l187 -110l-367 -347l253 -352l-219 -110zM148 404l478 457l187 -110l-367 -347l253 -352l-219 -110z" />
    <glyph glyph-name="logicalnot" unicode="&#xac;" horiz-adv-x="1363" 
d="M985 121l54 337h-804l33 213h1045l-87 -550h-241z" />
    <glyph glyph-name="uni00AD" unicode="&#xad;" horiz-adv-x="1252" 
d="M188 473l34 215h1026l-34 -215h-1026z" />
    <glyph glyph-name="registered" unicode="&#xae;" horiz-adv-x="963" 
d="M577 599q-176 0 -274.5 121.5t-70.5 302.5q29 179 167 302t312 123q176 0 274.5 -121t69.5 -304q-28 -182 -165 -303t-313 -121zM314 1023q-23 -149 55 -246t221 -97q141 0 249.5 97t131.5 246q24 150 -53.5 247t-218.5 97q-142 0 -252 -98t-133 -246zM436 789l76 482
h194q78 0 119.5 -39t30.5 -106q-7 -48 -38 -86.5t-76 -56.5l67 -194h-92l-57 170h-114l-27 -170h-83zM559 1039h109q40 0 65.5 21t31.5 56q5 36 -13.5 53.5t-60.5 17.5h-109z" />
    <glyph glyph-name="plusminus" unicode="&#xb1;" horiz-adv-x="1399" 
d="M158 52l34 214h431l49 309h-437l34 213h437l53 333h237l-53 -333h435l-34 -213h-435l-49 -309h430l-34 -214h-1098z" />
    <glyph glyph-name="uni00B2" unicode="&#xb2;" horiz-adv-x="665" 
d="M164 680q13 84 50 150t101.5 129t188.5 159q92 72 104 149q6 39 -11 63t-52 24q-86 0 -139 -134l-163 47q96 243 328 243q123 0 190 -68t50 -177q-18 -114 -146 -223q-17 -14 -68.5 -54.5t-91.5 -77t-71 -74.5h306l-24 -156h-552z" />
    <glyph glyph-name="uni00B3" unicode="&#xb3;" horiz-adv-x="665" 
d="M427 659q-105 0 -180 55.5t-84 157.5l168 53q29 -110 120 -110q46 0 80.5 28t41.5 75q8 45 -22 73t-88 28q-39 0 -96 -5l24 157q72 -3 92 -3q43 0 77 26t41 68q6 39 -14.5 63t-58.5 24q-72 0 -126 -111l-156 47q29 70 74 119t96 70q77 32 146 32q124 0 191.5 -64
t52.5 -162q-18 -109 -119 -176q111 -62 90 -186q-19 -120 -112.5 -189.5t-237.5 -69.5z" />
    <glyph glyph-name="uni00B5" unicode="&#xb5;" horiz-adv-x="1112" 
d="M2 -477l222 1397h243l-99 -624q-17 -105 19 -152.5t144 -47.5q138 0 219.5 68t100.5 187l90 569h239l-160 -1006h-237l7 42q-134 -71 -299 -71q-114 0 -183 33l-63 -395h-243z" />
    <glyph glyph-name="periodcentered" unicode="&#xb7;" horiz-adv-x="652" 
d="M217 409l49 308h348l-49 -308h-348z" />
    <glyph glyph-name="uni00B9" unicode="&#xb9;" horiz-adv-x="537" 
d="M292 680l87 546l-161 -93l39 243l229 137h134l-132 -833h-196z" />
    <glyph glyph-name="ordmasculine" unicode="&#xba;" horiz-adv-x="770" 
d="M491 672q-151 0 -220 81q-85 101 -58 269q22 142 115 241q102 110 274 110q83 0 145.5 -29.5t93.5 -80.5q59 -98 37 -241q-15 -98 -67 -179q-110 -171 -320 -171zM108 424l25 157h690l-25 -157h-690zM407 1022q-16 -101 16.5 -151t91.5 -50q47 0 94 40q58 48 76 161
q17 103 -16.5 152t-89.5 49q-60 0 -108 -49t-64 -152z" />
    <glyph glyph-name="guillemotright" unicode="&#xbb;" horiz-adv-x="1101" 
d="M732 404l-478 -462l-185 110l365 352l-257 347l221 110zM418 52l365 352l-257 347l221 110l334 -457l-478 -462z" />
    <glyph glyph-name="questiondown" unicode="&#xbf;" horiz-adv-x="1085" 
d="M455 -466q-208 0 -318.5 108t-82.5 283q14 90 72 167t137 130l5 6h1q1 1 -1 -3l-2 -4l12 14q1 0 4 2t4 2l2 2l8 6q1 1 3 1l9 6l2 2l2 1q2 2 3 2l2 1q-1 0 0.5 1l4.5 3t4 3q39 27 52 35q1 2 13 9q106 75 121 171l18 111h239l-18 -113q-16 -97 -75.5 -181t-139.5 -139
q-1 -2 -6 -5q-4 0 -5 -3q-3 -2 -8 -6t-9 -6q-1 -2 -8 -7q-6 -4 -21 -13t-23 -14q-24 -17 -43 -29q-55 -39 -83.5 -73t-35.5 -77q-14 -93 30.5 -135.5t162.5 -42.5q106 0 179.5 50t145.5 171l204 -76q-82 -170 -234.5 -265t-326.5 -95zM407 272v1v-1zM477 621l49 305h348
l-49 -305h-348z" />
    <glyph glyph-name="Agrave" unicode="&#xc0;" horiz-adv-x="1392" 
d="M22 0l732 1365h316l300 -1365h-313l-56 305h-514l-153 -305h-312zM592 1796h335l154 -328h-238zM595 528h368l-90 566h-11z" />
    <glyph glyph-name="Aacute" unicode="&#xc1;" horiz-adv-x="1392" 
d="M22 0l732 1365h316l300 -1365h-313l-56 305h-514l-153 -305h-312zM595 528h368l-90 566h-11zM773 1468l258 328h334l-354 -328h-238z" />
    <glyph glyph-name="Acircumflex" unicode="&#xc2;" horiz-adv-x="1392" 
d="M22 0l732 1365h316l300 -1365h-313l-56 305h-514l-153 -305h-312zM487 1468l371 328h241l277 -328h-293l-124 196l-179 -196h-293zM595 528h368l-90 566h-11z" />
    <glyph glyph-name="Atilde" unicode="&#xc3;" horiz-adv-x="1392" 
d="M22 0l732 1365h316l300 -1365h-313l-56 305h-514l-153 -305h-312zM493 1625q43 44 83 78q41 36 110.5 64t137.5 28q66 0 157 -47q90 -48 120 -48q45 0 95.5 28t83.5 71l131 -120q-165 -177 -333 -177q-72 0 -155 49q-87 48 -121 48q-41 0 -90 -27.5t-84 -68.5zM595 528
h368l-90 566h-11z" />
    <glyph glyph-name="Adieresis" unicode="&#xc4;" horiz-adv-x="1392" 
d="M22 0l732 1365h316l300 -1365h-313l-56 305h-514l-153 -305h-312zM574 1515l39 245h276l-39 -245h-276zM595 528h368l-90 566h-11zM1019 1515l39 245h278l-39 -245h-278z" />
    <glyph glyph-name="Aring" unicode="&#xc5;" horiz-adv-x="1392" 
d="M22 0l732 1365h316l300 -1365h-313l-56 305h-514l-153 -305h-312zM595 528h368l-90 566h-11zM658 1658q18 115 116.5 195t226.5 80q129 0 202 -81t55 -194q-19 -117 -118.5 -197t-225.5 -80q-123 0 -199 79.5t-57 197.5zM849 1658q-7 -44 19.5 -74t72.5 -30q43 0 78 29.5
t42 74.5q7 43 -18 72.5t-69 29.5q-46 0 -82 -29.5t-43 -72.5z" />
    <glyph glyph-name="AE" unicode="&#xc6;" horiz-adv-x="1991" 
d="M22 0l958 1365h1128l-37 -236h-663l-49 -308h593l-37 -233h-613l-55 -351h702l-38 -237h-978l48 305h-441l-207 -305h-311zM690 528h327l90 572h-18z" />
    <glyph glyph-name="Ccedilla" unicode="&#xc7;" horiz-adv-x="1369" 
d="M623 -408q-86 0 -174 20l25 163q89 -16 168 -16q112 0 121 55q2 17 -13 27t-45 15q-59 9 -114 9h-24l48 113q-243 35 -365 222.5t-76 482.5q34 213 143.5 375.5t273 249.5t356.5 87q188 0 315.5 -96.5t172.5 -252.5l-267 -75q-42 91 -101 138t-159 47
q-163 0 -278.5 -128.5t-150.5 -344.5q-34 -217 42 -347t237 -130q104 0 199.5 63.5t147.5 158.5l255 -78q-72 -118 -164 -199q-146 -128 -326 -166l-16 -35q69 -14 103.5 -55.5t24.5 -100.5q-14 -87 -104.5 -144.5t-254.5 -57.5z" />
    <glyph glyph-name="Egrave" unicode="&#xc8;" horiz-adv-x="1158" 
d="M72 0l216 1365h987l-38 -238h-691l-48 -306h620l-37 -233h-620l-55 -351h710l-38 -237h-1006zM477 1796h336l153 -328h-239z" />
    <glyph glyph-name="Eacute" unicode="&#xc9;" horiz-adv-x="1158" 
d="M72 0l216 1365h987l-38 -238h-691l-48 -306h620l-37 -233h-620l-55 -351h710l-38 -237h-1006zM634 1468l259 328h334l-355 -328h-238z" />
    <glyph glyph-name="Ecircumflex" unicode="&#xca;" horiz-adv-x="1158" 
d="M72 0l216 1365h987l-38 -238h-691l-48 -306h620l-37 -233h-620l-55 -351h710l-38 -237h-1006zM351 1468l369 328h243l277 -328h-292l-125 196l-180 -196h-292z" />
    <glyph glyph-name="Edieresis" unicode="&#xcb;" horiz-adv-x="1158" 
d="M72 0l216 1365h987l-38 -238h-691l-48 -306h620l-37 -233h-620l-55 -351h710l-38 -237h-1006zM436 1515l39 245h276l-39 -245h-276zM880 1515l39 245h278l-39 -245h-278z" />
    <glyph glyph-name="Igrave" unicode="&#xcc;" horiz-adv-x="541" 
d="M152 0l216 1365h296l-216 -1365h-296zM212 1796h336l154 -328h-238z" />
    <glyph glyph-name="Iacute" unicode="&#xcd;" horiz-adv-x="536" 
d="M101 0l216 1365h296l-216 -1365h-296zM305 1468l258 328h333l-354 -328h-237z" />
    <glyph glyph-name="Icircumflex" unicode="&#xce;" horiz-adv-x="490" 
d="M98 0l216 1365h296l-216 -1365h-296zM35 1468l372 328h240l278 -328h-293l-125 196l-178 -196h-294z" />
    <glyph glyph-name="Idieresis" unicode="&#xcf;" horiz-adv-x="456" 
d="M79 0l216 1365h296l-216 -1365h-296zM108 1515l39 245h275l-39 -245h-275zM553 1515l39 245h277l-39 -245h-277z" />
    <glyph glyph-name="Eth" unicode="&#xd0;" horiz-adv-x="1343" 
d="M123 0l91 572h-126l34 219h126l91 574h457q340 0 490.5 -176.5t98.5 -505.5q-34 -216 -146 -379q-66 -94 -150 -156q-89 -67 -221.5 -107.5t-287.5 -40.5h-457zM456 234h132q212 0 331 107.5t156 341.5q38 237 -49 342t-292 105h-136l-54 -339h362l-34 -219h-362z" />
    <glyph glyph-name="Ntilde" unicode="&#xd1;" horiz-adv-x="1256" 
d="M425 1625q47 49 82 78q42 36 111 64t138 28q65 0 156 -47q90 -48 121 -48q45 0 95.5 28t83.5 71l131 -120q-165 -177 -334 -177q-70 0 -155 49q-87 48 -121 48q-41 0 -89 -27t-85 -69zM72 0l216 1365h301l370 -909l144 909h297l-216 -1365h-301l-373 896l-142 -896h-296z
" />
    <glyph glyph-name="Ograve" unicode="&#xd2;" horiz-adv-x="1410" 
d="M700 -30q-290 0 -433.5 195t-92.5 517q51 321 257.5 517t494.5 196t432.5 -196t93.5 -517q-51 -322 -257.5 -517t-494.5 -195zM480 682q-35 -222 33.5 -349t224.5 -127t264 127t143 349q35 220 -33 347t-224 127t-264.5 -127.5t-143.5 -346.5zM604 1815h337l153 -328
h-239z" />
    <glyph glyph-name="Oacute" unicode="&#xd3;" horiz-adv-x="1410" 
d="M700 -30q-290 0 -433.5 195t-92.5 517q51 321 257.5 517t494.5 196t432.5 -196t93.5 -517q-51 -322 -257.5 -517t-494.5 -195zM480 682q-35 -222 33.5 -349t224.5 -127t264 127t143 349q35 220 -33 347t-224 127t-264.5 -127.5t-143.5 -346.5zM792 1487l258 328h335
l-356 -328h-237z" />
    <glyph glyph-name="Ocircumflex" unicode="&#xd4;" horiz-adv-x="1410" 
d="M700 -30q-290 0 -433.5 195t-92.5 517q51 321 257.5 517t494.5 196t432.5 -196t93.5 -517q-51 -322 -257.5 -517t-494.5 -195zM480 682q-35 -222 33.5 -349t224.5 -127t264 127t143 349q35 220 -33 347t-224 127t-264.5 -127.5t-143.5 -346.5zM498 1487l371 328h240
l278 -328h-293l-125 195l-178 -195h-293z" />
    <glyph glyph-name="Otilde" unicode="&#xd5;" horiz-adv-x="1410" 
d="M700 -30q-290 0 -433.5 195t-92.5 517q51 321 257.5 517t494.5 196t432.5 -196t93.5 -517q-51 -322 -257.5 -517t-494.5 -195zM480 682q-35 -222 33.5 -349t224.5 -127t264 127t143 349q35 220 -33 347t-224 127t-264.5 -127.5t-143.5 -346.5zM506 1625q43 44 83 78
q42 36 111 64t137 28q67 0 158 -47q90 -48 119 -48q45 0 95 28t84 71l131 -120q-164 -177 -334 -177q-71 0 -154 49q-87 48 -122 48q-40 0 -89.5 -27.5t-83.5 -68.5z" />
    <glyph glyph-name="Odieresis" unicode="&#xd6;" horiz-adv-x="1410" 
d="M700 -30q-290 0 -433.5 195t-92.5 517q51 321 257.5 517t494.5 196t432.5 -196t93.5 -517q-51 -322 -257.5 -517t-494.5 -195zM480 682q-35 -222 33.5 -349t224.5 -127t264 127t143 349q35 220 -33 347t-224 127t-264.5 -127.5t-143.5 -346.5zM585 1515l39 245h274
l-39 -245h-274zM1028 1515l39 245h277l-39 -245h-277z" />
    <glyph glyph-name="multiply" unicode="&#xd7;" horiz-adv-x="1430" 
d="M316 125l-161 147l462 303l-356 303l201 153l360 -318l459 317l159 -152l-452 -303l370 -309l-210 -140l-370 311z" />
    <glyph glyph-name="Oslash" unicode="&#xd8;" horiz-adv-x="1412" 
d="M299 123q-182 201 -125 559q33 210 138.5 372.5t265.5 251.5t348 89q146 0 258 -54l88 119h237l-173 -234q173 -199 118 -544q-51 -320 -258.5 -516t-495.5 -196q-150 0 -245 46l-84 -110h-236zM480 682q-27 -170 14 -299l529 740q-59 33 -135 33q-156 0 -264.5 -127.5
t-143.5 -346.5zM616 232q40 -26 122 -26q156 0 264 127t143 349q26 163 -11 281z" />
    <glyph glyph-name="Ugrave" unicode="&#xd9;" horiz-adv-x="1255" 
d="M622 -30q-269 0 -390 138t-77 413l133 844h298l-134 -847q-50 -312 208 -312t307 312l134 847h298l-133 -844q-43 -269 -205 -410t-439 -141zM529 1815h335l154 -328h-239z" />
    <glyph glyph-name="Uacute" unicode="&#xda;" horiz-adv-x="1255" 
d="M622 -30q-269 0 -390 138t-77 413l133 844h298l-134 -847q-50 -312 208 -312t307 312l134 847h298l-133 -844q-43 -269 -205 -410t-439 -141zM710 1487l258 328h334l-354 -328h-238z" />
    <glyph glyph-name="Ucircumflex" unicode="&#xdb;" horiz-adv-x="1255" 
d="M622 -30q-269 0 -390 138t-77 413l133 844h298l-134 -847q-50 -312 208 -312t307 312l134 847h298l-133 -844q-43 -269 -205 -410t-439 -141zM421 1487l370 328h242l276 -328h-292l-125 195l-179 -195h-292z" />
    <glyph glyph-name="Udieresis" unicode="&#xdc;" horiz-adv-x="1255" 
d="M622 -30q-269 0 -390 138t-77 413l133 844h298l-134 -847q-50 -312 208 -312t307 312l134 847h298l-133 -844q-43 -269 -205 -410t-439 -141zM511 1515l39 245h274l-39 -245h-274zM955 1515l39 245h277l-39 -245h-277z" />
    <glyph glyph-name="Yacute" unicode="&#xdd;" horiz-adv-x="1323" 
d="M741 1487l259 328h334l-354 -328h-239zM226 1365h336l214 -596h10l401 596h340l-632 -814l-87 -551h-297l87 551z" />
    <glyph glyph-name="Thorn" unicode="&#xde;" horiz-adv-x="1147" 
d="M74 0l216 1365h294l-34 -219h91q155 0 263.5 -39t157.5 -109q92 -133 65 -306q-36 -226 -197.5 -346.5t-418.5 -120.5h-107l-36 -225h-294zM441 461h81q132 0 203 58t90 176q17 108 -41 162t-192 54h-70z" />
    <glyph glyph-name="germandbls" unicode="&#xdf;" horiz-adv-x="1150" 
d="M641 -30q-138 0 -222 27l39 247q98 -39 211 -39q75 0 138.5 54t76.5 131q33 209 -209 209h-136l37 234h112q72 0 124.5 44.5t65.5 125.5q11 71 -29 112t-119 41q-85 0 -140.5 -54.5t-70.5 -148.5l-151 -953h-296l154 975q21 133 98 229.5t187.5 143.5t242.5 47
q227 0 344.5 -100.5t89.5 -275.5q-27 -178 -204 -270l-1 -3q247 -87 205 -357q-32 -200 -176.5 -309.5t-370.5 -109.5z" />
    <glyph glyph-name="agrave" unicode="&#xe0;" horiz-adv-x="1039" 
d="M401 -30q-173 0 -263 83.5t-69 219.5q22 138 149.5 227.5t347.5 119.5q190 28 214 34l8 53q9 60 -30.5 90t-115.5 30q-169 0 -309 -124l-145 135q204 195 484 195q239 0 329 -106.5t57 -315.5l-97 -611h-277l16 104q-40 -59 -122.5 -96.5t-176.5 -37.5zM363 296
q-7 -45 25.5 -75.5t90.5 -30.5q97 0 172 61t90 159l11 67q-113 -25 -171 -32q-198 -27 -218 -149zM379 1480h336l153 -329h-238z" />
    <glyph glyph-name="aacute" unicode="&#xe1;" horiz-adv-x="1039" 
d="M401 -30q-173 0 -263 83.5t-69 219.5q22 138 149.5 227.5t347.5 119.5q190 28 214 34l8 53q9 60 -30.5 90t-115.5 30q-169 0 -309 -124l-145 135q204 195 484 195q239 0 329 -106.5t57 -315.5l-97 -611h-277l16 104q-40 -59 -122.5 -96.5t-176.5 -37.5zM363 296
q-7 -45 25.5 -75.5t90.5 -30.5q97 0 172 61t90 159l11 67q-113 -25 -171 -32q-198 -27 -218 -149zM492 1151l259 329h334l-356 -329h-237z" />
    <glyph glyph-name="acircumflex" unicode="&#xe2;" horiz-adv-x="1039" 
d="M401 -30q-173 0 -263 83.5t-69 219.5q22 138 149.5 227.5t347.5 119.5q190 28 214 34l8 53q9 60 -30.5 90t-115.5 30q-169 0 -309 -124l-145 135q204 195 484 195q239 0 329 -106.5t57 -315.5l-97 -611h-277l16 104q-40 -59 -122.5 -96.5t-176.5 -37.5zM247 1151l372 329
h240l277 -329h-293l-124 196l-179 -196h-293zM363 296q-7 -45 25.5 -75.5t90.5 -30.5q97 0 172 61t90 159l11 67q-113 -25 -171 -32q-198 -27 -218 -149z" />
    <glyph glyph-name="atilde" unicode="&#xe3;" horiz-adv-x="1048" 
d="M401 -30q-173 0 -263 83.5t-69 219.5q22 138 149.5 227.5t347.5 119.5q190 28 214 34l8 53q9 60 -30.5 90t-115.5 30q-169 0 -309 -124l-145 135q204 195 484 195q239 0 329 -106.5t57 -315.5l-97 -611h-277l16 104q-40 -59 -122.5 -96.5t-176.5 -37.5zM266 1288
q44 46 81 78q43 35 112.5 63t136.5 28q68 0 156 -46q91 -47 122 -47q45 0 94.5 28t83.5 71l131 -120q-164 -179 -335 -179q-68 0 -154 49t-120 49q-41 0 -89.5 -27t-83.5 -69zM363 296q-7 -45 25.5 -75.5t90.5 -30.5q97 0 172 61t90 159l11 67q-113 -25 -171 -32
q-198 -27 -218 -149z" />
    <glyph glyph-name="adieresis" unicode="&#xe4;" horiz-adv-x="1039" 
d="M401 -30q-173 0 -263 83.5t-69 219.5q22 138 149.5 227.5t347.5 119.5q190 28 214 34l8 53q9 60 -30.5 90t-115.5 30q-169 0 -309 -124l-145 135q204 195 484 195q239 0 329 -106.5t57 -315.5l-97 -611h-277l16 104q-40 -59 -122.5 -96.5t-176.5 -37.5zM328 1196l39 246
h273l-39 -246h-273zM363 296q-7 -45 25.5 -75.5t90.5 -30.5q97 0 172 61t90 159l11 67q-113 -25 -171 -32q-198 -27 -218 -149zM772 1196l39 246h277l-39 -246h-277z" />
    <glyph glyph-name="aring" unicode="&#xe5;" horiz-adv-x="1039" 
d="M401 -30q-173 0 -263 83.5t-69 219.5q22 138 149.5 227.5t347.5 119.5q190 28 214 34l8 53q9 60 -30.5 90t-115.5 30q-169 0 -309 -124l-145 135q204 195 484 195q239 0 329 -106.5t57 -315.5l-97 -611h-277l16 104q-40 -59 -122.5 -96.5t-176.5 -37.5zM363 296
q-7 -45 25.5 -75.5t90.5 -30.5q97 0 172 61t90 159l11 67q-113 -25 -171 -32q-198 -27 -218 -149zM435 1359q18 115 116.5 195t227.5 80q130 0 202 -80.5t54 -194.5q-19 -117 -118 -196.5t-225 -79.5q-122 0 -198.5 79t-58.5 197zM627 1359q-7 -43 19.5 -73t72.5 -30
q43 0 78.5 29.5t42.5 73.5q8 44 -17.5 74t-70.5 30q-46 0 -81.5 -30t-43.5 -74z" />
    <glyph glyph-name="ae" unicode="&#xe6;" horiz-adv-x="1700" 
d="M401 -30q-174 0 -263.5 84.5t-67.5 223.5q22 138 160 228t371 119q123 18 178 27l10 61q8 52 -36 83t-111 31q-160 0 -311 -124l-144 133q203 197 491 197q218 0 319 -110q146 110 343 110q100 0 183.5 -39t139 -107.5t78.5 -168.5t5 -216l-18 -93h-711l-3 -17
q-11 -85 40.5 -147.5t159.5 -62.5q151 0 254 133l222 -78q-69 -115 -207 -191t-307 -76q-256 0 -366 173q-98 -89 -194.5 -131t-214.5 -42zM363 296q-6 -41 25.5 -73.5t84.5 -32.5q97 0 175 62.5t92 152.5l11 71q-62 -15 -148 -28q-220 -25 -240 -152zM1045 590h427
q18 99 -29 166.5t-133 67.5q-177 0 -254 -188z" />
    <glyph glyph-name="ccedilla" unicode="&#xe7;" horiz-adv-x="1029" 
d="M419 -408q-87 0 -175 20l25 163q89 -16 169 -16q111 0 120 55q2 17 -13 27t-45 15q-58 9 -114 9h-23l49 119q-166 40 -246.5 177.5t-47.5 340.5q38 243 202 387t389 144q163 0 263.5 -94.5t108.5 -224.5l-252 -61q-8 66 -47 109.5t-104 43.5q-104 0 -174.5 -84
t-91.5 -220q-23 -145 24 -225t145 -80q76 0 138 48t89 117l233 -60q-42 -107 -144.5 -195t-230.5 -121l-17 -36q69 -14 103.5 -55.5t24.5 -100.5q-14 -87 -104.5 -144.5t-253.5 -57.5z" />
    <glyph glyph-name="egrave" unicode="&#xe8;" 
d="M551 -30q-151 0 -258 65t-154 187t-21 283q38 240 205 384t387 144q104 0 189.5 -38.5t142 -107t79.5 -167.5t5 -215q-8 -48 -21 -96h-713q-15 -98 39.5 -162.5t162.5 -64.5q76 0 142.5 36.5t109.5 96.5l223 -78q-74 -118 -210 -192.5t-308 -74.5zM416 1480h336l153 -329
h-239zM422 590h426q16 100 -28.5 167t-142.5 67t-168.5 -67.5t-86.5 -166.5z" />
    <glyph glyph-name="eacute" unicode="&#xe9;" 
d="M551 -30q-151 0 -258 65t-154 187t-21 283q38 240 205 384t387 144q104 0 189.5 -38.5t142 -107t79.5 -167.5t5 -215q-8 -48 -21 -96h-713q-15 -98 39.5 -162.5t162.5 -64.5q76 0 142.5 36.5t109.5 96.5l223 -78q-74 -118 -210 -192.5t-308 -74.5zM422 590h426
q16 100 -28.5 167t-142.5 67t-168.5 -67.5t-86.5 -166.5zM511 1151l259 329h334l-356 -329h-237z" />
    <glyph glyph-name="ecircumflex" unicode="&#xea;" 
d="M551 -30q-151 0 -258 65t-154 187t-21 283q38 240 205 384t387 144q104 0 189.5 -38.5t142 -107t79.5 -167.5t5 -215q-8 -48 -21 -96h-713q-15 -98 39.5 -162.5t162.5 -64.5q76 0 142.5 36.5t109.5 96.5l223 -78q-74 -118 -210 -192.5t-308 -74.5zM281 1151l371 329h241
l276 -329h-293l-124 196l-178 -196h-293zM422 590h426q16 100 -28.5 167t-142.5 67t-168.5 -67.5t-86.5 -166.5z" />
    <glyph glyph-name="edieresis" unicode="&#xeb;" 
d="M551 -30q-151 0 -258 65t-154 187t-21 283q38 240 205 384t387 144q104 0 189.5 -38.5t142 -107t79.5 -167.5t5 -215q-8 -48 -21 -96h-713q-15 -98 39.5 -162.5t162.5 -64.5q76 0 142.5 36.5t109.5 96.5l223 -78q-74 -118 -210 -192.5t-308 -74.5zM374 1196l39 246h276
l-39 -246h-276zM422 590h426q16 100 -28.5 167t-142.5 67t-168.5 -67.5t-86.5 -166.5zM820 1196l39 246h275l-39 -246h-275z" />
    <glyph glyph-name="igrave" unicode="&#xec;" horiz-adv-x="550" 
d="M157 0l159 1003h284l-159 -1003h-284zM164 1480h336l154 -329h-239z" />
    <glyph glyph-name="iacute" unicode="&#xed;" horiz-adv-x="550" 
d="M109 0l159 1003h284l-159 -1003h-284zM260 1151l259 329h333l-355 -329h-237z" />
    <glyph glyph-name="icircumflex" unicode="&#xee;" horiz-adv-x="500" 
d="M-14 1151l372 329h241l277 -329h-293l-124 196l-180 -196h-293zM97 0l159 1003h284l-159 -1003h-284z" />
    <glyph glyph-name="idieresis" unicode="&#xef;" horiz-adv-x="464" 
d="M76 0l159 1003h284l-159 -1003h-284zM59 1196l39 246h275l-39 -246h-275zM503 1196l39 246h276l-39 -246h-276z" />
    <glyph glyph-name="eth" unicode="&#xf0;" horiz-adv-x="1077" 
d="M514 -30q-215 0 -328 125t-81 327q34 218 186.5 350.5t363.5 132.5q123 0 191 -44q-10 94 -93 183l-188 -119l-140 168l139 88q-78 36 -152 47l137 216q163 -25 282 -95l223 141l134 -172l-181 -114q17 -22 43 -62q60 -101 80.5 -253.5t-7.5 -358.5q-41 -258 -202 -409
t-407 -151zM400 434q-17 -105 26.5 -171t134.5 -66q87 0 150.5 65t80.5 172q17 108 -26 174.5t-132 66.5q-87 0 -152 -67.5t-82 -173.5z" />
    <glyph glyph-name="ntilde" unicode="&#xf1;" horiz-adv-x="1072" 
d="M92 0l159 1003h273l-16 -98h1q108 128 294 128q355 0 293 -390l-102 -643h-283l97 611q16 106 -8.5 150.5t-95.5 44.5q-89 0 -154.5 -66.5t-82.5 -170.5l-90 -569h-285zM282 1288q43 43 83 78q42 35 111.5 63t136.5 28q68 0 156 -46q91 -47 122 -47q44 0 94.5 28t83.5 71
l131 -120q-165 -179 -334 -179q-70 0 -155 49q-86 49 -120 49q-41 0 -89.5 -27t-84.5 -69z" />
    <glyph glyph-name="ograve" unicode="&#xf2;" horiz-adv-x="1082" 
d="M537 -30q-111 0 -197.5 33.5t-134.5 90.5q-128 150 -87 408q32 209 172 364q70 78 179 122.5t237 44.5q129 0 222.5 -44t140.5 -123q89 -153 57 -364q-25 -149 -102 -273q-44 -72 -109 -129q-66 -58 -165 -94t-213 -36zM411 502q-25 -154 24 -229.5t138 -75.5
q69 0 144 59q40 32 71.5 97t45.5 149q27 178 -38 246q-55 58 -126 58q-42 0 -81 -17t-75 -51.5t-63 -95t-40 -140.5zM416 1480h336l153 -329h-239z" />
    <glyph glyph-name="oacute" unicode="&#xf3;" horiz-adv-x="1082" 
d="M537 -30q-111 0 -197.5 33.5t-134.5 90.5q-128 150 -87 408q32 209 172 364q70 78 179 122.5t237 44.5q129 0 222.5 -44t140.5 -123q89 -153 57 -364q-25 -149 -102 -273q-44 -72 -109 -129q-66 -58 -165 -94t-213 -36zM411 502q-25 -154 24 -229.5t138 -75.5
q69 0 144 59q40 32 71.5 97t45.5 149q27 178 -38 246q-55 58 -126 58q-42 0 -81 -17t-75 -51.5t-63 -95t-40 -140.5zM541 1151l259 329h334l-356 -329h-237z" />
    <glyph glyph-name="ocircumflex" unicode="&#xf4;" horiz-adv-x="1082" 
d="M537 -30q-111 0 -197.5 33.5t-134.5 90.5q-128 150 -87 408q32 209 172 364q70 78 179 122.5t237 44.5q129 0 222.5 -44t140.5 -123q89 -153 57 -364q-25 -149 -102 -273q-44 -72 -109 -129q-66 -58 -165 -94t-213 -36zM277 1151l371 329h242l275 -329h-292l-124 196
l-180 -196h-292zM411 502q-25 -154 24 -229.5t138 -75.5q69 0 144 59q40 32 71.5 97t45.5 149q27 178 -38 246q-55 58 -126 58q-42 0 -81 -17t-75 -51.5t-63 -95t-40 -140.5z" />
    <glyph glyph-name="otilde" unicode="&#xf5;" horiz-adv-x="1082" 
d="M537 -30q-111 0 -197.5 33.5t-134.5 90.5q-128 150 -87 408q32 209 172 364q70 78 179 122.5t237 44.5q129 0 222.5 -44t140.5 -123q89 -153 57 -364q-25 -149 -102 -273q-44 -72 -109 -129q-66 -58 -165 -94t-213 -36zM287 1288q43 43 83 78q42 35 111.5 63t136.5 28
q68 0 157 -46q91 -47 121 -47q45 0 95 28t84 71l131 -120q-165 -179 -333 -179q-72 0 -157 49q-86 49 -120 49q-40 0 -89 -27t-85 -69zM411 502q-25 -154 24 -229.5t138 -75.5q69 0 144 59q40 32 71.5 97t45.5 149q27 178 -38 246q-55 58 -126 58q-42 0 -81 -17t-75 -51.5
t-63 -95t-40 -140.5z" />
    <glyph glyph-name="odieresis" unicode="&#xf6;" horiz-adv-x="1082" 
d="M537 -30q-111 0 -197.5 33.5t-134.5 90.5q-128 150 -87 408q32 209 172 364q70 78 179 122.5t237 44.5q129 0 222.5 -44t140.5 -123q89 -153 57 -364q-25 -149 -102 -273q-44 -72 -109 -129q-66 -58 -165 -94t-213 -36zM368 1196l39 246h274l-39 -246h-274zM411 502
q-25 -154 24 -229.5t138 -75.5q69 0 144 59q40 32 71.5 97t45.5 149q27 178 -38 246q-55 58 -126 58q-42 0 -81 -17t-75 -51.5t-63 -95t-40 -140.5zM812 1196l39 246h277l-39 -246h-277z" />
    <glyph glyph-name="divide" unicode="&#xf7;" horiz-adv-x="1450" 
d="M223 473l34 215h1154l-34 -215h-1154zM580 146l46 291h337l-46 -291h-337zM672 724l46 293h337l-46 -293h-337z" />
    <glyph glyph-name="oslash" unicode="&#xf8;" horiz-adv-x="1082" 
d="M207 90q-132 149 -90 410q33 210 173 366q70 78 179 122.5t237 44.5q107 0 195 -32l90 126h212l-162 -220q126 -149 84 -407q-24 -148 -101 -272q-47 -74 -109 -129q-67 -58 -165.5 -93.5t-212.5 -35.5t-189 27l-75 -97h-209zM410 500q-12 -78 2 -149l330 438
q-39 17 -72 17q-42 0 -81.5 -17.5t-75.5 -52.5t-63 -95.5t-40 -140.5zM504 209q33 -12 69 -12q74 0 143 58q41 34 72.5 97.5t44.5 147.5q12 81 1 142z" />
    <glyph glyph-name="ugrave" unicode="&#xf9;" horiz-adv-x="1057" 
d="M441 -30q-105 0 -179 41q-48 25 -81 67q-34 43 -46 117t2 175l100 633h286l-96 -604q-31 -202 113 -202q83 0 144.5 72t78.5 178l88 556h287l-159 -1003h-273l14 90h-6q-40 -53 -114 -86.5t-159 -33.5zM392 1480h336l154 -329h-239z" />
    <glyph glyph-name="uacute" unicode="&#xfa;" horiz-adv-x="1057" 
d="M441 -30q-105 0 -179 41q-48 25 -81 67q-34 43 -46 117t2 175l100 633h286l-96 -604q-31 -202 113 -202q83 0 144.5 72t78.5 178l88 556h287l-159 -1003h-273l14 90h-6q-40 -53 -114 -86.5t-159 -33.5zM530 1151l260 329h333l-356 -329h-237z" />
    <glyph glyph-name="ucircumflex" unicode="&#xfb;" horiz-adv-x="1060" 
d="M441 -30q-105 0 -179 41q-48 25 -81 67q-34 43 -46 117t2 175l100 633h286l-96 -604q-31 -202 113 -202q83 0 144.5 72t78.5 178l88 556h287l-159 -1003h-273l14 90h-6q-40 -53 -114 -86.5t-159 -33.5zM276 1151l370 329h241l277 -329h-293l-124 196l-179 -196h-292z" />
    <glyph glyph-name="udieresis" unicode="&#xfc;" horiz-adv-x="1057" 
d="M441 -30q-105 0 -179 41q-48 25 -81 67q-34 43 -46 117t2 175l100 633h286l-96 -604q-31 -202 113 -202q83 0 144.5 72t78.5 178l88 556h287l-159 -1003h-273l14 90h-6q-40 -53 -114 -86.5t-159 -33.5zM372 1196l39 246h276l-39 -246h-276zM818 1196l39 246h276l-39 -246
h-276z" />
    <glyph glyph-name="yacute" unicode="&#xfd;" horiz-adv-x="1022" 
d="M506 1151l259 329h334l-356 -329h-237zM33 -393l35 223h34q91 0 146.5 29t91.5 98l48 89l-241 957h307l115 -690h5l312 690h307l-612 -1113q-83 -152 -195.5 -217.5t-272.5 -65.5h-80z" />
    <glyph glyph-name="thorn" unicode="&#xfe;" horiz-adv-x="1103" 
d="M16 -393l285 1799h284l-77 -485q38 47 109.5 79.5t152.5 32.5q200 0 306.5 -145.5t68.5 -385.5q-22 -137 -80.5 -245t-138.5 -169q-158 -118 -325 -118q-166 0 -226 108l-74 -471h-285zM440 502q-23 -142 19 -223.5t138 -81.5q95 0 163.5 79.5t92.5 225.5
q22 142 -19.5 223t-139.5 81q-100 0 -166 -81t-88 -223z" />
    <glyph glyph-name="ydieresis" unicode="&#xff;" horiz-adv-x="1022" 
d="M378 1442h275l-39 -246h-275zM33 -393l35 223h34q91 0 146.5 29t91.5 98l48 89l-241 957h307l115 -690h5l312 690h307l-612 -1113q-83 -152 -195.5 -217.5t-272.5 -65.5h-80zM784 1196l39 246h275l-39 -246h-275z" />
    <glyph glyph-name="Amacron" unicode="&#x100;" horiz-adv-x="1392" 
d="M22 0l732 1365h316l300 -1365h-313l-56 305h-514l-153 -305h-312zM568 1513l28 181h737l-28 -181h-737zM595 528h368l-90 566h-11z" />
    <glyph glyph-name="amacron" unicode="&#x101;" horiz-adv-x="1039" 
d="M401 -30q-173 0 -263 83.5t-69 219.5q22 138 149.5 227.5t347.5 119.5q190 28 214 34l8 53q9 60 -30.5 90t-115.5 30q-169 0 -309 -124l-145 135q204 195 484 195q239 0 329 -106.5t57 -315.5l-97 -611h-277l16 104q-40 -59 -122.5 -96.5t-176.5 -37.5zM322 1193l29 181
h735l-29 -181h-735zM363 296q-7 -45 25.5 -75.5t90.5 -30.5q97 0 172 61t90 159l11 67q-113 -25 -171 -32q-198 -27 -218 -149z" />
    <glyph glyph-name="Abreve" unicode="&#x102;" horiz-adv-x="1392" 
d="M22 0l732 1365h316l300 -1365h-313l-56 305h-514l-153 -305h-312zM595 528h368l-90 566h-11zM633 1779h208q-2 -54 27 -86.5t89 -32.5q117 0 154 119h207q-20 -101 -102 -188q-99 -104 -286 -104q-91 0 -157.5 28t-95.5 76q-57 93 -44 188z" />
    <glyph glyph-name="abreve" unicode="&#x103;" horiz-adv-x="1039" 
d="M401 -30q-173 0 -263 83.5t-69 219.5q22 138 149.5 227.5t347.5 119.5q190 28 214 34l8 53q9 60 -30.5 90t-115.5 30q-169 0 -309 -124l-145 135q204 195 484 195q239 0 329 -106.5t57 -315.5l-97 -611h-277l16 104q-40 -59 -122.5 -96.5t-176.5 -37.5zM363 296
q-7 -45 25.5 -75.5t90.5 -30.5q97 0 172 61t90 159l11 67q-113 -25 -171 -32q-198 -27 -218 -149zM385 1444h209q-4 -55 26 -88.5t88 -33.5q60 0 99.5 32.5t55.5 89.5h207q-23 -106 -101 -190q-46 -47 -121.5 -75t-166.5 -28q-90 0 -155 28t-96 76q-57 89 -45 189z" />
    <glyph glyph-name="Aogonek" unicode="&#x104;" horiz-adv-x="1362" 
d="M22 0l732 1365h316l300 -1365h-55q-88 -42 -149.5 -90.5t-67.5 -84.5q-9 -59 58 -59q50 0 120 18l-26 -165q-76 -22 -183 -22q-120 0 -181.5 47t-48.5 128q11 67 72.5 128.5t147.5 103.5l-56 301h-514l-153 -305h-312zM595 528h368l-90 566h-11z" />
    <glyph glyph-name="aogonek" unicode="&#x105;" horiz-adv-x="1009" 
d="M401 -30q-173 0 -263 83.5t-69 219.5q22 138 149.5 227.5t347.5 119.5q190 28 214 34l8 53q9 60 -30.5 90t-115.5 30q-169 0 -309 -124l-145 135q204 195 484 195q239 0 329 -106.5t57 -315.5l-97 -611h-21q-88 -43 -149.5 -91t-67.5 -84q-9 -59 58 -59q50 0 122 18
l-26 -165q-78 -22 -184 -22q-120 0 -181.5 47t-48.5 128q11 67 73 129t149 105l15 98q-40 -59 -122.5 -96.5t-176.5 -37.5zM363 296q-7 -45 25.5 -75.5t90.5 -30.5q97 0 172 61t90 159l11 67q-113 -25 -171 -32q-198 -27 -218 -149z" />
    <glyph glyph-name="Cacute" unicode="&#x106;" horiz-adv-x="1369" 
d="M721 -30q-142 0 -255.5 49.5t-187 140t-102 225.5t-2.5 298q34 213 143.5 375.5t273 249.5t356.5 87q188 0 315.5 -96.5t172.5 -252.5l-267 -75q-42 91 -101 138t-159 47q-163 0 -278.5 -128.5t-150.5 -344.5q-34 -217 42 -347t237 -130q104 0 199.5 63.5t147.5 158.5
l255 -78q-72 -118 -164 -199q-204 -181 -475 -181zM801 1487l259 328h334l-355 -328h-238z" />
    <glyph glyph-name="cacute" unicode="&#x107;" horiz-adv-x="1029" 
d="M540 -30q-226 0 -343.5 145.5t-78.5 386.5q38 243 202 387t389 144q163 0 263.5 -94.5t108.5 -224.5l-252 -61q-8 66 -47 109.5t-104 43.5q-104 0 -174.5 -84t-91.5 -220q-23 -145 24 -225t145 -80q76 0 138 48t89 117l233 -60q-54 -135 -196 -233.5t-305 -98.5z
M569 1151l259 329h335l-356 -329h-238z" />
    <glyph glyph-name="Cdotaccent" unicode="&#x10a;" horiz-adv-x="1369" 
d="M721 -30q-142 0 -255.5 49.5t-187 140t-102 225.5t-2.5 298q34 213 143.5 375.5t273 249.5t356.5 87q188 0 315.5 -96.5t172.5 -252.5l-267 -75q-42 91 -101 138t-159 47q-163 0 -278.5 -128.5t-150.5 -344.5q-34 -217 42 -347t237 -130q104 0 199.5 63.5t147.5 158.5
l255 -78q-72 -118 -164 -199q-204 -181 -475 -181zM813 1515l39 249h284l-39 -249h-284z" />
    <glyph glyph-name="cdotaccent" unicode="&#x10b;" horiz-adv-x="1029" 
d="M540 -30q-226 0 -343.5 145.5t-78.5 386.5q38 243 202 387t389 144q163 0 263.5 -94.5t108.5 -224.5l-252 -61q-8 66 -47 109.5t-104 43.5q-104 0 -174.5 -84t-91.5 -220q-23 -145 24 -225t145 -80q76 0 138 48t89 117l233 -60q-54 -135 -196 -233.5t-305 -98.5z
M579 1198l39 250h284l-39 -250h-284z" />
    <glyph glyph-name="Ccaron" unicode="&#x10c;" horiz-adv-x="1369" 
d="M721 -30q-142 0 -255.5 49.5t-187 140t-102 225.5t-2.5 298q34 213 143.5 375.5t273 249.5t356.5 87q188 0 315.5 -96.5t172.5 -252.5l-267 -75q-42 91 -101 138t-159 47q-163 0 -278.5 -128.5t-150.5 -344.5q-34 -217 42 -347t237 -130q104 0 199.5 63.5t147.5 158.5
l255 -78q-72 -118 -164 -199q-204 -181 -475 -181zM578 1796h275l112 -175l176 175h273l-352 -309h-240z" />
    <glyph glyph-name="ccaron" unicode="&#x10d;" horiz-adv-x="1029" 
d="M540 -30q-226 0 -343.5 145.5t-78.5 386.5q38 243 202 387t389 144q163 0 263.5 -94.5t108.5 -224.5l-252 -61q-8 66 -47 109.5t-104 43.5q-104 0 -174.5 -84t-91.5 -220q-23 -145 24 -225t145 -80q76 0 138 48t89 117l233 -60q-54 -135 -196 -233.5t-305 -98.5z
M345 1461h275l113 -175l175 175h273l-352 -310h-240z" />
    <glyph glyph-name="Dcaron" unicode="&#x10e;" horiz-adv-x="1292" 
d="M72 0l216 1365h457q340 0 490.5 -176.5t98.5 -505.5q-34 -216 -146 -379q-66 -94 -150 -156q-89 -67 -221.5 -107.5t-287.5 -40.5h-457zM405 234h132q212 0 331 107.5t156 341.5q38 237 -49 342t-292 105h-136zM407 1796h275l113 -175l175 175h272l-351 -309h-239z" />
    <glyph glyph-name="dcaron" unicode="&#x10f;" horiz-adv-x="1580" 
d="M494 -30q-176 0 -293 120q-59 62 -82 169t-1 244q38 245 188.5 387.5t357.5 142.5q150 0 225 -104l76 477h283l-223 -1406h-277l16 101q-42 -55 -118 -93t-152 -38zM411 503q-24 -146 19 -226t140 -80q96 0 163 81t90 225q22 140 -18 221.5t-138 81.5q-102 0 -168 -80.5
t-88 -222.5zM1217 987l152 394h287l-241 -394h-198z" />
    <glyph glyph-name="Dcroat" unicode="&#x110;" horiz-adv-x="1282" 
d="M62 0l91 572h-168l34 219h168l91 574h457q340 0 490.5 -176.5t98.5 -505.5q-34 -216 -146 -379q-66 -94 -150 -156q-89 -67 -221.5 -107.5t-287.5 -40.5h-457zM395 234h132q212 0 331 107.5t156 341.5q38 237 -49 342t-292 105h-136l-54 -339h320l-34 -219h-320z" />
    <glyph glyph-name="dcroat" unicode="&#x111;" horiz-adv-x="1117" 
d="M491 -30q-199 0 -306.5 137t-69.5 381q39 244 187 380t350 136q79 0 141.5 -27t90.5 -69l25 160h-397l32 203h397l22 135h285l-22 -135h98l-32 -203h-98l-169 -1068h-277l16 101q-49 -59 -121.5 -95t-151.5 -36zM409 488q-22 -140 23 -215.5t136 -75.5q94 0 162.5 79
t89.5 212q21 131 -22 211t-138 80q-91 0 -160.5 -80t-90.5 -211z" />
    <glyph glyph-name="Emacron" unicode="&#x112;" horiz-adv-x="1158" 
d="M72 0l216 1365h987l-38 -238h-691l-48 -306h620l-37 -233h-620l-55 -351h710l-38 -237h-1006zM433 1517l29 181h735l-29 -181h-735z" />
    <glyph glyph-name="emacron" unicode="&#x113;" 
d="M551 -30q-151 0 -258 65t-154 187t-21 283q38 240 205 384t387 144q104 0 189.5 -38.5t142 -107t79.5 -167.5t5 -215q-8 -48 -21 -96h-713q-15 -98 39.5 -162.5t162.5 -64.5q76 0 142.5 36.5t109.5 96.5l223 -78q-74 -118 -210 -192.5t-308 -74.5zM368 1196l29 181h735
l-29 -181h-735zM422 590h426q16 100 -28.5 167t-142.5 67t-168.5 -67.5t-86.5 -166.5z" />
    <glyph glyph-name="Edotaccent" unicode="&#x116;" horiz-adv-x="1158" 
d="M72 0l216 1365h987l-38 -238h-691l-48 -306h620l-37 -233h-620l-55 -351h710l-38 -237h-1006zM652 1515l39 249h284l-39 -249h-284z" />
    <glyph glyph-name="edotaccent" unicode="&#x117;" 
d="M551 -30q-151 0 -258 65t-154 187t-21 283q38 240 205 384t387 144q104 0 189.5 -38.5t142 -107t79.5 -167.5t5 -215q-8 -48 -21 -96h-713q-15 -98 39.5 -162.5t162.5 -64.5q76 0 142.5 36.5t109.5 96.5l223 -78q-74 -118 -210 -192.5t-308 -74.5zM422 590h426
q16 100 -28.5 167t-142.5 67t-168.5 -67.5t-86.5 -166.5zM590 1198l39 250h284l-39 -250h-284z" />
    <glyph glyph-name="Eogonek" unicode="&#x118;" horiz-adv-x="1132" 
d="M72 0l216 1365h987l-38 -238h-691l-48 -306h620l-37 -233h-620l-55 -351h710l-38 -237h-191q-88 -43 -150 -91t-68 -84q-9 -59 60 -59q49 0 120 18l-26 -165q-76 -22 -184 -22q-119 0 -180 47t-48 128q10 65 68.5 125t140.5 103h-548z" />
    <glyph glyph-name="eogonek" unicode="&#x119;" 
d="M507 -402q-119 0 -180.5 47.5t-48.5 128.5q9 57 56 110.5t115 94.5q-183 32 -274 172.5t-57 353.5q38 240 205 384t387 144q104 0 189.5 -38.5t142 -107t79.5 -167.5t5 -215q-8 -48 -21 -96h-713q-15 -98 39.5 -162.5t162.5 -64.5q76 0 142.5 36.5t109.5 96.5l223 -78
q-108 -172 -316 -237q-86 -41 -147.5 -89t-67.5 -85q-9 -58 60 -58q46 0 119 17l-26 -165q-76 -22 -184 -22zM422 590h426q16 100 -28.5 167t-142.5 67t-168.5 -67.5t-86.5 -166.5z" />
    <glyph glyph-name="Ecaron" unicode="&#x11a;" horiz-adv-x="1158" 
d="M72 0l216 1365h987l-38 -238h-691l-48 -306h620l-37 -233h-620l-55 -351h710l-38 -237h-1006zM446 1796h274l114 -175l174 175h273l-351 -309h-239z" />
    <glyph glyph-name="ecaron" unicode="&#x11b;" 
d="M551 -30q-151 0 -258 65t-154 187t-21 283q38 240 205 384t387 144q104 0 189.5 -38.5t142 -107t79.5 -167.5t5 -215q-8 -48 -21 -96h-713q-15 -98 39.5 -162.5t162.5 -64.5q76 0 142.5 36.5t109.5 96.5l223 -78q-74 -118 -210 -192.5t-308 -74.5zM365 1461h276l111 -175
l175 175h274l-353 -310h-239zM422 590h426q16 100 -28.5 167t-142.5 67t-168.5 -67.5t-86.5 -166.5z" />
    <glyph glyph-name="Gbreve" unicode="&#x11e;" horiz-adv-x="1394" 
d="M714 -30q-185 0 -319 87t-194 250.5t-27 375.5q33 207 140.5 368.5t275.5 252.5t369 91q117 0 214 -37t154 -98q100 -109 132 -214l-268 -75q-2 4 -7 12q-39 67 -79 109q-63 64 -182 64q-172 0 -290.5 -127.5t-153.5 -345.5q-33 -213 47 -345t236 -132q129 0 217 63
t122 171q14 47 23 102h-325l37 237h613l-123 -779h-201l-11 104q-143 -134 -400 -134zM662 1779h208q-2 -53 27 -86t88 -33q121 0 155 119h207q-17 -97 -102 -188q-45 -48 -120 -76t-167 -28q-91 0 -157 28t-95 76q-57 93 -44 188z" />
    <glyph glyph-name="gbreve" unicode="&#x11f;" 
d="M438 -400q-282 0 -402 201l207 123q79 -111 232 -111q82 0 151 55t88 141q15 57 21 97q-39 -41 -107 -67.5t-131 -26.5q-204 0 -308.5 139t-67.5 370q36 233 184 372.5t345 139.5q78 0 132.5 -34t77.5 -82l14 86h287l-135 -851q-45 -282 -190 -417t-398 -135zM398 1444
h209q-3 -55 26 -88.5t87 -33.5q119 0 157 122h207q-22 -104 -103 -190q-45 -47 -120 -75t-168 -28q-90 0 -156 28t-95 76q-56 89 -44 189zM413 521q-22 -135 19 -208.5t130 -73.5t151.5 73t84.5 209q21 135 -19 210t-127 75q-90 0 -154 -74.5t-85 -210.5z" />
    <glyph glyph-name="Gdotaccent" unicode="&#x120;" horiz-adv-x="1394" 
d="M714 -30q-185 0 -319 87t-194 250.5t-27 375.5q33 207 140.5 368.5t275.5 252.5t369 91q117 0 214 -37t154 -98q100 -109 132 -214l-268 -75q-2 4 -7 12q-39 67 -79 109q-63 64 -182 64q-172 0 -290.5 -127.5t-153.5 -345.5q-33 -213 47 -345t236 -132q129 0 217 63
t122 171q14 47 23 102h-325l37 237h613l-123 -779h-201l-11 104q-143 -134 -400 -134zM846 1515l39 249h285l-39 -249h-285z" />
    <glyph glyph-name="gdotaccent" unicode="&#x121;" 
d="M438 -400q-282 0 -402 201l207 123q79 -111 232 -111q82 0 151 55t88 141q15 57 21 97q-39 -41 -107 -67.5t-131 -26.5q-204 0 -308.5 139t-67.5 370q36 233 184 372.5t345 139.5q78 0 132.5 -34t77.5 -82l14 86h287l-135 -851q-45 -282 -190 -417t-398 -135zM413 521
q-22 -135 19 -208.5t130 -73.5t151.5 73t84.5 209q21 135 -19 210t-127 75q-90 0 -154 -74.5t-85 -210.5zM578 1198l39 250h284l-39 -250h-284z" />
    <glyph glyph-name="uni0122" unicode="&#x122;" horiz-adv-x="1394" 
d="M714 -30q-185 0 -319 87t-194 250.5t-27 375.5q33 207 140.5 368.5t275.5 252.5t369 91q117 0 214 -37t154 -98q100 -109 132 -214l-268 -75q-2 4 -7 12q-39 67 -79 109q-63 64 -182 64q-172 0 -290.5 -127.5t-153.5 -345.5q-33 -213 47 -345t236 -132q129 0 217 63
t122 171q14 47 23 102h-325l37 237h613l-123 -779h-201l-11 104q-143 -134 -400 -134zM484 -470l137 364h303l-245 -364h-195z" />
    <glyph glyph-name="uni0123" unicode="&#x123;" 
d="M438 -400q-133 0 -238 52.5t-164 148.5l207 123q79 -111 232 -111q82 0 151 55t88 141q15 57 21 97q-38 -41 -106.5 -67.5t-131.5 -26.5q-205 0 -309 138.5t-67 370.5q36 233 183 372.5t345 139.5q78 0 133 -34.5t78 -81.5l14 86h287l-135 -851q-45 -283 -189.5 -417.5
t-398.5 -134.5zM413 521q-22 -136 18 -209t129 -73t152.5 73t85.5 209q21 135 -19.5 210t-128.5 75q-90 0 -152.5 -74t-84.5 -211zM551 1152l244 365h192l-135 -365h-301z" />
    <glyph glyph-name="Hbar" unicode="&#x126;" horiz-adv-x="1425" 
d="M160 0l157 992h-128l35 218h128l24 155h294l-24 -155h511l24 155h297l-24 -155h131l-35 -218h-131l-157 -992h-297l92 583h-511l-92 -583h-294zM584 818h511l27 174h-511z" />
    <glyph glyph-name="hbar" unicode="&#x127;" horiz-adv-x="982" 
d="M3 0l169 1068h-122l32 202h122l22 136h283l-22 -136h375l-32 -202h-375l-30 -189h1q119 97 264 97q137 0 230 -75q51 -42 72.5 -124t4.5 -190l-93 -587h-286l89 560q30 189 -105 189q-87 0 -153.5 -71t-82.5 -173l-80 -505h-283z" />
    <glyph glyph-name="Imacron" unicode="&#x12a;" horiz-adv-x="555" 
d="M132 0l216 1365h296l-216 -1365h-296zM152 1513l28 181h735l-28 -181h-735z" />
    <glyph glyph-name="imacron" unicode="&#x12b;" horiz-adv-x="565" 
d="M129 0l159 1003h284l-159 -1003h-284zM103 1196l29 181h735l-29 -181h-735z" />
    <glyph glyph-name="Iogonek" unicode="&#x12e;" horiz-adv-x="554" 
d="M216 0l216 1365h296l-216 -1365h-30q-85 -41 -144.5 -88t-65.5 -84q-4 -28 10.5 -42.5t48.5 -14.5q53 0 120 16l-26 -166q-80 -21 -184 -21q-118 0 -180 47.5t-49 127.5q11 64 67.5 123t137.5 102h-1z" />
    <glyph glyph-name="iogonek" unicode="&#x12f;" horiz-adv-x="578" 
d="M-32 -225q11 68 72.5 128.5t147.5 103.5l158 996h282l-159 -1003h-29q-85 -41 -144.5 -88t-65.5 -84q-4 -28 10.5 -42.5t48.5 -14.5q52 0 119 16l-26 -166q-78 -21 -183 -21q-119 0 -181.5 47.5t-49.5 127.5zM359 1110l43 273h289l-43 -273h-289z" />
    <glyph glyph-name="Idotaccent" unicode="&#x130;" horiz-adv-x="440" 
d="M72 0l216 1365h296l-216 -1365h-296zM317 1515l39 249h283l-39 -249h-283z" />
    <glyph glyph-name="dotlessi" unicode="&#x131;" horiz-adv-x="440" 
d="M78 0l159 1003h284l-159 -1003h-284z" />
    <glyph glyph-name="IJ" unicode="&#x132;" horiz-adv-x="1511" 
d="M925 -30q-167 0 -265 87.5t-116 217.5l253 92q8 -67 50.5 -114t109.5 -47q167 0 202 225l148 934h297l-153 -966q-32 -202 -170 -315.5t-356 -113.5zM142 0l216 1365h296l-216 -1365h-296z" />
    <glyph glyph-name="ij" unicode="&#x133;" horiz-adv-x="1095" 
d="M470 -379l37 231h33q65 0 101.5 41t51.5 133l155 977h285l-156 -987q-31 -195 -140.5 -295t-288.5 -100h-78zM125 0l159 1003h282l-159 -1003h-282zM297 1110l43 273h289l-43 -273h-289zM862 1110l43 273h292l-43 -273h-292z" />
    <glyph glyph-name="uni0136" unicode="&#x136;" horiz-adv-x="1245" 
d="M72 0l216 1365h296l-87 -553h5l595 553h371l-667 -600l456 -765h-353l-320 569l-147 -132l-69 -437h-296zM332 -415l138 365h302l-246 -365h-194z" />
    <glyph glyph-name="uni0137" unicode="&#x137;" horiz-adv-x="1025" 
d="M78 0l223 1406h283l-118 -740l384 337h351l-467 -411l323 -592h-331l-207 405l-109 -97l-49 -308h-283zM253 -415l139 365h301l-245 -365h-195z" />
    <glyph glyph-name="Lacute" unicode="&#x139;" horiz-adv-x="1055" 
d="M72 0l216 1365h296l-178 -1128h643l-38 -237h-939zM337 1468l259 328h334l-354 -328h-239z" />
    <glyph glyph-name="lacute" unicode="&#x13a;" horiz-adv-x="551" 
d="M101 0l223 1406h285l-223 -1406h-285zM311 1468l258 328h334l-354 -328h-238z" />
    <glyph glyph-name="uni013B" unicode="&#x13b;" horiz-adv-x="1055" 
d="M72 0l216 1365h296l-178 -1128h643l-38 -237h-939zM258 -470l137 364h303l-246 -364h-194z" />
    <glyph glyph-name="uni013C" unicode="&#x13c;" horiz-adv-x="468" 
d="M91 0l223 1406h285l-223 -1406h-285zM-68 -470l138 364h303l-246 -364h-195z" />
    <glyph glyph-name="Lcaron" unicode="&#x13d;" horiz-adv-x="1519" 
d="M72 0l216 1365h296l-178 -1128h643l-38 -237h-939zM746 971l152 394h288l-241 -394h-199z" />
    <glyph glyph-name="lcaron" unicode="&#x13e;" horiz-adv-x="933" 
d="M78 0l223 1406h285l-223 -1406h-285zM589 987l153 394h287l-241 -394h-199z" />
    <glyph glyph-name="Lslash" unicode="&#x141;" horiz-adv-x="1219" 
d="M280 0l70 443l-161 -85l-104 207l310 160l101 640h296l-75 -474l231 123l104 -202l-379 -201l-59 -374h643l-38 -237h-939z" />
    <glyph glyph-name="lslash" unicode="&#x142;" horiz-adv-x="763" 
d="M240 0l77 486l-165 -82l-103 207l312 156l102 639h285l-77 -485l167 82l97 -205l-308 -156l-102 -642h-285z" />
    <glyph glyph-name="Nacute" unicode="&#x143;" horiz-adv-x="1256" 
d="M726 1487l258 328h335l-355 -328h-238zM72 0l216 1365h301l370 -909l144 909h297l-216 -1365h-301l-373 896l-142 -896h-296z" />
    <glyph glyph-name="nacute" unicode="&#x144;" horiz-adv-x="1058" 
d="M78 0l159 1003h273l-16 -98h1q108 128 294 128q355 0 293 -390l-102 -643h-283l97 611q16 106 -8.5 150.5t-95.5 44.5q-89 0 -154.5 -66.5t-82.5 -170.5l-90 -569h-285zM518 1151l259 329h334l-355 -329h-238z" />
    <glyph glyph-name="uni0145" unicode="&#x145;" horiz-adv-x="1256" 
d="M360 -470l137 364h302l-245 -364h-194zM72 0l216 1365h301l370 -909l144 909h297l-216 -1365h-301l-373 896l-142 -896h-296z" />
    <glyph glyph-name="uni0146" unicode="&#x146;" horiz-adv-x="1058" 
d="M78 0l159 1003h273l-16 -98h1q108 128 294 128q355 0 293 -390l-102 -643h-283l97 611q16 106 -8.5 150.5t-95.5 44.5q-89 0 -154.5 -66.5t-82.5 -170.5l-90 -569h-285zM277 -470l136 364h302l-245 -364h-193z" />
    <glyph glyph-name="Ncaron" unicode="&#x147;" horiz-adv-x="1256" 
d="M500 1796h274l114 -175l174 175h273l-352 -309h-239zM72 0l216 1365h301l370 -909l144 909h297l-216 -1365h-301l-373 896l-142 -896h-296z" />
    <glyph glyph-name="ncaron" unicode="&#x148;" horiz-adv-x="1058" 
d="M78 0l159 1003h273l-16 -98h1q108 128 294 128q355 0 293 -390l-102 -643h-283l97 611q16 106 -8.5 150.5t-95.5 44.5q-89 0 -154.5 -66.5t-82.5 -170.5l-90 -569h-285zM356 1461h275l113 -175l174 175h274l-353 -310h-239z" />
    <glyph glyph-name="Omacron" unicode="&#x14c;" horiz-adv-x="1410" 
d="M700 -30q-290 0 -433.5 195t-92.5 517q51 321 257.5 517t494.5 196t432.5 -196t93.5 -517q-51 -322 -257.5 -517t-494.5 -195zM480 682q-35 -222 33.5 -349t224.5 -127t264 127t143 349q35 220 -33 347t-224 127t-264.5 -127.5t-143.5 -346.5zM574 1513l28 181h737
l-28 -181h-737z" />
    <glyph glyph-name="omacron" unicode="&#x14d;" horiz-adv-x="1082" 
d="M537 -30q-111 0 -197.5 33.5t-134.5 90.5q-128 150 -87 408q32 209 172 364q70 78 179 122.5t237 44.5q129 0 222.5 -44t140.5 -123q89 -153 57 -364q-25 -149 -102 -273q-44 -72 -109 -129q-66 -58 -165 -94t-213 -36zM362 1195l29 181h735l-29 -181h-735zM411 502
q-25 -154 24 -229.5t138 -75.5q69 0 144 59q40 32 71.5 97t45.5 149q27 178 -38 246q-55 58 -126 58q-42 0 -81 -17t-75 -51.5t-63 -95t-40 -140.5z" />
    <glyph glyph-name="Ohungarumlaut" unicode="&#x150;" horiz-adv-x="1410" 
d="M700 -30q-290 0 -433.5 195t-92.5 517q51 321 257.5 517t494.5 196t432.5 -196t93.5 -517q-51 -322 -257.5 -517t-494.5 -195zM480 682q-35 -222 33.5 -349t224.5 -127t264 127t143 349q35 220 -33 347t-224 127t-264.5 -127.5t-143.5 -346.5zM590 1487l254 351h304
l-318 -351h-240zM971 1487l255 351h302l-317 -351h-240z" />
    <glyph glyph-name="ohungarumlaut" unicode="&#x151;" horiz-adv-x="1121" 
d="M537 -30q-111 0 -197.5 33.5t-134.5 90.5q-128 150 -87 408q32 209 172 364q70 78 179 122.5t237 44.5q129 0 222.5 -44t140.5 -123q89 -153 57 -364q-25 -149 -102 -273q-44 -72 -109 -129q-66 -58 -165 -94t-213 -36zM385 1151l255 351h304l-319 -351h-240zM411 502
q-25 -154 24 -229.5t138 -75.5q69 0 144 59q40 32 71.5 97t45.5 149q27 178 -38 246q-55 58 -126 58q-42 0 -81 -17t-75 -51.5t-63 -95t-40 -140.5zM766 1151l256 351h301l-318 -351h-239z" />
    <glyph glyph-name="OE" unicode="&#x152;" horiz-adv-x="1995" 
d="M703 -30q-292 0 -436 195.5t-93 516.5q50 319 258.5 516t496.5 197q127 0 197 -30h983l-38 -238h-697l-48 -306h628l-37 -233h-628l-55 -351h719l-38 -237h-1001q-102 -30 -211 -30zM480 682q-35 -219 35 -347.5t226 -128.5q105 0 200 69l128 813q-65 68 -178 68
q-156 0 -266 -127.5t-145 -346.5z" />
    <glyph glyph-name="oe" unicode="&#x153;" horiz-adv-x="1796" 
d="M1267 -28q-222 0 -342 137q-4 -5 -10 -9q-66 -58 -165 -94t-213 -36q-111 0 -197.5 33.5t-134.5 90.5q-128 150 -87 408q32 209 172 364q70 78 179 122.5t237 44.5q115 0 203 -35.5t138 -99.5q162 137 379 137q103 0 188.5 -38.5t142 -107t80 -167.5t5.5 -215
q-7 -47 -21 -97h-713q-15 -97 39.5 -161.5t161.5 -64.5q79 0 145.5 36.5t106.5 96.5l225 -78q-75 -119 -210.5 -193t-308.5 -74zM411 502q-25 -154 24 -229.5t138 -75.5q69 0 144 59q40 32 71.5 97t45.5 149q27 178 -38 246q-55 58 -126 58q-42 0 -81 -17t-75 -51.5t-63 -95
t-40 -140.5zM1139 592h425q16 101 -29.5 168t-141.5 67q-98 0 -168 -68.5t-86 -166.5z" />
    <glyph glyph-name="Racute" unicode="&#x154;" horiz-adv-x="1267" 
d="M72 0l217 1367h592q223 0 339.5 -118.5t87.5 -303.5q-28 -174 -165 -292q58 -91 45 -260q-13 -110 -0.5 -182t77.5 -211h-339q-40 74 -47 153t4 221q9 56 0 88t-42.5 44t-111.5 12h-277l-82 -518h-298zM486 746h253q109 0 177.5 49.5t82.5 140.5q15 95 -34.5 143
t-164.5 48h-254zM603 1487l258 328h333l-354 -328h-237z" />
    <glyph glyph-name="racute" unicode="&#x155;" horiz-adv-x="758" 
d="M78 0l159 1003h273l-14 -85q43 50 112.5 82.5t145.5 32.5q92 0 129 -19l-39 -242q-63 17 -129 17q-112 0 -182.5 -81t-93.5 -225l-76 -483h-285zM393 1151l259 329h334l-356 -329h-237z" />
    <glyph glyph-name="uni0156" unicode="&#x156;" horiz-adv-x="1267" 
d="M72 0l217 1367h592q223 0 339.5 -118.5t87.5 -303.5q-28 -174 -165 -292q58 -91 45 -260q-13 -110 -0.5 -182t77.5 -211h-339q-40 74 -47 153t4 221q9 56 0 88t-42.5 44t-111.5 12h-277l-82 -518h-298zM348 -470l137 364h301l-244 -364h-194zM486 746h253
q109 0 177.5 49.5t82.5 140.5q15 95 -34.5 143t-164.5 48h-254z" />
    <glyph glyph-name="uni0157" unicode="&#x157;" horiz-adv-x="721" 
d="M70 0l159 1003h275l-14 -85q43 50 112.5 82.5t144.5 32.5q94 0 129 -19l-39 -242q-60 17 -129 17q-112 0 -182.5 -81t-93.5 -225l-76 -483h-286zM-64 -470l137 364h302l-244 -364h-195z" />
    <glyph glyph-name="Rcaron" unicode="&#x158;" horiz-adv-x="1267" 
d="M72 0l217 1367h592q223 0 339.5 -118.5t87.5 -303.5q-28 -174 -165 -292q58 -91 45 -260q-13 -110 -0.5 -182t77.5 -211h-339q-40 74 -47 153t4 221q9 56 0 88t-42.5 44t-111.5 12h-277l-82 -518h-298zM433 1796h275l111 -175l176 175h273l-352 -309h-239zM486 746h253
q109 0 177.5 49.5t82.5 140.5q15 95 -34.5 143t-164.5 48h-254z" />
    <glyph glyph-name="rcaron" unicode="&#x159;" horiz-adv-x="727" 
d="M101 0l159 1003h275l-14 -85q43 50 112.5 82.5t144.5 32.5q94 0 129 -19l-39 -242q-60 17 -129 17q-112 0 -182.5 -81t-93.5 -225l-76 -483h-286zM215 1461h275l112 -175l176 175h272l-351 -310h-239z" />
    <glyph glyph-name="Sacute" unicode="&#x15a;" horiz-adv-x="1200" 
d="M621 -30q-202 0 -346.5 92t-191.5 250l271 81q32 -81 120.5 -134t190.5 -53q101 0 170.5 46t80.5 116q12 76 -45.5 124.5t-194.5 94.5q-201 65 -267 99q-195 108 -162 321q28 173 192.5 280.5t397.5 107.5q195 0 321.5 -85t171.5 -229l-262 -77q-95 152 -271 152
q-101 0 -166.5 -40.5t-76.5 -108.5q-3 -30 2 -50q2 -8 6.5 -16t8.5 -13.5t13.5 -14.5t12.5 -12t14 -12t12 -9q22 -18 123 -54q36 -13 69 -23t57 -16.5t28 -7.5q154 -52 246 -131q107 -95 80 -268q-20 -127 -105.5 -220.5t-215 -141.5t-284.5 -48zM676 1487l257 328h334
l-354 -328h-237z" />
    <glyph glyph-name="sacute" unicode="&#x15b;" horiz-adv-x="970" 
d="M505 -30q-160 0 -278 67t-165 179l218 110q87 -142 250 -142q66 0 109.5 27t49.5 67q5 30 -9 50t-45 37q-26 14 -67 30q-16 6 -38 13q-43 8 -83 26q-142 46 -205.5 114t-43.5 189q14 87 82.5 155.5t170 104.5t216.5 36q134 0 246.5 -66t154.5 -173l-204 -102
q-93 128 -228 128q-62 0 -103.5 -25t-47.5 -64q-5 -29 8 -48t41 -38q19 -14 86 -35q38 -13 62.5 -21t38.5 -13q293 -96 262 -301q-21 -131 -149.5 -218t-328.5 -87zM487 1151l259 329h333l-355 -329h-237z" />
    <glyph glyph-name="Scedilla" unicode="&#x15e;" horiz-adv-x="1200" 
d="M491 -408q-88 0 -174 20l25 163q87 -16 167 -16q112 0 121 55q2 17 -12.5 26.5t-45.5 15.5q-68 9 -114 9h-24l49 117q-151 29 -256 115t-144 215l271 81q32 -81 120.5 -134t190.5 -53q101 0 170.5 46t80.5 116q12 76 -45.5 124.5t-194.5 94.5q-201 65 -267 99
q-195 108 -162 321q28 173 192.5 280.5t397.5 107.5q195 0 321.5 -85t171.5 -229l-262 -77q-95 152 -271 152q-101 0 -166.5 -40.5t-76.5 -108.5q-3 -30 2 -50q2 -8 6.5 -16t8.5 -13.5t13.5 -14.5t12.5 -12t14 -12t12 -9q22 -18 123 -54q36 -13 69 -23t57 -16.5t28 -7.5
q154 -52 246 -131q107 -95 80 -268q-26 -166 -160.5 -272t-332.5 -131l-12 -27q69 -14 104 -55.5t25 -100.5q-14 -87 -105 -144.5t-254 -57.5z" />
    <glyph glyph-name="scedilla" unicode="&#x15f;" horiz-adv-x="970" 
d="M350 -408q-88 0 -174 20l25 163q89 -16 167 -16q113 0 122 55q2 17 -13 27t-45 15q-61 9 -114 9h-24l52 125q-102 27 -175.5 86t-108.5 140l218 110q87 -142 250 -142q66 0 109.5 27t49.5 67q5 30 -9 50t-45 37q-26 14 -67 30q-16 6 -38 13q-43 8 -83 26
q-142 46 -205.5 114t-43.5 189q14 87 82.5 155.5t170 104.5t216.5 36q134 0 246.5 -66t154.5 -173l-204 -102q-93 128 -228 128q-62 0 -103.5 -25t-47.5 -64q-5 -29 8 -48t41 -38q19 -14 86 -35q38 -13 62.5 -21t38.5 -13q293 -96 262 -301q-19 -116 -123 -199t-269 -101
l-11 -25q70 -14 104.5 -55.5t24.5 -100.5q-14 -87 -105 -144.5t-254 -57.5z" />
    <glyph glyph-name="Scaron" unicode="&#x160;" horiz-adv-x="1200" 
d="M621 -30q-202 0 -346.5 92t-191.5 250l271 81q32 -81 120.5 -134t190.5 -53q101 0 170.5 46t80.5 116q12 76 -45.5 124.5t-194.5 94.5q-201 65 -267 99q-195 108 -162 321q28 173 192.5 280.5t397.5 107.5q195 0 321.5 -85t171.5 -229l-262 -77q-95 152 -271 152
q-101 0 -166.5 -40.5t-76.5 -108.5q-3 -30 2 -50q2 -8 6.5 -16t8.5 -13.5t13.5 -14.5t12.5 -12t14 -12t12 -9q22 -18 123 -54q36 -13 69 -23t57 -16.5t28 -7.5q154 -52 246 -131q107 -95 80 -268q-20 -127 -105.5 -220.5t-215 -141.5t-284.5 -48zM497 1796h275l113 -175
l174 175h274l-352 -309h-239z" />
    <glyph glyph-name="scaron" unicode="&#x161;" horiz-adv-x="970" 
d="M505 -30q-160 0 -278 67t-165 179l218 110q87 -142 250 -142q66 0 109.5 27t49.5 67q5 30 -9 50t-45 37q-26 14 -67 30q-16 6 -38 13q-43 8 -83 26q-142 46 -205.5 114t-43.5 189q14 87 82.5 155.5t170 104.5t216.5 36q134 0 246.5 -66t154.5 -173l-204 -102
q-93 128 -228 128q-62 0 -103.5 -25t-47.5 -64q-5 -29 8 -48t41 -38q19 -14 86 -35q38 -13 62.5 -21t38.5 -13q293 -96 262 -301q-21 -131 -149.5 -218t-328.5 -87zM304 1461h275l111 -175l176 175h274l-354 -310h-238z" />
    <glyph glyph-name="uni0162" unicode="&#x162;" horiz-adv-x="1176" 
d="M443 0l178 1127h-411l38 238h1112l-38 -238h-408l-178 -1127h-33l-22 -50q68 -14 103 -55.5t25 -100.5q-14 -87 -104.5 -144.5t-254.5 -57.5q-88 0 -174 20l25 163q87 -16 168 -16q111 0 120 55q2 16 -13 26t-45 16q-61 9 -114 9h-22l56 135h-8z" />
    <glyph glyph-name="uni0163" unicode="&#x163;" horiz-adv-x="695" 
d="M318 -403q-94 0 -174 18l26 163q89 -16 166 -16q109 0 118 53q8 48 -178 54h-16l69 164q-152 69 -117 289l72 457h-153l36 224h153l45 285h283l-45 -285h222l-36 -224h-222l-70 -442q-17 -110 86 -110h121l-36 -227h-101l-20 -46q68 -15 102 -56t24 -101
q-14 -87 -103.5 -143.5t-251.5 -56.5z" />
    <glyph glyph-name="Tcaron" unicode="&#x164;" horiz-adv-x="1176" 
d="M443 0l178 1127h-411l38 238h1112l-38 -238h-408l-178 -1127h-293zM447 1796h275l113 -175l174 175h273l-350 -309h-241z" />
    <glyph glyph-name="tcaron" unicode="&#x165;" horiz-adv-x="1361" 
d="M511 0q-350 0 -299 322l72 457h-153l36 224h153l45 285h283l-45 -285h222l-36 -224h-222l-70 -442q-17 -110 86 -110h121l-36 -227h-157zM668 1046l151 396h288l-240 -396h-199z" />
    <glyph glyph-name="Umacron" unicode="&#x16a;" horiz-adv-x="1255" 
d="M622 -30q-269 0 -390 138t-77 413l133 844h298l-134 -847q-50 -312 208 -312t307 312l134 847h298l-133 -844q-43 -269 -205 -410t-439 -141zM502 1513l28 181h735l-28 -181h-735z" />
    <glyph glyph-name="umacron" unicode="&#x16b;" horiz-adv-x="1057" 
d="M441 -30q-105 0 -179 41q-48 25 -81 67q-34 43 -46 117t2 175l100 633h286l-96 -604q-31 -202 113 -202q83 0 144.5 72t78.5 178l88 556h287l-159 -1003h-273l14 90h-6q-40 -53 -114 -86.5t-159 -33.5zM336 1195l29 181h734l-29 -181h-734z" />
    <glyph glyph-name="Uring" unicode="&#x16e;" horiz-adv-x="1255" 
d="M622 -30q-269 0 -390 138t-77 413l133 844h298l-134 -847q-50 -312 208 -312t307 312l134 847h298l-133 -844q-43 -269 -205 -410t-439 -141zM592 1658q18 115 116.5 195t226.5 80q129 0 202 -81t55 -194q-19 -117 -118.5 -197t-225.5 -80q-123 0 -199 79.5t-57 197.5z
M784 1658q-7 -44 19 -74t72 -30q44 0 78.5 29.5t41.5 74.5q7 43 -17.5 72.5t-69.5 29.5q-46 0 -81.5 -29.5t-42.5 -72.5z" />
    <glyph glyph-name="uring" unicode="&#x16f;" horiz-adv-x="1057" 
d="M441 -30q-105 0 -179 41q-48 25 -81 67q-34 43 -46 117t2 175l100 633h286l-96 -604q-31 -202 113 -202q83 0 144.5 72t78.5 178l88 556h287l-159 -1003h-273l14 90h-6q-40 -53 -114 -86.5t-159 -33.5zM444 1364q18 114 116.5 194t227.5 80t201.5 -80.5t54.5 -193.5
q-19 -119 -118.5 -198.5t-224.5 -79.5q-124 0 -199.5 79.5t-57.5 198.5zM636 1364q-7 -45 19.5 -74.5t73.5 -29.5q43 0 77.5 29.5t41.5 74.5q7 42 -18 72t-69 30q-47 0 -82.5 -29.5t-42.5 -72.5z" />
    <glyph glyph-name="Uhungarumlaut" unicode="&#x170;" horiz-adv-x="1255" 
d="M622 -30q-269 0 -390 138t-77 413l133 844h298l-134 -847q-50 -312 208 -312t307 312l134 847h298l-133 -844q-43 -269 -205 -410t-439 -141zM511 1487l254 351h305l-319 -351h-240zM892 1487l256 351h301l-317 -351h-240z" />
    <glyph glyph-name="uhungarumlaut" unicode="&#x171;" horiz-adv-x="1093" 
d="M441 -30q-105 0 -179 41q-48 25 -81 67q-34 43 -46 117t2 175l100 633h286l-96 -604q-31 -202 113 -202q83 0 144.5 72t78.5 178l88 556h287l-159 -1003h-273l14 90h-6q-40 -53 -114 -86.5t-159 -33.5zM357 1151l254 351h304l-319 -351h-239zM738 1151l255 351h302
l-317 -351h-240z" />
    <glyph glyph-name="Uogonek" unicode="&#x172;" horiz-adv-x="1255" 
d="M580 -402q-120 0 -181.5 47.5t-48.5 128.5q17 107 166 202q-214 26 -307 162.5t-54 382.5l133 844h298l-134 -847q-50 -312 208 -312t307 312l134 847h298l-133 -844q-35 -223 -153 -358.5t-314 -175.5q-78 -41 -130.5 -84t-58.5 -77q-4 -29 10.5 -43.5t48.5 -14.5
q47 0 121 17l-26 -165q-78 -22 -184 -22z" />
    <glyph glyph-name="uogonek" unicode="&#x173;" horiz-adv-x="1027" 
d="M441 -30q-105 0 -179 41q-48 25 -81 67q-34 43 -46 117t2 175l100 633h286l-96 -604q-31 -202 113 -202q83 0 144.5 72t78.5 178l88 556h287l-159 -1003h-26q-86 -42 -145.5 -89t-65.5 -83q-9 -57 60 -57q52 0 120 16l-26 -166q-80 -21 -185 -21q-118 0 -180 47.5
t-49 127.5q11 69 74.5 130.5t151.5 104.5l12 80h-6q-40 -53 -114 -86.5t-159 -33.5z" />
    <glyph glyph-name="Wcircumflex" unicode="&#x174;" horiz-adv-x="1734" 
d="M645 1487l372 328h240l278 -328h-293l-126 195l-178 -195h-293zM222 1365h308l16 -1069h11l377 1069h294l44 -1069h8l353 1069h311l-539 -1365h-336l-34 1033h-9l-362 -1033h-334z" />
    <glyph glyph-name="wcircumflex" unicode="&#x175;" horiz-adv-x="1461" 
d="M466 1151l373 329h241l276 -329h-293l-125 196l-178 -196h-294zM155 1003h303l20 -740h7l261 740h285l30 -740h7l254 740h302l-447 -1003h-305l-24 714h-7l-251 -714h-306z" />
    <glyph glyph-name="Ycircumflex" unicode="&#x176;" horiz-adv-x="1323" 
d="M458 1487l370 328h242l277 -328h-292l-125 195l-179 -195h-293zM226 1365h336l214 -596h10l401 596h340l-632 -814l-87 -551h-297l87 551z" />
    <glyph glyph-name="ycircumflex" unicode="&#x177;" horiz-adv-x="1022" 
d="M250 1151l372 329h242l275 -329h-293l-125 196l-177 -196h-294zM33 -393l35 223h34q91 0 146.5 29t91.5 98l48 89l-241 957h307l115 -690h5l312 690h307l-612 -1113q-83 -152 -195.5 -217.5t-272.5 -65.5h-80z" />
    <glyph glyph-name="Ydieresis" unicode="&#x178;" horiz-adv-x="1323" 
d="M583 1760h275l-39 -245h-275zM226 1365h336l214 -596h10l401 596h340l-632 -814l-87 -551h-297l87 551zM988 1515l39 245h277l-39 -245h-277z" />
    <glyph glyph-name="Zacute" unicode="&#x179;" horiz-adv-x="1263" 
d="M78 0l32 200l863 927h-658l38 238h1027l-32 -206l-863 -922h738l-38 -237h-1107zM699 1487l257 328h336l-355 -328h-238z" />
    <glyph glyph-name="zacute" unicode="&#x17a;" horiz-adv-x="1096" 
d="M90 0l28 175l607 604h-473l36 224h845l-26 -165l-614 -611h543l-36 -227h-910zM557 1151l258 329h336l-356 -329h-238z" />
    <glyph glyph-name="Zdotaccent" unicode="&#x17b;" horiz-adv-x="1263" 
d="M78 0l32 200l863 927h-658l38 238h1027l-32 -206l-863 -922h738l-38 -237h-1107zM744 1515l39 249h285l-39 -249h-285z" />
    <glyph glyph-name="zdotaccent" unicode="&#x17c;" horiz-adv-x="1096" 
d="M90 0l28 175l607 604h-473l36 224h845l-26 -165l-614 -611h543l-36 -227h-910zM601 1198l39 250h283l-39 -250h-283z" />
    <glyph glyph-name="Zcaron" unicode="&#x17d;" horiz-adv-x="1263" 
d="M78 0l32 200l863 927h-658l38 238h1027l-32 -206l-863 -922h738l-38 -237h-1107zM521 1796h274l113 -175l174 175h274l-352 -309h-239z" />
    <glyph glyph-name="zcaron" unicode="&#x17e;" horiz-adv-x="1096" 
d="M90 0l28 175l607 604h-473l36 224h845l-26 -165l-614 -611h543l-36 -227h-910zM371 1461h274l113 -175l176 175h271l-352 -310h-239z" />
    <glyph glyph-name="uni018F" unicode="&#x18f;" horiz-adv-x="1412" 
d="M696 -30q-285 0 -430 194t-93 522q8 50 24 124h965q7 167 -71.5 256.5t-212.5 89.5q-208 0 -371 -181l-240 92q111 160 280 244t375 84q197 0 331 -91.5t186.5 -253.5t19.5 -372q-32 -203 -139.5 -364.5t-271 -252.5t-352.5 -91zM466 547q-5 -150 65.5 -245.5
t205.5 -95.5q137 0 246.5 103.5t143.5 262.5h-659q-2 -11 -2 -25z" />
    <glyph glyph-name="florin" unicode="&#x192;" horiz-adv-x="1017" 
d="M196 -483q-40 0 -66 2q-29 4 -33 4h-3l-11 2l-26 9l-39 47l26 165q135 -15 179 -15q80 0 111.5 34.5t49.5 143.5l126 797h-201l34 214h201l13 81q16 104 75.5 176.5t143.5 105.5t187 33h178l-33 -213h-174q-80 0 -104.5 -19.5t-35.5 -91.5l-11 -72h268l-34 -214h-268
l-127 -803q-29 -184 -139.5 -285t-286.5 -101z" />
    <glyph glyph-name="uni0218" unicode="&#x218;" horiz-adv-x="1200" 
d="M621 -30q-202 0 -346.5 92t-191.5 250l271 81q32 -81 120.5 -134t190.5 -53q101 0 170.5 46t80.5 116q12 76 -45.5 124.5t-194.5 94.5q-201 65 -267 99q-195 108 -162 321q28 173 192.5 280.5t397.5 107.5q195 0 321.5 -85t171.5 -229l-262 -77q-95 152 -271 152
q-101 0 -166.5 -40.5t-76.5 -108.5q-3 -30 2 -50q2 -8 6.5 -16t8.5 -13.5t13.5 -14.5t12.5 -12t14 -12t12 -9q22 -18 123 -54q36 -13 69 -23t57 -16.5t28 -7.5q154 -52 246 -131q107 -95 80 -268q-20 -127 -105.5 -220.5t-215 -141.5t-284.5 -48zM348 -470l137 364h302
l-245 -364h-194z" />
    <glyph glyph-name="uni0219" unicode="&#x219;" horiz-adv-x="970" 
d="M505 -30q-160 0 -278 67t-165 179l218 110q87 -142 250 -142q66 0 109.5 27t49.5 67q5 30 -9 50t-45 37q-26 14 -67 30q-16 6 -38 13q-43 8 -83 26q-142 46 -205.5 114t-43.5 189q14 87 82.5 155.5t170 104.5t216.5 36q134 0 246.5 -66t154.5 -173l-204 -102
q-93 128 -228 128q-62 0 -103.5 -25t-47.5 -64q-5 -29 8 -48t41 -38q19 -14 86 -35q38 -13 62.5 -21t38.5 -13q293 -96 262 -301q-21 -131 -149.5 -218t-328.5 -87zM225 -470l137 364h302l-244 -364h-195z" />
    <glyph glyph-name="uni021A" unicode="&#x21a;" horiz-adv-x="1176" 
d="M443 0l178 1127h-411l38 238h1112l-38 -238h-408l-178 -1127h-293zM282 -470l138 364h302l-245 -364h-195z" />
    <glyph glyph-name="uni021B" unicode="&#x21b;" horiz-adv-x="686" 
d="M511 0q-350 0 -299 322l72 457h-153l36 224h153l45 285h283l-45 -285h222l-36 -224h-222l-70 -442q-17 -110 86 -110h121l-36 -227h-157zM131 -470l137 364h303l-245 -364h-195z" />
    <glyph glyph-name="uni0237" unicode="&#x237;" horiz-adv-x="543" 
d="M-85 -380l36 231h33q66 0 102.5 41t51.5 131l155 980h288l-157 -989q-31 -194 -141 -294t-289 -100h-79z" />
    <glyph glyph-name="uni0259" unicode="&#x259;" horiz-adv-x="1114" 
d="M549 -30q-104 0 -189.5 38.5t-142 106.5t-79.5 167t-5 214q7 46 20 99h716q15 96 -41.5 161t-163.5 65q-79 0 -145 -36.5t-106 -95.5l-225 78q77 118 211.5 192t306.5 74q227 0 349.5 -147.5t84.5 -387.5q-25 -159 -111.5 -280t-211 -184.5t-268.5 -63.5zM404 413
q-16 -100 32 -167t146 -67q96 0 168.5 68.5t87.5 165.5h-434z" />
    <glyph glyph-name="Wgrave" unicode="&#x1e80;" horiz-adv-x="1734" 
d="M788 1815h336l154 -328h-240zM222 1365h308l16 -1069h11l377 1069h294l44 -1069h8l353 1069h311l-539 -1365h-336l-34 1033h-9l-362 -1033h-334z" />
    <glyph glyph-name="wgrave" unicode="&#x1e81;" horiz-adv-x="1461" 
d="M577 1480h337l152 -329h-239zM155 1003h303l20 -740h7l261 740h285l30 -740h7l254 740h302l-447 -1003h-305l-24 714h-7l-251 -714h-306z" />
    <glyph glyph-name="Wacute" unicode="&#x1e82;" horiz-adv-x="1734" 
d="M908 1487l258 328h334l-354 -328h-238zM222 1365h308l16 -1069h11l377 1069h294l44 -1069h8l353 1069h311l-539 -1365h-336l-34 1033h-9l-362 -1033h-334z" />
    <glyph glyph-name="wacute" unicode="&#x1e83;" horiz-adv-x="1461" 
d="M745 1151l259 329h334l-356 -329h-237zM155 1003h303l20 -740h7l261 740h285l30 -740h7l254 740h302l-447 -1003h-305l-24 714h-7l-251 -714h-306z" />
    <glyph glyph-name="Wdieresis" unicode="&#x1e84;" horiz-adv-x="1734" 
d="M774 1760h275l-39 -245h-275zM222 1365h308l16 -1069h11l377 1069h294l44 -1069h8l353 1069h311l-539 -1365h-336l-34 1033h-9l-362 -1033h-334zM1180 1515l39 245h277l-39 -245h-277z" />
    <glyph glyph-name="wdieresis" unicode="&#x1e85;" horiz-adv-x="1461" 
d="M594 1442h275l-39 -246h-275zM155 1003h303l20 -740h7l261 740h285l30 -740h7l254 740h302l-447 -1003h-305l-24 714h-7l-251 -714h-306zM1001 1196l39 246h275l-39 -246h-275z" />
    <glyph glyph-name="Ygrave" unicode="&#x1ef2;" horiz-adv-x="1323" 
d="M594 1815h334l155 -328h-240zM226 1365h336l214 -596h10l401 596h340l-632 -814l-87 -551h-297l87 551z" />
    <glyph glyph-name="ygrave" unicode="&#x1ef3;" horiz-adv-x="1022" 
d="M366 1480h337l152 -329h-239zM33 -393l35 223h34q91 0 146.5 29t91.5 98l48 89l-241 957h307l115 -690h5l312 690h307l-612 -1113q-83 -152 -195.5 -217.5t-272.5 -65.5h-80z" />
    <glyph glyph-name="uni2010" unicode="&#x2010;" horiz-adv-x="1017" 
d="M280 458l33 211h667l-33 -211h-667z" />
    <glyph glyph-name="endash" unicode="&#x2013;" horiz-adv-x="1037" 
d="M73 458l33 211h1037l-33 -211h-1037z" />
    <glyph glyph-name="emdash" unicode="&#x2014;" horiz-adv-x="2138" 
d="M73 458l33 211h2138l-33 -211h-2138z" />
    <glyph glyph-name="uni2015" unicode="&#x2015;" horiz-adv-x="2028" 
d="M73 458l33 211h2028l-33 -211h-2028z" />
    <glyph glyph-name="quoteleft" unicode="&#x2018;" horiz-adv-x="730" 
d="M306 1013q27 168 100 282.5t233 209.5l162 -132q-109 -69 -154.5 -118t-66.5 -122h102l-48 -303h-357z" />
    <glyph glyph-name="quoteright" unicode="&#x2019;" horiz-adv-x="733" 
d="M283 866q110 70 155 118.5t66 122.5h-102l48 302h360l-29 -183q-27 -168 -101.5 -282.5t-234.5 -209.5z" />
    <glyph glyph-name="quotesinglbase" unicode="&#x201a;" horiz-adv-x="738" 
d="M95 -325q112 68 158 118t68 126h-102l48 302h360l-29 -183q-26 -165 -100.5 -280.5t-233.5 -210.5z" />
    <glyph glyph-name="quotereversed" unicode="&#x201b;" horiz-adv-x="730" 
d="M517 734q-130 95 -166.5 209t-10.5 283l29 183h357l-48 -302h-102q-2 -74 28 -122t117 -119z" />
    <glyph glyph-name="quotedblleft" unicode="&#x201c;" horiz-adv-x="1138" 
d="M305 1007q28 175 106 299.5t235 211.5l166 -136q-96 -46 -148.5 -102.5t-80.5 -149.5h102l-48 -300h-360zM679 830l28 177q27 168 103 287t234 211l166 -131q-109 -68 -155 -118t-68 -126h100l-48 -300h-360z" />
    <glyph glyph-name="quotedblright" unicode="&#x201d;" horiz-adv-x="1133" 
d="M684 854q107 66 152.5 117.5t67.5 135.5h-103l48 302h361l-28 -180q-28 -173 -106.5 -297.5t-235.5 -212.5zM283 866q108 68 152 116t65 125h-103l48 302h362l-28 -180q-27 -170 -103.5 -289.5t-236.5 -208.5z" />
    <glyph glyph-name="quotedblbase" unicode="&#x201e;" horiz-adv-x="1138" 
d="M493 -337q110 67 156.5 120.5t68.5 137.5h-100l48 300h361l-28 -177q-27 -173 -105 -296.5t-234 -213.5zM95 -325q110 68 155.5 117.5t66.5 128.5h-103l48 300h362l-28 -177q-26 -166 -102 -284.5t-234 -212.5z" />
    <glyph glyph-name="uni201F" unicode="&#x201f;" horiz-adv-x="1135" 
d="M521 719q-130 88 -169 212.5t-11 297.5l28 180h360l-48 -302h-102q-4 -84 25 -135.5t115 -117.5zM743 1229l28 180h360l-48 -302h-100q-2 -75 28 -125t115 -117l-202 -134q-131 89 -169.5 208.5t-11.5 289.5z" />
    <glyph glyph-name="bullet" unicode="&#x2022;" horiz-adv-x="679" 
d="M113 311l80 503h599l-80 -503h-599z" />
    <glyph glyph-name="ellipsis" unicode="&#x2026;" horiz-adv-x="1912" 
d="M229 409l49 308h348l-49 -308h-348zM922 409l49 308h347l-49 -308h-347zM1615 409l49 308h346l-49 -308h-346z" />
    <glyph glyph-name="fraction" unicode="&#x2044;" horiz-adv-x="367" 
d="M-363 -7l1114 1380h193l-1113 -1380h-194z" />
    <glyph glyph-name="uni20B9" unicode="&#x20b9;" horiz-adv-x="1387" 
d="M839 -86l-595 517l28 177h142q279 0 368 132h-597l105 216h523q-41 93 -167 93h-420l116 215h1187l-103 -215h-385q20 -39 27 -93h412l-103 -216h-343q-49 -119 -157 -200.5t-261 -117.5l550 -480l-14 -28h-313z" />
    <glyph glyph-name="trademark" unicode="&#x2122;" horiz-adv-x="1194" 
d="M711 871l87 552h97l110 -446l247 446h97l-87 -552h-97l53 338l-190 -338h-83l-84 334l-53 -334h-97zM267 1322l16 101h454l-16 -101h-175l-71 -451h-104l71 451h-175z" />
    <glyph glyph-name="arrowleft" unicode="&#x2190;" horiz-adv-x="2322" 
d="M934 219l-662 374l780 375l94 -180l-128 -85h1183l-35 -220h-1185l103 -87z" />
    <glyph glyph-name="arrowup" unicode="&#x2191;" horiz-adv-x="1428" 
d="M565 -200l174 1094l-144 -112l-203 90l557 589l363 -589l-219 -90l-114 113l-174 -1095h-240z" />
    <glyph glyph-name="arrowright" unicode="&#x2192;" horiz-adv-x="2322" 
d="M1458 219l-94 177l130 87h-1186l35 220h1183l-100 85l150 180l662 -375z" />
    <glyph glyph-name="arrowdown" unicode="&#x2193;" horiz-adv-x="1428" 
d="M673 -283l-371 589l232 89l108 -111l173 1094h240l-173 -1095l150 113l190 -91z" />
    <glyph glyph-name="arrowboth" unicode="&#x2194;" horiz-adv-x="2489" 
d="M860 221l-588 372l706 372l102 -164l-129 -98h808l-96 98l154 164l588 -372l-706 -372l-102 165l126 97h-805l96 -97z" />
    <glyph glyph-name="arrowupdn" unicode="&#x2195;" horiz-adv-x="1436" 
d="M674 -265l-383 489l203 111l138 -112l116 732l-173 -111l-168 109l538 492l388 -492l-206 -109l-139 111l-116 -732l174 112l171 -111z" />
    <glyph glyph-name="uni2215" unicode="&#x2215;" horiz-adv-x="1243" 
d="M-42 -301l1269 1728h258l-1271 -1728h-256z" />
    <glyph glyph-name="asteriskmath" unicode="&#x2217;" horiz-adv-x="1339" 
d="M567 77l56 355l-387 -207l-135 152l458 250l-379 248l183 153l324 -210l56 357h230l-56 -357l395 216l116 -165l-448 -242l375 -247l-181 -157l-318 207l-56 -353h-233z" />
    <glyph glyph-name="uniF8FF" unicode="&#xf8ff;" horiz-adv-x="1542" 
d="M758 60q-151 0 -279.5 75.5t-203 204.5t-74.5 280q0 152 75 280.5t203.5 203t280.5 74.5q151 0 279.5 -75t203.5 -203.5t75 -279.5q0 -152 -74.5 -281t-203.5 -204t-282 -75zM200 -164v146h59q26 0 44 -9q37 -17 37 -64q0 -23 -10 -39q-21 -34 -71 -34h-59zM235 -137h22
q18 0 26 4q22 10 22 42q0 18 -5 27q-12 20 -43 20h-22v-93zM268 621q0 -205 144 -350t348 -145q203 0 347.5 144.5t144.5 347.5q0 100 -39 191.5t-104.5 157.5t-156 105t-190.5 40q-134 0 -248 -65.5t-180 -178.5t-66 -247zM352 -109q0 16 8 29q16 27 52 27q26 0 42 -14
q18 -15 18 -42v-8h-85q0 -8 3 -13q7 -13 25 -13q7 0 10 1q9 3 14 12l31 -3q-2 -10 -10 -17q-14 -16 -45 -16q-17 0 -33 7q-30 14 -30 50zM387 -98h52l-3 10q-6 12 -23 12q-10 0 -14 -3q-10 -6 -12 -19zM442 719q10 -2 12 -4q52 -21 98 -27q41 -3 72 2q43 11 47 12
q3 0 8.5 2.5t7.5 3.5q-5 2 -16.5 8t-17 9t-13 8.5t-13.5 12.5h19q39 0 75 19q65 40 136 61q24 8 58 11q4 0 19.5 1t23.5 0q54 -2 89 -33q10 -11 28 -33v-2l-6 2q-45 17 -83 3.5t-62 -53.5q-7 -13 -25 -55q-9 -21 -27 -63.5t-20 -48.5q-33 -64 -65 -101q-27 -33 -66 -58
q-45 -34 -116 -55h-5l24 22q12 11 25 44q41 116 45 127q24 73 57 131v3q-2 -4 -11 -13q-8 -10 -10 -12q-23 -36 -31 -57q-2 -6 -8 -6q-99 3 -177 67q-40 38 -59 55q-1 1 -5 7t-8 10zM481 -132l33 2q5 -14 23 -14q20 0 20 11q0 8 -16 11l-21 4q-36 6 -36 31q0 11 6 18
q13 16 46 16q48 0 53 -32l-31 -3q-4 14 -21 14q-19 0 -19 -11q0 -8 16 -12l22 -3q36 -6 36 -30q0 -9 -7 -18q-13 -18 -48 -18q-51 0 -56 34zM605 -25q0 15 19 15q18 0 18 -15t-18 -15q-19 0 -19 15zM607 -164v109h34v-109h-34zM656 -109q0 20 7 31q13 25 43 25q10 0 18 -3
q12 -5 18 -17h1v18h35v-110q0 -14 -9 -23q-15 -19 -52 -19q-50 0 -57 31l31 3l2 -3q2 -2 4 -3q5 -6 21 -6q25 0 25 21v19h-1q-2 -3 -7 -8q-11 -9 -29 -9q-13 0 -25 5q-25 13 -25 48zM691 -109q0 -10 3 -16q6 -14 24 -14q25 0 25 30q0 9 -3 17q-6 15 -22 15q-7 0 -15 -4
q-12 -8 -12 -28zM798 -164v109h34v-19q10 21 37 21q13 0 23 -5q20 -10 20 -36v-70h-35v64q0 22 -21 22q-7 0 -13 -3q-11 -6 -11 -19v-64h-34zM927 -109q0 15 7 29q16 27 54 27q20 0 33 -7q28 -16 28 -49q0 -17 -7 -30q-16 -27 -54 -27q-16 0 -33 7q-28 16 -28 50zM962 -109
q0 -9 3 -18q7 -15 23 -15q10 0 15 4q12 9 12 29q0 2 -3 17q-8 16 -24 16q-7 0 -14 -5q-12 -7 -12 -28zM1051 -55h36l26 -78h1l26 78h36l-43 -109h-39zM1177 -133q0 17 15 25q13 8 32 8l17 3q13 0 13 7v1q0 14 -19 14q-17 0 -22 -13l-32 3q3 10 10 17q15 15 45 15q20 0 37 -9
q15 -8 15 -28v-74h-33v16q-5 -7 -9 -9q-9 -9 -27 -9q-13 0 -21 4q-21 8 -21 29zM1210 -133q0 -12 18 -12q8 0 14 3q12 5 12 18v11q-4 -2 -23 -5q-7 0 -12 -3q-9 -3 -9 -12zM1267 -16q0 16 11 26.5t27 10.5t26.5 -10.5t10.5 -26.5t-10.5 -27t-26.5 -11t-27 11t-11 27z
M1279 -16q0 -11 7.5 -19t18.5 -8t18.5 8t7.5 19t-7.5 18.5t-18.5 7.5t-18.5 -7.5t-7.5 -18.5zM1292 -33v35h14q12 0 12 -11q0 -5 -5 -10l8 -14h-10l-6 11h-5v-11h-8zM1300 -13h6q5 0 5 3t-5 3h-6v-6z" />
    <glyph glyph-name="_Designova" horiz-adv-x="1692" 
d="M844 -121q-174 0 -322.5 87t-235 235.5t-86.5 323.5q1 131 52 250.5t137.5 205.5t206 137t250.5 51q175 0 323.5 -86t235.5 -234.5t87 -323.5q0 -176 -87 -324.5t-236 -235t-325 -86.5zM278 525q0 -116 45 -221.5t120.5 -181.5t181 -121t221.5 -45q154 0 285 76t207 207
t76 285q0 116 -45 221.5t-120.5 181.5t-180.5 121t-221 45t-221 -45t-181.5 -120.5t-121.5 -181t-45 -221.5zM480 638q7 0 13 -4q58 -22 115 -31q45 -5 81 3q29 4 53 14q5 0 11.5 3t8.5 4q-5 3 -22.5 11.5t-27.5 15.5t-19 17h21q39 0 86 20q85 53 158 73q37 10 66 10
q6 0 24.5 1.5t26.5 0.5q67 -4 102 -39q6 -5 33 -37v-2q-3 2 -7 2q-53 20 -95.5 4.5t-71.5 -59.5q-5 -9 -10 -20.5t-11 -25t-9 -21.5q-6 -14 -25 -59t-30 -68q-36 -74 -74 -119q-20 -27 -74 -66q-52 -38 -136 -63h-7l28 24q18 17 30 51q7 20 25 71t27 78q31 90 65 150v1
q-3 -3 -11 -13q-9 -7 -11 -16q-23 -27 -38 -65q-3 -5 -9 -5q-117 5 -204 78q-10 10 -32.5 31t-33.5 32q-12 14 -16 18z" />
    <glyph glyph-name="_Origin" horiz-adv-x="2255" 
d="M150 929v50h1955v-50h-1955zM150 110v50h1955v-50h-1955zM228 311v177h42v-177h-42zM260 608v177h148v-32h-107v-39h97v-31h-97v-42h107v-33h-148zM298 311v177h34l89 -107v107h40v-177h-33l-88 109v-109h-42zM438 608v177h34l88 -107v107h40v-177h-33l-88 109v-109h-41z
M554 311v177h87q72 0 72 -45q0 -28 -26 -40q3 0 3 -2q28 -12 28 -42q0 -48 -71 -48h-93zM596 342h48q32 0 32 22t-32 22h-48v-44zM596 419h42q33 0 33 20q0 22 -33 22h-42v-42zM629 753v32h156v-32h-57v-145h-41v145h-58zM738 311v177h148v-33h-107v-38h96v-31h-96v-41h105
v-34h-146zM803 785h44l40 -124l42 124h38l40 -126l42 126h39l-57 -177h-45l-39 121l-41 -121h-43zM914 311v177h81q28 0 42 -6q36 -19 36 -57q0 -21 -10 -35q-15 -18 -29 -23l37 -56h-43l-35 50h-37v-50h-42zM956 394h37q38 0 38 31q0 30 -38 30h-37v-61zM1093 311v177h40
v-143h106v-34h-146zM1096 697q0 39 28 65q26 26 69 26t69 -26q28 -25 28 -65q0 -39 -28 -65q-26 -27 -68 -27q-44 0 -70 27q-28 28 -28 65zM1138 697q0 -25 15.5 -40.5t39.5 -15.5t39.5 15.5t15.5 40.5t-15.5 41.5t-39.5 16.5t-39.5 -16.5t-15.5 -41.5zM1268 311v177h41
v-177h-41zM1313 608v177h81q28 0 41 -6q36 -17 36 -57q0 -21 -10 -35q-9 -15 -29 -23l39 -56h-45l-33 50h-39v-50h-41zM1338 311v177h35l87 -107v107h42v-177h-34l-89 109v-109h-41zM1354 691h37q38 0 38 31t-38 31h-37v-62zM1491 608v177h148v-32h-107v-39h96v-31h-96v-75
h-41zM1528 335q0 24 25 24q10 0 17 -7t7 -17q0 -11 -7 -25l-14 -38h-26l12 41q-14 5 -14 22zM1655 608v177h147v-32h-106v-39h95v-31h-95v-42h106v-33h-147zM1678 311v177h80q30 0 52 -11q46 -21 46 -77q0 -28 -12 -47q-23 -42 -86 -42h-80zM1720 345h37q17 0 31 7
q26 14 26 48q0 21 -6 29q-14 26 -51 26h-37v-110zM1832 608v177h33l90 -107v107h40v-177h-34l-89 109v-109h-40zM1880 311v177h147v-33h-107v-38h97v-31h-97v-41h106v-34h-146z" />
    <glyph glyph-name="_VendorID" horiz-adv-x="1116" 
d="M73 -4v1187h974v-1187h-974zM76 -95q0 13 7.5 20.5t18.5 7.5q9 0 12 -3l4 -5v26h13v-72h-13v9l-4 -7q-8 -5 -15 -5q-23 0 -23 29zM90 -95q0 -17 13 -17q15 0 15 17v1q0 18 -13 18q-15 0 -15 -19zM126 47h869v1084h-869v-1084zM141 -95q0 13 7.5 20.5t19.5 7.5
q11 0 18.5 -7.5t7.5 -19.5q0 -2 -2 -5h-37q1 -13 13 -13q10 0 12 9h12q-4 -21 -24 -21q-27 0 -27 29zM155 -91h25q-3 15 -12 15q-12 0 -13 -15zM198 -106h14q3 -9 9 -9q9 0 9 7q0 3 -12 9q-18 5 -18 16q0 16 21 16t21 -16h-14q-1 7 -7 7q-7 0 -7 -6q0 -4 12 -9q17 -5 17 -15
q0 -18 -22 -18q-20 0 -23 18zM240 297q0 59 46 125l97 137h64l-84 -120q11 3 23 3q62 0 102.5 -41.5t40.5 -103.5q0 -61 -41.5 -103.5t-101.5 -42.5q-61 0 -103.5 42.5t-42.5 103.5zM240 768q0 56 46 123l97 142h64l-84 -122q7 2 23 2q63 0 103 -41t40 -104
q0 -61 -41 -102.5t-102 -41.5t-103.5 42t-42.5 102zM251 -56q0 7 8 7t8 -7q0 -8 -8 -8t-8 8zM252 -121v54h14v-54h-14zM276 -95q0 28 26 28q9 0 12 -3l4 -5v8h14v-41q0 -8 -2 -11q0 -24 -27 -24q-26 0 -26 18v1h14v-1q0 -8 12 -8q11 0 15 13v8l-4 -7q-8 -2 -14 -2
q-24 0 -24 26zM291 -94q0 -18 12 -18q15 0 15 17v1q0 18 -15 18q-12 0 -12 -18zM294 297q0 -42 25.5 -68t66.5 -26q39 0 64.5 26t25.5 68q0 40 -25.5 65t-64.5 25q-41 0 -66.5 -25t-25.5 -65zM294 768q0 -41 25.5 -67t66.5 -26q39 0 64.5 26.5t25.5 66.5t-25.5 66t-64.5 26
q-41 0 -66.5 -25t-25.5 -67zM343 -121v54h14v-10l4 7q5 3 13 3q17 0 20 -15q1 -3 1 -9v-30h-15v34q0 11 -10 11q-13 0 -13 -21v-24h-14zM402 -95q0 13 7.5 20.5t19.5 7.5q28 0 28 -28q0 -29 -28 -29q-12 0 -19.5 8t-7.5 21zM416 -95q0 -17 13 -17q15 0 15 17q0 19 -15 19
q-13 0 -13 -19zM462 -67h14l14 -45l13 45h14l-19 -54h-18zM522 -106q0 16 30 16h3v7q0 7 -9 7q-11 0 -11 -9h-13q0 18 24 18q19 0 21 -15v-39h-12v6l-3 -5q-8 -4 -14 -4q-16 0 -16 18zM535 -106q0 -6 8 -6q12 0 12 9v6q-20 2 -20 -9zM576 -78v9h6v8q0 15 19 15h6v-11
q-11 2 -11 -5v-7h11v-9h-11v-43h-14v43h-6zM589 297q0 62 44 125l97 137h66l-86 -120q10 3 25 3q61 0 102 -41.5t41 -103.5q0 -61 -41.5 -103.5t-101.5 -42.5q-61 0 -103.5 42.5t-42.5 103.5zM589 768q0 57 44 123l97 142h66l-87 -122q8 2 26 2q61 0 102 -41.5t41 -103.5
q0 -61 -41.5 -102.5t-101.5 -41.5q-61 0 -103.5 41.5t-42.5 102.5zM611 -95q0 28 28 28q27 0 27 -28q0 -29 -27 -29q-28 0 -28 29zM625 -95q0 -17 14 -17q13 0 13 17q0 19 -13 19q-14 0 -14 -19zM642 297q0 -42 26 -68t67 -26q38 0 62.5 26t24.5 68q0 40 -24.5 65t-62.5 25
q-41 0 -67 -25t-26 -65zM642 768q0 -41 26 -67t67 -26q38 0 62.5 26t24.5 67q0 40 -24.5 66t-62.5 26q-41 0 -67 -25.5t-26 -66.5zM675 -121v54h12v-10l6 7q4 3 13 3q16 0 19 -15v-39h-14v34q-4 11 -9 11q-15 0 -15 -21v-24h-12zM732 -78v9h8v13h14v-13h10v-9h-10v-28
q2 -10 9 -6v-10h-8q-15 0 -15 10v34h-8zM768 -106h15q1 -9 10 -9q8 0 8 7q0 3 -12 9q-17 5 -17 16q0 16 20 16q19 0 24 -16h-16q0 7 -9 7q-5 0 -5 -6q0 -5 11 -9q19 -6 19 -15q0 -18 -23 -18q-21 0 -25 18zM820 -116q0 10 9 10t9 -10q0 -8 -9 -8t-9 8zM844 -95q0 13 8 20.5
t18 7.5q25 0 25 -20h-13q-3 11 -12 11q-12 0 -12 -19q0 -17 12 -17q10 0 12 9h13q-1 -21 -25 -21q-26 0 -26 29zM900 -95q0 28 29 28q26 0 26 -28q0 -29 -26 -29q-29 0 -29 29zM914 -95q0 -17 15 -17q13 0 13 17q0 19 -13 19q-15 0 -15 -19zM965 -121v54h14v-9l5 6q3 3 9 3
q13 0 18 -10l5 7q3 3 11 3q17 0 17 -12q1 -4 1 -12v-30h-13v27q0 2 -0.5 5t-0.5 4q0 9 -10 9q-9 0 -9 -18v-27h-13v36q-5 9 -10 9q-10 0 -10 -18v-27h-14z" />
    </font>
</defs>
</svg>
