<?xml version="1.0" standalone="no"?>
<!DOCTYPE svg PUBLIC "-//W3C//DTD SVG 1.1//EN" "http://www.w3.org/Graphics/SVG/1.1/DTD/svg11.dtd" >
<svg xmlns="http://www.w3.org/2000/svg" xmlns:xlink="http://www.w3.org/1999/xlink" version="1.1">
<metadata>
Created by FontForge 20170731 at Wed Nov 15 16:17:21 2023
 By Aleksey,,,
Copyright (c) 2023 by Designova. All rights reserved.
</metadata>
<defs>
<font id="LinearGrotesk-ExtraLightItalic" horiz-adv-x="1161" >
  <font-face 
    font-family="Linear Grotesk ExLight Italic"
    font-weight="200"
    font-style="italic"
    font-stretch="normal"
    units-per-em="2048"
    panose-1="0 0 0 0 0 0 0 0 0 0"
    ascent="1638"
    descent="-410"
    x-height="961"
    cap-height="1351"
    bbox="-329 -465 2281 1890"
    underline-thickness="100"
    underline-position="-355"
    unicode-range="U+0020-F8FF"
  />
<missing-glyph horiz-adv-x="1419" 
d="M197 -17l221 1393h1019l-221 -1393h-1019zM350 207l398 473l-249 472zM396 97h658l-253 481zM579 1264l254 -484l407 484h-661zM886 680l249 -473l149 945z" />
    <glyph glyph-name=".notdef" horiz-adv-x="1419" 
d="M197 -17l221 1393h1019l-221 -1393h-1019zM350 207l398 473l-249 472zM396 97h658l-253 481zM579 1264l254 -484l407 484h-661zM886 680l249 -473l149 945z" />
    <glyph glyph-name=".null" horiz-adv-x="0" 
 />
    <glyph glyph-name="nonmarkingreturn" horiz-adv-x="682" 
 />
    <glyph glyph-name="space" unicode=" " horiz-adv-x="360" 
 />
    <glyph glyph-name="space" unicode="&#xa0;" horiz-adv-x="360" 
 />
    <glyph glyph-name="exclam" unicode="!" horiz-adv-x="546" 
d="M282 363l142 980h123l-173 -980h-92zM158 -32l29 186h219l-29 -186h-219z" />
    <glyph glyph-name="quotedbl" unicode="&#x22;" horiz-adv-x="1157" 
d="M752 993l291 530h162l-356 -530h-97zM350 993l292 530h162l-356 -530h-98z" />
    <glyph glyph-name="numbersign" unicode="#" horiz-adv-x="1327" 
d="M223 -10l126 385h-284l13 77h295l127 386h-287l12 76h300l124 382h92l-122 -382h469l125 382h92l-122 -382h281l-12 -76h-293l-127 -386h287l-13 -77h-299l-125 -385h-99l128 385h-468l-125 -385h-95zM469 452h469l127 386h-470z" />
    <glyph glyph-name="dollar" unicode="$" horiz-adv-x="1157" 
d="M530 -16q-114 7 -229.5 69t-169.5 158l93 46q45 -81 154 -136t215 -55q177 0 285.5 61.5t128.5 189.5q8 45 0 79q-10 41 -24.5 66t-47.5 50q-8 5 -24 17t-21.5 16t-18.5 12t-22.5 12.5t-24.5 11.5t-33 14q-54 21 -86 32l-94 32q-174 56 -254.5 139t-59.5 218
q21 133 146 225t302 98l24 152h101l-24 -153q114 -7 213 -67t125 -131l-89 -35q-103 152 -315 152q-162 0 -263 -66.5t-118 -175.5q-17 -107 52.5 -172.5t235.5 -120.5l51 -17t44.5 -15.5t34.5 -13t37.5 -14.5t35 -16t43.5 -22q65 -32 108 -75q38 -41 58.5 -100.5
t10.5 -125.5q-25 -157 -158 -244.5t-321 -94.5l-23 -147h-101z" />
    <glyph glyph-name="percent" unicode="%" horiz-adv-x="2048" 
d="M371 -26l1400 1377h118l-1401 -1377h-117zM304 1052q22 140 150.5 232t294.5 92q170 0 267 -91t75 -233q-23 -143 -151 -233.5t-294 -90.5q-165 0 -265 90t-77 234zM402 1052q-17 -106 58.5 -174.5t198.5 -68.5t219 68.5t113 174.5q16 106 -57 175t-198 69
q-126 0 -222 -69t-112 -175zM1167 275q22 142 149.5 233t296.5 91q168 0 266 -91t76 -233q-23 -142 -151.5 -233.5t-293.5 -91.5q-107 0 -190.5 40t-125.5 115t-27 170zM1268 275q-18 -109 57 -177t198 -68q121 0 219.5 69.5t115.5 175.5q16 107 -57.5 174.5t-200.5 67.5
t-221.5 -67.5t-110.5 -174.5z" />
    <glyph glyph-name="ampersand" unicode="&#x26;" horiz-adv-x="1247" 
d="M1020 159q-195 -184 -474 -184q-215 0 -326.5 98.5t-84.5 264.5q20 130 120 232.5t315 214.5q-84 118 -114.5 189.5t-19.5 141.5q19 119 110 190.5t224 71.5q126 0 193.5 -68.5t49.5 -181.5q-16 -101 -89.5 -184t-225.5 -175l341 -479q88 125 119 318h87
q-34 -220 -163 -382l162 -226h-110zM225 338q-22 -133 66 -209t265 -76q263 0 423 165l-366 508q-197 -99 -283.5 -186t-104.5 -202zM525 1116q-8 -51 16.5 -108t106.5 -170l8 -10q124 70 188.5 142.5t78.5 157.5q12 79 -32.5 125.5t-134.5 46.5q-92 0 -155 -49.5
t-76 -134.5z" />
    <glyph glyph-name="quotesingle" unicode="'" horiz-adv-x="755" 
d="M350 993l290 530h162l-355 -530h-97z" />
    <glyph glyph-name="parenleft" unicode="(" horiz-adv-x="740" 
d="M529 -310q-324 390 -236 940q89 557 534 944l77 -39q-95 -88 -159 -162.5t-142 -188.5q-155 -229 -206 -554q-56 -347 46 -586q50 -121 76.5 -168.5t98.5 -148.5z" />
    <glyph glyph-name="parenright" unicode=")" horiz-adv-x="738" 
d="M38 -274q23 23 52.5 53.5t42.5 44t34.5 37t43 50t52.5 65.5q80 102 120 177q51 94 96.5 222t65.5 255q50 319 -32 551q-40 111 -81.5 187t-109.5 167l87 39q325 -389 237 -944q-86 -546 -535 -940z" />
    <glyph glyph-name="asterisk" unicode="*" horiz-adv-x="1256" 
d="M1007 245l-290 341l-388 -339l-80 56l402 331l-440 138l53 84l431 -143l47 377h117l-74 -377l479 143l25 -84l-486 -138l298 -330z" />
    <glyph glyph-name="plus" unicode="+" horiz-adv-x="1430" 
d="M697 197l66 414h-492l13 83h492l63 396h98l-63 -396h490l-13 -83h-490l-66 -414h-98z" />
    <glyph glyph-name="comma" unicode="," horiz-adv-x="654" 
d="M50 -359l292 528h159l-356 -528h-95z" />
    <glyph glyph-name="hyphen" unicode="-" horiz-adv-x="1238" 
d="M218 611l13 83h996l-13 -83h-996z" />
    <glyph glyph-name="period" unicode="." horiz-adv-x="517" 
d="M146 -17l30 186h218l-30 -186h-218z" />
    <glyph glyph-name="slash" unicode="/" horiz-adv-x="798" 
d="M-1 -138l903 1587h105l-902 -1587h-106z" />
    <glyph glyph-name="zero" unicode="0" horiz-adv-x="1167" 
d="M313 677q-48 -303 22 -471t256 -168q137 0 238 94q98 89 154.5 222t86.5 323q48 303 -23 469.5t-255 166.5q-183 0 -306.5 -165t-172.5 -471zM206 677q28 176 84.5 312t135 222t173.5 130t204 44q228 0 327.5 -182t44.5 -526q-31 -197 -100 -354q-72 -160 -202.5 -258.5
t-292.5 -98.5q-225 0 -326 186.5t-48 524.5z" />
    <glyph glyph-name="one" unicode="1" horiz-adv-x="738" 
d="M466 0l199 1251l-417 -196l15 97l442 209h84l-216 -1361h-107z" />
    <glyph glyph-name="two" unicode="2" horiz-adv-x="1193" 
d="M303 1067q73 151 208 234.5t326 83.5q201 0 309.5 -97t81.5 -268q-33 -205 -313 -401q-321 -222 -460 -337q-131 -107 -182 -209h805l-12 -73h-929q8 49 34 99q8 16 22.5 36t27 35t36.5 39.5t34 34.5t37.5 36t30.5 29q46 43 144 116q130 97 329 234q262 187 291 361
q21 139 -61 216t-244 77q-146 0 -257 -71.5t-170 -195.5z" />
    <glyph glyph-name="three" unicode="3" horiz-adv-x="1255" 
d="M261 239q105 -201 361 -201q181 0 308.5 86.5t152.5 244.5q24 148 -84.5 229.5t-296.5 81.5q-100 0 -115 -1l11 74q13 -1 107 -1q166 0 281.5 79t136.5 211q19 120 -64 195.5t-235 75.5q-229 0 -381 -212l-88 27q173 257 483 257q201 0 308.5 -95t84.5 -242
q-19 -122 -113 -208t-222 -118q144 -26 230 -118.5t63 -234.5q-30 -191 -187.5 -297t-390.5 -106q-328 0 -446 238z" />
    <glyph glyph-name="four" unicode="4" horiz-adv-x="1320" 
d="M151 331l11 68l917 974h103l-153 -972h258l-12 -70h-258l-56 -354h-101l56 354h-765zM270 401h658l99 627q9 62 38 221h-5l-170 -187z" />
    <glyph glyph-name="five" unicode="5" horiz-adv-x="1178" 
d="M253 225q42 -86 130 -136.5t199 -50.5q182 0 305.5 100.5t148.5 256.5q25 160 -67 257t-271 97q-91 0 -190.5 -31t-172.5 -86l-56 18l193 701h723l-12 -73h-627l-154 -538q155 82 342 82q207 0 318 -116.5t81 -309.5q-29 -186 -184 -308t-388 -122q-299 0 -409 228z" />
    <glyph glyph-name="six" unicode="6" horiz-adv-x="1186" 
d="M282 413q-24 -158 66.5 -266.5t258.5 -108.5q166 0 291.5 107.5t150.5 267.5q26 166 -65.5 272.5t-261.5 106.5q-163 0 -288.5 -109t-151.5 -270zM193 593q38 242 143 435q91 170 229.5 263.5t314.5 93.5q263 0 368 -216l-88 -29q-98 173 -291 173q-112 0 -205 -50
t-158 -139q-118 -162 -168 -351q-18 -57 -39 -174q59 120 179 192t271 72q208 0 321.5 -128t82.5 -322q-30 -192 -182.5 -319.5t-365.5 -127.5q-217 0 -327 117q-143 146 -85 510z" />
    <glyph glyph-name="seven" unicode="7" horiz-adv-x="1121" 
d="M1129 1277h-854l12 74h973l-10 -63q-300 -345 -493 -644.5t-348 -666.5h-106q156 373 342 659.5t484 640.5z" />
    <glyph glyph-name="eight" unicode="8" horiz-adv-x="1218" 
d="M423 1038q-18 -120 72 -198.5t233 -78.5t257.5 80t132.5 197q19 121 -68.5 198t-234.5 77q-153 0 -263 -79t-129 -196zM155 353q23 145 131.5 242t266.5 131q-124 39 -187.5 118.5t-44.5 199.5q23 143 165.5 242t339.5 99q192 0 306.5 -97.5t91.5 -243.5
q-18 -117 -110.5 -200t-219.5 -118q146 -34 225 -132t55 -244q-17 -108 -97.5 -196t-205.5 -138t-269 -50q-142 0 -250 48.5t-161.5 137.5t-35.5 201zM262 357q-23 -138 76.5 -228.5t274.5 -90.5q172 0 302.5 91.5t152.5 227.5q22 143 -80.5 237.5t-271.5 94.5
q-109 0 -207.5 -42t-165 -119t-81.5 -171z" />
    <glyph glyph-name="nine" unicode="9" horiz-adv-x="1177" 
d="M355 938q-26 -164 68 -269.5t253 -105.5q158 0 286.5 108.5t153.5 266.5q25 160 -66 267.5t-255 107.5q-165 0 -290 -106.5t-150 -268.5zM154 193l91 30q39 -86 119 -135.5t188 -49.5q423 0 541 688q-60 -100 -179 -167.5t-262 -67.5q-203 0 -319.5 123.5t-84.5 323.5
q31 196 187 321.5t371 125.5q178 0 285.5 -92.5t126.5 -243.5q12 -99 -21 -303q-123 -780 -659 -780q-140 0 -241.5 64t-142.5 163z" />
    <glyph glyph-name="colon" unicode=":" horiz-adv-x="517" 
d="M285 860l30 188h218l-30 -188h-218zM175 164l29 186h218l-29 -186h-218z" />
    <glyph glyph-name="semicolon" unicode=";" horiz-adv-x="624" 
d="M78 -180l292 530h159l-356 -530h-95zM375 860l30 188h218l-30 -188h-218z" />
    <glyph glyph-name="less" unicode="&#x3c;" horiz-adv-x="1338" 
d="M1089 14l-803 589l10 69l991 593l51 -67l-936 -562l758 -559z" />
    <glyph glyph-name="equal" unicode="=" horiz-adv-x="1439" 
d="M344 779l14 83h996l-14 -83h-996zM292 446l12 81h996l-12 -81h-996z" />
    <glyph glyph-name="greater" unicode="&#x3e;" horiz-adv-x="1336" 
d="M252 14l-50 63l933 559l-755 561l70 68l802 -593l-10 -69z" />
    <glyph glyph-name="question" unicode="?" horiz-adv-x="997" 
d="M485 395q14 91 66.5 167.5t126.5 129.5q29 21 129 91q152 108 171 232q20 130 -50.5 204.5t-221.5 74.5q-233 0 -392 -227l-85 31q82 132 214 205t276 73q195 0 292.5 -98t71.5 -262q-24 -150 -189 -274l-134 -95q-152 -110 -175 -255l-8 -48h-101zM356 -32l29 186h219
l-29 -186h-219z" />
    <glyph glyph-name="at" unicode="@" horiz-adv-x="1706" 
d="M1082 701q109 13 142 45q35 233 -210 233q-116 0 -191 -51.5t-89 -142.5h-83q19 122 122.5 194.5t254.5 72.5q146 0 223.5 -73t53.5 -226l-62 -394q-9 -57 20 -87t91 -30q107 0 190.5 106t110.5 278q31 196 -34.5 351.5t-213 242.5t-351.5 87q-193 0 -369.5 -93
t-295 -254t-149.5 -354q-31 -196 36 -358.5t213.5 -256t341.5 -93.5q261 0 481 161l39 -55q-245 -179 -532 -179q-163 0 -298.5 60.5t-223 164t-125 248.5t-11.5 308q34 215 165 392.5t326.5 279t412.5 101.5q170 0 308 -56t226 -154.5t124.5 -239t10.5 -303.5
q-31 -194 -143 -323.5t-250 -129.5q-99 0 -147 44t-40 129q-126 -166 -345 -166q-133 0 -198.5 65t-48.5 173q18 112 111 178.5t248 86.5zM644 420q-14 -83 38.5 -126t151.5 -43q146 0 244 94.5t122 250.5l11 69q-57 -22 -292 -45q-126 -15 -194.5 -67t-80.5 -133z" />
    <glyph glyph-name="A" unicode="A" horiz-adv-x="1419" 
d="M25 0l832 1351h131l407 -1351h-119l-122 427h-756l-257 -427h-116zM442 497h692l-219 774h-8z" />
    <glyph glyph-name="B" unicode="B" horiz-adv-x="1360" 
d="M165 0l214 1351h572q219 0 325.5 -92.5t82.5 -248.5q-18 -114 -103 -192t-210 -112q137 -28 215.5 -122t58.5 -217q-25 -161 -167.5 -264t-346.5 -103h-641zM280 74h513q164 0 283 82.5t139 208.5q20 127 -76.5 212t-264.5 85h-501zM384 734h445q110 0 200 30t150 92.5
t74 150.5q20 122 -63 196t-265 74h-455z" />
    <glyph glyph-name="C" unicode="C" horiz-adv-x="1379" 
d="M755 -34q-299 0 -450 190.5t-99 520.5q52 329 262.5 518.5t510.5 189.5q172 0 285 -77.5t156 -196.5l-95 -31q-93 229 -360 229q-252 0 -429 -172t-223 -460q-46 -291 79.5 -463.5t371.5 -172.5q152 0 275.5 66.5t200.5 176.5l89 -26q-213 -292 -574 -292z" />
    <glyph glyph-name="D" unicode="D" horiz-adv-x="1400" 
d="M165 0l214 1351h407q346 0 510 -171.5t112 -502.5q-51 -326 -270 -501.5t-566 -175.5h-407zM280 74h276q313 0 506 148t241 455q96 600 -553 600h-280z" />
    <glyph glyph-name="E" unicode="E" horiz-adv-x="1271" 
d="M165 0l214 1351h971l-12 -74h-868l-85 -539h785l-12 -73h-785l-93 -591h896l-12 -74h-999z" />
    <glyph glyph-name="F" unicode="F" horiz-adv-x="1209" 
d="M165 0l214 1351h935l-12 -74h-832l-88 -558h749l-12 -73h-749l-102 -646h-103z" />
    <glyph glyph-name="G" unicode="G" horiz-adv-x="1463" 
d="M767 -34q-311 0 -462 191.5t-99 519.5q51 322 263 515t529 193q178 0 296.5 -74.5t165.5 -188.5l-92 -28q-108 215 -382 215q-271 0 -449 -171.5t-224 -460.5q-46 -293 79.5 -464.5t388.5 -171.5q119 0 221 39t169 107q131 137 159 309l21 136h-497l12 74h600l-112 -706
h-82l36 252q-75 -133 -211 -209.5t-330 -76.5z" />
    <glyph glyph-name="H" unicode="H" horiz-adv-x="1433" 
d="M165 0l214 1351h103l-98 -617h896l98 617h104l-214 -1351h-104l105 662h-896l-105 -662h-103z" />
    <glyph glyph-name="I" unicode="I" horiz-adv-x="434" 
d="M165 0l214 1351h103l-214 -1351h-103z" />
    <glyph glyph-name="J" unicode="J" horiz-adv-x="1002" 
d="M435 -34q-273 0 -344 221l100 30q27 -85 93.5 -132t155.5 -44q299 6 353 344l153 966h104l-157 -988q-31 -195 -148 -296t-310 -101z" />
    <glyph glyph-name="K" unicode="K" horiz-adv-x="1305" 
d="M165 0l214 1351h103l-126 -794h2l947 794h141l-698 -578l530 -773h-134l-475 706l-333 -277l-68 -429h-103z" />
    <glyph glyph-name="L" unicode="L" horiz-adv-x="1134" 
d="M165 0l214 1351h103l-202 -1277h790l-12 -74h-893z" />
    <glyph glyph-name="M" unicode="M" horiz-adv-x="1767" 
d="M165 0l214 1351h135l399 -1128h7l754 1128h141l-214 -1351h-105l194 1224l-743 -1108h-96l-390 1104l-193 -1220h-103z" />
    <glyph glyph-name="N" unicode="N" horiz-adv-x="1453" 
d="M165 0l214 1351h122l701 -1221l193 1221h106l-214 -1351h-127l-699 1218l-193 -1218h-103z" />
    <glyph glyph-name="O" unicode="O" horiz-adv-x="1478" 
d="M735 -34q-195 0 -327 88.5t-184 249t-18 373.5q51 321 255.5 514.5t497.5 193.5q295 0 436.5 -193t90.5 -517q-51 -323 -254.5 -516t-496.5 -193zM313 677q-30 -190 10 -333t149 -223t274 -80q246 0 417.5 172t217.5 462q46 291 -71 462.5t-363 171.5q-244 0 -416 -171.5
t-218 -460.5z" />
    <glyph glyph-name="P" unicode="P" horiz-adv-x="1337" 
d="M165 0l214 1351h595q222 0 338 -104t88 -279q-27 -175 -180 -279t-369 -104h-490l-93 -585h-103zM372 656h468q187 0 308 82t144 230q24 147 -71 228t-288 81h-463z" />
    <glyph glyph-name="Q" unicode="Q" horiz-adv-x="1478" 
d="M735 -34q-295 0 -437.5 193t-91.5 516t254.5 516.5t498.5 193.5q194 0 325 -88t183.5 -249t18.5 -373q-28 -173 -101 -312t-184 -233l168 -172l-79 -52l-166 168q-171 -108 -389 -108zM313 675q-45 -287 72.5 -460.5t360.5 -173.5q176 0 319 93l-271 274l79 55l266 -271
q192 172 242 483q46 294 -71.5 464t-362.5 170q-244 0 -416 -171.5t-218 -462.5z" />
    <glyph glyph-name="R" unicode="R" horiz-adv-x="1329" 
d="M165 0l214 1353h605q224 0 335.5 -102.5t86.5 -263.5q-20 -127 -104.5 -212t-200.5 -123q103 -41 137 -123.5t23 -205.5l-1 -31q-4 -24 -4 -46q-8 -58 -7 -121.5t20 -98.5l20 -26h-117q-20 50 -22.5 117.5t7.5 201.5q6 68 -5.5 119t-44.5 92t-98.5 62t-162.5 21h-482
l-97 -613h-102zM377 692h501q181 0 292 77.5t133 215.5q21 132 -69 212t-285 80h-480z" />
    <glyph glyph-name="S" unicode="S" horiz-adv-x="1307" 
d="M128 218l107 39q51 -99 168.5 -158t270.5 -59q134 0 239 31t175.5 98.5t86.5 166.5l1 2q7 45 -8 84t-47.5 69.5t-89 59t-121 51.5t-154.5 48l-44 13q-16 5 -41.5 13t-34.5 11q-69 23 -143 58t-113 72q-40 39 -62.5 98.5t-11.5 126.5q25 160 180.5 253t394.5 93
q170 0 295 -68.5t174 -171.5l-97 -32q-51 86 -153 135.5t-238 49.5q-197 0 -322 -69.5t-144 -189.5q-9 -56 14.5 -101.5t82 -83t134 -67t187.5 -62.5q100 -28 149.5 -45t116.5 -48q71 -32 111 -72q41 -39 63.5 -98t11.5 -127q-29 -180 -189.5 -282t-419.5 -102
q-187 0 -322 71t-207 193z" />
    <glyph glyph-name="T" unicode="T" horiz-adv-x="1269" 
d="M583 0l202 1277h-508l12 74h1119l-12 -74h-507l-202 -1277h-104z" />
    <glyph glyph-name="U" unicode="U" horiz-adv-x="1439" 
d="M711 -34q-263 0 -386.5 131t-84.5 374l139 880h104l-138 -872q-34 -213 66.5 -325.5t310.5 -112.5q213 0 351.5 114t171.5 324l138 872h105l-139 -880q-39 -242 -203 -373.5t-435 -131.5z" />
    <glyph glyph-name="V" unicode="V" horiz-adv-x="1306" 
d="M587 0l-348 1351h120l303 -1259h5l715 1259h114l-783 -1351h-126z" />
    <glyph glyph-name="W" unicode="W" horiz-adv-x="1839" 
d="M418 0l-184 1351h117l140 -1251h9l571 1251h122l179 -1251h7l539 1251h115l-608 -1351h-127l-178 1245h-6l-571 -1245h-125z" />
    <glyph glyph-name="X" unicode="X" horiz-adv-x="1258" 
d="M29 0l640 695l-398 656h130l344 -590h9l532 590h132l-609 -656l422 -695h-128l-371 626h-9l-565 -626h-129z" />
    <glyph glyph-name="Y" unicode="Y" horiz-adv-x="1309" 
d="M607 0l88 557l-455 794h127l387 -713h5l611 713h127l-700 -794l-88 -557h-102z" />
    <glyph glyph-name="Z" unicode="Z" horiz-adv-x="1308" 
d="M103 0l11 68l1146 1209h-883l12 74h1012l-11 -67l-1152 -1210h982l-12 -74h-1105z" />
    <glyph glyph-name="bracketleft" unicode="[" horiz-adv-x="702" 
d="M162 -263l284 1791h396l-13 -80h-296l-258 -1633h296l-13 -78h-396z" />
    <glyph glyph-name="backslash" unicode="\" horiz-adv-x="760" 
d="M615 -138l-365 1587h101l366 -1587h-102z" />
    <glyph glyph-name="bracketright" unicode="]" horiz-adv-x="705" 
d="M60 -263l13 78h297l258 1633h-297l13 80h399l-284 -1791h-399z" />
    <glyph glyph-name="asciicircum" unicode="^" horiz-adv-x="1070" 
d="M197 894l531 601h85l345 -601h-119l-284 504l-75 -83l-366 -421h-117z" />
    <glyph glyph-name="underscore" unicode="_" horiz-adv-x="830" 
d="M-61 -162l13 83h899l-13 -83h-899z" />
    <glyph glyph-name="a" unicode="a" horiz-adv-x="1155" 
d="M473 -34q-181 0 -276.5 72t-77.5 187q21 131 148.5 211.5t379.5 112.5q255 31 365 68l8 50q18 114 -62.5 185t-240.5 71q-106 0 -211.5 -41.5t-184.5 -114.5l-61 42q87 83 211.5 133.5t254.5 50.5q220 0 318.5 -93t73.5 -256l-102 -644h-99l30 191q-58 -94 -189.5 -159.5
t-284.5 -65.5zM223 229q-12 -82 60 -136.5t210 -54.5q177 0 317 96t163 241l28 173q-118 -34 -363 -65q-382 -49 -415 -254z" />
    <glyph glyph-name="b" unicode="b" horiz-adv-x="1176" 
d="M615 -34q-131 0 -220.5 68.5t-120.5 175.5l-33 -210h-102l223 1407h102l-106 -671q48 103 165 180t256 77q214 0 322 -139t71 -372q-20 -124 -74 -223.5t-129.5 -162.5t-166 -96.5t-187.5 -33.5zM313 482q-31 -202 56.5 -323t247.5 -121q172 0 296.5 120.5t156.5 323.5
q32 200 -54 319.5t-257 119.5q-102 0 -195.5 -52t-161.5 -153.5t-89 -233.5z" />
    <glyph glyph-name="c" unicode="c" horiz-adv-x="1076" 
d="M575 -34q-224 0 -339.5 141.5t-78.5 374.5q37 228 193.5 369.5t386.5 141.5q134 0 230.5 -63.5t123.5 -160.5l-93 -23q-27 78 -100 126.5t-172 48.5q-177 0 -307 -122.5t-161 -316.5q-31 -198 60.5 -321t267.5 -123q103 0 202.5 53.5t161.5 133.5l80 -27
q-69 -100 -193 -166t-262 -66z" />
    <glyph glyph-name="d" unicode="d" horiz-adv-x="1176" 
d="M548 -34q-95 0 -174 33t-135 95.5t-79 162.5t-3 225q37 234 190.5 372.5t366.5 138.5q134 0 225.5 -72t114.5 -181l106 667h100l-223 -1407h-98l33 211q-64 -108 -176.5 -176.5t-247.5 -68.5zM258 482q-32 -201 53.5 -322.5t258.5 -121.5q161 0 287.5 121t157.5 323
q31 198 -58.5 318.5t-248.5 120.5q-170 0 -294 -119.5t-156 -319.5z" />
    <glyph glyph-name="e" unicode="e" horiz-adv-x="1151" 
d="M585 -34q-232 0 -347.5 144.5t-79.5 376.5q36 224 195.5 365t385.5 141q113 0 201 -37.5t140 -102.5t72 -153t4 -188q0 -2 -5 -28q-4 -16 -6 -29h-891q-28 -176 65 -296.5t277 -120.5q117 0 225 50t174 131l83 -26q-82 -106 -208 -166.5t-285 -60.5zM269 521h787
q17 110 -16.5 201t-115 145t-196.5 54q-175 0 -302.5 -117.5t-156.5 -282.5z" />
    <glyph glyph-name="f" unicode="f" horiz-adv-x="684" 
d="M263 0l141 888h-214l11 73h214l29 179q21 134 112 200.5t236 66.5h115l-12 -72h-107q-212 0 -245 -209l-26 -165h288l-11 -73h-288l-141 -888h-102z" />
    <glyph glyph-name="g" unicode="g" horiz-adv-x="1159" 
d="M487 -447q-249 0 -373 163l79 38q121 -133 307 -133q358 0 427 437l27 172q-140 -230 -405 -230q-211 0 -317.5 138.5t-71.5 358.5q35 223 184.5 359.5t360.5 136.5q136 0 221 -67t112 -168l32 203h101l-138 -875q-44 -274 -173.5 -403.5t-372.5 -129.5zM261 497
q-30 -188 54 -307t247 -119q171 0 287.5 114.5t147.5 314.5q30 188 -52.5 304.5t-241.5 116.5q-174 0 -293 -117t-149 -307z" />
    <glyph glyph-name="h" unicode="h" horiz-adv-x="1144" 
d="M139 0l223 1407h102l-101 -634h3q56 91 175 155.5t255 64.5q176 0 256 -94.5t52 -275.5l-99 -623h-98l96 605q49 316 -237 316q-96 0 -191 -45.5t-161 -123.5t-80 -167l-93 -585h-102z" />
    <glyph glyph-name="i" unicode="i" horiz-adv-x="385" 
d="M148 0l152 961h97l-152 -961h-97zM300 1216l24 156h171l-24 -156h-171z" />
    <glyph glyph-name="j" unicode="j" horiz-adv-x="461" 
d="M-125 -429l12 74h60q217 0 255 243l170 1073h99l-171 -1079q-24 -153 -113.5 -232t-236.5 -79h-75zM372 1216l24 156h174l-24 -156h-174z" />
    <glyph glyph-name="k" unicode="k" horiz-adv-x="1024" 
d="M139 0l223 1407h104l-158 -999l668 553h134l-461 -380l365 -581h-123l-321 519l-281 -229l-46 -290h-104z" />
    <glyph glyph-name="l" unicode="l" horiz-adv-x="380" 
d="M139 0l223 1407h102l-223 -1407h-102z" />
    <glyph glyph-name="m" unicode="m" horiz-adv-x="1749" 
d="M139 0l152 961h99l-27 -173h2q50 86 151 145.5t232 59.5q246 0 267 -244q20 55 117 138q54 46 138 76t175 30q166 0 230 -91t34 -277l-99 -625h-102l97 611q25 161 -16.5 235.5t-177.5 74.5q-144 0 -257.5 -97.5t-137.5 -248.5l-91 -575h-102l97 611q49 310 -200 310
q-147 0 -255.5 -93t-131.5 -240l-93 -588h-101z" />
    <glyph glyph-name="n" unicode="n" horiz-adv-x="1142" 
d="M139 0l152 961h99l-31 -198h2q34 83 160 156.5t275 73.5q136 0 230 -69q52 -38 72.5 -116t3.5 -185l-99 -623h-102l96 605q49 316 -232 316q-149 0 -279.5 -100t-152.5 -236l-93 -585h-101z" />
    <glyph glyph-name="o" unicode="o" 
d="M577 -34q-157 0 -261.5 70.5t-143 186t-15.5 259.5q36 226 194 368.5t388 142.5q228 0 342.5 -143t78.5 -368q-32 -201 -178 -353q-72 -77 -176.5 -120t-228.5 -43zM258 482q-31 -198 60 -321t270 -123q176 0 307 124.5t162 319.5q31 196 -61.5 317.5t-267.5 121.5
q-174 0 -306 -121t-164 -318z" />
    <glyph glyph-name="p" unicode="p" horiz-adv-x="1176" 
d="M69 -440l222 1401h100l-34 -219q66 115 178.5 183t243.5 68q213 0 321.5 -140t71.5 -371q-38 -240 -194 -378t-363 -138q-135 0 -221.5 67t-118.5 180l-104 -653h-102zM315 483q-31 -199 53 -322t251 -123q168 0 293.5 120.5t157.5 323.5q31 197 -50.5 318t-260.5 121
q-160 0 -286.5 -124.5t-157.5 -313.5z" />
    <glyph glyph-name="q" unicode="q" horiz-adv-x="1176" 
d="M971 213q-67 -111 -177.5 -179t-241.5 -68q-210 0 -321.5 138t-73.5 378q37 230 189.5 370.5t363.5 140.5q131 0 224 -66t123 -184l34 218h98l-222 -1401h-100zM258 482q-32 -201 55 -322.5t255 -121.5q167 0 290.5 124.5t154.5 320.5q31 193 -55.5 315.5t-249.5 122.5
q-177 0 -298 -121t-152 -318z" />
    <glyph glyph-name="r" unicode="r" horiz-adv-x="766" 
d="M139 0l152 961h96l-26 -167q48 82 145 140.5t227 58.5q103 0 168 -28l-12 -77q-77 30 -168 30q-155 0 -260.5 -97t-130.5 -254l-90 -567h-101z" />
    <glyph glyph-name="s" unicode="s" horiz-adv-x="1053" 
d="M505 481q-64 21 -112 42q-61 26 -93 52q-34 30 -52.5 74.5t-10.5 94.5q19 118 143.5 187.5t314.5 69.5q140 0 243 -53.5t140 -131.5l-96 -30q-38 62 -116.5 97.5t-187.5 35.5q-152 0 -244.5 -47t-105.5 -128q-11 -72 67.5 -119.5t255.5 -94.5q8 -2 28.5 -7.5t27 -7t23 -6
t23 -6.5t20.5 -6t22 -7l20 -7.5t23 -9.5t23 -10q63 -28 92 -52q34 -30 52.5 -74.5t10.5 -94.5q-21 -134 -149 -209t-335 -75q-153 0 -263.5 55t-168.5 148l105 34q39 -71 130 -113.5t213 -42.5q159 0 260.5 50.5t117.5 150.5v2q12 73 -67.5 119.5t-259.5 92.5l-29 9
q-9 4 -17 5z" />
    <glyph glyph-name="t" unicode="t" horiz-adv-x="727" 
d="M553 0q-143 -2 -207.5 60.5t-43.5 191.5l101 636h-217l11 73h217l52 325h104l-52 -325h307l-11 -73h-307l-99 -625q-17 -102 23.5 -147t145.5 -43h108l-12 -73h-120z" />
    <glyph glyph-name="u" unicode="u" horiz-adv-x="1135" 
d="M504 -34q-173 0 -256 98.5t-57 266.5l100 630h100l-95 -604q-51 -319 242 -319q170 0 285 106.5t140 263.5l87 553h98l-152 -961h-97l30 188q-38 -88 -151.5 -155t-273.5 -67z" />
    <glyph glyph-name="v" unicode="v" horiz-adv-x="1100" 
d="M487 0l-286 961h112l248 -888h5l522 888h114l-589 -961h-126z" />
    <glyph glyph-name="w" unicode="w" horiz-adv-x="1586" 
d="M376 0l-175 961h115l136 -884h7l422 884h128l145 -882h5l415 882h114l-481 -961h-130l-145 870h-7l-417 -870h-132z" />
    <glyph glyph-name="x" unicode="x" horiz-adv-x="1089" 
d="M69 0l492 500l-317 461h120l267 -400h5l387 400h122l-459 -461l333 -500h-122l-281 437h-5l-421 -437h-121z" />
    <glyph glyph-name="y" unicode="y" horiz-adv-x="1091" 
d="M101 -440l12 71h38q155 0 274 206l69 126l-293 998h119l237 -893h8l510 893h118l-684 -1146q-82 -138 -165 -196.5t-188 -58.5h-55z" />
    <glyph glyph-name="z" unicode="z" horiz-adv-x="1054" 
d="M105 0l10 60l849 828h-659l11 73h785l-9 -57l-848 -833h738l-11 -71h-866z" />
    <glyph glyph-name="braceleft" unicode="{" horiz-adv-x="868" 
d="M560 -261q-94 0 -150.5 58.5t-39.5 164.5l54 343q44 276 -142 276h-69l12 78h69q94 0 151 68t80 211l58 367q16 102 90 162.5t166 60.5h169l-13 -80h-153q-61 0 -105 -41t-56 -117l-57 -365q-35 -218 -190 -304q61 -36 86.5 -111.5t8.5 -180.5l-54 -339
q-28 -174 114 -174h148l-12 -77h-165z" />
    <glyph glyph-name="braceright" unicode="}" horiz-adv-x="870" 
d="M61 -261l12 77h150q67 0 111 43t58 131l55 347q16 100 65 174.5t118 109.5q-124 84 -91 297l59 372q12 77 -19 117.5t-94 40.5h-154l13 80h169q95 0 150 -59.5t39 -163.5l-58 -367q-45 -279 139 -279h69l-12 -78h-69q-90 0 -148 -69t-78 -195l-56 -355q-17 -107 -92 -165
t-172 -58h-164z" />
    <glyph glyph-name="asciitilde" unicode="~" horiz-adv-x="1575" 
d="M1131 471q-75 0 -137 24.5t-100 64.5q-12 12 -71 72q-76 81 -191 81q-166 0 -324 -187l-75 38q177 230 415 230q146 0 240 -90l44 -48q5 -4 13 -13t10 -11q85 -81 188 -81q105 0 188 65q50 41 73 63.5t63 71.5l76 -41q-96 -115 -193 -177t-219 -62z" />
    <glyph glyph-name="exclamdown" unicode="&#xa1;" horiz-adv-x="545" 
d="M148 -411l170 978h92l-140 -978h-122zM286 775l29 186h218l-29 -186h-218z" />
    <glyph glyph-name="cent" unicode="&#xa2;" horiz-adv-x="1076" 
d="M529 -49q-203 9 -306.5 150t-67.5 368q35 218 180.5 362t357.5 154l23 145h102l-23 -148q117 -16 194.5 -77.5t98.5 -151.5l-95 -27q-25 81 -98.5 131.5t-177.5 50.5q-178 0 -304 -121.5t-157 -317.5q-31 -199 58 -319.5t264 -120.5q108 0 209 54.5t160 135.5l82 -31
q-67 -92 -170.5 -156t-226.5 -78l-24 -150h-102z" />
    <glyph glyph-name="sterling" unicode="&#xa3;" horiz-adv-x="1360" 
d="M890 -50q-62 0 -172 28q-106 30 -173 30q-140 0 -326 -38l-74 -15l-29 77q125 29 203.5 120.5t96.5 208.5l41 256h-252l13 82h252l52 327q27 170 148 260t310 90q128 0 220 -55.5t123 -138.5l-82 -36q-73 148 -269 148q-150 0 -240.5 -68t-111.5 -204l-51 -323h525
l-13 -82h-525l-41 -256q-29 -184 -159 -292q128 21 213 21q79 0 178 -30q96 -28 158 -28q178 0 301 61l25 -78q-142 -65 -341 -65z" />
    <glyph glyph-name="currency" unicode="&#xa4;" horiz-adv-x="1391" 
d="M1065 366q-138 -87 -323 -87q-177 0 -295 87l-262 -180l-64 53l269 189q-82 96 -60 234q21 138 131 234l-207 181l81 62l209 -180q143 85 319 85q175 0 295 -89l259 183l61 -62l-263 -180q83 -101 62 -234q-21 -131 -136 -234l205 -188l-78 -55zM429 662
q-20 -128 71.5 -214.5t254.5 -86.5q160 0 281.5 87t141.5 214t-74 213.5t-254 86.5t-280.5 -86.5t-140.5 -213.5z" />
    <glyph glyph-name="yen" unicode="&#xa5;" horiz-adv-x="1279" 
d="M589 -17l56 354h-442l13 79h442l25 159h-442l12 78h380l-418 688h123l309 -509q4 -6 21 -35.5t32 -53.5q27 -43 45 -78q10 11 35 36q48 54 114 126l469 514h126l-632 -688h371l-12 -78h-433l-25 -159h433l-13 -79h-433l-56 -354h-100z" />
    <glyph glyph-name="copyright" unicode="&#xa9;" horiz-adv-x="1698" 
d="M843 -27q-199 0 -347.5 92.5t-216 254.5t-35.5 359q31 195 149 355.5t296 252.5t376 92q148 0 271.5 -54t204 -147t115.5 -223t12 -276q-32 -197 -151 -359t-297 -254.5t-377 -92.5zM323 679q-29 -178 30 -323.5t191 -228t310 -82.5q177 0 335 82.5t263 228t134 323.5
q28 177 -32 321t-191.5 225.5t-308.5 81.5t-335 -82t-263 -226t-133 -320zM601 673q27 174 148 283t286 109q117 0 191.5 -64t85.5 -171h-90q-11 75 -62.5 116t-137.5 41q-126 0 -219.5 -87.5t-115.5 -224.5t41 -222.5t186 -85.5q89 0 157.5 40t106.5 115h89
q-49 -106 -148 -169.5t-217 -63.5q-159 0 -243.5 107.5t-57.5 276.5z" />
    <glyph glyph-name="ordfeminine" unicode="&#xaa;" horiz-adv-x="766" 
d="M437 798q-128 0 -198.5 53t-56.5 139q13 86 91 143.5t173 74.5l117 16q163 23 232 45l3 17q11 76 -39 119.5t-156 43.5q-90 0 -166 -39t-96 -75l-70 40q55 66 150.5 108.5t194.5 42.5q151 0 221.5 -66t52.5 -178l-73 -462h-92l14 88q-57 -50 -136.5 -80t-165.5 -30z
M122 611l12 78h716l-12 -78h-716zM275 992q-8 -50 38.5 -83.5t138.5 -33.5q117 0 208.5 61.5t106.5 155.5l15 98q-57 -16 -199 -37q-78 -10 -118 -16q-75 -13 -128 -50t-62 -95z" />
    <glyph glyph-name="guillemotleft" unicode="&#xab;" horiz-adv-x="1021" 
d="M474 33l-287 420l425 416l73 -42l-378 -374l256 -376zM525 453l424 414l71 -44l-377 -370l257 -373l-85 -45z" />
    <glyph glyph-name="logicalnot" unicode="&#xac;" 
d="M1001 215l60 378h-872l13 82h974l-73 -460h-102z" />
    <glyph glyph-name="uni00AD" unicode="&#xad;" horiz-adv-x="1194" 
d="M218 611l13 83h952l-13 -83h-952z" />
    <glyph glyph-name="registered" unicode="&#xae;" horiz-adv-x="899" 
d="M550 642q-160 0 -251.5 106.5t-66.5 264.5q25 156 151 262.5t284 106.5q160 0 251.5 -106t66.5 -263q-25 -160 -149 -265.5t-286 -105.5zM290 1013q-21 -136 55 -226.5t213 -90.5t243.5 90.5t127.5 226.5q22 135 -56 225t-215 90q-135 0 -240.5 -90t-127.5 -225zM438 810
l66 413h151q68 0 103 -34t26 -92q-15 -87 -106 -116l68 -171h-69l-61 158h-93l-25 -158h-60zM532 1022h88q41 0 67 19t31 54q6 35 -14 54t-61 19h-88z" />
    <glyph glyph-name="plusminus" unicode="&#xb1;" horiz-adv-x="1408" 
d="M712 351l59 374h-474l13 83h474l59 373h98l-59 -373h472l-13 -83h-472l-59 -374h-98zM210 139l13 80h1032l-13 -80h-1032z" />
    <glyph glyph-name="uni00B2" unicode="&#xb2;" horiz-adv-x="620" 
d="M248 1341q92 191 308 191q116 0 177 -55.5t46 -151.5q-18 -115 -186 -235q-220 -156 -273 -206q-29 -31 -53 -66h432l-10 -59h-527q9 54 65 116q52 59 96.5 95.5t191.5 141.5q24 20 34 26q135 98 149 187q11 69 -30.5 108t-123.5 39q-147 0 -227 -146z" />
    <glyph glyph-name="uni00B3" unicode="&#xb3;" horiz-adv-x="620" 
d="M231 914q59 -114 191 -114q95 0 160.5 44.5t78.5 126.5q11 72 -41 115.5t-168 43.5q-35 0 -63 -2l9 62q30 -2 58 -2q102 0 160 41t68 106q10 61 -33 100.5t-122 39.5q-119 0 -201 -118l-65 19q99 156 277 156q115 0 176 -54.5t47 -138.5q-20 -124 -157 -176
q160 -48 138 -192q-17 -107 -108.5 -169t-223.5 -62q-192 0 -252 144z" />
    <glyph glyph-name="uni00B5" unicode="&#xb5;" horiz-adv-x="1148" 
d="M65 -457l223 1410h102l-98 -619q-23 -141 38.5 -223t207.5 -82q178 0 296 104.5t143 262.5l88 557h99l-154 -970h-98l24 151q-61 -81 -171.5 -132.5t-248.5 -51.5q-190 0 -267 113l-82 -520h-102z" />
    <glyph glyph-name="periodcentered" unicode="&#xb7;" horiz-adv-x="516" 
d="M234 539l30 187h217l-30 -187h-217z" />
    <glyph glyph-name="uni00B9" unicode="&#xb9;" horiz-adv-x="702" 
d="M449 759l109 680l-226 -105l12 77l242 115h67l-122 -767h-82z" />
    <glyph glyph-name="ordmasculine" unicode="&#xba;" horiz-adv-x="766" 
d="M507 798q-162 0 -239.5 104.5t-53.5 260.5q26 161 137 262t272 101q159 0 239.5 -101.5t54.5 -261.5q-25 -156 -136.5 -260.5t-273.5 -104.5zM122 611l12 78h716l-12 -78h-716zM309 1163q-20 -129 37 -208.5t174 -79.5t201 80.5t104 207.5q20 129 -38.5 207.5
t-176.5 78.5q-114 0 -197 -78.5t-104 -207.5z" />
    <glyph glyph-name="guillemotright" unicode="&#xbb;" horiz-adv-x="1020" 
d="M547 33l-75 44l377 376l-262 374l88 42l292 -416zM138 80l373 373l-260 370l88 44l291 -414l-421 -418z" />
    <glyph glyph-name="questiondown" unicode="&#xbf;" horiz-adv-x="995" 
d="M428 -444q-195 0 -293.5 98t-72.5 262q24 157 191 275q26 17 68 48q10 8 66 45q151 109 175 258l7 44h100l-8 -47q-14 -91 -67 -167.5t-127 -129.5t-132 -92q-151 -103 -171 -232q-21 -131 51.5 -205t224.5 -74q235 0 392 228l82 -32q-84 -134 -212.5 -206.5
t-273.5 -72.5zM540 777l29 184h217l-29 -184h-217z" />
    <glyph glyph-name="Agrave" unicode="&#xc0;" horiz-adv-x="1419" 
d="M943 1510l-256 318h155l199 -318h-98zM25 0l832 1351h131l407 -1351h-119l-122 427h-756l-257 -427h-116zM442 497h692l-219 774h-8z" />
    <glyph glyph-name="Aacute" unicode="&#xc1;" horiz-adv-x="1419" 
d="M819 1510l302 318h152l-356 -318h-98zM25 0l832 1351h131l407 -1351h-119l-122 427h-756l-257 -427h-116zM442 497h692l-219 774h-8z" />
    <glyph glyph-name="Acircumflex" unicode="&#xc2;" horiz-adv-x="1419" 
d="M546 1510l398 293h98l307 -293h-115l-251 235l-319 -235h-118zM25 0l832 1351h131l407 -1351h-119l-122 427h-756l-257 -427h-116zM442 497h692l-219 774h-8z" />
    <glyph glyph-name="Atilde" unicode="&#xc3;" horiz-adv-x="1419" 
d="M1112 1559q-83 0 -172 65q-91 65 -147 65q-124 0 -205 -126l-67 33q44 69 117 114.5t165 45.5q81 0 175 -65q93 -66 141 -66q114 0 201 126l66 -33q-112 -159 -274 -159zM25 0l832 1351h131l407 -1351h-119l-122 427h-756l-257 -427h-116zM442 497h692l-219 774h-8z" />
    <glyph glyph-name="Adieresis" unicode="&#xc4;" horiz-adv-x="1419" 
d="M647 1592l24 148h183l-24 -148h-183zM25 0l832 1351h131l407 -1351h-119l-122 427h-756l-257 -427h-116zM442 497h692l-219 774h-8zM1087 1592l24 148h180l-24 -148h-180z" />
    <glyph glyph-name="Aring" unicode="&#xc5;" horiz-adv-x="1419" 
d="M937 1439q-117 0 -188 65.5t-57 158.5q15 94 106.5 160.5t209.5 66.5q120 0 189 -66.5t54 -160.5q-14 -94 -103.5 -159t-210.5 -65zM25 0l832 1351h131l407 -1351h-119l-122 427h-756l-257 -427h-116zM442 497h692l-219 774h-8zM774 1663q-11 -70 38 -116t135 -46
q87 0 149 45.5t73 116.5t-35.5 117t-135.5 46q-87 0 -150 -47.5t-74 -115.5z" />
    <glyph glyph-name="AE" unicode="&#xc6;" horiz-adv-x="2055" 
d="M25 0l1204 1351h923l-12 -74h-746l-85 -539h666l-12 -73h-671l-93 -591h761l-12 -74h-860l68 427h-634l-381 -427h-116zM584 497h583l122 775h-18z" />
    <glyph glyph-name="Ccedilla" unicode="&#xc7;" horiz-adv-x="1379" 
d="M656 -421q-109 0 -204 29l10 62q106 -31 204 -31q77 0 141 29.5t71 73.5q8 52 -53.5 77t-191.5 24l56 126q-268 21 -400 209.5t-83 498.5q52 329 262.5 518.5t510.5 189.5q172 0 285 -77.5t156 -196.5l-95 -31q-93 229 -360 229q-252 0 -429 -172t-223 -460
q-46 -291 79.5 -463.5t371.5 -172.5q152 0 275.5 66.5t200.5 176.5l89 -26q-205 -280 -545 -292l-38 -78q116 -2 173.5 -41t46.5 -106q-11 -72 -96.5 -117t-213.5 -45z" />
    <glyph glyph-name="Egrave" unicode="&#xc8;" horiz-adv-x="1271" 
d="M165 0l214 1351h971l-12 -74h-868l-85 -539h785l-12 -73h-785l-93 -591h896l-12 -74h-999zM676 1828h153l198 -318h-97z" />
    <glyph glyph-name="Eacute" unicode="&#xc9;" horiz-adv-x="1271" 
d="M165 0l214 1351h971l-12 -74h-868l-85 -539h785l-12 -73h-785l-93 -591h896l-12 -74h-999zM742 1510l302 318h154l-357 -318h-99z" />
    <glyph glyph-name="Ecircumflex" unicode="&#xca;" horiz-adv-x="1271" 
d="M165 0l214 1351h971l-12 -74h-868l-85 -539h785l-12 -73h-785l-93 -591h896l-12 -74h-999zM491 1510l399 293h97l307 -293h-113l-251 235l-320 -235h-119z" />
    <glyph glyph-name="Edieresis" unicode="&#xcb;" horiz-adv-x="1271" 
d="M165 0l214 1351h971l-12 -74h-868l-85 -539h785l-12 -73h-785l-93 -591h896l-12 -74h-999zM601 1592l24 148h181l-24 -148h-181zM1039 1592l24 148h180l-24 -148h-180z" />
    <glyph glyph-name="Igrave" unicode="&#xcc;" horiz-adv-x="546" 
d="M231 0l214 1351h103l-214 -1351h-103zM268 1828h153l198 -318h-98z" />
    <glyph glyph-name="Iacute" unicode="&#xcd;" horiz-adv-x="556" 
d="M227 0l214 1351h103l-214 -1351h-103zM404 1510l300 318h154l-356 -318h-98z" />
    <glyph glyph-name="Icircumflex" unicode="&#xce;" horiz-adv-x="671" 
d="M171 1510l398 293h98l309 -293h-117l-251 235l-320 -235h-117zM286 0l214 1351h103l-214 -1351h-103z" />
    <glyph glyph-name="Idieresis" unicode="&#xcf;" horiz-adv-x="529" 
d="M213 0l214 1351h103l-214 -1351h-103zM206 1592l24 148h182l-24 -148h-182zM644 1592l24 148h182l-24 -148h-182z" />
    <glyph glyph-name="Eth" unicode="&#xd0;" horiz-adv-x="1446" 
d="M211 0l104 659h-209l12 71h209l98 621h407q346 0 510 -171.5t112 -502.5q-51 -326 -270 -501.5t-566 -175.5h-407zM326 74h276q313 0 506 148t241 455q96 600 -553 600h-280l-86 -547h445l-12 -71h-445z" />
    <glyph glyph-name="Ntilde" unicode="&#xd1;" horiz-adv-x="1453" 
d="M558 1596q40 68 113.5 114t165.5 46q80 0 174 -65q93 -66 142 -66q117 0 204 126l66 -33q-115 -159 -275 -159q-81 0 -172 65t-149 65q-121 0 -205 -126zM165 0l214 1351h122l701 -1221l193 1221h106l-214 -1351h-127l-699 1218l-193 -1218h-103z" />
    <glyph glyph-name="Ograve" unicode="&#xd2;" horiz-adv-x="1478" 
d="M735 -34q-195 0 -327 88.5t-184 249t-18 373.5q51 321 255.5 514.5t497.5 193.5q295 0 436.5 -193t90.5 -517q-51 -323 -254.5 -516t-496.5 -193zM313 677q-30 -190 10 -333t149 -223t274 -80q246 0 417.5 172t217.5 462q46 291 -71 462.5t-363 171.5q-244 0 -416 -171.5
t-218 -460.5zM740 1834h155l199 -318h-97z" />
    <glyph glyph-name="Oacute" unicode="&#xd3;" horiz-adv-x="1478" 
d="M735 -34q-195 0 -327 88.5t-184 249t-18 373.5q51 321 255.5 514.5t497.5 193.5q295 0 436.5 -193t90.5 -517q-51 -323 -254.5 -516t-496.5 -193zM313 677q-30 -190 10 -333t149 -223t274 -80q246 0 417.5 172t217.5 462q46 291 -71 462.5t-363 171.5q-244 0 -416 -171.5
t-218 -460.5zM858 1516l299 318h154l-354 -318h-99z" />
    <glyph glyph-name="Ocircumflex" unicode="&#xd4;" horiz-adv-x="1478" 
d="M735 -34q-195 0 -327 88.5t-184 249t-18 373.5q51 321 255.5 514.5t497.5 193.5q295 0 436.5 -193t90.5 -517q-51 -323 -254.5 -516t-496.5 -193zM313 677q-30 -190 10 -333t149 -223t274 -80q246 0 417.5 172t217.5 462q46 291 -71 462.5t-363 171.5q-244 0 -416 -171.5
t-218 -460.5zM578 1516l398 293h97l310 -293h-118l-249 235l-321 -235h-117z" />
    <glyph glyph-name="Otilde" unicode="&#xd5;" horiz-adv-x="1478" 
d="M735 -34q-195 0 -327 88.5t-184 249t-18 373.5q51 321 255.5 514.5t497.5 193.5q295 0 436.5 -193t90.5 -517q-51 -323 -254.5 -516t-496.5 -193zM313 677q-30 -190 10 -333t149 -223t274 -80q246 0 417.5 172t217.5 462q46 291 -71 462.5t-363 171.5q-244 0 -416 -171.5
t-218 -460.5zM574 1596q43 69 116.5 114.5t165.5 45.5q80 0 174 -65q93 -66 143 -66q114 0 201 126l67 -33q-114 -159 -275 -159q-82 0 -173 65t-147 65q-124 0 -205 -126z" />
    <glyph glyph-name="Odieresis" unicode="&#xd6;" horiz-adv-x="1478" 
d="M735 -34q-195 0 -327 88.5t-184 249t-18 373.5q51 321 255.5 514.5t497.5 193.5q295 0 436.5 -193t90.5 -517q-51 -323 -254.5 -516t-496.5 -193zM313 677q-30 -190 10 -333t149 -223t274 -80q246 0 417.5 172t217.5 462q46 291 -71 462.5t-363 171.5q-244 0 -416 -171.5
t-218 -460.5zM679 1592l24 148h182l-24 -148h-182zM1117 1592l24 148h182l-24 -148h-182z" />
    <glyph glyph-name="multiply" unicode="&#xd7;" horiz-adv-x="1416" 
d="M292 243l-61 60l507 343l-389 346l80 62l385 -353l502 353l60 -62l-497 -346l401 -346l-84 -57l-400 347z" />
    <glyph glyph-name="Oslash" unicode="&#xd8;" horiz-adv-x="1479" 
d="M391 70q-252 186 -185 605q51 322 255 516t498 194q191 0 320 -84l122 164h100l-160 -212q206 -194 146 -578q-51 -321 -254 -515t-498 -194q-163 0 -281 60l-126 -168h-98zM313 675q-58 -367 134 -531l778 1085q-110 80 -278 80q-246 0 -417 -171.5t-217 -462.5zM512 98
q100 -57 234 -57q247 0 418.5 173t216.5 461q53 329 -101 496z" />
    <glyph glyph-name="Ugrave" unicode="&#xd9;" horiz-adv-x="1439" 
d="M711 -34q-263 0 -386.5 131t-84.5 374l139 880h104l-138 -872q-34 -213 66.5 -325.5t310.5 -112.5q213 0 351.5 114t171.5 324l138 872h105l-139 -880q-39 -242 -203 -373.5t-435 -131.5zM741 1834h154l201 -318h-99z" />
    <glyph glyph-name="Uacute" unicode="&#xda;" horiz-adv-x="1439" 
d="M711 -34q-263 0 -386.5 131t-84.5 374l139 880h104l-138 -872q-34 -213 66.5 -325.5t310.5 -112.5q213 0 351.5 114t171.5 324l138 872h105l-139 -880q-39 -242 -203 -373.5t-435 -131.5zM823 1516l299 318h155l-357 -318h-97z" />
    <glyph glyph-name="Ucircumflex" unicode="&#xdb;" horiz-adv-x="1439" 
d="M711 -34q-263 0 -386.5 131t-84.5 374l139 880h104l-138 -872q-34 -213 66.5 -325.5t310.5 -112.5q213 0 351.5 114t171.5 324l138 872h105l-139 -880q-39 -242 -203 -373.5t-435 -131.5zM562 1516l399 293h98l307 -293h-115l-252 235l-318 -235h-119z" />
    <glyph glyph-name="Udieresis" unicode="&#xdc;" horiz-adv-x="1439" 
d="M711 -34q-263 0 -386.5 131t-84.5 374l139 880h104l-138 -872q-34 -213 66.5 -325.5t310.5 -112.5q213 0 351.5 114t171.5 324l138 872h105l-139 -880q-39 -242 -203 -373.5t-435 -131.5zM667 1592l24 148h183l-24 -148h-183zM1108 1592l24 148h179l-24 -148h-179z" />
    <glyph glyph-name="Yacute" unicode="&#xdd;" horiz-adv-x="1309" 
d="M755 1516l299 318h153l-354 -318h-98zM240 1351h127l387 -713h5l611 713h127l-700 -794l-88 -557h-102l88 557z" />
    <glyph glyph-name="Thorn" unicode="&#xde;" horiz-adv-x="1267" 
d="M151 0l214 1353h103l-38 -244h331q272 0 394 -107.5t91 -303.5q-34 -210 -205.5 -314.5t-447.5 -104.5h-295l-44 -279h-103zM310 351h283q492 0 546 344q54 339 -402 339h-319z" />
    <glyph glyph-name="germandbls" unicode="&#xdf;" horiz-adv-x="1339" 
d="M782 -34q-174 0 -325 42l29 76q135 -43 306 -43q146 0 259 82t134 209q16 103 -27 178t-127 111t-196 36h-134l12 73h122q118 0 207 83t109 207q20 128 -65.5 208.5t-247.5 80.5q-166 0 -276 -74.5t-131 -202.5l-163 -1032h-103l165 1040q26 162 169 253.5t351 91.5
q204 0 319.5 -98.5t90.5 -258.5q-19 -114 -87.5 -196.5t-164.5 -124.5v-3q109 -19 206 -104q48 -44 70 -114.5t10 -153.5q-25 -159 -166.5 -262.5t-345.5 -103.5z" />
    <glyph glyph-name="agrave" unicode="&#xe0;" horiz-adv-x="1155" 
d="M473 -34q-181 0 -276.5 72t-77.5 187q21 131 148.5 211.5t379.5 112.5q255 31 365 68l8 50q18 114 -62.5 185t-240.5 71q-106 0 -211.5 -41.5t-184.5 -114.5l-61 42q87 83 211.5 133.5t254.5 50.5q220 0 318.5 -93t73.5 -256l-102 -644h-99l30 191q-58 -94 -189.5 -159.5
t-284.5 -65.5zM223 229q-12 -82 60 -136.5t210 -54.5q177 0 317 96t163 241l28 173q-118 -34 -363 -65q-382 -49 -415 -254zM550 1472h155l199 -319h-98z" />
    <glyph glyph-name="aacute" unicode="&#xe1;" horiz-adv-x="1155" 
d="M473 -34q-181 0 -276.5 72t-77.5 187q21 131 148.5 211.5t379.5 112.5q255 31 365 68l8 50q18 114 -62.5 185t-240.5 71q-106 0 -211.5 -41.5t-184.5 -114.5l-61 42q87 83 211.5 133.5t254.5 50.5q220 0 318.5 -93t73.5 -256l-102 -644h-99l30 191q-58 -94 -189.5 -159.5
t-284.5 -65.5zM223 229q-12 -82 60 -136.5t210 -54.5q177 0 317 96t163 241l28 173q-118 -34 -363 -65q-382 -49 -415 -254zM596 1157l300 318h155l-357 -318h-98z" />
    <glyph glyph-name="acircumflex" unicode="&#xe2;" horiz-adv-x="1155" 
d="M473 -34q-181 0 -276.5 72t-77.5 187q21 131 148.5 211.5t379.5 112.5q255 31 365 68l8 50q18 114 -62.5 185t-240.5 71q-106 0 -211.5 -41.5t-184.5 -114.5l-61 42q87 83 211.5 133.5t254.5 50.5q220 0 318.5 -93t73.5 -256l-102 -644h-99l30 191q-58 -94 -189.5 -159.5
t-284.5 -65.5zM223 229q-12 -82 60 -136.5t210 -54.5q177 0 317 96t163 241l28 173q-118 -34 -363 -65q-382 -49 -415 -254zM346 1157l399 294h99l307 -294h-115l-251 236l-320 -236h-119z" />
    <glyph glyph-name="atilde" unicode="&#xe3;" horiz-adv-x="1155" 
d="M473 -34q-181 0 -276.5 72t-77.5 187q21 131 148.5 211.5t379.5 112.5q255 31 365 68l8 50q18 114 -62.5 185t-240.5 71q-106 0 -211.5 -41.5t-184.5 -114.5l-61 42q87 83 211.5 133.5t254.5 50.5q220 0 318.5 -93t73.5 -256l-102 -644h-99l30 191q-58 -94 -189.5 -159.5
t-284.5 -65.5zM223 229q-12 -82 60 -136.5t210 -54.5q177 0 317 96t163 241l28 173q-118 -34 -363 -65q-382 -49 -415 -254zM344 1226q44 68 117 113.5t165 45.5q80 0 174 -65t142 -65q114 0 203 126l64 -34q-113 -159 -273 -159q-82 0 -172 66q-92 65 -148 65
q-125 0 -206 -127z" />
    <glyph glyph-name="adieresis" unicode="&#xe4;" horiz-adv-x="1155" 
d="M473 -34q-181 0 -276.5 72t-77.5 187q21 131 148.5 211.5t379.5 112.5q255 31 365 68l8 50q18 114 -62.5 185t-240.5 71q-106 0 -211.5 -41.5t-184.5 -114.5l-61 42q87 83 211.5 133.5t254.5 50.5q220 0 318.5 -93t73.5 -256l-102 -644h-99l30 191q-58 -94 -189.5 -159.5
t-284.5 -65.5zM223 229q-12 -82 60 -136.5t210 -54.5q177 0 317 96t163 241l28 173q-118 -34 -363 -65q-382 -49 -415 -254zM452 1229l23 147h183l-23 -147h-183zM891 1229l23 147h180l-23 -147h-180z" />
    <glyph glyph-name="aring" unicode="&#xe5;" horiz-adv-x="1155" 
d="M473 -34q-181 0 -276.5 72t-77.5 187q21 131 148.5 211.5t379.5 112.5q255 31 365 68l8 50q18 114 -62.5 185t-240.5 71q-106 0 -211.5 -41.5t-184.5 -114.5l-61 42q87 83 211.5 133.5t254.5 50.5q220 0 318.5 -93t73.5 -256l-102 -644h-99l30 191q-58 -94 -189.5 -159.5
t-284.5 -65.5zM223 229q-12 -82 60 -136.5t210 -54.5q177 0 317 96t163 241l28 173q-118 -34 -363 -65q-382 -49 -415 -254zM500 1349q15 92 106 159t211 67q119 0 187.5 -66t54.5 -160q-15 -94 -105 -159.5t-208 -65.5t-189.5 66t-56.5 159zM582 1349q-11 -70 38 -116.5
t136 -46.5q85 0 147.5 46t73.5 117q11 70 -35.5 116.5t-134.5 46.5q-89 0 -151.5 -47t-73.5 -116z" />
    <glyph glyph-name="ae" unicode="&#xe6;" horiz-adv-x="1974" 
d="M473 -34q-180 0 -276.5 71.5t-77.5 187.5q20 130 147.5 211.5t380.5 112.5q274 35 365 68l4 27q2 19 3 23q18 113 -62 184.5t-236 71.5q-228 0 -402 -156l-61 42q85 83 211.5 133.5t262.5 50.5q174 0 268 -67t105 -183q73 116 195.5 183t268.5 67q142 0 244 -65
t144.5 -174.5t21.5 -241.5l-9 -59h-882l-7 -45q-11 -160 79.5 -265t261.5 -105q122 0 223.5 49t168.5 130l82 -26q-176 -225 -487 -225q-162 0 -266 76.5t-138 211.5q-67 -128 -211 -208t-321 -80zM223 230q-13 -81 58.5 -136.5t208.5 -55.5q178 0 318.5 96t163.5 241
l28 173q-121 -37 -360 -65q-198 -24 -299 -86t-118 -167zM1099 521h781q26 168 -65 284t-257 116q-162 0 -286 -104.5t-167 -259.5z" />
    <glyph glyph-name="ccedilla" unicode="&#xe7;" horiz-adv-x="1076" 
d="M462 -423q-110 0 -205 29l10 63q111 -32 205 -32q77 0 140.5 30t70.5 74q17 103 -243 99l58 131q-188 24 -281.5 161.5t-59.5 349.5q37 228 193.5 369.5t386.5 141.5q134 0 230.5 -63.5t123.5 -160.5l-93 -23q-27 78 -100 126.5t-172 48.5q-177 0 -307 -122.5
t-161 -316.5q-31 -198 60.5 -321t267.5 -123q103 0 202.5 53.5t161.5 133.5l80 -27q-66 -97 -185 -162.5t-253 -69.5l-38 -80q114 -2 171.5 -41t46.5 -106q-11 -71 -97 -116.5t-213 -45.5z" />
    <glyph glyph-name="egrave" unicode="&#xe8;" horiz-adv-x="1151" 
d="M585 -34q-232 0 -347.5 144.5t-79.5 376.5q36 224 195.5 365t385.5 141q113 0 201 -37.5t140 -102.5t72 -153t4 -188q0 -2 -5 -28q-4 -16 -6 -29h-891q-28 -176 65 -296.5t277 -120.5q117 0 225 50t174 131l83 -26q-82 -106 -208 -166.5t-285 -60.5zM269 521h787
q17 110 -16.5 201t-115 145t-196.5 54q-175 0 -302.5 -117.5t-156.5 -282.5zM553 1475h154l199 -318h-97z" />
    <glyph glyph-name="eacute" unicode="&#xe9;" horiz-adv-x="1151" 
d="M585 -34q-232 0 -347.5 144.5t-79.5 376.5q36 224 195.5 365t385.5 141q113 0 201 -37.5t140 -102.5t72 -153t4 -188q0 -2 -5 -28q-4 -16 -6 -29h-891q-28 -176 65 -296.5t277 -120.5q117 0 225 50t174 131l83 -26q-82 -106 -208 -166.5t-285 -60.5zM269 521h787
q17 110 -16.5 201t-115 145t-196.5 54q-175 0 -302.5 -117.5t-156.5 -282.5zM596 1157l301 318h153l-355 -318h-99z" />
    <glyph glyph-name="ecircumflex" unicode="&#xea;" horiz-adv-x="1151" 
d="M585 -34q-232 0 -347.5 144.5t-79.5 376.5q36 224 195.5 365t385.5 141q113 0 201 -37.5t140 -102.5t72 -153t4 -188q0 -2 -5 -28q-4 -16 -6 -29h-891q-28 -176 65 -296.5t277 -120.5q117 0 225 50t174 131l83 -26q-82 -106 -208 -166.5t-285 -60.5zM269 521h787
q17 110 -16.5 201t-115 145t-196.5 54q-175 0 -302.5 -117.5t-156.5 -282.5zM364 1157l400 294h98l306 -294h-114l-251 236l-320 -236h-119z" />
    <glyph glyph-name="edieresis" unicode="&#xeb;" horiz-adv-x="1151" 
d="M585 -34q-232 0 -347.5 144.5t-79.5 376.5q36 224 195.5 365t385.5 141q113 0 201 -37.5t140 -102.5t72 -153t4 -188q0 -2 -5 -28q-4 -16 -6 -29h-891q-28 -176 65 -296.5t277 -120.5q117 0 225 50t174 131l83 -26q-82 -106 -208 -166.5t-285 -60.5zM269 521h787
q17 110 -16.5 201t-115 145t-196.5 54q-175 0 -302.5 -117.5t-156.5 -282.5zM466 1229l23 147h182l-23 -147h-182zM905 1229l23 147h180l-23 -147h-180z" />
    <glyph glyph-name="igrave" unicode="&#xec;" horiz-adv-x="482" 
d="M429 1157l-256 318h154l199 -318h-97zM177 0l152 961h101l-152 -961h-101z" />
    <glyph glyph-name="iacute" unicode="&#xed;" horiz-adv-x="499" 
d="M322 1157l300 318h154l-356 -318h-98zM204 0l152 961h101l-152 -961h-101z" />
    <glyph glyph-name="icircumflex" unicode="&#xee;" horiz-adv-x="611" 
d="M86 1157l400 294h96l308 -294h-115l-251 236l-320 -236h-118zM256 0l152 961h101l-152 -961h-101z" />
    <glyph glyph-name="idieresis" unicode="&#xef;" horiz-adv-x="468" 
d="M185 0l152 961h101l-152 -961h-101zM119 1229l23 147h182l-23 -147h-182zM556 1229l23 147h182l-23 -147h-182z" />
    <glyph glyph-name="eth" unicode="&#xf0;" 
d="M577 -34q-232 0 -345.5 134t-80.5 343q34 217 191.5 344t384.5 127q140 0 229.5 -55t119.5 -146q-6 325 -186 483l-338 -189l-50 55l325 181q-120 74 -286 94l42 68q202 -27 334 -112l245 137l45 -57l-227 -127q263 -227 175 -777q-35 -225 -189 -364t-389 -139zM253 446
q-30 -183 61 -295.5t277 -112.5q177 0 300 111t153 300q28 179 -60.5 287t-262.5 108q-180 0 -309.5 -106t-158.5 -292z" />
    <glyph glyph-name="ntilde" unicode="&#xf1;" horiz-adv-x="1151" 
d="M148 0l152 961h99l-31 -198h2q34 83 160 156.5t275 73.5q136 0 230 -69q52 -38 72.5 -116t3.5 -185l-99 -623h-102l96 605q49 316 -232 316q-149 0 -279.5 -100t-152.5 -236l-93 -585h-101zM333 1226q42 67 115.5 113t166.5 46q79 0 173 -65t143 -65q114 0 204 126
l64 -34q-113 -159 -275 -159q-81 0 -171 66q-92 65 -148 65q-124 0 -205 -127z" />
    <glyph glyph-name="ograve" unicode="&#xf2;" 
d="M577 -34q-157 0 -261.5 70.5t-143 186t-15.5 259.5q36 226 194 368.5t388 142.5q228 0 342.5 -143t78.5 -368q-32 -201 -178 -353q-72 -77 -176.5 -120t-228.5 -43zM258 482q-31 -198 60 -321t270 -123q176 0 307 124.5t162 319.5q31 196 -61.5 317.5t-267.5 121.5
q-174 0 -306 -121t-164 -318zM547 1475h154l198 -318h-98z" />
    <glyph glyph-name="oacute" unicode="&#xf3;" 
d="M577 -34q-157 0 -261.5 70.5t-143 186t-15.5 259.5q36 226 194 368.5t388 142.5q228 0 342.5 -143t78.5 -368q-32 -201 -178 -353q-72 -77 -176.5 -120t-228.5 -43zM258 482q-31 -198 60 -321t270 -123q176 0 307 124.5t162 319.5q31 196 -61.5 317.5t-267.5 121.5
q-174 0 -306 -121t-164 -318zM631 1157l301 318h154l-355 -318h-100z" />
    <glyph glyph-name="ocircumflex" unicode="&#xf4;" 
d="M577 -34q-157 0 -261.5 70.5t-143 186t-15.5 259.5q36 226 194 368.5t388 142.5q228 0 342.5 -143t78.5 -368q-32 -201 -178 -353q-72 -77 -176.5 -120t-228.5 -43zM258 482q-31 -198 60 -321t270 -123q176 0 307 124.5t162 319.5q31 196 -61.5 317.5t-267.5 121.5
q-174 0 -306 -121t-164 -318zM364 1157l400 294h98l306 -294h-114l-251 236l-320 -236h-119z" />
    <glyph glyph-name="otilde" unicode="&#xf5;" 
d="M577 -34q-157 0 -261.5 70.5t-143 186t-15.5 259.5q36 226 194 368.5t388 142.5q228 0 342.5 -143t78.5 -368q-32 -201 -178 -353q-72 -77 -176.5 -120t-228.5 -43zM258 482q-31 -198 60 -321t270 -123q176 0 307 124.5t162 319.5q31 196 -61.5 317.5t-267.5 121.5
q-174 0 -306 -121t-164 -318zM338 1226q44 68 117 113.5t165 45.5q79 0 173 -65t143 -65q114 0 201 126l66 -34q-113 -159 -274 -159q-82 0 -172 66q-92 65 -147 65q-125 0 -206 -127z" />
    <glyph glyph-name="odieresis" unicode="&#xf6;" 
d="M577 -34q-157 0 -261.5 70.5t-143 186t-15.5 259.5q36 226 194 368.5t388 142.5q228 0 342.5 -143t78.5 -368q-32 -201 -178 -353q-72 -77 -176.5 -120t-228.5 -43zM258 482q-31 -198 60 -321t270 -123q176 0 307 124.5t162 319.5q31 196 -61.5 317.5t-267.5 121.5
q-174 0 -306 -121t-164 -318zM464 1229l23 147h182l-23 -147h-182zM903 1229l23 147h179l-23 -147h-179z" />
    <glyph glyph-name="divide" unicode="&#xf7;" horiz-adv-x="1463" 
d="M282 611l13 83h1093l-13 -83h-1093zM670 245l26 166h205l-26 -166h-205zM773 894l27 170h205l-27 -170h-205z" />
    <glyph glyph-name="oslash" unicode="&#xf8;" 
d="M299 48q-92 67 -128 181.5t-14 250.5q36 227 194 370t388 143q145 0 242 -57l102 134h85l-132 -176q166 -145 124 -414q-20 -133 -90 -249q-73 -119 -203 -192t-290 -73q-127 0 -218 46l-96 -129h-89zM258 480q-36 -229 98 -357l570 743q-82 55 -198 55
q-174 0 -306.5 -122t-163.5 -319zM414 79q70 -41 174 -41q176 0 307 123t162 319q35 215 -79 339z" />
    <glyph glyph-name="ugrave" unicode="&#xf9;" horiz-adv-x="1135" 
d="M504 -34q-173 0 -256 98.5t-57 266.5l100 630h100l-95 -604q-51 -319 242 -319q170 0 285 106.5t140 263.5l87 553h98l-152 -961h-97l30 188q-38 -88 -151.5 -155t-273.5 -67zM531 1475h154l198 -318h-98z" />
    <glyph glyph-name="uacute" unicode="&#xfa;" horiz-adv-x="1135" 
d="M504 -34q-173 0 -256 98.5t-57 266.5l100 630h100l-95 -604q-51 -319 242 -319q170 0 285 106.5t140 263.5l87 553h98l-152 -961h-97l30 188q-38 -88 -151.5 -155t-273.5 -67zM623 1157l301 318h152l-356 -318h-97z" />
    <glyph glyph-name="ucircumflex" unicode="&#xfb;" horiz-adv-x="1140" 
d="M504 -34q-173 0 -256 98.5t-57 266.5l100 630h100l-95 -604q-51 -319 242 -319q170 0 285 106.5t140 263.5l87 553h98l-152 -961h-97l30 188q-38 -88 -151.5 -155t-273.5 -67zM380 1157l398 294h99l307 -294h-115l-250 236l-321 -236h-118z" />
    <glyph glyph-name="udieresis" unicode="&#xfc;" horiz-adv-x="1135" 
d="M504 -34q-173 0 -256 98.5t-57 266.5l100 630h100l-95 -604q-51 -319 242 -319q170 0 285 106.5t140 263.5l87 553h98l-152 -961h-97l30 188q-38 -88 -151.5 -155t-273.5 -67zM470 1229l23 147h182l-23 -147h-182zM908 1229l23 147h182l-23 -147h-182z" />
    <glyph glyph-name="yacute" unicode="&#xfd;" horiz-adv-x="1091" 
d="M562 1157l300 318h155l-357 -318h-98zM101 -440l12 71h38q155 0 274 206l69 126l-293 998h119l237 -893h8l510 893h118l-684 -1146q-82 -138 -165 -196.5t-188 -58.5h-55z" />
    <glyph glyph-name="thorn" unicode="&#xfe;" horiz-adv-x="1175" 
d="M69 -440l293 1847h101l-106 -669q56 112 175.5 183.5t242.5 71.5q220 0 327 -138t69 -373q-38 -242 -194 -379t-366 -137q-130 0 -218.5 69.5t-118.5 179.5l-104 -655h-101zM313 483q-28 -198 57 -321.5t243 -123.5q174 0 299 119.5t157 324.5q32 200 -51 319.5
t-263 119.5q-156 0 -284.5 -124t-157.5 -314z" />
    <glyph glyph-name="ydieresis" unicode="&#xff;" horiz-adv-x="1091" 
d="M442 1376h182l-23 -147h-182zM101 -440l12 71h38q155 0 274 206l69 126l-293 998h119l237 -893h8l510 893h118l-684 -1146q-82 -138 -165 -196.5t-188 -58.5h-55zM858 1229l23 147h180l-23 -147h-180z" />
    <glyph glyph-name="Amacron" unicode="&#x100;" horiz-adv-x="1419" 
d="M611 1630l10 64h708l-10 -64h-708zM25 0l832 1351h131l407 -1351h-119l-122 427h-756l-257 -427h-116zM442 497h692l-219 774h-8z" />
    <glyph glyph-name="amacron" unicode="&#x101;" horiz-adv-x="1155" 
d="M473 -34q-181 0 -276.5 72t-77.5 187q21 131 148.5 211.5t379.5 112.5q255 31 365 68l8 50q18 114 -62.5 185t-240.5 71q-106 0 -211.5 -41.5t-184.5 -114.5l-61 42q87 83 211.5 133.5t254.5 50.5q220 0 318.5 -93t73.5 -256l-102 -644h-99l30 191q-58 -94 -189.5 -159.5
t-284.5 -65.5zM223 229q-12 -82 60 -136.5t210 -54.5q177 0 317 96t163 241l28 173q-118 -34 -363 -65q-382 -49 -415 -254zM414 1245l10 64h708l-10 -64h-708z" />
    <glyph glyph-name="Abreve" unicode="&#x102;" horiz-adv-x="1419" 
d="M952 1516q-148 0 -228.5 74.5t-71.5 184.5h89q-10 -81 55 -139.5t166 -58.5q102 0 184.5 59t98.5 139h85q-27 -111 -129 -185t-249 -74zM25 0l832 1351h131l407 -1351h-119l-122 427h-756l-257 -427h-116zM442 497h692l-219 774h-8z" />
    <glyph glyph-name="abreve" unicode="&#x103;" horiz-adv-x="1155" 
d="M473 -34q-181 0 -276.5 72t-77.5 187q21 131 148.5 211.5t379.5 112.5q255 31 365 68l8 50q18 114 -62.5 185t-240.5 71q-106 0 -211.5 -41.5t-184.5 -114.5l-61 42q87 83 211.5 133.5t254.5 50.5q220 0 318.5 -93t73.5 -256l-102 -644h-99l30 191q-58 -94 -189.5 -159.5
t-284.5 -65.5zM223 229q-12 -82 60 -136.5t210 -54.5q177 0 317 96t163 241l28 173q-118 -34 -363 -65q-382 -49 -415 -254zM450 1417h90q-9 -83 55.5 -141.5t165.5 -58.5t183 59.5t98 140.5h87q-26 -112 -128 -187t-250 -75q-149 0 -229.5 75.5t-71.5 186.5z" />
    <glyph glyph-name="Aogonek" unicode="&#x104;" horiz-adv-x="1375" 
d="M1381 0q-272 -137 -285 -224q-7 -38 18.5 -57t83.5 -19q65 0 146 27l-10 -64q-74 -24 -158 -24q-97 0 -140.5 31.5t-33.5 93.5t92.5 127.5t184.5 108.5h-3l-122 427h-756l-257 -427h-116l832 1351h131l407 -1351h-14zM442 497h692l-219 774h-8z" />
    <glyph glyph-name="aogonek" unicode="&#x105;" horiz-adv-x="1120" 
d="M473 -34q-181 0 -276.5 72t-77.5 187q21 131 148.5 211.5t379.5 112.5q255 31 365 68l8 50q18 114 -62.5 185t-240.5 71q-106 0 -211.5 -41.5t-184.5 -114.5l-61 42q87 83 211.5 133.5t254.5 50.5q220 0 318.5 -93t73.5 -256l-102 -644h1q-272 -137 -285 -224
q-7 -38 19 -57t85 -19q65 0 146 27l-10 -64q-74 -24 -162 -24q-194 0 -173 125q10 62 93.5 127.5t186.5 108.5l30 191q-58 -94 -189.5 -159.5t-284.5 -65.5zM223 229q-12 -82 60 -136.5t210 -54.5q177 0 317 96t163 241l28 173q-118 -34 -363 -65q-382 -49 -415 -254z" />
    <glyph glyph-name="Cacute" unicode="&#x106;" horiz-adv-x="1379" 
d="M755 -34q-299 0 -450 190.5t-99 520.5q52 329 262.5 518.5t510.5 189.5q172 0 285 -77.5t156 -196.5l-95 -31q-93 229 -360 229q-252 0 -429 -172t-223 -460q-46 -291 79.5 -463.5t371.5 -172.5q152 0 275.5 66.5t200.5 176.5l89 -26q-213 -292 -574 -292zM875 1516
l301 318h153l-355 -318h-99z" />
    <glyph glyph-name="cacute" unicode="&#x107;" horiz-adv-x="1076" 
d="M575 -34q-224 0 -339.5 141.5t-78.5 374.5q37 228 193.5 369.5t386.5 141.5q134 0 230.5 -63.5t123.5 -160.5l-93 -23q-27 78 -100 126.5t-172 48.5q-177 0 -307 -122.5t-161 -316.5q-31 -198 60.5 -321t267.5 -123q103 0 202.5 53.5t161.5 133.5l80 -27
q-69 -100 -193 -166t-262 -66zM654 1157l301 318h154l-358 -318h-97z" />
    <glyph glyph-name="Cdotaccent" unicode="&#x10a;" horiz-adv-x="1379" 
d="M755 -34q-299 0 -450 190.5t-99 520.5q52 329 262.5 518.5t510.5 189.5q172 0 285 -77.5t156 -196.5l-95 -31q-93 229 -360 229q-252 0 -429 -172t-223 -460q-46 -291 79.5 -463.5t371.5 -172.5q152 0 275.5 66.5t200.5 176.5l89 -26q-213 -292 -574 -292zM928 1590
l24 150h180l-24 -150h-180z" />
    <glyph glyph-name="cdotaccent" unicode="&#x10b;" horiz-adv-x="1076" 
d="M575 -34q-224 0 -339.5 141.5t-78.5 374.5q37 228 193.5 369.5t386.5 141.5q134 0 230.5 -63.5t123.5 -160.5l-93 -23q-27 78 -100 126.5t-172 48.5q-177 0 -307 -122.5t-161 -316.5q-31 -198 60.5 -321t267.5 -123q103 0 202.5 53.5t161.5 133.5l80 -27
q-69 -100 -193 -166t-262 -66zM687 1229l23 150h180l-23 -150h-180z" />
    <glyph glyph-name="Ccaron" unicode="&#x10c;" horiz-adv-x="1379" 
d="M755 -34q-299 0 -450 190.5t-99 520.5q52 329 262.5 518.5t510.5 189.5q172 0 285 -77.5t156 -196.5l-95 -31q-93 229 -360 229q-252 0 -429 -172t-223 -460q-46 -291 79.5 -463.5t371.5 -172.5q152 0 275.5 66.5t200.5 176.5l89 -26q-213 -292 -574 -292zM655 1807h113
l245 -232l322 232h113l-393 -291h-99z" />
    <glyph glyph-name="ccaron" unicode="&#x10d;" horiz-adv-x="1076" 
d="M575 -34q-224 0 -339.5 141.5t-78.5 374.5q37 228 193.5 369.5t386.5 141.5q134 0 230.5 -63.5t123.5 -160.5l-93 -23q-27 78 -100 126.5t-172 48.5q-177 0 -307 -122.5t-161 -316.5q-31 -198 60.5 -321t267.5 -123q103 0 202.5 53.5t161.5 133.5l80 -27
q-69 -100 -193 -166t-262 -66zM426 1449h114l247 -232l320 232h112l-394 -292h-99z" />
    <glyph glyph-name="Dcaron" unicode="&#x10e;" horiz-adv-x="1400" 
d="M165 0l214 1351h407q346 0 510 -171.5t112 -502.5q-51 -326 -270 -501.5t-566 -175.5h-407zM280 74h276q313 0 506 148t241 455q96 600 -553 600h-280zM500 1807h113l247 -232l319 232h115l-394 -291h-101z" />
    <glyph glyph-name="dcaron" unicode="&#x10f;" horiz-adv-x="1640" 
d="M548 -34q-95 0 -174 33t-135 95.5t-79 162.5t-3 225q37 234 190.5 372.5t366.5 138.5q134 0 225.5 -72t114.5 -181l106 667h100l-223 -1407h-98l33 211q-64 -108 -176.5 -176.5t-247.5 -68.5zM258 482q-32 -201 53.5 -322.5t258.5 -121.5q161 0 287.5 121t157.5 323
q31 198 -58.5 318.5t-248.5 120.5q-170 0 -294 -119.5t-156 -319.5zM1261 1058l172 333h129l-219 -333h-82z" />
    <glyph glyph-name="Dcroat" unicode="&#x110;" horiz-adv-x="1383" 
d="M148 0l104 659h-244l12 71h244l98 621h407q346 0 510 -171.5t112 -502.5q-51 -326 -270 -501.5t-566 -175.5h-407zM263 74h276q313 0 506 148t241 455q96 600 -553 600h-280l-86 -547h409l-12 -71h-409z" />
    <glyph glyph-name="dcroat" unicode="&#x111;" horiz-adv-x="1123" 
d="M548 -34q-97 0 -176.5 33t-135 96t-77.5 162.5t-2 224.5q38 237 190.5 374t366.5 137q134 0 225.5 -72t114.5 -181l68 429h-499l11 66h499l27 172h100l-27 -172h171l-11 -66h-171l-185 -1169h-98l33 211q-66 -111 -177 -178t-247 -67zM258 482q-31 -201 55 -322.5
t260 -121.5q160 0 284 120.5t158 323.5q34 195 -56.5 317t-250.5 122q-167 0 -292.5 -120.5t-157.5 -318.5z" />
    <glyph glyph-name="Emacron" unicode="&#x112;" horiz-adv-x="1271" 
d="M165 0l214 1351h971l-12 -74h-868l-85 -539h785l-12 -73h-785l-93 -591h896l-12 -74h-999zM568 1630l10 64h707l-10 -64h-707z" />
    <glyph glyph-name="emacron" unicode="&#x113;" horiz-adv-x="1151" 
d="M585 -34q-232 0 -347.5 144.5t-79.5 376.5q36 224 195.5 365t385.5 141q113 0 201 -37.5t140 -102.5t72 -153t4 -188q0 -2 -5 -28q-4 -16 -6 -29h-891q-28 -176 65 -296.5t277 -120.5q117 0 225 50t174 131l83 -26q-82 -106 -208 -166.5t-285 -60.5zM269 521h787
q17 110 -16.5 201t-115 145t-196.5 54q-175 0 -302.5 -117.5t-156.5 -282.5zM423 1245l10 64h706l-10 -64h-706z" />
    <glyph glyph-name="Edotaccent" unicode="&#x116;" horiz-adv-x="1271" 
d="M165 0l214 1351h971l-12 -74h-868l-85 -539h785l-12 -73h-785l-93 -591h896l-12 -74h-999zM847 1590l24 150h181l-24 -150h-181z" />
    <glyph glyph-name="edotaccent" unicode="&#x117;" horiz-adv-x="1151" 
d="M585 -34q-232 0 -347.5 144.5t-79.5 376.5q36 224 195.5 365t385.5 141q113 0 201 -37.5t140 -102.5t72 -153t4 -188q0 -2 -5 -28q-4 -16 -6 -29h-891q-28 -176 65 -296.5t277 -120.5q117 0 225 50t174 131l83 -26q-82 -106 -208 -166.5t-285 -60.5zM269 521h787
q17 110 -16.5 201t-115 145t-196.5 54q-175 0 -302.5 -117.5t-156.5 -282.5zM689 1229l23 150h180l-23 -150h-180z" />
    <glyph glyph-name="Eogonek" unicode="&#x118;" horiz-adv-x="1226" 
d="M165 0l214 1351h971l-12 -74h-868l-85 -539h785l-12 -73h-785l-93 -591h896l-12 -74h-284q-271 -137 -284 -224q-7 -38 18.5 -57t83.5 -19q66 0 146 27l-10 -64q-72 -24 -160 -24q-97 0 -140.5 31.5t-33.5 93.5t93.5 127.5t187.5 108.5h-616z" />
    <glyph glyph-name="eogonek" unicode="&#x119;" horiz-adv-x="1151" 
d="M530 -361q-97 0 -140.5 31.5t-33.5 93.5q8 51 66.5 105t141.5 97q-148 5 -248.5 72.5t-140.5 183.5t-17 265q36 224 195.5 365t385.5 141q113 0 201 -37.5t140 -102.5t72 -153t4 -188q0 -2 -5 -28q-4 -16 -6 -29h-891q-28 -176 65 -296.5t277 -120.5q117 0 225 50
t174 131l83 -26q-144 -186 -394 -220q-221 -118 -233 -197q-7 -38 19 -57t85 -19q65 0 146 27l-10 -64q-75 -24 -161 -24zM269 521h787q17 110 -16.5 201t-115 145t-196.5 54q-175 0 -302.5 -117.5t-156.5 -282.5z" />
    <glyph glyph-name="Ecaron" unicode="&#x11a;" horiz-adv-x="1271" 
d="M165 0l214 1351h971l-12 -74h-868l-85 -539h785l-12 -73h-785l-93 -591h896l-12 -74h-999zM518 1807h112l248 -232l320 232h113l-394 -291h-99z" />
    <glyph glyph-name="ecaron" unicode="&#x11b;" horiz-adv-x="1151" 
d="M585 -34q-232 0 -347.5 144.5t-79.5 376.5q36 224 195.5 365t385.5 141q113 0 201 -37.5t140 -102.5t72 -153t4 -188q0 -2 -5 -28q-4 -16 -6 -29h-891q-28 -176 65 -296.5t277 -120.5q117 0 225 50t174 131l83 -26q-82 -106 -208 -166.5t-285 -60.5zM269 521h787
q17 110 -16.5 201t-115 145t-196.5 54q-175 0 -302.5 -117.5t-156.5 -282.5zM410 1449h114l249 -232l317 232h115l-395 -292h-100z" />
    <glyph glyph-name="Gbreve" unicode="&#x11e;" horiz-adv-x="1463" 
d="M767 -34q-311 0 -462 191.5t-99 519.5q51 322 263 515t529 193q178 0 296.5 -74.5t165.5 -188.5l-92 -28q-108 215 -382 215q-271 0 -449 -171.5t-224 -460.5q-46 -293 79.5 -464.5t388.5 -171.5q119 0 221 39t169 107q131 137 159 309l21 136h-497l12 74h600l-112 -706
h-82l36 252q-75 -133 -211 -209.5t-330 -76.5zM699 1775h88q-8 -81 57 -139.5t164 -58.5q103 0 185.5 59t98.5 139h86q-27 -111 -129 -185t-251 -74q-147 0 -227 74.5t-72 184.5z" />
    <glyph glyph-name="gbreve" unicode="&#x11f;" horiz-adv-x="1159" 
d="M487 -447q-249 0 -373 163l79 38q121 -133 307 -133q358 0 427 437l27 172q-140 -230 -405 -230q-211 0 -317.5 138.5t-71.5 358.5q35 223 184.5 359.5t360.5 136.5q136 0 221 -67t112 -168l32 203h101l-138 -875q-44 -274 -173.5 -403.5t-372.5 -129.5zM261 497
q-30 -188 54 -307t247 -119q171 0 287.5 114.5t147.5 314.5q30 188 -52.5 304.5t-241.5 116.5q-174 0 -293 -117t-149 -307zM455 1417h88q-8 -84 56.5 -142t165.5 -58q103 0 184 59t98 141h88q-27 -112 -130 -187t-250 -75q-149 0 -228.5 75.5t-71.5 186.5z" />
    <glyph glyph-name="Gdotaccent" unicode="&#x120;" horiz-adv-x="1463" 
d="M767 -34q-311 0 -462 191.5t-99 519.5q51 322 263 515t529 193q178 0 296.5 -74.5t165.5 -188.5l-92 -28q-108 215 -382 215q-271 0 -449 -171.5t-224 -460.5q-46 -293 79.5 -464.5t388.5 -171.5q119 0 221 39t169 107q131 137 159 309l21 136h-497l12 74h600l-112 -706
h-82l36 252q-75 -133 -211 -209.5t-330 -76.5zM933 1590l24 150h179l-24 -150h-179z" />
    <glyph glyph-name="gdotaccent" unicode="&#x121;" horiz-adv-x="1159" 
d="M487 -447q-249 0 -373 163l79 38q121 -133 307 -133q358 0 427 437l27 172q-140 -230 -405 -230q-211 0 -317.5 138.5t-71.5 358.5q35 223 184.5 359.5t360.5 136.5q136 0 221 -67t112 -168l32 203h101l-138 -875q-44 -274 -173.5 -403.5t-372.5 -129.5zM261 497
q-30 -188 54 -307t247 -119q171 0 287.5 114.5t147.5 314.5q30 188 -52.5 304.5t-241.5 116.5q-174 0 -293 -117t-149 -307zM697 1229l23 150h181l-23 -150h-181z" />
    <glyph glyph-name="uni0122" unicode="&#x122;" horiz-adv-x="1463" 
d="M767 -34q-311 0 -462 191.5t-99 519.5q51 322 263 515t529 193q178 0 296.5 -74.5t165.5 -188.5l-92 -28q-108 215 -382 215q-271 0 -449 -171.5t-224 -460.5q-46 -293 79.5 -464.5t388.5 -171.5q119 0 221 39t169 107q131 137 159 309l21 136h-497l12 74h600l-112 -706
h-82l36 252q-75 -133 -211 -209.5t-330 -76.5zM576 -453l169 335h132l-223 -335h-78z" />
    <glyph glyph-name="uni0123" unicode="&#x123;" horiz-adv-x="1159" 
d="M486 -447q-120 0 -220.5 43t-153.5 118l80 40q114 -130 306 -130q188 0 291 107.5t138 322.5l27 176q-61 -106 -165 -168t-241 -62q-209 0 -316 138.5t-72 358.5q35 222 184 359t358 137q139 0 224 -66t112 -169l32 203h101l-139 -877q-43 -274 -172.5 -402.5
t-373.5 -128.5zM261 497q-30 -189 55 -307.5t246 -118.5q172 0 288 114t147 315q31 191 -51.5 306t-246.5 115q-170 0 -289 -116.5t-149 -307.5zM668 1161l224 318h76l-168 -318h-132z" />
    <glyph glyph-name="Hbar" unicode="&#x126;" horiz-adv-x="1657" 
d="M278 0l169 1064h-203l11 72h203l34 215h103l-34 -215h896l34 215h104l-34 -215h201l-11 -72h-201l-169 -1064h-104l105 662h-896l-105 -662h-103zM497 734h896l53 330h-896z" />
    <glyph glyph-name="hbar" unicode="&#x127;" horiz-adv-x="1074" 
d="M69 0l187 1182h-166l11 67h166l25 158h102l-25 -158h477l-11 -67h-477l-66 -417q53 87 174.5 152t258.5 65q126 0 224 -67q55 -38 77.5 -116.5t5.5 -187.5l-97 -611h-102l94 593q49 318 -235 318q-96 0 -191 -47.5t-160.5 -126.5t-79.5 -166l-90 -571h-102z" />
    <glyph glyph-name="Imacron" unicode="&#x12a;" horiz-adv-x="564" 
d="M228 0l214 1351h103l-214 -1351h-103zM187 1630l10 64h706l-10 -64h-706z" />
    <glyph glyph-name="imacron" unicode="&#x12b;" horiz-adv-x="506" 
d="M203 0l152 961h101l-152 -961h-101zM96 1245l10 64h708l-10 -64h-708z" />
    <glyph glyph-name="Iogonek" unicode="&#x12e;" horiz-adv-x="478" 
d="M-32 -234q10 63 92.5 127.5t188.5 108.5l214 1349h103l-214 -1351h-6q-267 -136 -280 -223q-6 -38 19.5 -56.5t83.5 -18.5q63 0 145 27l-10 -63q-74 -25 -161 -25q-97 0 -141 31.5t-34 93.5z" />
    <glyph glyph-name="iogonek" unicode="&#x12f;" horiz-adv-x="423" 
d="M81 -359q-97 0 -140.5 31.5t-33.5 93.5t91.5 126.5t185.5 109.5l152 959h97l-152 -959h5q-271 -137 -284 -225q-12 -75 102 -75q65 0 146 27l-10 -63q-72 -25 -159 -25zM336 1216l24 156h171l-24 -156h-171z" />
    <glyph glyph-name="Idotaccent" unicode="&#x130;" horiz-adv-x="456" 
d="M176 0l214 1351h103l-214 -1351h-103zM389 1590l24 150h182l-24 -150h-182z" />
    <glyph glyph-name="dotlessi" unicode="&#x131;" horiz-adv-x="379" 
d="M139 0l152 961h101l-152 -961h-101z" />
    <glyph glyph-name="IJ" unicode="&#x132;" horiz-adv-x="1597" 
d="M964 -34q-273 0 -344 221l99 30q26 -84 93 -131.5t157 -44.5q298 6 352 344l153 966h105l-157 -988q-31 -195 -148.5 -296t-309.5 -101zM226 0l214 1351h103l-214 -1351h-103z" />
    <glyph glyph-name="ij" unicode="&#x133;" horiz-adv-x="1075" 
d="M431 -429l12 74h58q217 0 255 243l170 1073h99l-171 -1079q-24 -152 -114 -231.5t-235 -79.5h-74zM222 0l152 961h97l-152 -961h-97zM374 1216l24 156h171l-24 -156h-171zM927 1216l24 156h174l-24 -156h-174z" />
    <glyph glyph-name="uni0136" unicode="&#x136;" horiz-adv-x="1305" 
d="M165 0l214 1351h103l-126 -794h2l947 794h141l-698 -578l530 -773h-134l-475 706l-333 -277l-68 -429h-103zM422 -442l172 333h132l-224 -333h-80z" />
    <glyph glyph-name="uni0137" unicode="&#x137;" horiz-adv-x="1024" 
d="M139 0l223 1407h104l-158 -999l668 553h134l-461 -380l365 -581h-123l-321 519l-281 -229l-46 -290h-104zM315 -442l172 333h132l-223 -333h-81z" />
    <glyph glyph-name="Lacute" unicode="&#x139;" horiz-adv-x="1189" 
d="M220 0l214 1351h103l-202 -1277h790l-12 -74h-893zM404 1510l300 318h153l-355 -318h-98z" />
    <glyph glyph-name="lacute" unicode="&#x13a;" horiz-adv-x="501" 
d="M202 0l223 1407h102l-223 -1407h-102zM378 1510l302 318h153l-356 -318h-99z" />
    <glyph glyph-name="uni013B" unicode="&#x13b;" horiz-adv-x="1134" 
d="M165 0l214 1351h103l-202 -1277h790l-12 -74h-893zM367 -453l171 335h132l-221 -335h-82z" />
    <glyph glyph-name="uni013C" unicode="&#x13c;" horiz-adv-x="437" 
d="M173 0l223 1407h102l-223 -1407h-102zM-24 -453l172 335h131l-221 -335h-82z" />
    <glyph glyph-name="Lcaron" unicode="&#x13d;" horiz-adv-x="1623" 
d="M165 0l214 1351h103l-202 -1277h790l-12 -74h-893zM622 1016l173 335h131l-223 -335h-81z" />
    <glyph glyph-name="lcaron" unicode="&#x13e;" horiz-adv-x="838" 
d="M139 0l223 1407h102l-223 -1407h-102zM460 1058l174 333h129l-222 -333h-81z" />
    <glyph glyph-name="Lslash" unicode="&#x141;" horiz-adv-x="1272" 
d="M298 0l94 592l-271 -145l-43 65l328 172l106 667h103l-97 -611l255 135l40 -60l-309 -165l-91 -576h790l-12 -74h-893z" />
    <glyph glyph-name="lslash" unicode="&#x142;" horiz-adv-x="609" 
d="M254 0l99 625l-259 -138l-39 62l312 167l110 691h102l-101 -634l258 132l39 -61l-311 -164l-108 -680h-102z" />
    <glyph glyph-name="Nacute" unicode="&#x143;" horiz-adv-x="1453" 
d="M853 1516l299 318h155l-355 -318h-99zM165 0l214 1351h122l701 -1221l193 1221h106l-214 -1351h-127l-699 1218l-193 -1218h-103z" />
    <glyph glyph-name="nacute" unicode="&#x144;" horiz-adv-x="1142" 
d="M139 0l152 961h99l-31 -198h2q34 83 160 156.5t275 73.5q136 0 230 -69q52 -38 72.5 -116t3.5 -185l-99 -623h-102l96 605q49 316 -232 316q-149 0 -279.5 -100t-152.5 -236l-93 -585h-101zM636 1157l301 318h154l-355 -318h-100z" />
    <glyph glyph-name="uni0145" unicode="&#x145;" horiz-adv-x="1453" 
d="M513 -453l169 335h132l-223 -335h-78zM165 0l214 1351h122l701 -1221l193 1221h106l-214 -1351h-127l-699 1218l-193 -1218h-103z" />
    <glyph glyph-name="uni0146" unicode="&#x146;" horiz-adv-x="1142" 
d="M139 0l152 961h99l-31 -198h2q34 83 160 156.5t275 73.5q136 0 230 -69q52 -38 72.5 -116t3.5 -185l-99 -623h-102l96 605q49 316 -232 316q-149 0 -279.5 -100t-152.5 -236l-93 -585h-101zM357 -453l171 335h132l-222 -335h-81z" />
    <glyph glyph-name="Ncaron" unicode="&#x147;" horiz-adv-x="1453" 
d="M638 1807h114l247 -232l319 232h115l-396 -291h-100zM165 0l214 1351h122l701 -1221l193 1221h106l-214 -1351h-127l-699 1218l-193 -1218h-103z" />
    <glyph glyph-name="ncaron" unicode="&#x148;" horiz-adv-x="1142" 
d="M139 0l152 961h99l-31 -198h2q34 83 160 156.5t275 73.5q136 0 230 -69q52 -38 72.5 -116t3.5 -185l-99 -623h-102l96 605q49 316 -232 316q-149 0 -279.5 -100t-152.5 -236l-93 -585h-101zM428 1449h114l248 -232l318 232h113l-393 -292h-101z" />
    <glyph glyph-name="Omacron" unicode="&#x14c;" horiz-adv-x="1478" 
d="M735 -34q-195 0 -327 88.5t-184 249t-18 373.5q51 321 255.5 514.5t497.5 193.5q295 0 436.5 -193t90.5 -517q-51 -323 -254.5 -516t-496.5 -193zM313 677q-30 -190 10 -333t149 -223t274 -80q246 0 417.5 172t217.5 462q46 291 -71 462.5t-363 171.5q-244 0 -416 -171.5
t-218 -460.5zM638 1630l10 64h706l-10 -64h-706z" />
    <glyph glyph-name="omacron" unicode="&#x14d;" 
d="M577 -34q-157 0 -261.5 70.5t-143 186t-15.5 259.5q36 226 194 368.5t388 142.5q228 0 342.5 -143t78.5 -368q-32 -201 -178 -353q-72 -77 -176.5 -120t-228.5 -43zM258 482q-31 -198 60 -321t270 -123q176 0 307 124.5t162 319.5q31 196 -61.5 317.5t-267.5 121.5
q-174 0 -306 -121t-164 -318zM440 1247l10 64h706l-10 -64h-706z" />
    <glyph glyph-name="Ohungarumlaut" unicode="&#x150;" horiz-adv-x="1478" 
d="M735 -34q-195 0 -327 88.5t-184 249t-18 373.5q51 321 255.5 514.5t497.5 193.5q295 0 436.5 -193t90.5 -517q-51 -323 -254.5 -516t-496.5 -193zM313 677q-30 -190 10 -333t149 -223t274 -80q246 0 417.5 172t217.5 462q46 291 -71 462.5t-363 171.5q-244 0 -416 -171.5
t-218 -460.5zM703 1516l280 322h147l-328 -322h-99zM1000 1516l283 322h148l-331 -322h-100z" />
    <glyph glyph-name="ohungarumlaut" unicode="&#x151;" 
d="M577 -34q-157 0 -261.5 70.5t-143 186t-15.5 259.5q36 226 194 368.5t388 142.5q228 0 342.5 -143t78.5 -368q-32 -201 -178 -353q-72 -77 -176.5 -120t-228.5 -43zM258 482q-31 -198 60 -321t270 -123q176 0 307 124.5t162 319.5q31 196 -61.5 317.5t-267.5 121.5
q-174 0 -306 -121t-164 -318zM522 1155l280 323h148l-327 -323h-101zM822 1155l283 323h146l-330 -323h-99z" />
    <glyph glyph-name="OE" unicode="&#x152;" horiz-adv-x="2018" 
d="M771 -34q-304 0 -460 193t-105 518q34 215 145 376t277.5 246.5t366.5 85.5q124 0 226 -34h892l-12 -74h-795l-85 -539h713l-12 -73h-713l-93 -591h808l-12 -74h-898q-105 -34 -243 -34zM313 677q-45 -289 86 -462.5t383 -173.5q130 0 230 42l187 1182q-85 44 -216 44
q-258 0 -441.5 -173.5t-228.5 -458.5z" />
    <glyph glyph-name="oe" unicode="&#x153;" horiz-adv-x="2024" 
d="M548 -34q-157 0 -261.5 70.5t-143 186t-15.5 259.5q36 226 194 368.5t388 142.5q158 0 263.5 -71t144.5 -195q79 124 208 195t284 71q113 0 201 -37.5t140.5 -102.5t73 -153t4.5 -188q0 -2 -5 -28q-6 -23 -7 -29h-890q-28 -176 64.5 -296.5t275.5 -120.5q118 0 226 50
t173 131l83 -26q-79 -105 -206.5 -166t-286.5 -61q-161 0 -269 73t-146 202q-40 -64 -88 -112q-72 -77 -176.5 -120t-228.5 -43zM229 482q-31 -198 60 -321t270 -123q176 0 307 124.5t162 319.5q31 196 -61.5 317.5t-267.5 121.5q-174 0 -306 -121t-164 -318zM1140 521h787
q26 169 -64.5 284.5t-263.5 115.5q-174 0 -300.5 -117t-158.5 -283z" />
    <glyph glyph-name="Racute" unicode="&#x154;" horiz-adv-x="1329" 
d="M165 0l214 1353h605q224 0 335.5 -102.5t86.5 -263.5q-20 -127 -104.5 -212t-200.5 -123q103 -41 137 -123.5t23 -205.5l-1 -31q-4 -24 -4 -46q-8 -58 -7 -121.5t20 -98.5l20 -26h-117q-20 50 -22.5 117.5t7.5 201.5q6 68 -5.5 119t-44.5 92t-98.5 62t-162.5 21h-482
l-97 -613h-102zM377 692h501q181 0 292 77.5t133 215.5q21 132 -69 212t-285 80h-480zM718 1516l300 318h152l-355 -318h-97z" />
    <glyph glyph-name="racute" unicode="&#x155;" horiz-adv-x="766" 
d="M139 0l152 961h96l-26 -167q48 82 145 140.5t227 58.5q103 0 168 -28l-12 -77q-77 30 -168 30q-155 0 -260.5 -97t-130.5 -254l-90 -567h-101zM500 1157l300 318h155l-357 -318h-98z" />
    <glyph glyph-name="uni0156" unicode="&#x156;" horiz-adv-x="1329" 
d="M165 0l214 1353h605q224 0 335.5 -102.5t86.5 -263.5q-20 -127 -104.5 -212t-200.5 -123q103 -41 137 -123.5t23 -205.5l-1 -31q-4 -24 -4 -46q-8 -58 -7 -121.5t20 -98.5l20 -26h-117q-20 50 -22.5 117.5t7.5 201.5q6 68 -5.5 119t-44.5 92t-98.5 62t-162.5 21h-482
l-97 -613h-102zM377 692h501q181 0 292 77.5t133 215.5q21 132 -69 212t-285 80h-480zM470 -453l171 335h131l-222 -335h-80z" />
    <glyph glyph-name="uni0157" unicode="&#x157;" horiz-adv-x="788" 
d="M162 0l152 961h96l-26 -167q48 82 145 140.5t227 58.5q101 0 167 -28l-12 -77q-77 30 -167 30q-154 0 -260 -97t-131 -254l-90 -567h-101zM-24 -453l172 335h131l-222 -335h-81z" />
    <glyph glyph-name="Rcaron" unicode="&#x158;" horiz-adv-x="1329" 
d="M165 0l214 1353h605q224 0 335.5 -102.5t86.5 -263.5q-20 -127 -104.5 -212t-200.5 -123q103 -41 137 -123.5t23 -205.5l-1 -31q-4 -24 -4 -46q-8 -58 -7 -121.5t20 -98.5l20 -26h-117q-20 50 -22.5 117.5t7.5 201.5q6 68 -5.5 119t-44.5 92t-98.5 62t-162.5 21h-482
l-97 -613h-102zM377 692h501q181 0 292 77.5t133 215.5q21 132 -69 212t-285 80h-480zM511 1807h115l245 -232l320 232h115l-395 -291h-100z" />
    <glyph glyph-name="rcaron" unicode="&#x159;" horiz-adv-x="859" 
d="M166 0l152 961h96l-26 -167q48 82 145 140.5t227 58.5q101 0 167 -28l-12 -77q-77 30 -167 30q-154 0 -260 -97t-131 -254l-90 -567h-101zM321 1449h114l247 -232l320 232h113l-393 -292h-101z" />
    <glyph glyph-name="Sacute" unicode="&#x15a;" horiz-adv-x="1308" 
d="M780 1513l307 324h160l-362 -324h-105zM128 218l107 39q51 -99 168.5 -158t270.5 -59q134 0 239 31t175.5 98.5t86.5 166.5l1 2q7 45 -8 84t-47.5 69.5t-89 59t-121 51.5t-154.5 48l-44 13q-16 5 -41.5 13t-34.5 11q-69 23 -143 58t-113 72q-40 39 -62.5 98.5
t-11.5 126.5q25 160 180.5 253t394.5 93q170 0 295 -68.5t174 -171.5l-97 -32q-51 86 -153 135.5t-238 49.5q-197 0 -322 -69.5t-144 -189.5q-9 -56 14.5 -101.5t82 -83t134 -67t187.5 -62.5q100 -28 149.5 -45t116.5 -48q71 -32 111 -72q41 -39 63.5 -98t11.5 -127
q-29 -180 -189.5 -282t-419.5 -102q-187 0 -322 71t-207 193z" />
    <glyph glyph-name="sacute" unicode="&#x15b;" horiz-adv-x="1039" 
d="M543 1151l311 330h172l-371 -330h-112zM88 161l105 34q39 -71 130 -113.5t213 -42.5q159 0 260.5 50.5t117.5 150.5v2q12 73 -67.5 119.5t-259.5 92.5l-29 9q-9 4 -17 5l-48 13q-64 21 -112 42q-61 26 -93 52q-34 30 -52.5 74.5t-10.5 94.5q19 118 143.5 187.5
t314.5 69.5q140 0 243 -53.5t140 -131.5l-96 -30q-38 62 -116.5 97.5t-187.5 35.5q-152 0 -244.5 -47t-105.5 -128q-11 -72 67.5 -119.5t255.5 -94.5q8 -2 28.5 -7.5t27 -7t23 -6t23 -6.5t20.5 -6t22 -7l20 -7.5t23 -9.5t23 -10q63 -28 92 -52q34 -30 52.5 -74.5t10.5 -94.5
q-21 -134 -149 -209t-335 -75q-153 0 -263.5 55t-168.5 148z" />
    <glyph glyph-name="Scedilla" unicode="&#x15e;" horiz-adv-x="1308" 
d="M578 -426q-112 0 -207 30l11 69q111 -33 206 -33q76 0 139.5 29t70.5 72q8 50 -53 74t-194 22l54 118q-167 10 -288 80t-189 183l107 39q51 -98 168.5 -157t273.5 -60q204 1 339.5 75.5t158.5 220.5l1 2q7 45 -8 84t-47.5 69.5t-89 59t-121 51.5t-154.5 48l-44 13
q-16 5 -41.5 13t-34.5 11q-69 23 -143 58t-113 72q-40 39 -62.5 98.5t-11.5 126.5q25 160 180.5 253t394.5 93q170 0 295 -68.5t174 -171.5l-97 -32q-51 86 -153 135.5t-238 49.5q-197 0 -322 -69.5t-144 -189.5q-9 -56 14.5 -101.5t82 -83t134 -67t187.5 -62.5
q100 -28 149.5 -45t116.5 -48q71 -32 111 -72q41 -39 63.5 -98t11.5 -127q-28 -171 -174.5 -272t-384.5 -111l-32 -66q115 -3 172 -42.5t46 -107.5q-11 -72 -98.5 -118.5t-216.5 -46.5z" />
    <glyph glyph-name="scedilla" unicode="&#x15f;" horiz-adv-x="1039" 
d="M432 -429q-111 0 -210 31l12 75q114 -34 209 -34q75 0 137 28.5t69 69.5q8 50 -53.5 73t-194.5 20l57 127q-129 11 -223.5 64t-146.5 136l105 34q39 -71 130 -113.5t213 -42.5q159 0 260.5 50.5t117.5 150.5v2q12 73 -67.5 119.5t-259.5 92.5l-46 14l-48 13
q-64 21 -112 42q-61 26 -93 52q-34 30 -52.5 74.5t-10.5 94.5q19 118 143.5 187.5t314.5 69.5q140 0 243 -53.5t140 -131.5l-96 -30q-38 62 -116.5 97.5t-187.5 35.5q-152 0 -244.5 -47t-105.5 -128q-11 -72 67.5 -119.5t255.5 -94.5q8 -2 28.5 -7.5t27 -7t23 -6t23 -6.5
t20.5 -6t22 -7l20 -7.5t23 -9.5t23 -10q63 -28 92 -52q34 -30 52.5 -74.5t10.5 -94.5q-19 -126 -135 -200.5t-304 -82.5l-32 -67q113 -4 169 -44t45 -109q-12 -74 -98.5 -121t-216.5 -47z" />
    <glyph glyph-name="Scaron" unicode="&#x160;" horiz-adv-x="1308" 
d="M538 1810h122l246 -231l318 231h123l-402 -297h-102zM128 218l107 39q51 -99 168.5 -158t270.5 -59q134 0 239 31t175.5 98.5t86.5 166.5l1 2q7 45 -8 84t-47.5 69.5t-89 59t-121 51.5t-154.5 48l-44 13q-16 5 -41.5 13t-34.5 11q-69 23 -143 58t-113 72
q-40 39 -62.5 98.5t-11.5 126.5q25 160 180.5 253t394.5 93q170 0 295 -68.5t174 -171.5l-97 -32q-51 86 -153 135.5t-238 49.5q-197 0 -322 -69.5t-144 -189.5q-9 -56 14.5 -101.5t82 -83t134 -67t187.5 -62.5q100 -28 149.5 -45t116.5 -48q71 -32 111 -72q41 -39 63.5 -98
t11.5 -127q-29 -180 -189.5 -282t-419.5 -102q-187 0 -322 71t-207 193z" />
    <glyph glyph-name="scaron" unicode="&#x161;" horiz-adv-x="1039" 
d="M338 1455h131l246 -230l315 230h132l-408 -304h-105zM88 161l105 34q39 -71 130 -113.5t213 -42.5q159 0 260.5 50.5t117.5 150.5v2q12 73 -67.5 119.5t-259.5 92.5l-29 9q-9 4 -17 5l-48 13q-64 21 -112 42q-61 26 -93 52q-34 30 -52.5 74.5t-10.5 94.5
q19 118 143.5 187.5t314.5 69.5q140 0 243 -53.5t140 -131.5l-96 -30q-38 62 -116.5 97.5t-187.5 35.5q-152 0 -244.5 -47t-105.5 -128q-11 -72 67.5 -119.5t255.5 -94.5q8 -2 28.5 -7.5t27 -7t23 -6t23 -6.5t20.5 -6t22 -7l20 -7.5t23 -9.5t23 -10q63 -28 92 -52
q34 -30 52.5 -74.5t10.5 -94.5q-21 -134 -149 -209t-335 -75q-153 0 -263.5 55t-168.5 148z" />
    <glyph glyph-name="uni0162" unicode="&#x162;" horiz-adv-x="1269" 
d="M277 1277l12 74h1119l-12 -74h-507l-202 -1277h-13l-50 -108q114 -1 171 -40t46 -108q-11 -70 -96 -114.5t-213 -44.5q-110 0 -205 29l10 61q109 -30 205 -30q77 0 140.5 29t70.5 73q8 53 -52.5 78t-190.5 23l72 160h2l201 1269h-508z" />
    <glyph glyph-name="uni0163" unicode="&#x163;" horiz-adv-x="734" 
d="M553 0q-22 0 -33 1l-39 -89q101 -10 151.5 -53t39.5 -109q-11 -69 -82.5 -112.5t-189.5 -43.5q-89 0 -177 20l9 60q92 -20 179 -20q72 0 120 27t55 73q8 52 -46.5 81.5t-170.5 36.5l63 142q-160 46 -130 238l101 636h-217l11 73h217l52 325h102l-52 -325h290l-11 -73
h-290l-99 -625q-16 -100 24 -145t147 -45h90l-12 -73h-102z" />
    <glyph glyph-name="Tcaron" unicode="&#x164;" horiz-adv-x="1269" 
d="M583 0l202 1277h-508l12 74h1119l-12 -74h-507l-202 -1277h-104zM523 1807h114l245 -232l321 232h114l-394 -291h-100z" />
    <glyph glyph-name="tcaron" unicode="&#x165;" horiz-adv-x="1233" 
d="M553 0q-143 -2 -207.5 60.5t-43.5 191.5l101 636h-217l11 73h217l52 325h104l-52 -325h307l-11 -73h-307l-99 -625q-17 -102 23.5 -147t145.5 -43h108l-12 -73h-120zM607 1062l175 333h129l-222 -333h-82z" />
    <glyph glyph-name="Umacron" unicode="&#x16a;" horiz-adv-x="1439" 
d="M711 -34q-263 0 -386.5 131t-84.5 374l139 880h104l-138 -872q-34 -213 66.5 -325.5t310.5 -112.5q213 0 351.5 114t171.5 324l138 872h105l-139 -880q-39 -242 -203 -373.5t-435 -131.5zM635 1630l10 64h708l-10 -64h-708z" />
    <glyph glyph-name="umacron" unicode="&#x16b;" horiz-adv-x="1135" 
d="M504 -34q-173 0 -256 98.5t-57 266.5l100 630h100l-95 -604q-51 -319 242 -319q170 0 285 106.5t140 263.5l87 553h98l-152 -961h-97l30 188q-38 -88 -151.5 -155t-273.5 -67zM408 1247l10 64h706l-10 -64h-706z" />
    <glyph glyph-name="Uring" unicode="&#x16e;" horiz-adv-x="1439" 
d="M711 -34q-263 0 -386.5 131t-84.5 374l139 880h104l-138 -872q-34 -213 66.5 -325.5t310.5 -112.5q213 0 351.5 114t171.5 324l138 872h105l-139 -880q-39 -242 -203 -373.5t-435 -131.5zM712 1663q15 93 107 160t211 67q118 0 186.5 -66.5t53.5 -160.5
q-14 -93 -103.5 -158.5t-207.5 -65.5q-119 0 -190 65.5t-57 158.5zM795 1663q-11 -70 37.5 -116t136.5 -46q86 0 146.5 45t71.5 117q11 71 -34 117t-133 46q-89 0 -151.5 -47t-73.5 -116z" />
    <glyph glyph-name="uring" unicode="&#x16f;" horiz-adv-x="1135" 
d="M504 -34q-173 0 -256 98.5t-57 266.5l100 630h100l-95 -604q-51 -319 242 -319q170 0 285 106.5t140 263.5l87 553h98l-152 -961h-97l30 188q-38 -88 -151.5 -155t-273.5 -67zM512 1381q14 92 106 159t211 67t187.5 -65.5t53.5 -160.5q-15 -94 -104.5 -160t-208.5 -66
q-118 0 -189 66t-56 160zM594 1381q-11 -70 37.5 -117t135.5 -47t148 46t72 118q11 70 -35 116.5t-133 46.5q-88 0 -151 -47.5t-74 -115.5z" />
    <glyph glyph-name="Uhungarumlaut" unicode="&#x170;" horiz-adv-x="1439" 
d="M711 -34q-263 0 -386.5 131t-84.5 374l139 880h104l-138 -872q-34 -213 66.5 -325.5t310.5 -112.5q213 0 351.5 114t171.5 324l138 872h105l-139 -880q-39 -242 -203 -373.5t-435 -131.5zM681 1516l279 322h148l-328 -322h-99zM979 1516l282 322h148l-331 -322h-99z" />
    <glyph glyph-name="uhungarumlaut" unicode="&#x171;" horiz-adv-x="1128" 
d="M504 -34q-173 0 -256 98.5t-57 266.5l100 630h100l-95 -604q-51 -319 242 -319q170 0 285 106.5t140 263.5l87 553h98l-152 -961h-97l30 188q-38 -88 -151.5 -155t-273.5 -67zM473 1155l281 323h147l-329 -323h-99zM772 1155l283 323h145l-327 -323h-101z" />
    <glyph glyph-name="Uogonek" unicode="&#x172;" horiz-adv-x="1439" 
d="M647 -361q-97 0 -140.5 31.5t-33.5 93.5q8 51 66.5 105t142.5 97q-249 8 -364 138.5t-78 366.5l139 880h104l-138 -872q-34 -213 66.5 -325.5t310.5 -112.5q213 0 351.5 114t171.5 324l138 872h105l-139 -880q-35 -222 -176.5 -351.5t-375.5 -149.5q-215 -116 -227 -194
q-7 -38 19 -57t85 -19q65 0 143 27l-10 -64q-73 -24 -160 -24z" />
    <glyph glyph-name="uogonek" unicode="&#x173;" horiz-adv-x="1097" 
d="M504 -34q-173 0 -256 98.5t-57 266.5l100 630h100l-95 -604q-51 -319 242 -319q170 0 285 106.5t140 263.5l87 553h98l-152 -959h2h-1l-1 -1v-1h-2q-270 -136 -283 -223q-6 -38 20.5 -56.5t85.5 -18.5q65 0 143 27l-10 -63q-74 -25 -160 -25q-97 0 -140.5 31.5
t-33.5 93.5q10 64 92.5 128t189.5 108h1l30 186q-38 -88 -151.5 -155t-273.5 -67z" />
    <glyph glyph-name="Wcircumflex" unicode="&#x174;" horiz-adv-x="1839" 
d="M757 1516l401 293h97l309 -293h-117l-252 235l-319 -235h-119zM234 1351h117l140 -1251h9l571 1251h122l179 -1251h7l539 1251h115l-608 -1351h-127l-178 1245h-6l-571 -1245h-125z" />
    <glyph glyph-name="wcircumflex" unicode="&#x175;" horiz-adv-x="1586" 
d="M570 1157l399 294h98l307 -294h-117l-249 236l-321 -236h-117zM201 961h115l136 -884h7l422 884h128l145 -882h5l415 882h114l-481 -961h-130l-145 870h-7l-417 -870h-132z" />
    <glyph glyph-name="Ycircumflex" unicode="&#x176;" horiz-adv-x="1309" 
d="M488 1516l398 293h97l307 -293h-115l-248 235l-322 -235h-117zM240 1351h127l387 -713h5l611 713h127l-700 -794l-88 -557h-102l88 557z" />
    <glyph glyph-name="ycircumflex" unicode="&#x177;" horiz-adv-x="1091" 
d="M331 1157l399 294h99l306 -294h-115l-250 236l-321 -236h-118zM101 -440l12 71h38q155 0 274 206l69 126l-293 998h119l237 -893h8l510 893h118l-684 -1146q-82 -138 -165 -196.5t-188 -58.5h-55z" />
    <glyph glyph-name="Ydieresis" unicode="&#x178;" horiz-adv-x="1309" 
d="M621 1740h184l-24 -148h-184zM240 1351h127l387 -713h5l611 713h127l-700 -794l-88 -557h-102l88 557zM1036 1592l24 148h180l-24 -148h-180z" />
    <glyph glyph-name="Zacute" unicode="&#x179;" horiz-adv-x="1308" 
d="M103 0l11 68l1146 1209h-883l12 74h1012l-11 -67l-1152 -1210h982l-12 -74h-1105zM765 1516l298 318h155l-355 -318h-98z" />
    <glyph glyph-name="zacute" unicode="&#x17a;" horiz-adv-x="1054" 
d="M105 0l10 60l849 828h-659l11 73h785l-9 -57l-848 -833h738l-11 -71h-866zM587 1157l300 318h155l-358 -318h-97z" />
    <glyph glyph-name="Zdotaccent" unicode="&#x17b;" horiz-adv-x="1308" 
d="M103 0l11 68l1146 1209h-883l12 74h1012l-11 -67l-1152 -1210h982l-12 -74h-1105zM863 1590l24 150h180l-24 -150h-180z" />
    <glyph glyph-name="zdotaccent" unicode="&#x17c;" horiz-adv-x="1054" 
d="M105 0l10 60l849 828h-659l11 73h785l-9 -57l-848 -833h738l-11 -71h-866zM665 1229l23 150h181l-23 -150h-181z" />
    <glyph glyph-name="Zcaron" unicode="&#x17d;" horiz-adv-x="1308" 
d="M103 0l11 68l1146 1209h-883l12 74h1012l-11 -67l-1152 -1210h982l-12 -74h-1105zM564 1807h113l246 -232l320 232h113l-391 -291h-102z" />
    <glyph glyph-name="zcaron" unicode="&#x17e;" horiz-adv-x="1054" 
d="M105 0l10 60l849 828h-659l11 73h785l-9 -57l-848 -833h738l-11 -71h-866zM393 1449h112l248 -232l318 232h114l-392 -292h-101z" />
    <glyph glyph-name="uni018F" unicode="&#x18f;" horiz-adv-x="1445" 
d="M697 -34q-159 0 -274.5 55.5t-170.5 151.5q-104 183 -64 430l16 101h1152q37 268 -64 431q-52 83 -153 128.5t-240 45.5q-299 0 -493 -227l-85 33q94 125 249.5 197.5t341.5 72.5q225 0 362 -95q255 -178 186 -617q-36 -224 -145.5 -385.5t-267.5 -241.5t-350 -80z
M295 579q-30 -197 44 -354q40 -87 136 -135.5t237 -48.5q190 0 374 125q96 65 166 187t95 277h-1046q-3 -18 -3 -26q-1 -6 -2 -14.5t-1 -10.5z" />
    <glyph glyph-name="florin" unicode="&#x192;" horiz-adv-x="726" 
d="M34 -465q-16 0 -62 4q-35 4 -43 4l-17 17l11 65q75 -7 116 -7q114 0 180 67.5t89 211.5l154 975h-219l13 81h219l27 173q22 136 115 204.5t236 68.5h113l-13 -80h-108q-110 0 -169 -49.5t-76 -154.5l-26 -162h289l-13 -81h-289l-155 -981q-28 -176 -122 -266t-250 -90z
" />
    <glyph glyph-name="uni0218" unicode="&#x218;" horiz-adv-x="1308" 
d="M437 -453l170 335h132l-222 -335h-80zM128 218l107 39q51 -99 168.5 -158t270.5 -59q134 0 239 31t175.5 98.5t86.5 166.5l1 2q7 45 -8 84t-47.5 69.5t-89 59t-121 51.5t-154.5 48l-44 13q-16 5 -41.5 13t-34.5 11q-69 23 -143 58t-113 72q-40 39 -62.5 98.5t-11.5 126.5
q25 160 180.5 253t394.5 93q170 0 295 -68.5t174 -171.5l-97 -32q-51 86 -153 135.5t-238 49.5q-197 0 -322 -69.5t-144 -189.5q-9 -56 14.5 -101.5t82 -83t134 -67t187.5 -62.5q100 -28 149.5 -45t116.5 -48q71 -32 111 -72q41 -39 63.5 -98t11.5 -127
q-29 -180 -189.5 -282t-419.5 -102q-187 0 -322 71t-207 193z" />
    <glyph glyph-name="uni0219" unicode="&#x219;" horiz-adv-x="1039" 
d="M281 -453l170 335h134l-224 -335h-80zM88 161l105 34q39 -71 130 -113.5t213 -42.5q159 0 260.5 50.5t117.5 150.5v2q12 73 -67.5 119.5t-259.5 92.5l-29 9q-9 4 -17 5l-48 13q-64 21 -112 42q-61 26 -93 52q-34 30 -52.5 74.5t-10.5 94.5q19 118 143.5 187.5t314.5 69.5
q140 0 243 -53.5t140 -131.5l-96 -30q-38 62 -116.5 97.5t-187.5 35.5q-152 0 -244.5 -47t-105.5 -128q-11 -72 67.5 -119.5t255.5 -94.5q8 -2 28.5 -7.5t27 -7t23 -6t23 -6.5t20.5 -6t22 -7l20 -7.5t23 -9.5t23 -10q63 -28 92 -52q34 -30 52.5 -74.5t10.5 -94.5
q-21 -134 -149 -209t-335 -75q-153 0 -263.5 55t-168.5 148z" />
    <glyph glyph-name="uni021A" unicode="&#x21a;" horiz-adv-x="1269" 
d="M583 0l202 1277h-508l12 74h1119l-12 -74h-507l-202 -1277h-104zM388 -453l171 335h132l-223 -335h-80z" />
    <glyph glyph-name="uni021B" unicode="&#x21b;" horiz-adv-x="727" 
d="M553 0q-143 -2 -207.5 60.5t-43.5 191.5l101 636h-217l11 73h217l52 325h104l-52 -325h307l-11 -73h-307l-99 -625q-17 -102 23.5 -147t145.5 -43h108l-12 -73h-120zM263 -453l172 335h130l-222 -335h-80z" />
    <glyph glyph-name="uni0237" unicode="&#x237;" horiz-adv-x="538" 
d="M-121 -440l12 73h59q215 0 254 244l171 1084h101l-173 -1091q-23 -150 -114 -230t-235 -80h-75z" />
    <glyph glyph-name="uni0259" unicode="&#x259;" horiz-adv-x="1146" 
d="M562 -34q-146 0 -249.5 64.5t-146 173t-20.5 242.5l6 30l6 30h888q19 116 -14 209.5t-118 149.5t-210 56q-122 0 -227 -50t-171 -131l-79 27q175 226 490 226q236 0 348 -142.5t75 -375.5q-36 -225 -195.5 -367t-382.5 -142zM247 439q-27 -169 63 -285t263 -116
q175 0 302.5 115.5t160.5 285.5h-789z" />
    <glyph glyph-name="Wgrave" unicode="&#x1e80;" horiz-adv-x="1839" 
d="M953 1834h152l201 -318h-98zM234 1351h117l140 -1251h9l571 1251h122l179 -1251h7l539 1251h115l-608 -1351h-127l-178 1245h-6l-571 -1245h-125z" />
    <glyph glyph-name="wgrave" unicode="&#x1e81;" horiz-adv-x="1586" 
d="M770 1475h152l201 -320h-100zM201 961h115l136 -884h7l422 884h128l145 -882h5l415 882h114l-481 -961h-130l-145 870h-7l-417 -870h-132z" />
    <glyph glyph-name="Wacute" unicode="&#x1e82;" horiz-adv-x="1839" 
d="M995 1516l302 318h153l-356 -318h-99zM234 1351h117l140 -1251h9l571 1251h122l179 -1251h7l539 1251h115l-608 -1351h-127l-178 1245h-6l-571 -1245h-125z" />
    <glyph glyph-name="wacute" unicode="&#x1e83;" horiz-adv-x="1586" 
d="M815 1155l300 320h155l-358 -320h-97zM201 961h115l136 -884h7l422 884h128l145 -882h5l415 882h114l-481 -961h-130l-145 870h-7l-417 -870h-132z" />
    <glyph glyph-name="Wdieresis" unicode="&#x1e84;" horiz-adv-x="1839" 
d="M887 1740h180l-24 -148h-180zM234 1351h117l140 -1251h9l571 1251h122l179 -1251h7l539 1251h115l-608 -1351h-127l-178 1245h-6l-571 -1245h-125zM1300 1592l24 148h180l-24 -148h-180z" />
    <glyph glyph-name="wdieresis" unicode="&#x1e85;" horiz-adv-x="1586" 
d="M700 1376h183l-23 -147h-183zM201 961h115l136 -884h7l422 884h128l145 -882h5l415 882h114l-481 -961h-130l-145 870h-7l-417 -870h-132zM1116 1229l23 147h182l-23 -147h-182z" />
    <glyph glyph-name="Ygrave" unicode="&#x1ef2;" horiz-adv-x="1309" 
d="M664 1832h155l199 -318h-98zM240 1351h127l387 -713h5l611 713h127l-700 -794l-88 -557h-102l88 557z" />
    <glyph glyph-name="ygrave" unicode="&#x1ef3;" horiz-adv-x="1091" 
d="M487 1475h153l198 -320h-96zM101 -440l12 71h38q155 0 274 206l69 126l-293 998h119l237 -893h8l510 893h118l-684 -1146q-82 -138 -165 -196.5t-188 -58.5h-55z" />
    <glyph glyph-name="uni2010" unicode="&#x2010;" horiz-adv-x="539" 
d="M71 593l13 80h562l-13 -80h-562z" />
    <glyph glyph-name="endash" unicode="&#x2013;" horiz-adv-x="966" 
d="M94 593l13 80h966l-13 -80h-966z" />
    <glyph glyph-name="emdash" unicode="&#x2014;" horiz-adv-x="2159" 
d="M94 593l13 80h2159l-13 -80h-2159z" />
    <glyph glyph-name="uni2015" unicode="&#x2015;" horiz-adv-x="2042" 
d="M94 593l13 80h2042l-13 -80h-2042z" />
    <glyph glyph-name="quoteleft" unicode="&#x2018;" horiz-adv-x="537" 
d="M316 1140q24 157 83.5 261.5t185.5 191.5l61 -51q-98 -73 -143 -150.5t-65 -197.5h116l-29 -184h-230z" />
    <glyph glyph-name="quoteright" unicode="&#x2019;" horiz-adv-x="538" 
d="M289 975q98 74 144 152t67 198h-118l28 180h231l-20 -129q-25 -156 -84.5 -259.5t-187.5 -192.5z" />
    <glyph glyph-name="quotesinglbase" unicode="&#x201a;" horiz-adv-x="539" 
d="M78 -363q98 75 144 153.5t67 197.5h-118l29 181h231l-20 -126q-25 -157 -85 -261t-186 -192z" />
    <glyph glyph-name="quotereversed" unicode="&#x201b;" horiz-adv-x="537" 
d="M479 924q-98 89 -124.5 192t-1.5 260l20 129h230l-28 -180h-116q-18 -120 2.5 -198t94.5 -152z" />
    <glyph glyph-name="quotedblleft" unicode="&#x201c;" horiz-adv-x="977" 
d="M315 1134q25 163 88 276.5t188 197.5l58 -50q-169 -127 -210 -366h117l-29 -182h-232zM732 1010l20 124q24 158 85 265t188 194l62 -49q-97 -75 -142.5 -153.5t-66.5 -198.5h114l-29 -182h-231z" />
    <glyph glyph-name="quotedblright" unicode="&#x201d;" horiz-adv-x="974" 
d="M725 961q93 72 140 155t68 209h-117l28 180h233l-19 -123q-26 -162 -89.5 -275.5t-186.5 -198.5zM289 973q95 72 139.5 150.5t65.5 201.5h-116l28 180h234l-19 -123q-25 -160 -86 -268t-188 -194z" />
    <glyph glyph-name="quotedblbase" unicode="&#x201e;" horiz-adv-x="974" 
d="M508 -376q96 73 143 157t68 209h-115l29 179h233l-19 -121q-26 -161 -89.5 -275t-185.5 -199zM78 -363q94 73 138.5 152t65.5 201h-116l29 179h234l-19 -121q-25 -157 -86 -264t-187 -194z" />
    <glyph glyph-name="uni201F" unicode="&#x201f;" horiz-adv-x="977" 
d="M480 908q-98 84 -126.5 203.5t0.5 270.5l19 123h232l-28 -180h-117q-18 -126 2 -209t92 -155zM791 1382l19 123h231l-28 -180h-114q-18 -121 3 -200t94 -152l-77 -53q-100 86 -128 199.5t0 262.5z" />
    <glyph glyph-name="bullet" unicode="&#x2022;" horiz-adv-x="964" 
d="M336 429l64 407h492l-64 -407h-492z" />
    <glyph glyph-name="ellipsis" unicode="&#x2026;" horiz-adv-x="1994" 
d="M231 539l30 187h219l-30 -187h-219zM983 539l30 187h218l-30 -187h-218zM1737 539l30 187h214l-30 -187h-214z" />
    <glyph glyph-name="fraction" unicode="&#x2044;" horiz-adv-x="439" 
d="M-233 -13h-96l1217 1380h96z" />
    <glyph glyph-name="uni20B9" unicode="&#x20b9;" horiz-adv-x="1195" 
d="M790 -17l-595 541l13 79h75q211 0 351 80t178 231h-645l40 81h618q6 102 -67 183t-198 81h-340l44 82h1125l-42 -82h-544q65 -46 97.5 -117t24.5 -147h410l-42 -81h-381q-44 -174 -197 -274.5t-388 -109.5l596 -547h-133z" />
    <glyph glyph-name="trademark" unicode="&#x2122;" horiz-adv-x="1167" 
d="M255 1292l10 66h435l-10 -66h-182l-74 -462h-70l74 462h-183zM687 830l84 528h66l138 -456l280 456h65l-84 -528h-65l61 382l-236 -382h-66l-117 377l-60 -377h-66z" />
    <glyph glyph-name="arrowleft" unicode="&#x2190;" horiz-adv-x="2224" 
d="M815 351l-539 316l639 315l38 -77l-279 -195h1438l-13 -87h-1438l217 -196z" />
    <glyph glyph-name="arrowup" unicode="&#x2191;" horiz-adv-x="1334" 
d="M596 -146l210 1329l-267 -210l-87 39l457 497l293 -497l-93 -39l-203 210l-210 -1329h-100z" />
    <glyph glyph-name="arrowright" unicode="&#x2192;" horiz-adv-x="2221" 
d="M1519 351l-38 76l278 196h-1436l13 87h1436l-216 195l63 77l538 -315z" />
    <glyph glyph-name="arrowdown" unicode="&#x2193;" horiz-adv-x="1334" 
d="M641 -184l-300 496l100 39l200 -210l211 1330h100l-211 -1330l270 210l80 -39z" />
    <glyph glyph-name="arrowboth" unicode="&#x2194;" horiz-adv-x="2345" 
d="M752 353l-476 314l575 313l40 -69l-252 -201h1293l-190 201l61 69l478 -313l-577 -314l-39 70l254 200h-1293l188 -200z" />
    <glyph glyph-name="arrowupdn" unicode="&#x2195;" horiz-adv-x="1342" 
d="M641 -181l-310 416l81 44l224 -185l180 1136l-282 -184l-67 44l442 416l314 -416l-82 -44l-225 184l-180 -1136l283 185l68 -44z" />
    <glyph glyph-name="uni2215" unicode="&#x2215;" horiz-adv-x="1279" 
d="M65 -258l1277 1782h96l-1278 -1782h-95z" />
    <glyph glyph-name="asteriskmath" unicode="&#x2217;" horiz-adv-x="1384" 
d="M674 165l74 464l-495 -276l-49 57l524 294l-431 294l67 57l409 -277l74 463h88l-74 -465l499 281l42 -60l-522 -293l430 -294l-66 -59l-404 276l-73 -462h-93z" />
    <glyph glyph-name="uniF8FF" unicode="&#xf8ff;" horiz-adv-x="1542" 
d="M758 60q-151 0 -279.5 75.5t-203 204.5t-74.5 280q0 152 75 280.5t203.5 203t280.5 74.5q151 0 279.5 -75t203.5 -203.5t75 -279.5q0 -152 -74.5 -281t-203.5 -204t-282 -75zM200 -164h59q50 0 71 34q10 16 10 39q0 47 -37 64q-18 9 -44 9h-59v-146zM235 -137v93h22
q31 0 43 -20q5 -9 5 -27q0 -32 -22 -42q-8 -4 -26 -4h-22zM268 621q0 -205 144 -350t348 -145q203 0 347.5 144.5t144.5 347.5q0 100 -39 191.5t-104.5 157.5t-156 105t-190.5 40q-134 0 -248 -65.5t-180 -178.5t-66 -247zM352 -109q0 -36 30 -50q16 -7 33 -7q31 0 45 16
q8 7 10 17l-31 3q-5 -9 -14 -12q-3 -1 -10 -1q-18 0 -25 13q-3 5 -3 13h85v8q0 27 -18 42q-16 14 -42 14q-36 0 -52 -27q-8 -13 -8 -29zM387 -98q2 13 12 19q4 3 14 3q17 0 23 -12l3 -10h-52zM442 719q10 -2 12 -4q52 -21 98 -27q41 -3 72 2q43 11 47 12q3 0 8.5 2.5
t7.5 3.5q-5 2 -16.5 8t-17 9t-13 8.5t-13.5 12.5h19q39 0 75 19q65 40 136 61q24 8 58 11q4 0 19.5 1t23.5 0q54 -2 89 -33q10 -11 28 -33v-2l-6 2q-45 17 -83 3.5t-62 -53.5q-7 -13 -25 -55q-9 -21 -27 -63.5t-20 -48.5q-33 -64 -65 -101q-27 -33 -66 -58q-45 -34 -116 -55
h-4h-1l24 22q12 11 25 44q41 116 45 127q24 73 57 131v3q-2 -4 -11 -13q-8 -10 -10 -12q-23 -36 -31 -57q-2 -6 -8 -6q-99 3 -177 67q-40 38 -59 55q-1 1 -5 7t-8 10zM481 -132q5 -34 56 -34q35 0 48 18q7 9 7 18q0 24 -36 30l-22 3q-16 4 -16 12q0 11 19 11q17 0 21 -14
l31 3q-5 32 -53 32q-33 0 -46 -16q-6 -7 -6 -18q0 -25 36 -31l21 -4q16 -3 16 -11q0 -11 -20 -11q-18 0 -23 14zM605 -25q0 -15 19 -15q18 0 18 15t-18 15q-19 0 -19 -15zM607 -164h34v109h-34v-109zM656 -109q0 -35 25 -48q12 -5 25 -5q18 0 29 9q5 5 7 8h1v-19
q0 -21 -25 -21q-16 0 -21 6l-6 6l-31 -3q7 -31 57 -31q37 0 52 19q9 9 9 23v110h-35v-18h-1q-6 12 -18 17q-8 3 -18 3q-30 0 -43 -25q-7 -11 -7 -31zM691 -109q0 21 12 28q8 4 15 4q16 0 22 -15q3 -7 3 -17q0 -30 -25 -30q-18 0 -24 14q-3 6 -3 16zM798 -164h34v64
q0 13 11 19q6 3 13 3q21 0 21 -22v-64h35v70q0 26 -20 36q-10 5 -23 5q-27 0 -37 -21v19h-34v-109zM927 -109q0 -34 28 -50q17 -7 33 -7q38 0 54 27q7 13 7 30q0 33 -28 49q-13 7 -33 7q-38 0 -54 -27q-7 -14 -7 -29zM962 -109q0 21 12 28q7 5 14 5q16 0 24 -16q3 -15 3 -17
q0 -20 -12 -29q-5 -4 -15 -4q-16 0 -23 15q-3 9 -3 18zM1051 -55l43 -109h39l43 109h-36l-26 -78h-1l-26 78h-36zM1177 -133q0 -21 21 -29q8 -4 21 -4q18 0 27 9q4 2 9 9v-16h33v74q0 20 -15 28q-17 9 -37 9q-30 0 -45 -15q-7 -6 -10 -17l32 -3q5 13 22 13q19 0 19 -14v-1
q0 -7 -13 -7l-17 -3q-19 0 -32 -8q-15 -8 -15 -25zM1210 -133q0 9 9 12q5 3 12 3q19 3 23 5v-11q0 -13 -12 -18q-6 -3 -14 -3q-18 0 -18 12zM1267 -16q0 16 11 26.5t27 10.5t26.5 -10.5t10.5 -26.5t-10.5 -27t-26.5 -11t-27 11t-11 27zM1279 -16q0 -11 7.5 -19t18.5 -8
t18.5 8t7.5 19t-7.5 18.5t-18.5 7.5t-18.5 -7.5t-7.5 -18.5zM1292 -33v35h14q12 0 12 -11q0 -5 -5 -10l8 -14h-10l-6 11h-5v-11h-8zM1300 -13h6q5 0 5 3t-5 3h-6v-6z" />
    <glyph glyph-name="_Designova" horiz-adv-x="1692" 
d="M844 -121q-174 0 -322.5 87t-235 235.5t-86.5 323.5q1 131 52 250.5t137.5 205.5t206 137t250.5 51q175 0 323.5 -86t235.5 -234.5t87 -323.5q0 -176 -87 -324.5t-236 -235t-325 -86.5zM278 525q0 -116 45 -221.5t120.5 -181.5t181 -121t221.5 -45q154 0 285 76t207 207
t76 285q0 116 -45 221.5t-120.5 181.5t-180.5 121t-221 45t-221 -45t-181.5 -120.5t-121.5 -181t-45 -221.5zM480 638q7 0 13 -4q58 -22 115 -31q45 -5 81 3q29 4 53 14q5 0 11.5 3t8.5 4q-5 3 -22.5 11.5t-27.5 15.5t-19 17h21q39 0 86 20q85 53 158 73q37 10 66 10
q6 0 24.5 1.5t26.5 0.5q67 -4 102 -39q6 -5 33 -37v-2q-3 2 -7 2q-53 20 -95.5 4.5t-71.5 -59.5q-5 -9 -10 -20.5t-11 -25t-9 -21.5q-6 -14 -25 -59t-30 -68q-36 -74 -74 -119q-20 -27 -74 -66q-52 -38 -136 -63h-7l28 24q18 17 30 51q7 20 25 71t27 78q31 90 65 150v1
q-3 -3 -11 -13q-9 -7 -11 -16q-23 -27 -38 -65q-3 -5 -9 -5q-117 5 -204 78q-10 10 -32.5 31t-33.5 32q-12 14 -16 18z" />
    <glyph glyph-name="_Origin" horiz-adv-x="2185" 
d="M115 929v50h1955v-50h-1955zM115 110v50h1955v-50h-1955zM193 311v177h42v-177h-42zM225 608v177h148v-32h-107v-39h97v-31h-97v-42h107v-33h-148zM263 311v177h34l89 -107v107h40v-177h-33l-88 109v-109h-42zM403 608v177h34l88 -107v107h40v-177h-33l-88 109v-109h-41z
M519 311v177h87q72 0 72 -45q0 -28 -26 -40q3 0 3 -2q28 -12 28 -42q0 -48 -71 -48h-93zM561 342h48q32 0 32 22t-32 22h-48v-44zM561 419h42q33 0 33 20q0 22 -33 22h-42v-42zM594 753v32h156v-32h-57v-145h-41v145h-58zM703 311v177h148v-33h-107v-38h96v-31h-96v-41h105
v-34h-146zM768 785h44l40 -124l42 124h38l40 -126l42 126h39l-57 -177h-45l-39 121l-41 -121h-43zM879 311v177h81q28 0 42 -6q36 -19 36 -57q0 -21 -10 -35q-15 -18 -29 -23l37 -56h-43l-35 50h-37v-50h-42zM921 394h37q38 0 38 31q0 30 -38 30h-37v-61zM1058 311v177h40
v-143h106v-34h-146zM1061 697q0 39 28 65q26 26 69 26t69 -26q28 -25 28 -65q0 -39 -28 -65q-25 -27 -68 -27q-45 0 -70 27q-28 28 -28 65zM1103 697q0 -25 15.5 -40.5t39.5 -15.5t39.5 15.5t15.5 40.5t-15.5 41.5t-39.5 16.5t-39.5 -16.5t-15.5 -41.5zM1233 311v177h41
v-177h-41zM1278 608v177h81q28 0 41 -6q36 -17 36 -57q0 -21 -10 -35q-9 -15 -29 -23l39 -56h-45l-33 50h-39v-50h-41zM1303 311v177h35l87 -107v107h42v-177h-34l-89 109v-109h-41zM1319 691h37q38 0 38 31t-38 31h-37v-62zM1456 608v177h148v-32h-107v-39h96v-31h-96v-75
h-41zM1493 335q0 24 25 24q10 0 17 -7t7 -17q0 -11 -7 -25l-14 -38h-26l12 41q-14 5 -14 22zM1620 608v177h147v-32h-106v-39h95v-31h-95v-42h106v-33h-147zM1643 311v177h80q30 0 52 -11q46 -21 46 -77q0 -28 -12 -47q-23 -42 -86 -42h-80zM1685 345h37q17 0 31 7
q26 14 26 48q0 21 -6 29q-14 26 -51 26h-37v-110zM1797 608v177h33l90 -107v107h40v-177h-34l-89 109v-109h-40zM1845 311v177h147v-33h-107v-38h97v-31h-97v-41h106v-34h-146z" />
    <glyph glyph-name="_VendorID" horiz-adv-x="1116" 
d="M73 -4v1187h974v-1187h-974zM76 -95q0 13 7.5 20.5t18.5 7.5q9 0 12 -3l4 -5v26h13v-72h-13v9l-4 -7q-8 -5 -15 -5q-23 0 -23 29zM90 -95q0 -17 13 -17q15 0 15 17v1q0 18 -13 18q-15 0 -15 -19zM126 47h869v1084h-869v-1084zM141 -95q0 13 7.5 20.5t19.5 7.5
q11 0 18.5 -7.5t7.5 -19.5q0 -2 -2 -5h-37q1 -13 13 -13q10 0 12 9h12q-4 -21 -24 -21q-27 0 -27 29zM155 -91h25q-3 15 -12 15q-12 0 -13 -15zM198 -106h14q3 -9 9 -9q9 0 9 7q0 3 -12 9q-18 5 -18 16q0 16 21 16t21 -16h-14q-1 7 -7 7q-7 0 -7 -6q0 -4 12 -9q17 -5 17 -15
q0 -18 -22 -18q-20 0 -23 18zM240 297q0 59 46 125l97 137h64l-84 -120q11 3 23 3q62 0 102.5 -41.5t40.5 -103.5q0 -61 -41.5 -103.5t-101.5 -42.5q-61 0 -103.5 42.5t-42.5 103.5zM240 768q0 56 46 123l97 142h64l-84 -122q7 2 23 2q63 0 103 -41t40 -104
q0 -61 -41 -102.5t-102 -41.5t-103.5 42t-42.5 102zM251 -56q0 7 8 7t8 -7q0 -8 -8 -8t-8 8zM252 -121v54h14v-54h-14zM276 -95q0 28 26 28q9 0 12 -3l4 -5v8h14v-41q0 -8 -2 -11q0 -24 -27 -24q-26 0 -26 18v1h14v-1q0 -8 12 -8q11 0 15 13v8l-4 -7q-8 -2 -14 -2
q-24 0 -24 26zM291 -94q0 -18 12 -18q15 0 15 17v1q0 18 -15 18q-12 0 -12 -18zM294 297q0 -42 25.5 -68t66.5 -26q39 0 64.5 26t25.5 68q0 40 -25.5 65t-64.5 25q-41 0 -66.5 -25t-25.5 -65zM294 768q0 -41 25.5 -67t66.5 -26q39 0 64.5 26.5t25.5 66.5t-25.5 66t-64.5 26
q-41 0 -66.5 -25t-25.5 -67zM343 -121v54h14v-10l4 7q5 3 13 3q17 0 20 -15q1 -3 1 -9v-30h-15v34q0 11 -10 11q-13 0 -13 -21v-24h-14zM402 -95q0 13 7.5 20.5t19.5 7.5q28 0 28 -28q0 -29 -28 -29q-12 0 -19.5 8t-7.5 21zM416 -95q0 -17 13 -17q15 0 15 17q0 19 -15 19
q-13 0 -13 -19zM462 -67h14l14 -45l13 45h14l-19 -54h-18zM522 -106q0 16 30 16h3v7q0 7 -9 7q-11 0 -11 -9h-13q0 18 24 18q19 0 21 -15v-39h-12v6l-3 -5q-8 -4 -14 -4q-16 0 -16 18zM535 -106q0 -6 8 -6q12 0 12 9v6q-20 2 -20 -9zM576 -78v9h6v8q0 15 19 15h6v-11
q-11 2 -11 -5v-7h11v-9h-11v-43h-14v43h-6zM589 297q0 62 44 125l97 137h66l-86 -120q10 3 25 3q61 0 102 -41.5t41 -103.5q0 -61 -41.5 -103.5t-101.5 -42.5q-61 0 -103.5 42.5t-42.5 103.5zM589 768q0 57 44 123l97 142h66l-87 -122q8 2 26 2q61 0 102 -41.5t41 -103.5
q0 -61 -41.5 -102.5t-101.5 -41.5q-61 0 -103.5 41.5t-42.5 102.5zM611 -95q0 28 28 28q27 0 27 -28q0 -29 -27 -29q-28 0 -28 29zM625 -95q0 -17 14 -17q13 0 13 17q0 19 -13 19q-14 0 -14 -19zM642 297q0 -42 26 -68t67 -26q38 0 62.5 26t24.5 68q0 40 -24.5 65t-62.5 25
q-41 0 -67 -25t-26 -65zM642 768q0 -41 26 -67t67 -26q38 0 62.5 26t24.5 67q0 40 -24.5 66t-62.5 26q-41 0 -67 -25.5t-26 -66.5zM675 -121v54h12v-10l6 7q4 3 13 3q16 0 19 -15v-39h-14v34q-4 11 -9 11q-15 0 -15 -21v-24h-12zM732 -78v9h8v13h14v-13h10v-9h-10v-28
q2 -10 9 -6v-10h-8q-15 0 -15 10v34h-8zM768 -106h15q1 -9 10 -9q8 0 8 7q0 3 -12 9q-17 5 -17 16q0 16 20 16q19 0 24 -16h-16q0 7 -9 7q-5 0 -5 -6q0 -5 11 -9q19 -6 19 -15q0 -18 -23 -18q-21 0 -25 18zM820 -116q0 10 9 10t9 -10q0 -8 -9 -8t-9 8zM844 -95q0 13 8 20.5
t18 7.5q25 0 25 -20h-13q-3 11 -12 11q-12 0 -12 -19q0 -17 12 -17q10 0 12 9h13q-1 -21 -25 -21q-26 0 -26 29zM900 -95q0 28 29 28q26 0 26 -28q0 -29 -26 -29q-29 0 -29 29zM914 -95q0 -17 15 -17q13 0 13 17q0 19 -13 19q-15 0 -15 -19zM965 -121v54h14v-9l5 6q3 3 9 3
q13 0 18 -10l5 7q3 3 11 3q17 0 17 -12q1 -4 1 -12v-30h-13v27q0 2 -0.5 5t-0.5 4q0 9 -10 9q-9 0 -9 -18v-27h-13v36q-5 9 -10 9q-10 0 -10 -18v-27h-14z" />
    </font>
</defs>
</svg>
